<?xml version="1.0" encoding="utf-8"?>
<!-- Generator: Adobe Illustrator 25.4.1, SVG Export Plug-In . SVG Version: 6.00 Build 0)  -->
<!DOCTYPE svg PUBLIC "-//W3C//DTD SVG 1.1//EN" "http://www.w3.org/Graphics/SVG/1.1/DTD/svg11.dtd" [
	<!ENTITY ns_extend "http://ns.adobe.com/Extensibility/1.0/">
	<!ENTITY ns_ai "http://ns.adobe.com/AdobeIllustrator/10.0/">
	<!ENTITY ns_graphs "http://ns.adobe.com/Graphs/1.0/">
	<!ENTITY ns_vars "http://ns.adobe.com/Variables/1.0/">
	<!ENTITY ns_imrep "http://ns.adobe.com/ImageReplacement/1.0/">
	<!ENTITY ns_sfw "http://ns.adobe.com/SaveForWeb/1.0/">
	<!ENTITY ns_custom "http://ns.adobe.com/GenericCustomNamespace/1.0/">
	<!ENTITY ns_adobe_xpath "http://ns.adobe.com/XPath/1.0/">
]>
<svg version="1.1" id="Слой_1" xmlns:x="&ns_extend;" xmlns:i="&ns_ai;" xmlns:graph="&ns_graphs;"
	 xmlns="http://www.w3.org/2000/svg" xmlns:xlink="http://www.w3.org/1999/xlink" x="0px" y="0px" viewBox="0 0 2374 1067"
	 style="enable-background:new 0 0 2374 1067;" xml:space="preserve">
<style type="text/css">
	.st0{fill:#1D1D1B;}
	.st1{font-family:'Arial-Black';}
	.st2{font-size:18px;}
	.st3{font-size:15.7931px;}
	.st4{font-size:24px;}
	.st5{font-size:23.9984px;}
</style>
<metadata>
	<sfw  xmlns="&ns_sfw;">
		<slices></slices>
		<sliceSourceBounds  bottomLeftOrigin="true" height="988.8" width="2234.7" x="71.7" y="81.2"></sliceSourceBounds>
	</sfw>
</metadata>
<text transform="matrix(0.9899 -0.1418 0.1418 0.9899 268.5896 131.5373)" class="st0 st1 st2">2068</text>
<text transform="matrix(0.9899 -0.1418 0.1418 0.9899 283.395 231.6175)" class="st0 st1 st2">2071</text>
<text transform="matrix(0.9899 -0.1418 0.1418 0.9899 310.4417 419.2039)" class="st0 st1 st2">2072</text>
<text transform="matrix(0.9899 -0.1418 0.1418 0.9899 325.1691 533.5001)" class="st0 st1 st2">2075</text>
<text transform="matrix(1 0 0 1 259.5887 821.4279)" class="st0 st1 st2">2008</text>
<text transform="matrix(-0.1418 -0.9899 0.9899 -0.1418 173.6674 157.9984)" class="st0 st1 st2">2069</text>
<text transform="matrix(-0.1418 -0.9899 0.9899 -0.1418 189.2377 263.9945)" class="st0 st1 st2">2070</text>
<text transform="matrix(-0.1418 -0.9899 0.9899 -0.1418 212.7148 432.848)" class="st0 st1 st2">2073</text>
<text transform="matrix(-0.1418 -0.9899 0.9899 -0.1418 223.7742 513.0101)" class="st0 st1 st2">2073а</text>
<text transform="matrix(-0.1418 -0.9899 0.9899 -0.1418 234.8393 580.8383)" class="st0 st1 st2">2074</text>
<text transform="matrix(-0.1418 -0.9899 0.9899 -0.1418 245.3507 664.5804)" class="st0 st1 st2">2074а</text>
<text transform="matrix(-4.463238e-07 -1 1 -4.463238e-07 495.425 689.3432)" class="st0 st1 st2">2006</text>
<text transform="matrix(-4.463238e-07 -1 1 -4.463238e-07 543.8595 696.6528)" class="st0 st1 st2">2006а</text>
<text transform="matrix(-4.463238e-07 -1 1 -4.463238e-07 591.1149 696.185)" class="st0 st1 st2">2006б</text>
<text transform="matrix(-4.463238e-07 -1 1 -4.463238e-07 634.4718 695.7172)" class="st0 st1 st2">2003а</text>
<text transform="matrix(-4.463238e-07 -1 1 -4.463238e-07 679.6749 695.2495)" class="st0 st1 st2">2003б</text>
<text transform="matrix(-4.463238e-07 -1 1 -4.463238e-07 733.1384 694.7817)" class="st0 st1 st2">2003в</text>
<text transform="matrix(-4.463238e-07 -1 1 -4.463238e-07 361.3362 843.1674)" class="st0 st1 st2">2007</text>
<text transform="matrix(-4.463238e-07 -1 1 -4.463238e-07 406.5461 849.8295)" class="st0 st1 st2">2007а</text>
<text transform="matrix(-4.463238e-07 -1 1 -4.463238e-07 450.6064 849.3608)" class="st0 st1 st2">2007б</text>
<text transform="matrix(-4.463238e-07 -1 1 -4.463238e-07 495.6411 843.1674)" class="st0 st1 st2">2005</text>
<text transform="matrix(-4.463238e-07 -1 1 -4.463238e-07 543.8596 849.3608)" class="st0 st1 st2">2005а</text>
<text transform="matrix(-4.463238e-07 -1 1 -4.463238e-07 590.899 848.894)" class="st0 st1 st2">2005б</text>
<text transform="matrix(-4.463238e-07 -1 1 -4.463238e-07 733.1385 842.2319)" class="st0 st1 st2">2002</text>
<text transform="matrix(1 -5.969652e-03 5.969652e-03 1 627.3198 826.0167)" class="st0 st1 st2">2004</text>
<text transform="matrix(1 -5.969652e-03 5.969652e-03 1 1659.328 669.1853)" class="st0 st1 st2">2102</text>
<text transform="matrix(-4.463238e-07 -1 1 -4.463238e-07 1762.9043 688.31)" class="st0 st1 st2">2104</text>
<text transform="matrix(-4.463238e-07 -1 1 -4.463238e-07 1808.5511 687.8422)" class="st0 st1 st2">2106</text>
<text transform="matrix(-4.463238e-07 -1 1 -4.463238e-07 1762.9049 842.2319)" class="st0 st1 st2">2105</text>
<text transform="matrix(-4.463238e-07 -1 1 -4.463238e-07 1808.5514 841.7651)" class="st0 st1 st2">2107</text>
<text transform="matrix(-4.463238e-07 -1 1 -4.463238e-07 1948.9877 841.2963)" class="st0 st1 st2">2110</text>
<text transform="matrix(-4.463238e-07 -1 1 -4.463238e-07 1994.0007 840.8295)" class="st0 st1 st2">2111</text>
<text transform="matrix(-4.463238e-07 -1 1 -4.463238e-07 2037.8291 840.8295)" class="st0 st1 st2">2112</text>
<text transform="matrix(0.1324 -0.9912 0.9912 0.1324 2224.8833 145.4525)" class="st0 st1 st2">2172</text>
<text transform="matrix(0.1324 -0.9912 0.9912 0.1324 2212.5886 237.4632)" class="st0 st1 st2">2174</text>
<text transform="matrix(0.1324 -0.9912 0.9912 0.1324 2197.9932 335.3099)" class="st0 st1 st2">2175а</text>
<text transform="matrix(0.1324 -0.9912 0.9912 0.1324 2183.2063 423.7249)" class="st0 st1 st2">2175б</text>
<text transform="matrix(0.1324 -0.9912 0.9912 0.1324 2173.6191 506.6898)" class="st0 st1 st2">2176</text>
<text transform="matrix(0.1324 -0.9912 0.9912 0.1324 2158.3223 603.5267)" class="st0 st1 st2">2178</text>
<text transform="matrix(1 -5.969652e-03 5.969652e-03 1 1659.3282 823.8326)" class="st0 st1 st2">2103</text>
<text transform="matrix(1 -5.969652e-03 5.969652e-03 1 1849.0026 823.833)" class="st0 st1 st2">2109</text>
<text transform="matrix(1 -5.969652e-03 5.969652e-03 1 1849.0022 669.1852)" class="st0 st1 st2">2108</text>
<text transform="matrix(1 -5.969652e-03 5.969652e-03 1 2084.4004 818.3713)" class="st0 st1 st2">2113</text>
<text transform="matrix(0.9912 0.1324 -0.1324 0.9912 2011.1462 520.34)" class="st0 st1 st2">2179</text>
<text transform="matrix(0.9912 0.1324 -0.1324 0.9912 2028.0002 410.4007)" class="st0 st1 st2">2177</text>
<text transform="matrix(0.9912 0.1324 -0.1324 0.9912 2053.113 226.0061)" class="st0 st1 st2">2175</text>
<text transform="matrix(0.9912 0.1324 -0.1324 0.9912 2065.4849 120.5449)" class="st0 st1 st2">2173</text>
<text transform="matrix(0.884 0.1181 -0.1324 0.9912 2126.0422 652.4828)" class="st0 st1 st3">2114</text>
<text transform="matrix(1 0 0 1 1083.2863 584.583)" class="st0 st1 st4">ВХОД С КАМПУСА</text>
<text transform="matrix(1 0 0 1 1085.0621 978.3947)" class="st0 st1 st4">ГЛАВНЫЙ ВХОД</text>
<text transform="matrix(0.9899 -0.1418 0.1418 0.9899 144.2136 34.7443)" class="st0 st1 st4">Корпус Б</text>
<text transform="matrix(0.9912 0.1324 -0.1324 0.9912 2126.042 17.9044)" class="st0 st1 st4">Корпус Г</text>
<text transform="matrix(-0.1477 -0.989 0.989 -0.1477 110.1895 792.1541)" class="st0 st1 st5">Корпус Б</text>
<g>
	<path class="st0" d="M1406.1,710.1h10v-34h206v46.5l219.7-0.3c120.8-0.1,219.9-0.4,220.1-0.7c0.2-0.2,4.2-26.6,8.7-58.7
		c36.4-256.3,43.6-308.1,42.9-308.7c-0.5-0.5-33.7-5.4-73.9-11.1c-40.1-5.7-73.4-10.6-73.9-11.1c-0.9-0.7,8.1-66.9,9.2-68
		c0.4-0.4,33.9,4.1,74.4,9.9c40.6,5.8,74.1,10.2,74.5,9.9c0.6-0.7,32.5-222.9,32-223.3c-0.1-0.1-24-3.4-53.2-7.3
		c-29.1-3.9-54.1-7.4-55.5-7.6l-2.5-0.6l-14.4,106.3c-8,58.5-14.6,106.5-14.8,106.8c-0.2,0.2-11.4-1.1-24.9-2.9
		c-13.4-1.9-24.7-3.1-25-2.9c-0.7,0.7-12.9,87.7-12.3,88.2c0.2,0.2,11.4,2,24.7,3.9c13.4,2,24.6,3.8,24.9,4
		c0.3,0.3-1.1,12.4-3.1,26.9s-8.4,61.2-14.2,103.8c-5.7,42.6-10.7,79-11.1,80.8c-0.5,3-4.2,6.4-28.6,26.8l-28.1,23.4h-285.6v-10h-91
		v60.7l-11.2,0.6c-6.2,0.4-74,0.7-150.5,0.7h-139.3v14h166V710.1z M2054.4,59.3c0.7-1,2.3-1.2,5.1-0.8c2.3,0.4,15.6,2.2,29.6,4.1
		c14,1.9,31,4.2,37.6,5.1c6.7,0.9,12.8,2,13.5,2.4c1,0.7-0.2,11.4-5.7,52.1c-3.8,28.1-7.3,51.8-7.9,52.6c-0.9,1.2-7.5,0.5-42.5-4.2
		c-22.8-3.1-42.1-5.8-42.7-6c-0.7-0.2-1.3-1.7-1.3-3.2C2040.1,155.4,2053.4,60.5,2054.4,59.3z M2033,210.6c4.8-35.5,4.6-34.5,7-34.5
		c1.1,0,20.3,2.5,42.7,5.5c22.5,3.1,41.3,6,41.8,6.5c0.8,0.8-8.5,75.6-10,81.2c-0.4,1.3-1.5,1.8-3.7,1.8c-6.5-0.1-82-10.9-83-11.9
		C2026.6,258,2026.7,257.3,2033,210.6z M2000.5,451.8c4.8-38,12.9-96.7,13.6-98.5c1.1-2.5,1.8-2.6,11-1.2c3.6,0.5,21.8,3,40.4,5.5
		c18.6,2.5,34.3,4.8,34.7,5.1c0.5,0.3,0.9,1.9,0.9,3.5c0,6.6-13.3,100.5-14.3,101.6c-0.9,0.9-10.6-0.1-41.7-4.3
		c-22.3-3-41.6-5.7-42.9-6C2000,457,1999.9,456.7,2000.5,451.8z M1997.7,472.3c0.5-2.7,1.1-3.2,3.3-3.2c1.5,0,20.9,2.5,43.1,5.5
		c22.4,3,40.6,5.9,41,6.5c0.4,0.6,0.5,2.1,0.3,3.3c-0.2,1.2-2.8,20.9-5.8,43.7c-6.8,50.7-6,47-9.2,47c-2.2,0-70.5-9-80.5-10.6
		c-3.4-0.5-3.8-0.9-3.8-3.7C1986.1,558,1996.4,479.9,1997.7,472.3z M1924.7,620.3c1.4-0.9,44-36.2,51.8-42.9c4-3.5,6.8-5.1,8.1-4.9
		c1.1,0.2,20.3,3.3,42.7,6.8c32.7,5,40.8,6.6,40.8,7.8c0.1,0.8-3.6,29.8-8.2,64.4l-8.3,62.9l-63.5-0.8c-34.9-0.4-63.6-0.8-63.7-0.9
		c0,0-0.3-20.7-0.4-45.9C1923.7,634.5,1923.9,620.8,1924.7,620.3z M1828.6,621.6l38.5-0.5c43.8-0.6,45.9-0.5,47.1,0.7
		c0.5,0.5,0.8,19.4,0.7,44.9l-0.3,43.9h-86V621.6z M1783.6,622.3c0.3-0.9,4.9-1.2,17.9-1.2c17.4,0,17.6,0,18.1,2.2
		c0.3,1.3,0.4,21.4,0.3,44.8l-0.3,42.5h-36l-0.3-43.5C1783.2,643.2,1783.3,623,1783.6,622.3z M1740.6,622.3
		c0.7-1.8,31.8-1.7,33.3,0.1c0.8,0.9,1.1,14.9,1.2,43.9c0,35.3-0.2,42.7-1.4,43.7c-0.9,0.8-6.3,1.1-17.2,0.9l-15.9-0.3l-0.3-43.5
		C1740.2,643.2,1740.3,623,1740.6,622.3z M1633.1,666.7c0-34.6,0.3-44.5,1.3-44.9c0.6-0.3,22.6-0.5,48.7-0.4l47.5,0.2v89l-48.7,0.3
		l-48.8,0.2V666.7z M1550.3,638.5l0.3-24.8l2.5-1.3c3.6-1.8,60.4-1.8,64,0l2.5,1.3l0.3,24.2c0.1,15.6-0.1,25-0.8,26.2
		c-1,1.9-2.3,2-33.9,2c-26.6,0-33.1-0.3-34-1.4C1550.4,663.8,1550.1,656,1550.3,638.5z"/>
	<polygon class="st0" points="2001.1,690.1 2001.1,661.1 2001.1,632.1 1998.1,632.1 1995.1,632.1 1995.1,661.1 1995.1,690.1 
		1998.1,690.1 	"/>
	<path class="st0" d="M1969.6,656.8c1-3.4,2.2-6.6,2.7-7.2c1.1-1.3,1.1-1.1-2.2,10c-1.6,5.5-3,10.3-3,10.7c0,0.4,1.2,0.8,2.8,1
		c2.7,0.3,2.7,0.3,3.2,9.8c0.3,5.2,0.8,9.4,1.3,9.2c0.4-0.1,1.2-0.2,1.7-0.2c0.6,0,1-3.9,1-9.6c0-6.1,0.4-9.3,1-8.9
		c0.6,0.3,1,4.6,1,9.4c0,9.2,0.3,10.3,2.6,9.4c1.1-0.4,1.4-2.8,1.4-9.9v-9.4h3.1c2.5,0,3-0.3,2.5-1.6c-1.8-4.6-5.7-19.6-5.3-20
		c0.3-0.3,1.3,2.1,2.2,5.3c0.9,3.2,1.8,6.4,2,7c0.7,2,3.5,1.5,3.5-0.6c0-3.9-4.2-15.7-6.2-17.4c-2.6-2.2-10.5-2.3-13.6-0.2
		c-2.2,1.6-7.7,16.9-6.6,18.7C1966.1,664.5,1968,662.5,1969.6,656.8z"/>
	<path class="st0" d="M2008.4,664.9c1.5,0.3,1.7-0.6,1.7-7.2c0-4.4,0.4-7.6,1-7.6c0.6,0,1,7.3,1,20v20h2.5h2.5l0.2-12.8l0.2-12.7
		l0.6,12.5l0.5,12.5h2.5h2.5l0.5-20c0.3-11,0.7-16.5,0.8-12.3c0.2,7.1,0.4,7.8,2.2,7.8c1.9,0,2-0.7,2-9s-0.2-9.3-2.5-11.5
		c-2.1-2.2-3.3-2.5-9-2.5s-6.9,0.3-9.1,2.5c-2.3,2.3-2.5,3.1-2.2,11.2C2006.6,663.2,2006.9,664.6,2008.4,664.9z"/>
	<polygon class="st0" points="1556.6,651.6 1569.4,651.9 1582.1,652.2 1582.1,638.6 1582.1,625.1 1569.1,625.1 1556,625.1 
		1556.3,638.3 	"/>
	<polygon class="st0" points="1613.1,652.1 1613.1,638.6 1613.1,625.1 1600.1,625.1 1587.1,625.1 1587.1,638.6 1587.1,652.1 
		1600.1,652.1 	"/>
	<path class="st0" d="M844.1,663.4l-0.2-30.9l-0.3-30.9l-3.2,0.1c-1.8,0-22.2,0.1-45.3,0.2l-42,0.2v10h-42.3
		c-23.3,0-87.6,0.3-142.8,0.6l-100.4,0.7l-27.5-22.8c-15.1-12.5-27.9-23-28.3-23.5c-0.6-0.6-30.7-210.6-30.7-214.6
		c0-0.7,9.3-2.4,24-4.5c13.3-1.8,24.6-3.6,25.2-4c0.8-0.5-0.7-13.4-5.2-44.6c-3.5-24.1-6.4-43.9-6.6-44.1
		c-0.1-0.2-11.3,1.3-24.9,3.3c-13.6,2-24.9,3.5-25.1,3.3c-0.1-0.2-6.9-47.2-14.9-104.3c-8-57.2-14.8-105-15-106.3
		c-0.6-2.5-0.5-2.5-12.5-0.7c-4.7,0.7-28.5,4.1-53,7.5c-24.5,3.4-44.6,6.3-44.8,6.5c-0.3,0.3,31.8,222.8,32.3,223.3
		c0.2,0.2,34.2-4.6,75.7-10.6c41.4-6.1,75.4-10.9,75.5-10.9c0.4,0.5,10,68.3,9.7,68.6c-0.2,0.2-18.3,3-40.2,6.2
		c-21.8,3.2-55.8,8.2-75.4,11.1l-35.7,5.2l0.5,2.5c0.2,1.4,12.1,83.6,26.4,182.6s26.1,180.7,26.3,181.5c0.2,1.3,21,1.5,181.7,1.2
		c99.8-0.1,198.9-0.5,220.3-0.9l38.7-0.6v-46.7h194v33h10v-33l96.8-0.2l96.7-0.3l0.3-7.4l0.3-7.3l-159,0.7L844.1,663.4z
		 M256.9,179.3c-0.9-0.9-14.8-96.9-14.8-102.4c0-2,0.6-2.9,2.3-3.3c3.6-0.9,77.9-11.3,81.4-11.4c2.7-0.1,3.2,0.3,3.7,2.6
		c0.3,1.6,3.3,22.4,6.6,46.3c3.3,23.9,6.4,46.2,6.9,49.5s0.5,6.4,0,6.9C341.7,168.9,258,180.4,256.9,179.3z M355.7,263.4
		c-2,0.8-79.6,11.7-83,11.7c-1.4,0-2.7-0.4-3-0.8c-1-1.7-11.6-81.6-10.9-82.3c0.4-0.4,14.3-2.7,30.8-5c16.5-2.2,33.8-4.7,38.5-5.4
		c10.3-1.5,16.7-1.8,17.4-0.7c0.4,0.7,2.6,16.2,11.3,77.8C357.2,262,357,262.9,355.7,263.4z M283,366.8c0.9-0.9,81.2-12.6,84.5-12.4
		c1,0.1,2.3,0.9,2.7,1.7c1.4,2.6,14.9,103.4,14,104.3c-0.5,0.5-19.9,3.6-43.2,6.8c-34.1,4.8-42.5,5.7-43.5,4.7
		C296,470.2,281.9,367.9,283,366.8z M311.6,578.6l-6.2-44c-3.4-24.2-6.2-45.5-6.3-47.2c0-2.6,0.5-3.4,2.3-3.8
		c3.5-0.9,77.9-11.3,81.4-11.4c1.7,0,3.4,0.3,3.7,0.8c0.4,0.5,3.5,21.6,7,46.8c5,35.4,6.2,46.1,5.3,47c-1.3,1.3-79.4,12.6-84.1,12.1
		L311.6,578.6z M460.1,712.8l-44.2,0.6c-67.3,1-83.8,0.9-84.3-0.6c-0.5-1.4-15.4-112.6-16.2-120.7l-0.5-5.5l41.3-5.7
		c22.8-3.1,42.6-5.5,44-5.5c1.9,0.2,11.2,7.3,31.3,24l28.6,23.7V712.8z M510.7,713c-0.9,0.8-7.2,1.1-20.2,0.9l-18.9-0.3l-0.3-43.5
		c-0.1-23.9,0-44.1,0.3-44.8c0.3-0.9,5.2-1.2,19.8-1.2h19.4l0.6,23.2C512.6,687.4,512.3,711.7,510.7,713z M555.9,713.3
		c-2.2,1.3-33.2,1-34.6-0.4c-0.9-0.9-1.2-12.1-1.2-44.3c0-23.8,0.3-43.5,0.7-43.9c0.4-0.3,8.6-0.5,18.2-0.4l17.6,0.3l0.3,43.9
		C557.1,703,556.9,712.6,555.9,713.3z M599.9,713.5c-3,0.8-30.2,0.8-32.2,0c-1.4-0.5-1.6-5.5-1.6-45v-44.4l17.8,0.2l17.7,0.3
		l0.3,44.1l0.2,44.2L599.9,713.5z M645.3,711.8c-0.6,0.9-22.7,1.9-32.4,1.4c-1.7-0.1-1.8-2.9-1.8-44.6v-44.4l7.3-0.4
		c14.7-0.7,24.2-0.6,25.3,0.1C645,624.7,646.5,709.8,645.3,711.8z M694.9,669.2l-0.3,43.4h-40l-0.3-43.9c-0.2-34.5,0-44.1,1-44.8
		c0.7-0.4,9.5-0.8,19.4-0.8c14.1,0,18.4,0.3,19.3,1.4C694.8,625.4,695,638,694.9,669.2z M752.9,669.2l-0.3,43.4h-48l-0.5-43
		c-0.3-23.7-0.2-43.8,0.2-44.8c0.8-1.5,2.9-1.7,23.7-1.7c18.1,0,23.1,0.3,24,1.4C752.8,625.4,753,638,752.9,669.2z M833.9,641.5
		c-0.2,17.6-0.6,23.8-1.6,24.8s-8.5,1.3-33.8,1.3c-31.1,0-32.6-0.1-34-1.9c-2.2-3.1-2.1-48.8,0.2-51c1.3-1.4,5.8-1.6,33.9-1.6h32.5
		l1.5,2.4C834,617.6,834.2,621.4,833.9,641.5z"/>
	<polygon class="st0" points="385.1,632.1 385.1,661.1 385.1,690.1 388.1,690.1 391.1,690.1 391.1,661.1 391.1,632.1 388.1,632.1 	
		"/>
	<path class="st0" d="M374.9,643.8c-2.6-2.2-10.5-2.3-13.6-0.2c-2.2,1.6-7.7,16.9-6.6,18.7c1.4,2.3,3.4,0.3,4.9-5
		c2.2-7.7,2.5-8.6,3-8c0.2,0.2-0.9,5-2.5,10.6c-1.7,5.6-3,10.4-3,10.6c0,0.3,1.2,0.6,2.8,0.8c2.7,0.3,2.7,0.3,3.2,9.8
		c0.3,5.2,0.8,9.4,1.3,9.2c0.4-0.1,1.2-0.2,1.7-0.2c0.6,0,1-3.7,1-9s0.4-9,1-9c0.6,0,1,3.6,1,8.8c0,9.3,0.3,10.4,2.6,9.5
		c1.1-0.4,1.4-2.8,1.4-9.9v-9.4h3.1c2.5,0,3-0.3,2.5-1.6c-1.7-4.5-5.7-19.6-5.3-20c0.3-0.3,1.4,2.7,2.6,6.5c1.4,4.6,2.7,7.1,3.6,7.1
		c0.8,0,1.5-0.9,1.5-1.9C381.1,657.3,376.9,645.5,374.9,643.8z"/>
	<path class="st0" d="M416.6,644.6c-2.1-2.2-3.3-2.5-9-2.5c-5.7,0-6.9,0.3-9.1,2.5c-2.3,2.3-2.5,3.1-2.2,11.2
		c0.3,7.4,0.6,8.8,2.1,9.1s1.7-0.6,1.7-7.2c0-4.4,0.4-7.6,1-7.6c0.6,0,1,7.3,1,20v20h2.5h2.5l0.2-12.3l0.2-12.2l0.6,12
		c0.5,12,0.5,12,3,12h2.5l0.5-20c0.3-11,0.7-16.5,0.8-12.3c0.2,7.1,0.4,7.8,2.2,7.8c1.9,0,2-0.7,2-9S418.9,646.8,416.6,644.6z"/>
	<path class="st0" d="M783.7,626.1c-6.8,0-12.6,0.3-12.9,0.7c-0.4,0.3-0.7,6.4-0.7,13.5v12.8H783c10.8,0,13-0.3,13.5-1.6
		c0.3-0.9,0.6-6.2,0.6-11.9s-0.3-11-0.6-11.9C796,626.4,793.9,626.1,783.7,626.1z"/>
	<path class="st0" d="M826.6,626.6l-12.1-0.3c-6.6-0.1-12.3,0.1-12.7,0.4c-0.4,0.4-0.7,6.5-0.7,13.6v12.8h13h13.1l-0.3-13.3
		L826.6,626.6z"/>
	<path class="st0" d="M2110.4,676.6l7.6,1.2c4.2,0.6,16.8,2.4,28,3.9l20.3,2.7l-0.6,4.8c-0.6,4.6-0.6,4.8,2.1,5.3
		c10.3,2.1,79.7,12.5,80.4,12c0.5-0.3,0.9-2,0.9-3.9v-3.3l-6.7-1.1c-3.8-0.6-20.2-3.3-36.5-5.9c-16.4-2.7-29.9-5-30.2-5.3
		c-0.2-0.2,5.9-46.1,13.5-101.9c7.6-55.8,21.3-156.4,30.4-223.5c9.1-67.1,21.7-159.1,27.9-204.5c6.2-45.4,11-82.6,10.7-82.7
		c-0.3-0.1-12.5-1.8-27.1-3.8c-14.6-1.9-28.2-3.8-30.2-4.1c-3.5-0.5-3.7-0.4-4.3,2.8c-0.3,1.8-6.3,44.5-13.5,94.8
		c-7.1,50.3-16.8,118.7-21.5,152s-18.2,128-29.9,210.5L2110.4,676.6z M2166.7,660.7c-0.1,0.3-0.2,0.6-0.4,0.8
		c-0.2,1.4-0.6,3.4-0.8,5.2c-0.4,2.9-1.2,5.7-1.9,6.2c-1.6,1.3-38.5-3.6-40.3-5.3c-0.7-0.7-0.9-2.8-0.6-6l0.4-3.5
		c-0.1-0.3-0.1-0.6-0.1-0.8c0-1.5,0.5-3.1,1-4.8c-0.1-1.7,1.6-10.3,2-12.9c0.1-0.4,0.1-0.7,0.1-0.9l0.2-1.3c0.3-2.5,0.8-5,1.2-5.5
		c0.8-1.3,3.5-1.1,22.4,1.6c9.5,1.4,17.7,2.8,18.2,3.1c1,0.6,0.6,9.1-0.3,14C2168.3,654,2167.8,657.3,2166.7,660.7z M2200,120.9
		c3-21.1,5.8-39.1,6.3-40.2c0.8-1.4,1.7-1.7,4.6-1.3c2.1,0.3,10.8,1.6,19.4,2.8s16.2,2.6,16.9,3c1,0.6,0,9.6-4.3,39.9
		c-3.1,21.6-6,39.6-6.6,40.2c-1,1-38-3.9-40.4-5.3C2194.9,159.4,2195.7,151.3,2200,120.9z M2193.7,172.6c1.3-1.3,0.8-1.3,23.8,2
		c8.7,1.3,16.3,2.8,16.8,3.3c1.2,1.2-10,80.2-11.7,82c-1,1.1-4.6,0.8-20.3-1.4c-10.5-1.5-19.6-3-20.2-3.4
		C2180.7,254.2,2191.9,174.4,2193.7,172.6z M2180.5,263.9c0.6-0.4,2.5-0.5,4.1-0.3c1.7,0.3,10.4,1.6,19.4,3c9,1.3,16.8,2.8,17.3,3.3
		c0.8,0.8-9.6,76.4-10.7,78.3c-0.4,0.5-1.8,0.9-3.3,0.9c-5.5,0-36.7-5.2-37.8-6.3C2168.1,341.3,2178.7,265,2180.5,263.9z
		 M2161,393.5c2.9-20.3,5.5-37.2,5.7-37.6c0.8-1.3,5.1-1,23,1.8c9.3,1.4,17.4,3.1,18.1,3.7c0.9,0.9,0,9.5-4.1,37.9
		c-2.9,20.2-5.6,37.1-5.9,37.5c-0.8,0.8-38.9-4.6-40.8-5.8C2156,430.4,2156.9,422,2161,393.5z M2148.4,483.6
		c3.1-21.8,5.9-40,6.2-40.6c0.9-1.3,2.3-1.2,21.7,1.6c9.5,1.4,17.9,2.7,18.6,3c0.6,0.2,1.2,1.9,1.2,3.7
		c-0.1,6.3-10.7,76.9-11.7,77.9c-1.1,1.1-38-3.7-40.4-5.2C2143,523.4,2144,514.2,2148.4,483.6z M2145.5,535.6
		c1.7,0.3,10.4,1.7,19.4,2.9c9,1.3,16.9,2.9,17.5,3.5c1.5,1.5-9.6,80.9-11.5,82.7c-1,0.9-5.6,0.6-20.7-1.6
		c-10.6-1.6-19.8-3.3-20.3-3.8c-1.2-1.2,9.8-81,11.5-83C2142,535.5,2143.5,535.3,2145.5,535.6z"/>
	<path class="st0" d="M170.6,408.6C189.1,540,205.5,657,207.1,668.5c1.7,11.5,3,21.4,3,22c0,0.7-14,3.5-36.1,7.1
		c-19.8,3.3-36.5,6.2-37,6.6c-0.5,0.3-0.6,2-0.2,4l0.8,3.5l82.6-14l-0.6-9l27.5-3.9c15.1-2.2,27.6-4.1,27.8-4.2
		c0.2-0.2-1.2-11.3-3.2-24.7c-1.9-13.3-12.1-83.7-22.6-156.3s-19.2-132.9-19.5-134.1c-0.5-2.1-0.5-2.1-27.1,1.8
		c-14.6,2.2-26.8,3.7-27.1,3.4c-0.4-0.3-2.7-15.8-5.3-34.3l-4.6-33.8l3-0.7c1.7-0.4,13.3-2.1,25.8-3.9c12.5-1.8,23.2-3.5,23.8-3.9
		c1.1-0.7,0.1-8.3-24.5-178.1c-3.6-24.5-6.5-44.9-6.5-45.3c0-0.8,2.4-1.1-32.3,3.9c-16.5,2.4-30,4.5-30.2,4.7
		c-0.1,0.2,2.6,20.5,6.1,45.3C134.2,149.3,152.1,277.1,170.6,408.6z M251.7,601.3c1.4,2.2,10.3,68.3,9.4,69.2
		c-0.7,0.7-35.3,6.3-40.1,6.6c-1.3,0-1.8-3.1-6.5-36.1c-3-21.8-4.3-33.4-3.6-34.1c0.5-0.5,9.5-2.2,19.8-3.8
		c10.4-1.5,19.2-2.8,19.6-2.9C250.7,600.1,251.3,600.6,251.7,601.3z M241.6,526.3c1.5,9,8.5,59.5,8.5,61.9c0,3.2,2.1,2.6-23.4,6.5
		c-9.3,1.3-17.3,2.1-17.8,1.6c-1.3-1.3-10.3-66.1-9.2-67.1c1-1.1,30.7-5.8,37.1-6C240.8,523.1,241,523.3,241.6,526.3z M230.5,453
		c0.9,1.4,8.8,56,8.4,58.4c-0.3,2-1.7,2.3-20.6,5.2c-14.1,2.2-20.5,2.8-21.1,2.1c-1.3-1.7-9.4-58.7-8.4-59.7
		c0.7-0.7,34.3-6.5,39.5-6.8C229.2,452.1,230.2,452.5,230.5,453z M177.3,380.5c0.5-0.4,36.3-6.1,39.5-6.3c1.3-0.1,2.4,0.6,2.7,1.6
		c1,3.7,9.9,66.3,9.4,66.8c-0.7,0.7-40.9,6.7-41.4,6.2C186.8,448.2,176.9,381,177.3,380.5z M194.5,201.9c1.1,1.9,11.8,81.4,11,82.2
		c-0.5,0.5-9.8,2.1-20.7,3.6c-14.6,2-20.1,2.4-20.6,1.6c-0.4-0.6-2.2-11.9-4-24.9c-1.8-13.1-4.2-31.1-5.5-40c-1.2-9-2-16.7-1.6-17.3
		c0.6-1,30.2-5.7,37.2-5.9C192.3,201.1,194.2,201.5,194.5,201.9z M136.8,89.1c0.8-0.8,33-5.7,38.5-5.9c2.1-0.1,2.9,0.5,3.3,2.1
		c2,9.4,14.2,102.5,13.4,103.2c-0.5,0.6-9.5,2.2-20.1,3.7c-15,2.2-19.6,2.5-20.5,1.6C149.9,192.3,135.6,90.2,136.8,89.1z"/>
	<path class="st0" d="M2089.1,298c0-0.5-1.6-3.1-3.6-5.9c-3.5-4.9-5.6-6.1-6.9-4c-0.4,0.6,0.1,2.3,1,3.7l1.7,2.6l-6.1-0.7
		c-3.4-0.4-11.4-1.6-17.9-2.6c-11.5-1.9-14.1-1.7-13,1.2c0.4,0.9,5.9,2.1,15.9,3.7c8.5,1.3,16.4,2.5,17.7,2.8l2.3,0.5l-2,2.2
		c-2.5,2.6-2.7,4.6-0.6,4.6C2079.4,306.1,2089.1,299.3,2089.1,298z"/>
	<path class="st0" d="M310.2,289.1c-0.6,0-2.8,2.3-5,5.2c-2.3,3-3.7,5.8-3.3,6.5c1.1,1.9,10.5,8.3,11.4,7.7c1.5-1,0.8-3.9-1.3-5.2
		c-1.2-0.7-1.9-1.5-1.7-1.8c0.2-0.2,6.9-1.3,14.9-2.4c20.8-3,23.6-3.9,20.9-6.6c-0.9-0.9-21.8,1.6-34.4,4l-2.8,0.6l1.7-2.6
		C312.2,291.9,312,289.1,310.2,289.1z"/>
	<path class="st0" d="M2060.6,331.6c21.8,3.5,21.3,3.5,22.5,2.1c1.8-2.2-0.9-3.3-12.5-5.1c-6-0.9-14.1-2.1-17.9-2.7l-6.9-1.1
		l2.6-1.9c1.5-1.1,2.7-2.6,2.7-3.4c0-2.4-3.5-1.5-8.4,2.1c-2.5,2-4.6,3.9-4.6,4.3c0,1.6,7.3,11.2,8.6,11.2c2.2,0,2.6-2,0.9-4.6
		c-0.9-1.4-1.5-2.7-1.3-2.9S2052.9,330.3,2060.6,331.6z"/>
	<path class="st0" d="M343.6,334.1c-1.9,1.6-1.9,5,0,5c1.6,0,8.5-8.6,8.5-10.6c0-1.5-8.7-8.4-10.6-8.4c-0.7,0-1.6,0.5-2,1.2
		c-0.4,0.6,0.4,2.1,2.1,3.4l2.8,2.2l-5.4,1c-3,0.6-10.9,1.8-17.6,2.8c-13.3,1.9-14.9,2.4-14,4.8c0.5,1.3,1.5,1.5,4.4,1.1
		c2.1-0.3,10.4-1.6,18.6-2.8c8.1-1.3,14.7-2,14.7-1.6C345.1,332.6,344.4,333.4,343.6,334.1z"/>
	<path class="st0" d="M2239,749.6c-2-0.4-78.5-12.5-79.4-12.5c-0.1,0-0.8,3.5-1.4,7.7c-0.6,4.3-1.4,9.9-1.7,12.5l-0.7,4.8h-533.7
		v151h-70v-151h-204v12h97l0.2,42.2c0.2,23.3,0.3,42.4,0.2,42.5c0,0.1-14.8,0.4-33,0.5c-18.1,0.1-40,0.4-48.6,0.6l-15.8,0.3v7.9
		h-107v13.2l150.3-0.3l150.2-0.3l0.3,21.7l0.2,21.7h90v-46l148.3-0.1c81.5-0.1,197.9-0.5,258.7-0.8l110.5-0.6l8.7-64.4
		c4.8-35.4,9-64.6,9.3-64.9c0.2-0.3,16.4,2.1,36,5.3c19.5,3.2,35.8,5.6,36.1,5.3c0.3-0.3,0.7-2.2,1.1-4.1
		C2241.3,750.6,2241.1,750.1,2239,749.6z M1540.9,820.7l-0.3,45.9h-84l-0.3-45.5c-0.2-37.5,0-45.7,1.1-46.5
		c1.7-1.3,80.7-1.9,82.5-0.7C1540.8,774.5,1541.1,784.6,1540.9,820.7z M1729.9,866.3c-0.7,0.4-22.4,0.7-48.3,0.5l-47-0.2l-0.3-45.5
		c-0.1-25,0-46.1,0.3-46.8c0.3-0.9,10.9-1.2,47.9-1.2c26.1,0,47.7,0.4,48,0.9c0.3,0.5,0.6,21.2,0.6,46.1
		C1731.2,856,1730.9,865.6,1729.9,866.3z M1773.9,865.9c-1.7,1.7-30.9,1.7-32.6,0c-0.9-0.9-1.2-12.6-1.2-46.3
		c0-24.9,0.3-45.5,0.7-45.8c0.3-0.4,7.9-0.7,16.9-0.7c13.8,0,16.3,0.2,16.8,1.6c0.3,0.9,0.6,21.5,0.6,45.8
		C1775.1,853.5,1774.8,865,1773.9,865.9z M1818.9,865.9c-1.3,1.3-31.5,1.7-33.4,0.4c-1.6-1.1-2.9-89.9-1.3-91.8
		c0.9-1.1,4.7-1.4,17.9-1.4c14.4,0,16.9,0.2,17.4,1.6c0.3,0.9,0.6,21.5,0.6,45.8C1820.1,853.5,1819.8,865,1818.9,865.9z
		 M1913.4,865.9c-1.3,0.9-11.3,1.2-41.9,1.2c-35.3,0-40.5-0.2-41.8-1.6c-1.4-1.4-1.6-6.9-1.6-45.4c0-24.1,0.3-44.6,0.6-45.4
		c0.6-1.5,5-1.6,43.3-1.4l42.6,0.3l0.3,45.5C1915.1,861,1915,864.7,1913.4,865.9z M1959.9,865.9c-0.8,0.8-5.9,1.2-16.4,1.2
		c-12.5,0-15.5-0.3-16.8-1.6c-1.4-1.4-1.6-6.9-1.6-45.9c0-39,0.2-44.5,1.6-45.9c1.3-1.3,4.2-1.6,16.4-1.6s15.1,0.3,16.4,1.6
		c1.4,1.4,1.6,6.9,1.6,46.3C1961.1,853.4,1960.8,865,1959.9,865.9z M2004.2,866.1c-2.1,1.1-30.8,1.4-33.5,0.4
		c-1.4-0.5-1.6-5.6-1.6-46.9c0-36.1,0.3-46.4,1.3-46.8c0.6-0.3,8.3-0.6,16.9-0.6c13-0.1,15.9,0.2,17.2,1.5c1.4,1.4,1.6,7,1.6,46.4
		C2006.1,863.5,2006,865.1,2004.2,866.1z M2049.5,866.5c-2,0.8-31.8,0.8-33.8,0c-1.4-0.5-1.6-5.6-1.6-46.9c0-36.1,0.3-46.4,1.3-46.8
		c1.8-0.8,32.2-0.8,34.1-0.1c1.4,0.5,1.6,5.6,1.6,46.9C2051.1,860.9,2050.9,866,2049.5,866.5z M2138.6,865.1c-0.4,0.6-14.1,1-39.6,1
		h-38.9v-46.3c0-25.5,0.3-46.7,0.7-47c0.9-1,89.1-0.9,89.7,0.1C2151.1,773.9,2139.5,863.6,2138.6,865.1z"/>
	<path class="st0" d="M1037.1,868.7V860l-98,0.6v-85.5h16.3c8.9,0,30.7-0.3,48.5-0.7l32.2-0.6v-10.7h-202v152l-34.7-0.2l-34.8-0.3
		l-0.3-75.2l-0.2-75.2l-115.8,0.4c-63.6,0.3-183.7,0.7-266.8,1L230.3,766l-0.5-3.2c-0.4-1.8-1.1-6.9-1.8-11.5
		c-0.9-6.5-1.5-8.2-2.8-8.1c-0.9,0.1-19.1,3.1-40.6,6.8c-35.2,6.1-39,6.9-39.3,8.7c-0.6,4.5-0.1,4.5,37.2-1.7
		c19.7-3.3,36-5.8,36.1-5.7c0.1,0.2,4.1,28.2,8.9,62.3c4.7,34.1,8.9,63.3,9.2,64.9l0.6,2.9l258.4-0.7l258.4-0.7v8.8
		c0,4.8,0.3,15.2,0.7,23l0.6,14.3h89.7v-43.7l117.2-0.6c64.4-0.4,135.7-0.7,158.5-0.7h41.3v-13.2l-62.5,0.4L1037.1,868.7z
		 M325.8,868.3c-0.7,1.7-3.6,1.8-39.2,1.8c-21.1,0-38.6-0.4-38.9-0.8c-0.2-0.4-3.2-21.2-6.6-46.2c-4.9-36.2-5.8-45.5-4.8-46.2
		c0.7-0.4,21.1-0.7,45.3-0.5l44,0.2l0.5,45C326.4,846.3,326.3,867.4,325.8,868.3z M371.9,823.7l-0.3,45.9l-17.4,0.3
		c-13.3,0.2-17.6-0.1-18.3-1c-0.4-0.7-0.8-21.6-0.8-46.5c0-35.2,0.3-45.2,1.3-45.6c2-0.9,33.1-0.7,34.5,0.1
		C371.9,777.6,372.1,787.6,371.9,823.7z M415.5,869.5c-2,0.8-30.8,0.8-32.8,0c-1.4-0.5-1.6-5.6-1.6-46.3c0-25.2,0.3-46.1,0.7-46.4
		c1.2-1.3,32.8-0.8,34.1,0.5c0.9,0.9,1.2,12.6,1.2,46.4C417.1,864,416.9,869,415.5,869.5z M458.9,869.3c-1.7,1-29.9,1-31.5,0
		c-1-0.6-1.3-11.4-1.3-46c-0.1-24.9,0.2-45.7,0.5-46.3c0.4-0.6,6.9-0.8,16.8-0.7l16.2,0.3l0.3,45.9
		C460.1,858.6,459.9,868.6,458.9,869.3z M509.9,869.5c-4.5,1.2-36.3,0.7-37.6-0.6c-0.9-0.9-1.2-12.6-1.2-46.3
		c0-24.9,0.3-45.5,0.7-45.9c0.4-0.3,9.5-0.5,20.2-0.4l19.6,0.3l0.3,46.1l0.2,46.2L509.9,869.5z M557.9,824.6l-0.3,44l-16,0.5
		c-8.8,0.3-17,0.3-18.2,0.1l-2.3-0.3v-92.8h18c17.8,0,18,0,18.5,2.2C557.9,779.6,558,800.4,557.9,824.6z M602.7,866.9
		c-0.7,2.2-1.1,2.2-18.1,2.2c-17.3,0-17.5,0-18-2.3c-0.3-1.2-0.4-22-0.3-46.2l0.3-44l14.5-0.5c12-0.5,19.9-0.3,20.6,0.4
		C602.3,777,603.2,865.2,602.7,866.9z M654.2,868.9c-22.3,0.1-40.8-0.1-41.3-0.6c-0.4-0.4-1.1-20.9-1.4-45.6
		c-0.7-43-0.6-44.9,1.1-46.2c1.5-1.1,9.5-1.4,40.4-1.4c21.2,0,39.1,0.4,39.8,0.8c0.8,0.5,1.2,13.2,1.5,46.7l0.3,46L654.2,868.9z
		 M751.9,866.8c-0.7,2.3-0.8,2.3-23.7,2.3c-19.9,0-23-0.2-23.5-1.6c-0.3-0.9-0.6-21.7-0.6-46.4c0-34.9,0.3-44.9,1.3-45.3
		c0.6-0.3,11.3-0.5,23.7-0.4l22.5,0.2l0.5,44.5C752.4,844.6,752.3,865.6,751.9,866.8z M929.3,867.3c-0.5,0.5-18.9,1.2-41,1.5
		c-31.9,0.5-40.4,0.4-41.7-0.7c-1.3-1.1-1.5-6.9-1.5-46.5c0-24.8,0.3-45.5,0.7-45.8c0.4-0.4,19.4-0.6,42.2-0.5l41.6,0.3l0.3,45.4
		C930,846,929.7,866.9,929.3,867.3z"/>
	<path class="st0" d="M986.7,798.3l-18.9-0.2l2.3-2.5c2.2-2.3,2.2-5.5,0.1-5.5c-0.6,0-3.1,2-5.6,4.5s-4.5,5-4.5,5.5
		c0,1.3,8.8,10,10.1,10c2.1,0,2.1-3.2-0.1-5.5l-2.3-2.5l18.9-0.2c16-0.3,18.9-0.5,18.9-1.8C1005.6,798.8,1002.7,798.6,986.7,798.3z"
		/>
	<path class="st0" d="M1383.8,790.1c-0.7,0.1-3.1,2-5.4,4.4c-2.4,2.4-4.3,4.9-4.3,5.6c0,1.7,8.1,10,9.7,10c2.3,0,2.5-2.2,0.4-5.1
		l-2.1-2.9l18.7-0.2c15.9-0.3,18.8-0.5,18.8-1.8c0-1.3-2.9-1.5-18.8-1.8l-18.7-0.2l2.1-2.9C1386.3,792.3,1386.1,790.1,1383.8,790.1z
		"/>
	<path class="st0" d="M791.7,846.2c-1.1-1.7-3.1-1.3-5.2,1c-1.9,2.1-1.9,1.9-2.4-16.7c-0.5-17.6-1.1-21-3.3-18.8
		c-0.4,0.4-0.7,9.1-0.7,19.2v18.5l-2.3-2.1c-2.7-2.6-4.5-2.8-5.4-0.6c-0.3,1,1.1,3,4.1,6c2.5,2.4,5,4.4,5.4,4.4
		C783.5,857.1,792.3,847.2,791.7,846.2z"/>
	<path class="st0" d="M812.6,821.1l2.5-2.3l0.2,18.9c0.3,16,0.5,18.9,1.8,18.9c1.3,0,1.5-2.9,1.8-18.8c0.1-10.3,0.6-18.7,1.1-18.7
		s1.5,1,2.3,2.2c1.5,2.2,4.8,2,4.8-0.3c0-1.3-8.5-9.9-9.8-9.9c-0.5,0-2.9,2-5.5,4.5c-2.6,2.4-4.7,4.9-4.7,5.5
		C807.1,823.3,810.3,823.3,812.6,821.1z"/>
	<path class="st0" d="M1574.5,847.2c-1.9,2.1-1.9,1.9-2.4-16.7c-0.5-17.6-1.1-21-3.3-18.8c-0.4,0.4-0.7,9-0.7,19.1v18.4l-2.9-2.2
		c-2.8-2.1-5.1-1.9-5.1,0.3c0,1.3,8.6,9.8,9.8,9.8c1.6,0,10.4-9.9,9.8-10.9C1578.6,844.5,1576.6,844.9,1574.5,847.2z"/>
	<path class="st0" d="M1599.6,815.6c-2.5,2.4-4.5,4.9-4.5,5.5c0,2.2,3.2,2.2,5.5,0l2.5-2.3l0.2,18.9c0.3,16,0.5,18.9,1.8,18.9
		s1.5-2.9,1.8-18.8c0.1-10.3,0.6-18.7,1.1-18.7s1.5,1,2.3,2.2c1.5,2.2,4.8,2,4.8-0.3c0-1.5-8.6-9.9-10-9.9
		C1604.5,811.1,1602,813.1,1599.6,815.6z"/>
	<path class="st0" d="M1410.1,840.1c-2.2,1.2-2.6,3.5-1,4.5c1.5,0.9,5.4-1.8,8.6-6l2.7-3.6l-3.9-4c-5.1-5.3-7.2-6.5-8-4.4
		c-0.4,1,0.3,2.6,1.6,4.1l2.3,2.4h-18.7c-16.2,0-18.7,0.2-19.3,1.6c-0.3,0.9-0.1,1.9,0.5,2.3c0.6,0.4,9.3,0.7,19.2,0.6
		c9.9,0,18,0.3,18,0.7C1412.1,838.7,1411.2,839.5,1410.1,840.1z"/>
	<path class="st0" d="M995.9,840.3c-1.4,0.9-1.9,2-1.5,3.1c0.9,2.4,2.1,2.1,6.2-1.4c6.2-5.5,6.3-6.5,1.4-11.5
		c-4.1-4.2-7.9-5.7-7.9-3.2c0,0.6,1,2.2,2.2,3.5l2.1,2.3h-18.7c-15.9,0-18.8,0.2-19.3,1.5c-0.3,0.9-0.2,1.9,0.1,2.3
		c0.4,0.3,9,0.6,19.2,0.7c10.1,0,18.4,0.3,18.4,0.6C998.1,838.6,997.1,839.5,995.9,840.3z"/>
	
		<ellipse transform="matrix(0.3827 -0.9239 0.9239 0.3827 -360.2011 730.7215)" class="st0" cx="366.7" cy="634.9" rx="5.4" ry="5.4"/>
	
		<ellipse transform="matrix(0.3827 -0.9239 0.9239 0.3827 -335.7553 767.3071)" class="st0" cx="406.3" cy="634.9" rx="5.4" ry="5.4"/>
	<circle class="st0" cx="1976.7" cy="634.9" r="5.4"/>
	<circle class="st0" cx="2016.5" cy="634.9" r="5.4"/>
	<path class="st0" d="M198.5,44.9c0.7-1.2,1.5-1.9,1.8-1.7c0.2,0.2,1.3,6.9,2.4,14.9c3,20.8,3.9,23.6,6.6,20.9
		c0.9-0.9-1.6-21.8-4-34.4l-0.6-2.8l2.6,1.7c2.6,1.6,5.4,1.4,5.4-0.4c0-0.6-2.3-2.8-5.2-5c-3-2.3-5.8-3.7-6.5-3.3
		c-1.9,1.1-8.3,10.5-7.7,11.4C194.3,47.7,197.2,47,198.5,44.9z"/>
	<path class="st0" d="M2174.3,47.9c1-0.9,2-1.4,2.2-1.1c0.1,0.3-0.9,7-2.2,14.9c-3.5,20.7-3.4,23.7-0.1,21.9
		c1.1-0.6,5.1-21.3,6.6-34l0.3-2.9l2,2.4c2,2.3,4.7,3,5.3,1.3c0.2-0.4-1.3-3.2-3.4-6.2c-2.2-3.1-4.4-5.3-5.2-5.1
		c-2.1,0.5-11.1,7.5-10.8,8.5C2169.5,49.3,2172.5,49.5,2174.3,47.9z"/>
	<path class="st0" d="M1200.7,654.6c2.1-0.8,9.9-9,9.4-10c-0.7-1.6-3.7-1.4-5.3,0.4c-0.9,1.1-1.8,1.6-2,1.4c-0.2-0.2-0.2-7,0-15.1
		c0.4-21-0.1-23.9-3.2-21.7c-1,0.7-1.9,21.8-1.6,34.6l0.1,2.9l-2.3-2.1c-2.3-2-5.1-2.2-5.4-0.5c0,0.7,1.9,3.2,4.4,5.8
		C1197.4,653.1,1199.9,654.9,1200.7,654.6z"/>
	<path class="st0" d="M1203.5,889c-2,0.8-9.6,9.3-9.1,10.3c0.8,1.6,3.8,1.3,5.3-0.6c0.9-1.1,1.7-1.7,2-1.4c0.2,0.2,0.4,7,0.4,15.1
		c0.2,21,0.7,23.9,3.8,21.6c1-0.8,1.3-21.8,0.6-34.6l-0.2-2.9l2.4,2c2.4,1.9,5.2,2.1,5.4,0.3c0-0.6-2-3.1-4.6-5.7
		C1206.8,890.4,1204.2,888.7,1203.5,889z"/>
	<path class="st0" d="M133.2,733.4c20.8-3.1,23.6-4,20.9-6.7c-0.9-0.9-21.8,1.7-34.4,4.2l-2.8,0.6l1.7-2.6c1.6-2.6,1.4-5.4-0.4-5.4
		c-0.7,0.1-2.8,2.4-5,5.3c-2.3,3-3.7,5.8-3.3,6.5c1.1,1.9,10.6,8.2,11.4,7.6c1.5-1,0.8-3.9-1.3-5.2c-1.2-0.7-1.9-1.5-1.7-1.8
		C118.5,735.7,125.2,734.6,133.2,733.4z"/>
	<path class="st0" d="M2261.3,719c-1.7,0.5-1.8,3.5-0.2,5.4c1,1,1.4,2,1.1,2.2c-0.2,0.1-7-0.7-15-1.8c-20.8-2.9-23.8-2.8-21.9,0.5
		c0.6,1.1,21.4,4.5,34.2,5.7l2.9,0.2l-2.4,2c-2.3,2.1-2.8,4.8-1.1,5.3c0.6,0.2,3.3-1.4,6.2-3.6c3-2.2,5.2-4.5,5-5.3
		C2269.6,727.5,2262.3,718.7,2261.3,719z"/>
</g>
<text transform="matrix(-0.1386 0.9903 -0.9903 -0.1386 2285.948 675.0471)" class="st0 st1 st4">Корпус Г</text>
<text transform="matrix(1 -5.969652e-03 5.969652e-03 1 864.1852 823.8326)" class="st0 st1 st2">2001</text>
<text transform="matrix(1 -5.969652e-03 5.969652e-03 1 1475.856 823.8339)" class="st0 st1 st2">2101</text>
<text transform="matrix(1 0 0 1 370.2707 626.0697)" class="st0 st1 st4">WC</text>
<text transform="matrix(1 0 0 1 1980.8967 625.0704)" class="st0 st1 st4">WC</text>
</svg>
