<?xml version="1.0" encoding="utf-8"?>
<!-- Generator: Adobe Illustrator 25.4.1, SVG Export Plug-In . SVG Version: 6.00 Build 0)  -->
<svg version="1.1" id="Слой_1" xmlns="http://www.w3.org/2000/svg" xmlns:xlink="http://www.w3.org/1999/xlink" x="0px" y="0px"
	 viewBox="0 0 2374 1067" style="enable-background:new 0 0 2374 1067;" xml:space="preserve">
<style type="text/css">
	.st0{fill:#FFFFFF;}
	.st1{fill:none;}
	.st2{fill:#FFFFFF;stroke:#FFFFFF;stroke-miterlimit:10;}
	.st3{font-family:'ArialMT';}
	.st4{font-size:16px;}
	.st5{fill:none;stroke:#35B7FF;stroke-width:6;stroke-miterlimit:10;}
	.st6{fill:#35B7FF;stroke:#35B7FF;stroke-width:6;stroke-miterlimit:10;}
</style>
<g transform="translate(0.000000,1067.000000) scale(0.100000,-0.100000)">
	<path class="st0" d="M21365.5,9942.1c-1,1-240,34-532,73c-291,39-541,74-555,76l-25,6l-144-1063c-80-585-146-1065-148-1068
		c-2-2-114,11-249,29c-134,19-247,31-250,29c-7-7-129-877-123-882c2-2,114-20,247-39c134-20,246-38,249-40c3-3-11-124-31-269
		s-84-612-142-1038c-57-426-107-790-111-808c-5-30-42-64-286-268l-281-234h-2856v100h-910v-607l-112-6c-62-4-740-7-1505-7h-1393
		v-140h1660v-340h100v340h2060v-465l2197,3c1208,1,2199,4,2201,7c2,2,42,266,87,587c364,2563,436,3081,429,3087c-5,5-337,54-739,111
		c-401,57-734,106-739,111c-9,7,81,669,92,680c4,4,339-41,744-99c406-58,741-102,745-99
		C21051.5,7716.1,21370.5,9938.1,21365.5,9942.1z M15998.5,3906.1c-10-19-23-20-339-20c-266,0-331,3-340,14c-8,9-11,87-9,262l3,248
		l25,13c36,18,604,18,640,0l25-13l3-242C16007.5,4012.1,16005.5,3918.1,15998.5,3906.1z M17113.5,3441.1l-487-3l-488-2v444
		c0,346,3,445,13,449c6,3,226,5,487,4l475-2V3441.1z M17544.5,3447.1c-9-8-63-11-172-9l-159,3l-3,435c-1,239,0,441,3,448
		c7,18,318,17,333-1c8-9,11-149,12-439C17558.5,3531.1,17556.5,3457.1,17544.5,3447.1z M18006.5,3866.1l-3-425h-360l-3,435
		c-1,239,0,441,3,448c3,9,49,12,179,12c174,0,176,0,181-22C18006.5,4301.1,18007.5,4100.1,18006.5,3866.1z M18956.5,3880.1l-3-439
		h-860v890l385,5c438,6,459,5,471-7C18954.5,4324.1,18957.5,4135.1,18956.5,3880.1z M20406.5,4032.1l-83-629l-635,8
		c-349,4-636,8-637,9c0,0-3,207-4,459c-3,323-1,460,7,465c14,9,440,362,518,429c40,35,68,51,81,49c11-2,203-33,427-68
		c327-50,408-66,408-78C20489.5,4668.1,20452.5,4378.1,20406.5,4032.1z M20661.5,5703.1c-2-12-28-209-58-437c-68-507-60-470-92-470
		c-22,0-705,90-805,106c-34,5-38,9-38,37s103,809,116,885c5,27,11,32,33,32c15,0,209-25,431-55c224-30,406-59,410-65
		S20663.5,5715.1,20661.5,5703.1z M20058.5,7026.1c36-5,218-30,404-55s343-48,347-51c5-3,9-19,9-35c0-66-133-1005-143-1016
		c-9-9-106,1-417,43c-223,30-416,57-429,60c-22,5-23,8-17,57c48,380,129,967,136,985C19959.5,7039.1,19966.5,7040.1,20058.5,7026.1z
		 M20952.5,7854.1c-4-13-15-18-37-18c-65,1-820,109-830,119c-12,12-11,19,52,486c48,355,46,345,70,345c11,0,203-25,427-55
		c225-31,413-60,418-65C21060.5,8658.1,20967.5,7910.1,20952.5,7854.1z M21152.5,9325.1c-38-281-73-518-79-526c-9-12-75-5-425,42
		c-228,31-421,58-427,60c-7,2-13,17-13,32c0,60,133,1009,143,1021c7,10,23,12,51,8c23-4,156-22,296-41s310-42,376-51
		c67-9,128-20,135-24C21219.5,9839.1,21207.5,9732.1,21152.5,9325.1z"/>
	<path class="st0" d="M19596.5,4401.1c20-52,38-95,41-95c4,0,17,27,30,61c13,33,25,58,27,56s12-28,23-58c10-30,21-54,26-54
		c4,0,22,42,40,93l32,92h-26c-18,0-22-3-13-9c11-7,11-16,1-50c-7-22-15-41-19-41s-12,19-19,41c-10,34-10,43,1,50c8,6-5,9-35,9
		c-44,0-47-1-33-16c9-8,16-17,16-18c0-8-31-76-34-76c-2,0-11,21-20,47c-13,37-13,48-4,55c8,4-4,8-28,8h-41L19596.5,4401.1z"/>
	<path class="st0" d="M19758.5,3936.1v-290h30h30v290v290h-30h-30V3936.1z"/>
	<path class="st0" d="M19520.5,4111.1c-22-16-77-169-66-187c14-22,33-2,49,55c10,34,22,66,27,72c11,13,11,11-22-100
		c-16-55-30-103-30-107s12-8,28-10c27-3,27-3,32-98c3-52,8-94,13-92c4,1,12,2,17,2c6,0,10,39,10,96c0,61,4,93,10,89c6-3,10-46,10-94
		c0-92,3-103,26-94c11,4,14,28,14,99v94h31c25,0,30,3,25,16c-18,46-57,196-53,200c3,3,13-21,22-53s18-64,20-70c7-20,35-15,35,6
		c0,39-42,157-62,174C19630.5,4131.1,19551.5,4132.1,19520.5,4111.1z"/>
	<path class="st0" d="M19892.5,4101.1c-23-23-25-31-22-112c3-74,6-88,21-91s17,6,17,72c0,44,4,76,10,76s10-73,10-200v-200h25h25
		l2,128l2,127l6-125l5-125h25h25l5,200c3,110,7,165,8,123c2-71,4-78,22-78c19,0,20,7,20,90s-2,93-25,115c-21,22-33,25-90,25
		S19914.5,4123.1,19892.5,4101.1z"/>
	<path class="st0" d="M15370.5,4164.1l3-133l128-3l127-3v136v135h-130h-131L15370.5,4164.1z"/>
	<path class="st0" d="M15678.5,4161.1v-135h130h130v135v135h-130h-130V4161.1z"/>
	<path class="st0" d="M9839.5,3921.1l-1591-8l-2,309l-3,309l-32-1c-18,0-222-1-453-2l-420-2v-100h-423c-233,0-876-3-1428-6l-1004-7
		l-275,228c-151,125-279,230-283,235c-6,6-307,2106-307,2146c0,7,93,24,240,45c133,18,246,36,252,40c8,5-7,134-52,446
		c-35,241-64,439-66,441c-1,2-113-13-249-33s-249-35-251-33c-1,2-69,472-149,1043c-80,572-148,1050-150,1063c-6,25-5,25-125,7
		c-47-7-285-41-530-75s-446-63-448-65c-3-3,318-2228,323-2233c2-2,342,46,757,106c414,61,754,109,755,109c4-5,100-683,97-686
		c-2-2-183-30-402-62c-218-32-558-82-754-111l-357-52l5-25c2-14,121-836,264-1826s261-1807,263-1815c2-13,210-15,1817-12
		c998,1,1989,5,2203,9l387,6v467h1940v-330h100v330l968,2l967,3l3,74l3,73L9839.5,3921.1z M2376.5,8754.1c-9,9-148,969-148,1024
		c0,20,6,29,23,33c36,9,779,113,814,114c27,1,32-3,37-26c3-16,33-224,66-463s64-462,69-495s5-64,0-69
		C3224.5,8858.1,2387.5,8743.1,2376.5,8754.1z M3364.5,7913.1c-20-8-796-117-830-117c-14,0-27,4-30,8c-10,17-116,816-109,823
		c4,4,143,27,308,50c165,22,338,47,385,54c103,15,167,18,174,7c4-7,26-162,113-778C3379.5,7927.1,3377.5,7918.1,3364.5,7913.1z
		 M2637.5,6879.1c9,9,812,126,845,124c10-1,23-9,27-17c14-26,149-1034,140-1043c-5-5-199-36-432-68c-341-48-425-57-435-47
		C2767.5,5845.1,2626.5,6868.1,2637.5,6879.1z M2923.5,4761.1l-62,440c-34,242-62,455-63,472c0,26,5,34,23,38c35,9,779,113,814,114
		c17,0,34-3,37-8c4-5,35-216,70-468c50-354,62-461,53-470c-13-13-794-126-841-121L2923.5,4761.1z M4408.5,3419.1l-442-6
		c-673-10-838-9-843,6c-5,14-154,1126-162,1207l-5,55l413,57c228,31,426,55,440,55c19-2,112-73,313-240l286-237V3419.1z
		 M4914.5,3417.1c-9-8-72-11-202-9l-189,3l-3,435c-1,239,0,441,3,448c3,9,52,12,198,12h194l6-232
		C4933.5,3673.1,4930.5,3430.1,4914.5,3417.1z M5366.5,3414.1c-22-13-332-10-346,4c-9,9-12,121-12,443c0,238,3,435,7,439
		c4,3,86,5,182,4l176-3l3-439C5378.5,3517.1,5376.5,3421.1,5366.5,3414.1z M5806.5,3412.1c-30-8-302-8-322,0c-14,5-16,55-16,450v444
		l178-2l177-3l3-441l2-442L5806.5,3412.1z M6260.5,3429.1c-6-9-227-19-324-14c-17,1-18,29-18,446v444l73,4c147,7,242,6,253-1
		C6257.5,4300.1,6272.5,3449.1,6260.5,3429.1z M6756.5,3855.1l-3-434h-400l-3,439c-2,345,0,441,10,448c7,4,95,8,194,8
		c141,0,184-3,193-14C6755.5,4293.1,6757.5,4167.1,6756.5,3855.1z M7336.5,3855.1l-3-434h-480l-5,430c-3,237-2,438,2,448
		c8,15,29,17,237,17c181,0,231-3,240-14C7335.5,4293.1,7337.5,4167.1,7336.5,3855.1z M8146.5,4132.1c-2-176-6-238-16-248
		s-85-13-338-13c-311,0-326,1-340,19c-22,31-21,488,2,510c13,14,58,16,339,16h325l15-24C8147.5,4371.1,8149.5,4333.1,8146.5,4132.1z
		"/>
	<path class="st0" d="M3496.5,4401.1c20-52,38-95,41-95c4,0,17,27,30,61c13,33,25,58,27,56s12-28,23-58c10-30,21-54,26-54
		c4,0,22,42,40,93c29,84,30,92,14,92c-12,0-16-5-13-14c6-17-21-103-28-90c-3,5-11,26-18,48c-10,32-10,40,1,47c9,6-3,9-34,9
		c-44,0-47-1-33-16c9-8,16-17,16-18c0-8-31-76-34-76c-2,0-11,21-20,47c-13,37-13,48-4,55c8,4-4,8-28,8h-41L3496.5,4401.1z"/>
	<path class="st0" d="M3658.5,3936.1v-290h30h30v290v290h-30h-30V3936.1z"/>
	<path class="st0" d="M3420.5,4111.1c-22-16-77-169-66-187c14-23,34-3,49,50c22,77,25,86,30,80c2-2-9-50-25-106
		c-17-56-30-104-30-106c0-3,12-6,28-8c27-3,27-3,32-98c3-52,8-94,13-92c4,1,12,2,17,2c6,0,10,37,10,90s4,90,10,90s10-36,10-88
		c0-93,3-104,26-95c11,4,14,28,14,99v94h31c25,0,30,3,25,16c-17,45-57,196-53,200c3,3,14-27,26-65c14-46,27-71,36-71c8,0,15,9,15,19
		c0,39-42,157-62,174C3530.5,4131.1,3451.5,4132.1,3420.5,4111.1z"/>
	<path class="st0" d="M3792.5,4101.1c-23-23-25-31-22-112c3-74,6-88,21-91s17,6,17,72c0,44,4,76,10,76s10-73,10-200v-200h25h25
		l2,123l2,122l6-120c5-120,5-120,30-120h25l5,200c3,110,7,165,8,123c2-71,4-78,22-78c19,0,20,7,20,90s-2,93-25,115
		c-21,22-33,25-90,25S3814.5,4123.1,3792.5,4101.1z"/>
	<path class="st0" d="M7515.5,4279.1c-4-3-7-64-7-135v-128h129c108,0,130,3,135,16c3,9,6,62,6,119c0,57-3,110-6,119
		c-5,13-26,16-128,16C7576.5,4286.1,7518.5,4283.1,7515.5,4279.1z"/>
	<path class="st0" d="M7825.5,4280.1c-4-4-7-65-7-136v-128h130h131l-3,133l-3,132l-121,3C7886.5,4285.1,7829.5,4283.1,7825.5,4280.1
		z"/>
	<path class="st0" d="M21866.5,3624.1c-164,27-299,50-302,53c-2,2,59,461,135,1019s213,1564,304,2235s217,1591,279,2045
		s110,826,107,827s-125,18-271,38c-146,19-282,38-302,41c-35,5-37,4-43-28c-3-18-63-445-135-948c-71-503-168-1187-215-1520
		s-182-1280-299-2105l-213-1500l76-12c42-6,168-24,280-39l203-27l-6-48c-6-46-6-48,21-53c103-21,797-125,804-120c5,3,9,20,9,39v33
		l-67,11C22193.5,3571.1,22029.5,3598.1,21866.5,3624.1z M21807.5,9338.1c30,211,58,391,63,402c8,14,17,17,46,13c21-3,108-16,194-28
		s162-26,169-30c10-6,0-96-43-399c-31-216-60-396-66-402c-10-10-380,39-404,53C21756.5,8953.1,21764.5,9034.1,21807.5,9338.1z
		 M21744.5,8821.1c13,13,8,13,238-20c87-13,163-28,168-33c12-12-100-802-117-820c-10-11-46-8-203,14c-105,15-196,30-202,34
		C21614.5,8005.1,21726.5,8803.1,21744.5,8821.1z M21612.5,7908.1c6,4,25,5,41,3c17-3,104-16,194-30c90-13,168-28,173-33
		c8-8-96-764-107-783c-4-5-18-9-33-9c-55,0-367,52-378,63C21488.5,7134.1,21594.5,7897.1,21612.5,7908.1z M21417.5,6612.1
		c29,203,55,372,57,376c8,13,51,10,230-18c93-14,174-31,181-37c9-9,0-95-41-379c-29-202-56-371-59-375c-8-8-389,46-408,58
		C21367.5,6243.1,21376.5,6327.1,21417.5,6612.1z M21291.5,5711.1c31,218,59,400,62,406c9,13,23,12,217-16c95-14,179-27,186-30
		c6-2,12-19,12-37c-1-63-107-769-117-779c-11-11-380,37-404,52C21237.5,5313.1,21247.5,5405.1,21291.5,5711.1z M21474.7,3939.6
		c-0.9-2.9-2.2-5.6-3.5-8.3c-2.5-14.2-5.7-33.6-7.6-52.2c-4-29-12-57-19-62c-16-13-385,36-403,53c-7,7-9,28-6,60l4.4,35
		c-0.5,2.8-0.8,5.6-0.8,8.3c0.4,15.3,5,31.4,9.8,47.7c-2.4,35.7-4.9,71.1,6.7,106.4c3.1,9.5,7.8,17,13.6,22.6l3.3,22
		c3,25,8,50,12,55c8,13,35,11,224-16c95-14,177-28,182-31c9.9-6.1,5.8-90.6-3.4-140.3C21490.6,4007.1,21485.9,3974.2,21474.7,3939.6
		z M21309.5,4316.1c-106,16-198,33-203,38c-12,12,98,810,115,830c6,8,21,10,41,7c17-3,104-17,194-29c90-13,169-29,175-35
		c15-15-96-809-115-827C21506.5,4291.1,21460.5,4294.1,21309.5,4316.1z"/>
	<path class="st0" d="M2524.5,3988.1c-19,133-121,837-226,1563s-192,1329-195,1341c-5,21-5,21-271-18c-146-22-268-37-271-34
		c-4,3-27,158-53,343l-46,338l30,7c17,4,133,21,258,39s232,35,238,39c11,7,1,83-245,1781c-36,245-65,449-65,453c0,8,24,11-323-39
		c-165-24-300-45-302-47c-1-2,26-205,61-453c35-247,214-1525,399-2840c185-1314,349-2484,365-2599c17-115,30-214,30-220
		c0-7-140-35-361-71c-198-33-365-62-370-66c-5-3-6-20-2-40l8-35l826,140l-6,90l275,39c151,22,276,41,278,42
		C2558.5,3743.1,2544.5,3854.1,2524.5,3988.1z M1175.5,9656.1c8,8,330,57,385,59c21,1,29-5,33-21c20-94,142-1025,134-1032
		c-5-6-95-22-201-37c-150-22-196-25-205-16C1306.5,8624.1,1163.5,9645.1,1175.5,9656.1z M1409.5,7903.1c-18,131-42,311-55,400
		c-12,90-20,167-16,173c6,10,302,57,372,59c20,1,39-3,42-7c11-19,118-814,110-822c-5-5-98-21-207-36c-146-20-201-24-206-16
		C1445.5,7660.1,1427.5,7773.1,1409.5,7903.1z M1682.5,6059.1c-7,6-106,678-102,683c5,4,363,61,395,63c13,1,24-6,27-16
		c10-37,99-663,94-668C2089.5,6114.1,1687.5,6054.1,1682.5,6059.1z M1779.5,5360.1c-13,17-94,587-84,597c7,7,343,65,395,68
		c9,1,19-3,22-8c9-14,88-560,84-584c-3-20-17-23-206-52C1849.5,5359.1,1785.5,5353.1,1779.5,5360.1z M1896.5,4584.1
		c-13,13-103,661-92,671c10,11,307,58,371,60c40,1,42-1,48-31c15-90,85-595,85-619c0-32,21-26-234-65
		C1981.5,4587.1,1901.5,4579.1,1896.5,4584.1z M2418.5,3842.1c-7-7-353-63-401-66c-13,0-18,31-65,361c-30,218-43,334-36,341
		c5,5,95,22,198,38c104,15,192,28,196,29s10-4,14-11C2338.5,4512.1,2427.5,3851.1,2418.5,3842.1z"/>
	<path class="st0" d="M20593.5,7666.1c-4-6,1-23,10-37l17-26l-61,7c-34,4-114,16-179,26c-115,19-141,17-130-12c4-9,59-21,159-37
		c85-13,164-25,177-28l23-5l-20-22c-25-26-27-46-6-46c18,0,115,68,115,81c0,5-16,31-36,59
		C20627.5,7675.1,20606.5,7687.1,20593.5,7666.1z"/>
	<path class="st0" d="M2859.5,7604.1c-23-30-37-58-33-65c11-19,93.5-69.9,114-77c17-5.9,8,39-13,52c-12,7-19,15-17,18
		c2,2,69,13,149,24c208,30,236,39,209,66c-9,9-218-16-344-40l-28-6l17,26c16,26,14,54-4,54
		C2903.5,7656.1,2881.5,7633.1,2859.5,7604.1z"/>
	<path class="st0" d="M20234.5,7331.1c-25-20-46-39-46-43c0-16,73-112,86-112c22,0,26,20,9,46c-9,14-15,27-13,29s66-7,143-20
		c218-35,213-35,225-21c18,22-9,33-125,51c-60,9-141,21-179,27l-69,11l26,19c15,11,27,26,27,34
		C20318.5,7376.1,20283.5,7367.1,20234.5,7331.1z"/>
	<path class="st0" d="M3202.5,7334.1c-4-6,4-21,21-34l28-22l-54-10c-30-6-109-18-176-28c-133-19-149-24-140-48c5-13,15-15,44-11
		c21,3,104,16,186,28c81,13,147,20,147,16s-7-12-15-19c-19-16-19-50,0-50c16,0,85,86,85,106c0,15-87,84-106,84
		C3215.5,7346.1,3206.5,7341.1,3202.5,7334.1z"/>
	<path class="st0" d="M11691.5,3940.1c-9-4-13-33-13-94c0-71,3-89,16-94c23-9,237-7,252,2c9,6,12,33,10,98l-3,89l-125,2
		C11759.5,3944.1,11697.5,3942.1,11691.5,3940.1z"/>
	<path class="st0" d="M8268.5,3461.1v-135h120h120v135v135h-120h-120V3461.1z"/>
	<path class="st0" d="M8855.5,3589.1c-4-3-7-64-7-135v-128h120h120v135v135h-113C8912.5,3596.1,8858.5,3593.1,8855.5,3589.1z"/>
	<path class="st0" d="M14718.5,3461.1v-135h120h120v135v135h-120h-120V3461.1z"/>
	<path class="st0" d="M22197.5,3051.1c-20,4-785,125-794,125c-1,0-8-35-14-77c-6-43-14-99-17-125l-7-48h-5337v-1510h-700v1510h-2040
		v-120h970l2-422c2-233,3-424,2-425c0-1-148-4-330-5c-181-1-400-4-486-6l-158-3v-79h-1070v-132l1503,3l1502,3l3-217l2-217h900v460
		l1483,1c815,1,1979,5,2587,8l1105,6l87,644c48,354,90,646,93,649c2,3,164-21,360-53c195-32,358-56,361-53s7,22,11,41
		C22220.5,3041.1,22218.5,3046.1,22197.5,3051.1z M15216.5,2340.1l-3-459h-840l-3,455c-2,375,0,457,11,465c17,13,807,19,825,7
		C15215.5,2802.1,15218.5,2701.1,15216.5,2340.1z M17106.5,1884.1c-7-4-224-7-483-5l-470,2l-3,455c-1,250,0,461,3,468
		c3,9,109,12,479,12c261,0,477-4,480-9s6-212,6-461C17119.5,1987.1,17116.5,1891.1,17106.5,1884.1z M17546.5,1888.1
		c-17-17-309-17-326,0c-9,9-12,126-12,463c0,249,3,455,7,458c3,4,79,7,169,7c138,0,163-2,168-16c3-9,6-215,6-458
		C17558.5,2012.1,17555.5,1897.1,17546.5,1888.1z M17996.5,1888.1c-13-13-315-17-334-4c-16,11-29,899-13,918c9,11,47,14,179,14
		c144,0,169-2,174-16c3-9,6-215,6-458C18008.5,2012.1,18005.5,1897.1,17996.5,1888.1z M18941.5,1888.1c-13-9-113-12-419-12
		c-353,0-405,2-418,16c-14,14-16,69-16,454c0,241,3,446,6,454c6,15,50,16,433,14l426-3l3-455
		C18958.5,1937.1,18957.5,1900.1,18941.5,1888.1z M19406.5,1888.1c-8-8-59-12-164-12c-125,0-155,3-168,16c-14,14-16,69-16,459
		s2,445,16,459c13,13,42,16,164,16s151-3,164-16c14-14,16-69,16-463C19418.5,2013.1,19415.5,1897.1,19406.5,1888.1z M19849.5,1886.1
		c-21-11-308-14-335-4c-14,5-16,56-16,469c0,361,3,464,13,468c6,3,83,6,169,6c130,1,159-2,172-15c14-14,16-70,16-464
		C19868.5,1912.1,19867.5,1896.1,19849.5,1886.1z M20302.5,1882.1c-20-8-318-8-338,0c-14,5-16,56-16,469c0,361,3,464,13,468
		c18,8,322,8,341,1c14-5,16-56,16-469S20316.5,1887.1,20302.5,1882.1z M21193.5,1896.1c-4-6-141-10-396-10h-389v463
		c0,255,3,467,7,470c9,10,891,9,897-1S21202.5,1911.1,21193.5,1896.1z"/>
	<path class="st0" d="M10803.5,1864.1l-625-4v87l-980-6v855h163c89,0,307,3,485,7l322,6v107h-2020v-1520l-347,2l-348,3l-3,752
		l-2,752l-1158-4c-636-3-1837-7-2668-10l-1512-4l-5,32c-4,18-11,69-18,115c-9,65-15,82-28,81c-9-1-191-31-406-68
		c-352-61-390-69-393-87c-6-45-1-45,372,17c197,33,360,58,361,57c1-2,41-282,89-623c47-341,89-633,92-649l6-29l2584,7l2584,7v-88
		c0-48,3-152,7-230l6-143h897v437l1172,6c644,4,1357,7,1585,7h413v132L10803.5,1864.1z M3065.5,1864.1c-7-17-36-18-392-18
		c-211,0-386,4-389,8c-2,4-32,212-66,462c-49,362-58,455-48,462c7,4,211,7,453,5l440-2l5-450
		C3071.5,2084.1,3070.5,1873.1,3065.5,1864.1z M3526.5,2310.1l-3-459l-174-3c-133-2-176,1-183,10c-4,7-8,216-8,465
		c0,352,3,452,13,456c20,9,331,7,345-1C3526.5,2771.1,3528.5,2671.1,3526.5,2310.1z M3962.5,1852.1c-20-8-308-8-328,0
		c-14,5-16,56-16,463c0,252,3,461,7,464c12,13,328,8,341-5c9-9,12-126,12-464C3978.5,1907.1,3976.5,1857.1,3962.5,1852.1z
		 M4396.5,1854.1c-17-10-299-10-315,0c-10,6-13,114-13,460c-1,249,2,457,5,463c4,6,69,8,168,7l162-3l3-459
		C4408.5,1961.1,4406.5,1861.1,4396.5,1854.1z M4906.5,1852.1c-45-12-363-7-376,6c-9,9-12,126-12,463c0,249,3,455,7,459
		c4,3,95,5,202,4l196-3l3-461l2-462L4906.5,1852.1z M5386.5,2301.1l-3-440l-160-5c-88-3-170-3-182-1l-23,3v928h180
		c178,0,180,0,185-22C5386.5,2751.1,5387.5,2543.1,5386.5,2301.1z M5834.5,1878.1c-7-22-11-22-181-22c-173,0-175,0-180,23
		c-3,12-4,220-3,462l3,440l145,5c120,5,199,3,206-4C5830.5,2777.1,5839.5,1895.1,5834.5,1878.1z M6349.5,1858.1c-223-1-408,1-413,6
		c-4,4-11,209-14,456c-7,430-6,449,11,462c15,11,95,14,404,14c212,0,391-4,398-8c8-5,12-132,15-467l3-460L6349.5,1858.1z
		 M7326.5,1879.1c-7-23-8-23-237-23c-199,0-230,2-235,16c-3,9-6,217-6,464c0,349,3,449,13,453c6,3,113,5,237,4l225-2l5-445
		C7331.5,2101.1,7330.5,1891.1,7326.5,1879.1z M9100.5,1874.1c-5-5-189-12-410-15c-319-5-404-4-417,7s-15,69-15,465
		c0,248,3,455,7,458c4,4,194,6,422,5l416-3l3-454C9107.5,2087.1,9104.5,1878.1,9100.5,1874.1z"/>
	<path class="st0" d="M9453.5,2601.1c-25-25-45-50-45-55c0-13,88-100,101-100c21,0,21,32-1,55l-23,25l189,2c160,3,189,5,189,18
		s-29,15-189,18l-189,2l23,25c22,23,22,55,1,55C9503.5,2646.1,9478.5,2626.1,9453.5,2601.1z"/>
	<path class="st0" d="M13591.5,2602.1c-24-24-43-49-43-56c0-17,81-100,97-100c23,0,25,22,4,51l-21,29l187,2c159,3,188,5,188,18
		s-29,15-188,18l-187,2l21,29c21,29,19,51-4,51C13638.5,2645.1,13614.5,2626.1,13591.5,2602.1z"/>
	<path class="st0" d="M7615.5,2430.1c-4-4-7-91-7-192v-185l-23,21c-27,26-45,28-54,6c-3-10,11-30,41-60c25-24,50-44,54-44
		c16,0,104,99,98,109c-11,17-31,13-52-10c-19-21-19-19-24,167C7643.5,2418.1,7637.5,2452.1,7615.5,2430.1z"/>
	<path class="st0" d="M7925.5,2391.1c-26-24-47-49-47-55c0-22,32-22,55,0l25,23l2-189c3-160,5-189,18-189s15,29,18,188
		c1,103,6,187,11,187s15-10,23-22c15-22,48-20,48,3c0,13-85,99-98,99C7975.5,2436.1,7951.5,2416.1,7925.5,2391.1z"/>
	<path class="st0" d="M15495.5,2430.1c-4-4-7-90-7-191v-184l-29,22c-28,21-51,19-51-3c0-13,86-98,98-98c16,0,104,99,98,109
		c-11,17-31,13-52-10c-19-21-19-19-24,167C15523.5,2418.1,15517.5,2452.1,15495.5,2430.1z"/>
	<path class="st0" d="M15803.5,2391.1c-25-24-45-49-45-55c0-22,32-22,55,0l25,23l2-189c3-160,5-189,18-189s15,29,18,188
		c1,103,6,187,11,187s15-10,23-22c15-22,48-20,48,3c0,15-86,99-100,99C15852.5,2436.1,15827.5,2416.1,15803.5,2391.1z"/>
	<path class="st0" d="M10463.5,2294.1c-3-13-5-55-3-93l3-70h140h140v90v90l-137,3C10470.5,2317.1,10468.5,2316.1,10463.5,2294.1z"/>
	<path class="st0" d="M12713.5,2294.1c-3-13-5-55-3-93l3-70h140h140v90v90l-137,3C12720.5,2317.1,12718.5,2316.1,12713.5,2294.1z"/>
	<path class="st0" d="M13892.5,2281.1c-4-10,3-26,16-41l23-24h-187c-162,0-187-2-193-16c-3-9-1-19,5-23s93-7,192-6c99,0,180-3,180-7
		s-9-12-20-18c-22-12-26-35-10-45c15-9,54,18,86,60l27,36l-39,40C13921.5,2290.1,13900.5,2302.1,13892.5,2281.1z"/>
	<path class="st0" d="M9748.5,2274.1c0-6,10-22,22-35l21-23h-187c-159,0-188-2-193-15c-3-9-2-19,1-23c4-3,90-6,192-7
		c101,0,184-3,184-6c0-4-10-13-22-21c-14-9-19-20-15-31c9-24,21-21,62,14c62,55,63,65,14,115
		C9786.5,2284.1,9748.5,2299.1,9748.5,2274.1z"/>
</g>
<polygon class="st1" points="155.1,175.7 142.6,176.5 135.2,126.4 147.7,125.5 "/>
<text transform="matrix(1 0 0 1 136.7146 136.8515)" class="st2 st3 st4">2</text>
<text transform="matrix(1 0 0 1 136.7146 136.8515)" class="st2 st3 st4">2</text>
<text transform="matrix(1 0 0 1 138.5146 148.8515)" class="st2 st3 st4">0</text>
<text transform="matrix(1 0 0 1 138.5146 148.8515)" class="st2 st3 st4">0</text>
<text transform="matrix(1 0 0 1 140.3146 160.8515)" class="st2 st3 st4">6</text>
<text transform="matrix(1 0 0 1 140.3146 160.8515)" class="st2 st3 st4">6</text>
<text transform="matrix(1 0 0 1 142.0146 172.8515)" class="st2 st3 st4">9</text>
<text transform="matrix(1 0 0 1 142.0146 172.8515)" class="st2 st3 st4">9</text>
<circle class="st2" cx="348.6" cy="649.4" r="5"/>
<circle class="st0" cx="388.4" cy="649.4" r="5"/>
<line class="st5" x1="186.3" y1="82.5" x2="233.5" y2="406.5"/>
<circle class="st6" cx="185.2" cy="75.3" r="4.8"/>
<circle class="st6" cx="235.2" cy="418.5" r="9.8"/>
</svg>
