<?xml version="1.0" encoding="utf-8"?>
<!-- Generator: Adobe Illustrator 25.4.1, SVG Export Plug-In . SVG Version: 6.00 Build 0)  -->
<svg version="1.1" id="Слой_1" xmlns="http://www.w3.org/2000/svg" xmlns:xlink="http://www.w3.org/1999/xlink" x="0px" y="0px"
	 viewBox="0 0 2512 1040" style="enable-background:new 0 0 2512 1040;" xml:space="preserve">
<style type="text/css">
	.st0{fill:none;}
	.st1{fill:#FFFFFF;stroke:#000000;stroke-width:2;stroke-miterlimit:10;}
</style>
<g transform="translate(0.000000,1040.000000) scale(0.100000,-0.100000)">
	<path d="M21113,8664c-83-608-154-1108-157-1112c-6-5-441,51-502,65c-20,4-23-9-83-444c-35-246-65-457-67-468c-5-19,8-22,257-57
		c144-21,264-39,266-42c2-2-65-507-150-1122l-153-1119l-294-247l-295-247l-1492-1h-1493v55v55h-475h-475v-320v-320h-1717
		c-945,0-2585-3-3645-7l-1928-6v321v322h-474h-475l-3-52l-3-53l-1493-3l-1492-2l-283,234c-156,129-288,241-294,248
		c-11,13-325,2239-317,2247c2,3,119,21,259,41s257,39,260,42c5,4-124,919-130,926c-2,2-118-13-259-34c-142-20-259-34-262-31
		c-3,2-74,503-159,1112c-85,610-156,1109-157,1110c-5,3-1133-157-1137-161c-3-2,70-527,160-1167l165-1162h40c21,0,376,49,787,109
		s749,107,751,105c5-6,107-711,103-715c-1-2-354-54-782-115c-429-62-783-115-787-118c-8-7,534-3837,544-3847c4-3,1040-3,2302,1
		l2296,8v243v244h1153c635,0,2653,3,4485,7l3332,6v-246v-247l2302,2l2302,3l268,1905c147,1048,267,1914,265,1925
		c-2,18-54,27-785,131c-430,61-784,113-786,115s20,165,48,362l51,359l25-5c14-3,590-85,1280-183c690-97,1259-180,1263-184
		c8-7-81-700-92-712c-3-4-131,11-285,33c-153,22-280,39-282,37c-6-7-468-3308-463-3313c3-2,124-21,270-40c348-47,312-36,304-95
		c-4-28-5-50-3-51c40-7,864-136,865-135s5,20,8,41l7,40l-382,62c-210,34-384,64-387,67c-4,3,191,1444,432,3201s437,3197,434,3199
		c-4,5-2189,306-2217,306C21267,9770,21245,9626,21113,8664z M22185,9529c407-55,805-109,885-120c264-34,301-41,307-55
		c3-7-39-329-92-716c-52-387-116-854-141-1038s-48-337-50-340c-5-4-1949,257-1994,269l-26,6l142,1040c154,1123,144,1073,204,1061
		C21434,9633,21778,9585,22185,9529z M3335,9611c3-6,39-252,80-548c51-365,71-541,64-548c-14-14-880-134-899-125
		c-22,12-170,1084-152,1102c11,11,776,124,859,127C3310,9619,3331,9616,3335,9611z M3505,8380c3-5,30-186,60-402s56-404,59-418
		s1-32-4-39c-5-10-139-32-426-72c-425-59-479-65-487-51c-3,4-31,197-63,429c-45,325-55,426-46,435c11,11,786,125,864,127
		C3482,8390,3502,8386,3505,8380z M21405,6520c241-33,443-64,448-69c8-8-128-1029-138-1040c-8-8-886,113-901,124c-10,8,2,113,57,515
		c38,278,71,511,74,518c2,6,8,12,12,12S21163,6553,21405,6520z M3760,6548c15-40,74-508,64-517c-10-10-902-136-910-129
		c-7,8-76,529-71,535c4,3,205,34,449,68s446,63,451,64C3747,6569,3755,6560,3760,6548z M22755,6373c99-14,185-31,192-37
		c9-8-24-255-140-1051c-151-1036-152-1040-176-1043c-36-5-394,49-408,62c-9,8,25,259,138,1041c83,567,152,1036,154,1043
		C22521,6405,22552,6403,22755,6373z M3845,5911c7-12,78-522,73-527c-6-5-859-124-891-124c-15,0-27,6-27,13s-16,125-35,262
		c-18,137-32,251-30,253c2,3,203,33,447,67c244,35,446,63,450,64S3841,5916,3845,5911z M21253,5360c243-34,443-63,446-65
		c5-6-64-524-72-531c-4-5-879,112-903,120c-7,3,0,85,23,258c38,279,37,278,54,278C20807,5420,21011,5393,21253,5360z M3937,5258
		c4-7,35-213,69-458c48-346,59-448,50-458c-7-7-187-36-450-73c-364-50-441-58-451-47c-17,17-141,906-128,919c8,8,813,126,875,128
		C3917,5270,3932,5264,3937,5258z M21183,4704c400-55,427-60,427-78c0-27-51-390-55-394c-6-6-899,119-907,126c-6,6,37,368,48,401
		c3,9,14,12,32,8C20743,4764,20947,4736,21183,4704z M21020,4215c559-85,500-72,494-103c-2-15-40-299-84-632s-83-622-86-642l-6-38
		h-412c-227,0-528,3-669,7l-257,6l1,251c1,138,4,348,8,467l6,217l304,266c204,180,308,265,320,262C20648,4273,20819,4246,21020,4215
		z M4346,4019c164-133,309-249,320-258c22-17,22-23,29-482l8-466l-258-6c-142-4-444-7-671-7h-413l-6,33c-9,56-174,1302-172,1303
		c1,1,180,28,397,59c217,30,400,58,405,60C4028,4271,4052,4256,4346,4019z M22397,4155c252-37,233-32,233-60c0-64-121-840-133-847
		c-6-4-23-6-37-3s-104,16-200,30s-179,30-184,35c-10,10,105,838,119,860C22203,4184,22207,4183,22397,4155z M16812,3853
		c17-15,18-37,18-269c0-216-2-255-16-268c-13-14-60-16-354-16c-339,0-339,0-354,22c-13,19-16,61-16,263s3,244,16,263
		c15,22,15,22,351,22C16756,3870,16795,3868,16812,3853z M8596,3836c21-29,21-503,0-532c-14-18-31-19-350-22c-326-3-336-2-356,18
		c-19,19-20,32-20,268c0,254,2,271,40,285c8,3,163,5,343,4C8566,3855,8582,3854,8596,3836z M17964,3754c14-5,16-56,16-470v-464h-509
		c-455,0-510,2-515,16c-3,9-6,215-6,458c0,330,3,445,12,454s134,12,499,12C17729,3760,17955,3757,17964,3754z M18429,3746
		c8-9,10-140,9-467l-3-454l-176-3l-176-2l-6,452c-3,279-2,459,4,470c9,16,27,18,173,18C18380,3760,18420,3757,18429,3746z
		 M18898,3748c14-14,17-894,4-916c-7-9-51-12-188-10l-179,3l-3,459c-2,361,0,461,10,468C18564,3765,18884,3762,18898,3748z
		 M19368,3748c14-14,17-894,4-916c-7-9-50-12-183-10l-174,3l-3,455c-1,250,0,461,3,468C19021,3765,19351,3765,19368,3748z
		 M19888,3748c14-14,17-894,4-916c-7-9-57-12-218-10l-209,3l-3,445c-1,245,0,455,3,468c5,22,6,22,208,22
		C19818,3760,19879,3757,19888,3748z M6161,3740c18-10,19-26,19-469v-459l-22-6c-45-12-323-7-341,7c-16,11-17,48-15,467l3,455l65,6
		C5984,3751,6141,3750,6161,3740z M6614,3744c14-5,16-56,16-470v-464l-177,2l-178,3l-3,455c-2,419-1,456,15,468
		C6305,3751,6583,3756,6614,3744z M7754,3303c4-244,5-454,2-468l-6-25h-510h-510v118c0,64-3,268-7,452c-6,310-5,337,11,353
		s54,17,514,15l497-3L7754,3303z M5230,3276c0-414-2-465-16-470c-20-8-368-8-388,0c-14,5-16,56-16,470v464h210h210V3276z M5708,3276
		c2-361,0-461-10-468c-16-10-339-10-354,0c-13,8-31,874-19,911c6,21,9,21,193,19l187-3L5708,3276z"/>
	<path d="M16160,3590v-141l138,3l137,3v135v135l-137,3l-138,3V3590z"/>
	<path d="M16487,3724c-4-4-7-67-7-141v-134l138,3l137,3v135v135l-131,3C16553,3729,16491,3727,16487,3724z"/>
	<path d="M7952,3712c-9-6-12-42-10-143l3-134h135h135v140v140l-125,3C8021,3719,7959,3716,7952,3712z"/>
	<path d="M8272,3708c-18-18-17-252,2-267c9-8,55-11,137-9l124,3v140v140l-125,3C8321,3720,8281,3717,8272,3708z"/>
	<path d="M1520,9491c-303-43-325-48-323-66c0-11,200-1450,444-3198c243-1747,439-3180,436-3184c-4-3-175-34-381-67
		c-207-34-378-65-382-68c-3-4-3-20,1-37c5-25,11-30,28-26c12,2,198,34,412,70c215,36,400,67,413,70c20,5,21,10,16,44
		c-7,47-40,38,311,86c143,20,261,38,264,41c5,5-461,3292-470,3305c-3,6-114-7-284-31c-153-22-280-38-283-35c-7,6-103,707-98,712
		c2,3,131,23,286,46l282,41l-5,25c-3,14-78,542-168,1174c-90,631-165,1146-168,1146C1847,9538,1699,9517,1520,9491z M1759,9378
		c4-13,40-259,80-548c64-462,71-525,57-535c-19-14-399-67-420-59c-9,3-16,9-16,13c0,3-34,247-75,541c-60,431-72,537-62,548
		c13,13,306,59,385,61C1743,9400,1752,9396,1759,9378z M1935,8138c32-190,114-833,106-841c-4-4-87-19-182-32c-96-14-187-27-204-30
		c-16-2-36-1-43,3c-8,6-33,154-72,433c-47,340-56,427-46,437c13,13,305,59,388,61C1928,8170,1929,8169,1935,8138z M2184,6313
		c23-117,146-1067,139-1074c-11-11-402-68-420-62c-6,3-14,17-17,31c-8,37-146,1040-146,1058c0,17,19,22,209,49
		C2167,6347,2177,6347,2184,6313z M2354,5083c5-27,116-822,116-835c0-11-33-18-208-43c-221-31-230-31-237-2c-6,26-115,817-115,835
		c0,15,21,20,208,47C2338,5117,2347,5116,2354,5083z M2485,4110c12-19,124-855,115-864c-4-4-100-21-212-37c-158-22-206-25-215-16
		c-13,14-131,853-121,863c6,5,358,60,410,63C2471,4120,2482,4116,2485,4110z"/>
	<path d="M22456,2528c-3-7-10-53-16-103c-6-49-13-102-16-117l-6-28h-2789h-2789v-785V710h-365h-365v790v790h-1983
		c-1091,0-2781-3-3755-7l-1772-6v-789V700h-365h-365v786v786l-2789-4l-2789-4l-5,26c-3,14-11,69-18,123c-10,76-16,97-28,97
		c-26,0-833-139-839-144c-2-3-2-20,2-39l6-34l377,63c208,35,379,61,381,59c3-2,192-1335,192-1355c0-3,1217-4,2705-2l2705,3V821V580
		h470h470v228v229l1598,6c878,4,2518,7,3645,7h2047V820V590h470h470v240v240h2705h2705l5,23c2,12,45,318,94,681
		c50,362,92,660,93,662c2,2,172-24,377-58c308-50,375-58,382-47c12,20,11,79-2,79c-12,0-769,118-812,126
		C22470,2540,22458,2537,22456,2528z M22353,2168c16-12,12-46-45-483c-33-259-66-476-71-483c-8-9-97-12-411-10l-401,3l-3,484
		c-2,381,0,486,10,493c7,4,214,8,459,8C22232,2180,22340,2177,22353,2168z M13034,2164c14-5,16-58,16-489s-2-484-16-489
		c-9-3-203-6-433-6c-311,0-420,3-429,12c-17,17-17,949,0,966c9,9,118,12,429,12C12831,2170,13025,2167,13034,2164z M14979,2156
		c8-9,10-146,9-487l-3-474l-907-3l-908-2v484c0,378,3,485,13,489c6,3,411,6,898,6C14818,2170,14969,2168,14979,2156z M15988,2158
		c9-9,12-130,12-484c0-260-3-475-7-477c-5-3-200-8-434-12c-388-6-427-5-442,10s-17,63-17,484c0,350,3,470,12,479
		C15129,2175,15971,2175,15988,2158z M17975,1680v-485l-499-3c-393-2-501,0-508,10c-4,7-8,222-8,479c0,350,3,468,12,477
		s131,12,508,10l495-3V1680z M19895,1680v-485h-905h-905l-3,475c-1,261,0,481,3,488c3,10,190,12,907,10l903-3V1680z M20375,1680
		v-485l-174-3c-133-2-176,1-183,10c-9,15-11,928-2,952c6,14,28,16,183,14l176-3V1680z M20838,2158c19-19,17-941-2-957
		c-9-8-68-11-187-9l-174,3l-3,475c-1,261,0,481,3,488C20481,2175,20821,2175,20838,2158z M21315,1680v-485h-185h-185l-3,475
		c-1,261,0,481,3,488c3,10,47,12,187,10l183-3V1680z M3738,2152c10-7,12-112,10-493l-3-484l-629-3c-357-1-634,2-639,7
		s-37,222-72,482c-58,434-62,475-47,487c12,9,166,12,691,12C3421,2160,3731,2156,3738,2152z M6624,2144c14-14,16-68,14-487l-3-472
		l-432-3l-433-2v484c0,378,3,485,13,489c6,3,195,6,419,6C6560,2160,6610,2158,6624,2144z M7769,2146c8-9,10-146,9-487l-3-474h-520
		h-520l-3,479c-2,377,0,481,10,488c7,4,239,8,514,8C7668,2160,7760,2158,7769,2146z M9020,1865v-295h570h570v-183
		c0-129-4-187-12-195c-9-9-179-12-704-12c-381,0-699,3-708,6c-14,5-16,57-16,474c0,258,3,475,6,484c5,14,28,16,150,16h144V1865z
		 M10160,1905v-255h-524c-289,0-527,3-529,8c-3,4-2,118,1,255l5,247h523h524V1905z M12048,1676c2-377,0-481-10-488c-7-4-405-8-885-8
		c-852,0-873,0-883,19c-11,22-15,943-3,954c3,4,405,6,892,5l886-3L12048,1676z M5684,2141c3-4,6-221,6-481c1-379-1-475-12-481
		c-7-5-412-9-899-9c-698,0-889,3-897,13c-7,8-11,173-12,477c-1,256-1,471-1,478c1,9,189,12,905,12C5272,2150,5681,2146,5684,2141z"
		/>
	<path d="M8040,1585c0-107-3-195-7-195s-17,9-29,21c-23,21-44,19-44-5c0-7,23-35,51-61l51-47l49,48c27,26,49,54,49,61
		c0,23-22,25-44,4c-12-12-25-21-29-21s-7,88-7,195c0,188-1,195-20,195S8040,1773,8040,1585z"/>
	<path d="M8366,1730c-44-47-51-70-22-70c7,0,21,9,31,20s21,20,24,20s6-82,5-183c-1-185,5-221,31-211c13,5,15,38,15,200
		c0,189,5,220,30,174c13-24,38-26,47-4c7,19-73,104-98,104C8420,1780,8392,1757,8366,1730z"/>
	<path d="M16277,1773c-4-3-7-91-7-195v-189l-29,22c-29,21-51,19-51-5c0-7,23-35,51-61l51-48l54,54c48,47,52,55,39,68s-17,12-39-8
		l-24-22l-4,23c-2,13-3,93-2,178s0,163-3,173C16309,1780,16289,1786,16277,1773z"/>
	<path d="M16602,1737c-23-23-42-50-42-60c0-24,37-22,50,3c25,46,30,15,30-173c0-107,3-196,6-200c3-3,12-3,20,0c11,4,14,42,14,199
		c0,189,5,220,30,174c13-25,50-27,50-3c0,22-79,103-100,103C16651,1780,16625,1761,16602,1737z"/>
</g>
<g>
	<path d="M712.4,719.6l-10.7,0.1c0.1-1.1,0.5-2.1,1.1-3s1.8-2,3.5-3.3c1-0.8,1.7-1.4,2-1.8s0.4-0.8,0.4-1.2s-0.1-0.7-0.4-1
		c-0.3-0.3-0.7-0.4-1.1-0.4c-0.5,0-0.8,0.1-1.1,0.4c-0.3,0.3-0.5,0.8-0.6,1.5l-3.6-0.3c0.1-1,0.4-1.8,0.8-2.4c0.4-0.6,0.9-1,1.6-1.3
		c0.7-0.3,1.6-0.5,2.8-0.5c1.3,0,2.2,0.1,2.9,0.4c0.7,0.3,1.3,0.7,1.7,1.3s0.6,1.3,0.6,2c0,0.8-0.2,1.5-0.7,2.3s-1.3,1.5-2.5,2.4
		c-0.7,0.5-1.2,0.9-1.4,1.1c-0.2,0.2-0.5,0.5-0.9,0.8h5.6L712.4,719.6z"/>
	<path d="M713.9,713.1c0-2.4,0.4-4.2,1.3-5.1c0.9-1,2.2-1.5,4-1.5c0.9,0,1.6,0.1,2.1,0.3c0.6,0.2,1,0.5,1.4,0.8s0.6,0.7,0.8,1.1
		c0.2,0.4,0.4,0.8,0.5,1.3c0.2,1,0.4,2,0.4,3c0,2.3-0.4,4.1-1.2,5.1c-0.8,1.1-2.1,1.6-4.1,1.7c-1.1,0-2-0.2-2.6-0.5
		c-0.7-0.3-1.2-0.8-1.7-1.5c-0.3-0.5-0.6-1.1-0.7-1.9S713.9,714.1,713.9,713.1z M717.4,713c0,1.6,0.2,2.8,0.5,3.4
		c0.3,0.6,0.7,0.9,1.3,0.9c0.4,0,0.7-0.1,0.9-0.4c0.3-0.3,0.5-0.7,0.6-1.2c0.1-0.6,0.2-1.4,0.2-2.6c0-1.7-0.2-2.9-0.5-3.4
		c-0.3-0.6-0.7-0.9-1.3-0.9s-1,0.3-1.3,0.9C717.6,710.3,717.4,711.4,717.4,713z"/>
	<path d="M725.9,713c0-2.4,0.4-4.2,1.3-5.1c0.9-1,2.2-1.5,4-1.5c0.9,0,1.6,0.1,2.1,0.3c0.6,0.2,1,0.5,1.4,0.8s0.6,0.7,0.8,1.1
		c0.2,0.4,0.4,0.8,0.5,1.3c0.2,1,0.4,2,0.4,3c0,2.3-0.4,4.1-1.2,5.1s-2.1,1.6-4.1,1.7c-1.1,0-2-0.2-2.6-0.5
		c-0.7-0.3-1.2-0.8-1.7-1.5c-0.3-0.5-0.6-1.1-0.7-1.9S725.9,714,725.9,713z M729.4,713c0,1.6,0.2,2.8,0.5,3.4
		c0.3,0.6,0.7,0.9,1.3,0.9c0.4,0,0.7-0.1,0.9-0.4c0.3-0.3,0.5-0.7,0.6-1.2c0.1-0.6,0.2-1.4,0.2-2.6c0-1.7-0.2-2.9-0.5-3.4
		c-0.3-0.6-0.7-0.9-1.3-0.9s-1,0.3-1.3,0.9C729.6,710.2,729.4,711.4,729.4,713z"/>
	<path d="M746,706.3l0.1,13.1h-3.6l-0.1-8.6c-0.6,0.4-1.1,0.8-1.7,1.1c-0.5,0.3-1.2,0.5-2.1,0.8v-2.9c1.2-0.4,2.2-0.9,2.8-1.4
		c0.7-0.6,1.2-1.2,1.6-2L746,706.3z"/>
</g>
<g>
	<path d="M610.6,879.7l-10.7,0.1c0.1-1.1,0.5-2.1,1.1-3s1.8-2,3.5-3.3c1-0.8,1.7-1.4,2-1.8s0.4-0.8,0.4-1.2s-0.1-0.7-0.4-1
		c-0.3-0.3-0.7-0.4-1.1-0.4c-0.5,0-0.8,0.1-1.1,0.4c-0.3,0.3-0.5,0.8-0.6,1.5l-3.6-0.3c0.1-1,0.4-1.8,0.8-2.4c0.4-0.6,0.9-1,1.6-1.3
		c0.7-0.3,1.6-0.5,2.8-0.5c1.3,0,2.2,0.1,2.9,0.4c0.7,0.3,1.3,0.7,1.7,1.3s0.6,1.3,0.6,2c0,0.8-0.2,1.5-0.7,2.3s-1.3,1.5-2.5,2.4
		c-0.7,0.5-1.2,0.9-1.4,1.1c-0.2,0.2-0.5,0.5-0.9,0.8h5.6L610.6,879.7z"/>
	<path d="M612.1,873.2c0-2.4,0.4-4.2,1.3-5.1c0.9-1,2.2-1.5,4-1.5c0.9,0,1.6,0.1,2.1,0.3c0.6,0.2,1,0.5,1.4,0.8s0.6,0.7,0.8,1.1
		c0.2,0.4,0.4,0.8,0.5,1.3c0.2,1,0.4,2,0.4,3c0,2.3-0.4,4.1-1.2,5.1c-0.8,1.1-2.1,1.6-4.1,1.7c-1.1,0-2-0.2-2.6-0.5
		c-0.7-0.3-1.2-0.8-1.7-1.5c-0.3-0.5-0.6-1.1-0.7-1.9S612.1,874.2,612.1,873.2z M615.6,873.1c0,1.6,0.2,2.8,0.5,3.4
		c0.3,0.6,0.7,0.9,1.3,0.9c0.4,0,0.7-0.1,0.9-0.4c0.3-0.3,0.5-0.7,0.6-1.2c0.1-0.6,0.2-1.4,0.2-2.6c0-1.7-0.2-2.9-0.5-3.4
		c-0.3-0.6-0.7-0.9-1.3-0.9s-1,0.3-1.3,0.9C615.8,870.4,615.6,871.5,615.6,873.1z"/>
	<path d="M624.1,873.1c0-2.4,0.4-4.2,1.3-5.1c0.9-1,2.2-1.5,4-1.5c0.9,0,1.6,0.1,2.1,0.3c0.6,0.2,1,0.5,1.4,0.8s0.6,0.7,0.8,1.1
		c0.2,0.4,0.4,0.8,0.5,1.3c0.2,1,0.4,2,0.4,3c0,2.3-0.4,4.1-1.2,5.1s-2.1,1.6-4.1,1.7c-1.1,0-2-0.2-2.6-0.5
		c-0.7-0.3-1.2-0.8-1.7-1.5c-0.3-0.5-0.6-1.1-0.7-1.9S624.1,874.1,624.1,873.1z M627.6,873.1c0,1.6,0.2,2.8,0.5,3.4
		c0.3,0.6,0.7,0.9,1.3,0.9c0.4,0,0.7-0.1,0.9-0.4c0.3-0.3,0.5-0.7,0.6-1.2c0.1-0.6,0.2-1.4,0.2-2.6c0-1.7-0.2-2.9-0.5-3.4
		c-0.3-0.6-0.7-0.9-1.3-0.9s-1,0.3-1.3,0.9C627.8,870.3,627.6,871.5,627.6,873.1z"/>
	<path d="M644.2,866.4l0.1,13.1h-3.6l-0.1-8.6c-0.6,0.4-1.1,0.8-1.7,1.1c-0.5,0.3-1.2,0.5-2.1,0.8v-2.9c1.2-0.4,2.2-0.9,2.8-1.4
		c0.7-0.6,1.2-1.2,1.6-2L644.2,866.4z"/>
</g>
<g>
	<path d="M466.5,881.5l-10.7,0.1c0.1-1.1,0.5-2.1,1.1-3s1.8-2,3.5-3.3c1-0.8,1.7-1.4,2-1.8s0.4-0.8,0.4-1.2s-0.1-0.7-0.4-1
		c-0.3-0.3-0.7-0.4-1.1-0.4c-0.5,0-0.8,0.1-1.1,0.4c-0.3,0.3-0.5,0.8-0.6,1.5l-3.6-0.3c0.1-1,0.4-1.8,0.8-2.4c0.4-0.6,0.9-1,1.6-1.3
		c0.7-0.3,1.6-0.5,2.8-0.5c1.3,0,2.2,0.1,2.9,0.4c0.7,0.3,1.3,0.7,1.7,1.3s0.6,1.3,0.6,2c0,0.8-0.2,1.5-0.7,2.3s-1.3,1.5-2.5,2.4
		c-0.7,0.5-1.2,0.9-1.4,1.1c-0.2,0.2-0.5,0.5-0.9,0.8h5.6L466.5,881.5z"/>
	<path d="M468,875c0-2.4,0.4-4.2,1.3-5.1c0.9-1,2.2-1.5,4-1.5c0.9,0,1.6,0.1,2.1,0.3c0.6,0.2,1,0.5,1.4,0.8s0.6,0.7,0.8,1.1
		c0.2,0.4,0.4,0.8,0.5,1.3c0.2,1,0.4,2,0.4,3c0,2.3-0.4,4.1-1.2,5.1c-0.8,1.1-2.1,1.6-4.1,1.7c-1.1,0-2-0.2-2.6-0.5
		c-0.7-0.3-1.2-0.8-1.7-1.5c-0.3-0.5-0.6-1.1-0.7-1.9S468,876,468,875z M471.5,875c0,1.6,0.2,2.8,0.5,3.4c0.3,0.6,0.7,0.9,1.3,0.9
		c0.4,0,0.7-0.1,0.9-0.4c0.3-0.3,0.5-0.7,0.6-1.2c0.1-0.6,0.2-1.4,0.2-2.6c0-1.7-0.2-2.9-0.5-3.4c-0.3-0.6-0.7-0.9-1.3-0.9
		s-1,0.3-1.3,0.9C471.7,872.2,471.5,873.3,471.5,875z"/>
	<path d="M480,875c0-2.4,0.4-4.2,1.3-5.1c0.9-1,2.2-1.5,4-1.5c0.9,0,1.6,0.1,2.1,0.3c0.6,0.2,1,0.5,1.4,0.8s0.6,0.7,0.8,1.1
		c0.2,0.4,0.4,0.8,0.5,1.3c0.2,1,0.4,2,0.4,3c0,2.3-0.4,4.1-1.2,5.1s-2.1,1.6-4.1,1.7c-1.1,0-2-0.2-2.6-0.5
		c-0.7-0.3-1.2-0.8-1.7-1.5c-0.3-0.5-0.6-1.1-0.7-1.9S480,876,480,875z M483.5,875c0,1.6,0.2,2.8,0.5,3.4c0.3,0.6,0.7,0.9,1.3,0.9
		c0.4,0,0.7-0.1,0.9-0.4c0.3-0.3,0.5-0.7,0.6-1.2c0.1-0.6,0.2-1.4,0.2-2.6c0-1.7-0.2-2.9-0.5-3.4c-0.3-0.6-0.7-0.9-1.3-0.9
		s-1,0.3-1.3,0.9C483.7,872.2,483.5,873.3,483.5,875z"/>
	<path d="M500.1,868.2l0.1,13.1h-3.6l-0.1-8.6c-0.6,0.4-1.1,0.8-1.7,1.1c-0.5,0.3-1.2,0.5-2.1,0.8v-2.9c1.2-0.4,2.2-0.9,2.8-1.4
		c0.7-0.6,1.2-1.2,1.6-2L500.1,868.2z"/>
</g>
<g>
	<path d="M293.4,879.6l-10.7,0.1c0.1-1.1,0.5-2.1,1.1-3s1.8-2,3.5-3.3c1-0.8,1.7-1.4,2-1.8s0.4-0.8,0.4-1.2s-0.1-0.7-0.4-1
		c-0.3-0.3-0.7-0.4-1.1-0.4c-0.5,0-0.8,0.1-1.1,0.4c-0.3,0.3-0.5,0.8-0.6,1.5l-3.6-0.3c0.1-1,0.4-1.8,0.8-2.4c0.4-0.6,0.9-1,1.6-1.3
		c0.7-0.3,1.6-0.5,2.8-0.5c1.3,0,2.2,0.1,2.9,0.4c0.7,0.3,1.3,0.7,1.7,1.3s0.6,1.3,0.6,2c0,0.8-0.2,1.5-0.7,2.3s-1.3,1.5-2.5,2.4
		c-0.7,0.5-1.2,0.9-1.4,1.1c-0.2,0.2-0.5,0.5-0.9,0.8h5.6L293.4,879.6z"/>
	<path d="M294.9,873.1c0-2.4,0.4-4.2,1.3-5.1c0.9-1,2.2-1.5,4-1.5c0.9,0,1.6,0.1,2.1,0.3c0.6,0.2,1,0.5,1.4,0.8s0.6,0.7,0.8,1.1
		c0.2,0.4,0.4,0.8,0.5,1.3c0.2,1,0.4,2,0.4,3c0,2.3-0.4,4.1-1.2,5.1c-0.8,1.1-2.1,1.6-4.1,1.7c-1.1,0-2-0.2-2.6-0.5
		c-0.7-0.3-1.2-0.8-1.7-1.5c-0.3-0.5-0.6-1.1-0.7-1.9S294.9,874.1,294.9,873.1z M298.4,873c0,1.6,0.2,2.8,0.5,3.4
		c0.3,0.6,0.7,0.9,1.3,0.9c0.4,0,0.7-0.1,0.9-0.4c0.3-0.3,0.5-0.7,0.6-1.2c0.1-0.6,0.2-1.4,0.2-2.6c0-1.7-0.2-2.9-0.5-3.4
		c-0.3-0.6-0.7-0.9-1.3-0.9s-1,0.3-1.3,0.9C298.6,870.3,298.4,871.4,298.4,873z"/>
	<path d="M306.9,873c0-2.4,0.4-4.2,1.3-5.1c0.9-1,2.2-1.5,4-1.5c0.9,0,1.6,0.1,2.1,0.3c0.6,0.2,1,0.5,1.4,0.8s0.6,0.7,0.8,1.1
		c0.2,0.4,0.4,0.8,0.5,1.3c0.2,1,0.4,2,0.4,3c0,2.3-0.4,4.1-1.2,5.1s-2.1,1.6-4.1,1.7c-1.1,0-2-0.2-2.6-0.5
		c-0.7-0.3-1.2-0.8-1.7-1.5c-0.3-0.5-0.6-1.1-0.7-1.9S306.9,874,306.9,873z M310.4,873c0,1.6,0.2,2.8,0.5,3.4
		c0.3,0.6,0.7,0.9,1.3,0.9c0.4,0,0.7-0.1,0.9-0.4c0.3-0.3,0.5-0.7,0.6-1.2c0.1-0.6,0.2-1.4,0.2-2.6c0-1.7-0.2-2.9-0.5-3.4
		c-0.3-0.6-0.7-0.9-1.3-0.9s-1,0.3-1.3,0.9C310.6,870.2,310.4,871.4,310.4,873z"/>
	<path d="M327,866.3l0.1,13.1h-3.6l-0.1-8.6c-0.6,0.4-1.1,0.8-1.7,1.1c-0.5,0.3-1.2,0.5-2.1,0.8v-2.9c1.2-0.4,2.2-0.9,2.8-1.4
		c0.7-0.6,1.2-1.2,1.6-2L327,866.3z"/>
</g>
<g>
	<path d="M1103.9,879.5l-10.7,0.1c0.1-1.1,0.5-2.1,1.1-3s1.8-2,3.5-3.3c1-0.8,1.7-1.4,2-1.8c0.3-0.4,0.4-0.8,0.4-1.2s-0.1-0.7-0.4-1
		s-0.7-0.4-1.1-0.4c-0.5,0-0.8,0.1-1.1,0.4c-0.3,0.3-0.5,0.8-0.6,1.5l-3.6-0.3c0.1-1,0.4-1.8,0.8-2.4c0.4-0.6,0.9-1,1.6-1.3
		c0.7-0.3,1.6-0.5,2.8-0.5c1.3,0,2.2,0.1,2.9,0.4c0.7,0.3,1.3,0.7,1.7,1.3s0.6,1.3,0.6,2c0,0.8-0.2,1.5-0.7,2.3s-1.3,1.5-2.5,2.4
		c-0.7,0.5-1.2,0.9-1.4,1.1c-0.2,0.2-0.5,0.5-0.9,0.8h5.6V879.5z"/>
	<path d="M1105.4,873c0-2.4,0.4-4.2,1.3-5.1c0.9-1,2.2-1.5,4-1.5c0.9,0,1.6,0.1,2.1,0.3c0.6,0.2,1,0.5,1.4,0.8s0.6,0.7,0.8,1.1
		c0.2,0.4,0.4,0.8,0.5,1.3c0.2,1,0.4,2,0.4,3c0,2.3-0.4,4.1-1.2,5.1c-0.8,1.1-2.1,1.6-4.1,1.7c-1.1,0-2-0.2-2.6-0.5
		c-0.7-0.3-1.2-0.8-1.7-1.5c-0.3-0.5-0.6-1.1-0.7-1.9C1105.5,875,1105.4,874,1105.4,873z M1108.9,872.9c0,1.6,0.2,2.8,0.5,3.4
		c0.3,0.6,0.7,0.9,1.3,0.9c0.4,0,0.7-0.1,0.9-0.4c0.3-0.3,0.5-0.7,0.6-1.2c0.1-0.6,0.2-1.4,0.2-2.6c0-1.7-0.2-2.9-0.5-3.4
		c-0.3-0.6-0.7-0.9-1.3-0.9s-1,0.3-1.3,0.9C1109.1,870.2,1108.9,871.3,1108.9,872.9z"/>
	<path d="M1117.4,872.9c0-2.4,0.4-4.2,1.3-5.1c0.9-1,2.2-1.5,4-1.5c0.9,0,1.6,0.1,2.1,0.3c0.6,0.2,1,0.5,1.4,0.8s0.6,0.7,0.8,1.1
		c0.2,0.4,0.4,0.8,0.5,1.3c0.2,1,0.4,2,0.4,3c0,2.3-0.4,4.1-1.2,5.1c-0.8,1-2.1,1.6-4.1,1.7c-1.1,0-2-0.2-2.6-0.5
		c-0.7-0.3-1.2-0.8-1.7-1.5c-0.3-0.5-0.6-1.1-0.7-1.9C1117.5,874.9,1117.4,873.9,1117.4,872.9z M1120.9,872.9c0,1.6,0.2,2.8,0.5,3.4
		c0.3,0.6,0.7,0.9,1.3,0.9c0.4,0,0.7-0.1,0.9-0.4c0.3-0.3,0.5-0.7,0.6-1.2c0.1-0.6,0.2-1.4,0.2-2.6c0-1.7-0.2-2.9-0.5-3.4
		c-0.3-0.6-0.7-0.9-1.3-0.9s-1,0.3-1.3,0.9C1121.1,870.1,1120.9,871.3,1120.9,872.9z"/>
	<path d="M1137.5,866.2l0.1,13.1h-3.6l-0.1-8.6c-0.6,0.4-1.1,0.8-1.7,1.1c-0.5,0.3-1.2,0.5-2.1,0.8v-2.9c1.2-0.4,2.2-0.9,2.8-1.4
		c0.7-0.6,1.2-1.2,1.6-2L1137.5,866.2z"/>
</g>
<g>
	<path d="M951.8,856l-10.7,0.1c0.1-1.1,0.5-2.1,1.1-3s1.8-2,3.5-3.3c1-0.8,1.7-1.4,2-1.8s0.4-0.8,0.4-1.2s-0.1-0.7-0.4-1
		c-0.3-0.3-0.7-0.4-1.1-0.4c-0.5,0-0.8,0.1-1.1,0.4c-0.3,0.3-0.5,0.8-0.6,1.5l-3.6-0.3c0.1-1,0.4-1.8,0.8-2.4c0.4-0.6,0.9-1,1.6-1.3
		c0.7-0.3,1.6-0.5,2.8-0.5c1.3,0,2.2,0.1,2.9,0.4c0.7,0.3,1.3,0.7,1.7,1.3s0.6,1.3,0.6,2c0,0.8-0.2,1.5-0.7,2.3s-1.3,1.5-2.5,2.4
		c-0.7,0.5-1.2,0.9-1.4,1.1c-0.2,0.2-0.5,0.5-0.9,0.8h5.6L951.8,856z"/>
	<path d="M953.3,849.5c0-2.4,0.4-4.2,1.3-5.1c0.9-1,2.2-1.5,4-1.5c0.9,0,1.6,0.1,2.1,0.3c0.6,0.2,1,0.5,1.4,0.8s0.6,0.7,0.8,1.1
		c0.2,0.4,0.4,0.8,0.5,1.3c0.2,1,0.4,2,0.4,3c0,2.3-0.4,4.1-1.2,5.1c-0.8,1.1-2.1,1.6-4.1,1.7c-1.1,0-2-0.2-2.6-0.5
		c-0.7-0.3-1.2-0.8-1.7-1.5c-0.3-0.5-0.6-1.1-0.7-1.9S953.3,850.5,953.3,849.5z M956.8,849.5c0,1.6,0.2,2.8,0.5,3.4
		c0.3,0.6,0.7,0.9,1.3,0.9c0.4,0,0.7-0.1,0.9-0.4c0.3-0.3,0.5-0.7,0.6-1.2c0.1-0.6,0.2-1.4,0.2-2.6c0-1.7-0.2-2.9-0.5-3.4
		c-0.3-0.6-0.7-0.9-1.3-0.9s-1,0.3-1.3,0.9C957,846.8,956.8,847.8,956.8,849.5z"/>
	<path d="M965.3,849.5c0-2.4,0.4-4.2,1.3-5.1c0.9-1,2.2-1.5,4-1.5c0.9,0,1.6,0.1,2.1,0.3c0.6,0.2,1,0.5,1.4,0.8s0.6,0.7,0.8,1.1
		c0.2,0.4,0.4,0.8,0.5,1.3c0.2,1,0.4,2,0.4,3c0,2.3-0.4,4.1-1.2,5.1s-2.1,1.6-4.1,1.7c-1.1,0-2-0.2-2.6-0.5
		c-0.7-0.3-1.2-0.8-1.7-1.5c-0.3-0.5-0.6-1.1-0.7-1.9S965.3,850.5,965.3,849.5z M968.8,849.5c0,1.6,0.2,2.8,0.5,3.4
		c0.3,0.6,0.7,0.9,1.3,0.9c0.4,0,0.7-0.1,0.9-0.4c0.3-0.3,0.5-0.7,0.6-1.2c0.1-0.6,0.2-1.4,0.2-2.6c0-1.7-0.2-2.9-0.5-3.4
		c-0.3-0.6-0.7-0.9-1.3-0.9s-1,0.3-1.3,0.9C969,846.7,968.8,847.8,968.8,849.5z"/>
	<path d="M985.4,842.8l0.1,13.1h-3.6l-0.1-8.6c-0.6,0.4-1.1,0.8-1.7,1.1c-0.5,0.3-1.2,0.5-2.1,0.8v-2.9c1.2-0.4,2.2-0.9,2.8-1.4
		c0.7-0.6,1.2-1.2,1.6-2L985.4,842.8z"/>
</g>
<g>
	<path d="M934.9,909.4l-10.7,0.1c0.1-1.1,0.5-2.1,1.1-3s1.8-2,3.5-3.3c1-0.8,1.7-1.4,2-1.8s0.4-0.8,0.4-1.2s-0.1-0.7-0.4-1
		c-0.3-0.3-0.7-0.4-1.1-0.4c-0.5,0-0.8,0.1-1.1,0.4c-0.3,0.3-0.5,0.8-0.6,1.5l-3.6-0.3c0.1-1,0.4-1.8,0.8-2.4c0.4-0.6,0.9-1,1.6-1.3
		c0.7-0.3,1.6-0.5,2.8-0.5c1.3,0,2.2,0.1,2.9,0.4c0.7,0.3,1.3,0.7,1.7,1.3s0.6,1.3,0.6,2c0,0.8-0.2,1.5-0.7,2.3s-1.3,1.5-2.5,2.4
		c-0.7,0.5-1.2,0.9-1.4,1.1c-0.2,0.2-0.5,0.5-0.9,0.8h5.6L934.9,909.4z"/>
	<path d="M936.4,902.9c0-2.4,0.4-4.2,1.3-5.1c0.9-1,2.2-1.5,4-1.5c0.9,0,1.6,0.1,2.1,0.3c0.6,0.2,1,0.5,1.4,0.8s0.6,0.7,0.8,1.1
		c0.2,0.4,0.4,0.8,0.5,1.3c0.2,1,0.4,2,0.4,3c0,2.3-0.4,4.1-1.2,5.1c-0.8,1.1-2.1,1.6-4.1,1.7c-1.1,0-2-0.2-2.6-0.5
		c-0.7-0.3-1.2-0.8-1.7-1.5c-0.3-0.5-0.6-1.1-0.7-1.9S936.4,903.9,936.4,902.9z M939.9,902.8c0,1.6,0.2,2.8,0.5,3.4
		c0.3,0.6,0.7,0.9,1.3,0.9c0.4,0,0.7-0.1,0.9-0.4c0.3-0.3,0.5-0.7,0.6-1.2c0.1-0.6,0.2-1.4,0.2-2.6c0-1.7-0.2-2.9-0.5-3.4
		c-0.3-0.6-0.7-0.9-1.3-0.9s-1,0.3-1.3,0.9C940.1,900.1,939.9,901.2,939.9,902.8z"/>
	<path d="M948.4,902.8c0-2.4,0.4-4.2,1.3-5.1c0.9-1,2.2-1.5,4-1.5c0.9,0,1.6,0.1,2.1,0.3c0.6,0.2,1,0.5,1.4,0.8s0.6,0.7,0.8,1.1
		c0.2,0.4,0.4,0.8,0.5,1.3c0.2,1,0.4,2,0.4,3c0,2.3-0.4,4.1-1.2,5.1s-2.1,1.6-4.1,1.7c-1.1,0-2-0.2-2.6-0.5
		c-0.7-0.3-1.2-0.8-1.7-1.5c-0.3-0.5-0.6-1.1-0.7-1.9S948.4,903.8,948.4,902.8z M951.9,902.8c0,1.6,0.2,2.8,0.5,3.4
		c0.3,0.6,0.7,0.9,1.3,0.9c0.4,0,0.7-0.1,0.9-0.4c0.3-0.3,0.5-0.7,0.6-1.2c0.1-0.6,0.2-1.4,0.2-2.6c0-1.7-0.2-2.9-0.5-3.4
		c-0.3-0.6-0.7-0.9-1.3-0.9s-1,0.3-1.3,0.9C952.1,900,951.9,901.2,951.9,902.8z"/>
	<path d="M968.5,896.1l0.1,13.1H965l-0.1-8.6c-0.6,0.4-1.1,0.8-1.7,1.1c-0.5,0.3-1.2,0.5-2.1,0.8v-2.9c1.2-0.4,2.2-0.9,2.8-1.4
		c0.7-0.6,1.2-1.2,1.6-2L968.5,896.1z"/>
</g>
<g>
	<path d="M1249,879.8l-10.7,0.1c0.1-1.1,0.5-2.1,1.1-3s1.8-2,3.5-3.3c1-0.8,1.7-1.4,2-1.8c0.3-0.4,0.4-0.8,0.4-1.2s-0.1-0.7-0.4-1
		s-0.7-0.4-1.1-0.4c-0.5,0-0.8,0.1-1.1,0.4c-0.3,0.3-0.5,0.8-0.6,1.5l-3.6-0.3c0.1-1,0.4-1.8,0.8-2.4c0.4-0.6,0.9-1,1.6-1.3
		c0.7-0.3,1.6-0.5,2.8-0.5c1.3,0,2.2,0.1,2.9,0.4c0.7,0.3,1.3,0.7,1.7,1.3s0.6,1.3,0.6,2c0,0.8-0.2,1.5-0.7,2.3s-1.3,1.5-2.5,2.4
		c-0.7,0.5-1.2,0.9-1.4,1.1c-0.2,0.2-0.5,0.5-0.9,0.8h5.6V879.8z"/>
	<path d="M1250.5,873.3c0-2.4,0.4-4.2,1.3-5.1c0.9-1,2.2-1.5,4-1.5c0.9,0,1.6,0.1,2.1,0.3c0.6,0.2,1,0.5,1.4,0.8s0.6,0.7,0.8,1.1
		c0.2,0.4,0.4,0.8,0.5,1.3c0.2,1,0.4,2,0.4,3c0,2.3-0.4,4.1-1.2,5.1c-0.8,1.1-2.1,1.6-4.1,1.7c-1.1,0-2-0.2-2.6-0.5
		c-0.7-0.3-1.2-0.8-1.7-1.5c-0.3-0.5-0.6-1.1-0.7-1.9C1250.6,875.3,1250.5,874.3,1250.5,873.3z M1254,873.2c0,1.6,0.2,2.8,0.5,3.4
		c0.3,0.6,0.7,0.9,1.3,0.9c0.4,0,0.7-0.1,0.9-0.4c0.3-0.3,0.5-0.7,0.6-1.2c0.1-0.6,0.2-1.4,0.2-2.6c0-1.7-0.2-2.9-0.5-3.4
		c-0.3-0.6-0.7-0.9-1.3-0.9s-1,0.3-1.3,0.9C1254.2,870.5,1254,871.6,1254,873.2z"/>
	<path d="M1262.5,873.2c0-2.4,0.4-4.2,1.3-5.1c0.9-1,2.2-1.5,4-1.5c0.9,0,1.6,0.1,2.1,0.3c0.6,0.2,1,0.5,1.4,0.8s0.6,0.7,0.8,1.1
		c0.2,0.4,0.4,0.8,0.5,1.3c0.2,1,0.4,2,0.4,3c0,2.3-0.4,4.1-1.2,5.1c-0.8,1-2.1,1.6-4.1,1.7c-1.1,0-2-0.2-2.6-0.5
		c-0.7-0.3-1.2-0.8-1.7-1.5c-0.3-0.5-0.6-1.1-0.7-1.9C1262.6,875.2,1262.5,874.2,1262.5,873.2z M1266,873.2c0,1.6,0.2,2.8,0.5,3.4
		c0.3,0.6,0.7,0.9,1.3,0.9c0.4,0,0.7-0.1,0.9-0.4c0.3-0.3,0.5-0.7,0.6-1.2c0.1-0.6,0.2-1.4,0.2-2.6c0-1.7-0.2-2.9-0.5-3.4
		c-0.3-0.6-0.7-0.9-1.3-0.9s-1,0.3-1.3,0.9C1266.2,870.4,1266,871.6,1266,873.2z"/>
	<path d="M1282.6,866.5l0.1,13.1h-3.6l-0.1-8.6c-0.6,0.4-1.1,0.8-1.7,1.1c-0.5,0.3-1.2,0.5-2.1,0.8V870c1.2-0.4,2.2-0.9,2.8-1.4
		c0.7-0.6,1.2-1.2,1.6-2L1282.6,866.5z"/>
</g>
<g>
	<path d="M1395.2,880.7l-10.7,0.1c0.1-1.1,0.5-2.1,1.1-3s1.8-2,3.5-3.3c1-0.8,1.7-1.4,2-1.8c0.3-0.4,0.4-0.8,0.4-1.2s-0.1-0.7-0.4-1
		s-0.7-0.4-1.1-0.4c-0.5,0-0.8,0.1-1.1,0.4c-0.3,0.3-0.5,0.8-0.6,1.5l-3.6-0.3c0.1-1,0.4-1.8,0.8-2.4c0.4-0.6,0.9-1,1.6-1.3
		c0.7-0.3,1.6-0.5,2.8-0.5c1.3,0,2.2,0.1,2.9,0.4c0.7,0.3,1.3,0.7,1.7,1.3s0.6,1.3,0.6,2c0,0.8-0.2,1.5-0.7,2.3s-1.3,1.5-2.5,2.4
		c-0.7,0.5-1.2,0.9-1.4,1.1c-0.2,0.2-0.5,0.5-0.9,0.8h5.6V880.7z"/>
	<path d="M1396.7,874.2c0-2.4,0.4-4.2,1.3-5.1c0.9-1,2.2-1.5,4-1.5c0.9,0,1.6,0.1,2.1,0.3c0.6,0.2,1,0.5,1.4,0.8s0.6,0.7,0.8,1.1
		c0.2,0.4,0.4,0.8,0.5,1.3c0.2,1,0.4,2,0.4,3c0,2.3-0.4,4.1-1.2,5.1c-0.8,1.1-2.1,1.6-4.1,1.7c-1.1,0-2-0.2-2.6-0.5
		c-0.7-0.3-1.2-0.8-1.7-1.5c-0.3-0.5-0.6-1.1-0.7-1.9C1396.8,876.2,1396.7,875.2,1396.7,874.2z M1400.2,874.1c0,1.6,0.2,2.8,0.5,3.4
		c0.3,0.6,0.7,0.9,1.3,0.9c0.4,0,0.7-0.1,0.9-0.4c0.3-0.3,0.5-0.7,0.6-1.2c0.1-0.6,0.2-1.4,0.2-2.6c0-1.7-0.2-2.9-0.5-3.4
		c-0.3-0.6-0.7-0.9-1.3-0.9s-1,0.3-1.3,0.9C1400.4,871.4,1400.2,872.5,1400.2,874.1z"/>
	<path d="M1408.7,874.1c0-2.4,0.4-4.2,1.3-5.1c0.9-1,2.2-1.5,4-1.5c0.9,0,1.6,0.1,2.1,0.3c0.6,0.2,1,0.5,1.4,0.8s0.6,0.7,0.8,1.1
		c0.2,0.4,0.4,0.8,0.5,1.3c0.2,1,0.4,2,0.4,3c0,2.3-0.4,4.1-1.2,5.1c-0.8,1-2.1,1.6-4.1,1.7c-1.1,0-2-0.2-2.6-0.5
		c-0.7-0.3-1.2-0.8-1.7-1.5c-0.3-0.5-0.6-1.1-0.7-1.9C1408.8,876.1,1408.7,875.1,1408.7,874.1z M1412.2,874.1c0,1.6,0.2,2.8,0.5,3.4
		c0.3,0.6,0.7,0.9,1.3,0.9c0.4,0,0.7-0.1,0.9-0.4c0.3-0.3,0.5-0.7,0.6-1.2c0.1-0.6,0.2-1.4,0.2-2.6c0-1.7-0.2-2.9-0.5-3.4
		c-0.3-0.6-0.7-0.9-1.3-0.9s-1,0.3-1.3,0.9C1412.4,871.3,1412.2,872.5,1412.2,874.1z"/>
	<path d="M1428.8,867.4l0.1,13.1h-3.6l-0.1-8.6c-0.6,0.4-1.1,0.8-1.7,1.1c-0.5,0.3-1.2,0.5-2.1,0.8v-2.9c1.2-0.4,2.2-0.9,2.8-1.4
		c0.7-0.6,1.2-1.2,1.6-2L1428.8,867.4z"/>
</g>
<g>
	<path d="M1543.5,878.4l-10.7,0.1c0.1-1.1,0.5-2.1,1.1-3s1.8-2,3.5-3.3c1-0.8,1.7-1.4,2-1.8c0.3-0.4,0.4-0.8,0.4-1.2s-0.1-0.7-0.4-1
		s-0.7-0.4-1.1-0.4c-0.5,0-0.8,0.1-1.1,0.4c-0.3,0.3-0.5,0.8-0.6,1.5l-3.6-0.3c0.1-1,0.4-1.8,0.8-2.4c0.4-0.6,0.9-1,1.6-1.3
		c0.7-0.3,1.6-0.5,2.8-0.5c1.3,0,2.2,0.1,2.9,0.4c0.7,0.3,1.3,0.7,1.7,1.3s0.6,1.3,0.6,2c0,0.8-0.2,1.5-0.7,2.3s-1.3,1.5-2.5,2.4
		c-0.7,0.5-1.2,0.9-1.4,1.1c-0.2,0.2-0.5,0.5-0.9,0.8h5.6V878.4z"/>
	<path d="M1545,871.9c0-2.4,0.4-4.2,1.3-5.1c0.9-1,2.2-1.5,4-1.5c0.9,0,1.6,0.1,2.1,0.3c0.6,0.2,1,0.5,1.4,0.8s0.6,0.7,0.8,1.1
		c0.2,0.4,0.4,0.8,0.5,1.3c0.2,1,0.4,2,0.4,3c0,2.3-0.4,4.1-1.2,5.1c-0.8,1.1-2.1,1.6-4.1,1.7c-1.1,0-2-0.2-2.6-0.5
		c-0.7-0.3-1.2-0.8-1.7-1.5c-0.3-0.5-0.6-1.1-0.7-1.9C1545.1,873.9,1545,872.9,1545,871.9z M1548.5,871.8c0,1.6,0.2,2.8,0.5,3.4
		c0.3,0.6,0.7,0.9,1.3,0.9c0.4,0,0.7-0.1,0.9-0.4c0.3-0.3,0.5-0.7,0.6-1.2c0.1-0.6,0.2-1.4,0.2-2.6c0-1.7-0.2-2.9-0.5-3.4
		c-0.3-0.6-0.7-0.9-1.3-0.9s-1,0.3-1.3,0.9C1548.7,869.1,1548.5,870.2,1548.5,871.8z"/>
	<path d="M1557,871.8c0-2.4,0.4-4.2,1.3-5.1c0.9-1,2.2-1.5,4-1.5c0.9,0,1.6,0.1,2.1,0.3c0.6,0.2,1,0.5,1.4,0.8s0.6,0.7,0.8,1.1
		c0.2,0.4,0.4,0.8,0.5,1.3c0.2,1,0.4,2,0.4,3c0,2.3-0.4,4.1-1.2,5.1c-0.8,1-2.1,1.6-4.1,1.7c-1.1,0-2-0.2-2.6-0.5
		c-0.7-0.3-1.2-0.8-1.7-1.5c-0.3-0.5-0.6-1.1-0.7-1.9C1557.1,873.8,1557,872.8,1557,871.8z M1560.5,871.8c0,1.6,0.2,2.8,0.5,3.4
		c0.3,0.6,0.7,0.9,1.3,0.9c0.4,0,0.7-0.1,0.9-0.4c0.3-0.3,0.5-0.7,0.6-1.2c0.1-0.6,0.2-1.4,0.2-2.6c0-1.7-0.2-2.9-0.5-3.4
		c-0.3-0.6-0.7-0.9-1.3-0.9s-1,0.3-1.3,0.9C1560.7,869,1560.5,870.2,1560.5,871.8z"/>
	<path d="M1577.1,865.1l0.1,13.1h-3.6l-0.1-8.6c-0.6,0.4-1.1,0.8-1.7,1.1c-0.5,0.3-1.2,0.5-2.1,0.8v-2.9c1.2-0.4,2.2-0.9,2.8-1.4
		c0.7-0.6,1.2-1.2,1.6-2L1577.1,865.1z"/>
</g>
<g>
	<path d="M1735,878.5l-10.7,0.1c0.1-1.1,0.5-2.1,1.1-3s1.8-2,3.5-3.3c1-0.8,1.7-1.4,2-1.8c0.3-0.4,0.4-0.8,0.4-1.2s-0.1-0.7-0.4-1
		s-0.7-0.4-1.1-0.4c-0.5,0-0.8,0.1-1.1,0.4c-0.3,0.3-0.5,0.8-0.6,1.5l-3.6-0.3c0.1-1,0.4-1.8,0.8-2.4c0.4-0.6,0.9-1,1.6-1.3
		c0.7-0.3,1.6-0.5,2.8-0.5c1.3,0,2.2,0.1,2.9,0.4c0.7,0.3,1.3,0.7,1.7,1.3s0.6,1.3,0.6,2c0,0.8-0.2,1.5-0.7,2.3s-1.3,1.5-2.5,2.4
		c-0.7,0.5-1.2,0.9-1.4,1.1c-0.2,0.2-0.5,0.5-0.9,0.8h5.6V878.5z"/>
	<path d="M1736.5,872c0-2.4,0.4-4.2,1.3-5.1c0.9-1,2.2-1.5,4-1.5c0.9,0,1.6,0.1,2.1,0.3c0.6,0.2,1,0.5,1.4,0.8s0.6,0.7,0.8,1.1
		c0.2,0.4,0.4,0.8,0.5,1.3c0.2,1,0.4,2,0.4,3c0,2.3-0.4,4.1-1.2,5.1c-0.8,1.1-2.1,1.6-4.1,1.7c-1.1,0-2-0.2-2.6-0.5
		c-0.7-0.3-1.2-0.8-1.7-1.5c-0.3-0.5-0.6-1.1-0.7-1.9C1736.6,874,1736.5,873,1736.5,872z M1740,871.9c0,1.6,0.2,2.8,0.5,3.4
		c0.3,0.6,0.7,0.9,1.3,0.9c0.4,0,0.7-0.1,0.9-0.4c0.3-0.3,0.5-0.7,0.6-1.2c0.1-0.6,0.2-1.4,0.2-2.6c0-1.7-0.2-2.9-0.5-3.4
		c-0.3-0.6-0.7-0.9-1.3-0.9s-1,0.3-1.3,0.9C1740.2,869.2,1740,870.3,1740,871.9z"/>
	<path d="M1748.5,871.9c0-2.4,0.4-4.2,1.3-5.1c0.9-1,2.2-1.5,4-1.5c0.9,0,1.6,0.1,2.1,0.3c0.6,0.2,1,0.5,1.4,0.8s0.6,0.7,0.8,1.1
		c0.2,0.4,0.4,0.8,0.5,1.3c0.2,1,0.4,2,0.4,3c0,2.3-0.4,4.1-1.2,5.1c-0.8,1-2.1,1.6-4.1,1.7c-1.1,0-2-0.2-2.6-0.5
		c-0.7-0.3-1.2-0.8-1.7-1.5c-0.3-0.5-0.6-1.1-0.7-1.9C1748.6,873.9,1748.5,872.9,1748.5,871.9z M1752,871.9c0,1.6,0.2,2.8,0.5,3.4
		c0.3,0.6,0.7,0.9,1.3,0.9c0.4,0,0.7-0.1,0.9-0.4c0.3-0.3,0.5-0.7,0.6-1.2c0.1-0.6,0.2-1.4,0.2-2.6c0-1.7-0.2-2.9-0.5-3.4
		c-0.3-0.6-0.7-0.9-1.3-0.9s-1,0.3-1.3,0.9C1752.2,869.1,1752,870.3,1752,871.9z"/>
	<path d="M1768.6,865.2l0.1,13.1h-3.6l-0.1-8.6c-0.6,0.4-1.1,0.8-1.7,1.1c-0.5,0.3-1.2,0.5-2.1,0.8v-2.9c1.2-0.4,2.2-0.9,2.8-1.4
		c0.7-0.6,1.2-1.2,1.6-2L1768.6,865.2z"/>
</g>
<g>
	<path d="M1887.3,874.1l-10.7,0.1c0.1-1.1,0.5-2.1,1.1-3s1.8-2,3.5-3.3c1-0.8,1.7-1.4,2-1.8c0.3-0.4,0.4-0.8,0.4-1.2s-0.1-0.7-0.4-1
		c-0.3-0.3-0.7-0.4-1.1-0.4c-0.5,0-0.8,0.1-1.1,0.4c-0.3,0.3-0.5,0.8-0.6,1.5l-3.6-0.3c0.1-1,0.4-1.8,0.8-2.4c0.4-0.6,0.9-1,1.6-1.3
		s1.6-0.5,2.8-0.5c1.3,0,2.2,0.1,2.9,0.4c0.7,0.3,1.3,0.7,1.7,1.3s0.6,1.3,0.6,2c0,0.8-0.2,1.5-0.7,2.3s-1.3,1.5-2.5,2.4
		c-0.7,0.5-1.2,0.9-1.4,1.1c-0.2,0.2-0.5,0.5-0.9,0.8h5.6L1887.3,874.1z"/>
	<path d="M1888.8,867.6c0-2.4,0.4-4.2,1.3-5.1c0.9-1,2.2-1.5,4-1.5c0.9,0,1.6,0.1,2.1,0.3c0.6,0.2,1,0.5,1.4,0.8s0.6,0.7,0.8,1.1
		c0.2,0.4,0.4,0.8,0.5,1.3c0.2,1,0.4,2,0.4,3c0,2.3-0.4,4.1-1.2,5.1c-0.8,1.1-2.1,1.6-4.1,1.7c-1.1,0-2-0.2-2.6-0.5
		c-0.7-0.3-1.2-0.8-1.7-1.5c-0.3-0.5-0.6-1.1-0.7-1.9C1888.9,869.6,1888.8,868.6,1888.8,867.6z M1892.3,867.5c0,1.6,0.2,2.8,0.5,3.4
		c0.3,0.6,0.7,0.9,1.3,0.9c0.4,0,0.7-0.1,0.9-0.4c0.3-0.3,0.5-0.7,0.6-1.2c0.1-0.6,0.2-1.4,0.2-2.6c0-1.7-0.2-2.9-0.5-3.4
		c-0.3-0.6-0.7-0.9-1.3-0.9s-1,0.3-1.3,0.9C1892.5,864.8,1892.3,865.9,1892.3,867.5z"/>
	<path d="M1900.8,867.5c0-2.4,0.4-4.2,1.3-5.1c0.9-1,2.2-1.5,4-1.5c0.9,0,1.6,0.1,2.1,0.3c0.6,0.2,1,0.5,1.4,0.8s0.6,0.7,0.8,1.1
		c0.2,0.4,0.4,0.8,0.5,1.3c0.2,1,0.4,2,0.4,3c0,2.3-0.4,4.1-1.2,5.1c-0.8,1-2.1,1.6-4.1,1.7c-1.1,0-2-0.2-2.6-0.5
		c-0.7-0.3-1.2-0.8-1.7-1.5c-0.3-0.5-0.6-1.1-0.7-1.9C1900.9,869.5,1900.8,868.5,1900.8,867.5z M1904.3,867.5c0,1.6,0.2,2.8,0.5,3.4
		c0.3,0.6,0.7,0.9,1.3,0.9c0.4,0,0.7-0.1,0.9-0.4c0.3-0.3,0.5-0.7,0.6-1.2c0.1-0.6,0.2-1.4,0.2-2.6c0-1.7-0.2-2.9-0.5-3.4
		c-0.3-0.6-0.7-0.9-1.3-0.9s-1,0.3-1.3,0.9C1904.5,864.7,1904.3,865.9,1904.3,867.5z"/>
	<path d="M1920.9,860.8l0.1,13.1h-3.6l-0.1-8.6c-0.6,0.4-1.1,0.8-1.7,1.1c-0.5,0.3-1.2,0.5-2.1,0.8v-2.9c1.2-0.4,2.2-0.9,2.8-1.4
		c0.7-0.6,1.2-1.2,1.6-2L1920.9,860.8z"/>
</g>
<g>
	<path d="M1738.1,717.9l-10.7,0.1c0.1-1.1,0.5-2.1,1.1-3s1.8-2,3.5-3.3c1-0.8,1.7-1.4,2-1.8c0.3-0.4,0.4-0.8,0.4-1.2s-0.1-0.7-0.4-1
		c-0.3-0.3-0.7-0.4-1.1-0.4c-0.5,0-0.8,0.1-1.1,0.4c-0.3,0.3-0.5,0.8-0.6,1.5l-3.6-0.3c0.1-1,0.4-1.8,0.8-2.4c0.4-0.6,0.9-1,1.6-1.3
		s1.6-0.5,2.8-0.5c1.3,0,2.2,0.1,2.9,0.4c0.7,0.3,1.3,0.7,1.7,1.3s0.6,1.3,0.6,2c0,0.8-0.2,1.5-0.7,2.3s-1.3,1.5-2.5,2.4
		c-0.7,0.5-1.2,0.9-1.4,1.1c-0.2,0.2-0.5,0.5-0.9,0.8h5.6L1738.1,717.9z"/>
	<path d="M1739.6,711.4c0-2.4,0.4-4.2,1.3-5.1c0.9-1,2.2-1.5,4-1.5c0.9,0,1.6,0.1,2.1,0.3c0.6,0.2,1,0.5,1.4,0.8s0.6,0.7,0.8,1.1
		c0.2,0.4,0.4,0.8,0.5,1.3c0.2,1,0.4,2,0.4,3c0,2.3-0.4,4.1-1.2,5.1c-0.8,1.1-2.1,1.6-4.1,1.7c-1.1,0-2-0.2-2.6-0.5
		c-0.7-0.3-1.2-0.8-1.7-1.5c-0.3-0.5-0.6-1.1-0.7-1.9C1739.7,713.4,1739.6,712.4,1739.6,711.4z M1743.1,711.3c0,1.6,0.2,2.8,0.5,3.4
		c0.3,0.6,0.7,0.9,1.3,0.9c0.4,0,0.7-0.1,0.9-0.4c0.3-0.3,0.5-0.7,0.6-1.2c0.1-0.6,0.2-1.4,0.2-2.6c0-1.7-0.2-2.9-0.5-3.4
		c-0.3-0.6-0.7-0.9-1.3-0.9s-1,0.3-1.3,0.9C1743.3,708.6,1743.1,709.7,1743.1,711.3z"/>
	<path d="M1751.6,711.3c0-2.4,0.4-4.2,1.3-5.1c0.9-1,2.2-1.5,4-1.5c0.9,0,1.6,0.1,2.1,0.3c0.6,0.2,1,0.5,1.4,0.8s0.6,0.7,0.8,1.1
		c0.2,0.4,0.4,0.8,0.5,1.3c0.2,1,0.4,2,0.4,3c0,2.3-0.4,4.1-1.2,5.1c-0.8,1-2.1,1.6-4.1,1.7c-1.1,0-2-0.2-2.6-0.5
		c-0.7-0.3-1.2-0.8-1.7-1.5c-0.3-0.5-0.6-1.1-0.7-1.9C1751.7,713.3,1751.6,712.3,1751.6,711.3z M1755.1,711.3c0,1.6,0.2,2.8,0.5,3.4
		c0.3,0.6,0.7,0.9,1.3,0.9c0.4,0,0.7-0.1,0.9-0.4c0.3-0.3,0.5-0.7,0.6-1.2c0.1-0.6,0.2-1.4,0.2-2.6c0-1.7-0.2-2.9-0.5-3.4
		c-0.3-0.6-0.7-0.9-1.3-0.9s-1,0.3-1.3,0.9C1755.3,708.5,1755.1,709.7,1755.1,711.3z"/>
	<path d="M1771.7,704.6l0.1,13.1h-3.6l-0.1-8.6c-0.6,0.4-1.1,0.8-1.7,1.1c-0.5,0.3-1.2,0.5-2.1,0.8v-2.9c1.2-0.4,2.2-0.9,2.8-1.4
		c0.7-0.6,1.2-1.2,1.6-2L1771.7,704.6z"/>
</g>
<g>
	<path d="M2173.8,878.9l-10.7,0.1c0.1-1.1,0.5-2.1,1.1-3c0.6-0.9,1.8-2,3.5-3.3c1-0.8,1.7-1.4,2-1.8c0.3-0.4,0.4-0.8,0.4-1.2
		s-0.1-0.7-0.4-1c-0.3-0.3-0.7-0.4-1.1-0.4c-0.5,0-0.8,0.1-1.1,0.4c-0.3,0.3-0.5,0.8-0.6,1.5l-3.6-0.3c0.1-1,0.4-1.8,0.8-2.4
		c0.4-0.6,0.9-1,1.6-1.3s1.6-0.5,2.8-0.5c1.3,0,2.2,0.1,2.9,0.4c0.7,0.3,1.3,0.7,1.7,1.3c0.4,0.6,0.6,1.3,0.6,2
		c0,0.8-0.2,1.5-0.7,2.3s-1.3,1.5-2.5,2.4c-0.7,0.5-1.2,0.9-1.4,1.1c-0.2,0.2-0.5,0.5-0.9,0.8h5.6V878.9z"/>
	<path d="M2175.3,872.4c0-2.4,0.4-4.2,1.3-5.1c0.9-1,2.2-1.5,4-1.5c0.9,0,1.6,0.1,2.1,0.3c0.6,0.2,1,0.5,1.4,0.8
		c0.4,0.3,0.6,0.7,0.8,1.1c0.2,0.4,0.4,0.8,0.5,1.3c0.2,1,0.4,2,0.4,3c0,2.3-0.4,4.1-1.2,5.1c-0.8,1.1-2.1,1.6-4.1,1.7
		c-1.1,0-2-0.2-2.6-0.5c-0.7-0.3-1.2-0.8-1.7-1.5c-0.3-0.5-0.6-1.1-0.7-1.9C2175.4,874.4,2175.3,873.4,2175.3,872.4z M2178.8,872.3
		c0,1.6,0.2,2.8,0.5,3.4c0.3,0.6,0.7,0.9,1.3,0.9c0.4,0,0.7-0.1,0.9-0.4c0.3-0.3,0.5-0.7,0.6-1.2c0.1-0.6,0.2-1.4,0.2-2.6
		c0-1.7-0.2-2.9-0.5-3.4c-0.3-0.6-0.7-0.9-1.3-0.9c-0.6,0-1,0.3-1.3,0.9C2179,869.6,2178.8,870.7,2178.8,872.3z"/>
	<path d="M2187.3,872.3c0-2.4,0.4-4.2,1.3-5.1c0.9-1,2.2-1.5,4-1.5c0.9,0,1.6,0.1,2.1,0.3c0.6,0.2,1,0.5,1.4,0.8
		c0.4,0.3,0.6,0.7,0.8,1.1c0.2,0.4,0.4,0.8,0.5,1.3c0.2,1,0.4,2,0.4,3c0,2.3-0.4,4.1-1.2,5.1s-2.1,1.6-4.1,1.7c-1.1,0-2-0.2-2.6-0.5
		c-0.7-0.3-1.2-0.8-1.7-1.5c-0.3-0.5-0.6-1.1-0.7-1.9C2187.4,874.3,2187.3,873.3,2187.3,872.3z M2190.8,872.3c0,1.6,0.2,2.8,0.5,3.4
		c0.3,0.6,0.7,0.9,1.3,0.9c0.4,0,0.7-0.1,0.9-0.4c0.3-0.3,0.5-0.7,0.6-1.2c0.1-0.6,0.2-1.4,0.2-2.6c0-1.7-0.2-2.9-0.5-3.4
		c-0.3-0.6-0.7-0.9-1.3-0.9c-0.6,0-1,0.3-1.3,0.9C2191,869.5,2190.8,870.7,2190.8,872.3z"/>
	<path d="M2207.4,865.6l0.1,13.1h-3.6l-0.1-8.6c-0.6,0.4-1.1,0.8-1.7,1.1c-0.5,0.3-1.2,0.5-2.1,0.8v-2.9c1.2-0.4,2.2-0.9,2.8-1.4
		c0.7-0.6,1.2-1.2,1.6-2L2207.4,865.6z"/>
</g>
<g>
	<path d="M2239.4,679.4L2238,690c-1.1-0.3-2-0.8-2.8-1.5c-0.8-0.7-1.7-2.1-2.8-3.9c-0.7-1.1-1.1-1.9-1.5-2.2s-0.7-0.5-1.1-0.6
		s-0.7,0-1,0.3c-0.3,0.3-0.5,0.6-0.6,1c-0.1,0.5,0,0.8,0.2,1.1c0.3,0.3,0.7,0.6,1.4,0.8l-0.8,3.5c-1-0.2-1.7-0.7-2.3-1.1
		c-0.5-0.5-0.9-1-1.1-1.8c-0.2-0.7-0.3-1.7-0.1-2.8c0.2-1.3,0.4-2.2,0.8-2.8c0.4-0.7,0.9-1.2,1.5-1.5c0.7-0.3,1.4-0.4,2.1-0.3
		c0.8,0.1,1.5,0.4,2.2,1s1.3,1.5,2,2.8c0.4,0.8,0.7,1.3,0.9,1.5s0.4,0.6,0.7,1l0.8-5.5L2239.4,679.4z"/>
	<path d="M2233.1,677c-2.4-0.3-4.1-1-4.9-2c-0.9-1-1.2-2.4-0.9-4.2c0.1-0.9,0.3-1.6,0.6-2c0.3-0.6,0.6-0.9,1-1.3
		c0.4-0.4,0.8-0.5,1.2-0.6c0.4-0.1,0.8-0.3,1.4-0.3c1-0.1,2-0.1,3,0c2.3,0.3,4,1,4.9,1.9c1,0.9,1.3,2.3,1.1,4.3
		c-0.2,1.1-0.5,2-0.9,2.5c-0.4,0.7-1,1.1-1.7,1.5c-0.5,0.2-1.2,0.4-2,0.4S2234.1,677.1,2233.1,677z M2233.5,673.5
		c1.6,0.2,2.8,0.2,3.4,0c0.6-0.2,1-0.6,1.1-1.2c0.1-0.4,0-0.7-0.3-0.9c-0.3-0.3-0.6-0.6-1.1-0.8c-0.6-0.2-1.4-0.4-2.5-0.6
		c-1.7-0.2-2.9-0.2-3.4,0c-0.6,0.2-1,0.6-1.1,1.2c-0.1,0.6,0.2,1,0.7,1.4C2230.9,672.9,2232,673.3,2233.5,673.5z"/>
	<path d="M2234.7,665.1c-2.4-0.3-4.1-1-4.9-2c-0.9-1-1.2-2.4-0.9-4.2c0.1-0.9,0.3-1.6,0.6-2c0.3-0.6,0.6-0.9,1-1.3s0.8-0.5,1.2-0.6
		s0.8-0.3,1.4-0.3c1-0.1,2-0.1,3,0c2.3,0.3,4,1,4.9,1.9c0.9,0.9,1.3,2.3,1.1,4.3c-0.2,1.1-0.5,2-0.9,2.5c-0.4,0.7-1,1.1-1.7,1.5
		c-0.5,0.2-1.2,0.4-2,0.4S2235.7,665.2,2234.7,665.1z M2235.2,661.6c1.6,0.2,2.8,0.2,3.4,0s1-0.6,1.1-1.2c0.1-0.4,0-0.7-0.3-0.9
		c-0.3-0.3-0.6-0.6-1.1-0.8c-0.6-0.2-1.4-0.4-2.5-0.6c-1.7-0.2-2.9-0.2-3.4,0c-0.6,0.2-1,0.6-1.1,1.2s0.2,1,0.7,1.4
		C2232.5,661,2233.7,661.4,2235.2,661.6z"/>
	<path d="M2231,644.2l13,1.8l-0.5,3.6l-8.5-1.1c0.3,0.7,0.6,1.2,0.8,1.8c0.2,0.5,0.3,1.3,0.5,2.2l-2.9-0.4c-0.2-1.2-0.6-2.3-1-3
		c-0.5-0.8-1-1.4-1.8-1.9L2231,644.2z"/>
</g>
<g>
	<path d="M2108.8,535.7l-10.6-1.3c0.2-1.1,0.8-2,1.5-2.8s2-1.8,3.9-2.8c1.1-0.7,1.9-1.2,2.2-1.5c0.3-0.4,0.5-0.7,0.6-1.1
		s0-0.7-0.3-1c-0.3-0.3-0.6-0.5-1-0.5c-0.5-0.1-0.8,0-1.1,0.3c-0.3,0.3-0.6,0.7-0.8,1.4l-3.5-0.8c0.2-1,0.6-1.7,1.1-2.3
		c0.5-0.5,1-0.9,1.8-1.1c0.7-0.2,1.7-0.3,2.8-0.1c1.3,0.2,2.2,0.4,2.8,0.8c0.7,0.4,1.2,0.9,1.5,1.5s0.4,1.4,0.3,2.1
		c-0.1,0.8-0.4,1.5-1,2.2s-1.5,1.3-2.8,2.1c-0.8,0.4-1.3,0.7-1.5,0.9c-0.2,0.2-0.6,0.4-1,0.7l5.6,0.7L2108.8,535.7z"/>
	<path d="M2111.2,529.4c0.3-2.4,0.9-4.1,1.9-4.9c1-0.9,2.4-1.2,4.2-1c0.9,0.1,1.6,0.3,2,0.6c0.6,0.3,0.9,0.6,1.3,1
		c0.4,0.3,0.5,0.8,0.7,1.2c0.1,0.4,0.3,0.8,0.3,1.4c0.1,1,0.1,2,0,3c-0.3,2.3-0.9,4-1.8,4.9c-0.9,1-2.3,1.3-4.3,1.2
		c-1.1-0.1-2-0.5-2.5-0.8c-0.7-0.4-1.1-0.9-1.5-1.7c-0.2-0.5-0.5-1.2-0.5-2C2111,531.4,2111,530.4,2111.2,529.4z M2114.6,529.8
		c-0.2,1.6-0.2,2.8,0.1,3.4c0.2,0.6,0.6,1,1.2,1.1c0.4,0.1,0.7,0,0.9-0.3c0.3-0.3,0.6-0.6,0.7-1.1c0.2-0.6,0.4-1.4,0.5-2.6
		c0.2-1.7,0.2-2.9-0.1-3.4c-0.2-0.6-0.6-1-1.2-1.1c-0.6-0.1-1,0.2-1.4,0.7C2115.2,527.1,2114.8,528.2,2114.6,529.8z"/>
	<path d="M2123.1,530.9c0.3-2.4,0.9-4.1,1.9-4.9c1-0.9,2.4-1.2,4.2-1c0.9,0.1,1.6,0.3,2,0.6c0.6,0.3,0.9,0.6,1.3,1
		c0.4,0.3,0.5,0.8,0.7,1.2c0.1,0.4,0.3,0.8,0.3,1.4c0.1,1,0.1,2,0,3c-0.3,2.3-0.9,4-1.8,4.9c-0.9,0.9-2.3,1.3-4.3,1.2
		c-1.1-0.1-2-0.5-2.5-0.8c-0.7-0.4-1.1-0.9-1.5-1.7c-0.2-0.5-0.5-1.2-0.5-2C2122.9,532.9,2122.9,531.8,2123.1,530.9z M2126.5,531.3
		c-0.2,1.6-0.2,2.8,0.1,3.4c0.2,0.6,0.6,1,1.2,1.1c0.4,0.1,0.7,0,0.9-0.3c0.3-0.3,0.6-0.6,0.7-1.1c0.2-0.6,0.4-1.4,0.5-2.6
		c0.2-1.7,0.2-2.9-0.1-3.4c-0.2-0.6-0.6-1-1.2-1.1s-1,0.2-1.4,0.7C2127.1,528.6,2126.7,529.7,2126.5,531.3z"/>
	<path d="M2143.9,526.8l-1.6,13l-3.6-0.5l1-8.5c-0.6,0.3-1.2,0.7-1.8,0.9c-0.5,0.2-1.3,0.3-2.2,0.5l0.4-2.9c1.2-0.2,2.3-0.6,3-1
		c0.8-0.5,1.3-1,1.8-1.8L2143.9,526.8z"/>
</g>
<g>
	<path d="M2100.7,594.8l-10.6-1.3c0.2-1.1,0.8-2,1.5-2.8c0.7-0.8,2-1.8,3.9-2.8c1.1-0.7,1.9-1.2,2.2-1.5c0.3-0.4,0.5-0.7,0.6-1.1
		s0-0.7-0.3-1c-0.3-0.3-0.6-0.5-1-0.5c-0.5-0.1-0.8,0-1.1,0.3s-0.6,0.7-0.8,1.4l-3.5-0.8c0.2-1,0.6-1.7,1.1-2.3
		c0.5-0.5,1-0.9,1.8-1.1c0.7-0.2,1.7-0.3,2.8-0.1c1.3,0.2,2.2,0.4,2.8,0.8c0.7,0.4,1.2,0.9,1.5,1.5c0.3,0.6,0.4,1.4,0.3,2.1
		c-0.1,0.8-0.4,1.5-1,2.2s-1.5,1.3-2.8,2.1c-0.8,0.4-1.3,0.7-1.5,0.9c-0.2,0.2-0.6,0.4-1,0.7l5.6,0.7L2100.7,594.8z"/>
	<path d="M2103,588.6c0.3-2.4,0.9-4.1,1.9-4.9c1-0.9,2.4-1.2,4.2-1c0.9,0.1,1.6,0.3,2,0.6c0.6,0.3,0.9,0.6,1.3,1
		c0.4,0.3,0.5,0.8,0.7,1.2c0.1,0.4,0.3,0.8,0.3,1.4c0.1,1,0.1,2,0,3c-0.3,2.3-0.9,4-1.8,4.9c-0.9,1-2.3,1.3-4.3,1.2
		c-1.1-0.1-2-0.5-2.5-0.8c-0.7-0.4-1.1-0.9-1.5-1.7c-0.2-0.5-0.5-1.2-0.5-2C2102.8,590.6,2102.9,589.6,2103,588.6z M2106.5,588.9
		c-0.2,1.6-0.2,2.8,0.1,3.4c0.2,0.6,0.6,1,1.2,1.1c0.4,0.1,0.7,0,0.9-0.3c0.3-0.3,0.6-0.6,0.7-1.1c0.2-0.6,0.4-1.4,0.5-2.6
		c0.2-1.7,0.2-2.9-0.1-3.4c-0.2-0.6-0.6-1-1.2-1.1s-1,0.2-1.4,0.7C2107,586.3,2106.7,587.3,2106.5,588.9z"/>
	<path d="M2114.9,590c0.3-2.4,0.9-4.1,1.9-4.9c1-0.9,2.4-1.2,4.2-1c0.9,0.1,1.6,0.3,2,0.6c0.6,0.3,0.9,0.6,1.3,1
		c0.4,0.3,0.5,0.8,0.7,1.2c0.1,0.4,0.3,0.8,0.3,1.4c0.1,1,0.1,2,0,3c-0.3,2.3-0.9,4-1.8,4.9c-0.9,0.9-2.3,1.3-4.3,1.2
		c-1.1-0.1-2-0.5-2.5-0.8c-0.7-0.4-1.1-0.9-1.5-1.7c-0.2-0.5-0.5-1.2-0.5-2C2114.7,592,2114.8,591,2114.9,590z M2118.4,590.5
		c-0.2,1.6-0.2,2.8,0.1,3.4c0.2,0.6,0.6,1,1.2,1.1c0.4,0.1,0.7,0,0.9-0.3c0.3-0.3,0.6-0.6,0.7-1.1c0.2-0.6,0.4-1.4,0.5-2.6
		c0.2-1.7,0.2-2.9-0.1-3.4c-0.2-0.6-0.6-1-1.2-1.1c-0.6-0.1-1,0.2-1.4,0.7C2118.9,587.7,2118.6,588.9,2118.4,590.5z"/>
	<path d="M2135.7,586l-1.6,13l-3.6-0.5l1-8.5c-0.6,0.3-1.2,0.7-1.8,0.9c-0.5,0.2-1.3,0.3-2.2,0.5l0.4-2.9c1.2-0.2,2.3-0.6,3-1
		c0.8-0.5,1.3-1,1.8-1.8L2135.7,586z"/>
</g>
<g>
	<path d="M2121.4,445.3l-10.6-1.3c0.2-1.1,0.8-2,1.5-2.8c0.7-0.8,2-1.8,3.9-2.8c1.1-0.7,1.9-1.2,2.2-1.5c0.3-0.4,0.5-0.7,0.6-1.1
		s0-0.7-0.3-1c-0.3-0.3-0.6-0.5-1-0.5c-0.5-0.1-0.8,0-1.1,0.3c-0.3,0.3-0.6,0.7-0.8,1.4l-3.5-0.8c0.2-1,0.6-1.7,1.1-2.3
		c0.5-0.5,1-0.9,1.8-1.1c0.7-0.2,1.7-0.3,2.8-0.1c1.3,0.2,2.2,0.4,2.8,0.8c0.7,0.4,1.2,0.9,1.5,1.5s0.4,1.4,0.3,2.1
		c-0.1,0.8-0.4,1.5-1,2.2c-0.6,0.7-1.5,1.3-2.8,2.1c-0.8,0.4-1.3,0.7-1.5,0.9c-0.2,0.2-0.6,0.4-1,0.7l5.6,0.7L2121.4,445.3z"/>
	<path d="M2123.7,439.1c0.3-2.4,0.9-4.1,1.9-4.9c1-0.9,2.4-1.2,4.2-1c0.9,0.1,1.6,0.3,2,0.6c0.6,0.3,0.9,0.6,1.3,1
		c0.4,0.3,0.5,0.8,0.7,1.2c0.1,0.4,0.3,0.8,0.3,1.4c0.1,1,0.1,2,0,3c-0.3,2.3-0.9,4-1.8,4.9c-0.9,1-2.3,1.3-4.3,1.2
		c-1.1-0.1-2-0.5-2.5-0.8c-0.7-0.4-1.1-0.9-1.5-1.7c-0.2-0.5-0.5-1.2-0.5-2C2123.5,441.1,2123.6,440.1,2123.7,439.1z M2127.2,439.4
		c-0.2,1.6-0.2,2.8,0.1,3.4c0.2,0.6,0.6,1,1.2,1.1c0.4,0.1,0.7,0,0.9-0.3c0.3-0.3,0.6-0.6,0.7-1.1c0.2-0.6,0.4-1.4,0.5-2.6
		c0.2-1.7,0.2-2.9-0.1-3.4c-0.2-0.6-0.6-1-1.2-1.1c-0.6-0.1-1,0.2-1.4,0.7C2127.7,436.8,2127.4,437.8,2127.2,439.4z"/>
	<path d="M2135.6,440.5c0.3-2.4,0.9-4.1,1.9-4.9c1-0.9,2.4-1.2,4.2-1c0.9,0.1,1.6,0.3,2,0.6c0.6,0.3,0.9,0.6,1.3,1
		c0.4,0.3,0.5,0.8,0.7,1.2c0.1,0.4,0.3,0.8,0.3,1.4c0.1,1,0.1,2,0,3c-0.3,2.3-0.9,4-1.8,4.9c-0.9,0.9-2.3,1.3-4.3,1.2
		c-1.1-0.1-2-0.5-2.5-0.8c-0.7-0.4-1.1-0.9-1.5-1.7c-0.2-0.5-0.5-1.2-0.5-2S2135.5,441.5,2135.6,440.5z M2139.1,441
		c-0.2,1.6-0.2,2.8,0.1,3.4c0.2,0.6,0.6,1,1.2,1.1c0.4,0.1,0.7,0,0.9-0.3c0.3-0.3,0.6-0.6,0.7-1.1c0.2-0.6,0.4-1.4,0.5-2.6
		c0.2-1.7,0.2-2.9-0.1-3.4c-0.2-0.6-0.6-1-1.2-1.1c-0.6-0.1-1,0.2-1.4,0.7C2139.6,438.2,2139.3,439.4,2139.1,441z"/>
	<path d="M2156.4,436.4l-1.6,13l-3.6-0.5l1-8.5c-0.6,0.3-1.2,0.7-1.8,0.9c-0.5,0.2-1.3,0.3-2.2,0.5l0.4-2.9c1.2-0.2,2.3-0.6,3-1
		c0.8-0.5,1.3-1,1.8-1.8L2156.4,436.4z"/>
</g>
<g>
	<path d="M2263.2,527.6l-1.4,10.6c-1.1-0.3-2-0.8-2.8-1.5c-0.8-0.7-1.7-2.1-2.8-3.9c-0.7-1.1-1.1-1.9-1.5-2.2s-0.7-0.5-1.1-0.6
		c-0.4-0.1-0.7,0-1,0.3c-0.3,0.3-0.5,0.6-0.6,1c-0.1,0.5,0,0.8,0.2,1.1s0.7,0.6,1.4,0.8l-0.8,3.5c-1-0.2-1.7-0.7-2.3-1.1
		c-0.5-0.5-0.9-1-1.1-1.8c-0.2-0.7-0.3-1.7-0.1-2.8c0.2-1.3,0.4-2.2,0.8-2.8s0.9-1.2,1.5-1.5c0.7-0.3,1.4-0.4,2.1-0.3
		c0.8,0.1,1.5,0.4,2.2,1c0.7,0.6,1.3,1.5,2,2.8c0.4,0.8,0.7,1.3,0.9,1.5c0.2,0.2,0.4,0.6,0.7,1l0.8-5.5L2263.2,527.6z"/>
	<path d="M2257,525.2c-2.4-0.3-4.1-1-4.9-2c-0.9-1-1.2-2.4-0.9-4.2c0.1-0.9,0.3-1.6,0.6-2c0.3-0.6,0.6-0.9,1-1.3s0.8-0.5,1.2-0.6
		c0.4-0.1,0.8-0.3,1.4-0.3c1-0.1,2-0.1,3,0c2.3,0.3,4,1,4.9,1.9c1,0.9,1.3,2.3,1.1,4.3c-0.2,1.1-0.5,2-0.9,2.5
		c-0.4,0.7-1,1.1-1.7,1.5c-0.5,0.2-1.2,0.4-2,0.4S2257.9,525.3,2257,525.2z M2257.3,521.7c1.6,0.2,2.8,0.2,3.4,0
		c0.6-0.2,1-0.6,1.1-1.2c0.1-0.4,0-0.7-0.3-0.9c-0.3-0.3-0.6-0.6-1.1-0.8c-0.6-0.2-1.4-0.4-2.5-0.6c-1.7-0.2-2.9-0.2-3.4,0
		c-0.6,0.2-1,0.6-1.1,1.2c-0.1,0.6,0.2,1,0.7,1.4C2254.7,521.1,2255.8,521.5,2257.3,521.7z"/>
	<path d="M2258.5,513.3c-2.4-0.3-4.1-1-4.9-2c-0.9-1-1.2-2.4-0.9-4.2c0.1-0.9,0.3-1.6,0.6-2c0.3-0.6,0.6-0.9,1-1.3
		c0.4-0.4,0.8-0.5,1.2-0.6c0.4-0.1,0.8-0.3,1.4-0.3c1-0.1,2-0.1,3,0c2.3,0.3,4,1,4.9,1.9c0.9,0.9,1.3,2.3,1.1,4.3
		c-0.2,1.1-0.5,2-0.9,2.5c-0.4,0.7-1,1.1-1.7,1.5c-0.5,0.2-1.2,0.4-2,0.4S2259.5,513.4,2258.5,513.3z M2259,509.8
		c1.6,0.2,2.8,0.2,3.4,0c0.6-0.2,1-0.6,1.1-1.2c0.1-0.4,0-0.7-0.3-0.9c-0.3-0.3-0.6-0.6-1.1-0.8c-0.6-0.2-1.4-0.4-2.5-0.6
		c-1.7-0.2-2.9-0.2-3.4,0c-0.6,0.2-1,0.6-1.1,1.2c-0.1,0.6,0.2,1,0.7,1.4C2256.3,509.2,2257.5,509.6,2259,509.8z"/>
	<path d="M2254.8,492.4l13,1.8l-0.5,3.6l-8.5-1.1c0.3,0.7,0.6,1.2,0.8,1.8c0.2,0.5,0.3,1.3,0.5,2.2l-2.9-0.4c-0.2-1.2-0.6-2.3-1-3
		c-0.5-0.8-1-1.4-1.8-1.9L2254.8,492.4z"/>
</g>
<g>
	<path d="M2210.3,199.8l-10.6-1.3c0.2-1.1,0.8-2,1.5-2.8s2.1-1.7,3.9-2.8c1.1-0.7,1.9-1.2,2.2-1.5c0.4-0.4,0.5-0.7,0.6-1.1
		c0.1-0.4,0-0.7-0.3-1c-0.3-0.3-0.6-0.5-1-0.5c-0.5-0.1-0.8,0-1.1,0.2c-0.3,0.3-0.6,0.7-0.8,1.4l-3.5-0.8c0.2-1,0.6-1.7,1.1-2.3
		c0.5-0.5,1-0.9,1.8-1.1c0.7-0.2,1.7-0.3,2.8-0.1c1.3,0.2,2.2,0.4,2.8,0.8c0.7,0.4,1.2,0.9,1.5,1.5c0.3,0.6,0.4,1.4,0.3,2.1
		c-0.1,0.8-0.4,1.5-1,2.2c-0.6,0.7-1.5,1.3-2.8,2c-0.8,0.4-1.3,0.7-1.5,0.9c-0.2,0.2-0.6,0.4-1,0.7l5.5,0.7L2210.3,199.8z"/>
	<path d="M2212.7,193.5c0.3-2.4,1-4.1,2-4.9c1-0.9,2.4-1.2,4.2-1c0.9,0.1,1.6,0.3,2,0.6c0.6,0.3,0.9,0.6,1.3,1
		c0.4,0.4,0.5,0.8,0.6,1.2c0.1,0.4,0.3,0.8,0.3,1.4c0.1,1,0.1,2,0,3c-0.3,2.3-0.9,4-1.9,4.9c-0.9,1-2.3,1.3-4.3,1.1
		c-1.1-0.1-2-0.5-2.5-0.8c-0.7-0.4-1.1-1-1.5-1.7c-0.2-0.5-0.4-1.2-0.4-2S2212.5,194.5,2212.7,193.5z M2216.2,193.9
		c-0.2,1.6-0.2,2.8,0,3.4c0.2,0.6,0.6,1,1.2,1.1c0.4,0.1,0.7,0,0.9-0.3c0.3-0.3,0.6-0.6,0.8-1.1c0.2-0.6,0.4-1.4,0.5-2.5
		c0.2-1.7,0.2-2.9,0-3.4c-0.2-0.6-0.6-1-1.2-1.1c-0.6-0.1-1,0.2-1.4,0.7C2216.7,191.3,2216.4,192.3,2216.2,193.9z"/>
	<path d="M2224.6,195.1c0.3-2.4,1-4.1,2-4.9c1-0.9,2.4-1.2,4.2-1c0.9,0.1,1.6,0.3,2,0.6c0.6,0.3,0.9,0.6,1.3,1
		c0.4,0.4,0.5,0.8,0.6,1.2c0.1,0.4,0.3,0.8,0.3,1.4c0.1,1,0.1,2,0,3c-0.3,2.3-0.9,4-1.9,4.9c-0.9,0.9-2.3,1.3-4.3,1.1
		c-1.1-0.1-2-0.5-2.5-0.8c-0.7-0.4-1.1-1-1.5-1.7c-0.2-0.5-0.4-1.2-0.4-2S2224.5,196,2224.6,195.1z M2228.1,195.5
		c-0.2,1.6-0.2,2.8,0,3.4c0.2,0.6,0.6,1,1.2,1.1c0.4,0.1,0.7,0,0.9-0.3c0.3-0.3,0.6-0.6,0.8-1.1c0.2-0.6,0.4-1.4,0.5-2.5
		c0.2-1.7,0.2-2.9,0-3.4c-0.2-0.6-0.6-1-1.2-1.1c-0.6-0.1-1,0.2-1.4,0.7C2228.6,192.8,2228.3,193.9,2228.1,195.5z"/>
	<path d="M2245.4,191.1l-1.7,13l-3.6-0.5l1.1-8.5c-0.6,0.3-1.2,0.6-1.8,0.9c-0.5,0.2-1.3,0.3-2.2,0.5l0.4-2.9c1.2-0.2,2.3-0.6,3-1
		c0.8-0.5,1.3-1,1.9-1.8L2245.4,191.1z"/>
</g>
<g>
	<path d="M1832.3,727.3l0.1,10.7c-1.1-0.1-2.1-0.5-3-1.1s-2-1.8-3.3-3.5c-0.8-1-1.4-1.7-1.8-2c-0.4-0.3-0.8-0.4-1.2-0.4
		s-0.7,0.1-1,0.4c-0.3,0.3-0.4,0.7-0.4,1.1c0,0.5,0.1,0.8,0.4,1.1c0.3,0.3,0.8,0.5,1.5,0.6l-0.3,3.6c-1-0.1-1.8-0.4-2.4-0.8
		c-0.6-0.4-1-0.9-1.3-1.6c-0.3-0.7-0.5-1.6-0.5-2.8c0-1.3,0.1-2.2,0.4-2.9c0.3-0.7,0.7-1.3,1.3-1.7s1.3-0.6,2-0.6
		c0.8,0,1.5,0.2,2.3,0.7c0.8,0.5,1.5,1.3,2.4,2.5c0.5,0.7,0.9,1.2,1.1,1.4s0.5,0.5,0.8,0.9v-5.6L1832.3,727.3z"/>
	<path d="M1825.8,725.8c-2.4,0-4.2-0.4-5.1-1.3c-1-0.9-1.5-2.2-1.5-4c0-0.9,0.1-1.6,0.3-2.1c0.2-0.6,0.5-1,0.8-1.4
		c0.3-0.4,0.7-0.6,1.1-0.8s0.8-0.4,1.3-0.5c1-0.2,2-0.4,3-0.4c2.3,0,4.1,0.4,5.1,1.2c1.1,0.8,1.6,2.1,1.7,4.1c0,1.1-0.2,2-0.5,2.6
		c-0.3,0.7-0.8,1.2-1.5,1.7c-0.5,0.3-1.1,0.6-1.9,0.7C1827.8,725.7,1826.8,725.8,1825.8,725.8z M1825.7,722.3c1.6,0,2.8-0.2,3.4-0.5
		c0.6-0.3,0.9-0.7,0.9-1.3c0-0.4-0.1-0.7-0.4-0.9c-0.3-0.3-0.7-0.5-1.2-0.6c-0.6-0.1-1.4-0.2-2.6-0.2c-1.7,0-2.9,0.2-3.4,0.5
		c-0.6,0.3-0.9,0.7-0.9,1.3s0.3,1,0.9,1.3C1823,722.1,1824.1,722.3,1825.7,722.3z"/>
	<path d="M1825.7,713.8c-2.4,0-4.2-0.4-5.1-1.3c-1-0.9-1.5-2.2-1.5-4c0-0.9,0.1-1.6,0.3-2.1c0.2-0.6,0.5-1,0.8-1.4
		c0.3-0.4,0.7-0.6,1.1-0.8s0.8-0.4,1.3-0.5c1-0.2,2-0.4,3-0.4c2.3,0,4.1,0.4,5.1,1.2s1.6,2.1,1.7,4.1c0,1.1-0.2,2-0.5,2.6
		c-0.3,0.7-0.8,1.2-1.5,1.7c-0.5,0.3-1.1,0.6-1.9,0.7S1826.7,713.8,1825.7,713.8z M1825.7,710.3c1.6,0,2.8-0.2,3.4-0.5
		c0.6-0.3,0.9-0.7,0.9-1.3c0-0.4-0.1-0.7-0.4-0.9c-0.3-0.3-0.7-0.5-1.2-0.6c-0.6-0.1-1.4-0.2-2.6-0.2c-1.7,0-2.9,0.2-3.4,0.5
		c-0.6,0.3-0.9,0.7-0.9,1.3s0.3,1,0.9,1.3C1822.9,710.1,1824.1,710.3,1825.7,710.3z"/>
	<path d="M1819,693.7l13.1-0.1v3.6l-8.6,0.1c0.4,0.6,0.8,1.1,1.1,1.7c0.3,0.5,0.5,1.2,0.8,2.1h-2.9c-0.4-1.2-0.9-2.2-1.4-2.8
		c-0.6-0.7-1.2-1.2-2-1.6L1819,693.7z"/>
</g>
<g>
	<path d="M1878.6,725.3l0.1,10.7c-1.1-0.1-2.1-0.5-3-1.1s-2-1.8-3.3-3.5c-0.8-1-1.4-1.7-1.8-2c-0.4-0.3-0.8-0.4-1.2-0.4
		s-0.7,0.1-1,0.4c-0.3,0.3-0.4,0.7-0.4,1.1c0,0.5,0.1,0.8,0.4,1.1s0.8,0.5,1.5,0.6l-0.3,3.6c-1-0.1-1.8-0.4-2.4-0.8
		c-0.6-0.4-1-0.9-1.3-1.6c-0.3-0.7-0.5-1.6-0.5-2.8c0-1.3,0.1-2.2,0.4-2.9s0.7-1.3,1.3-1.7s1.3-0.6,2-0.6c0.8,0,1.5,0.2,2.3,0.7
		c0.8,0.5,1.5,1.3,2.4,2.5c0.5,0.7,0.9,1.2,1.1,1.4c0.2,0.2,0.5,0.5,0.8,0.9v-5.6L1878.6,725.3z"/>
	<path d="M1872.1,723.8c-2.4,0-4.2-0.4-5.1-1.3c-1-0.9-1.5-2.2-1.5-4c0-0.9,0.1-1.6,0.3-2.1c0.2-0.6,0.5-1,0.8-1.4
		c0.3-0.4,0.7-0.6,1.1-0.8s0.8-0.4,1.3-0.5c1-0.2,2-0.4,3-0.4c2.3,0,4.1,0.4,5.1,1.2c1.1,0.8,1.6,2.1,1.7,4.1c0,1.1-0.2,2-0.5,2.6
		c-0.3,0.7-0.8,1.2-1.5,1.7c-0.5,0.3-1.1,0.6-1.9,0.7S1873.1,723.8,1872.1,723.8z M1872,720.3c1.6,0,2.8-0.2,3.4-0.5
		c0.6-0.3,0.9-0.7,0.9-1.3c0-0.4-0.1-0.7-0.4-0.9c-0.3-0.3-0.7-0.5-1.2-0.6c-0.6-0.1-1.4-0.2-2.6-0.2c-1.7,0-2.9,0.2-3.4,0.5
		c-0.6,0.3-0.9,0.7-0.9,1.3s0.3,1,0.9,1.3C1869.3,720.1,1870.4,720.3,1872,720.3z"/>
	<path d="M1872,711.8c-2.4,0-4.2-0.4-5.1-1.3c-1-0.9-1.5-2.2-1.5-4c0-0.9,0.1-1.6,0.3-2.1c0.2-0.6,0.5-1,0.8-1.4
		c0.3-0.4,0.7-0.6,1.1-0.8c0.4-0.2,0.8-0.4,1.3-0.5c1-0.2,2-0.4,3-0.4c2.3,0,4.1,0.4,5.1,1.2s1.6,2.1,1.7,4.1c0,1.1-0.2,2-0.5,2.6
		c-0.3,0.7-0.8,1.2-1.5,1.7c-0.5,0.3-1.1,0.6-1.9,0.7S1873,711.8,1872,711.8z M1872,708.3c1.6,0,2.8-0.2,3.4-0.5s0.9-0.7,0.9-1.3
		c0-0.4-0.1-0.7-0.4-0.9c-0.3-0.3-0.7-0.5-1.2-0.6c-0.6-0.1-1.4-0.2-2.6-0.2c-1.7,0-2.9,0.2-3.4,0.5c-0.6,0.3-0.9,0.7-0.9,1.3
		s0.3,1,0.9,1.3C1869.2,708.1,1870.4,708.3,1872,708.3z"/>
	<path d="M1865.3,691.7l13.1-0.1v3.6l-8.6,0.1c0.4,0.6,0.8,1.1,1.1,1.7c0.3,0.5,0.5,1.2,0.8,2.1h-2.9c-0.4-1.2-0.9-2.2-1.4-2.8
		c-0.6-0.7-1.2-1.2-2-1.6L1865.3,691.7z"/>
</g>
<g>
	<path d="M1926.1,725.3l0.1,10.7c-1.1-0.1-2.1-0.5-3-1.1s-2-1.8-3.3-3.5c-0.8-1-1.4-1.7-1.8-2c-0.4-0.3-0.8-0.4-1.2-0.4
		s-0.7,0.1-1,0.4c-0.3,0.3-0.4,0.7-0.4,1.1c0,0.5,0.1,0.8,0.4,1.1s0.8,0.5,1.5,0.6l-0.3,3.6c-1-0.1-1.8-0.4-2.4-0.8
		c-0.6-0.4-1-0.9-1.3-1.6c-0.3-0.7-0.5-1.6-0.5-2.8c0-1.3,0.1-2.2,0.4-2.9s0.7-1.3,1.3-1.7s1.3-0.6,2-0.6c0.8,0,1.5,0.2,2.3,0.7
		c0.8,0.5,1.5,1.3,2.4,2.5c0.5,0.7,0.9,1.2,1.1,1.4c0.2,0.2,0.5,0.5,0.8,0.9v-5.6L1926.1,725.3z"/>
	<path d="M1919.6,723.8c-2.4,0-4.2-0.4-5.1-1.3c-1-0.9-1.5-2.2-1.5-4c0-0.9,0.1-1.6,0.3-2.1c0.2-0.6,0.5-1,0.8-1.4
		c0.3-0.4,0.7-0.6,1.1-0.8s0.8-0.4,1.3-0.5c1-0.2,2-0.4,3-0.4c2.3,0,4.1,0.4,5.1,1.2c1.1,0.8,1.6,2.1,1.7,4.1c0,1.1-0.2,2-0.5,2.6
		c-0.3,0.7-0.8,1.2-1.5,1.7c-0.5,0.3-1.1,0.6-1.9,0.7S1920.6,723.8,1919.6,723.8z M1919.5,720.3c1.6,0,2.8-0.2,3.4-0.5
		c0.6-0.3,0.9-0.7,0.9-1.3c0-0.4-0.1-0.7-0.4-0.9c-0.3-0.3-0.7-0.5-1.2-0.6c-0.6-0.1-1.4-0.2-2.6-0.2c-1.7,0-2.9,0.2-3.4,0.5
		c-0.6,0.3-0.9,0.7-0.9,1.3s0.3,1,0.9,1.3C1916.8,720.1,1917.9,720.3,1919.5,720.3z"/>
	<path d="M1919.5,711.8c-2.4,0-4.2-0.4-5.1-1.3c-1-0.9-1.5-2.2-1.5-4c0-0.9,0.1-1.6,0.3-2.1c0.2-0.6,0.5-1,0.8-1.4
		c0.3-0.4,0.7-0.6,1.1-0.8s0.8-0.4,1.3-0.5c1-0.2,2-0.4,3-0.4c2.3,0,4.1,0.4,5.1,1.2s1.6,2.1,1.7,4.1c0,1.1-0.2,2-0.5,2.6
		c-0.3,0.7-0.8,1.2-1.5,1.7c-0.5,0.3-1.1,0.6-1.9,0.7S1920.5,711.8,1919.5,711.8z M1919.5,708.3c1.6,0,2.8-0.2,3.4-0.5
		c0.6-0.3,0.9-0.7,0.9-1.3c0-0.4-0.1-0.7-0.4-0.9c-0.3-0.3-0.7-0.5-1.2-0.6c-0.6-0.1-1.4-0.2-2.6-0.2c-1.7,0-2.9,0.2-3.4,0.5
		c-0.6,0.3-0.9,0.7-0.9,1.3s0.3,1,0.9,1.3C1916.7,708.1,1917.9,708.3,1919.5,708.3z"/>
	<path d="M1912.8,691.7l13.1-0.1l0,3.6l-8.6,0.1c0.4,0.6,0.8,1.1,1.1,1.7c0.3,0.5,0.5,1.2,0.8,2.1h-2.9c-0.4-1.2-0.9-2.2-1.4-2.8
		c-0.6-0.7-1.2-1.2-2-1.6L1912.8,691.7z"/>
</g>
<g>
	<path d="M1974.6,723.3l0.1,10.7c-1.1-0.1-2.1-0.5-3-1.1s-2-1.8-3.3-3.5c-0.8-1-1.4-1.7-1.8-2c-0.4-0.3-0.8-0.4-1.2-0.4
		s-0.7,0.1-1,0.4c-0.3,0.3-0.4,0.7-0.4,1.1c0,0.5,0.1,0.8,0.4,1.1s0.8,0.5,1.5,0.6l-0.3,3.6c-1-0.1-1.8-0.4-2.4-0.8
		c-0.6-0.4-1-0.9-1.3-1.6c-0.3-0.7-0.5-1.6-0.5-2.8c0-1.3,0.1-2.2,0.4-2.9s0.7-1.3,1.3-1.7s1.3-0.6,2-0.6c0.8,0,1.5,0.2,2.3,0.7
		c0.8,0.5,1.5,1.3,2.4,2.5c0.5,0.7,0.9,1.2,1.1,1.4c0.2,0.2,0.5,0.5,0.8,0.9v-5.6L1974.6,723.3z"/>
	<path d="M1968.1,721.8c-2.4,0-4.2-0.4-5.1-1.3c-1-0.9-1.5-2.2-1.5-4c0-0.9,0.1-1.6,0.3-2.1c0.2-0.6,0.5-1,0.8-1.4
		c0.3-0.4,0.7-0.6,1.1-0.8s0.8-0.4,1.3-0.5c1-0.2,2-0.4,3-0.4c2.3,0,4.1,0.4,5.1,1.2c1.1,0.8,1.6,2.1,1.7,4.1c0,1.1-0.2,2-0.5,2.6
		c-0.3,0.7-0.8,1.2-1.5,1.7c-0.5,0.3-1.1,0.6-1.9,0.7S1969.1,721.8,1968.1,721.8z M1968,718.3c1.6,0,2.8-0.2,3.4-0.5
		c0.6-0.3,0.9-0.7,0.9-1.3c0-0.4-0.1-0.7-0.4-0.9c-0.3-0.3-0.7-0.5-1.2-0.6c-0.6-0.1-1.4-0.2-2.6-0.2c-1.7,0-2.9,0.2-3.4,0.5
		c-0.6,0.3-0.9,0.7-0.9,1.3s0.3,1,0.9,1.3C1965.3,718.1,1966.4,718.3,1968,718.3z"/>
	<path d="M1968,709.8c-2.4,0-4.2-0.4-5.1-1.3c-1-0.9-1.5-2.2-1.5-4c0-0.9,0.1-1.6,0.3-2.1c0.2-0.6,0.5-1,0.8-1.4
		c0.3-0.4,0.7-0.6,1.1-0.8s0.8-0.4,1.3-0.5c1-0.2,2-0.4,3-0.4c2.3,0,4.1,0.4,5.1,1.2s1.6,2.1,1.7,4.1c0,1.1-0.2,2-0.5,2.6
		c-0.3,0.7-0.8,1.2-1.5,1.7c-0.5,0.3-1.1,0.6-1.9,0.7S1969,709.8,1968,709.8z M1968,706.3c1.6,0,2.8-0.2,3.4-0.5
		c0.6-0.3,0.9-0.7,0.9-1.3c0-0.4-0.1-0.7-0.4-0.9c-0.3-0.3-0.7-0.5-1.2-0.6c-0.6-0.1-1.4-0.2-2.6-0.2c-1.7,0-2.9,0.2-3.4,0.5
		c-0.6,0.3-0.9,0.7-0.9,1.3s0.3,1,0.9,1.3C1965.2,706.1,1966.4,706.3,1968,706.3z"/>
	<path d="M1961.3,689.7l13.1-0.1v3.6l-8.6,0.1c0.4,0.6,0.8,1.1,1.1,1.7c0.3,0.5,0.5,1.2,0.8,2.1h-2.9c-0.4-1.2-0.9-2.2-1.4-2.8
		c-0.6-0.7-1.2-1.2-2-1.6L1961.3,689.7z"/>
</g>
<g>
	<path d="M2025.8,883.7l0.1,10.7c-1.1-0.1-2.1-0.5-3-1.1s-2-1.8-3.3-3.5c-0.8-1-1.4-1.7-1.8-2c-0.4-0.3-0.8-0.4-1.2-0.4
		s-0.7,0.1-1,0.4c-0.3,0.3-0.4,0.7-0.4,1.1c0,0.5,0.1,0.8,0.4,1.1c0.3,0.3,0.8,0.5,1.5,0.6l-0.3,3.6c-1-0.1-1.8-0.4-2.4-0.8
		c-0.6-0.4-1-0.9-1.3-1.6c-0.3-0.7-0.5-1.6-0.5-2.8c0-1.3,0.1-2.2,0.4-2.9c0.3-0.7,0.7-1.3,1.3-1.7s1.3-0.6,2-0.6
		c0.8,0,1.5,0.2,2.3,0.7c0.8,0.5,1.5,1.3,2.4,2.5c0.5,0.7,0.9,1.2,1.1,1.4s0.5,0.5,0.8,0.9v-5.6L2025.8,883.7z"/>
	<path d="M2019.3,882.2c-2.4,0-4.2-0.4-5.1-1.3c-1-0.9-1.5-2.2-1.5-4c0-0.9,0.1-1.6,0.3-2.1c0.2-0.6,0.5-1,0.8-1.4
		c0.3-0.4,0.7-0.6,1.1-0.8c0.4-0.2,0.8-0.4,1.3-0.5c1-0.2,2-0.4,3-0.4c2.3,0,4.1,0.4,5.1,1.2c1.1,0.8,1.6,2.1,1.7,4.1
		c0,1.1-0.2,2-0.5,2.6c-0.3,0.7-0.8,1.2-1.5,1.7c-0.5,0.3-1.1,0.6-1.9,0.7S2020.3,882.2,2019.3,882.2z M2019.2,878.7
		c1.6,0,2.8-0.2,3.4-0.5s0.9-0.7,0.9-1.3c0-0.4-0.1-0.7-0.4-0.9c-0.3-0.3-0.7-0.5-1.2-0.6c-0.6-0.1-1.4-0.2-2.6-0.2
		c-1.7,0-2.9,0.2-3.4,0.5c-0.6,0.3-0.9,0.7-0.9,1.3s0.3,1,0.9,1.3C2016.5,878.5,2017.6,878.7,2019.2,878.7z"/>
	<path d="M2019.2,870.2c-2.4,0-4.2-0.4-5.1-1.3c-1-0.9-1.5-2.2-1.5-4c0-0.9,0.1-1.6,0.3-2.1c0.2-0.6,0.5-1,0.8-1.4
		c0.3-0.4,0.7-0.6,1.1-0.8s0.8-0.4,1.3-0.5c1-0.2,2-0.4,3-0.4c2.3,0,4.1,0.4,5.1,1.2s1.6,2.1,1.7,4.1c0,1.1-0.2,2-0.5,2.6
		c-0.3,0.7-0.8,1.2-1.5,1.7c-0.5,0.3-1.1,0.6-1.9,0.7S2020.2,870.2,2019.2,870.2z M2019.2,866.7c1.6,0,2.8-0.2,3.4-0.5
		c0.6-0.3,0.9-0.7,0.9-1.3c0-0.4-0.1-0.7-0.4-0.9c-0.3-0.3-0.7-0.5-1.2-0.6c-0.6-0.1-1.4-0.2-2.6-0.2c-1.7,0-2.9,0.2-3.4,0.5
		c-0.6,0.3-0.9,0.7-0.9,1.3s0.3,1,0.9,1.3C2016.4,866.5,2017.6,866.7,2019.2,866.7z"/>
	<path d="M2012.5,850.1l13.1-0.1v3.6l-8.6,0.1c0.4,0.6,0.8,1.1,1.1,1.7c0.3,0.5,0.5,1.2,0.8,2.1h-2.9c-0.4-1.2-0.9-2.2-1.4-2.8
		c-0.6-0.7-1.2-1.2-2-1.6L2012.5,850.1z"/>
</g>
<g>
	<path d="M2072.7,882.9l0.1,10.7c-1.1-0.1-2.1-0.5-3-1.1c-0.9-0.6-2-1.8-3.3-3.5c-0.8-1-1.4-1.7-1.8-2s-0.8-0.4-1.2-0.4
		c-0.4,0-0.7,0.1-1,0.4c-0.3,0.3-0.4,0.7-0.4,1.1c0,0.5,0.1,0.8,0.4,1.1c0.3,0.3,0.8,0.5,1.5,0.6l-0.3,3.6c-1-0.1-1.8-0.4-2.4-0.8
		c-0.6-0.4-1-0.9-1.3-1.6c-0.3-0.7-0.5-1.6-0.5-2.8c0-1.3,0.1-2.2,0.4-2.9s0.7-1.3,1.3-1.7c0.6-0.4,1.3-0.6,2-0.6
		c0.8,0,1.5,0.2,2.3,0.7c0.8,0.5,1.5,1.3,2.4,2.5c0.5,0.7,0.9,1.2,1.1,1.4s0.5,0.5,0.8,0.9v-5.6L2072.7,882.9z"/>
	<path d="M2066.2,881.4c-2.4,0-4.2-0.4-5.1-1.3c-1-0.9-1.5-2.2-1.5-4c0-0.9,0.1-1.6,0.3-2.1c0.2-0.6,0.5-1,0.8-1.4s0.7-0.6,1.1-0.8
		c0.4-0.2,0.8-0.4,1.3-0.5c1-0.2,2-0.4,3-0.4c2.3,0,4.1,0.4,5.1,1.2c1.1,0.8,1.6,2.1,1.7,4.1c0,1.1-0.2,2-0.5,2.6
		c-0.3,0.7-0.8,1.2-1.5,1.7c-0.5,0.3-1.1,0.6-1.9,0.7S2067.2,881.4,2066.2,881.4z M2066.1,877.9c1.6,0,2.8-0.2,3.4-0.5
		c0.6-0.3,0.9-0.7,0.9-1.3c0-0.4-0.1-0.7-0.4-0.9c-0.3-0.3-0.7-0.5-1.2-0.6c-0.6-0.1-1.4-0.2-2.6-0.2c-1.7,0-2.9,0.2-3.4,0.5
		c-0.6,0.3-0.9,0.7-0.9,1.3s0.3,1,0.9,1.3C2063.4,877.7,2064.5,877.9,2066.1,877.9z"/>
	<path d="M2066.1,869.4c-2.4,0-4.2-0.4-5.1-1.3c-1-0.9-1.5-2.2-1.5-4c0-0.9,0.1-1.6,0.3-2.1c0.2-0.6,0.5-1,0.8-1.4
		c0.3-0.4,0.7-0.6,1.1-0.8s0.8-0.4,1.3-0.5c1-0.2,2-0.4,3-0.4c2.3,0,4.1,0.4,5.1,1.2s1.6,2.1,1.7,4.1c0,1.1-0.2,2-0.5,2.6
		c-0.3,0.7-0.8,1.2-1.5,1.7c-0.5,0.3-1.1,0.6-1.9,0.7S2067.1,869.4,2066.1,869.4z M2066.1,865.9c1.6,0,2.8-0.2,3.4-0.5
		c0.6-0.3,0.9-0.7,0.9-1.3c0-0.4-0.1-0.7-0.4-0.9c-0.3-0.3-0.7-0.5-1.2-0.6c-0.6-0.1-1.4-0.2-2.6-0.2c-1.7,0-2.9,0.2-3.4,0.5
		c-0.6,0.3-0.9,0.7-0.9,1.3s0.3,1,0.9,1.3C2063.3,865.7,2064.5,865.9,2066.1,865.9z"/>
	<path d="M2059.4,849.3l13.1-0.1v3.6l-8.6,0.1c0.4,0.6,0.8,1.1,1.1,1.7c0.3,0.5,0.5,1.2,0.8,2.1h-2.9c-0.4-1.2-0.9-2.2-1.4-2.8
		c-0.6-0.7-1.2-1.2-2-1.6L2059.4,849.3z"/>
</g>
<g>
	<path d="M2119.4,882.4l0.1,10.7c-1.1-0.1-2.1-0.5-3-1.1c-0.9-0.6-2-1.8-3.3-3.5c-0.8-1-1.4-1.7-1.8-2c-0.4-0.3-0.8-0.4-1.2-0.4
		c-0.4,0-0.7,0.1-1,0.4c-0.3,0.3-0.4,0.7-0.4,1.1c0,0.5,0.1,0.8,0.4,1.1s0.8,0.5,1.5,0.6l-0.3,3.6c-1-0.1-1.8-0.4-2.4-0.8
		c-0.6-0.4-1-0.9-1.3-1.6c-0.3-0.7-0.5-1.6-0.5-2.8c0-1.3,0.1-2.2,0.4-2.9c0.3-0.7,0.7-1.3,1.3-1.7c0.6-0.4,1.3-0.6,2-0.6
		c0.8,0,1.5,0.2,2.3,0.7s1.5,1.3,2.4,2.5c0.5,0.7,0.9,1.2,1.1,1.4s0.5,0.5,0.8,0.9v-5.6L2119.4,882.4z"/>
	<path d="M2112.9,880.9c-2.4,0-4.2-0.4-5.1-1.3c-1-0.9-1.5-2.2-1.5-4c0-0.9,0.1-1.6,0.3-2.1c0.2-0.6,0.5-1,0.8-1.4
		c0.3-0.4,0.7-0.6,1.1-0.8s0.8-0.4,1.3-0.5c1-0.2,2-0.4,3-0.4c2.3,0,4.1,0.4,5.1,1.2c1.1,0.8,1.6,2.1,1.7,4.1c0,1.1-0.2,2-0.5,2.6
		c-0.3,0.7-0.8,1.2-1.5,1.7c-0.5,0.3-1.1,0.6-1.9,0.7S2113.9,880.9,2112.9,880.9z M2112.8,877.4c1.6,0,2.8-0.2,3.4-0.5
		c0.6-0.3,0.9-0.7,0.9-1.3c0-0.4-0.1-0.7-0.4-0.9c-0.3-0.3-0.7-0.5-1.2-0.6c-0.6-0.1-1.4-0.2-2.6-0.2c-1.7,0-2.9,0.2-3.4,0.5
		c-0.6,0.3-0.9,0.7-0.9,1.3s0.3,1,0.9,1.3C2110.1,877.2,2111.2,877.4,2112.8,877.4z"/>
	<path d="M2112.8,868.9c-2.4,0-4.2-0.4-5.1-1.3c-1-0.9-1.5-2.2-1.5-4c0-0.9,0.1-1.6,0.3-2.1c0.2-0.6,0.5-1,0.8-1.4s0.7-0.6,1.1-0.8
		c0.4-0.2,0.8-0.4,1.3-0.5c1-0.2,2-0.4,3-0.4c2.3,0,4.1,0.4,5.1,1.2s1.6,2.1,1.7,4.1c0,1.1-0.2,2-0.5,2.6c-0.3,0.7-0.8,1.2-1.5,1.7
		c-0.5,0.3-1.1,0.6-1.9,0.7S2113.8,868.9,2112.8,868.9z M2112.8,865.4c1.6,0,2.8-0.2,3.4-0.5c0.6-0.3,0.9-0.7,0.9-1.3
		c0-0.4-0.1-0.7-0.4-0.9c-0.3-0.3-0.7-0.5-1.2-0.6c-0.6-0.1-1.4-0.2-2.6-0.2c-1.7,0-2.9,0.2-3.4,0.5c-0.6,0.3-0.9,0.7-0.9,1.3
		s0.3,1,0.9,1.3C2110,865.2,2111.2,865.4,2112.8,865.4z"/>
	<path d="M2106.1,848.8l13.1-0.1v3.6l-8.6,0.1c0.4,0.6,0.8,1.1,1.1,1.7c0.3,0.5,0.5,1.2,0.8,2.1l-2.9,0c-0.4-1.2-0.9-2.2-1.4-2.8
		c-0.6-0.7-1.2-1.2-2-1.6L2106.1,848.8z"/>
</g>
<g>
	<path d="M651.7,725.3l0.1,10.7c-1.1-0.1-2.1-0.5-3-1.1s-2-1.8-3.3-3.5c-0.8-1-1.4-1.7-1.8-2s-0.8-0.4-1.2-0.4s-0.7,0.1-1,0.4
		c-0.3,0.3-0.4,0.7-0.4,1.1c0,0.5,0.1,0.8,0.4,1.1c0.3,0.3,0.8,0.5,1.5,0.6l-0.3,3.6c-1-0.1-1.8-0.4-2.4-0.8c-0.6-0.4-1-0.9-1.3-1.6
		c-0.3-0.7-0.5-1.6-0.5-2.8c0-1.3,0.1-2.2,0.4-2.9c0.3-0.7,0.7-1.3,1.3-1.7s1.3-0.6,2-0.6c0.8,0,1.5,0.2,2.3,0.7s1.5,1.3,2.4,2.5
		c0.5,0.7,0.9,1.2,1.1,1.4c0.2,0.2,0.5,0.5,0.8,0.9v-5.6L651.7,725.3z"/>
	<path d="M645.2,723.8c-2.4,0-4.2-0.4-5.1-1.3c-1-0.9-1.5-2.2-1.5-4c0-0.9,0.1-1.6,0.3-2.1c0.2-0.6,0.5-1,0.8-1.4s0.7-0.6,1.1-0.8
		c0.4-0.2,0.8-0.4,1.3-0.5c1-0.2,2-0.4,3-0.4c2.3,0,4.1,0.4,5.1,1.2c1.1,0.8,1.6,2.1,1.7,4.1c0,1.1-0.2,2-0.5,2.6
		c-0.3,0.7-0.8,1.2-1.5,1.7c-0.5,0.3-1.1,0.6-1.9,0.7S646.2,723.8,645.2,723.8z M645.1,720.3c1.6,0,2.8-0.2,3.4-0.5
		c0.6-0.3,0.9-0.7,0.9-1.3c0-0.4-0.1-0.7-0.4-0.9c-0.3-0.3-0.7-0.5-1.2-0.6c-0.6-0.1-1.4-0.2-2.6-0.2c-1.7,0-2.9,0.2-3.4,0.5
		c-0.6,0.3-0.9,0.7-0.9,1.3s0.3,1,0.9,1.3C642.4,720.1,643.5,720.3,645.1,720.3z"/>
	<path d="M645.1,711.8c-2.4,0-4.2-0.4-5.1-1.3c-1-0.9-1.5-2.2-1.5-4c0-0.9,0.1-1.6,0.3-2.1c0.2-0.6,0.5-1,0.8-1.4s0.7-0.6,1.1-0.8
		c0.4-0.2,0.8-0.4,1.3-0.5c1-0.2,2-0.4,3-0.4c2.3,0,4.1,0.4,5.1,1.2s1.6,2.1,1.7,4.1c0,1.1-0.2,2-0.5,2.6c-0.3,0.7-0.8,1.2-1.5,1.7
		c-0.5,0.3-1.1,0.6-1.9,0.7S646.1,711.8,645.1,711.8z M645.1,708.3c1.6,0,2.8-0.2,3.4-0.5c0.6-0.3,0.9-0.7,0.9-1.3
		c0-0.4-0.1-0.7-0.4-0.9c-0.3-0.3-0.7-0.5-1.2-0.6c-0.6-0.1-1.4-0.2-2.6-0.2c-1.7,0-2.9,0.2-3.4,0.5c-0.6,0.3-0.9,0.7-0.9,1.3
		s0.3,1,0.9,1.3C642.3,708.1,643.5,708.3,645.1,708.3z"/>
	<path d="M638.4,691.7l13.1-0.1v3.6l-8.6,0.1c0.4,0.6,0.8,1.1,1.1,1.7c0.3,0.5,0.5,1.2,0.8,2.1h-2.9c-0.4-1.2-0.9-2.2-1.4-2.8
		c-0.6-0.7-1.2-1.2-2-1.6L638.4,691.7z"/>
</g>
<g>
	<path d="M606.5,726l0.1,10.7c-1.1-0.1-2.1-0.5-3-1.1s-2-1.8-3.3-3.5c-0.8-1-1.4-1.7-1.8-2s-0.8-0.4-1.2-0.4s-0.7,0.1-1,0.4
		c-0.3,0.3-0.4,0.7-0.4,1.1c0,0.5,0.1,0.8,0.4,1.1c0.3,0.3,0.8,0.5,1.5,0.6l-0.3,3.6c-1-0.1-1.8-0.4-2.4-0.8c-0.6-0.4-1-0.9-1.3-1.6
		c-0.3-0.7-0.5-1.6-0.5-2.8c0-1.3,0.1-2.2,0.4-2.9c0.3-0.7,0.7-1.3,1.3-1.7s1.3-0.6,2-0.6c0.8,0,1.5,0.2,2.3,0.7s1.5,1.3,2.4,2.5
		c0.5,0.7,0.9,1.2,1.1,1.4c0.2,0.2,0.5,0.5,0.8,0.9V726L606.5,726z"/>
	<path d="M600,724.5c-2.4,0-4.2-0.4-5.1-1.3c-1-0.9-1.5-2.2-1.5-4c0-0.9,0.1-1.6,0.3-2.1c0.2-0.6,0.5-1,0.8-1.4s0.7-0.6,1.1-0.8
		c0.4-0.2,0.8-0.4,1.3-0.5c1-0.2,2-0.4,3-0.4c2.3,0,4.1,0.4,5.1,1.2c1.1,0.8,1.6,2.1,1.7,4.1c0,1.1-0.2,2-0.5,2.6
		c-0.3,0.7-0.8,1.2-1.5,1.7c-0.5,0.3-1.1,0.6-1.9,0.7S601,724.5,600,724.5z M599.9,721c1.6,0,2.8-0.2,3.4-0.5
		c0.6-0.3,0.9-0.7,0.9-1.3c0-0.4-0.1-0.7-0.4-0.9c-0.3-0.3-0.7-0.5-1.2-0.6c-0.6-0.1-1.4-0.2-2.6-0.2c-1.7,0-2.9,0.2-3.4,0.5
		c-0.6,0.3-0.9,0.7-0.9,1.3s0.3,1,0.9,1.3C597.2,720.8,598.3,721,599.9,721z"/>
	<path d="M599.9,712.5c-2.4,0-4.2-0.4-5.1-1.3c-1-0.9-1.5-2.2-1.5-4c0-0.9,0.1-1.6,0.3-2.1c0.2-0.6,0.5-1,0.8-1.4s0.7-0.6,1.1-0.8
		c0.4-0.2,0.8-0.4,1.3-0.5c1-0.2,2-0.4,3-0.4c2.3,0,4.1,0.4,5.1,1.2s1.6,2.1,1.7,4.1c0,1.1-0.2,2-0.5,2.6c-0.3,0.7-0.8,1.2-1.5,1.7
		c-0.5,0.3-1.1,0.6-1.9,0.7S600.9,712.5,599.9,712.5z M599.9,709c1.6,0,2.8-0.2,3.4-0.5c0.6-0.3,0.9-0.7,0.9-1.3
		c0-0.4-0.1-0.7-0.4-0.9c-0.3-0.3-0.7-0.5-1.2-0.6c-0.6-0.1-1.4-0.2-2.6-0.2c-1.7,0-2.9,0.2-3.4,0.5c-0.6,0.3-0.9,0.7-0.9,1.3
		s0.3,1,0.9,1.3C597.1,708.8,598.3,709,599.9,709z"/>
	<path d="M593.2,692.4l13.1-0.1v3.6l-8.6,0.1c0.4,0.6,0.8,1.1,1.1,1.7c0.3,0.5,0.5,1.2,0.8,2.1h-2.9c-0.4-1.2-0.9-2.2-1.4-2.8
		c-0.6-0.7-1.2-1.2-2-1.6L593.2,692.4z"/>
</g>
<g>
	<path d="M558,724.8l0.1,10.7c-1.1-0.1-2.1-0.5-3-1.1s-2-1.8-3.3-3.5c-0.8-1-1.4-1.7-1.8-2s-0.8-0.4-1.2-0.4s-0.7,0.1-1,0.4
		c-0.3,0.3-0.4,0.7-0.4,1.1c0,0.5,0.1,0.8,0.4,1.1c0.3,0.3,0.8,0.5,1.5,0.6l-0.3,3.6c-1-0.1-1.8-0.4-2.4-0.8c-0.6-0.4-1-0.9-1.3-1.6
		c-0.3-0.7-0.5-1.6-0.5-2.8c0-1.3,0.1-2.2,0.4-2.9c0.3-0.7,0.7-1.3,1.3-1.7s1.3-0.6,2-0.6c0.8,0,1.5,0.2,2.3,0.7s1.5,1.3,2.4,2.5
		c0.5,0.7,0.9,1.2,1.1,1.4c0.2,0.2,0.5,0.5,0.8,0.9v-5.6L558,724.8z"/>
	<path d="M551.5,723.3c-2.4,0-4.2-0.4-5.1-1.3c-1-0.9-1.5-2.2-1.5-4c0-0.9,0.1-1.6,0.3-2.1c0.2-0.6,0.5-1,0.8-1.4s0.7-0.6,1.1-0.8
		c0.4-0.2,0.8-0.4,1.3-0.5c1-0.2,2-0.4,3-0.4c2.3,0,4.1,0.4,5.1,1.2c1.1,0.8,1.6,2.1,1.7,4.1c0,1.1-0.2,2-0.5,2.6
		c-0.3,0.7-0.8,1.2-1.5,1.7c-0.5,0.3-1.1,0.6-1.9,0.7S552.5,723.3,551.5,723.3z M551.4,719.8c1.6,0,2.8-0.2,3.4-0.5
		c0.6-0.3,0.9-0.7,0.9-1.3c0-0.4-0.1-0.7-0.4-0.9c-0.3-0.3-0.7-0.5-1.2-0.6c-0.6-0.1-1.4-0.2-2.6-0.2c-1.7,0-2.9,0.2-3.4,0.5
		c-0.6,0.3-0.9,0.7-0.9,1.3s0.3,1,0.9,1.3C548.7,719.6,549.8,719.8,551.4,719.8z"/>
	<path d="M551.4,711.3c-2.4,0-4.2-0.4-5.1-1.3c-1-0.9-1.5-2.2-1.5-4c0-0.9,0.1-1.6,0.3-2.1c0.2-0.6,0.5-1,0.8-1.4
		c0.3-0.4,0.7-0.6,1.1-0.8c0.4-0.2,0.8-0.4,1.3-0.5c1-0.2,2-0.4,3-0.4c2.3,0,4.1,0.4,5.1,1.2s1.6,2.1,1.7,4.1c0,1.1-0.2,2-0.5,2.6
		c-0.3,0.7-0.8,1.2-1.5,1.7c-0.5,0.3-1.1,0.6-1.9,0.7S552.4,711.3,551.4,711.3z M551.4,707.8c1.6,0,2.8-0.2,3.4-0.5
		c0.6-0.3,0.9-0.7,0.9-1.3c0-0.4-0.1-0.7-0.4-0.9c-0.3-0.3-0.7-0.5-1.2-0.6c-0.6-0.1-1.4-0.2-2.6-0.2c-1.7,0-2.9,0.2-3.4,0.5
		c-0.6,0.3-0.9,0.7-0.9,1.3s0.3,1,0.9,1.3C548.6,707.6,549.8,707.8,551.4,707.8z"/>
	<path d="M544.7,691.2l13.1-0.1v3.6l-8.6,0.1c0.4,0.6,0.8,1.1,1.1,1.7c0.3,0.5,0.5,1.2,0.8,2.1h-2.9c-0.4-1.2-0.9-2.2-1.4-2.8
		c-0.6-0.7-1.2-1.2-2-1.6L544.7,691.2z"/>
</g>
<g>
	<path d="M508.6,725.5l0.1,10.7c-1.1-0.1-2.1-0.5-3-1.1s-2-1.8-3.3-3.5c-0.8-1-1.4-1.7-1.8-2s-0.8-0.4-1.2-0.4s-0.7,0.1-1,0.4
		c-0.3,0.3-0.4,0.7-0.4,1.1c0,0.5,0.1,0.8,0.4,1.1c0.3,0.3,0.8,0.5,1.5,0.6l-0.3,3.6c-1-0.1-1.8-0.4-2.4-0.8c-0.6-0.4-1-0.9-1.3-1.6
		c-0.3-0.7-0.5-1.6-0.5-2.8c0-1.3,0.1-2.2,0.4-2.9c0.3-0.7,0.7-1.3,1.3-1.7s1.3-0.6,2-0.6c0.8,0,1.5,0.2,2.3,0.7s1.5,1.3,2.4,2.5
		c0.5,0.7,0.9,1.2,1.1,1.4c0.2,0.2,0.5,0.5,0.8,0.9v-5.6L508.6,725.5z"/>
	<path d="M502.1,724c-2.4,0-4.2-0.4-5.1-1.3c-1-0.9-1.5-2.2-1.5-4c0-0.9,0.1-1.6,0.3-2.1c0.2-0.6,0.5-1,0.8-1.4s0.7-0.6,1.1-0.8
		c0.4-0.2,0.8-0.4,1.3-0.5c1-0.2,2-0.4,3-0.4c2.3,0,4.1,0.4,5.1,1.2c1.1,0.8,1.6,2.1,1.7,4.1c0,1.1-0.2,2-0.5,2.6
		c-0.3,0.7-0.8,1.2-1.5,1.7c-0.5,0.3-1.1,0.6-1.9,0.7S503.1,724,502.1,724z M502,720.5c1.6,0,2.8-0.2,3.4-0.5
		c0.6-0.3,0.9-0.7,0.9-1.3c0-0.4-0.1-0.7-0.4-0.9c-0.3-0.3-0.7-0.5-1.2-0.6c-0.6-0.1-1.4-0.2-2.6-0.2c-1.7,0-2.9,0.2-3.4,0.5
		c-0.6,0.3-0.9,0.7-0.9,1.3s0.3,1,0.9,1.3C499.3,720.3,500.4,720.5,502,720.5z"/>
	<path d="M502,712c-2.4,0-4.2-0.4-5.1-1.3c-1-0.9-1.5-2.2-1.5-4c0-0.9,0.1-1.6,0.3-2.1c0.2-0.6,0.5-1,0.8-1.4s0.7-0.6,1.1-0.8
		c0.4-0.2,0.8-0.4,1.3-0.5c1-0.2,2-0.4,3-0.4c2.3,0,4.1,0.4,5.1,1.2s1.6,2.1,1.7,4.1c0,1.1-0.2,2-0.5,2.6c-0.3,0.7-0.8,1.2-1.5,1.7
		c-0.5,0.3-1.1,0.6-1.9,0.7S503,712,502,712z M502,708.5c1.6,0,2.8-0.2,3.4-0.5c0.6-0.3,0.9-0.7,0.9-1.3c0-0.4-0.1-0.7-0.4-0.9
		c-0.3-0.3-0.7-0.5-1.2-0.6c-0.6-0.1-1.4-0.2-2.6-0.2c-1.7,0-2.9,0.2-3.4,0.5c-0.6,0.3-0.9,0.7-0.9,1.3s0.3,1,0.9,1.3
		C499.2,708.3,500.4,708.5,502,708.5z"/>
	<path d="M495.3,691.9l13.1-0.1v3.6l-8.6,0.1c0.4,0.6,0.8,1.1,1.1,1.7c0.3,0.5,0.5,1.2,0.8,2.1h-2.9c-0.4-1.2-0.9-2.2-1.4-2.8
		c-0.6-0.7-1.2-1.2-2-1.6L495.3,691.9z"/>
</g>
<g>
	<path d="M240.6,685.1l1.6,10.6c-1.1,0.1-2.1-0.2-3.1-0.7c-1-0.5-2.2-1.5-3.7-3c-0.9-0.9-1.6-1.5-2.1-1.7c-0.4-0.2-0.8-0.3-1.2-0.2
		c-0.4,0.1-0.7,0.2-0.9,0.5c-0.3,0.3-0.3,0.7-0.2,1.1c0.1,0.5,0.2,0.8,0.5,1c0.3,0.3,0.9,0.4,1.6,0.4l0.2,3.6c-1,0-1.8-0.2-2.5-0.5
		c-0.6-0.3-1.1-0.8-1.5-1.4c-0.4-0.7-0.7-1.5-0.9-2.7c-0.2-1.3-0.2-2.2,0-2.9c0.2-0.7,0.5-1.4,1.1-1.9c0.5-0.5,1.2-0.8,1.9-0.9
		c0.8-0.1,1.5,0,2.4,0.4s1.7,1.1,2.7,2.2c0.6,0.6,1.1,1.1,1.3,1.2c0.2,0.2,0.6,0.4,0.9,0.8l-0.8-5.5L240.6,685.1z"/>
	<path d="M234,684.5c-2.4,0.3-4.2,0.2-5.2-0.6c-1.1-0.8-1.8-2-2-3.8c-0.1-0.9-0.1-1.6,0-2.1c0.1-0.6,0.4-1.1,0.6-1.5
		c0.2-0.4,0.6-0.7,1-0.9c0.4-0.3,0.7-0.5,1.2-0.7c1-0.3,1.9-0.7,2.9-0.8c2.3-0.3,4.1-0.2,5.2,0.5c1.2,0.6,1.9,1.9,2.2,3.8
		c0.1,1.1,0.1,2-0.1,2.6c-0.2,0.7-0.6,1.3-1.3,1.9c-0.5,0.4-1,0.7-1.8,1S235,684.4,234,684.5z M233.4,681.1c1.6-0.2,2.7-0.6,3.3-1
		c0.6-0.4,0.8-0.8,0.7-1.4c-0.1-0.4-0.2-0.7-0.5-0.8c-0.3-0.3-0.8-0.4-1.3-0.4c-0.6,0-1.4,0-2.6,0.2c-1.7,0.2-2.8,0.6-3.3,1
		c-0.6,0.4-0.8,0.8-0.7,1.4c0.1,0.6,0.4,0.9,1.1,1.2C230.7,681.2,231.8,681.3,233.4,681.1z"/>
	<path d="M232.3,672.7c-2.4,0.3-4.2,0.2-5.2-0.6c-1.1-0.8-1.8-2-2-3.8c-0.1-0.9-0.1-1.6,0-2.1c0.1-0.6,0.4-1.1,0.6-1.5
		c0.2-0.4,0.6-0.7,1-0.9c0.4-0.3,0.7-0.5,1.2-0.7c1-0.3,1.9-0.7,2.9-0.8c2.3-0.3,4.1-0.2,5.2,0.5c1.1,0.7,1.9,1.9,2.2,3.8
		c0.1,1.1,0.1,2-0.1,2.6c-0.2,0.7-0.6,1.3-1.3,1.9c-0.5,0.4-1,0.7-1.8,1S233.3,672.5,232.3,672.7z M231.8,669.2
		c1.6-0.2,2.7-0.6,3.3-1c0.6-0.4,0.8-0.8,0.7-1.4c-0.1-0.4-0.2-0.7-0.5-0.8c-0.3-0.3-0.8-0.4-1.3-0.4c-0.6,0-1.4,0-2.6,0.2
		c-1.7,0.2-2.8,0.6-3.3,1c-0.6,0.4-0.8,0.8-0.7,1.4c0.1,0.6,0.4,0.9,1.1,1.2C229,669.4,230.2,669.4,231.8,669.2z"/>
	<path d="M222.9,653.7l13-1.9l0.5,3.6l-8.5,1.3c0.5,0.5,0.9,1,1.3,1.5c0.4,0.5,0.7,1.1,1.1,2l-2.9,0.4c-0.6-1.1-1.2-2.1-1.8-2.6
		c-0.7-0.6-1.4-1-2.2-1.3L222.9,653.7z"/>
</g>
<g>
	<path d="M227.1,586.4l1.6,10.6c-1.1,0.1-2.1-0.2-3.1-0.7s-2.2-1.5-3.7-3c-0.9-0.9-1.6-1.5-2.1-1.7c-0.4-0.2-0.8-0.3-1.2-0.2
		c-0.4,0.1-0.7,0.2-0.9,0.5c-0.3,0.3-0.3,0.7-0.2,1.1c0.1,0.5,0.2,0.8,0.5,1c0.3,0.3,0.9,0.4,1.6,0.4l0.2,3.6c-1,0-1.8-0.2-2.5-0.5
		c-0.6-0.3-1.1-0.8-1.5-1.4c-0.4-0.7-0.7-1.5-0.9-2.7c-0.2-1.3-0.2-2.2,0-2.9c0.2-0.7,0.5-1.4,1.1-1.9c0.5-0.5,1.2-0.8,1.9-0.9
		c0.8-0.1,1.5,0,2.4,0.4s1.7,1.1,2.7,2.2c0.6,0.6,1.1,1.1,1.3,1.2c0.2,0.2,0.6,0.4,0.9,0.8l-0.8-5.5L227.1,586.4z"/>
	<path d="M220.5,585.8c-2.4,0.3-4.2,0.2-5.2-0.6c-1.1-0.8-1.8-2-2-3.8c-0.1-0.9-0.1-1.6,0-2.1c0.1-0.6,0.4-1.1,0.6-1.5
		c0.2-0.4,0.6-0.7,1-0.9c0.4-0.3,0.7-0.5,1.2-0.7c1-0.3,1.9-0.7,2.9-0.8c2.3-0.3,4.1-0.2,5.2,0.5c1.2,0.6,1.9,1.9,2.2,3.8
		c0.1,1.1,0.1,2-0.1,2.6c-0.2,0.7-0.6,1.3-1.3,1.9c-0.5,0.4-1,0.7-1.8,1C222.4,585.4,221.4,585.6,220.5,585.8z M219.9,582.3
		c1.6-0.2,2.7-0.6,3.3-1c0.6-0.4,0.8-0.8,0.7-1.4c-0.1-0.4-0.2-0.7-0.5-0.8c-0.3-0.3-0.8-0.4-1.3-0.4c-0.6,0-1.4,0-2.6,0.2
		c-1.7,0.2-2.8,0.6-3.3,1c-0.6,0.4-0.8,0.8-0.7,1.4c0.1,0.6,0.4,0.9,1.1,1.2C217.2,582.5,218.3,582.5,219.9,582.3z"/>
	<path d="M218.7,573.9c-2.4,0.3-4.2,0.2-5.2-0.6c-1.1-0.8-1.8-2-2-3.8c-0.1-0.9-0.1-1.6,0-2.1c0.1-0.6,0.4-1.1,0.6-1.5
		c0.2-0.4,0.6-0.7,1-0.9c0.4-0.3,0.7-0.5,1.2-0.7c1-0.3,1.9-0.7,2.9-0.8c2.3-0.3,4.1-0.2,5.2,0.5c1.1,0.7,1.9,1.9,2.2,3.8
		c0.1,1.1,0.1,2-0.1,2.6c-0.2,0.7-0.6,1.3-1.3,1.9c-0.5,0.4-1,0.7-1.8,1C220.7,573.5,219.7,573.8,218.7,573.9z M218.2,570.4
		c1.6-0.2,2.7-0.6,3.3-1c0.6-0.4,0.8-0.8,0.7-1.4c-0.1-0.4-0.2-0.7-0.5-0.8c-0.3-0.3-0.8-0.4-1.3-0.4c-0.6,0-1.4,0-2.6,0.2
		c-1.7,0.2-2.8,0.6-3.3,1c-0.6,0.4-0.8,0.8-0.7,1.4c0.1,0.6,0.4,0.9,1.1,1.2C215.4,570.6,216.7,570.6,218.2,570.4z"/>
	<path d="M209.3,554.9l13-1.9l0.5,3.6l-8.5,1.3c0.5,0.5,0.9,1,1.3,1.5c0.4,0.5,0.7,1.1,1.1,2l-2.9,0.4c-0.6-1.1-1.2-2.1-1.8-2.6
		c-0.7-0.6-1.4-1-2.2-1.3L209.3,554.9z"/>
</g>
<g>
	<path d="M212.2,480.5l1.6,10.6c-1.1,0.1-2.1-0.2-3.1-0.7c-1-0.5-2.2-1.5-3.7-3c-0.9-0.9-1.6-1.5-2.1-1.7c-0.4-0.2-0.8-0.3-1.2-0.2
		c-0.4,0.1-0.7,0.2-0.9,0.5c-0.3,0.3-0.3,0.7-0.2,1.1c0.1,0.5,0.2,0.8,0.5,1c0.3,0.3,0.9,0.4,1.6,0.4l0.2,3.6c-1,0-1.8-0.2-2.5-0.5
		c-0.6-0.3-1.1-0.8-1.5-1.4c-0.4-0.7-0.7-1.5-0.9-2.7c-0.2-1.3-0.2-2.2,0-2.9c0.2-0.7,0.5-1.4,1.1-1.9s1.2-0.8,1.9-0.9
		c0.8-0.1,1.5,0,2.4,0.4c0.9,0.4,1.7,1.1,2.7,2.2c0.6,0.6,1.1,1.1,1.3,1.2c0.2,0.2,0.6,0.4,0.9,0.8l-0.8-5.5L212.2,480.5z"/>
	<path d="M205.5,479.9c-2.4,0.3-4.2,0.2-5.2-0.6c-1.1-0.8-1.8-2-2-3.8c-0.1-0.9-0.1-1.6,0-2.1c0.1-0.6,0.4-1.1,0.6-1.5
		c0.2-0.4,0.6-0.7,1-0.9c0.4-0.3,0.7-0.5,1.2-0.7c1-0.3,1.9-0.7,2.9-0.8c2.3-0.3,4.1-0.2,5.2,0.5c1.2,0.6,1.9,1.9,2.2,3.8
		c0.1,1.1,0.1,2-0.1,2.6c-0.2,0.7-0.6,1.3-1.3,1.9c-0.5,0.4-1,0.7-1.8,1C207.5,479.5,206.5,479.8,205.5,479.9z M204.9,476.5
		c1.6-0.2,2.7-0.6,3.3-1c0.6-0.4,0.8-0.8,0.7-1.4c-0.1-0.4-0.2-0.7-0.5-0.8c-0.3-0.3-0.8-0.4-1.3-0.4c-0.6,0-1.4,0-2.6,0.2
		c-1.7,0.2-2.8,0.6-3.3,1c-0.6,0.4-0.8,0.8-0.7,1.4c0.1,0.6,0.4,0.9,1.1,1.2C202.2,476.6,203.4,476.7,204.9,476.5z"/>
	<path d="M203.8,468c-2.4,0.3-4.2,0.2-5.2-0.6c-1.1-0.8-1.8-2-2-3.8c-0.1-0.9-0.1-1.6,0-2.1c0.1-0.6,0.4-1.1,0.6-1.5
		c0.2-0.4,0.6-0.7,1-0.9c0.4-0.3,0.7-0.5,1.2-0.7c1-0.3,1.9-0.7,2.9-0.8c2.3-0.3,4.1-0.2,5.2,0.5c1.1,0.7,1.9,1.9,2.2,3.8
		c0.1,1.1,0.1,2-0.1,2.6c-0.2,0.7-0.6,1.3-1.3,1.9c-0.5,0.4-1,0.7-1.8,1C205.8,467.7,204.8,467.9,203.8,468z M203.3,464.6
		c1.6-0.2,2.7-0.6,3.3-1c0.6-0.4,0.8-0.8,0.7-1.4c-0.1-0.4-0.2-0.7-0.5-0.8c-0.3-0.3-0.8-0.4-1.3-0.4c-0.6,0-1.4,0-2.6,0.2
		c-1.7,0.2-2.8,0.6-3.3,1c-0.6,0.4-0.8,0.8-0.7,1.4s0.4,0.9,1.1,1.2C200.5,464.7,201.7,464.8,203.3,464.6z"/>
	<path d="M194.4,449l13-1.9l0.5,3.6l-8.5,1.3c0.5,0.5,0.9,1,1.3,1.5c0.4,0.5,0.7,1.1,1.1,2l-2.9,0.4c-0.6-1.1-1.2-2.1-1.8-2.6
		c-0.7-0.6-1.4-1-2.2-1.3L194.4,449z"/>
</g>
<g>
	<path d="M344.8,574.7l-10.6,1.3c0-1.1,0.3-2.1,0.7-3.1c0.5-1,1.6-2.2,3.1-3.7c0.9-0.9,1.5-1.6,1.8-2c0.3-0.4,0.3-0.8,0.3-1.2
		c0-0.4-0.2-0.7-0.5-0.9c-0.3-0.3-0.7-0.3-1.1-0.3c-0.5,0.1-0.8,0.2-1,0.5c-0.3,0.3-0.4,0.9-0.4,1.6l-3.6,0.1c0-1,0.2-1.8,0.5-2.5
		c0.3-0.6,0.8-1.1,1.4-1.5c0.7-0.4,1.5-0.7,2.7-0.8c1.3-0.2,2.2-0.2,2.9,0.1s1.4,0.5,1.8,1.1s0.7,1.2,0.8,1.9c0.1,0.8,0,1.5-0.4,2.4
		c-0.4,0.9-1.1,1.6-2.2,2.7c-0.6,0.6-1.1,1-1.3,1.3s-0.4,0.6-0.8,0.9l5.6-0.7L344.8,574.7z"/>
	<path d="M345.6,568c-0.3-2.4-0.1-4.2,0.7-5.2c0.8-1.1,2-1.7,3.8-2c0.9-0.1,1.6-0.1,2.1,0.1c0.6,0.1,1.1,0.4,1.5,0.6
		c0.4,0.3,0.7,0.6,0.9,1s0.5,0.7,0.6,1.2c0.3,1,0.6,1.9,0.7,2.9c0.3,2.3,0.1,4.1-0.6,5.2c-0.7,1.2-1.9,1.8-3.9,2.2
		c-1.1,0.1-2,0-2.6-0.2c-0.7-0.2-1.3-0.7-1.9-1.3c-0.4-0.5-0.7-1-0.9-1.8C345.9,570,345.7,569,345.6,568z M349,567.5
		c0.2,1.6,0.5,2.8,0.9,3.3c0.4,0.6,0.8,0.8,1.4,0.7c0.4,0,0.7-0.2,0.8-0.5c0.3-0.3,0.4-0.8,0.5-1.3c0-0.6,0-1.4-0.1-2.6
		c-0.2-1.7-0.5-2.9-0.9-3.3c-0.4-0.6-0.8-0.8-1.4-0.7c-0.6,0.1-1,0.4-1.2,1C348.9,564.8,348.9,565.9,349,567.5z"/>
	<path d="M357.5,566.5c-0.3-2.4-0.1-4.2,0.7-5.2c0.8-1.1,2-1.7,3.8-2c0.9-0.1,1.6-0.1,2.1,0.1c0.6,0.1,1.1,0.4,1.5,0.6
		c0.4,0.3,0.7,0.6,0.9,1c0.2,0.4,0.5,0.7,0.6,1.2c0.3,1,0.6,1.9,0.7,2.9c0.3,2.3,0.1,4.1-0.6,5.2c-0.7,1.1-1.9,1.8-3.9,2.2
		c-1.1,0.1-2,0-2.6-0.2c-0.7-0.2-1.3-0.7-1.9-1.3c-0.4-0.5-0.7-1-0.9-1.8C357.8,568.5,357.6,567.5,357.5,566.5z M361,566.1
		c0.2,1.6,0.5,2.8,0.9,3.3c0.4,0.6,0.8,0.8,1.4,0.7c0.4,0,0.7-0.2,0.8-0.5c0.3-0.3,0.4-0.8,0.5-1.3c0-0.6,0-1.4-0.1-2.6
		c-0.2-1.7-0.5-2.9-0.9-3.3c-0.4-0.6-0.8-0.8-1.4-0.7c-0.6,0.1-1,0.4-1.2,1C360.8,563.3,360.8,564.6,361,566.1z"/>
	<path d="M376.7,557.6l1.6,13l-3.6,0.4l-1.1-8.5c-0.5,0.5-1,0.9-1.6,1.3c-0.5,0.4-1.1,0.6-2,1l-0.3-2.9c1.1-0.5,2.1-1.1,2.6-1.7
		c0.6-0.7,1.1-1.3,1.4-2.2L376.7,557.6z"/>
</g>
<g>
	<path d="M333.9,488.9l-10.6,1.3c0-1.1,0.3-2.1,0.7-3.1c0.5-1,1.6-2.2,3.1-3.7c0.9-0.9,1.5-1.6,1.8-2c0.3-0.4,0.3-0.8,0.3-1.2
		s-0.2-0.7-0.5-0.9c-0.3-0.3-0.7-0.3-1.1-0.3c-0.5,0.1-0.8,0.2-1,0.5c-0.3,0.3-0.4,0.9-0.4,1.6l-3.6,0.1c0-1,0.2-1.8,0.5-2.5
		c0.3-0.6,0.8-1.1,1.4-1.5c0.7-0.4,1.5-0.7,2.7-0.8c1.3-0.2,2.2-0.2,2.9,0.1c0.7,0.2,1.4,0.5,1.8,1.1s0.7,1.2,0.8,1.9
		c0.1,0.8,0,1.5-0.4,2.4c-0.4,0.9-1.1,1.6-2.2,2.7c-0.6,0.6-1.1,1-1.3,1.3c-0.2,0.2-0.4,0.6-0.8,0.9l5.6-0.7L333.9,488.9z"/>
	<path d="M334.6,482.3c-0.3-2.4-0.1-4.2,0.7-5.2c0.8-1.1,2-1.7,3.8-2c0.9-0.1,1.6-0.1,2.1,0.1c0.6,0.1,1.1,0.4,1.5,0.6
		c0.4,0.3,0.7,0.6,0.9,1c0.2,0.4,0.5,0.7,0.6,1.2c0.3,1,0.6,1.9,0.7,2.9c0.3,2.3,0.1,4.1-0.6,5.2c-0.7,1.2-1.9,1.8-3.9,2.2
		c-1.1,0.1-2,0-2.6-0.2c-0.7-0.2-1.3-0.7-1.9-1.3c-0.4-0.5-0.7-1-0.9-1.8C334.9,484.3,334.7,483.3,334.6,482.3z M338.1,481.8
		c0.2,1.6,0.5,2.8,0.9,3.3c0.4,0.6,0.8,0.8,1.4,0.7c0.4,0,0.7-0.2,0.8-0.5c0.3-0.3,0.4-0.8,0.5-1.3c0-0.6,0-1.4-0.1-2.6
		c-0.2-1.7-0.5-2.9-0.9-3.3c-0.4-0.6-0.8-0.8-1.4-0.7c-0.6,0.1-1,0.4-1.2,1C337.9,479.1,337.9,480.2,338.1,481.8z"/>
	<path d="M346.5,480.8c-0.3-2.4-0.1-4.2,0.7-5.2c0.8-1.1,2-1.7,3.8-2c0.9-0.1,1.6-0.1,2.1,0.1c0.6,0.1,1.1,0.4,1.5,0.6
		c0.4,0.3,0.7,0.6,0.9,1c0.2,0.4,0.5,0.7,0.6,1.2c0.3,1,0.6,1.9,0.7,2.9c0.3,2.3,0.1,4.1-0.6,5.2c-0.7,1.1-1.9,1.8-3.9,2.2
		c-1.1,0.1-2,0-2.6-0.2c-0.7-0.2-1.3-0.7-1.9-1.3c-0.4-0.5-0.7-1-0.9-1.8C346.8,482.8,346.6,481.8,346.5,480.8z M350,480.4
		c0.2,1.6,0.5,2.8,0.9,3.3c0.4,0.6,0.8,0.8,1.4,0.7c0.4,0,0.7-0.2,0.8-0.5c0.3-0.3,0.4-0.8,0.5-1.3c0-0.6,0-1.4-0.1-2.6
		c-0.2-1.7-0.5-2.9-0.9-3.3c-0.4-0.6-0.8-0.8-1.4-0.7c-0.6,0.1-1,0.4-1.2,1C349.8,477.6,349.8,478.8,350,480.4z"/>
	<path d="M365.7,471.8l1.6,13l-3.6,0.4l-1.1-8.5c-0.5,0.5-1,0.9-1.6,1.3c-0.5,0.4-1.1,0.6-2,1l-0.3-2.9c1.1-0.5,2.1-1.1,2.6-1.7
		c0.6-0.7,1.1-1.3,1.4-2.2L365.7,471.8z"/>
</g>
<g>
	<path d="M322,426l-10.6,1.3c0-1.1,0.3-2.1,0.7-3.1c0.5-1,1.6-2.2,3.1-3.7c0.9-0.9,1.5-1.6,1.8-2c0.3-0.4,0.3-0.8,0.3-1.2
		c0-0.4-0.2-0.7-0.5-0.9c-0.3-0.3-0.7-0.3-1.1-0.3c-0.5,0.1-0.8,0.2-1,0.5c-0.3,0.3-0.4,0.9-0.4,1.6l-3.6,0.1c0-1,0.2-1.8,0.5-2.5
		c0.3-0.6,0.8-1.1,1.4-1.5c0.7-0.4,1.5-0.7,2.7-0.8c1.3-0.2,2.2-0.2,2.9,0.1c0.7,0.2,1.4,0.5,1.8,1.1c0.5,0.5,0.7,1.2,0.8,1.9
		c0.1,0.8,0,1.5-0.4,2.4c-0.4,0.9-1.1,1.6-2.2,2.7c-0.6,0.6-1.1,1-1.3,1.3c-0.2,0.2-0.4,0.6-0.8,0.9l5.6-0.7L322,426z"/>
	<path d="M322.7,419.3c-0.3-2.4-0.1-4.2,0.7-5.2c0.8-1.1,2-1.7,3.8-2c0.9-0.1,1.6-0.1,2.1,0.1c0.6,0.1,1.1,0.4,1.5,0.6
		c0.4,0.3,0.7,0.6,0.9,1c0.2,0.4,0.5,0.7,0.6,1.2c0.3,1,0.6,1.9,0.7,2.9c0.3,2.3,0.1,4.1-0.6,5.2c-0.7,1.2-1.9,1.8-3.9,2.2
		c-1.1,0.1-2,0-2.6-0.2c-0.7-0.2-1.3-0.7-1.9-1.3c-0.4-0.5-0.7-1-0.9-1.8C323.1,421.3,322.9,420.3,322.7,419.3z M326.2,418.8
		c0.2,1.6,0.5,2.8,0.9,3.3c0.4,0.6,0.8,0.8,1.4,0.7c0.4,0,0.7-0.2,0.8-0.5c0.3-0.3,0.4-0.8,0.5-1.3c0-0.6,0-1.4-0.1-2.6
		c-0.2-1.7-0.5-2.9-0.9-3.3c-0.4-0.6-0.8-0.8-1.4-0.7c-0.6,0.1-1,0.4-1.2,1C326.1,416.1,326,417.2,326.2,418.8z"/>
	<path d="M334.6,417.8c-0.3-2.4-0.1-4.2,0.7-5.2c0.8-1.1,2-1.7,3.8-2c0.9-0.1,1.6-0.1,2.1,0.1c0.6,0.1,1.1,0.4,1.5,0.6
		c0.4,0.3,0.7,0.6,0.9,1c0.2,0.4,0.5,0.7,0.6,1.2c0.3,1,0.6,1.9,0.7,2.9c0.3,2.3,0.1,4.1-0.6,5.2c-0.7,1.1-1.9,1.8-3.9,2.2
		c-1.1,0.1-2,0-2.6-0.2c-0.7-0.2-1.3-0.7-1.9-1.3c-0.4-0.5-0.7-1-0.9-1.8C335,419.8,334.8,418.8,334.6,417.8z M338.1,417.4
		c0.2,1.6,0.5,2.8,0.9,3.3c0.4,0.6,0.8,0.8,1.4,0.7c0.4,0,0.7-0.2,0.8-0.5c0.3-0.3,0.4-0.8,0.5-1.3c0-0.6,0-1.4-0.1-2.6
		c-0.2-1.7-0.5-2.9-0.9-3.3c-0.4-0.6-0.8-0.8-1.4-0.7c-0.6,0.1-1,0.4-1.2,1C338,414.6,337.9,415.9,338.1,417.4z"/>
	<path d="M353.8,408.9l1.6,13l-3.6,0.4l-1.1-8.5c-0.5,0.5-1,0.9-1.6,1.3c-0.5,0.4-1.1,0.6-2,1l-0.3-2.9c1.1-0.5,2.1-1.1,2.6-1.7
		c0.6-0.7,1.1-1.3,1.4-2.2L353.8,408.9z"/>
</g>
<g>
	<path d="M300,258.8l-10.6,1.3c0-1.1,0.3-2.1,0.7-3.1c0.5-1,1.6-2.2,3.1-3.7c0.9-0.9,1.5-1.6,1.8-2c0.3-0.4,0.3-0.8,0.3-1.2
		s-0.2-0.7-0.5-0.9c-0.3-0.3-0.7-0.3-1.1-0.3c-0.5,0.1-0.8,0.2-1,0.5c-0.3,0.3-0.4,0.9-0.4,1.6l-3.6,0.1c0-1,0.2-1.8,0.5-2.5
		c0.3-0.6,0.8-1.1,1.4-1.5c0.7-0.4,1.5-0.7,2.7-0.8c1.3-0.2,2.2-0.2,2.9,0.1c0.7,0.2,1.4,0.5,1.8,1.1s0.7,1.2,0.8,1.9
		c0.1,0.8,0,1.5-0.4,2.4c-0.4,0.9-1.1,1.6-2.2,2.7c-0.6,0.6-1.1,1-1.3,1.3c-0.2,0.2-0.4,0.6-0.8,0.9l5.6-0.7L300,258.8z"/>
	<path d="M300.8,252.2c-0.3-2.4-0.1-4.2,0.7-5.2c0.8-1.1,2-1.7,3.8-2c0.9-0.1,1.6-0.1,2.1,0.1c0.6,0.1,1.1,0.4,1.5,0.6
		c0.4,0.3,0.7,0.6,0.9,1c0.2,0.4,0.5,0.7,0.6,1.2c0.3,1,0.6,1.9,0.7,2.9c0.3,2.3,0.1,4.1-0.6,5.2c-0.7,1.2-1.9,1.8-3.9,2.2
		c-1.1,0.1-2,0-2.6-0.2c-0.7-0.2-1.3-0.7-1.9-1.3c-0.4-0.5-0.7-1-0.9-1.8C301.1,254.2,300.9,253.2,300.8,252.2z M304.2,251.7
		c0.2,1.6,0.5,2.8,0.9,3.3c0.4,0.6,0.8,0.8,1.4,0.7c0.4,0,0.7-0.2,0.8-0.5c0.3-0.3,0.4-0.8,0.5-1.3c0-0.6,0-1.4-0.1-2.6
		c-0.2-1.7-0.5-2.9-0.9-3.3c-0.4-0.6-0.8-0.8-1.4-0.7s-1,0.4-1.2,1C304.1,249,304,250.1,304.2,251.7z"/>
	<path d="M312.7,250.7c-0.3-2.4-0.1-4.2,0.7-5.2c0.8-1.1,2-1.7,3.8-2c0.9-0.1,1.6-0.1,2.1,0.1c0.6,0.1,1.1,0.4,1.5,0.6
		c0.4,0.3,0.7,0.6,0.9,1c0.2,0.4,0.5,0.7,0.6,1.2c0.3,1,0.6,1.9,0.7,2.9c0.3,2.3,0.1,4.1-0.6,5.2s-1.9,1.8-3.9,2.2
		c-1.1,0.1-2,0-2.6-0.2c-0.7-0.2-1.3-0.7-1.9-1.3c-0.4-0.5-0.7-1-0.9-1.8C313,252.7,312.8,251.7,312.7,250.7z M316.2,250.3
		c0.2,1.6,0.5,2.8,0.9,3.3c0.4,0.6,0.8,0.8,1.4,0.7c0.4,0,0.7-0.2,0.8-0.5c0.3-0.3,0.4-0.8,0.5-1.3c0-0.6,0-1.4-0.1-2.6
		c-0.2-1.7-0.5-2.9-0.9-3.3c-0.4-0.6-0.8-0.8-1.4-0.7c-0.6,0.1-1,0.4-1.2,1C316,247.5,316,248.7,316.2,250.3z"/>
	<path d="M331.9,241.7l1.6,13l-3.6,0.4l-1.1-8.5c-0.5,0.5-1,0.9-1.6,1.3c-0.5,0.4-1.1,0.6-2,1l-0.3-2.9c1.1-0.5,2.1-1.1,2.6-1.7
		c0.6-0.7,1.1-1.3,1.4-2.2L331.9,241.7z"/>
</g>
<g>
	<path d="M284.6,148.1l-10.6,1.3c0-1.1,0.3-2.1,0.7-3.1c0.5-1,1.6-2.2,3.1-3.7c0.9-0.9,1.5-1.6,1.8-2c0.3-0.4,0.3-0.8,0.3-1.2
		c0-0.4-0.2-0.7-0.5-0.9c-0.3-0.3-0.7-0.3-1.1-0.3c-0.5,0.1-0.8,0.2-1,0.5c-0.3,0.3-0.4,0.9-0.4,1.6l-3.6,0.1c0-1,0.2-1.8,0.5-2.5
		c0.3-0.6,0.8-1.1,1.4-1.5c0.7-0.4,1.5-0.7,2.7-0.8c1.3-0.2,2.2-0.2,2.9,0.1c0.7,0.2,1.4,0.5,1.8,1.1s0.7,1.2,0.8,1.9
		c0.1,0.8,0,1.5-0.4,2.4c-0.4,0.9-1.1,1.6-2.2,2.7c-0.6,0.6-1.1,1-1.3,1.3c-0.2,0.2-0.4,0.6-0.8,0.9l5.6-0.7L284.6,148.1z"/>
	<path d="M285.4,141.4c-0.3-2.4-0.1-4.2,0.7-5.2c0.8-1.1,2-1.7,3.8-2c0.9-0.1,1.6-0.1,2.1,0.1c0.6,0.1,1.1,0.4,1.5,0.6
		c0.4,0.3,0.7,0.6,0.9,1c0.2,0.4,0.5,0.7,0.6,1.2c0.3,1,0.6,1.9,0.7,2.9c0.3,2.3,0.1,4.1-0.6,5.2c-0.7,1.2-1.9,1.8-3.9,2.2
		c-1.1,0.1-2,0-2.6-0.2c-0.7-0.2-1.3-0.7-1.9-1.3c-0.4-0.5-0.7-1-0.9-1.8C285.7,143.4,285.5,142.4,285.4,141.4z M288.8,140.9
		c0.2,1.6,0.5,2.8,0.9,3.3c0.4,0.6,0.8,0.8,1.4,0.7c0.4,0,0.7-0.2,0.8-0.5c0.3-0.3,0.4-0.8,0.5-1.3c0-0.6,0-1.4-0.1-2.6
		c-0.2-1.7-0.5-2.9-0.9-3.3c-0.4-0.6-0.8-0.8-1.4-0.7c-0.6,0.1-1,0.4-1.2,1C288.7,138.2,288.6,139.3,288.8,140.9z"/>
	<path d="M297.3,139.9c-0.3-2.4-0.1-4.2,0.7-5.2c0.8-1.1,2-1.7,3.8-2c0.9-0.1,1.6-0.1,2.1,0.1c0.6,0.1,1.1,0.4,1.5,0.6
		c0.4,0.3,0.7,0.6,0.9,1c0.2,0.4,0.5,0.7,0.6,1.2c0.3,1,0.6,1.9,0.7,2.9c0.3,2.3,0.1,4.1-0.6,5.2c-0.7,1.1-1.9,1.8-3.9,2.2
		c-1.1,0.1-2,0-2.6-0.2c-0.7-0.2-1.3-0.7-1.9-1.3c-0.4-0.5-0.7-1-0.9-1.8C297.6,141.9,297.4,140.9,297.3,139.9z M300.7,139.5
		c0.2,1.6,0.5,2.8,0.9,3.3c0.4,0.6,0.8,0.8,1.4,0.7c0.4,0,0.7-0.2,0.8-0.5c0.3-0.3,0.4-0.8,0.5-1.3c0-0.6,0-1.4-0.1-2.6
		c-0.2-1.7-0.5-2.9-0.9-3.3c-0.4-0.6-0.8-0.8-1.4-0.7c-0.6,0.1-1,0.4-1.2,1C300.6,136.7,300.6,137.9,300.7,139.5z"/>
	<path d="M316.4,130.9l1.6,13l-3.6,0.4l-1.1-8.5c-0.5,0.5-1,0.9-1.6,1.3c-0.5,0.4-1.1,0.6-2,1l-0.3-2.9c1.1-0.5,2.1-1.1,2.6-1.7
		c0.6-0.7,1.1-1.3,1.4-2.2L316.4,130.9z"/>
</g>
<g>
	<path d="M184.7,280.7l1.6,10.6c-1.1,0.1-2.1-0.2-3.1-0.7c-1-0.5-2.2-1.5-3.7-3c-0.9-0.9-1.6-1.5-2.1-1.7c-0.4-0.2-0.8-0.3-1.2-0.2
		c-0.4,0.1-0.7,0.2-0.9,0.5c-0.3,0.3-0.3,0.7-0.2,1.1c0.1,0.5,0.2,0.8,0.5,1c0.3,0.3,0.9,0.4,1.6,0.4l0.2,3.6c-1,0-1.8-0.2-2.5-0.5
		c-0.6-0.3-1.1-0.8-1.5-1.4c-0.4-0.7-0.7-1.5-0.9-2.7c-0.2-1.3-0.2-2.2,0-2.9c0.2-0.7,0.5-1.4,1.1-1.9c0.5-0.5,1.2-0.8,1.9-0.9
		c0.8-0.1,1.5,0,2.4,0.4s1.7,1.1,2.7,2.2c0.6,0.6,1.1,1.1,1.3,1.2c0.2,0.2,0.6,0.4,0.9,0.8l-0.8-5.5L184.7,280.7z"/>
	<path d="M178,280.1c-2.4,0.3-4.2,0.2-5.2-0.6c-1.1-0.8-1.8-2-2-3.8c-0.1-0.9-0.1-1.6,0-2.1c0.1-0.6,0.4-1.1,0.6-1.5
		c0.2-0.4,0.6-0.7,1-0.9c0.4-0.3,0.7-0.5,1.2-0.7c1-0.3,1.9-0.7,2.9-0.8c2.3-0.3,4.1-0.2,5.2,0.5c1.2,0.6,1.9,1.9,2.2,3.8
		c0.1,1.1,0.1,2-0.1,2.6c-0.2,0.7-0.6,1.3-1.3,1.9c-0.5,0.4-1,0.7-1.8,1S179,280,178,280.1z M177.5,276.6c1.6-0.2,2.7-0.6,3.3-1
		c0.6-0.4,0.8-0.8,0.7-1.4c-0.1-0.4-0.2-0.7-0.5-0.8c-0.3-0.3-0.8-0.4-1.3-0.4c-0.6,0-1.4,0-2.6,0.2c-1.7,0.2-2.8,0.6-3.3,1
		c-0.6,0.4-0.8,0.8-0.7,1.4c0.1,0.6,0.4,0.9,1.1,1.2C174.8,276.8,175.9,276.9,177.5,276.6z"/>
	<path d="M176.3,268.2c-2.4,0.3-4.2,0.2-5.2-0.6c-1.1-0.8-1.8-2-2-3.8c-0.1-0.9-0.1-1.6,0-2.1c0.1-0.6,0.4-1.1,0.6-1.5
		c0.2-0.4,0.6-0.7,1-0.9c0.4-0.3,0.7-0.5,1.2-0.7c1-0.3,1.9-0.7,2.9-0.8c2.3-0.3,4.1-0.2,5.2,0.5c1.1,0.7,1.9,1.9,2.2,3.8
		c0.1,1.1,0.1,2-0.1,2.6c-0.2,0.7-0.6,1.3-1.3,1.9c-0.5,0.4-1,0.7-1.8,1S177.3,268.1,176.3,268.2z M175.8,264.8
		c1.6-0.2,2.7-0.6,3.3-1c0.6-0.4,0.8-0.8,0.7-1.4c-0.1-0.4-0.2-0.7-0.5-0.8c-0.3-0.3-0.8-0.4-1.3-0.4c-0.6,0-1.4,0-2.6,0.2
		c-1.7,0.2-2.8,0.6-3.3,1c-0.6,0.4-0.8,0.8-0.7,1.4c0.1,0.6,0.4,0.9,1.1,1.2C173,264.9,174.3,265,175.8,264.8z"/>
	<path d="M166.9,249.2l13-1.9l0.5,3.6l-8.5,1.3c0.5,0.5,0.9,1,1.3,1.5c0.4,0.5,0.7,1.1,1.1,2l-2.9,0.4c-0.6-1.1-1.2-2.1-1.8-2.6
		c-0.7-0.6-1.4-1-2.2-1.3L166.9,249.2z"/>
</g>
<g>
	<path d="M169.2,172.7l1.6,10.6c-1.1,0.1-2.1-0.2-3.1-0.7c-1-0.5-2.2-1.5-3.7-3c-0.9-0.9-1.6-1.5-2.1-1.7s-0.8-0.3-1.2-0.2
		c-0.4,0.1-0.7,0.2-0.9,0.5c-0.3,0.3-0.3,0.7-0.2,1.1c0.1,0.5,0.2,0.8,0.5,1c0.3,0.3,0.9,0.4,1.6,0.4l0.2,3.6c-1,0-1.8-0.2-2.5-0.5
		c-0.6-0.3-1.1-0.8-1.5-1.4c-0.4-0.7-0.7-1.5-0.9-2.7c-0.2-1.3-0.2-2.2,0-2.9c0.2-0.7,0.5-1.4,1.1-1.9c0.5-0.5,1.2-0.8,1.9-0.9
		c0.8-0.1,1.5,0,2.4,0.4c0.9,0.4,1.7,1.1,2.7,2.2c0.6,0.6,1.1,1.1,1.3,1.2c0.2,0.2,0.6,0.4,0.9,0.8l-0.8-5.5L169.2,172.7z"/>
	<path d="M162.5,172.1c-2.4,0.3-4.2,0.2-5.2-0.6c-1.1-0.8-1.8-2-2-3.8c-0.1-0.9-0.1-1.6,0-2.1c0.1-0.6,0.4-1.1,0.6-1.5
		c0.2-0.4,0.6-0.7,1-0.9c0.4-0.3,0.7-0.5,1.2-0.7c1-0.3,1.9-0.7,2.9-0.8c2.3-0.3,4.1-0.2,5.2,0.5c1.2,0.6,1.9,1.9,2.2,3.8
		c0.1,1.1,0.1,2-0.1,2.6c-0.2,0.7-0.6,1.3-1.3,1.9c-0.5,0.4-1,0.7-1.8,1C164.5,171.8,163.5,172,162.5,172.1z M162,168.7
		c1.6-0.2,2.7-0.6,3.3-1c0.6-0.4,0.8-0.8,0.7-1.4c-0.1-0.4-0.2-0.7-0.5-0.8c-0.3-0.3-0.8-0.4-1.3-0.4c-0.6,0-1.4,0-2.6,0.2
		c-1.7,0.2-2.8,0.6-3.3,1c-0.6,0.4-0.8,0.8-0.7,1.4s0.4,0.9,1.1,1.2C159.3,168.8,160.4,168.9,162,168.7z"/>
	<path d="M160.8,160.2c-2.4,0.3-4.2,0.2-5.2-0.6c-1.1-0.8-1.8-2-2-3.8c-0.1-0.9-0.1-1.6,0-2.1c0.1-0.6,0.4-1.1,0.6-1.5
		c0.2-0.4,0.6-0.7,1-0.9c0.4-0.3,0.7-0.5,1.2-0.7c1-0.3,1.9-0.7,2.9-0.8c2.3-0.3,4.1-0.2,5.2,0.5s1.9,1.9,2.2,3.8
		c0.1,1.1,0.1,2-0.1,2.6c-0.2,0.7-0.6,1.3-1.3,1.9c-0.5,0.4-1,0.7-1.8,1C162.8,159.9,161.8,160.1,160.8,160.2z M160.3,156.8
		c1.6-0.2,2.7-0.6,3.3-1c0.6-0.4,0.8-0.8,0.7-1.4c-0.1-0.4-0.2-0.7-0.5-0.8c-0.3-0.3-0.8-0.4-1.3-0.4c-0.6,0-1.4,0-2.6,0.2
		c-1.7,0.2-2.8,0.6-3.3,1c-0.6,0.4-0.8,0.8-0.7,1.4c0.1,0.6,0.4,0.9,1.1,1.2C157.5,157,158.8,157,160.3,156.8z"/>
	<path d="M151.4,141.2l13-1.9l0.5,3.6l-8.5,1.3c0.5,0.5,0.9,1,1.3,1.5c0.4,0.5,0.7,1.1,1.1,2l-2.9,0.4c-0.6-1.1-1.2-2.1-1.8-2.6
		c-0.7-0.6-1.4-1-2.2-1.3L151.4,141.2z"/>
</g>
<polygon points="395.1,680.3 395.1,709.3 395.1,738.3 398.1,738.3 401.1,738.3 401.1,709.3 401.1,680.3 398.1,680.3 "/>
<path d="M384.9,692c-2.6-2.2-10.5-2.3-13.6-0.2c-2.2,1.6-7.7,16.9-6.6,18.7c1.4,2.3,3.4,0.3,4.9-5c2.2-7.7,2.5-8.6,3-8
	c0.2,0.2-0.9,5-2.5,10.6c-1.7,5.6-3,10.4-3,10.6c0,0.3,1.2,0.6,2.8,0.8c2.7,0.3,2.7,0.3,3.2,9.8c0.3,5.2,0.8,9.4,1.3,9.2
	c0.4-0.1,1.2-0.2,1.7-0.2c0.6,0,1-3.7,1-9s0.4-9,1-9s1,3.6,1,8.8c0,9.3,0.3,10.4,2.6,9.5c1.1-0.4,1.4-2.8,1.4-9.9v-9.4h3.1
	c2.5,0,3-0.3,2.5-1.6c-1.7-4.5-5.7-19.6-5.3-20c0.3-0.3,1.4,2.7,2.6,6.5c1.4,4.6,2.7,7.1,3.6,7.1c0.8,0,1.5-0.9,1.5-1.9
	C391.1,705.5,386.9,693.7,384.9,692z"/>
<path d="M426.6,692.8c-2.1-2.2-3.3-2.5-9-2.5s-6.9,0.3-9.1,2.5c-2.3,2.3-2.5,3.1-2.2,11.2c0.3,7.4,0.6,8.8,2.1,9.1s1.7-0.6,1.7-7.2
	c0-4.4,0.4-7.6,1-7.6s1,7.3,1,20v20h2.5h2.5l0.2-12.3l0.2-12.2l0.6,12c0.5,12,0.5,12,3,12h2.5l0.5-20c0.3-11,0.7-16.5,0.8-12.3
	c0.2,7.1,0.4,7.8,2.2,7.8c1.9,0,2-0.7,2-9S428.9,695,426.6,692.8z"/>
<ellipse transform="matrix(0.3827 -0.9239 0.9239 0.3827 -398.5478 769.7436)" cx="376.7" cy="683.1" rx="5.4" ry="5.4"/>
<ellipse transform="matrix(0.3827 -0.9239 0.9239 0.3827 -374.1012 806.3293)" cx="416.3" cy="683.1" rx="5.4" ry="5.4"/>
<g>
	<path d="M377.4,656.6h5l1.8,9.6l2.7-9.6h5l2.7,9.6l1.8-9.6h5l-3.8,17.2h-5.2l-3-10.8l-3,10.8h-5.2L377.4,656.6z"/>
	<path d="M414.2,666.7l4.7,1.4c-0.3,1.3-0.8,2.4-1.5,3.3s-1.5,1.5-2.5,2s-2.3,0.7-3.8,0.7c-1.9,0-3.4-0.3-4.6-0.8s-2.2-1.5-3.1-2.9
		s-1.3-3.1-1.3-5.2c0-2.8,0.8-5,2.3-6.6c1.5-1.5,3.7-2.3,6.4-2.3c2.2,0,3.9,0.4,5.1,1.3s2.2,2.2,2.8,4l-4.7,1
		c-0.2-0.5-0.3-0.9-0.5-1.1c-0.3-0.4-0.7-0.7-1.1-0.9s-0.9-0.3-1.4-0.3c-1.2,0-2.1,0.5-2.8,1.5c-0.5,0.7-0.7,1.8-0.7,3.4
		c0,1.9,0.3,3.2,0.9,3.9s1.4,1.1,2.4,1.1s1.8-0.3,2.3-0.9S413.9,667.8,414.2,666.7z"/>
</g>
<polygon points="2071.2,682.7 2071.2,711.7 2071.2,740.7 2074.2,740.7 2077.2,740.7 2077.2,711.7 2077.2,682.7 2074.2,682.7 "/>
<path d="M2061,694.4c-2.6-2.2-10.5-2.3-13.6-0.2c-2.2,1.6-7.7,16.9-6.6,18.7c1.4,2.3,3.4,0.3,4.9-5c2.2-7.7,2.5-8.6,3-8
	c0.2,0.2-0.9,5-2.5,10.6c-1.7,5.6-3,10.4-3,10.6c0,0.3,1.2,0.6,2.8,0.8c2.7,0.3,2.7,0.3,3.2,9.8c0.3,5.2,0.8,9.4,1.3,9.2
	c0.4-0.1,1.2-0.2,1.7-0.2c0.6,0,1-3.7,1-9s0.4-9,1-9c0.6,0,1,3.6,1,8.8c0,9.3,0.3,10.4,2.6,9.5c1.1-0.4,1.4-2.8,1.4-9.9v-9.4h3.1
	c2.5,0,3-0.3,2.5-1.6c-1.7-4.5-5.7-19.6-5.3-20c0.3-0.3,1.4,2.7,2.6,6.5c1.4,4.6,2.7,7.1,3.6,7.1c0.8,0,1.5-0.9,1.5-1.9
	C2067.2,707.9,2063,696.1,2061,694.4z"/>
<path d="M2102.7,695.2c-2.1-2.2-3.3-2.5-9-2.5c-5.7,0-6.9,0.3-9.1,2.5c-2.3,2.3-2.5,3.1-2.2,11.2c0.3,7.4,0.6,8.8,2.1,9.1
	s1.7-0.6,1.7-7.2c0-4.4,0.4-7.6,1-7.6c0.6,0,1,7.3,1,20v20h2.5h2.5l0.2-12.3l0.2-12.2l0.6,12c0.5,12,0.5,12,3,12h2.5l0.5-20
	c0.3-11,0.7-16.5,0.8-12.3c0.2,7.1,0.4,7.8,2.2,7.8c1.9,0,2-0.7,2-9S2105,697.4,2102.7,695.2z"/>
<ellipse transform="matrix(0.3827 -0.9239 0.9239 0.3827 633.8597 2319.7063)" cx="2052.8" cy="685.5" rx="5.4" ry="5.4"/>
<ellipse transform="matrix(0.3827 -0.9239 0.9239 0.3827 658.3063 2356.292)" cx="2092.4" cy="685.5" rx="5.4" ry="5.4"/>
<g>
	<path d="M2053.4,659h5l1.8,9.6l2.7-9.6h5l2.7,9.6l1.8-9.6h5l-3.8,17.2h-5.2l-3-10.8l-3,10.8h-5.2L2053.4,659z"/>
	<path d="M2090.2,669.1l4.7,1.4c-0.3,1.3-0.8,2.4-1.5,3.3c-0.7,0.9-1.5,1.5-2.5,2s-2.3,0.7-3.8,0.7c-1.9,0-3.4-0.3-4.6-0.8
		c-1.2-0.5-2.2-1.5-3.1-2.9c-0.9-1.4-1.3-3.1-1.3-5.2c0-2.8,0.8-5,2.3-6.6c1.5-1.5,3.7-2.3,6.4-2.3c2.2,0,3.9,0.4,5.1,1.3
		c1.2,0.9,2.2,2.2,2.8,4l-4.7,1c-0.2-0.5-0.3-0.9-0.5-1.1c-0.3-0.4-0.7-0.7-1.1-0.9c-0.4-0.2-0.9-0.3-1.4-0.3
		c-1.2,0-2.1,0.5-2.8,1.5c-0.5,0.7-0.7,1.8-0.7,3.4c0,1.9,0.3,3.2,0.9,3.9c0.6,0.7,1.4,1.1,2.4,1.1s1.8-0.3,2.3-0.9
		S2089.9,670.2,2090.2,669.1z"/>
</g>
<path d="M326.6,314c-0.6,0-2.8,2.3-5,5.2c-2.3,3-3.7,5.8-3.3,6.5c1.1,1.9,10.5,8.3,11.4,7.7c1.5-1,0.8-3.9-1.3-5.2
	c-1.2-0.7-1.9-1.5-1.7-1.8c0.2-0.2,6.9-1.3,14.9-2.4c20.8-3,23.6-3.9,20.9-6.6c-0.9-0.9-21.8,1.6-34.4,4l-2.8,0.6l1.7-2.6
	C328.6,316.8,328.4,314,326.6,314z"/>
<path d="M360,359c-1.9,1.6-1.9,5,0,5c1.6,0,8.5-8.6,8.5-10.6c0-1.5-8.7-8.4-10.6-8.4c-0.7,0-1.6,0.5-2,1.2c-0.4,0.6,0.4,2.1,2.1,3.4
	l2.8,2.2l-5.4,1c-3,0.6-10.9,1.8-17.6,2.8c-13.3,1.9-14.9,2.4-14,4.8c0.5,1.3,1.5,1.5,4.4,1.1c2.1-0.3,10.4-1.6,18.6-2.8
	c8.1-1.3,14.7-2,14.7-1.6S360.8,358.3,360,359z"/>
<g>
	<rect x="700" y="864" class="st0" width="47.8" height="17.5"/>
	<path class="st1" d="M701.3,876.8c0.5,0.3,1.7,0.9,3,0.9c2.4,0,3.1-1.5,3.1-2.6c0-1.9-1.7-2.7-3.5-2.7h-1v-1.4h1c1.3,0,3-0.7,3-2.3
		c0-1.1-0.7-2.1-2.4-2.1c-1.1,0-2.1,0.5-2.7,0.9l-0.5-1.3c0.7-0.5,2.1-1.1,3.6-1.1c2.7,0,3.9,1.6,3.9,3.3c0,1.4-0.8,2.6-2.5,3.2v0
		c1.7,0.3,3,1.6,3,3.5c0,2.2-1.7,4.1-5,4.1c-1.5,0-2.9-0.5-3.5-0.9L701.3,876.8z"/>
	<path class="st1" d="M722,872c0,4.6-1.7,7.2-4.7,7.2c-2.7,0-4.5-2.5-4.5-7c0-4.6,2-7.1,4.7-7.1C720.4,865.1,722,867.6,722,872z
		 M714.6,872.2c0,3.5,1.1,5.6,2.8,5.6c1.9,0,2.8-2.2,2.8-5.7c0-3.4-0.9-5.6-2.8-5.6C715.8,866.5,714.6,868.5,714.6,872.2z"/>
	<path class="st1" d="M734,872c0,4.6-1.7,7.2-4.7,7.2c-2.7,0-4.5-2.5-4.5-7c0-4.6,2-7.1,4.7-7.1C732.4,865.1,734,867.6,734,872z
		 M726.6,872.2c0,3.5,1.1,5.6,2.8,5.6c1.9,0,2.8-2.2,2.8-5.7c0-3.4-0.9-5.6-2.8-5.6C727.8,866.5,726.6,868.5,726.6,872.2z"/>
	<path class="st1" d="M745.1,866.8h-5.2l-0.5,3.5c0.3,0,0.6-0.1,1.1-0.1c1,0,2.1,0.2,2.9,0.7c1.1,0.6,2,1.8,2,3.5
		c0,2.7-2.1,4.7-5.1,4.7c-1.5,0-2.8-0.4-3.4-0.8l0.5-1.4c0.6,0.3,1.7,0.8,2.9,0.8c1.7,0,3.2-1.1,3.2-3c0-1.8-1.2-3-3.9-3
		c-0.8,0-1.4,0.1-1.9,0.1l0.9-6.6h6.5V866.8z"/>
</g>
<path d="M2138.2,312.1c-0.6-0.1-3.3,1.5-6.1,3.8c-3,2.3-5,4.7-4.8,5.5c0.6,2.1,8.1,10.6,9.1,10.3c1.7-0.6,1.7-3.6,0-5.4
	c-1-1-1.5-1.9-1.2-2.2c0.2-0.1,7,0.5,15,1.4c20.9,2.3,23.8,2.1,21.9-1.2c-0.6-1.1-21.5-3.9-34.3-4.7l-2.9-0.1l2.3-2.1
	C2139.4,315.3,2139.9,312.6,2138.2,312.1z"/>
<path d="M2159.3,364c-2.2,1.1-3.1,4.4-1.2,4.8c1.5,0.4,10.4-6.2,10.9-8.2c0.4-1.5-6.3-10.3-8.2-10.8c-0.7-0.2-1.7,0.1-2.2,0.7
	c-0.5,0.5-0.1,2.1,1.2,3.8l2.2,2.8l-5.5-0.4c-3.1-0.2-11-1-17.7-1.7c-13.4-1.5-15-1.4-14.8,1.2c0.2,1.4,1.1,1.8,4,2.2
	c2.1,0.2,10.5,1,18.7,1.9c8.2,0.8,14.7,1.7,14.6,2.1C2161.1,362.9,2160.3,363.5,2159.3,364z"/>
</svg>
