<?xml version="1.0" encoding="utf-8"?>
<!-- Generator: Adobe Illustrator 25.4.1, SVG Export Plug-In . SVG Version: 6.00 Build 0)  -->
<svg version="1.1" id="Слой_1" xmlns="http://www.w3.org/2000/svg" xmlns:xlink="http://www.w3.org/1999/xlink" x="0px" y="0px"
	 viewBox="0 0 2512 1040" style="enable-background:new 0 0 2512 1040;" xml:space="preserve">
<style type="text/css">
</style>
<g transform="translate(0.000000,1040.000000) scale(0.100000,-0.100000)">
	<path class="st0" d="M21113,8664c-83-608-154-1108-157-1112c-6-5-441,51-502,65c-20,4-23-9-83-444c-35-246-65-457-67-468
		c-5-19,8-22,257-57c144-21,264-39,266-42c2-2-65-507-150-1122l-153-1119l-294-247l-295-247l-1492-1h-1493v55v55h-475h-475v-320
		v-320h-1717c-945,0-2585-3-3645-7l-1928-6v321v322h-474h-475l-3-52l-3-53l-1493-3l-1492-2l-283,234c-156,129-288,241-294,248
		c-11,13-325,2239-317,2247c2,3,119,21,259,41s257,39,260,42c5,4-124,919-130,926c-2,2-118-13-259-34c-142-20-259-34-262-31
		c-3,2-74,503-159,1112c-85,610-156,1109-157,1110c-5,3-1133-157-1137-161c-3-2,70-527,160-1167l165-1162h40c21,0,376,49,787,109
		s749,107,751,105c5-6,107-711,103-715c-1-2-354-54-782-115c-429-62-783-115-787-118c-8-7,534-3837,544-3847c4-3,1040-3,2302,1
		l2296,8v243v244h1153c635,0,2653,3,4485,7l3332,6v-246v-247l2302,2l2302,3l268,1905c147,1048,267,1914,265,1925
		c-2,18-54,27-785,131c-430,61-784,113-786,115s20,165,48,362l51,359l25-5c14-3,590-85,1280-183c690-97,1259-180,1263-184
		c8-7-81-700-92-712c-3-4-131,11-285,33c-153,22-280,39-282,37c-6-7-468-3308-463-3313c3-2,124-21,270-40c348-47,312-36,304-95
		c-4-28-5-50-3-51c40-7,864-136,865-135s5,20,8,41l7,40l-382,62c-210,34-384,64-387,67c-4,3,191,1444,432,3201s437,3197,434,3199
		c-4,5-2189,306-2217,306C21267,9770,21245,9626,21113,8664z M22185,9529c407-55,805-109,885-120c264-34,301-41,307-55
		c3-7-39-329-92-716c-52-387-116-854-141-1038s-48-337-50-340c-5-4-1949,257-1994,269l-26,6l142,1040c154,1123,144,1073,204,1061
		C21434,9633,21778,9585,22185,9529z M3335,9611c3-6,39-252,80-548c51-365,71-541,64-548c-14-14-880-134-899-125
		c-22,12-170,1084-152,1102c11,11,776,124,859,127C3310,9619,3331,9616,3335,9611z M3505,8380c3-5,30-186,60-402s56-404,59-418
		s1-32-4-39c-5-10-139-32-426-72c-425-59-479-65-487-51c-3,4-31,197-63,429c-45,325-55,426-46,435c11,11,786,125,864,127
		C3482,8390,3502,8386,3505,8380z M21405,6520c241-33,443-64,448-69c8-8-128-1029-138-1040c-8-8-886,113-901,124c-10,8,2,113,57,515
		c38,278,71,511,74,518c2,6,8,12,12,12S21163,6553,21405,6520z M3760,6548c15-40,74-508,64-517c-10-10-902-136-910-129
		c-7,8-76,529-71,535c4,3,205,34,449,68s446,63,451,64C3747,6569,3755,6560,3760,6548z M22755,6373c99-14,185-31,192-37
		c9-8-24-255-140-1051c-151-1036-152-1040-176-1043c-36-5-394,49-408,62c-9,8,25,259,138,1041c83,567,152,1036,154,1043
		C22521,6405,22552,6403,22755,6373z M3845,5911c7-12,78-522,73-527c-6-5-859-124-891-124c-15,0-27,6-27,13s-16,125-35,262
		c-18,137-32,251-30,253c2,3,203,33,447,67c244,35,446,63,450,64S3841,5916,3845,5911z M21253,5360c243-34,443-63,446-65
		c5-6-64-524-72-531c-4-5-879,112-903,120c-7,3,0,85,23,258c38,279,37,278,54,278C20807,5420,21011,5393,21253,5360z M3937,5258
		c4-7,35-213,69-458c48-346,59-448,50-458c-7-7-187-36-450-73c-364-50-441-58-451-47c-17,17-141,906-128,919c8,8,813,126,875,128
		C3917,5270,3932,5264,3937,5258z M21183,4704c400-55,427-60,427-78c0-27-51-390-55-394c-6-6-899,119-907,126c-6,6,37,368,48,401
		c3,9,14,12,32,8C20743,4764,20947,4736,21183,4704z M21020,4215c559-85,500-72,494-103c-2-15-40-299-84-632s-83-622-86-642l-6-38
		h-412c-227,0-528,3-669,7l-257,6l1,251c1,138,4,348,8,467l6,217l304,266c204,180,308,265,320,262C20648,4273,20819,4246,21020,4215
		z M4346,4019c164-133,309-249,320-258c22-17,22-23,29-482l8-466l-258-6c-142-4-444-7-671-7h-413l-6,33c-9,56-174,1302-172,1303
		c1,1,180,28,397,59c217,30,400,58,405,60C4028,4271,4052,4256,4346,4019z M22397,4155c252-37,233-32,233-60c0-64-121-840-133-847
		c-6-4-23-6-37-3s-104,16-200,30s-179,30-184,35c-10,10,105,838,119,860C22203,4184,22207,4183,22397,4155z M16812,3853
		c17-15,18-37,18-269c0-216-2-255-16-268c-13-14-60-16-354-16c-339,0-339,0-354,22c-13,19-16,61-16,263s3,244,16,263
		c15,22,15,22,351,22C16756,3870,16795,3868,16812,3853z M8596,3836c21-29,21-503,0-532c-14-18-31-19-350-22c-326-3-336-2-356,18
		c-19,19-20,32-20,268c0,254,2,271,40,285c8,3,163,5,343,4C8566,3855,8582,3854,8596,3836z M17964,3754c14-5,16-56,16-470v-464h-509
		c-455,0-510,2-515,16c-3,9-6,215-6,458c0,330,3,445,12,454s134,12,499,12C17729,3760,17955,3757,17964,3754z M18429,3746
		c8-9,10-140,9-467l-3-454l-176-3l-176-2l-6,452c-3,279-2,459,4,470c9,16,27,18,173,18C18380,3760,18420,3757,18429,3746z
		 M18898,3748c14-14,17-894,4-916c-7-9-51-12-188-10l-179,3l-3,459c-2,361,0,461,10,468C18564,3765,18884,3762,18898,3748z
		 M19368,3748c14-14,17-894,4-916c-7-9-50-12-183-10l-174,3l-3,455c-1,250,0,461,3,468C19021,3765,19351,3765,19368,3748z
		 M19888,3748c14-14,17-894,4-916c-7-9-57-12-218-10l-209,3l-3,445c-1,245,0,455,3,468c5,22,6,22,208,22
		C19818,3760,19879,3757,19888,3748z M6161,3740c18-10,19-26,19-469v-459l-22-6c-45-12-323-7-341,7c-16,11-17,48-15,467l3,455l65,6
		C5984,3751,6141,3750,6161,3740z M6614,3744c14-5,16-56,16-470v-464l-177,2l-178,3l-3,455c-2,419-1,456,15,468
		C6305,3751,6583,3756,6614,3744z M7754,3303c4-244,5-454,2-468l-6-25h-510h-510v118c0,64-3,268-7,452c-6,310-5,337,11,353
		s54,17,514,15l497-3L7754,3303z M5230,3276c0-414-2-465-16-470c-20-8-368-8-388,0c-14,5-16,56-16,470v464h210h210V3276z M5708,3276
		c2-361,0-461-10-468c-16-10-339-10-354,0c-13,8-31,874-19,911c6,21,9,21,193,19l187-3L5708,3276z"/>
	<path class="st0" d="M16160,3590v-141l138,3l137,3v135v135l-137,3l-138,3V3590z"/>
	<path class="st0" d="M16487,3724c-4-4-7-67-7-141v-134l138,3l137,3v135v135l-131,3C16553,3729,16491,3727,16487,3724z"/>
	<path class="st0" d="M7952,3712c-9-6-12-42-10-143l3-134h135h135v140v140l-125,3C8021,3719,7959,3716,7952,3712z"/>
	<path class="st0" d="M8272,3708c-18-18-17-252,2-267c9-8,55-11,137-9l124,3v140v140l-125,3C8321,3720,8281,3717,8272,3708z"/>
	<path class="st0" d="M1520,9491c-303-43-325-48-323-66c0-11,200-1450,444-3198c243-1747,439-3180,436-3184c-4-3-175-34-381-67
		c-207-34-378-65-382-68c-3-4-3-20,1-37c5-25,11-30,28-26c12,2,198,34,412,70c215,36,400,67,413,70c20,5,21,10,16,44
		c-7,47-40,38,311,86c143,20,261,38,264,41c5,5-461,3292-470,3305c-3,6-114-7-284-31c-153-22-280-38-283-35c-7,6-103,707-98,712
		c2,3,131,23,286,46l282,41l-5,25c-3,14-78,542-168,1174c-90,631-165,1146-168,1146C1847,9538,1699,9517,1520,9491z M1759,9378
		c4-13,40-259,80-548c64-462,71-525,57-535c-19-14-399-67-420-59c-9,3-16,9-16,13c0,3-34,247-75,541c-60,431-72,537-62,548
		c13,13,306,59,385,61C1743,9400,1752,9396,1759,9378z M1935,8138c32-190,114-833,106-841c-4-4-87-19-182-32c-96-14-187-27-204-30
		c-16-2-36-1-43,3c-8,6-33,154-72,433c-47,340-56,427-46,437c13,13,305,59,388,61C1928,8170,1929,8169,1935,8138z M2184,6313
		c23-117,146-1067,139-1074c-11-11-402-68-420-62c-6,3-14,17-17,31c-8,37-146,1040-146,1058c0,17,19,22,209,49
		C2167,6347,2177,6347,2184,6313z M2354,5083c5-27,116-822,116-835c0-11-33-18-208-43c-221-31-230-31-237-2c-6,26-115,817-115,835
		c0,15,21,20,208,47C2338,5117,2347,5116,2354,5083z M2485,4110c12-19,124-855,115-864c-4-4-100-21-212-37c-158-22-206-25-215-16
		c-13,14-131,853-121,863c6,5,358,60,410,63C2471,4120,2482,4116,2485,4110z"/>
	<path class="st0" d="M22456,2528c-3-7-10-53-16-103c-6-49-13-102-16-117l-6-28h-2789h-2789v-785V710h-365h-365v790v790h-1983
		c-1091,0-2781-3-3755-7l-1772-6v-789V700h-365h-365v786v786l-2789-4l-2789-4l-5,26c-3,14-11,69-18,123c-10,76-16,97-28,97
		c-26,0-833-139-839-144c-2-3-2-20,2-39l6-34l377,63c208,35,379,61,381,59c3-2,192-1335,192-1355c0-3,1217-4,2705-2l2705,3V821V580
		h470h470v228v229l1598,6c878,4,2518,7,3645,7h2047V820V590h470h470v240v240h2705h2705l5,23c2,12,45,318,94,681
		c50,362,92,660,93,662c2,2,172-24,377-58c308-50,375-58,382-47c12,20,11,79-2,79c-12,0-769,118-812,126
		C22470,2540,22458,2537,22456,2528z M22353,2168c16-12,12-46-45-483c-33-259-66-476-71-483c-8-9-97-12-411-10l-401,3l-3,484
		c-2,381,0,486,10,493c7,4,214,8,459,8C22232,2180,22340,2177,22353,2168z M13034,2164c14-5,16-58,16-489s-2-484-16-489
		c-9-3-203-6-433-6c-311,0-420,3-429,12c-17,17-17,949,0,966c9,9,118,12,429,12C12831,2170,13025,2167,13034,2164z M14979,2156
		c8-9,10-146,9-487l-3-474l-907-3l-908-2v484c0,378,3,485,13,489c6,3,411,6,898,6C14818,2170,14969,2168,14979,2156z M15988,2158
		c9-9,12-130,12-484c0-260-3-475-7-477c-5-3-200-8-434-12c-388-6-427-5-442,10s-17,63-17,484c0,350,3,470,12,479
		C15129,2175,15971,2175,15988,2158z M17975,1680v-485l-499-3c-393-2-501,0-508,10c-4,7-8,222-8,479c0,350,3,468,12,477
		s131,12,508,10l495-3V1680z M19895,1680v-485h-905h-905l-3,475c-1,261,0,481,3,488c3,10,190,12,907,10l903-3V1680z M20375,1680
		v-485l-174-3c-133-2-176,1-183,10c-9,15-11,928-2,952c6,14,28,16,183,14l176-3V1680z M20838,2158c19-19,17-941-2-957
		c-9-8-68-11-187-9l-174,3l-3,475c-1,261,0,481,3,488C20481,2175,20821,2175,20838,2158z M21315,1680v-485h-185h-185l-3,475
		c-1,261,0,481,3,488c3,10,47,12,187,10l183-3V1680z M3738,2152c10-7,12-112,10-493l-3-484l-629-3c-357-1-634,2-639,7
		s-37,222-72,482c-58,434-62,475-47,487c12,9,166,12,691,12C3421,2160,3731,2156,3738,2152z M6624,2144c14-14,16-68,14-487l-3-472
		l-432-3l-433-2v484c0,378,3,485,13,489c6,3,195,6,419,6C6560,2160,6610,2158,6624,2144z M7769,2146c8-9,10-146,9-487l-3-474h-520
		h-520l-3,479c-2,377,0,481,10,488c7,4,239,8,514,8C7668,2160,7760,2158,7769,2146z M9020,1865v-295h570h570v-183
		c0-129-4-187-12-195c-9-9-179-12-704-12c-381,0-699,3-708,6c-14,5-16,57-16,474c0,258,3,475,6,484c5,14,28,16,150,16h144V1865z
		 M10160,1905v-255h-524c-289,0-527,3-529,8c-3,4-2,118,1,255l5,247h523h524V1905z M12048,1676c2-377,0-481-10-488c-7-4-405-8-885-8
		c-852,0-873,0-883,19c-11,22-15,943-3,954c3,4,405,6,892,5l886-3L12048,1676z M5684,2141c3-4,6-221,6-481c1-379-1-475-12-481
		c-7-5-412-9-899-9c-698,0-889,3-897,13c-7,8-11,173-12,477c-1,256-1,471-1,478c1,9,189,12,905,12C5272,2150,5681,2146,5684,2141z"
		/>
	<path class="st0" d="M8040,1585c0-107-3-195-7-195s-17,9-29,21c-23,21-44,19-44-5c0-7,23-35,51-61l51-47l49,48c27,26,49,54,49,61
		c0,23-22,25-44,4c-12-12-25-21-29-21s-7,88-7,195c0,188-1,195-20,195S8040,1773,8040,1585z"/>
	<path class="st0" d="M8366,1730c-44-47-51-70-22-70c7,0,21,9,31,20s21,20,24,20s6-82,5-183c-1-185,5-221,31-211c13,5,15,38,15,200
		c0,189,5,220,30,174c13-24,38-26,47-4c7,19-73,104-98,104C8420,1780,8392,1757,8366,1730z"/>
	<path class="st0" d="M16277,1773c-4-3-7-91-7-195v-189l-29,22c-29,21-51,19-51-5c0-7,23-35,51-61l51-48l54,54c48,47,52,55,39,68
		s-17,12-39-8l-24-22l-4,23c-2,13-3,93-2,178s0,163-3,173C16309,1780,16289,1786,16277,1773z"/>
	<path class="st0" d="M16602,1737c-23-23-42-50-42-60c0-24,37-22,50,3c25,46,30,15,30-173c0-107,3-196,6-200c3-3,12-3,20,0
		c11,4,14,42,14,199c0,189,5,220,30,174c13-25,50-27,50-3c0,22-79,103-100,103C16651,1780,16625,1761,16602,1737z"/>
</g>
<g>
	<rect x="697.9" y="864.9" class="st1" width="68.1" height="20.9"/>
	<path class="st0" d="M699.6,880.8c0.6,0.4,2.2,1.1,3.7,1.1c2.9,0,3.8-1.9,3.8-3.3c0-2.4-2.2-3.4-4.4-3.4h-1.3v-1.7h1.3
		c1.7,0,3.8-0.9,3.8-2.9c0-1.4-0.9-2.5-3-2.5c-1.4,0-2.7,0.6-3.4,1.1l-0.6-1.7c0.9-0.6,2.6-1.3,4.4-1.3c3.3,0,4.8,2,4.8,4
		c0,1.7-1,3.2-3.1,4v0.1c2.1,0.4,3.8,2,3.8,4.3c0,2.7-2.1,5.1-6.2,5.1c-1.9,0-3.6-0.6-4.4-1.1L699.6,880.8z"/>
	<path class="st0" d="M723.6,874.8c0,5.7-2.1,8.9-5.9,8.9c-3.3,0-5.5-3.1-5.6-8.7c0-5.7,2.4-8.8,5.9-8.8
		C721.6,866.2,723.6,869.4,723.6,874.8z M714.4,875c0,4.4,1.4,6.9,3.4,6.9c2.3,0,3.5-2.7,3.5-7c0-4.2-1.1-6.9-3.4-6.9
		C715.9,868,714.4,870.4,714.4,875z"/>
	<path class="st0" d="M736.9,874.8c0,5.7-2.1,8.9-5.9,8.9c-3.3,0-5.5-3.1-5.6-8.7c0-5.7,2.4-8.8,5.9-8.8
		C734.9,866.2,736.9,869.4,736.9,874.8z M727.8,875c0,4.4,1.4,6.9,3.4,6.9c2.3,0,3.5-2.7,3.5-7c0-4.2-1.1-6.9-3.4-6.9
		C729.2,868,727.8,870.4,727.8,875z"/>
	<path class="st0" d="M749.1,868.4h-6.4l-0.6,4.3c0.4-0.1,0.8-0.1,1.4-0.1c1.3,0,2.6,0.3,3.6,0.9c1.3,0.8,2.4,2.2,2.4,4.3
		c0,3.3-2.6,5.8-6.3,5.8c-1.8,0-3.4-0.5-4.2-1l0.6-1.7c0.7,0.4,2.1,0.9,3.6,0.9c2.2,0,4-1.4,4-3.7c0-2.2-1.5-3.7-4.9-3.7
		c-1,0-1.7,0.1-2.3,0.2l1.1-8.1h8.1V868.4z"/>
</g>
</svg>
