<svg xmlns="http://www.w3.org/2000/svg" viewBox="0 0 2512 1040" style="enable-background:new 0 0 2512 1040" xml:space="preserve">
		<!-- STYLES -->
	<path class="st0" d="M2111.3 173.6c-8.3 60.8-15.4 110.8-15.7 111.2-.6.5-44.1-5.1-50.2-6.5-2-.4-2.3.9-8.3 44.4-3.5 24.6-6.5 45.7-6.7 46.8-.5 1.9.8 2.2 25.7 5.7 14.4 2.1 26.4 3.9 26.6 4.2.2.2-6.5 50.7-15 112.2l-15.3 111.9-29.4 24.7-29.5 24.7-149.2.1H1695v-11h-95v64h-171.7c-94.5 0-258.5.3-364.5.7l-192.8.6V643h-94.9l-.3 5.2-.3 5.3-149.3.3-149.2.2-28.3-23.4c-15.6-12.9-28.8-24.1-29.4-24.8-1.1-1.3-32.5-223.9-31.7-224.7.2-.3 11.9-2.1 25.9-4.1s25.7-3.9 26-4.2c.5-.4-12.4-91.9-13-92.6-.2-.2-11.8 1.3-25.9 3.4-14.2 2-25.9 3.4-26.2 3.1-.3-.2-7.4-50.3-15.9-111.2-8.5-61-15.6-110.9-15.7-111-.5-.3-113.3 15.7-113.7 16.1-.3.2 7 52.7 16 116.7l16.5 116.2h4c2.1 0 37.6-4.9 78.7-10.9s74.9-10.7 75.1-10.5c.5.6 10.7 71.1 10.3 71.5-.1.2-35.4 5.4-78.2 11.5-42.9 6.2-78.3 11.5-78.7 11.8-.8.7 53.4 383.7 54.4 384.7.4.3 104 .3 230.2-.1l229.6-.8V722h115.3c63.5 0 265.3-.3 448.5-.7l333.2-.6V770l230.2-.2 230.2-.3 26.8-190.5c14.7-104.8 26.7-191.4 26.5-192.5-.2-1.8-5.4-2.7-78.5-13.1-43-6.1-78.4-11.3-78.6-11.5s2-16.5 4.8-36.2l5.1-35.9 2.5.5c1.4.3 59 8.5 128 18.3 69 9.7 125.9 18 126.3 18.4.8.7-8.1 70-9.2 71.2-.3.4-13.1-1.1-28.5-3.3-15.3-2.2-28-3.9-28.2-3.7-.6.7-46.8 330.8-46.3 331.3.3.2 12.4 2.1 27 4 34.8 4.7 31.2 3.6 30.4 9.5-.4 2.8-.5 5-.3 5.1 4 .7 86.4 13.6 86.5 13.5s.5-2 .8-4.1l.7-4-38.2-6.2c-21-3.4-38.4-6.4-38.7-6.7-.4-.3 19.1-144.4 43.2-320.1s43.7-319.7 43.4-319.9c-.4-.5-218.9-30.6-221.7-30.6-1.5 0-3.7 14.4-16.9 110.6zm107.2-86.5c40.7 5.5 80.5 10.9 88.5 12 26.4 3.4 30.1 4.1 30.7 5.5.3.7-3.9 32.9-9.2 71.6-5.2 38.7-11.6 85.4-14.1 103.8s-4.8 33.7-5 34c-.5.4-194.9-25.7-199.4-26.9l-2.6-.6 14.2-104C2137 70.2 2136 75.2 2142 76.4c1.4.3 35.8 5.1 76.5 10.7zm-1885-8.2c.3.6 3.9 25.2 8 54.8 5.1 36.5 7.1 54.1 6.4 54.8-1.4 1.4-88 13.4-89.9 12.5-2.2-1.2-17-108.4-15.2-110.2 1.1-1.1 77.6-12.4 85.9-12.7 2.3 0 4.4.3 4.8.8zm17 123.1c.3.5 3 18.6 6 40.2s5.6 40.4 5.9 41.8.1 3.2-.4 3.9c-.5 1-13.9 3.2-42.6 7.2-42.5 5.9-47.9 6.5-48.7 5.1-.3-.4-3.1-19.7-6.3-42.9-4.5-32.5-5.5-42.6-4.6-43.5 1.1-1.1 78.6-12.5 86.4-12.7 2-.1 4 .3 4.3.9zm1790 186c24.1 3.3 44.3 6.4 44.8 6.9.8.8-12.8 102.9-13.8 104-.8.8-88.6-11.3-90.1-12.4-1-.8.2-11.3 5.7-51.5 3.8-27.8 7.1-51.1 7.4-51.8.2-.6.8-1.2 1.2-1.2s20.6 2.7 44.8 6zM376 385.2c1.5 4 7.4 50.8 6.4 51.7-1 1-90.2 13.6-91 12.9-.7-.8-7.6-52.9-7.1-53.5.4-.3 20.5-3.4 44.9-6.8s44.6-6.3 45.1-6.4c.4 0 1.2.9 1.7 2.1zm1899.5 17.5c9.9 1.4 18.5 3.1 19.2 3.7.9.8-2.4 25.5-14 105.1-15.1 103.6-15.2 104-17.6 104.3-3.6.5-39.4-4.9-40.8-6.2-.9-.8 2.5-25.9 13.8-104.1 8.3-56.7 15.2-103.6 15.4-104.3.6-1.7 3.7-1.5 24 1.5zm-1891 46.2c.7 1.2 7.8 52.2 7.3 52.7-.6.5-85.9 12.4-89.1 12.4-1.5 0-2.7-.6-2.7-1.3s-1.6-12.5-3.5-26.2c-1.8-13.7-3.2-25.1-3-25.3.2-.3 20.3-3.3 44.7-6.7 24.4-3.5 44.6-6.3 45-6.4s.9.3 1.3.8zM2125.3 504c24.3 3.4 44.3 6.3 44.6 6.5.5.6-6.4 52.4-7.2 53.1-.4.5-87.9-11.2-90.3-12-.7-.3 0-8.5 2.3-25.8 3.8-27.9 3.7-27.8 5.4-27.8.6 0 21 2.7 45.2 6zM393.7 514.2c.4.7 3.5 21.3 6.9 45.8 4.8 34.6 5.9 44.8 5 45.8-.7.7-18.7 3.6-45 7.3-36.4 5-44.1 5.8-45.1 4.7-1.7-1.7-14.1-90.6-12.8-91.9.8-.8 81.3-12.6 87.5-12.8 1.5-.1 3 .5 3.5 1.1zm1724.6 55.4c40 5.5 42.7 6 42.7 7.8 0 2.7-5.1 39-5.5 39.4-.6.6-89.9-11.9-90.7-12.6-.6-.6 3.7-36.8 4.8-40.1.3-.9 1.4-1.2 3.2-.8 1.5.3 21.9 3.1 45.5 6.3zm-16.3 48.9c55.9 8.5 50 7.2 49.4 10.3-.2 1.5-4 29.9-8.4 63.2s-8.3 62.2-8.6 64.2l-.6 3.8h-41.2c-22.7 0-52.8-.3-66.9-.7l-25.7-.6.1-25.1c.1-13.8.4-34.8.8-46.7l.6-21.7 30.4-26.6c20.4-18 30.8-26.5 32-26.2.9.3 18 3 38.1 6.1zM434.6 638.1c16.4 13.3 30.9 24.9 32 25.8 2.2 1.7 2.2 2.3 2.9 48.2l.8 46.6-25.8.6c-14.2.4-44.4.7-67.1.7h-41.3l-.6-3.3c-.9-5.6-17.4-130.2-17.2-130.3.1-.1 18-2.8 39.7-5.9 21.7-3 40-5.8 40.5-6 4.3-1.6 6.7-.1 36.1 23.6zm1805.1-13.6c25.2 3.7 23.3 3.2 23.3 6 0 6.4-12.1 84-13.3 84.7-.6.4-2.3.6-3.7.3s-10.4-1.6-20-3-17.9-3-18.4-3.5c-1-1 10.5-83.8 11.9-86 .8-1.4 1.2-1.3 20.2 1.5zm-558.5 30.2c1.7 1.5 1.8 3.7 1.8 26.9 0 21.6-.2 25.5-1.6 26.8-1.3 1.4-6 1.6-35.4 1.6-33.9 0-33.9 0-35.4-2.2-1.3-1.9-1.6-6.1-1.6-26.3s.3-24.4 1.6-26.3c1.5-2.2 1.5-2.2 35.1-2.2 29.9 0 33.8.2 35.5 1.7zm-821.6 1.7c2.1 2.9 2.1 50.3 0 53.2-1.4 1.8-3.1 1.9-35 2.2-32.6.3-33.6.2-35.6-1.8-1.9-1.9-2-3.2-2-26.8 0-25.4.2-27.1 4-28.5.8-.3 16.3-.5 34.3-.4 31.3.2 32.9.3 34.3 2.1zm936.8 8.2c1.4.5 1.6 5.6 1.6 47V758h-50.9c-45.5 0-51-.2-51.5-1.6-.3-.9-.6-21.5-.6-45.8 0-33 .3-44.5 1.2-45.4s13.4-1.2 49.9-1.2c26.8 0 49.4.3 50.3.6zm46.5.8c.8.9 1 14 .9 46.7l-.3 45.4-17.6.3-17.6.2-.6-45.2c-.3-27.9-.2-45.9.4-47 .9-1.6 2.7-1.8 17.3-1.8 12.6 0 16.6.3 17.5 1.4zm46.9-.2c1.4 1.4 1.7 89.4.4 91.6-.7.9-5.1 1.2-18.8 1l-17.9-.3-.3-45.9c-.2-36.1 0-46.1 1-46.8 2.2-1.3 34.2-1 35.6.4zm47 0c1.4 1.4 1.7 89.4.4 91.6-.7.9-5 1.2-18.3 1l-17.4-.3-.3-45.5c-.1-25 0-46.1.3-46.8.6-1.7 33.6-1.7 35.3 0zm52 0c1.4 1.4 1.7 89.4.4 91.6-.7.9-5.7 1.2-21.8 1l-20.9-.3-.3-44.5c-.1-24.5 0-45.5.3-46.8.5-2.2.6-2.2 20.8-2.2 14.5 0 20.6.3 21.5 1.2zm-1372.7.8c1.8 1 1.9 2.6 1.9 46.9v45.9l-2.2.6c-4.5 1.2-32.3.7-34.1-.7-1.6-1.1-1.7-4.8-1.5-46.7l.3-45.5 6.5-.6c11.4-1 27.1-.9 29.1.1zm45.3-.4c1.4.5 1.6 5.6 1.6 47V759l-17.7-.2-17.8-.3-.3-45.5c-.2-41.9-.1-45.6 1.5-46.8 1.8-1.3 29.6-1.8 32.7-.6zm114 44.1c.4 24.4.5 45.4.2 46.8l-.6 2.5H673v-11.8c0-6.4-.3-26.8-.7-45.2-.6-31-.5-33.7 1.1-35.3s5.4-1.7 51.4-1.5l49.7.3.9 44.2zM523 712.4c0 41.4-.2 46.5-1.6 47-2 .8-36.8.8-38.8 0-1.4-.5-1.6-5.6-1.6-47V666h42v46.4zm47.8 0c.2 36.1 0 46.1-1 46.8-1.6 1-33.9 1-35.4 0-1.3-.8-3.1-87.4-1.9-91.1.6-2.1.9-2.1 19.3-1.9l18.7.3.3 45.9z"/><path class="st0" d="M1616 681v14.1l13.8-.3 13.7-.3v-27l-13.7-.3-13.8-.3V681zM1648.7 667.6c-.4.4-.7 6.7-.7 14.1v13.4l13.8-.3 13.7-.3v-27l-13.1-.3c-7.1-.1-13.3.1-13.7.4zM795.2 668.8c-.9.6-1.2 4.2-1 14.3l.3 13.4h27v-28l-12.5-.3c-6.9-.1-13.1.2-13.8.6zM827.2 669.2c-1.8 1.8-1.7 25.2.2 26.7.9.8 5.5 1.1 13.7.9l12.4-.3v-28l-12.5-.3c-8.9-.2-12.9.1-13.8 1zM152 90.9c-30.3 4.3-32.5 4.8-32.3 6.6 0 1.1 20 145 44.4 319.8 24.3 174.7 43.9 318 43.6 318.4-.4.3-17.5 3.4-38.1 6.7-20.7 3.4-37.8 6.5-38.2 6.8-.3.4-.3 2 .1 3.7.5 2.5 1.1 3 2.8 2.6 1.2-.2 19.8-3.4 41.2-7 21.5-3.6 40-6.7 41.3-7 2-.5 2.1-1 1.6-4.4-.7-4.7-4-3.8 31.1-8.6 14.3-2 26.1-3.8 26.4-4.1.5-.5-46.1-329.2-47-330.5-.3-.6-11.4.7-28.4 3.1-15.3 2.2-28 3.8-28.3 3.5-.7-.6-10.3-70.7-9.8-71.2.2-.3 13.1-2.3 28.6-4.6l28.2-4.1-.5-2.5c-.3-1.4-7.8-54.2-16.8-117.4-9-63.1-16.5-114.6-16.8-114.6-.4.1-15.2 2.2-33.1 4.8zm23.9 11.3c.4 1.3 4 25.9 8 54.8 6.4 46.2 7.1 52.5 5.7 53.5-1.9 1.4-39.9 6.7-42 5.9-.9-.3-1.6-.9-1.6-1.3 0-.3-3.4-24.7-7.5-54.1-6-43.1-7.2-53.7-6.2-54.8 1.3-1.3 30.6-5.9 38.5-6.1 3.5-.1 4.4.3 5.1 2.1zm17.6 124c3.2 19 11.4 83.3 10.6 84.1-.4.4-8.7 1.9-18.2 3.2-9.6 1.4-18.7 2.7-20.4 3-1.6.2-3.6.1-4.3-.3-.8-.6-3.3-15.4-7.2-43.3-4.7-34-5.6-42.7-4.6-43.7 1.3-1.3 30.5-5.9 38.8-6.1 4.6-.1 4.7 0 5.3 3.1zm24.9 182.5c2.3 11.7 14.6 106.7 13.9 107.4-1.1 1.1-40.2 6.8-42 6.2-.6-.3-1.4-1.7-1.7-3.1-.8-3.7-14.6-104-14.6-105.8 0-1.7 1.9-2.2 20.9-4.9 21.8-3.2 22.8-3.2 23.5.2zm17 123c.5 2.7 11.6 82.2 11.6 83.5 0 1.1-3.3 1.8-20.8 4.3-22.1 3.1-23 3.1-23.7.2-.6-2.6-11.5-81.7-11.5-83.5 0-1.5 2.1-2 20.8-4.7 22-3.2 22.9-3.1 23.6.2zm13.1 97.3c1.2 1.9 12.4 85.5 11.5 86.4-.4.4-10 2.1-21.2 3.7-15.8 2.2-20.6 2.5-21.5 1.6-1.3-1.4-13.1-85.3-12.1-86.3.6-.5 35.8-6 41-6.3.9-.1 2 .3 2.3.9zM2245.6 787.2c-.3.7-1 5.3-1.6 10.3-.6 4.9-1.3 10.2-1.6 11.7l-.6 2.8H1684v157h-73V811h-198.3c-109.1 0-278.1.3-375.5.7l-177.2.6V970h-73V812.8l-278.9.4-278.9.4-.5-2.6c-.3-1.4-1.1-6.9-1.8-12.3-1-7.6-1.6-9.7-2.8-9.7-2.6 0-83.3 13.9-83.9 14.4-.2.3-.2 2 .2 3.9l.6 3.4 37.7-6.3c20.8-3.5 37.9-6.1 38.1-5.9.3.2 19.2 133.5 19.2 135.5 0 .3 121.7.4 270.5.2l270.5-.3V982h94v-45.7l159.8-.6c87.8-.4 251.8-.7 364.5-.7H1600v46h94v-48h541l.5-2.3c.2-1.2 4.5-31.8 9.4-68.1 5-36.2 9.2-66 9.3-66.2.2-.2 17.2 2.4 37.7 5.8 30.8 5 37.5 5.8 38.2 4.7 1.2-2 1.1-7.9-.2-7.9-1.2 0-76.9-11.8-81.2-12.6-1.7-.4-2.9-.1-3.1.8zm-10.3 36c1.6 1.2 1.2 4.6-4.5 48.3-3.3 25.9-6.6 47.6-7.1 48.3-.8.9-9.7 1.2-41.1 1l-40.1-.3-.3-48.4c-.2-38.1 0-48.6 1-49.3.7-.4 21.4-.8 45.9-.8 34.1 0 44.9.3 46.2 1.2zm-931.9.4c1.4.5 1.6 5.8 1.6 48.9s-.2 48.4-1.6 48.9c-.9.3-20.3.6-43.3.6-31.1 0-42-.3-42.9-1.2-1.7-1.7-1.7-94.9 0-96.6.9-.9 11.8-1.2 42.9-1.2 23 0 42.4.3 43.3.6zm194.5.8c.8.9 1 14.6.9 48.7l-.3 47.4-90.7.3-90.8.2v-48.4c0-37.8.3-48.5 1.3-48.9.6-.3 41.1-.6 89.8-.6 73.7-.1 88.8.1 89.8 1.3zm100.9-.2c.9.9 1.2 13 1.2 48.4 0 26-.3 47.5-.7 47.7-.5.3-20 .8-43.4 1.2-38.8.6-42.7.5-44.2-1s-1.7-6.3-1.7-48.4c0-35 .3-47 1.2-47.9 1.7-1.7 85.9-1.7 87.6 0zm198.7 47.8v48.5l-49.9.3c-39.3.2-50.1 0-50.8-1-.4-.7-.8-22.2-.8-47.9 0-35 .3-46.8 1.2-47.7s13.1-1.2 50.8-1l49.5.3V872zm192 0v48.5h-181l-.3-47.5c-.1-26.1 0-48.1.3-48.8.3-1 19-1.2 90.7-1l90.3.3V872zm48 0v48.5l-17.4.3c-13.3.2-17.6-.1-18.3-1-.9-1.5-1.1-92.8-.2-95.2.6-1.4 2.8-1.6 18.3-1.4l17.6.3V872zm46.3-47.8c1.9 1.9 1.7 94.1-.2 95.7-.9.8-6.8 1.1-18.7.9l-17.4-.3-.3-47.5c-.1-26.1 0-48.1.3-48.8.6-1.7 34.6-1.7 36.3 0zm47.7 47.8v48.5h-37l-.3-47.5c-.1-26.1 0-48.1.3-48.8.3-1 4.7-1.2 18.7-1l18.3.3V872zM373.8 824.8c1 .7 1.2 11.2 1 49.3l-.3 48.4-62.9.3c-35.7.1-63.4-.2-63.9-.7s-3.7-22.2-7.2-48.2c-5.8-43.4-6.2-47.5-4.7-48.7 1.2-.9 16.6-1.2 69.1-1.2 37.2 0 68.2.4 68.9.8zm288.6.8c1.4 1.4 1.6 6.8 1.4 48.7l-.3 47.2-43.2.3-43.3.2v-48.4c0-37.8.3-48.5 1.3-48.9.6-.3 19.5-.6 41.9-.6 35.8-.1 40.8.1 42.2 1.5zm114.5-.2c.8.9 1 14.6.9 48.7l-.3 47.4h-104l-.3-47.9c-.2-37.7 0-48.1 1-48.8.7-.4 23.9-.8 51.4-.8 41.2 0 50.4.2 51.3 1.4zM902 853.5V883h114v18.3c0 12.9-.4 18.7-1.2 19.5-.9.9-17.9 1.2-70.4 1.2-38.1 0-69.9-.3-70.8-.6-1.4-.5-1.6-5.7-1.6-47.4 0-25.8.3-47.5.6-48.4.5-1.4 2.8-1.6 15-1.6H902v29.5zm114-4V875h-52.4c-28.9 0-52.7-.3-52.9-.8-.3-.4-.2-11.8.1-25.5l.5-24.7H1016v25.5zm188.8 22.9c.2 37.7 0 48.1-1 48.8-.7.4-40.5.8-88.5.8-85.2 0-87.3 0-88.3-1.9-1.1-2.2-1.5-94.3-.3-95.4.3-.4 40.5-.6 89.2-.5l88.6.3.3 47.9zm-636.4-46.5c.3.4.6 22.1.6 48.1.1 37.9-.1 47.5-1.2 48.1-.7.5-41.2.9-89.9.9-69.8 0-88.9-.3-89.7-1.3-.7-.8-1.1-17.3-1.2-47.7-.1-25.6-.1-47.1-.1-47.8.1-.9 18.9-1.2 90.5-1.2 49.8 0 90.7.4 91 .9z"/><path class="st0" d="M804 881.5c0 10.7-.3 19.5-.7 19.5s-1.7-.9-2.9-2.1c-2.3-2.1-4.4-1.9-4.4.5 0 .7 2.3 3.5 5.1 6.1l5.1 4.7 4.9-4.8c2.7-2.6 4.9-5.4 4.9-6.1 0-2.3-2.2-2.5-4.4-.4-1.2 1.2-2.5 2.1-2.9 2.1s-.7-8.8-.7-19.5c0-18.8-.1-19.5-2-19.5s-2 .7-2 19.5zM836.6 867c-4.4 4.7-5.1 7-2.2 7 .7 0 2.1-.9 3.1-2s2.1-2 2.4-2 .6 8.2.5 18.3c-.1 18.5.5 22.1 3.1 21.1 1.3-.5 1.5-3.8 1.5-20 0-18.9.5-22 3-17.4 1.3 2.4 3.8 2.6 4.7.4.7-1.9-7.3-10.4-9.8-10.4-.9 0-3.7 2.3-6.3 5zM1627.7 862.7c-.4.3-.7 9.1-.7 19.5v18.9l-2.9-2.2c-2.9-2.1-5.1-1.9-5.1.5 0 .7 2.3 3.5 5.1 6.1l5.1 4.8 5.4-5.4c4.8-4.7 5.2-5.5 3.9-6.8s-1.7-1.2-3.9.8l-2.4 2.2-.4-2.3c-.2-1.3-.3-9.3-.2-17.8s0-16.3-.3-17.3c-.4-1.7-2.4-2.3-3.6-1zM1660.2 866.3c-2.3 2.3-4.2 5-4.2 6 0 2.4 3.7 2.2 5-.3 2.5-4.6 3-1.5 3 17.3 0 10.7.3 19.6.6 20 .3.3 1.2.3 2 0 1.1-.4 1.4-4.2 1.4-19.9 0-18.9.5-22 3-17.4 1.3 2.5 5 2.7 5 .3 0-2.2-7.9-10.3-10-10.3-.9 0-3.5 1.9-5.8 4.3zM395.1 680.3v58h6v-58h-3zM384.9 692c-2.6-2.2-10.5-2.3-13.6-.2-2.2 1.6-7.7 16.9-6.6 18.7 1.4 2.3 3.4.3 4.9-5 2.2-7.7 2.5-8.6 3-8 .2.2-.9 5-2.5 10.6-1.7 5.6-3 10.4-3 10.6 0 .3 1.2.6 2.8.8 2.7.3 2.7.3 3.2 9.8.3 5.2.8 9.4 1.3 9.2.4-.1 1.2-.2 1.7-.2.6 0 1-3.7 1-9s.4-9 1-9 1 3.6 1 8.8c0 9.3.3 10.4 2.6 9.5 1.1-.4 1.4-2.8 1.4-9.9v-9.4h3.1c2.5 0 3-.3 2.5-1.6-1.7-4.5-5.7-19.6-5.3-20 .3-.3 1.4 2.7 2.6 6.5 1.4 4.6 2.7 7.1 3.6 7.1.8 0 1.5-.9 1.5-1.9 0-3.9-4.2-15.7-6.2-17.4zM426.6 692.8c-2.1-2.2-3.3-2.5-9-2.5s-6.9.3-9.1 2.5c-2.3 2.3-2.5 3.1-2.2 11.2.3 7.4.6 8.8 2.1 9.1s1.7-.6 1.7-7.2c0-4.4.4-7.6 1-7.6s1 7.3 1 20v20h5l.2-12.3.2-12.2.6 12c.5 12 .5 12 3 12h2.5l.5-20c.3-11 .7-16.5.8-12.3.2 7.1.4 7.8 2.2 7.8 1.9 0 2-.7 2-9s-.2-9.3-2.5-11.5z"/><circle transform="rotate(-67.5 376.723 683.091)" class="st0" cx="376.7" cy="683.1" r="5.4"/><circle transform="rotate(-67.5 416.322 683.09)" class="st0" cx="416.3" cy="683.1" r="5.4"/><path class="st0" d="M377.4 656.6h5l1.8 9.6 2.7-9.6h5l2.7 9.6 1.8-9.6h5l-3.8 17.2h-5.2l-3-10.8-3 10.8h-5.2l-3.8-17.2zM414.2 666.7l4.7 1.4c-.3 1.3-.8 2.4-1.5 3.3s-1.5 1.5-2.5 2-2.3.7-3.8.7c-1.9 0-3.4-.3-4.6-.8s-2.2-1.5-3.1-2.9-1.3-3.1-1.3-5.2c0-2.8.8-5 2.3-6.6 1.5-1.5 3.7-2.3 6.4-2.3 2.2 0 3.9.4 5.1 1.3s2.2 2.2 2.8 4l-4.7 1c-.2-.5-.3-.9-.5-1.1-.3-.4-.7-.7-1.1-.9s-.9-.3-1.4-.3c-1.2 0-2.1.5-2.8 1.5-.5.7-.7 1.8-.7 3.4 0 1.9.3 3.2.9 3.9s1.4 1.1 2.4 1.1 1.8-.3 2.3-.9.8-1.5 1.1-2.6zM2071.2 682.7v58h6v-58h-3zM2061 694.4c-2.6-2.2-10.5-2.3-13.6-.2-2.2 1.6-7.7 16.9-6.6 18.7 1.4 2.3 3.4.3 4.9-5 2.2-7.7 2.5-8.6 3-8 .2.2-.9 5-2.5 10.6-1.7 5.6-3 10.4-3 10.6 0 .3 1.2.6 2.8.8 2.7.3 2.7.3 3.2 9.8.3 5.2.8 9.4 1.3 9.2.4-.1 1.2-.2 1.7-.2.6 0 1-3.7 1-9s.4-9 1-9 1 3.6 1 8.8c0 9.3.3 10.4 2.6 9.5 1.1-.4 1.4-2.8 1.4-9.9v-9.4h3.1c2.5 0 3-.3 2.5-1.6-1.7-4.5-5.7-19.6-5.3-20 .3-.3 1.4 2.7 2.6 6.5 1.4 4.6 2.7 7.1 3.6 7.1.8 0 1.5-.9 1.5-1.9 0-3.9-4.2-15.7-6.2-17.4zM2102.7 695.2c-2.1-2.2-3.3-2.5-9-2.5s-6.9.3-9.1 2.5c-2.3 2.3-2.5 3.1-2.2 11.2.3 7.4.6 8.8 2.1 9.1s1.7-.6 1.7-7.2c0-4.4.4-7.6 1-7.6s1 7.3 1 20v20h5l.2-12.3.2-12.2.6 12c.5 12 .5 12 3 12h2.5l.5-20c.3-11 .7-16.5.8-12.3.2 7.1.4 7.8 2.2 7.8 1.9 0 2-.7 2-9s-.2-9.3-2.5-11.5z"/><circle transform="rotate(-67.5 2052.735 685.513)" class="st0" cx="2052.8" cy="685.5" r="5.4"/><circle transform="rotate(-67.5 2092.335 685.512)" class="st0" cx="2092.4" cy="685.5" r="5.4"/><path class="st0" d="M2053.4 659h5l1.8 9.6 2.7-9.6h5l2.7 9.6 1.8-9.6h5l-3.8 17.2h-5.2l-3-10.8-3 10.8h-5.2l-3.8-17.2zM2090.2 669.1l4.7 1.4c-.3 1.3-.8 2.4-1.5 3.3-.7.9-1.5 1.5-2.5 2s-2.3.7-3.8.7c-1.9 0-3.4-.3-4.6-.8-1.2-.5-2.2-1.5-3.1-2.9-.9-1.4-1.3-3.1-1.3-5.2 0-2.8.8-5 2.3-6.6 1.5-1.5 3.7-2.3 6.4-2.3 2.2 0 3.9.4 5.1 1.3 1.2.9 2.2 2.2 2.8 4l-4.7 1c-.2-.5-.3-.9-.5-1.1-.3-.4-.7-.7-1.1-.9-.4-.2-.9-.3-1.4-.3-1.2 0-2.1.5-2.8 1.5-.5.7-.7 1.8-.7 3.4 0 1.9.3 3.2.9 3.9.6.7 1.4 1.1 2.4 1.1s1.8-.3 2.3-.9.8-1.5 1.1-2.6zM326.6 314c-.6 0-2.8 2.3-5 5.2-2.3 3-3.7 5.8-3.3 6.5 1.1 1.9 10.5 8.3 11.4 7.7 1.5-1 .8-3.9-1.3-5.2-1.2-.7-1.9-1.5-1.7-1.8.2-.2 6.9-1.3 14.9-2.4 20.8-3 23.6-3.9 20.9-6.6-.9-.9-21.8 1.6-34.4 4l-2.8.6 1.7-2.6c1.6-2.6 1.4-5.4-.4-5.4zM360 359c-1.9 1.6-1.9 5 0 5 1.6 0 8.5-8.6 8.5-10.6 0-1.5-8.7-8.4-10.6-8.4-.7 0-1.6.5-2 1.2-.4.6.4 2.1 2.1 3.4l2.8 2.2-5.4 1c-3 .6-10.9 1.8-17.6 2.8-13.3 1.9-14.9 2.4-14 4.8.5 1.3 1.5 1.5 4.4 1.1 2.1-.3 10.4-1.6 18.6-2.8 8.1-1.3 14.7-2 14.7-1.6s-.7 1.2-1.5 1.9zM2138.2 312.1c-.6-.1-3.3 1.5-6.1 3.8-3 2.3-5 4.7-4.8 5.5.6 2.1 8.1 10.6 9.1 10.3 1.7-.6 1.7-3.6 0-5.4-1-1-1.5-1.9-1.2-2.2.2-.1 7 .5 15 1.4 20.9 2.3 23.8 2.1 21.9-1.2-.6-1.1-21.5-3.9-34.3-4.7l-2.9-.1 2.3-2.1c2.2-2.1 2.7-4.8 1-5.3zM2159.3 364c-2.2 1.1-3.1 4.4-1.2 4.8 1.5.4 10.4-6.2 10.9-8.2.4-1.5-6.3-10.3-8.2-10.8-.7-.2-1.7.1-2.2.7-.5.5-.1 2.1 1.2 3.8l2.2 2.8-5.5-.4c-3.1-.2-11-1-17.7-1.7-13.4-1.5-15-1.4-14.8 1.2.2 1.4 1.1 1.8 4 2.2 2.1.2 10.5 1 18.7 1.9 8.2.8 14.7 1.7 14.6 2.1-.2.5-1 1.1-2 1.6zM498.8 732.5l-.6 3.4c-1.1-.3-1.9-.8-2.5-1.6s-.9-1.9-.9-3.4c0-1.7.3-2.9.9-3.6s1.4-1.1 2.4-1.1c.6 0 1.1.2 1.5.5s.8.8 1.2 1.4c.1-.5.3-.9.4-1.1.3-.4.6-.8 1-1s.9-.4 1.5-.4c.8 0 1.5.2 2.2.6s1.2 1 1.6 1.7.6 1.7.6 2.9-.1 2.1-.4 2.8-.7 1.2-1.2 1.7-1.2.8-2 1l-.5-3.6c.7-.1 1.2-.4 1.5-.7s.4-.7.4-1.1c0-.5-.2-.9-.5-1.2s-.8-.5-1.4-.5c-.6 0-1.1.2-1.4.5s-.5.7-.5 1.3c0 .3.1.7.2 1.2l-2.6-.2v-.5c0-.5-.1-.9-.4-1.2s-.7-.5-1.1-.5c-.4 0-.7.1-.9.4s-.4.6-.4 1 .1.8.4 1 .9.2 1.5.3zM501.5 724c-2.4 0-4.2-.4-5.1-1.3s-1.5-2.2-1.5-4c0-.9.1-1.6.3-2.1s.5-1 .8-1.4.7-.6 1.1-.8.8-.4 1.3-.5c1-.2 2-.4 3-.4 2.3 0 4 .4 5.1 1.2s1.6 2.2 1.6 4.1c0 1.1-.2 2-.5 2.6s-.9 1.2-1.5 1.6c-.5.3-1.1.6-1.9.7s-1.7.3-2.7.3zm0-3.6c1.6 0 2.8-.1 3.4-.4s.9-.7.9-1.3c0-.4-.1-.7-.4-.9s-.7-.5-1.2-.6-1.4-.2-2.6-.2c-1.7 0-2.9.1-3.4.4s-.9.7-.9 1.3c0 .6.3 1 .9 1.3s1.7.4 3.3.4zM494.9 703.9H508v3.6h-8.6c.4.6.8 1.2 1.1 1.7s.5 1.2.8 2.1h-2.9c-.4-1.2-.9-2.2-1.4-2.8s-1.2-1.2-2-1.6v-3zM501.5 700c-2.4 0-4.2-.4-5.1-1.3-1-.9-1.5-2.2-1.5-4 0-.9.1-1.6.3-2.1s.5-1 .8-1.4.7-.6 1.1-.8c.4-.2.8-.4 1.3-.5 1-.2 2-.4 3-.4 2.3 0 4 .4 5.1 1.2s1.6 2.2 1.6 4.1c0 1.1-.2 2-.5 2.6s-.9 1.2-1.5 1.6c-.5.3-1.1.6-1.9.7s-1.7.3-2.7.3zm0-3.6c1.6 0 2.8-.1 3.4-.4.6-.3.9-.7.9-1.3 0-.4-.1-.7-.4-.9-.3-.3-.7-.5-1.2-.6-.6-.1-1.4-.2-2.6-.2-1.7 0-2.9.1-3.4.4-.6.3-.9.7-.9 1.3 0 .6.3 1 .9 1.3s1.7.4 3.3.4zM549.7 732l-.6 3.4c-1.1-.3-1.9-.8-2.5-1.6s-.9-1.9-.9-3.4c0-1.7.3-2.9.9-3.6s1.4-1.1 2.4-1.1c.6 0 1.1.2 1.5.5s.8.8 1.2 1.4c.1-.5.3-.9.4-1.1.3-.4.6-.8 1-1s.9-.4 1.5-.4c.8 0 1.5.2 2.2.6s1.2 1 1.6 1.7.6 1.7.6 2.9-.1 2.1-.4 2.8-.7 1.2-1.2 1.7-1.2.8-2 1l-.4-3.8c.7-.1 1.2-.4 1.5-.7s.4-.7.4-1.1c0-.5-.2-.9-.5-1.2s-.8-.5-1.4-.5c-.6 0-1.1.2-1.4.5s-.5.7-.5 1.3c0 .3.1.7.2 1.2l-2.6-.2v-.5c0-.5-.1-.9-.4-1.2s-.7-.5-1.1-.5c-.4 0-.7.1-.9.4s-.4.6-.4 1 .1.8.4 1 .8.4 1.4.5zM552.4 723.5c-2.4 0-4.2-.4-5.1-1.3s-1.5-2.2-1.5-4c0-.9.1-1.6.3-2.1s.5-1 .8-1.4.7-.6 1.1-.8.8-.4 1.3-.5c1-.2 2-.4 3-.4 2.3 0 4 .4 5.1 1.2s1.6 2.2 1.6 4.1c0 1.1-.2 2-.5 2.6s-.9 1.2-1.5 1.6c-.5.3-1.1.6-1.9.7s-1.7.3-2.7.3zm0-3.5c1.6 0 2.8-.1 3.4-.4s.9-.7.9-1.3c0-.4-.1-.7-.4-.9s-.7-.5-1.2-.6-1.4-.2-2.6-.2c-1.7 0-2.9.1-3.4.4s-.9.7-.9 1.3c0 .6.3 1 .9 1.3s1.6.4 3.3.4zM552.4 711.5c-2.4 0-4.2-.4-5.1-1.3s-1.5-2.2-1.5-4c0-.9.1-1.6.3-2.1s.5-1 .8-1.4.7-.6 1.1-.8.8-.4 1.3-.5c1-.2 2-.4 3-.4 2.3 0 4 .4 5.1 1.2s1.6 2.2 1.6 4.1c0 1.1-.2 2-.5 2.6s-.9 1.2-1.5 1.6c-.5.3-1.1.6-1.9.7s-1.7.3-2.7.3zm0-3.5c1.6 0 2.8-.1 3.4-.4s.9-.7.9-1.3c0-.4-.1-.7-.4-.9s-.7-.5-1.2-.6-1.4-.2-2.6-.2c-1.7 0-2.9.1-3.4.4s-.9.7-.9 1.3c0 .6.3 1 .9 1.3s1.6.4 3.3.4zM556 699.3l-.4-3.6c.5-.1.8-.3 1.1-.5s.3-.5.3-.8c0-.6-.3-1-.9-1.3-.4-.2-1.3-.4-2.7-.5.4.4.8.9 1 1.3s.3 1 .3 1.6c0 1.2-.4 2.1-1.2 2.9s-1.9 1.2-3.1 1.2c-.9 0-1.6-.2-2.3-.6s-1.2-1-1.6-1.7-.5-1.6-.5-2.7c0-1.3.2-2.3.7-3.1s1.1-1.4 2.1-1.9 2.2-.7 3.8-.7c2.3 0 4 .5 5.1 1.5s1.6 2.3 1.6 4.1c0 1-.1 1.8-.4 2.4s-.6 1.1-1 1.5c-.7.4-1.2.7-1.9.9zm-5.8-6.6c-.7 0-1.2.2-1.6.5s-.6.8-.6 1.3.2.9.5 1.2c.4.3.9.5 1.6.5.7 0 1.3-.2 1.7-.5.4-.3.6-.7.6-1.2s-.2-.9-.6-1.3-.9-.5-1.6-.5zM596.7 731.6l-.6 3.4c-1.1-.3-1.9-.8-2.5-1.6s-.9-1.9-.9-3.4c0-1.7.3-2.9.9-3.6s1.4-1.1 2.4-1.1c.6 0 1.1.2 1.5.5s.8.8 1.2 1.4c.1-.5.3-.9.4-1.1.3-.4.6-.8 1-1s.9-.4 1.5-.4c.8 0 1.5.2 2.2.6s1.2 1 1.6 1.7.6 1.7.6 2.9-.1 2.1-.4 2.8-.7 1.2-1.2 1.7-1.2.8-2 1l-.5-3.6c.7-.1 1.2-.4 1.5-.7s.4-.7.4-1.1c0-.5-.2-.9-.5-1.2s-.8-.5-1.4-.5c-.6 0-1.1.2-1.4.5s-.5.7-.5 1.3c0 .3.1.7.2 1.2l-2.6-.2v-.5c0-.5-.1-.9-.4-1.2s-.7-.5-1.1-.5c-.4 0-.7.1-.9.4s-.4.6-.4 1 .1.8.4 1 .9.2 1.5.3zM599.4 723c-2.4 0-4.2-.4-5.1-1.3s-1.5-2.2-1.5-4c0-.9.1-1.6.3-2.1s.5-1 .8-1.4.7-.6 1.1-.8.8-.4 1.3-.5c1-.2 2-.4 3-.4 2.3 0 4 .4 5.1 1.2s1.6 2.2 1.6 4.1c0 1.1-.2 2-.5 2.6s-.9 1.2-1.5 1.6c-.5.3-1.1.6-1.9.7s-1.7.3-2.7.3zm0-3.5c1.6 0 2.8-.1 3.4-.4s.9-.7.9-1.3c0-.4-.1-.7-.4-.9s-.7-.5-1.2-.6-1.4-.2-2.6-.2c-1.7 0-2.9.1-3.4.4s-.9.7-.9 1.3c0 .6.3 1 .9 1.3s1.7.4 3.3.4zM599.4 711c-2.4 0-4.2-.4-5.1-1.3s-1.5-2.2-1.5-4c0-.9.1-1.6.3-2.1s.5-1 .8-1.4.7-.6 1.1-.8.8-.4 1.3-.5c1-.2 2-.4 3-.4 2.3 0 4 .4 5.1 1.2s1.6 2.2 1.6 4.1c0 1.1-.2 2-.5 2.6s-.9 1.2-1.5 1.6c-.5.3-1.1.6-1.9.7s-1.7.3-2.7.3zm0-3.5c1.6 0 2.8-.1 3.4-.4s.9-.7.9-1.3c0-.4-.1-.7-.4-.9s-.7-.5-1.2-.6-1.4-.2-2.6-.2c-1.7 0-2.9.1-3.4.4s-.9.7-.9 1.3c0 .6.3 1 .9 1.3s1.7.4 3.3.4zM593 699v-10.5h2.4c.8.9 1.7 1.7 2.7 2.3 1.2.7 2.5 1.3 3.9 1.7 1.1.3 2.4.6 3.9.7v3.6c-2.1-.3-3.9-.7-5.3-1.3s-2.9-1.6-4.6-2.9v6.4h-3zM641.6 731.6l-.6 3.4c-1.1-.3-1.9-.8-2.5-1.6s-.9-1.9-.9-3.4c0-1.7.3-2.9.9-3.6s1.4-1.1 2.4-1.1c.6 0 1.1.2 1.5.5s.8.8 1.2 1.4c.1-.5.3-.9.4-1.1.3-.4.6-.8 1-1s.9-.4 1.5-.4c.8 0 1.5.2 2.2.6s1.2 1 1.6 1.7.6 1.7.6 2.9-.1 2.1-.4 2.8-.7 1.2-1.2 1.7-1.2.8-2 1l-.5-3.6c.7-.1 1.2-.4 1.5-.7s.4-.7.4-1.1c0-.5-.2-.9-.5-1.2s-.8-.5-1.4-.5c-.6 0-1.1.2-1.4.5s-.5.7-.5 1.3c0 .3.1.7.2 1.2l-2.6-.2v-.5c0-.5-.1-.9-.4-1.2s-.7-.5-1.1-.5c-.4 0-.7.1-.9.4s-.4.6-.4 1 .1.8.4 1 .9.2 1.5.3zM644.3 723c-2.4 0-4.2-.4-5.1-1.3s-1.5-2.2-1.5-4c0-.9.1-1.6.3-2.1s.5-1 .8-1.4.7-.6 1.1-.8.8-.4 1.3-.5c1-.2 2-.4 3-.4 2.3 0 4 .4 5.1 1.2s1.6 2.2 1.6 4.1c0 1.1-.2 2-.5 2.6s-.9 1.2-1.5 1.6c-.5.3-1.1.6-1.9.7s-1.7.3-2.7.3zm0-3.5c1.6 0 2.8-.1 3.4-.4s.9-.7.9-1.3c0-.4-.1-.7-.4-.9s-.7-.5-1.2-.6-1.4-.2-2.6-.2c-1.7 0-2.9.1-3.4.4s-.9.7-.9 1.3c0 .6.3 1 .9 1.3s1.6.4 3.3.4zM644.3 711c-2.4 0-4.2-.4-5.1-1.3s-1.5-2.2-1.5-4c0-.9.1-1.6.3-2.1s.5-1 .8-1.4.7-.6 1.1-.8.8-.4 1.3-.5c1-.2 2-.4 3-.4 2.3 0 4 .4 5.1 1.2s1.6 2.2 1.6 4.1c0 1.1-.2 2-.5 2.6s-.9 1.2-1.5 1.6c-.5.3-1.1.6-1.9.7s-1.7.3-2.7.3zm0-3.5c1.6 0 2.8-.1 3.4-.4s.9-.7.9-1.3c0-.4-.1-.7-.4-.9s-.7-.5-1.2-.6-1.4-.2-2.6-.2c-1.7 0-2.9.1-3.4.4s-.9.7-.9 1.3c0 .6.3 1 .9 1.3s1.6.4 3.3.4zM640.8 688.7l.4 3.6c-.5.1-.8.3-1.1.5-.2.2-.3.5-.3.8 0 .6.3 1 .9 1.4.4.2 1.3.4 2.7.5-.4-.4-.8-.9-1-1.3s-.3-1-.3-1.6c0-1.1.4-2.1 1.2-2.9.8-.8 1.9-1.2 3.1-1.2.8 0 1.6.2 2.3.6.7.4 1.2 1 1.6 1.7.4.7.5 1.6.5 2.7 0 1.3-.2 2.3-.7 3.1s-1.1 1.4-2.1 1.9-2.2.7-3.8.7c-2.3 0-4-.5-5.1-1.5s-1.6-2.3-1.6-4.1c0-1 .1-1.8.4-2.4.2-.6.6-1.1 1-1.5s1.2-.8 1.9-1zm5.7 6.6c.7 0 1.2-.2 1.6-.5s.6-.8.6-1.3-.2-.9-.5-1.2-.9-.5-1.6-.5c-.7 0-1.3.2-1.7.5s-.6.7-.6 1.2.2.9.6 1.3c.4.3.9.5 1.6.5zM1822.8 731.6l-.6 3.4c-1.1-.3-1.9-.8-2.5-1.6s-.9-1.9-.9-3.4c0-1.7.3-2.9.9-3.6s1.4-1.1 2.4-1.1c.6 0 1.1.2 1.5.5s.8.8 1.2 1.4c.1-.5.3-.9.4-1.1.3-.4.6-.8 1-1s.9-.4 1.5-.4c.8 0 1.5.2 2.2.6s1.2 1 1.6 1.7.6 1.7.6 2.9-.1 2.1-.4 2.8-.7 1.2-1.2 1.7-1.2.8-2 1l-.5-3.6c.7-.1 1.2-.4 1.5-.7s.4-.7.4-1.1c0-.5-.2-.9-.5-1.2s-.8-.5-1.4-.5c-.6 0-1.1.2-1.4.5s-.5.7-.5 1.3c0 .3.1.7.2 1.2l-2.6-.2v-.5c0-.5-.1-.9-.4-1.2s-.7-.5-1.1-.5c-.4 0-.7.1-.9.4s-.4.6-.4 1 .1.8.4 1 .9.2 1.5.3zM1818.9 714.9h13.1v3.6h-8.6c.4.6.8 1.2 1.1 1.7s.5 1.2.8 2.1h-2.9c-.4-1.2-.9-2.2-1.4-2.8s-1.2-1.2-2-1.6v-3zM1825.5 711c-2.4 0-4.2-.4-5.1-1.3s-1.5-2.2-1.5-4c0-.9.1-1.6.3-2.1s.5-1 .8-1.4.7-.6 1.1-.8.8-.4 1.3-.5c1-.2 2-.4 3-.4 2.3 0 4 .4 5.1 1.2s1.6 2.2 1.6 4.1c0 1.1-.2 2-.5 2.6s-.9 1.2-1.5 1.6c-.5.3-1.1.6-1.9.7s-1.7.3-2.7.3zm0-3.5c1.6 0 2.8-.1 3.4-.4s.9-.7.9-1.3c0-.4-.1-.7-.4-.9s-.7-.5-1.2-.6-1.4-.2-2.6-.2c-1.7 0-2.9.1-3.5.4s-.9.7-.9 1.3c0 .6.3 1 .9 1.3s1.8.4 3.4.4zM1829.6 692.9v6.5h-2.9l-7.8-6.5v-3.1h7.9v-1.6h2.8v1.6h2.4v3.1h-2.4zm-2.8 0h-4.1l4.1 3.4v-3.4zM1870 729.7l-.6 3.4c-1.1-.3-1.9-.8-2.5-1.6s-.9-1.9-.9-3.4c0-1.7.3-2.9.9-3.6s1.4-1.1 2.4-1.1c.6 0 1.1.2 1.5.5s.8.8 1.2 1.4c.1-.5.3-.9.4-1.1.3-.4.6-.8 1-1 .4-.2.9-.4 1.5-.4.8 0 1.5.2 2.2.6.7.4 1.2 1 1.6 1.7.4.7.6 1.7.6 2.9s-.1 2.1-.4 2.8-.7 1.2-1.2 1.7c-.5.4-1.2.8-2 1l-.5-3.6c.7-.1 1.2-.4 1.5-.7.3-.3.4-.7.4-1.1 0-.5-.2-.9-.5-1.2s-.8-.5-1.4-.5c-.6 0-1.1.2-1.4.5s-.5.7-.5 1.3c0 .3.1.7.2 1.2l-2.6-.2v-.5c0-.5-.1-.9-.4-1.2s-.7-.5-1.1-.5c-.4 0-.7.1-.9.4s-.4.6-.4 1 .1.8.4 1c.4 0 .9.2 1.5.3zM1866.1 713.1h13.1v3.6h-8.6c.4.6.8 1.2 1.1 1.7s.5 1.2.8 2.1h-2.9c-.4-1.2-.9-2.2-1.4-2.8s-1.2-1.2-2-1.6v-3zM1872.7 709.2c-2.4 0-4.2-.4-5.1-1.3s-1.5-2.2-1.5-4c0-.9.1-1.6.3-2.1.2-.6.5-1 .8-1.4.3-.4.7-.6 1.1-.8.4-.2.8-.4 1.3-.5 1-.2 2-.4 3-.4 2.3 0 4 .4 5.1 1.2s1.6 2.2 1.6 4.1c0 1.1-.2 2-.5 2.6s-.9 1.2-1.5 1.6c-.5.3-1.1.6-1.9.7-.8.2-1.7.3-2.7.3zm0-3.6c1.6 0 2.8-.1 3.4-.4.6-.3.9-.7.9-1.3 0-.4-.1-.7-.4-.9-.3-.3-.7-.5-1.2-.6s-1.4-.2-2.6-.2c-1.7 0-2.9.1-3.5.4-.6.3-.9.7-.9 1.3 0 .6.3 1 .9 1.3.7.3 1.8.4 3.4.4zM1869.2 686.8l.4 3.6c-.5.1-.8.3-1.1.5-.2.2-.3.5-.3.8 0 .6.3 1 .9 1.4.4.2 1.3.4 2.7.5-.4-.4-.8-.9-1-1.3-.2-.5-.3-1-.3-1.6 0-1.1.4-2.1 1.2-2.9.8-.8 1.9-1.2 3.1-1.2.8 0 1.6.2 2.3.6.7.4 1.2 1 1.6 1.7.4.7.5 1.6.5 2.7 0 1.3-.2 2.3-.7 3.1s-1.1 1.4-2.1 1.9-2.2.7-3.8.7c-2.3 0-4-.5-5.1-1.5-1.1-1-1.6-2.3-1.6-4.1 0-1 .1-1.8.4-2.4.2-.6.6-1.1 1-1.5s1.2-.8 1.9-1zm5.7 6.6c.7 0 1.2-.2 1.6-.5.4-.4.6-.8.6-1.3s-.2-.9-.5-1.2-.9-.5-1.6-.5c-.7 0-1.3.2-1.7.5s-.6.7-.6 1.2.2.9.6 1.3c.4.3 1 .5 1.6.5zM1917.9 729.2l-.6 3.4c-1.1-.3-1.9-.8-2.5-1.6s-.9-1.9-.9-3.4c0-1.7.3-2.9.9-3.6s1.4-1.1 2.4-1.1c.6 0 1.1.2 1.5.5s.8.8 1.2 1.4c.1-.5.3-.9.4-1.1.3-.4.6-.8 1-1s.9-.4 1.5-.4c.8 0 1.5.2 2.2.6s1.2 1 1.6 1.7.6 1.7.6 2.9-.1 2.1-.4 2.8-.7 1.2-1.2 1.7-1.2.8-2 1l-.5-3.6c.7-.1 1.2-.4 1.5-.7s.4-.7.4-1.1c0-.5-.2-.9-.5-1.2s-.8-.5-1.4-.5c-.6 0-1.1.2-1.4.5s-.5.7-.5 1.3c0 .3.1.7.2 1.2l-2.6-.2v-.5c0-.5-.1-.9-.4-1.2s-.7-.5-1.1-.5c-.4 0-.7.1-.9.4s-.4.6-.4 1 .1.8.4 1 .9.2 1.5.3zM1914 712.6h13.1v3.6h-8.6c.4.6.8 1.2 1.1 1.7s.5 1.2.8 2.1h-2.9c-.4-1.2-.9-2.2-1.4-2.8s-1.2-1.2-2-1.6v-3zM1920.6 708.7c-2.4 0-4.2-.4-5.1-1.3s-1.5-2.2-1.5-4c0-.9.1-1.6.3-2.1s.5-1 .8-1.4.7-.6 1.1-.8.8-.4 1.3-.5c1-.2 2-.4 3-.4 2.3 0 4 .4 5.1 1.2s1.6 2.2 1.6 4.1c0 1.1-.2 2-.5 2.6s-.9 1.2-1.5 1.6c-.5.3-1.1.6-1.9.7s-1.7.3-2.7.3zm0-3.6c1.6 0 2.8-.1 3.4-.4s.9-.7.9-1.3c0-.4-.1-.7-.4-.9s-.7-.5-1.2-.6-1.4-.2-2.6-.2c-1.7 0-2.9.1-3.5.4s-.9.7-.9 1.3c0 .6.3 1 .9 1.3s1.8.4 3.4.4zM1914.2 696.6v-10.4h2.4c.8.9 1.7 1.7 2.7 2.3 1.2.7 2.5 1.3 3.9 1.7 1.1.3 2.4.6 3.9.7v3.6c-2.1-.3-3.9-.7-5.3-1.3s-2.9-1.6-4.6-2.9v6.4h-3zM1962.4 728.8l-.6 3.4c-1.1-.3-1.9-.8-2.5-1.6s-.9-1.9-.9-3.4c0-1.7.3-2.9.9-3.6s1.4-1.1 2.4-1.1c.6 0 1.1.2 1.5.5s.8.8 1.2 1.4c.1-.5.3-.9.4-1.1.3-.4.6-.8 1-1s.9-.4 1.5-.4c.8 0 1.5.2 2.2.6s1.2 1 1.6 1.7.6 1.7.6 2.9-.1 2.1-.4 2.8-.7 1.2-1.2 1.7-1.2.8-2 1l-.5-3.6c.7-.1 1.2-.4 1.5-.7s.4-.7.4-1.1c0-.5-.2-.9-.5-1.2s-.8-.5-1.4-.5c-.6 0-1.1.2-1.4.5s-.5.7-.5 1.3c0 .3.1.7.2 1.2l-2.6-.2v-.5c0-.5-.1-.9-.4-1.2s-.7-.5-1.1-.5c-.4 0-.7.1-.9.4s-.4.6-.4 1 .1.8.4 1 .8.2 1.5.3zM1958.4 712.1h13.1v3.6h-8.6c.4.6.8 1.2 1.1 1.7s.5 1.2.8 2.1h-2.9c-.4-1.2-.9-2.2-1.4-2.8s-1.2-1.2-2-1.6v-3zM1965 708.2c-2.4 0-4.2-.4-5.1-1.3s-1.5-2.2-1.5-4c0-.9.1-1.6.3-2.1s.5-1 .8-1.4.7-.6 1.1-.8.8-.4 1.3-.5c1-.2 2-.4 3-.4 2.3 0 4 .4 5.1 1.2s1.6 2.2 1.6 4.1c0 1.1-.2 2-.5 2.6s-.9 1.2-1.5 1.6c-.5.3-1.1.6-1.9.7s-1.7.3-2.7.3zm0-3.5c1.6 0 2.8-.1 3.4-.4s.9-.7.9-1.3c0-.4-.1-.7-.4-.9s-.7-.5-1.2-.6-1.4-.2-2.6-.2c-1.7 0-2.9.1-3.5.4s-.9.7-.9 1.3c0 .6.3 1 .9 1.3s1.8.4 3.4.4zM1964.6 694.1c-.3.6-.6 1-1 1.2-.5.4-1.1.5-1.7.5-1.1 0-2-.5-2.6-1.5-.5-.8-.8-1.8-.8-3.1 0-1.7.3-3 1-3.8.7-.8 1.5-1.2 2.5-1.2.6 0 1.1.2 1.6.5.4.2.7.6 1.1 1.2.3-.7.8-1.2 1.3-1.6.6-.3 1.2-.5 1.8-.5.6 0 1.2.1 1.8.4.6.3 1 .7 1.3 1.1.3.4.5 1 .7 1.6.1.6.2 1.3.2 2.1 0 1.4-.2 2.4-.5 3.1s-.8 1.3-1.4 1.6-1.3.6-2.1.6-1.4-.2-1.9-.5-1-1-1.3-1.7zm-2.5-1.6c.4 0 .8-.1 1.1-.4.3-.3.4-.6.4-1.1 0-.4-.1-.7-.4-1s-.6-.4-1-.4-.8.1-1.1.4-.4.6-.4 1.1c0 .4.1.8.4 1.1.2.1.5.3 1 .3zm5.5.2c.6 0 1-.2 1.4-.5s.5-.7.5-1.2c0-.4-.2-.8-.5-1.2s-.8-.5-1.4-.5c-.6 0-1 .2-1.4.5-.4.3-.5.7-.5 1.2 0 .4.2.8.5 1.2.3.3.8.5 1.4.5zM2016.9 892.6l-.6 3.4c-1.1-.3-1.9-.8-2.5-1.6s-.9-1.9-.9-3.4c0-1.7.3-2.9.9-3.6s1.4-1.1 2.4-1.1c.6 0 1.1.2 1.5.5s.8.8 1.2 1.4c.1-.5.3-.9.4-1.1.3-.4.6-.8 1-1s.9-.4 1.5-.4c.8 0 1.5.2 2.2.6s1.2 1 1.6 1.7.6 1.7.6 2.9-.1 2.1-.4 2.8-.7 1.2-1.2 1.7-1.2.8-2 1l-.5-3.6c.7-.1 1.2-.4 1.5-.7s.4-.7.4-1.1c0-.5-.2-.9-.5-1.2s-.8-.5-1.4-.5c-.6 0-1.1.2-1.4.5s-.5.7-.5 1.3c0 .3.1.7.2 1.2l-2.6-.2v-.5c0-.5-.1-.9-.4-1.2s-.7-.5-1.1-.5c-.4 0-.7.1-.9.4s-.4.6-.4 1 .1.8.4 1 .9.2 1.5.3zM2013 876h13.1v3.6h-8.6c.4.6.8 1.2 1.1 1.7s.5 1.2.8 2.1h-2.9c-.4-1.2-.9-2.2-1.4-2.8s-1.2-1.2-2-1.6v-3zM2019.6 872.1c-2.4 0-4.2-.4-5.1-1.3s-1.5-2.2-1.5-4c0-.9.1-1.6.3-2.1s.5-1 .8-1.4.7-.6 1.1-.8.8-.4 1.3-.5c1-.2 2-.4 3-.4 2.3 0 4 .4 5.1 1.2s1.6 2.2 1.6 4.1c0 1.1-.2 2-.5 2.6s-.9 1.2-1.5 1.6c-.5.3-1.1.6-1.9.7s-1.7.3-2.7.3zm0-3.6c1.6 0 2.8-.1 3.4-.4s.9-.7.9-1.3c0-.4-.1-.7-.4-.9s-.7-.5-1.2-.6-1.4-.2-2.6-.2c-1.7 0-2.9.1-3.4.4s-.9.7-.9 1.3c0 .6.3 1 .9 1.3s1.6.4 3.3.4zM2023.2 859.9l-.4-3.6c.5-.1.8-.3 1.1-.5s.3-.5.3-.8c0-.6-.3-1-.9-1.3-.4-.2-1.3-.4-2.7-.5.4.4.8.9 1 1.3s.3 1 .3 1.6c0 1.2-.4 2.1-1.2 2.9s-1.9 1.2-3.1 1.2c-.9 0-1.6-.2-2.3-.6s-1.2-1-1.6-1.7-.5-1.6-.5-2.7c0-1.3.2-2.3.7-3.1s1.1-1.4 2.1-1.9 2.2-.7 3.8-.7c2.3 0 4 .5 5.1 1.5s1.6 2.3 1.6 4.1c0 1-.1 1.8-.4 2.4s-.6 1.1-1 1.5c-.7.4-1.2.7-1.9.9zm-5.8-6.6c-.7 0-1.2.2-1.6.5s-.6.8-.6 1.3.2.9.5 1.2c.4.3.9.5 1.6.5.7 0 1.3-.2 1.7-.5.4-.3.6-.7.6-1.2s-.2-.9-.6-1.3-.9-.5-1.6-.5z"/><g><path class="st0" d="m2065.2 892.2-.6 3.4c-1.1-.3-1.9-.8-2.5-1.6s-.9-1.9-.9-3.4c0-1.7.3-2.9.9-3.6s1.4-1.1 2.4-1.1c.6 0 1.1.2 1.5.5s.8.8 1.2 1.4c.1-.5.3-.9.4-1.1.3-.4.6-.8 1-1s.9-.4 1.5-.4c.8 0 1.5.2 2.2.6s1.2 1 1.6 1.7.6 1.7.6 2.9-.1 2.1-.4 2.8-.7 1.2-1.2 1.7-1.2.8-2 1l-.5-3.6c.7-.1 1.2-.4 1.5-.7s.4-.7.4-1.1c0-.5-.2-.9-.5-1.2s-.8-.5-1.4-.5c-.6 0-1.1.2-1.4.5s-.5.7-.5 1.3c0 .3.1.7.2 1.2l-2.6-.2v-.5c0-.5-.1-.9-.4-1.2s-.7-.5-1.1-.5c-.4 0-.7.1-.9.4s-.4.6-.4 1 .1.8.4 1 .9.2 1.5.3zM2061.3 875.5h13.1v3.6h-8.6c.4.6.8 1.2 1.1 1.7s.5 1.2.8 2.1h-2.9c-.4-1.2-.9-2.2-1.4-2.8s-1.2-1.2-2-1.6v-3zM2061.3 863.5h13.1v3.6h-8.6c.4.6.8 1.2 1.1 1.7s.5 1.2.8 2.1h-2.9c-.4-1.2-.9-2.2-1.4-2.8s-1.2-1.2-2-1.6v-3zM2067.9 859.6c-2.4 0-4.2-.4-5.1-1.3-1-.9-1.5-2.2-1.5-4 0-.9.1-1.6.3-2.1s.5-1 .8-1.4.7-.6 1.1-.8c.4-.2.8-.4 1.3-.5 1-.2 2-.4 3-.4 2.3 0 4 .4 5.1 1.2s1.6 2.2 1.6 4.1c0 1.1-.2 2-.5 2.6s-.9 1.2-1.5 1.6c-.5.3-1.1.6-1.9.7s-1.7.3-2.7.3zm0-3.5c1.6 0 2.8-.1 3.4-.4.6-.3.9-.7.9-1.3 0-.4-.1-.7-.4-.9-.3-.3-.7-.5-1.2-.6-.6-.1-1.4-.2-2.6-.2-1.7 0-2.9.1-3.5.4-.6.3-.9.7-.9 1.3 0 .6.3 1 .9 1.3s1.8.4 3.4.4z"/></g><g><path class="st0" d="m2109.6 891.7-.6 3.4c-1.1-.3-1.9-.8-2.5-1.6s-.9-1.9-.9-3.4c0-1.7.3-2.9.9-3.6s1.4-1.1 2.4-1.1c.6 0 1.1.2 1.5.5s.8.8 1.2 1.4c.1-.5.3-.9.4-1.1.3-.4.6-.8 1-1s.9-.4 1.5-.4c.8 0 1.5.2 2.2.6s1.2 1 1.6 1.7.6 1.7.6 2.9-.1 2.1-.4 2.8-.7 1.2-1.2 1.7-1.2.8-2 1l-.5-3.6c.7-.1 1.2-.4 1.5-.7s.4-.7.4-1.1c0-.5-.2-.9-.5-1.2s-.8-.5-1.4-.5c-.6 0-1.1.2-1.4.5s-.5.7-.5 1.3c0 .3.1.7.2 1.2l-2.6-.2v-.5c0-.5-.1-.9-.4-1.2s-.7-.5-1.1-.5c-.4 0-.7.1-.9.4s-.4.6-.4 1 .1.8.4 1 .9.2 1.5.3zM2105.7 875h13.1v3.6h-8.6c.4.6.8 1.2 1.1 1.7s.5 1.2.8 2.1h-2.9c-.4-1.2-.9-2.2-1.4-2.8s-1.2-1.2-2-1.6v-3zM2105.7 863h13.1v3.6h-8.6c.4.6.8 1.2 1.1 1.7s.5 1.2.8 2.1h-2.9c-.4-1.2-.9-2.2-1.4-2.8s-1.2-1.2-2-1.6v-3zM2105.7 851h13.1v3.6h-8.6c.4.6.8 1.2 1.1 1.7.3.5.5 1.2.8 2.1h-2.9c-.4-1.2-.9-2.2-1.4-2.8s-1.2-1.2-2-1.6v-3z"/></g><g><path class="st0" d="m2112.8 437-3.3-1.1c.4-1 1.1-1.8 1.9-2.2s2-.6 3.5-.4c1.7.2 2.8.7 3.5 1.4.7.7.9 1.6.8 2.5-.1.6-.3 1-.7 1.4-.4.4-.9.7-1.5 1 .5.2.8.4 1.1.6.4.3.7.7.8 1.2s.2 1 .1 1.6c-.1.7-.4 1.4-.9 2.1-.5.6-1.1 1.1-1.9 1.3-.8.3-1.8.3-3 .2-1.2-.2-2.1-.4-2.7-.8-.6-.4-1.1-.8-1.5-1.4-.4-.6-.6-1.3-.7-2.1h3.6c0 .7.2 1.3.4 1.6s.6.5 1.1.6c.5.1.9-.1 1.3-.4.4-.3.6-.7.7-1.3.1-.6 0-1.1-.3-1.4-.3-.4-.6-.6-1.2-.7h-1.2l.5-2.5c.2.1.3.1.5.1.5.1.9 0 1.2-.3.4-.3.6-.6.6-1 .1-.4 0-.7-.2-1-.2-.3-.5-.4-.9-.5-.4-.1-.8 0-1.1.2 0 .3-.3.7-.5 1.3zM2129.9 435.4l-1.8 13-3.6-.5 1.2-8.5c-.6.4-1.3.6-1.8.8-.6.2-1.3.4-2.2.5l.4-2.9c1.3-.2 2.3-.6 3-1 .7-.5 1.4-1.1 1.8-1.8l3 .4zM2133.8 436.2l10.3 1.4-.3 2.4c-1 .7-1.9 1.5-2.6 2.3-.9 1-1.6 2.2-2.3 3.6-.5 1-.9 2.3-1.2 3.8l-3.5-.5c.6-2 1.3-3.7 2-5.1.8-1.3 2-2.7 3.5-4.1l-6.3-.9.4-2.9zM2153.6 438.7l-1.8 13-3.6-.5 1.2-8.5c-.6.4-1.3.6-1.8.8-.6.2-1.3.4-2.2.5l.4-2.9c1.3-.2 2.3-.6 3-1 .7-.5 1.4-1.1 1.8-1.8l3 .4z"/></g><g><path class="st0" d="m2103.2 526.5-3.3-1.1c.4-1 1.1-1.8 1.9-2.2.9-.5 2-.6 3.5-.4 1.7.2 2.8.7 3.5 1.4s.9 1.6.8 2.5c-.1.6-.3 1-.7 1.4-.4.4-.9.7-1.5 1 .5.2.8.4 1.1.6.4.3.7.7.8 1.2s.2 1 .1 1.6c-.1.7-.4 1.4-.9 2.1-.5.6-1.1 1.1-1.9 1.3-.8.3-1.8.3-3 .2-1.2-.2-2.1-.4-2.7-.8-.6-.4-1.1-.8-1.5-1.4s-.6-1.3-.7-2.1h3.6c0 .7.2 1.3.4 1.6s.6.5 1.1.6c.5.1.9-.1 1.3-.4.4-.3.6-.7.7-1.3.1-.6 0-1.1-.3-1.4-.3-.4-.6-.6-1.2-.7h-1.2l.5-2.5c.2.1.3.1.5.1.5.1.9 0 1.2-.3.4-.3.6-.6.6-1 .1-.4 0-.7-.2-1-.2-.3-.5-.4-.9-.5-.4-.1-.8 0-1.1.2-.1.2-.3.6-.5 1.3zM2120.3 524.8l-1.8 13-3.6-.5 1.2-8.5c-.6.4-1.3.6-1.8.8-.6.2-1.3.4-2.2.5l.4-2.9c1.3-.2 2.3-.6 3-1 .7-.5 1.4-1.1 1.8-1.8l3 .4zM2124.1 525.6l10.3 1.4-.3 2.4c-1 .7-1.9 1.5-2.6 2.3-.9 1-1.6 2.2-2.3 3.6-.5 1.1-.9 2.3-1.2 3.8l-3.5-.5c.6-2 1.2-3.7 2-5.1.8-1.3 2-2.7 3.5-4.1l-6.3-.9.4-2.9zM2144.6 541.5 2134 540c.3-1 .8-2 1.5-2.8s2.1-1.8 3.9-2.8c1.1-.6 1.9-1.1 2.2-1.5.3-.4.5-.7.6-1.1.1-.4 0-.7-.3-1.1s-.6-.5-1-.6c-.5-.1-.8 0-1.2.3-.3.2-.6.7-.8 1.4l-3.5-.8c.3-1 .6-1.7 1.1-2.2.4-.5 1-.9 1.8-1.1s1.7-.2 2.9-.1c1.2.2 2.2.5 2.9.8.7.4 1.1.9 1.5 1.5s.4 1.3.3 2.1c-.1.8-.4 1.5-1 2.1-.6.6-1.5 1.3-2.8 2-.8.4-1.3.7-1.6.8-.3.2-.6.4-1 .7l5.5.8-.4 3.1z"/></g><g><path class="st0" d="m2092.4 584.4-3.3-1.1c.4-1 1.1-1.8 1.9-2.2s2-.6 3.5-.4c1.7.2 2.8.7 3.5 1.4.7.7.9 1.6.8 2.5-.1.6-.3 1-.7 1.4-.4.4-.9.7-1.5 1 .5.2.8.4 1.1.6.4.3.7.7.8 1.2s.2 1 .1 1.6c-.1.7-.4 1.4-.9 2.1-.5.6-1.1 1.1-1.9 1.3-.8.3-1.8.3-3 .2-1.2-.2-2.1-.4-2.7-.8-.6-.4-1.1-.8-1.5-1.4-.4-.6-.6-1.3-.7-2.1h3.6c0 .7.2 1.3.4 1.6s.6.5 1.1.6c.5.1.9-.1 1.3-.4.4-.3.6-.7.7-1.3.1-.6 0-1.1-.3-1.4-.3-.4-.6-.6-1.2-.7h-1.2l.5-2.5c.2.1.3.1.5.1.5.1.9 0 1.2-.3.4-.3.6-.6.6-1 .1-.4 0-.7-.2-1-.2-.3-.5-.4-.9-.5-.4-.1-.8 0-1.1.2-.1.3-.3.7-.5 1.3zM2109.5 582.8l-1.8 13-3.6-.5 1.2-8.5c-.6.4-1.3.6-1.8.8-.6.2-1.3.4-2.2.5l.4-2.9c1.3-.2 2.3-.6 3-1 .7-.5 1.4-1.1 1.8-1.8l3 .4zM2113.3 583.6l10.3 1.4-.3 2.4c-1 .7-1.9 1.5-2.6 2.3-.9 1-1.6 2.2-2.3 3.6-.5 1-.9 2.3-1.2 3.8l-3.5-.5c.6-2 1.3-3.7 2-5.1.8-1.3 2-2.7 3.5-4.1l-6.3-.9.4-2.9zM2128.1 589.4l-3.3-1.1c.4-1 1.1-1.8 1.9-2.2s2-.6 3.5-.4c1.7.2 2.8.7 3.5 1.4.7.7.9 1.6.8 2.5-.1.6-.3 1-.7 1.4-.4.4-.9.7-1.5 1 .5.2.8.4 1.1.6.4.3.7.7.8 1.2s.2 1 .1 1.6c-.1.7-.4 1.4-.9 2.1-.5.6-1.1 1.1-1.9 1.3-.8.3-1.8.3-3 .2-1.2-.2-2.1-.4-2.7-.8-.6-.4-1.1-.8-1.5-1.4-.4-.6-.6-1.3-.7-2.1h3.6c0 .7.2 1.3.4 1.6.3.3.6.5 1.1.6.5.1.9-.1 1.3-.4.4-.3.6-.7.7-1.3.1-.6 0-1.1-.3-1.4-.3-.4-.7-.6-1.2-.7h-1.2l.5-2.5c.2.1.3.1.5.1.5.1.9 0 1.2-.3.4-.3.6-.6.6-1 .1-.4 0-.7-.2-1-.2-.3-.5-.4-.9-.5-.4-.1-.8 0-1.1.2-.1.3-.3.7-.5 1.3z"/></g><g><path class="st0" d="m2199.7 190.8-3.3-1.1c.4-1 1.1-1.8 1.9-2.2s2-.6 3.5-.4c1.7.2 2.8.7 3.5 1.4s.9 1.6.8 2.5c-.1.6-.3 1-.7 1.4-.4.4-.9.7-1.5 1 .5.2.8.4 1.1.6.4.3.7.7.8 1.2s.2 1 .1 1.6c-.1.7-.4 1.4-.9 2.1-.5.6-1.1 1.1-1.9 1.3-.8.3-1.8.3-3 .2-1.2-.2-2.1-.4-2.7-.8-.6-.4-1.1-.8-1.5-1.4-.4-.6-.6-1.3-.7-2.1h3.6c0 .7.2 1.3.4 1.6s.6.5 1.1.6c.5.1.9-.1 1.3-.4.4-.3.6-.7.7-1.3.1-.6 0-1.1-.3-1.4-.3-.4-.6-.6-1.2-.7h-1.2l.5-2.5c.2.1.3.1.5.1.5.1.9 0 1.2-.3.4-.3.6-.6.6-1 .1-.4 0-.7-.2-1s-.5-.4-.9-.5c-.4-.1-.8 0-1.1.2-.1.2-.3.7-.5 1.3zM2216.8 189.2l-1.8 13-3.6-.5 1.2-8.5c-.6.4-1.3.6-1.8.8s-1.3.4-2.2.5l.4-2.9c1.3-.2 2.3-.6 3-1 .7-.5 1.4-1.1 1.8-1.8l3 .4zM2220.6 189.9l10.3 1.4-.3 2.4c-1 .7-1.9 1.5-2.6 2.3-.9 1-1.6 2.2-2.3 3.6-.5 1-.9 2.3-1.2 3.8l-3.5-.5c.6-2 1.3-3.7 2-5.1.8-1.3 2-2.7 3.5-4.1l-6.3-.9.4-2.9zM2231.6 197.9c.3-2.4 1-4.1 2-4.9 1-.8 2.4-1.1 4.2-.9.9.1 1.5.3 2.1.6.5.3.9.6 1.2 1 .3.4.5.8.7 1.2s.2.9.3 1.4c.1 1 .1 2-.1 3-.3 2.3-1 4-1.9 4.9-.9 1-2.4 1.3-4.3 1-1.1-.1-1.9-.4-2.5-.9s-1.1-1-1.4-1.7c-.2-.5-.4-1.2-.4-2-.1-.8 0-1.7.1-2.7zm3.5.5c-.2 1.6-.2 2.8 0 3.4.2.6.6 1 1.1 1.1.4 0 .7 0 1-.2.3-.2.5-.6.8-1.1.2-.5.4-1.4.5-2.5.2-1.7.3-2.9 0-3.5s-.6-1-1.2-1.1c-.6-.1-1.1.2-1.4.7s-.6 1.6-.8 3.2z"/></g><g><path class="st0" d="m2252.8 529.5-1.1 3.3c-1-.4-1.8-1.1-2.2-1.9-.5-.9-.6-2-.4-3.5.2-1.7.7-2.8 1.4-3.5s1.6-.9 2.5-.8c.6.1 1 .3 1.4.7.4.4.7.9 1 1.5.2-.5.4-.8.6-1.1.3-.4.7-.7 1.2-.8.5-.2 1-.2 1.6-.1.7.1 1.4.4 2.1.9.6.5 1.1 1.1 1.3 1.9.3.8.3 1.8.2 3-.2 1.2-.4 2.1-.8 2.7-.4.6-.8 1.1-1.4 1.5-.6.4-1.3.6-2.1.7v-3.6c.7 0 1.3-.2 1.6-.4.3-.3.5-.6.6-1.1.1-.5-.1-.9-.4-1.3-.3-.4-.7-.6-1.3-.7-.6-.1-1.1 0-1.4.3-.4.3-.6.7-.7 1.2v1.2l-2.5-.5c.1-.2.1-.3.1-.5.1-.5 0-.9-.3-1.2-.3-.4-.6-.6-1-.6-.4-.1-.7 0-1 .2-.3.2-.4.5-.5.9-.1.4 0 .8.2 1.1.3.1.7.3 1.3.5zM2251.2 512.5l13 1.8-.5 3.6-8.5-1.2c.4.6.6 1.3.8 1.8.2.6.4 1.3.5 2.2l-2.9-.4c-.2-1.3-.6-2.3-1-3-.5-.7-1.1-1.4-1.8-1.8l.4-3zM2252 508.6l1.4-10.4 2.4.3c.7 1 1.5 1.9 2.3 2.6 1 .9 2.2 1.6 3.6 2.3 1 .5 2.3.9 3.8 1.2l-.5 3.5c-2-.6-3.7-1.3-5.1-2-1.3-.8-2.7-2-4.1-3.5l-.9 6.3-2.9-.3zM2257.8 493.8l-1.1 3.3c-1-.4-1.8-1.1-2.2-1.9-.5-.9-.6-2-.4-3.5.2-1.7.7-2.8 1.4-3.5.7-.7 1.6-.9 2.5-.8.6.1 1 .3 1.4.7.4.4.7.9 1 1.5.2-.5.4-.8.6-1.1.3-.4.7-.7 1.2-.8.5-.2 1-.2 1.6-.1.7.1 1.4.4 2.1.9.6.5 1.1 1.1 1.3 1.9.3.8.3 1.8.2 3-.2 1.2-.4 2.1-.8 2.7-.4.6-.8 1.1-1.4 1.5-.6.4-1.3.6-2.1.7v-3.6c.7 0 1.3-.2 1.6-.4.3-.3.5-.6.6-1.1.1-.5-.1-.9-.4-1.3-.3-.4-.7-.6-1.3-.7-.6-.1-1.1 0-1.4.3-.4.3-.6.7-.7 1.2v1.2l-2.5-.5c.1-.2.1-.3.1-.5.1-.5 0-.9-.3-1.2-.3-.4-.6-.6-1-.6-.4-.1-.7 0-1 .2s-.4.5-.5.9c-.1.4 0 .8.2 1.1.3.1.7.4 1.3.5zM2262.3 482.2l-.8 3.3c-.6-.2-1-.5-1.3-.7-.3-.3-.6-.7-.7-1.2-.1-.4-.2-.8-.2-1.4s0-1.2.1-1.9c.1-1.1.3-1.9.5-2.5s.5-1.1 1-1.5c.3-.3.7-.5 1.2-.6.5-.1 1-.1 1.4-.1l4.1.6c.4.1.8.1 1 .1.3 0 .6-.1 1-.2l-.5 3.3c-.3.1-.5.2-.6.2h-.6c.4.5.6 1 .8 1.5.2.7.2 1.4.1 2.2-.2 1.1-.5 1.9-1.1 2.4-.6.5-1.3.7-2 .6-.7-.1-1.3-.4-1.6-.9-.4-.5-.6-1.3-.7-2.4-.1-1.4-.1-2.3-.2-2.7-.1-.4-.1-.8-.2-1.3-.4-.1-.8 0-1 .1s-.3.5-.4.9c-.1.6 0 1 .1 1.3 0 .5.2.7.6.9zm2.3-2.8c.1.5.2 1 .2 1.6.1.7.2 1.2.4 1.4.2.2.4.4.6.4.3 0 .5 0 .7-.2.2-.2.3-.4.4-.8.1-.4 0-.8-.1-1.1-.1-.4-.3-.6-.6-.8-.3-.2-.6-.3-1-.4l-.6-.1z"/></g><g><path class="st0" d="m2228.8 685.5-1.1 3.3c-1-.4-1.8-1.1-2.2-1.9-.5-.9-.6-2-.4-3.5.2-1.7.7-2.8 1.4-3.5s1.6-.9 2.5-.8c.6.1 1 .3 1.4.7.4.4.7.9 1 1.5.2-.5.4-.8.6-1.1.3-.4.7-.7 1.2-.8.5-.2 1-.2 1.6-.1.7.1 1.4.4 2.1.9.6.5 1.1 1.1 1.3 1.9.3.8.3 1.8.2 3-.2 1.2-.4 2.1-.8 2.7-.4.6-.8 1.1-1.4 1.5-.6.4-1.3.6-2.1.7v-3.6c.7 0 1.3-.2 1.6-.4.3-.3.5-.6.6-1.1.1-.5-.1-.9-.4-1.3-.3-.4-.7-.6-1.3-.7-.6-.1-1.1 0-1.4.3-.4.3-.6.7-.7 1.2v1.2l-2.5-.5c.1-.2.1-.3.1-.5.1-.5 0-.9-.3-1.2-.3-.4-.6-.6-1-.6-.4-.1-.7 0-1 .2-.3.2-.4.5-.5.9-.1.4 0 .8.2 1.1.2.1.7.3 1.3.5zM2227.2 668.5l13 1.8-.5 3.6-8.5-1.2c.4.6.6 1.3.8 1.8.2.6.4 1.3.5 2.2l-2.9-.4c-.2-1.3-.6-2.3-1-3s-1.1-1.4-1.8-1.8l.4-3zM2228.8 656.6l13 1.8-.5 3.6-8.5-1.2c.4.6.6 1.3.8 1.8.2.6.4 1.3.5 2.2l-2.9-.4c-.2-1.3-.6-2.3-1-3-.5-.7-1.1-1.4-1.8-1.8l.4-3zM2233.7 649.8l-1.1 3.3c-1-.4-1.8-1.1-2.2-1.9-.5-.9-.6-2-.4-3.5.2-1.7.7-2.8 1.4-3.5s1.6-.9 2.5-.8c.6.1 1 .3 1.4.7.4.4.7.9 1 1.5.2-.5.4-.8.6-1.1.3-.4.7-.7 1.2-.8s1-.2 1.6-.1c.7.1 1.4.4 2.1.9.6.5 1.1 1.1 1.3 1.9.3.8.3 1.8.2 3-.2 1.2-.4 2.1-.8 2.7-.4.6-.8 1.1-1.4 1.5-.6.4-1.3.6-2.1.7v-3.6c.7 0 1.3-.2 1.6-.4.3-.3.5-.6.6-1.1.1-.5-.1-.9-.4-1.3-.3-.4-.7-.6-1.3-.7-.6-.1-1.1 0-1.4.3s-.6.6-.7 1.2v1.2l-2.5-.5c.1-.2.1-.3.1-.5.1-.5 0-.9-.3-1.2-.3-.4-.6-.6-1-.6-.4-.1-.7 0-1 .2-.3.2-.4.5-.5.9-.1.4 0 .8.2 1.1.3.1.7.3 1.3.5z"/></g><g><path class="st0" d="m2165.2 869.3-3.4-.6c.3-1.1.8-1.9 1.6-2.5s1.9-.9 3.4-.9c1.7 0 2.9.3 3.6.9s1.1 1.4 1.1 2.4c0 .6-.2 1.1-.5 1.5s-.8.8-1.4 1.2c.5.1.9.3 1.1.4.4.3.8.6 1 1s.4.9.4 1.5c0 .8-.2 1.5-.6 2.2s-1 1.2-1.7 1.6-1.7.6-2.9.6-2.1-.1-2.8-.4-1.2-.7-1.7-1.2-.8-1.2-1-2l3.6-.5c.1.7.4 1.2.7 1.5s.7.4 1.1.4c.5 0 .9-.2 1.2-.5s.5-.8.5-1.4c0-.6-.2-1.1-.5-1.4s-.7-.5-1.3-.5c-.3 0-.7.1-1.2.2l.2-2.6h.5c.5 0 .9-.1 1.2-.4s.5-.7.5-1.1c0-.4-.1-.7-.4-.9s-.6-.4-1-.4-.8.1-1 .4-.2.8-.3 1.5zM2181.9 865.3v13.1h-3.6v-8.6c-.6.4-1.2.8-1.7 1.1s-1.2.5-2.1.8v-2.9c1.2-.4 2.2-.9 2.8-1.4s1.2-1.2 1.6-2h3zM2193.9 865.3v13.1h-3.6v-8.6c-.6.4-1.2.8-1.7 1.1s-1.2.5-2.1.8v-2.9c1.2-.4 2.2-.9 2.8-1.4s1.2-1.2 1.6-2h3zM2208.2 878.4h-10.7c.1-1.1.5-2.1 1.1-3s1.8-2 3.5-3.3c1-.8 1.7-1.4 2-1.8s.4-.8.4-1.2c0-.4-.1-.7-.4-1s-.7-.4-1.1-.4c-.5 0-.8.1-1.1.4s-.5.8-.6 1.5l-3.6-.3c.1-1 .4-1.8.8-2.4.4-.6.9-1 1.6-1.3s1.6-.5 2.8-.5c1.3 0 2.2.1 2.9.4s1.3.7 1.7 1.3.6 1.3.6 2c0 .8-.2 1.5-.7 2.2s-1.3 1.5-2.5 2.4c-.7.5-1.2.8-1.4 1s-.5.5-.9.8h5.6v3.2z"/></g><g><path class="st0" d="m1876.3 869.3-3.4-.6c.3-1.1.8-1.9 1.6-2.5s1.9-.9 3.4-.9c1.7 0 2.9.3 3.6.9s1.1 1.4 1.1 2.4c0 .6-.2 1.1-.5 1.5s-.8.8-1.4 1.2c.5.1.9.3 1.1.4.4.3.8.6 1 1s.4.9.4 1.5c0 .8-.2 1.5-.6 2.2s-1 1.2-1.7 1.6-1.7.6-2.9.6-2.1-.1-2.8-.4-1.2-.7-1.7-1.2-.8-1.2-1-2l3.6-.5c.1.7.4 1.2.7 1.5s.7.4 1.1.4c.5 0 .9-.2 1.2-.5s.5-.8.5-1.4c0-.6-.2-1.1-.5-1.4s-.7-.5-1.3-.5c-.3 0-.7.1-1.2.2l.2-2.6h.5c.5 0 .9-.1 1.2-.4s.5-.7.5-1.1c0-.4-.1-.7-.4-.9s-.6-.4-1-.4-.8.1-1 .4-.2.8-.3 1.5zM1892.9 865.3v13.1h-3.6v-8.6c-.6.4-1.2.8-1.7 1.1s-1.2.5-2.1.8v-2.9c1.2-.4 2.2-.9 2.8-1.4s1.2-1.2 1.6-2h3zM1896.8 871.9c0-2.4.4-4.2 1.3-5.1s2.2-1.5 4-1.5c.9 0 1.6.1 2.1.3s1 .5 1.4.8.6.7.8 1.1.4.8.5 1.3c.2 1 .4 2 .4 3 0 2.3-.4 4-1.2 5.1s-2.2 1.6-4.1 1.6c-1.1 0-2-.2-2.6-.5s-1.2-.9-1.6-1.5c-.3-.5-.6-1.1-.7-1.9s-.3-1.7-.3-2.7zm3.6.1c0 1.6.1 2.8.4 3.4s.7.9 1.3.9c.4 0 .7-.1.9-.4s.5-.7.6-1.2.2-1.4.2-2.6c0-1.7-.1-2.9-.4-3.5s-.7-.9-1.3-.9c-.6 0-1 .3-1.3.9s-.4 1.7-.4 3.4zM1910.3 865.6h8.5v2.9h-5.8l-.3 1.9c.4-.2.8-.3 1.2-.4s.8-.1 1.2-.1c1.3 0 2.3.4 3.1 1.2s1.2 1.8 1.2 2.9c0 .8-.2 1.6-.6 2.4s-1 1.4-1.8 1.8-1.7.6-2.9.6c-.8 0-1.6-.1-2.2-.2s-1.1-.4-1.5-.7-.8-.7-1-1.1-.5-.9-.7-1.5l3.6-.4c.1.6.3 1 .6 1.3s.7.5 1.2.5.9-.2 1.2-.6.5-.9.5-1.7c0-.8-.2-1.3-.5-1.7s-.8-.5-1.3-.5c-.3 0-.7.1-1 .3-.2.1-.5.3-.8.7l-3-.4 1.1-7.2z"/></g><g><path class="st0" d="m1727.6 869.5-3.4-.6c.3-1.1.8-1.9 1.6-2.5s1.9-.9 3.4-.9c1.7 0 2.9.3 3.6.9s1.1 1.4 1.1 2.4c0 .6-.2 1.1-.5 1.5s-.8.8-1.4 1.2c.5.1.9.3 1.1.4.4.3.8.6 1 1s.4.9.4 1.5c0 .8-.2 1.5-.6 2.2s-1 1.2-1.7 1.6-1.7.6-2.9.6-2.1-.1-2.8-.4-1.2-.7-1.7-1.2-.8-1.2-1-2l3.6-.5c.1.7.4 1.2.7 1.5s.7.4 1.1.4c.5 0 .9-.2 1.2-.5s.5-.8.5-1.4c0-.6-.2-1.1-.5-1.4s-.7-.5-1.3-.5c-.3 0-.7.1-1.2.2l.2-2.6h.5c.5 0 .9-.1 1.2-.4s.5-.7.5-1.1c0-.4-.1-.7-.4-.9s-.6-.4-1-.4-.8.1-1 .4-.2.9-.3 1.5zM1744.2 865.6v13.1h-3.6v-8.6c-.6.4-1.2.8-1.7 1.1s-1.2.5-2.1.8v-3c1.2-.4 2.2-.9 2.8-1.4s1.2-1.2 1.6-2h3zM1748.1 872.2c0-2.4.4-4.2 1.3-5.1s2.2-1.5 4-1.5c.9 0 1.6.1 2.1.3s1 .5 1.4.8.6.7.8 1.1.4.8.5 1.3c.2 1 .4 2 .4 3 0 2.3-.4 4-1.2 5.1s-2.2 1.6-4.1 1.6c-1.1 0-2-.2-2.6-.5s-1.2-.9-1.6-1.5c-.3-.5-.6-1.1-.7-1.9s-.3-1.7-.3-2.7zm3.6 0c0 1.6.1 2.8.4 3.4s.7.9 1.3.9c.4 0 .7-.1.9-.4s.5-.7.6-1.2.2-1.4.2-2.6c0-1.7-.1-2.9-.4-3.5s-.7-.9-1.3-.9c-.6 0-1 .3-1.3.9s-.4 1.7-.4 3.4zM1763.6 869.5l-3.4-.6c.3-1.1.8-1.9 1.6-2.5.8-.6 1.9-.9 3.4-.9 1.7 0 2.9.3 3.6.9s1.1 1.4 1.1 2.4c0 .6-.2 1.1-.5 1.5s-.8.8-1.4 1.2c.5.1.9.3 1.1.4.4.3.8.6 1 1s.4.9.4 1.5c0 .8-.2 1.5-.6 2.2s-1 1.2-1.7 1.6-1.7.6-2.9.6-2.1-.1-2.8-.4-1.2-.7-1.7-1.2c-.4-.5-.8-1.2-1-2l3.6-.5c.1.7.4 1.2.7 1.5s.7.4 1.1.4c.5 0 .9-.2 1.2-.5s.5-.8.5-1.4c0-.6-.2-1.1-.5-1.4s-.7-.5-1.3-.5c-.3 0-.7.1-1.2.2l.2-2.6h.5c.5 0 .9-.1 1.2-.4s.5-.7.5-1.1c0-.4-.1-.7-.4-.9s-.6-.4-1-.4-.8.1-1 .4-.2.9-.3 1.5z"/></g><g><path class="st0" d="m1534.3 869.7-3.4-.6c.3-1.1.8-1.9 1.6-2.5s1.9-.9 3.4-.9c1.7 0 2.9.3 3.6.9s1.1 1.4 1.1 2.4c0 .6-.2 1.1-.5 1.5s-.8.8-1.4 1.2c.5.1.9.3 1.1.4.4.3.8.6 1 1s.4.9.4 1.5c0 .8-.2 1.5-.6 2.2s-1 1.2-1.7 1.6-1.7.6-2.9.6-2.1-.1-2.8-.4-1.2-.7-1.7-1.2-.8-1.2-1-2l3.6-.5c.1.7.4 1.2.7 1.5s.7.4 1.1.4c.5 0 .9-.2 1.2-.5s.5-.8.5-1.4c0-.6-.2-1.1-.5-1.4s-.7-.5-1.3-.5c-.3 0-.7.1-1.2.2l.2-2.6h.5c.5 0 .9-.1 1.2-.4s.5-.7.5-1.1c0-.4-.1-.7-.4-.9s-.6-.4-1-.4-.8.1-1 .4-.2.9-.3 1.5zM1550.9 865.8v13.1h-3.6v-8.6c-.6.4-1.2.8-1.7 1.1s-1.2.5-2.1.8v-2.9c1.2-.4 2.2-.9 2.8-1.4s1.2-1.2 1.6-2h3zM1554.8 872.4c0-2.4.4-4.2 1.3-5.1s2.2-1.5 4-1.5c.9 0 1.6.1 2.1.3s1 .5 1.4.8.6.7.8 1.1.4.8.5 1.3c.2 1 .4 2 .4 3 0 2.3-.4 4-1.2 5.1s-2.2 1.6-4.1 1.6c-1.1 0-2-.2-2.6-.5s-1.2-.9-1.6-1.5c-.3-.5-.6-1.1-.7-1.9s-.3-1.7-.3-2.7zm3.6 0c0 1.6.1 2.8.4 3.4s.7.9 1.3.9c.4 0 .7-.1.9-.4s.5-.7.6-1.2.2-1.4.2-2.6c0-1.7-.1-2.9-.4-3.5s-.7-.9-1.3-.9c-.6 0-1 .3-1.3.9s-.4 1.8-.4 3.4zM1574.9 865.8v13.1h-3.6v-8.6c-.6.4-1.2.8-1.7 1.1s-1.2.5-2.1.8v-2.9c1.2-.4 2.2-.9 2.8-1.4s1.2-1.2 1.6-2h3z"/></g><g><path class="st0" d="M1336.3 878.9h-4.5l-1.6-3.3c-.4-.8-.7-1.3-.9-1.5-.2-.2-.5-.3-.8-.3v5.1h-4V866h4v4.9c.3 0 .6-.1.8-.4s.5-.9.9-2c.3-.8.6-1.4.9-1.7s.8-.6 1.5-.8 1.8-.2 3.2-.2v2.7h-.2c-.7 0-1.2.1-1.5.4s-.6.7-.8 1.3-.4 1-.7 1.3-.6.5-1 .7c.6.2 1.1.5 1.5 1s.9 1.2 1.4 2.1l1.8 3.6zM1340.8 872.6l-3.4-.4c.1-.6.3-1.1.6-1.4s.6-.6 1.1-.9c.3-.2.8-.3 1.4-.4s1.2-.1 1.9-.1c1.1 0 1.9.1 2.6.2s1.2.4 1.6.8c.3.3.5.6.7 1.1s.3.9.3 1.4v4.1c0 .4 0 .8.1 1s.2.6.4 1h-3.4c-.1-.2-.2-.4-.3-.5s-.1-.3-.1-.6c-.5.5-.9.8-1.4 1-.6.3-1.4.4-2.2.4-1.1 0-2-.3-2.5-.8s-.9-1.2-.9-1.9.2-1.3.6-1.7 1.2-.8 2.3-1c1.3-.3 2.2-.5 2.6-.6s.8-.3 1.3-.4c0-.4-.1-.7-.3-.9s-.5-.3-1-.3c-.6 0-1 .1-1.3.3-.4-.1-.6.2-.7.6zm3.1 1.8c-.5.2-1 .3-1.5.5-.7.2-1.2.4-1.4.6-.2.2-.3.4-.3.7 0 .3.1.5.3.7s.5.3.9.3.8-.1 1.1-.3.6-.4.7-.7.2-.6.2-1.1v-.7zM1352.6 869.8c.4-.3 1-.5 1.8-.5 1.8 0 3.1.5 4 1.4s1.4 2.1 1.4 3.5-.5 2.5-1.4 3.5c-.9 1-2.2 1.4-4 1.4-1.8 0-3.1-.5-4-1.4s-1.3-2.5-1.3-4.7c0-2 .4-3.6 1.2-4.9s1.9-1.9 3.3-1.9h1.1c1 0 1.5-.2 1.6-.4h2.8c0 1.7-1 2.6-2.9 2.7-1.3 0-2.2.2-2.6.4s-.8.4-1 .9zm1.8 6.8c.6 0 1-.2 1.3-.6s.5-1 .5-1.8-.2-1.4-.5-1.8c-.3-.4-.7-.6-1.3-.6-.6 0-1 .2-1.3.7s-.5 1-.5 1.8.2 1.3.5 1.8c.3.3.8.5 1.3.5zM1371.9 878.9h-3.4v-4.6l-3.5 4.6h-3.4v-9.3h3.4v4.7l3.5-4.7h3.4v9.3zM1384.8 878.9h-3.6v-3.5h-3.3v3.5h-3.6v-9.3h3.6v3.2h3.3v-3.2h3.6v9.3zM1397.4 875.1h-7.2c.1.6.2 1 .5 1.3.3.4.8.6 1.4.6.4 0 .7-.1 1-.3.2-.1.4-.3.6-.6l3.5.3c-.5.9-1.2 1.6-2 2s-1.9.6-3.3.6c-1.2 0-2.2-.2-2.9-.5s-1.3-.9-1.8-1.7-.7-1.7-.7-2.7c0-1.5.5-2.6 1.4-3.5s2.2-1.4 3.9-1.4c1.3 0 2.4.2 3.2.6s1.4 1 1.8 1.8.6 1.8.6 3v.5zm-3.6-1.7c-.1-.7-.3-1.2-.6-1.5s-.7-.4-1.2-.4c-.6 0-1 .2-1.4.7-.2.3-.4.7-.4 1.3h3.6zM1406.9 872.1h-2.6v6.7h-3.6v-6.7h-2.6v-2.6h8.8v2.6zM1414.2 882.4v-12.9h3.3v1.4c.5-.6.9-1 1.3-1.2.5-.3 1.1-.4 1.7-.4 1.2 0 2.2.5 2.9 1.4s1 2.1 1 3.5c0 1.6-.4 2.7-1.1 3.6s-1.7 1.2-2.8 1.2c-.6 0-1.1-.1-1.5-.3s-.9-.5-1.2-.8v4.5h-3.6zm3.6-8.2c0 .7.2 1.3.5 1.6s.7.5 1.2.5c.4 0 .8-.2 1-.5s.4-.9.4-1.7c0-.8-.1-1.3-.4-1.7s-.7-.5-1.1-.5c-.5 0-.8.2-1.1.5s-.5 1-.5 1.8zM1436.6 875.1h-7.2c.1.6.2 1 .5 1.3.3.4.8.6 1.4.6.4 0 .7-.1 1-.3.2-.1.4-.3.6-.6l3.5.3c-.5.9-1.2 1.6-2 2s-1.9.6-3.3.6c-1.2 0-2.2-.2-2.9-.5s-1.3-.9-1.8-1.7-.7-1.7-.7-2.7c0-1.5.5-2.6 1.4-3.5s2.2-1.4 3.9-1.4c1.3 0 2.4.2 3.2.6s1.4 1 1.8 1.8.6 1.8.6 3v.5zm-3.7-1.7c-.1-.7-.3-1.2-.6-1.5s-.7-.4-1.2-.4c-.6 0-1 .2-1.4.7-.2.3-.4.7-.4 1.3h3.6zM1448.6 878.9h-4l-1.4-2.6c-.2-.4-.4-.7-.6-.8-.2-.1-.5-.2-.8-.2v3.5h-3.6v-9.3h3.6v3.4c.3 0 .5-.1.7-.3s.3-.5.6-1.1.5-1 .7-1.2.5-.5.8-.6.7-.2 1.2-.2 1.2-.1 2.2-.1v2.5h-.2c-.5 0-.8 0-1.1.1s-.5.1-.6.2-.3.4-.5.8-.4.6-.5.8-.3.2-.6.3c.5 0 .9.2 1.2.3s.7.7 1.2 1.6l1.7 2.9zM1457.7 872.1h-2.6v6.7h-3.6v-6.7h-2.6v-2.6h8.8v2.6zM1458.5 874.2c0-1.4.5-2.6 1.4-3.5s2.3-1.4 3.9-1.4c1.9 0 3.3.5 4.2 1.6.8.9 1.2 1.9 1.2 3.2 0 1.4-.5 2.6-1.4 3.5s-2.3 1.4-4 1.4c-1.5 0-2.7-.4-3.6-1.1-1.1-.9-1.7-2.1-1.7-3.7zm3.6 0c0 .8.2 1.4.5 1.8s.8.6 1.3.6.9-.2 1.3-.6.5-1 .5-1.9c0-.8-.2-1.4-.5-1.8s-.7-.6-1.2-.6-1 .2-1.3.6-.6 1.1-.6 1.9zM1470.9 882.4v-12.9h3.3v1.4c.5-.6.9-1 1.3-1.2.5-.3 1.1-.4 1.7-.4 1.2 0 2.2.5 2.9 1.4s1 2.1 1 3.5c0 1.6-.4 2.7-1.1 3.6s-1.7 1.2-2.8 1.2c-.6 0-1.1-.1-1.5-.3s-.9-.5-1.2-.8v4.5h-3.6zm3.6-8.2c0 .7.2 1.3.5 1.6s.7.5 1.2.5c.4 0 .8-.2 1-.5s.4-.9.4-1.7c0-.8-.1-1.3-.4-1.7s-.7-.5-1.1-.5c-.5 0-.8.2-1.1.5s-.5 1-.5 1.8zM1486.2 872.6l-3.4-.4c.1-.6.3-1.1.6-1.4s.6-.6 1-.9c.3-.2.8-.3 1.4-.4s1.2-.1 1.9-.1c1.1 0 1.9.1 2.6.2s1.2.4 1.6.8c.3.3.5.6.7 1.1s.3.9.3 1.4v4.1c0 .4 0 .8.1 1s.2.6.4 1h-3.4c-.1-.2-.2-.4-.3-.5s-.1-.3-.1-.6c-.5.5-.9.8-1.4 1-.6.3-1.4.4-2.2.4-1.1 0-2-.3-2.5-.8s-.9-1.2-.9-1.9.2-1.3.6-1.7 1.2-.8 2.3-1c1.3-.3 2.2-.5 2.6-.6s.8-.3 1.3-.4c0-.4-.1-.7-.3-.9s-.5-.3-1-.3c-.6 0-1 .1-1.3.3-.3-.1-.5.2-.6.6zm3.1 1.8c-.5.2-1 .3-1.5.5-.7.2-1.2.4-1.4.6-.2.2-.3.4-.3.7 0 .3.1.5.3.7s.5.3.9.3.8-.1 1.1-.3.6-.4.7-.7.2-.6.2-1.1v-.7z"/></g><g><path class="st0" d="m1097 869.5-3.4-.6c.3-1.1.8-1.9 1.6-2.5s1.9-.9 3.4-.9c1.7 0 2.9.3 3.6.9s1.1 1.4 1.1 2.4c0 .6-.2 1.1-.5 1.5s-.8.8-1.4 1.2c.5.1.9.3 1.1.4.4.3.8.6 1 1s.4.9.4 1.5c0 .8-.2 1.5-.6 2.2s-1 1.2-1.7 1.6-1.7.6-2.9.6-2.1-.1-2.8-.4-1.2-.7-1.7-1.2-.8-1.2-1-2l3.6-.5c.1.7.4 1.2.7 1.5s.7.4 1.1.4c.5 0 .9-.2 1.2-.5s.5-.8.5-1.4c0-.6-.2-1.1-.5-1.4s-.7-.5-1.3-.5c-.3 0-.7.1-1.2.2l.2-2.6h.5c.5 0 .9-.1 1.2-.4s.5-.7.5-1.1c0-.4-.1-.7-.4-.9s-.6-.4-1-.4-.8.1-1 .4-.2.9-.3 1.5zM1105.5 872.2c0-2.4.4-4.2 1.3-5.1s2.2-1.5 4-1.5c.9 0 1.6.1 2.1.3s1 .5 1.4.8.6.7.8 1.1.4.8.5 1.3c.2 1 .4 2 .4 3 0 2.3-.4 4-1.2 5.1s-2.2 1.6-4.1 1.6c-1.1 0-2-.2-2.6-.5s-1.2-.9-1.6-1.5c-.3-.5-.6-1.1-.7-1.9s-.3-1.7-.3-2.7zm3.6 0c0 1.6.1 2.8.4 3.4s.7.9 1.3.9c.4 0 .7-.1.9-.4s.5-.7.6-1.2.2-1.4.2-2.6c0-1.7-.1-2.9-.4-3.4s-.7-.9-1.3-.9c-.6 0-1 .3-1.3.9s-.4 1.6-.4 3.3zM1117.5 872.2c0-2.4.4-4.2 1.3-5.1s2.2-1.5 4-1.5c.9 0 1.6.1 2.1.3s1 .5 1.4.8.6.7.8 1.1.4.8.5 1.3c.2 1 .4 2 .4 3 0 2.3-.4 4-1.2 5.1s-2.2 1.6-4.1 1.6c-1.1 0-2-.2-2.6-.5s-1.2-.9-1.6-1.5c-.3-.5-.6-1.1-.7-1.9s-.3-1.7-.3-2.7zm3.6 0c0 1.6.1 2.8.4 3.4s.7.9 1.3.9c.4 0 .7-.1.9-.4s.5-.7.6-1.2.2-1.4.2-2.6c0-1.7-.1-2.9-.4-3.4s-.7-.9-1.3-.9c-.6 0-1 .3-1.3.9s-.4 1.6-.4 3.3zM1137.6 865.6v13.1h-3.6v-8.6c-.6.4-1.2.8-1.7 1.1s-1.2.5-2.1.8v-3c1.2-.4 2.2-.9 2.8-1.4s1.2-1.2 1.6-2h3z"/></g><g><path class="st0" d="m941.5 846.7-3.4-.6c.3-1.1.8-1.9 1.6-2.5s1.9-.9 3.4-.9c1.7 0 2.9.3 3.6.9s1.1 1.4 1.1 2.4c0 .6-.2 1.1-.5 1.5s-.8.8-1.4 1.2c.5.1.9.3 1.1.4.4.3.8.6 1 1 .2.4.4.9.4 1.5 0 .8-.2 1.5-.6 2.2-.4.7-1 1.2-1.7 1.6-.7.4-1.7.6-2.9.6s-2.1-.1-2.8-.4-1.2-.7-1.7-1.2c-.4-.5-.8-1.2-1-2l3.6-.5c.1.7.4 1.2.7 1.5.3.3.7.4 1.1.4.5 0 .9-.2 1.2-.5s.5-.8.5-1.4c0-.6-.2-1.1-.5-1.4s-.7-.5-1.3-.5c-.3 0-.7.1-1.2.2l.2-2.6h.5c.5 0 .9-.1 1.2-.4s.5-.7.5-1.1c0-.4-.1-.7-.4-.9s-.6-.4-1-.4-.8.1-1 .4c0 .4-.2.8-.3 1.5zM950 849.3c0-2.4.4-4.2 1.3-5.1s2.2-1.5 4-1.5c.9 0 1.6.1 2.1.3.6.2 1 .5 1.4.8.4.3.6.7.8 1.1.2.4.4.8.5 1.3.2 1 .4 2 .4 3 0 2.3-.4 4-1.2 5.1s-2.2 1.6-4.1 1.6c-1.1 0-2-.2-2.6-.5s-1.2-.9-1.6-1.5c-.3-.5-.6-1.1-.7-1.9-.2-.8-.3-1.7-.3-2.7zm3.6 0c0 1.6.1 2.8.4 3.4.3.6.7.9 1.3.9.4 0 .7-.1.9-.4.3-.3.5-.7.6-1.2s.2-1.4.2-2.6c0-1.7-.1-2.9-.4-3.4-.3-.6-.7-.9-1.3-.9-.6 0-1 .3-1.3.9-.3.6-.4 1.7-.4 3.3zM962 849.3c0-2.4.4-4.2 1.3-5.1s2.2-1.5 4-1.5c.9 0 1.6.1 2.1.3.6.2 1 .5 1.4.8.4.3.6.7.8 1.1.2.4.4.8.5 1.3.2 1 .4 2 .4 3 0 2.3-.4 4-1.2 5.1s-2.2 1.6-4.1 1.6c-1.1 0-2-.2-2.6-.5s-1.2-.9-1.6-1.5c-.3-.5-.6-1.1-.7-1.9-.2-.8-.3-1.7-.3-2.7zm3.6 0c0 1.6.1 2.8.4 3.4.3.6.7.9 1.3.9.4 0 .7-.1.9-.4.3-.3.5-.7.6-1.2s.2-1.4.2-2.6c0-1.7-.1-2.9-.4-3.4-.3-.6-.7-.9-1.3-.9-.6 0-1 .3-1.3.9-.3.6-.4 1.7-.4 3.3zM984.5 855.8h-10.7c.1-1.1.5-2.1 1.1-3 .6-.9 1.8-2 3.5-3.3 1-.8 1.7-1.4 2-1.8s.4-.8.4-1.2c0-.4-.1-.7-.4-1-.3-.3-.7-.4-1.1-.4-.5 0-.8.1-1.1.4s-.5.8-.6 1.5l-3.6-.3c.1-1 .4-1.8.8-2.4.4-.6.9-1 1.6-1.3.7-.3 1.6-.5 2.8-.5 1.3 0 2.2.1 2.9.4s1.3.7 1.7 1.3c.4.6.6 1.3.6 2 0 .8-.2 1.5-.7 2.2s-1.3 1.5-2.5 2.4c-.7.5-1.2.8-1.4 1s-.5.5-.9.8h5.6v3.2z"/></g><g><path class="st0" d="m921.3 900.4-3.4-.6c.3-1.1.8-1.9 1.6-2.5s1.9-.9 3.4-.9c1.7 0 2.9.3 3.6.9s1.1 1.4 1.1 2.4c0 .6-.2 1.1-.5 1.5s-.8.8-1.4 1.2c.5.1.9.3 1.1.4.4.3.8.6 1 1s.4.9.4 1.5c0 .8-.2 1.5-.6 2.2s-1 1.2-1.7 1.6-1.7.6-2.9.6-2.1-.1-2.8-.4-1.2-.7-1.7-1.2-.8-1.2-1-2l3.6-.5c.1.7.4 1.2.7 1.5s.7.4 1.1.4c.5 0 .9-.2 1.2-.5s.5-.8.5-1.4c0-.6-.2-1.1-.5-1.4s-.7-.5-1.3-.5c-.3 0-.7.1-1.2.2l.2-2.6h.5c.5 0 .9-.1 1.2-.4s.5-.7.5-1.1c0-.4-.1-.7-.4-.9s-.6-.4-1-.4-.8.1-1 .4-.2.9-.3 1.5zM929.8 903.1c0-2.4.4-4.2 1.3-5.1s2.2-1.5 4-1.5c.9 0 1.6.1 2.1.3s1 .5 1.4.8.6.7.8 1.1.4.8.5 1.3c.2 1 .4 2 .4 3 0 2.3-.4 4-1.2 5.1s-2.2 1.6-4.1 1.6c-1.1 0-2-.2-2.6-.5s-1.2-.9-1.6-1.5c-.3-.5-.6-1.1-.7-1.9s-.3-1.7-.3-2.7zm3.6 0c0 1.6.1 2.8.4 3.4s.7.9 1.3.9c.4 0 .7-.1.9-.4s.5-.7.6-1.2.2-1.4.2-2.6c0-1.7-.1-2.9-.4-3.5s-.7-.9-1.3-.9c-.6 0-1 .3-1.3.9s-.4 1.7-.4 3.4zM941.8 903.1c0-2.4.4-4.2 1.3-5.1s2.2-1.5 4-1.5c.9 0 1.6.1 2.1.3s1 .5 1.4.8.6.7.8 1.1.4.8.5 1.3c.2 1 .4 2 .4 3 0 2.3-.4 4-1.2 5.1s-2.2 1.6-4.1 1.6c-1.1 0-2-.2-2.6-.5s-1.2-.9-1.6-1.5c-.3-.5-.6-1.1-.7-1.9s-.3-1.7-.3-2.7zm3.6 0c0 1.6.1 2.8.4 3.4s.7.9 1.3.9c.4 0 .7-.1.9-.4s.5-.7.6-1.2.2-1.4.2-2.6c0-1.7-.1-2.9-.4-3.5s-.7-.9-1.3-.9c-.6 0-1 .3-1.3.9s-.4 1.7-.4 3.4zM957.3 900.4l-3.4-.6c.3-1.1.8-1.9 1.6-2.5.8-.6 1.9-.9 3.4-.9 1.7 0 2.9.3 3.6.9s1.1 1.4 1.1 2.4c0 .6-.2 1.1-.5 1.5s-.8.8-1.4 1.2c.5.1.9.3 1.1.4.4.3.8.6 1 1s.4.9.4 1.5c0 .8-.2 1.5-.6 2.2s-1 1.2-1.7 1.6-1.7.6-2.9.6-2.1-.1-2.8-.4-1.2-.7-1.7-1.2c-.4-.5-.8-1.2-1-2l3.6-.5c.1.7.4 1.2.7 1.5s.7.4 1.1.4c.5 0 .9-.2 1.2-.5s.5-.8.5-1.4c0-.6-.2-1.1-.5-1.4s-.7-.5-1.3-.5c-.3 0-.7.1-1.2.2l.2-2.6h.5c.5 0 .9-.1 1.2-.4s.5-.7.5-1.1c0-.4-.1-.7-.4-.9s-.6-.4-1-.4-.8.1-1 .4-.2.9-.3 1.5z"/></g><g><path class="st0" d="m706.2 869.3-3.4-.6c.3-1.1.8-1.9 1.6-2.5s1.9-.9 3.4-.9c1.7 0 2.9.3 3.6.9s1.1 1.4 1.1 2.4c0 .6-.2 1.1-.5 1.5s-.8.8-1.4 1.2c.5.1.9.3 1.1.4.4.3.8.6 1 1s.4.9.4 1.5c0 .8-.2 1.5-.6 2.2s-1 1.2-1.7 1.6-1.7.6-2.9.6-2.1-.1-2.8-.4-1.2-.7-1.7-1.2-.8-1.2-1-2l3.6-.5c.1.7.4 1.2.7 1.5s.7.4 1.1.4c.5 0 .9-.2 1.2-.5s.5-.8.5-1.4c0-.6-.2-1.1-.5-1.4s-.7-.5-1.3-.5c-.3 0-.7.1-1.2.2l.2-2.6h.5c.5 0 .9-.1 1.2-.4s.5-.7.5-1.1c0-.4-.1-.7-.4-.9s-.6-.4-1-.4-.8.1-1 .4-.2.8-.3 1.5zM714.8 871.9c0-2.4.4-4.2 1.3-5.1s2.2-1.5 4-1.5c.9 0 1.6.1 2.1.3s1 .5 1.4.8.6.7.8 1.1.4.8.5 1.3c.2 1 .4 2 .4 3 0 2.3-.4 4-1.2 5.1s-2.2 1.6-4.1 1.6c-1.1 0-2-.2-2.6-.5s-1.2-.9-1.6-1.5c-.3-.5-.6-1.1-.7-1.9s-.3-1.7-.3-2.7zm3.5.1c0 1.6.1 2.8.4 3.4s.7.9 1.3.9c.4 0 .7-.1.9-.4s.5-.7.6-1.2.2-1.4.2-2.6c0-1.7-.1-2.9-.4-3.5s-.7-.9-1.3-.9c-.6 0-1 .3-1.3.9s-.4 1.7-.4 3.4zM726.8 871.9c0-2.4.4-4.2 1.3-5.1s2.2-1.5 4-1.5c.9 0 1.6.1 2.1.3s1 .5 1.4.8.6.7.8 1.1.4.8.5 1.3c.2 1 .4 2 .4 3 0 2.3-.4 4-1.2 5.1s-2.2 1.6-4.1 1.6c-1.1 0-2-.2-2.6-.5s-1.2-.9-1.6-1.5c-.3-.5-.6-1.1-.7-1.9s-.3-1.7-.3-2.7zm3.5.1c0 1.6.1 2.8.4 3.4s.7.9 1.3.9c.4 0 .7-.1.9-.4s.5-.7.6-1.2.2-1.4.2-2.6c0-1.7-.1-2.9-.4-3.5s-.7-.9-1.3-.9c-.6 0-1 .3-1.3.9s-.4 1.7-.4 3.4zM740.2 865.6h8.5v2.9H743l-.3 1.9c.4-.2.8-.3 1.2-.4s.8-.1 1.2-.1c1.3 0 2.3.4 3.1 1.2s1.2 1.8 1.2 2.9c0 .8-.2 1.6-.6 2.4s-1 1.4-1.8 1.8-1.7.6-2.9.6c-.8 0-1.6-.1-2.2-.2s-1.1-.4-1.5-.7-.8-.7-1-1.1-.5-.9-.7-1.5l3.6-.4c.1.6.3 1 .6 1.3s.7.5 1.2.5.9-.2 1.2-.6.5-.9.5-1.7c0-.8-.2-1.3-.5-1.7s-.8-.5-1.3-.5c-.3 0-.7.1-1 .3-.2.1-.5.3-.8.7l-3-.4 1-7.2z"/></g><g><path class="st0" d="m600.1 869.7-3.4-.6c.3-1.1.8-1.9 1.6-2.5s1.9-.9 3.4-.9c1.7 0 2.9.3 3.6.9s1.1 1.4 1.1 2.4c0 .6-.2 1.1-.5 1.5s-.8.8-1.4 1.2c.5.1.9.3 1.1.4.4.3.8.6 1 1s.4.9.4 1.5c0 .8-.2 1.5-.6 2.2s-1 1.2-1.7 1.6-1.7.6-2.9.6-2.1-.1-2.8-.4-1.2-.7-1.7-1.2-.8-1.2-1-2l3.6-.5c.1.7.4 1.2.7 1.5s.7.4 1.1.4c.5 0 .9-.2 1.2-.5s.5-.8.5-1.4c0-.6-.2-1.1-.5-1.4s-.7-.5-1.3-.5c-.3 0-.7.1-1.2.2l.2-2.6h.5c.5 0 .9-.2 1.2-.4s.5-.7.5-1.1c0-.4-.1-.7-.4-.9s-.6-.4-1-.4-.8.1-1 .4-.2.9-.3 1.5zM608.6 872.4c0-2.4.4-4.2 1.3-5.1s2.2-1.5 4-1.5c.9 0 1.6.1 2.1.3s1 .5 1.4.8.6.7.8 1.1.4.8.5 1.3c.2 1 .4 2 .4 3 0 2.3-.4 4-1.2 5.1s-2.2 1.6-4.1 1.6c-1.1 0-2-.2-2.6-.5s-1.2-.9-1.6-1.5c-.3-.5-.6-1.1-.7-1.9s-.3-1.7-.3-2.7zm3.6 0c0 1.6.1 2.8.4 3.4s.7.9 1.3.9c.4 0 .7-.1.9-.4s.5-.7.6-1.2.2-1.4.2-2.6c0-1.7-.1-2.9-.4-3.5s-.7-.9-1.3-.9c-.6 0-1 .3-1.3.9s-.4 1.8-.4 3.4zM620.6 872.4c0-2.4.4-4.2 1.3-5.1s2.2-1.5 4-1.5c.9 0 1.6.1 2.1.3s1 .5 1.4.8.6.7.8 1.1.4.8.5 1.3c.2 1 .4 2 .4 3 0 2.3-.4 4-1.2 5.1s-2.2 1.6-4.1 1.6c-1.1 0-2-.2-2.6-.5s-1.2-.9-1.6-1.5c-.3-.5-.6-1.1-.7-1.9s-.3-1.7-.3-2.7zm3.6 0c0 1.6.1 2.8.4 3.4s.7.9 1.3.9c.4 0 .7-.1.9-.4s.5-.7.6-1.2.2-1.4.2-2.6c0-1.7-.1-2.9-.4-3.5s-.7-.9-1.3-.9c-.6 0-1 .3-1.3.9s-.4 1.8-.4 3.4zM634.8 871.9c-.6-.3-1-.6-1.2-1-.4-.5-.5-1.1-.5-1.7 0-1.1.5-2 1.5-2.6.8-.5 1.8-.8 3.1-.8 1.7 0 3 .3 3.8 1s1.2 1.5 1.2 2.5c0 .6-.2 1.1-.5 1.6-.2.4-.6.7-1.2 1.1.7.3 1.2.8 1.6 1.3s.5 1.2.5 1.8c0 .6-.1 1.2-.4 1.8s-.7 1-1.1 1.3-1 .5-1.6.7-1.3.2-2.1.2c-1.4 0-2.4-.2-3.1-.5s-1.3-.8-1.6-1.4-.6-1.3-.6-2.1.2-1.4.5-1.9.9-1 1.7-1.3zm1.4 3.1c0 .6.2 1 .5 1.4s.7.5 1.2.5c.4 0 .8-.2 1.2-.5s.5-.8.5-1.4c0-.6-.2-1-.5-1.4s-.7-.5-1.2-.5c-.4 0-.8.2-1.2.5s-.5.8-.5 1.4zm.2-5.6c0 .4.1.8.4 1.1s.6.4 1.1.4c.4 0 .7-.1 1-.4s.4-.6.4-1-.1-.8-.4-1.1-.6-.4-1.1-.4c-.4 0-.8.1-1.1.4s-.3.6-.3 1z"/></g><g><path class="st0" d="m459.6 869.9-3.4-.6c.3-1.1.8-1.9 1.6-2.5s1.9-.9 3.4-.9c1.7 0 2.9.3 3.6.9s1.1 1.4 1.1 2.4c0 .6-.2 1.1-.5 1.5s-.8.8-1.4 1.2c.5.1.9.3 1.1.4.4.3.8.6 1 1s.4.9.4 1.5c0 .8-.2 1.5-.6 2.2s-1 1.2-1.7 1.6-1.7.6-2.9.6-2.1-.1-2.8-.4-1.2-.7-1.7-1.2-.8-1.2-1-2l3.6-.5c.1.7.4 1.2.7 1.5s.7.4 1.1.4c.5 0 .9-.2 1.2-.5s.5-.8.5-1.4c0-.6-.2-1.1-.5-1.4s-.7-.5-1.3-.5c-.3 0-.7.1-1.2.2l.2-2.6h.5c.5 0 .9-.1 1.2-.4s.5-.7.5-1.1c0-.4-.1-.7-.4-.9s-.6-.4-1-.4-.8.1-1 .4-.2.9-.3 1.5zM468.2 872.6c0-2.4.4-4.2 1.3-5.1s2.2-1.5 4-1.5c.9 0 1.6.1 2.1.3s1 .5 1.4.8.6.7.8 1.1.4.8.5 1.3c.2 1 .4 2 .4 3 0 2.3-.4 4-1.2 5.1s-2.2 1.6-4.1 1.6c-1.1 0-2-.2-2.6-.5s-1.2-.9-1.6-1.5c-.3-.5-.6-1.1-.7-1.9s-.3-1.7-.3-2.7zm3.5 0c0 1.6.1 2.8.4 3.4s.7.9 1.3.9c.4 0 .7-.1.9-.4s.5-.7.6-1.2.2-1.4.2-2.6c0-1.7-.1-2.9-.4-3.4s-.7-.9-1.3-.9c-.6 0-1 .3-1.3.9s-.4 1.7-.4 3.3zM488.3 866v13.1h-3.6v-8.6c-.6.4-1.2.8-1.7 1.1s-1.2.5-2.1.8v-2.9c1.2-.4 2.2-.9 2.8-1.4s1.2-1.2 1.6-2h3zM500.3 866v13.1h-3.6v-8.6c-.6.4-1.2.8-1.7 1.1s-1.2.5-2.1.8v-2.9c1.2-.4 2.2-.9 2.8-1.4s1.2-1.2 1.6-2h3z"/></g><g><path class="st0" d="m284.6 869.9-3.4-.6c.3-1.1.8-1.9 1.6-2.5s1.9-.9 3.4-.9c1.7 0 2.9.3 3.6.9s1.1 1.4 1.1 2.4c0 .6-.2 1.1-.5 1.5s-.8.8-1.4 1.2c.5.1.9.3 1.1.4.4.3.8.6 1 1s.4.9.4 1.5c0 .8-.2 1.5-.6 2.2s-1 1.2-1.7 1.6-1.7.6-2.9.6-2.1-.1-2.8-.4-1.2-.7-1.7-1.2-.8-1.2-1-2l3.6-.5c.1.7.4 1.2.7 1.5s.7.4 1.1.4c.5 0 .9-.2 1.2-.5s.5-.8.5-1.4c0-.6-.2-1.1-.5-1.4s-.7-.5-1.3-.5c-.3 0-.7.1-1.2.2l.2-2.6h.5c.5 0 .9-.1 1.2-.4s.5-.7.5-1.1c0-.4-.1-.7-.4-.9s-.6-.4-1-.4-.8.1-1 .4-.2.9-.3 1.5zM293.2 872.6c0-2.4.4-4.2 1.3-5.1s2.2-1.5 4-1.5c.9 0 1.6.1 2.1.3s1 .5 1.4.8.6.7.8 1.1.4.8.5 1.3c.2 1 .4 2 .4 3 0 2.3-.4 4-1.2 5.1s-2.2 1.6-4.1 1.6c-1.1 0-2-.2-2.6-.5s-1.2-.9-1.6-1.5c-.3-.5-.6-1.1-.7-1.9s-.3-1.7-.3-2.7zm3.5 0c0 1.6.1 2.8.4 3.4s.7.9 1.3.9c.4 0 .7-.1.9-.4s.5-.7.6-1.2.2-1.4.2-2.6c0-1.7-.1-2.9-.4-3.5s-.7-.9-1.3-.9c-.6 0-1 .3-1.3.9s-.4 1.8-.4 3.4zM313.3 866v13.1h-3.6v-8.6c-.6.4-1.2.8-1.7 1.1s-1.2.5-2.1.8v-2.9c1.2-.4 2.2-.9 2.8-1.4s1.2-1.2 1.6-2h3zM327.7 879.1H317c.1-1.1.5-2.1 1.1-3 .6-.9 1.8-2 3.5-3.3 1-.8 1.7-1.4 2-1.8s.4-.8.4-1.2c0-.4-.1-.7-.4-1s-.7-.4-1.1-.4c-.5 0-.8.1-1.1.4s-.5.8-.6 1.5l-3.6-.3c.1-1 .4-1.8.8-2.4.4-.6.9-1 1.6-1.3s1.6-.5 2.8-.5c1.3 0 2.2.1 2.9.4s1.3.7 1.7 1.3.6 1.3.6 2c0 .8-.2 1.5-.7 2.2s-1.3 1.5-2.5 2.4c-.7.5-1.2.8-1.4 1s-.5.5-.9.8h5.6v3.2z"/></g><g><path class="st0" d="m706.7 708.9-3.4-.6c.3-1.1.8-1.9 1.6-2.5s1.9-.9 3.4-.9c1.7 0 2.9.3 3.6.9s1.1 1.4 1.1 2.4c0 .6-.2 1.1-.5 1.5s-.8.8-1.4 1.2c.5.1.9.3 1.1.4.4.3.8.6 1 1s.4.9.4 1.5c0 .8-.2 1.5-.6 2.2s-1 1.2-1.7 1.6-1.7.6-2.9.6-2.1-.1-2.8-.4-1.2-.7-1.7-1.2-.8-1.2-1-2l3.6-.5c.1.7.4 1.2.7 1.5s.7.4 1.1.4c.5 0 .9-.2 1.2-.5s.5-.8.5-1.4c0-.6-.2-1.1-.5-1.4s-.7-.5-1.3-.5c-.3 0-.7.1-1.2.2l.2-2.6h.5c.5 0 .9-.1 1.2-.4s.5-.7.5-1.1c0-.4-.1-.7-.4-.9s-.6-.4-1-.4-.8.1-1 .4-.2.8-.3 1.5zM715.3 711.5c0-2.4.4-4.2 1.3-5.1s2.2-1.5 4-1.5c.9 0 1.6.1 2.1.3s1 .5 1.4.8.6.7.8 1.1.4.8.5 1.3c.2 1 .4 2 .4 3 0 2.3-.4 4-1.2 5.1s-2.2 1.6-4.1 1.6c-1.1 0-2-.2-2.6-.5s-1.2-.9-1.6-1.5c-.3-.5-.6-1.1-.7-1.9s-.3-1.7-.3-2.7zm3.5 0c0 1.6.1 2.8.4 3.4s.7.9 1.3.9c.4 0 .7-.1.9-.4s.5-.7.6-1.2.2-1.4.2-2.6c0-1.7-.1-2.9-.4-3.4s-.7-.9-1.3-.9c-.6 0-1 .3-1.3.9s-.4 1.7-.4 3.3zM727.3 711.5c0-2.4.4-4.2 1.3-5.1s2.2-1.5 4-1.5c.9 0 1.6.1 2.1.3s1 .5 1.4.8.6.7.8 1.1.4.8.5 1.3c.2 1 .4 2 .4 3 0 2.3-.4 4-1.2 5.1s-2.2 1.6-4.1 1.6c-1.1 0-2-.2-2.6-.5s-1.2-.9-1.6-1.5c-.3-.5-.6-1.1-.7-1.9s-.3-1.7-.3-2.7zm3.5 0c0 1.6.1 2.8.4 3.4s.7.9 1.3.9c.4 0 .7-.1.9-.4s.5-.7.6-1.2.2-1.4.2-2.6c0-1.7-.1-2.9-.4-3.4s-.7-.9-1.3-.9c-.6 0-1 .3-1.3.9s-.4 1.7-.4 3.3zM745.4 715.6h-6.5v-2.9l6.5-7.8h3.1v7.9h1.6v2.8h-1.6v2.4h-3.1v-2.4zm0-2.8v-4.1l-3.4 4.1h3.4z"/></g><g><path class="st0" d="m1727.6 707.8-3.4-.6c.3-1.1.8-1.9 1.6-2.5.8-.6 1.9-.9 3.4-.9 1.7 0 2.9.3 3.6.9s1.1 1.4 1.1 2.4c0 .6-.2 1.1-.5 1.5s-.8.8-1.4 1.2c.5.1.9.3 1.1.4.4.3.8.6 1 1 .2.4.4.9.4 1.5 0 .8-.2 1.5-.6 2.2-.4.7-1 1.2-1.7 1.6-.7.4-1.7.6-2.9.6s-2.1-.1-2.8-.4c-.7-.3-1.2-.7-1.7-1.2-.4-.5-.8-1.2-1-2l3.6-.5c.1.7.4 1.2.7 1.5.3.3.7.4 1.1.4.5 0 .9-.2 1.2-.5.3-.4.5-.8.5-1.4 0-.6-.2-1.1-.5-1.4-.3-.3-.7-.5-1.3-.5-.3 0-.7.1-1.2.2l.2-2.6h.5c.5 0 .9-.1 1.2-.4.3-.3.5-.7.5-1.1 0-.4-.1-.7-.4-.9s-.6-.4-1-.4-.8.1-1 .4c0 .5-.2.9-.3 1.5zM1744.2 703.9V717h-3.6v-8.6c-.6.4-1.2.8-1.7 1.1-.5.3-1.2.5-2.1.8v-2.9c1.2-.4 2.2-.9 2.8-1.4s1.2-1.2 1.6-2h3zM1748.1 710.5c0-2.4.4-4.2 1.3-5.1.9-1 2.2-1.5 4-1.5.9 0 1.6.1 2.1.3.6.2 1 .5 1.4.8.4.3.6.7.8 1.1.2.4.4.8.5 1.3.2 1 .4 2 .4 3 0 2.3-.4 4-1.2 5.1s-2.2 1.6-4.1 1.6c-1.1 0-2-.2-2.6-.5s-1.2-.9-1.6-1.5c-.3-.5-.6-1.1-.7-1.9-.2-.8-.3-1.7-.3-2.7zm3.6 0c0 1.6.1 2.8.4 3.4.3.6.7.9 1.3.9.4 0 .7-.1.9-.4.3-.3.5-.7.6-1.2.1-.6.2-1.4.2-2.6 0-1.7-.1-2.9-.4-3.4-.3-.6-.7-.9-1.3-.9-.6 0-1 .3-1.3.9-.3.6-.4 1.7-.4 3.3zM1770.6 717h-10.7c.1-1.1.5-2.1 1.1-3 .6-.9 1.8-2 3.5-3.3 1-.8 1.7-1.4 2-1.8s.4-.8.4-1.2c0-.4-.1-.7-.4-1-.3-.3-.7-.4-1.1-.4-.5 0-.8.1-1.1.4s-.5.8-.6 1.5l-3.6-.3c.1-1 .4-1.8.8-2.4.4-.6.9-1 1.6-1.3.7-.3 1.6-.5 2.8-.5 1.3 0 2.2.1 2.9.4s1.3.7 1.7 1.3c.4.6.6 1.3.6 2 0 .8-.2 1.5-.7 2.2s-1.3 1.5-2.5 2.4c-.7.5-1.2.8-1.4 1s-.5.5-.9.8h5.6v3.2z"/></g><g><path class="st0" d="m336.5 565.8-3.4-.1c.1-1.1.5-2 1.3-2.7.7-.7 1.8-1.1 3.2-1.3 1.7-.2 2.9-.1 3.7.4s1.3 1.2 1.4 2.2c.1.6 0 1.1-.2 1.6s-.6.9-1.2 1.4c.5.1.9.1 1.2.3.5.2.8.5 1.1.9.3.4.5.9.6 1.5.1.7 0 1.5-.3 2.2-.3.7-.8 1.3-1.5 1.8s-1.6.8-2.8 1c-1.2.2-2.1.2-2.8 0s-1.3-.5-1.8-1-.9-1.1-1.3-1.8l3.5-1c.2.7.5 1.2.9 1.4s.7.3 1.2.3c.5-.1.8-.3 1.1-.7.3-.4.4-.9.3-1.5-.1-.6-.3-1-.7-1.3-.4-.3-.8-.4-1.3-.3-.3 0-.7.2-1.1.4l-.2-2.6h.5c.5-.1.8-.3 1.1-.6.3-.3.4-.7.3-1.1-.1-.4-.2-.7-.5-.9-.3-.2-.6-.3-1-.2-.4.1-.7.2-1 .5-.2.1-.3.6-.3 1.2zM345.3 567.3c-.3-2.4-.1-4.2.6-5.3s2-1.8 3.8-2c.9-.1 1.6-.1 2.2 0 .6.1 1.1.3 1.5.6.4.3.7.6 1 1 .3.3.5.8.7 1.2.4.9.6 1.9.8 2.9.3 2.3.2 4.1-.5 5.2-.6 1.2-1.9 1.9-3.8 2.2-1.1.2-2 .1-2.7-.1-.7-.2-1.3-.7-1.8-1.3-.4-.4-.7-1-1-1.8-.4-.7-.6-1.6-.8-2.6zm3.6-.5c.2 1.6.5 2.7.9 3.3.4.6.8.8 1.4.7.4-.1.7-.2.9-.5.2-.3.4-.7.4-1.3 0-.6 0-1.4-.2-2.6-.2-1.7-.5-2.8-.9-3.4-.4-.5-.8-.8-1.4-.7-.6.1-1 .4-1.1 1.1-.3.7-.3 1.8 0 3.4zM356.4 559.3l10.3-1.5.3 2.4c-.8.9-1.4 1.9-1.9 3-.6 1.3-1 2.6-1.2 4.1-.2 1.1-.2 2.5-.1 4l-3.5.5c0-2.1.2-3.9.6-5.4.4-1.5 1.1-3.1 2.2-4.9l-6.3.9-.4-3.1zM375.8 567.1l-6.5.9-.4-2.9 5.4-8.6 3.1-.4 1.1 7.8 1.6-.2.4 2.8-1.6.2.3 2.4-3.1.4-.3-2.4zm-.4-2.7-.6-4-2.8 4.5 3.4-.5z"/></g><g><path class="st0" d="m321.2 480.2-3.4-.1c.1-1.1.5-2 1.3-2.7.7-.7 1.8-1.1 3.2-1.3 1.7-.2 2.9-.1 3.7.4.8.5 1.3 1.2 1.4 2.2.1.6 0 1.1-.2 1.6s-.6.9-1.2 1.4c.5.1.9.1 1.2.3.5.2.8.5 1.1.9.3.4.5.9.6 1.5.1.7 0 1.5-.3 2.2-.3.7-.8 1.3-1.5 1.8s-1.6.8-2.8 1c-1.2.2-2.1.2-2.8 0s-1.3-.5-1.8-1-.9-1.1-1.3-1.8l3.5-1c.2.7.5 1.2.9 1.4.3.2.7.3 1.2.3.5-.1.8-.3 1.1-.7.3-.4.4-.9.3-1.5-.1-.6-.3-1-.7-1.3-.4-.3-.8-.4-1.3-.3-.3 0-.7.2-1.1.4l-.2-2.6h.5c.5-.1.8-.3 1.1-.6.3-.3.4-.7.3-1.1-.1-.4-.2-.7-.5-.9-.3-.2-.6-.3-1-.2-.4.1-.7.2-1 .5-.2.1-.3.5-.3 1.2zM330 481.6c-.3-2.4-.1-4.2.6-5.3s2-1.8 3.8-2c.9-.1 1.6-.1 2.2 0 .6.1 1.1.3 1.5.6s.7.6 1 1c.3.3.5.8.7 1.2.4.9.6 1.9.8 2.9.3 2.3.2 4.1-.5 5.2-.6 1.2-1.9 1.9-3.8 2.2-1.1.2-2 .1-2.7-.1-.7-.2-1.3-.7-1.8-1.3-.4-.4-.7-1-1-1.8-.4-.7-.7-1.6-.8-2.6zm3.5-.5c.2 1.6.5 2.7.9 3.3.4.6.8.8 1.4.7.4-.1.7-.2.9-.5.2-.3.4-.7.4-1.3 0-.6 0-1.4-.2-2.6-.2-1.7-.5-2.8-.9-3.4-.4-.5-.8-.8-1.4-.7-.6.1-1 .4-1.1 1.1-.2.7-.2 1.8 0 3.4zM341.1 473.6l10.3-1.5.3 2.4c-.8.9-1.4 1.9-1.9 3-.6 1.3-1 2.6-1.2 4.1-.2 1.1-.2 2.5-.1 4l-3.5.5c0-2.1.2-3.9.6-5.4.4-1.5 1.1-3.1 2.2-4.9l-6.3.9-.4-3.1zM352.9 471.9l10.3-1.5.3 2.4c-.8.9-1.4 1.9-1.9 3-.6 1.3-1 2.6-1.2 4.1-.2 1.1-.2 2.5-.1 4l-3.5.5c0-2.1.2-3.9.6-5.4s1.1-3.1 2.2-4.9l-6.3.9-.4-3.1z"/></g><g><path class="st0" d="m312.8 417.9-3.4-.1c.1-1.1.5-2 1.3-2.7.7-.7 1.8-1.1 3.2-1.3 1.7-.2 2.9-.1 3.7.4.8.5 1.3 1.2 1.4 2.2.1.6 0 1.1-.2 1.6s-.6.9-1.2 1.4c.5.1.9.1 1.2.3.5.2.8.5 1.1.9.3.4.5.9.6 1.5.1.7 0 1.5-.3 2.2-.3.7-.8 1.3-1.5 1.8s-1.6.8-2.8 1c-1.2.2-2.1.2-2.8 0s-1.3-.5-1.8-1-.9-1.1-1.3-1.8l3.5-1c.2.7.5 1.2.9 1.4.3.2.7.3 1.2.3.5-.1.8-.3 1.1-.7.3-.4.4-.9.3-1.5-.1-.6-.3-1-.7-1.3-.4-.3-.8-.4-1.3-.3-.3 0-.7.2-1.1.4l-.2-2.6h.5c.5-.1.8-.3 1.1-.6.3-.3.4-.7.3-1.1-.1-.4-.2-.7-.5-.9-.3-.2-.6-.3-1-.2-.4.1-.7.2-1 .5-.1 0-.2.5-.3 1.2zM321.7 419.3c-.3-2.4-.1-4.2.6-5.3s2-1.8 3.8-2c.9-.1 1.6-.1 2.2 0 .6.1 1.1.3 1.5.6s.7.6 1 1c.3.3.5.8.7 1.2.4.9.6 1.9.8 2.9.3 2.3.2 4.1-.5 5.2-.6 1.2-1.9 1.9-3.8 2.2-1.1.2-2 .1-2.7-.1-.7-.2-1.3-.7-1.8-1.3-.4-.4-.7-1-1-1.8-.5-.7-.7-1.6-.8-2.6zm3.5-.5c.2 1.6.5 2.7.9 3.3.4.6.8.8 1.4.7.4-.1.7-.2.9-.5.2-.3.4-.7.4-1.3 0-.6 0-1.4-.2-2.6-.2-1.7-.5-2.8-.9-3.4-.4-.5-.8-.8-1.4-.7-.6.1-1 .4-1.1 1.1-.3.7-.2 1.8 0 3.4zM332.7 411.3l10.3-1.5.3 2.4c-.8.9-1.4 1.9-1.9 3-.6 1.3-1 2.6-1.2 4.1-.2 1.1-.2 2.5-.1 4l-3.5.5c0-2.1.2-3.9.6-5.4.4-1.5 1.1-3.1 2.2-4.9l-6.3.9-.4-3.1zM348.5 412.8l-3.4-.1c.1-1.1.5-2 1.3-2.7.7-.7 1.8-1.1 3.2-1.3 1.7-.2 2.9-.1 3.7.4.8.5 1.3 1.2 1.4 2.2.1.6 0 1.1-.2 1.6s-.6.9-1.2 1.4c.5.1.9.1 1.2.3.5.2.8.5 1.1.9.3.4.5.9.6 1.5.1.7 0 1.5-.3 2.2-.3.7-.8 1.3-1.5 1.8s-1.6.8-2.8 1c-1.2.2-2.1.2-2.8 0s-1.3-.5-1.8-1-.9-1.1-1.3-1.8l3.5-1c.2.7.5 1.2.9 1.4.3.2.7.3 1.2.3.5-.1.8-.3 1.1-.7s.4-.9.3-1.5c-.1-.6-.3-1-.7-1.3-.4-.3-.8-.4-1.3-.3-.3 0-.7.2-1.1.4l-.2-2.6h.5c.5-.1.8-.3 1.1-.6s.4-.7.3-1.1c-.1-.4-.2-.7-.5-.9-.3-.2-.6-.3-1-.2-.4.1-.7.2-1 .5-.2.1-.3.6-.3 1.2z"/></g><g><path class="st0" d="m291.6 248.1-3.4-.1c.1-1.1.5-2 1.3-2.7.7-.7 1.8-1.1 3.2-1.3 1.7-.2 2.9-.1 3.7.4.8.5 1.3 1.2 1.4 2.2.1.6 0 1.1-.2 1.6s-.6.9-1.2 1.4c.5.1.9.1 1.2.3.5.2.8.5 1.1.9.3.4.5.9.6 1.5.1.7 0 1.5-.3 2.2-.3.7-.8 1.3-1.5 1.8s-1.6.8-2.8 1c-1.2.2-2.1.2-2.8 0s-1.3-.5-1.8-1-.9-1.1-1.3-1.8l3.5-1c.2.7.5 1.2.9 1.4.3.2.7.3 1.2.3.5-.1.8-.3 1.1-.7.3-.4.4-.9.3-1.5-.1-.6-.3-1-.7-1.3-.4-.3-.8-.4-1.3-.3-.3 0-.7.2-1.1.4l-.2-2.6h.5c.5-.1.8-.3 1.1-.6.3-.3.4-.7.3-1.1-.1-.4-.2-.7-.5-.9-.3-.2-.6-.3-1-.2-.4.1-.7.2-1 .5-.2.1-.3.6-.3 1.2zM300.4 249.6c-.3-2.4-.1-4.2.6-5.3s2-1.8 3.8-2c.9-.1 1.6-.1 2.2 0 .6.1 1.1.3 1.5.6s.7.6 1 1c.3.3.5.8.7 1.2.4.9.6 1.9.8 2.9.3 2.3.2 4.1-.5 5.2-.6 1.2-1.9 1.9-3.8 2.2-1.1.2-2 .1-2.7-.1-.7-.2-1.3-.7-1.8-1.3-.4-.4-.7-1-1-1.8-.4-.7-.6-1.6-.8-2.6zm3.5-.5c.2 1.6.5 2.7.9 3.3.4.6.8.8 1.4.7.4-.1.7-.2.9-.5.2-.3.4-.7.4-1.3 0-.6 0-1.4-.2-2.6-.2-1.7-.5-2.8-.9-3.4-.4-.5-.8-.8-1.4-.7-.6.1-1 .4-1.1 1.1-.2.7-.2 1.8 0 3.4zM311.5 241.6l10.3-1.5.3 2.4c-.8.9-1.4 1.9-1.9 3-.6 1.3-1 2.6-1.2 4.1-.2 1.1-.2 2.5-.1 4l-3.5.5c0-2.1.2-3.9.6-5.4.4-1.5 1.1-3.1 2.2-4.9l-6.3.9-.4-3.1zM335.5 251.2l-10.6 1.5c0-1.1.2-2.1.7-3.1.5-1 1.5-2.3 3-3.8.9-.9 1.5-1.6 1.7-2s.3-.8.3-1.2c-.1-.4-.2-.7-.6-.9-.3-.2-.7-.3-1.1-.3-.5.1-.8.3-1 .6-.2.3-.4.9-.4 1.6l-3.6.2c0-1 .1-1.8.4-2.4.3-.6.8-1.1 1.4-1.5.6-.4 1.5-.7 2.7-.8 1.2-.2 2.2-.2 3 0 .7.2 1.3.5 1.8 1.1.5.5.8 1.2.9 1.9.1.8 0 1.6-.4 2.3-.4.8-1.1 1.7-2.2 2.7-.6.6-1.1 1-1.3 1.2s-.5.5-.7.9l5.5-.8.5 2.8z"/></g><g><path class="st0" d="m274.5 143.4-3.4-.1c.1-1.1.5-2 1.3-2.7.7-.7 1.8-1.1 3.2-1.3 1.7-.2 2.9-.1 3.7.4.8.5 1.3 1.2 1.4 2.2.1.6 0 1.1-.2 1.6s-.6.9-1.2 1.4c.5.1.9.1 1.2.3.5.2.8.5 1.1.9.3.4.5.9.6 1.5.1.7 0 1.5-.3 2.2-.3.7-.8 1.3-1.5 1.8s-1.6.8-2.8 1c-1.2.2-2.1.2-2.8 0s-1.3-.5-1.8-1-.9-1.1-1.3-1.8l3.5-1c.2.7.5 1.2.9 1.4.3.2.7.3 1.2.3.5-.1.8-.3 1.1-.7.3-.4.4-.9.3-1.5-.1-.6-.3-1-.7-1.3-.4-.3-.8-.4-1.3-.3-.3 0-.7.2-1.1.4l-.2-2.6h.5c.5-.1.8-.3 1.1-.6.3-.3.4-.7.3-1.1-.1-.4-.2-.7-.5-.9-.3-.2-.6-.3-1-.2-.4.1-.7.2-1 .5-.2.1-.3.6-.3 1.2zM283.3 144.9c-.3-2.4-.1-4.2.6-5.3s2-1.8 3.8-2c.9-.1 1.6-.1 2.2 0 .6.1 1.1.3 1.5.6s.7.6 1 1c.3.3.5.8.7 1.2.4.9.6 1.9.8 2.9.3 2.3.2 4.1-.5 5.2-.6 1.2-1.9 1.9-3.8 2.2-1.1.2-2 .1-2.7-.1-.7-.2-1.3-.7-1.8-1.3-.4-.4-.7-1-1-1.8-.4-.8-.6-1.6-.8-2.6zm3.6-.5c.2 1.6.5 2.7.9 3.3.4.6.8.8 1.4.7.4-.1.7-.2.9-.5.2-.3.4-.7.4-1.3 0-.6 0-1.4-.2-2.6-.2-1.7-.5-2.8-.9-3.4-.4-.5-.8-.8-1.4-.7-.6.1-1 .4-1.1 1.1-.3.7-.3 1.8 0 3.4zM294.4 136.9l10.3-1.5.3 2.4c-.8.9-1.4 1.9-1.9 3-.6 1.3-1 2.6-1.2 4.1-.2 1.1-.2 2.5-.1 4l-3.5.5c0-2.1.2-3.9.6-5.4.4-1.5 1.1-3.1 2.2-4.9l-6.3.9-.4-3.1zM314.2 133.8l1.8 13-3.6.5-1.2-8.5c-.5.5-1 1-1.5 1.3-.5.3-1.1.7-1.9 1.1l-.4-2.9c1.2-.6 2-1.2 2.6-1.8.6-.6 1-1.4 1.3-2.2l2.9-.5z"/></g><g><path class="st0" d="m162.6 179.8-.1 3.4c-1.1-.1-2-.5-2.7-1.3-.7-.7-1.1-1.8-1.3-3.2-.2-1.7-.1-2.9.4-3.7.5-.8 1.2-1.3 2.2-1.4.6-.1 1.1 0 1.6.2s.9.6 1.4 1.2c.1-.5.1-.9.3-1.2.2-.5.5-.8.9-1.1.4-.3.9-.5 1.5-.6.7-.1 1.5 0 2.2.3.7.3 1.3.8 1.8 1.5s.8 1.6 1 2.8c.2 1.2.2 2.1 0 2.8-.2.7-.5 1.3-1 1.8s-1.1.9-1.8 1.3l-1-3.5c.7-.2 1.2-.5 1.4-.9.2-.3.3-.7.3-1.2-.1-.5-.3-.8-.7-1.1-.4-.3-.9-.4-1.5-.3-.6.1-1 .3-1.3.7-.3.4-.4.8-.3 1.3 0 .3.2.7.4 1.1l-2.6.2v-.5c-.1-.5-.3-.8-.6-1.1-.3-.3-.7-.4-1.1-.3-.4.1-.7.2-.9.5-.2.3-.3.6-.2 1 .1.4.2.7.5 1 .1.2.5.3 1.2.3zM164 171c-2.4.3-4.2.1-5.3-.6s-1.8-2-2-3.8c-.1-.9-.1-1.6 0-2.2.1-.6.3-1.1.6-1.5.3-.4.6-.7 1-1 .3-.3.8-.5 1.2-.7.9-.4 1.9-.6 2.9-.8 2.3-.3 4.1-.2 5.2.5 1.2.6 1.9 1.9 2.2 3.8.2 1.1.1 2-.1 2.7-.2.7-.7 1.3-1.3 1.8-.4.4-1 .7-1.8 1-.7.4-1.6.6-2.6.8zm-.5-3.5c1.6-.2 2.7-.5 3.3-.9.6-.4.8-.8.7-1.4-.1-.4-.2-.7-.5-.9-.3-.2-.7-.4-1.3-.4s-1.4 0-2.6.2c-1.7.2-2.8.5-3.4.9-.5.4-.8.8-.7 1.4.1.6.4 1 1.1 1.1.7.2 1.8.2 3.4 0zM157.4 149.3l.9 3.5c-.5.2-.8.4-1 .6s-.2.5-.2.8c.1.6.4 1 1.1 1.2.5.2 1.4.2 2.8.1-.5-.4-.9-.8-1.1-1.2-.3-.4-.4-.9-.5-1.5-.2-1.1.1-2.2.8-3.1.7-.9 1.7-1.4 2.9-1.6.8-.1 1.6 0 2.4.3.8.3 1.4.8 1.8 1.4.5.7.8 1.5.9 2.6.2 1.3.1 2.3-.2 3.2-.3.8-.9 1.5-1.8 2.1-.9.6-2.1 1-3.7 1.2-2.3.3-4.1.1-5.3-.7-1.2-.8-1.9-2.1-2.2-3.8-.1-1-.1-1.8 0-2.5s.4-1.2.8-1.6c.5-.3 1-.7 1.6-1zm6.7 5.7c.7-.1 1.2-.3 1.5-.8.3-.4.5-.9.4-1.4-.1-.5-.3-.8-.7-1.1-.4-.3-.9-.3-1.7-.2-.7.1-1.2.3-1.6.7-.3.4-.5.8-.4 1.3.1.5.3.9.7 1.2.5.3 1.1.4 1.8.3zM164.2 146.5l-.9-3.5c.5-.2.8-.4 1-.6.2-.2.2-.5.2-.9-.1-.6-.4-1-1-1.2-.5-.2-1.4-.2-2.8-.1.5.4.9.8 1.1 1.2.3.4.4.9.5 1.5.2 1.1-.1 2.2-.8 3.1-.7.9-1.7 1.4-2.9 1.6-.8.1-1.6 0-2.4-.3s-1.4-.8-1.8-1.4c-.5-.7-.8-1.5-.9-2.6-.2-1.3-.1-2.3.2-3.2.3-.8.9-1.5 1.8-2.1.9-.6 2.1-1 3.7-1.2 2.3-.3 4.1-.1 5.3.7 1.2.8 1.9 2.1 2.2 3.8.1 1 .1 1.8 0 2.5-.2.6-.4 1.2-.8 1.6-.5.5-1 .8-1.7 1.1zm-6.6-5.7c-.7.1-1.2.3-1.5.8-.3.4-.5.9-.4 1.4.1.5.3.8.7 1.1.4.3 1 .3 1.7.2.7-.1 1.2-.3 1.6-.7.3-.4.5-.8.4-1.3-.1-.5-.3-.9-.7-1.2-.6-.3-1.1-.4-1.8-.3z"/></g><g><path class="st0" d="m175.7 287.7-.1 3.4c-1.1-.1-2-.5-2.7-1.3-.7-.7-1.1-1.8-1.3-3.2-.2-1.7-.1-2.9.4-3.7.5-.8 1.2-1.3 2.2-1.4.6-.1 1.1 0 1.6.2s.9.6 1.4 1.2c.1-.5.1-.9.3-1.2.2-.5.5-.8.9-1.1.4-.3.9-.5 1.5-.6.7-.1 1.5 0 2.2.3.7.3 1.3.8 1.8 1.5s.8 1.6 1 2.8c.2 1.2.2 2.1 0 2.8-.2.7-.5 1.3-1 1.8s-1.1.9-1.8 1.3l-1-3.5c.7-.2 1.2-.5 1.4-.9.2-.3.3-.7.3-1.2-.1-.5-.3-.8-.7-1.1-.4-.3-.9-.4-1.5-.3-.6.1-1 .3-1.3.7-.3.4-.4.8-.3 1.3 0 .3.2.7.4 1.1l-2.6.2v-.5c-.1-.5-.3-.8-.6-1.1-.3-.3-.7-.4-1.1-.3-.4.1-.7.2-.9.5-.2.3-.3.6-.2 1 .1.4.2.7.5 1 .1.2.6.3 1.2.3zM177.1 278.9c-2.4.3-4.2.1-5.3-.6s-1.8-2-2-3.8c-.1-.9-.1-1.6 0-2.2.1-.6.3-1.1.6-1.5.3-.4.6-.7 1-1 .3-.3.8-.5 1.2-.7.9-.4 1.9-.6 2.9-.8 2.3-.3 4.1-.2 5.2.5 1.2.6 1.9 1.9 2.2 3.8.2 1.1.1 2-.1 2.7-.2.7-.7 1.3-1.3 1.8-.4.4-1 .7-1.8 1-.7.4-1.6.6-2.6.8zm-.4-3.5c1.6-.2 2.7-.5 3.3-.9.6-.4.8-.8.7-1.4-.1-.4-.2-.7-.5-.9-.3-.2-.7-.4-1.3-.4s-1.4 0-2.6.2c-1.7.2-2.8.5-3.4.9-.5.4-.8.8-.7 1.4.1.6.4 1 1.1 1.1.6.2 1.8.2 3.4 0zM169.1 267.8l-1.5-10.3 2.4-.3c.9.8 1.9 1.4 3 1.9 1.3.6 2.6 1 4.1 1.2 1.1.2 2.5.2 4 .1l.5 3.5c-2.1 0-3.9-.2-5.4-.6-1.5-.4-3.1-1.1-4.9-2.2l.9 6.3-3.1.4zM173.8 255.1c-2.4.3-4.2.1-5.3-.6s-1.8-2-2-3.8c-.1-.9-.1-1.6 0-2.2.1-.6.3-1.1.6-1.5.3-.4.6-.7 1-1 .3-.3.8-.5 1.2-.7.9-.4 1.9-.6 2.9-.8 2.3-.3 4.1-.2 5.2.5s1.9 1.9 2.2 3.8c.2 1.1.1 2-.1 2.7-.2.7-.7 1.3-1.3 1.8-.4.4-1 .7-1.8 1-.7.5-1.6.7-2.6.8zm-.5-3.5c1.6-.2 2.7-.5 3.3-.9.6-.4.8-.8.7-1.4-.1-.4-.2-.7-.5-.9s-.7-.4-1.3-.4-1.4 0-2.6.2c-1.7.2-2.8.5-3.4.9-.5.4-.8.8-.7 1.4.1.6.4 1 1.1 1.1.7.2 1.8.2 3.4 0z"/></g><g><path class="st0" d="m205.5 486.9-.1 3.4c-1.1-.1-2-.5-2.7-1.3-.7-.7-1.1-1.8-1.3-3.2-.2-1.7-.1-2.9.4-3.7.5-.8 1.2-1.3 2.2-1.4.6-.1 1.1 0 1.6.2s.9.6 1.4 1.2c.1-.5.1-.9.3-1.2.2-.5.5-.8.9-1.1.4-.3.9-.5 1.5-.6.7-.1 1.5 0 2.2.3.7.3 1.3.8 1.8 1.5s.8 1.6 1 2.8c.2 1.2.2 2.1 0 2.8-.2.7-.5 1.3-1 1.8s-1.1.9-1.8 1.3l-1-3.5c.7-.2 1.2-.5 1.4-.9.2-.3.3-.7.3-1.2-.1-.5-.3-.8-.7-1.1-.4-.3-.9-.4-1.5-.3-.6.1-1 .3-1.3.7-.3.4-.4.8-.3 1.3 0 .3.2.7.4 1.1l-2.6.2v-.5c-.1-.5-.3-.8-.6-1.1-.3-.3-.7-.4-1.1-.3-.4.1-.7.2-.9.5-.2.3-.3.6-.2 1 .1.4.2.7.5 1 .1.2.6.3 1.2.3zM206.9 478.1c-2.4.3-4.2.1-5.3-.6s-1.8-2-2-3.8c-.1-.9-.1-1.6 0-2.2.1-.6.3-1.1.6-1.5.3-.4.6-.7 1-1 .3-.3.8-.5 1.2-.7.9-.4 1.9-.6 2.9-.8 2.3-.3 4.1-.2 5.2.5 1.2.6 1.9 1.9 2.2 3.8.2 1.1.1 2-.1 2.7-.2.7-.7 1.3-1.3 1.8-.4.4-1 .7-1.8 1-.7.5-1.6.7-2.6.8zm-.4-3.5c1.6-.2 2.7-.5 3.3-.9.6-.4.8-.8.7-1.4-.1-.4-.2-.7-.5-.9-.3-.2-.7-.4-1.3-.4s-1.4 0-2.6.2c-1.7.2-2.8.5-3.4.9-.5.4-.8.8-.7 1.4.1.6.4 1 1.1 1.1.6.3 1.7.2 3.4 0zM198.9 467.1l-1.5-10.3 2.4-.3c.9.8 1.9 1.4 3 1.9 1.3.6 2.6 1 4.1 1.2 1.1.2 2.5.2 4 .1l.5 3.5c-2.1 0-3.9-.2-5.4-.6-1.5-.4-3.1-1.1-4.9-2.2l.9 6.3-3.1.4zM198.7 444.6l.9 3.5c-.5.2-.8.4-1 .6s-.2.5-.2.8c.1.6.4 1 1.1 1.2.5.2 1.4.2 2.8.1-.5-.4-.9-.8-1.1-1.2-.3-.4-.4-.9-.5-1.5-.2-1.1.1-2.2.8-3.1.7-.9 1.7-1.4 2.9-1.6.8-.1 1.6 0 2.4.3s1.4.8 1.8 1.4c.5.7.8 1.5.9 2.6.2 1.3.1 2.3-.2 3.2-.3.8-.9 1.5-1.8 2.1-.9.6-2.1 1-3.7 1.2-2.3.3-4.1.1-5.3-.7-1.2-.8-1.9-2.1-2.2-3.8-.1-1-.1-1.8 0-2.5.2-.6.4-1.2.8-1.6s.9-.7 1.6-1zm6.6 5.7c.7-.1 1.2-.3 1.5-.8s.5-.9.4-1.4c-.1-.5-.3-.8-.7-1.1-.4-.3-.9-.3-1.7-.2-.7.1-1.2.3-1.6.7-.3.4-.5.8-.4 1.3.1.5.3.9.7 1.2s1.1.4 1.8.3z"/></g><g><path class="st0" d="m219.4 592.5-.1 3.4c-1.1-.1-2-.5-2.7-1.3-.7-.7-1.1-1.8-1.3-3.2-.2-1.7-.1-2.9.4-3.7.5-.8 1.2-1.3 2.2-1.4.6-.1 1.1 0 1.6.2s.9.6 1.4 1.2c.1-.5.1-.9.3-1.2.2-.5.5-.8.9-1.1.4-.3.9-.5 1.5-.6.7-.1 1.5 0 2.2.3.7.3 1.3.8 1.8 1.5s.8 1.6 1 2.8c.2 1.2.2 2.1 0 2.8-.2.7-.5 1.3-1 1.8s-1.1.9-1.8 1.3l-1-3.5c.7-.2 1.2-.5 1.4-.9.2-.3.3-.7.3-1.2-.1-.5-.3-.8-.7-1.1-.4-.3-.9-.4-1.5-.3-.6.1-1 .3-1.3.7-.3.3-.4.8-.3 1.3 0 .3.2.7.4 1.1l-2.6.2v-.5c-.1-.5-.3-.8-.6-1.1-.3-.3-.7-.4-1.1-.3-.4.1-.7.2-.9.5s-.3.6-.2 1c.1.4.2.7.5 1 .1.2.6.3 1.2.3zM220.9 583.7c-2.4.3-4.2.1-5.3-.6s-1.8-2-2-3.8c-.1-.9-.1-1.6 0-2.2.1-.6.3-1.1.6-1.5s.6-.7 1-1c.3-.3.8-.5 1.2-.7.9-.4 1.9-.6 2.9-.8 2.3-.3 4.1-.2 5.2.5 1.2.6 1.9 1.9 2.2 3.8.2 1.1.1 2-.1 2.7-.2.7-.7 1.3-1.3 1.8-.4.4-1 .7-1.8 1-.7.5-1.6.7-2.6.8zm-.5-3.5c1.6-.2 2.7-.5 3.3-.9.6-.4.8-.8.7-1.4-.1-.4-.2-.7-.5-.9-.3-.2-.7-.4-1.3-.4-.6 0-1.4 0-2.6.2-1.7.2-2.8.5-3.4.9-.5.4-.8.8-.7 1.4.1.6.4 1 1.1 1.1.7.3 1.8.2 3.4 0zM212.9 572.7l-1.5-10.3 2.4-.3c.9.8 1.9 1.4 3 1.9 1.3.6 2.6 1 4.1 1.2 1.1.2 2.5.2 4 .1l.5 3.5c-2.1 0-3.9-.2-5.4-.6-1.5-.4-3.1-1.1-4.9-2.2l.9 6.3-3.1.4zM211 559.4l-1.2-8.4 2.8-.4.8 5.7h2c-.2-.4-.4-.7-.6-1.1-.1-.4-.2-.7-.3-1.1-.2-1.3.1-2.4.7-3.3s1.6-1.4 2.7-1.6c.8-.1 1.6 0 2.5.3.8.3 1.5.8 2 1.5s.8 1.6 1 2.8c.1.8.1 1.6.1 2.2-.1.6-.2 1.2-.5 1.6-.3.5-.6.9-.9 1.2-.4.3-.8.6-1.4.9l-.9-3.5c.6-.2 1-.4 1.2-.8.3-.4.3-.8.3-1.2-.1-.5-.3-.9-.7-1.1-.4-.3-1-.4-1.7-.2-.8.1-1.3.3-1.6.7-.3.4-.4.8-.3 1.4 0 .3.2.7.4 1 .2.2.4.5.8.7v3.1l-7.2-.4z"/></g><g><path class="st0" d="m232.9 693.7-.1 3.4c-1.1-.1-2-.5-2.7-1.3-.7-.7-1.1-1.8-1.3-3.2-.2-1.7-.1-2.9.4-3.7.5-.8 1.2-1.3 2.2-1.4.6-.1 1.1 0 1.6.2s.9.6 1.4 1.2c.1-.5.1-.9.3-1.2.2-.5.5-.8.9-1.1.4-.3.9-.5 1.5-.6.7-.1 1.5 0 2.2.3.7.3 1.3.8 1.8 1.5s.8 1.6 1 2.8c.2 1.2.2 2.1 0 2.8-.2.7-.5 1.3-1 1.8s-1.1.9-1.8 1.3l-1-3.5c.7-.2 1.2-.5 1.4-.9.2-.3.3-.7.3-1.2-.1-.5-.3-.8-.7-1.1-.4-.3-.9-.4-1.5-.3-.6.1-1 .3-1.3.7-.3.3-.4.8-.3 1.3 0 .3.2.7.4 1.1l-2.6.2v-.5c-.1-.5-.3-.8-.6-1.1-.3-.3-.7-.4-1.1-.3-.4.1-.7.2-.9.5s-.3.6-.2 1c.1.4.2.7.5 1 .1.2.6.3 1.2.3zM234.4 684.9c-2.4.3-4.2.1-5.3-.6s-1.8-2-2-3.8c-.1-.9-.1-1.6 0-2.2.1-.6.3-1.1.6-1.5s.6-.7 1-1c.3-.3.8-.5 1.2-.7.9-.4 1.9-.6 2.9-.8 2.3-.3 4.1-.2 5.2.5 1.2.6 1.9 1.9 2.2 3.8.2 1.1.1 2-.1 2.7-.2.7-.7 1.3-1.3 1.8-.4.4-1 .7-1.8 1-.7.4-1.6.6-2.6.8zm-.5-3.6c1.6-.2 2.7-.5 3.3-.9.6-.4.8-.8.7-1.4-.1-.4-.2-.7-.5-.9-.3-.2-.7-.4-1.3-.4-.6 0-1.4 0-2.6.2-1.7.2-2.8.5-3.4.9-.5.4-.8.8-.7 1.4.1.6.4 1 1.1 1.1.7.3 1.8.3 3.4 0zM225 665.9l13-1.8.5 3.6-8.5 1.2c.5.5 1 1 1.3 1.5.3.5.7 1.1 1.1 1.9l-2.9.4c-.6-1.2-1.2-2-1.8-2.6-.6-.6-1.4-1-2.2-1.3l-.5-2.9zM227.9 658l-.1 3.4c-1.1-.1-2-.5-2.7-1.3-.7-.7-1.1-1.8-1.3-3.2-.2-1.7-.1-2.9.4-3.7.5-.8 1.2-1.3 2.2-1.4.6-.1 1.1 0 1.6.2s.9.6 1.4 1.2c.1-.5.1-.9.3-1.2.2-.5.5-.8.9-1.1.4-.3.9-.5 1.5-.6.7-.1 1.5 0 2.2.3.7.3 1.3.8 1.8 1.5s.8 1.6 1 2.8c.2 1.2.2 2.1 0 2.8-.2.7-.5 1.3-1 1.8s-1.1.9-1.8 1.3l-1-3.5c.7-.2 1.2-.5 1.4-.9.2-.3.3-.7.3-1.2-.1-.5-.3-.8-.7-1.1-.4-.3-.9-.4-1.5-.3-.6.1-1 .3-1.3.7-.3.3-.4.8-.3 1.3 0 .3.2.7.4 1.1l-2.6.2v-.5c-.1-.5-.3-.8-.6-1.1-.3-.3-.7-.4-1.1-.3-.4.1-.7.2-.9.5s-.3.6-.2 1c.1.4.2.7.5 1 .1.2.6.3 1.2.3z"/></g><path class="st0" d="M208.3 47.3c-3-2.3-5.8-3.7-6.5-3.3-1.9 1.1-8.3 10.5-7.7 11.4 1 1.5 3.9.8 5.2-1.3.7-1.2 1.5-1.9 1.8-1.7.2.2 1.3 6.9 2.4 14.9 3 20.8 3.9 23.6 6.6 20.9.9-.9-1.6-21.8-4-34.4l-.6-2.8 2.6 1.7c2.6 1.6 5.4 1.4 5.4-.4 0-.7-2.3-2.9-5.2-5z"/><g><path class="st0" d="m162.2 41.4-5.9.8-2.7-4.1c-.6-1-1.1-1.6-1.4-1.8-.3-.2-.7-.3-1.2-.2l1 6.7-5.2.8-2.4-17 5.2-.8.9 6.5c.5-.1.8-.3 1-.6.2-.3.5-1.3.8-2.8.2-1.1.5-1.9.9-2.5.3-.5.9-.9 1.8-1.3.9-.3 2.3-.6 4.2-.9l.5 3.6h-.3c-.9.1-1.5.4-1.9.8-.4.4-.7 1-.8 1.8s-.4 1.4-.7 1.8c-.3.4-.7.8-1.2 1.1.8.1 1.5.5 2.2 1s1.4 1.4 2.2 2.6l3 4.5zM162.4 35.1c-.3-1.9.1-3.5 1.2-4.9 1.1-1.4 2.7-2.3 4.9-2.6 2.5-.4 4.4.1 5.9 1.3 1.2 1 1.9 2.4 2.1 4 .3 1.9-.1 3.5-1.2 4.9-1.1 1.4-2.7 2.2-5 2.6-2 .3-3.7 0-5-.8-1.7-.9-2.7-2.5-2.9-4.5zm4.7-.7c.2 1.1.5 1.9 1 2.3.5.5 1.1.6 1.8.5.7-.1 1.2-.4 1.6-1 .4-.6.5-1.4.3-2.6-.2-1.1-.5-1.8-1-2.3-.5-.5-1.1-.6-1.7-.5-.7.1-1.2.4-1.6 1s-.6 1.6-.4 2.6zM180.4 43.6l-2.4-17 4.4-.6.3 1.8c.5-.9 1-1.5 1.5-1.8.6-.5 1.4-.8 2.2-.9 1.6-.2 3 .2 4.1 1.3 1.1 1.1 1.8 2.6 2 4.5.3 2 0 3.7-.8 4.9-.8 1.2-2 1.9-3.5 2.2-.7.1-1.4.1-2-.1-.6-.2-1.2-.5-1.8-.9l.8 5.9-4.8.7zm3.1-11.5c.1 1 .4 1.7.9 2.1.5.4 1 .6 1.7.5.5-.1 1-.4 1.3-.9s.4-1.3.2-2.4c-.1-1-.4-1.7-.9-2.1-.5-.4-1-.6-1.5-.5-.6.1-1.1.4-1.4.9-.3.5-.4 1.3-.3 2.4zM208.5 34.8l-4.7.7-1.3-8.9-3.6.5 1.3 8.9-4.7.7-1.8-12.3 13-1.9 1.8 12.3zM208.2 22.2l5-.7 3.7 7.8 1.2-8.5 4.7-.7-3 13.9c-.3 1.6-.8 2.7-1.3 3.3-.7.9-1.9 1.4-3.6 1.7-.7.1-1.7.2-3.2.2l-.8-3.2c.7.1 1.5.1 2.3 0 .6-.1 1-.3 1.3-.6.3-.3.5-.8.7-1.5l-7-11.7zM234.4 26.1l4.6-.1c-.1 1-.4 1.8-.9 2.6s-1.1 1.4-1.9 1.9c-.8.5-1.9.9-3.3 1-1.3.2-2.4.2-3.3.1-.9-.1-1.7-.4-2.4-.9s-1.3-1-1.7-1.7c-.5-.7-.8-1.6-1-2.8-.2-1.3-.1-2.4.2-3.3.2-.7.6-1.3 1.1-1.8.5-.6 1-1 1.5-1.3.9-.5 2-.9 3.5-1.1 2-.3 3.6-.1 4.8.4 1.2.6 2 1.5 2.7 2.8l-4.4 1.2c-.2-.5-.5-.9-.9-1.1-.4-.2-.9-.3-1.5-.2-.8.1-1.4.5-1.8 1.1-.4.6-.5 1.5-.4 2.6.1 1 .5 1.7 1 2.2.6.5 1.2.6 1.9.5.6-.1 1.1-.3 1.5-.7.3-.1.5-.7.7-1.4zM253.7 17.6l2.8-.4c2.6-.4 4.6-.2 5.9.5s2.2 2.1 2.5 4c.2 1.6-.2 2.9-1.2 3.8-1 1-2.6 1.6-4.7 2l-9 1.3-2.4-17 14.3-2.1.5 3.4-9.1 1.3.4 3.2zm1 6.8 2.7-.4c1.6-.2 2.4-.9 2.2-2.1-.1-1-1-1.4-2.7-1.2l-2.7.4.5 3.3z"/></g><path class="st0" d="M100.4 777.1c-2.2 3.1-3.6 5.9-3.1 6.6 1.1 1.9 10.7 8 11.6 7.4 1.5-1 .7-3.9-1.4-5.2-1.2-.7-1.9-1.5-1.7-1.8.2-.2 6.9-1.5 14.8-2.8 20.7-3.5 23.5-4.5 20.7-7.1-.9-.9-21.8 2.1-34.3 4.8l-2.8.7 1.6-2.6c1.5-2.6 1.3-5.4-.5-5.4-.6.1-2.7 2.5-4.9 5.4z"/><g><path class="st0" d="m95.7 823.3 1 5.9-4 2.8c-1 .7-1.5 1.1-1.8 1.5-.2.3-.3.7-.2 1.2l6.7-1.1.9 5.2-16.9 2.8-.9-5.2 6.5-1.1c-.1-.5-.3-.8-.7-1-.3-.2-1.3-.5-2.8-.8-1.1-.2-1.9-.5-2.5-.8-.5-.3-1-.9-1.3-1.8-.4-.9-.7-2.3-1-4.2l3.6-.6v.3c.1.9.4 1.5.8 1.9.4.4 1 .6 1.8.8.8.2 1.4.4 1.8.6.4.3.8.6 1.1 1.2.1-.8.4-1.5.9-2.2.5-.7 1.4-1.4 2.5-2.3l4.5-3.1zM89.4 823.4c-1.9.3-3.5-.1-4.9-1.1-1.4-1.1-2.3-2.7-2.7-4.8-.4-2.5 0-4.4 1.2-5.9 1-1.2 2.3-1.9 4-2.2 1.9-.3 3.5.1 5 1.1 1.4 1 2.3 2.7 2.7 4.9.3 2 .1 3.7-.7 5-1.1 1.6-2.6 2.6-4.6 3zm-.8-4.7c1.1-.2 1.9-.5 2.3-1.1.5-.5.6-1.1.5-1.8-.1-.7-.5-1.2-1.1-1.5-.6-.3-1.5-.4-2.6-.2s-1.8.5-2.3 1.1-.6 1.1-.5 1.8c.1.7.5 1.2 1.1 1.6.7.2 1.5.2 2.6.1zM97.4 805.2 80.5 808l-.7-4.4 1.8-.3c-.9-.5-1.5-1-1.8-1.4-.5-.6-.8-1.4-.9-2.2-.3-1.6.1-3 1.2-4.1 1.1-1.1 2.6-1.8 4.4-2.1 2-.3 3.7-.1 4.9.7 1.2.8 2 1.9 2.2 3.4.1.7.1 1.4 0 2-.1.6-.4 1.2-.8 1.8l5.9-1 .7 4.8zm-11.5-2.9c1-.2 1.7-.5 2.1-1 .4-.5.6-1 .4-1.7-.1-.5-.4-1-.9-1.3-.5-.3-1.3-.4-2.4-.2-1 .2-1.7.5-2.1.9-.4.5-.6 1-.5 1.5.1.6.4 1.1 1 1.4.5.5 1.3.5 2.4.4zM88 777.3l.8 4.7-8.8 1.5.6 3.6 8.8-1.5.8 4.7-12.3 2.1-2.2-13 12.3-2.1zM75.4 777.8l-.8-5 7.7-3.9-8.6-1-.8-4.6 13.9 2.7c1.6.3 2.7.7 3.3 1.2.9.7 1.5 1.9 1.7 3.5.1.7.2 1.7.2 3.2l-3.2.9c.1-.7.1-1.5-.1-2.3-.1-.6-.3-1-.6-1.3-.3-.3-.8-.5-1.5-.6l-11.2 7.2zM78.7 751.6l-.2-4.6c1 .1 1.8.4 2.6.8s1.4 1.1 1.9 1.9c.5.8.9 1.9 1.1 3.2.2 1.3.3 2.4.2 3.3-.1.9-.4 1.7-.8 2.4s-1 1.3-1.7 1.8-1.6.8-2.8 1c-1.3.2-2.4.2-3.3-.1-.7-.2-1.3-.6-1.9-1-.6-.5-1-1-1.4-1.5-.5-.9-.9-2-1.2-3.4-.3-2-.2-3.6.3-4.8.5-1.2 1.5-2.1 2.8-2.7l1.3 4.3c-.5.2-.9.5-1.1 1-.2.4-.3.9-.2 1.5.1.8.5 1.4 1.2 1.7.6.4 1.5.5 2.7.3 1-.2 1.7-.5 2.2-1.1.4-.6.6-1.2.5-2-.1-.6-.3-1.1-.7-1.5-.3-.2-.8-.4-1.5-.5zM69.7 732.5l-.5-2.8c-.4-2.6-.3-4.5.4-5.9.7-1.4 2-2.2 3.9-2.6 1.6-.3 2.9.1 3.9 1.1s1.7 2.6 2.1 4.7l1.5 9-16.9 2.8-2.4-14.3 3.4-.6 1.5 9 3.1-.4zm6.8-1.2-.4-2.7c-.3-1.6-1-2.4-2.2-2.2-1 .2-1.4 1.1-1.1 2.7l.4 2.7 3.3-.5z"/></g><path class="st0" d="M2375.3 786.3c2.9-2.4 4.9-4.8 4.7-5.6-.6-2.1-8.3-10.5-9.4-10.1-1.7.6-1.7 3.6.1 5.4 1 1 1.5 1.9 1.2 2.1-.2.1-7-.3-15.1-1-20.9-1.8-23.9-1.6-21.9 1.7.7 1.1 21.6 3.4 34.4 3.9l2.9.1-2.2 2.1c-2.1 2.2-2.6 4.9-.8 5.4.6.1 3.3-1.7 6.1-4z"/><g><path class="st0" d="m2391.4 742.8.5-6 4.6-1.7c1.1-.4 1.8-.7 2.1-1 .3-.2.4-.6.5-1.1l-6.8-.6.5-5.3 17.1 1.5-.5 5.3-6.6-.6c0 .5.1.8.4 1.1.3.3 1.1.8 2.5 1.4 1 .5 1.8 1 2.2 1.4.4.4.7 1.1.8 2.1.1.9.1 2.4-.1 4.3l-3.6-.3v-.3c.1-.9 0-1.6-.3-2.1s-.8-.9-1.6-1.2-1.3-.7-1.6-1.1c-.3-.4-.6-.8-.8-1.4-.3.7-.8 1.4-1.5 1.9s-1.7 1-3 1.6l-4.8 2.1zM2397.5 744.3c1.9.2 3.4.9 4.5 2.3s1.6 3.2 1.4 5.3c-.2 2.5-1.1 4.3-2.6 5.4-1.2.9-2.7 1.3-4.4 1.2-1.9-.2-3.4-.9-4.5-2.3s-1.6-3.2-1.4-5.4c.2-2 .8-3.6 1.9-4.7 1.4-1.4 3.1-2 5.1-1.8zm-.4 4.8c-1.1-.1-1.9.1-2.5.5-.6.4-.9.9-.9 1.6-.1.7.2 1.3.6 1.8.5.5 1.3.8 2.5.9 1.1.1 1.9-.1 2.5-.5.6-.4.9-.9.9-1.6.1-.7-.2-1.3-.7-1.8-.5-.5-1.3-.8-2.4-.9zM2385.2 759.9l17.1 1.5-.4 4.4-1.8-.2c.7.7 1.2 1.3 1.4 1.8.3.7.4 1.5.3 2.3-.1 1.7-.9 2.9-2.2 3.7-1.3.8-3 1.1-4.8 1-2.1-.2-3.6-.8-4.6-1.9s-1.4-2.4-1.3-3.9c.1-.7.2-1.4.5-2 .3-.6.7-1.1 1.2-1.5l-5.9-.5.5-4.7zm10.4 5.7c-1-.1-1.7.1-2.2.4-.5.4-.8.9-.8 1.5s.1 1 .6 1.4c.4.4 1.2.7 2.3.8 1 .1 1.8 0 2.3-.4.5-.3.8-.8.8-1.4.1-.6-.1-1.1-.6-1.6-.5-.3-1.3-.6-2.4-.7zM2387.4 789.3l.4-4.8 8.9.8.3-3.6-8.9-.8.4-4.8 12.4 1.1-1.1 13.1-12.4-1zM2399.6 791.9l-.4 5-8.5 1.8 8 3.1-.4 4.7-12.8-6.1c-1.5-.7-2.4-1.4-2.9-2-.7-.9-.9-2.2-.8-3.9.1-.7.2-1.7.6-3.2l3.3-.1c-.3.7-.5 1.4-.5 2.3 0 .6 0 1 .3 1.4.2.4.7.7 1.3 1l12.8-4zM2389.9 816.5l-.9 4.5c-.9-.3-1.7-.8-2.3-1.4-.6-.6-1.1-1.4-1.4-2.3-.3-.9-.4-2.1-.3-3.4.1-1.3.3-2.4.7-3.3s.8-1.6 1.4-2.2c.6-.6 1.3-1 2.1-1.3.8-.3 1.8-.4 3-.3 1.3.1 2.3.4 3.1.9.6.4 1.1.9 1.6 1.5.4.6.8 1.2 1 1.8.3 1 .4 2.2.3 3.6-.2 2-.7 3.5-1.5 4.5s-1.9 1.7-3.4 2l-.2-4.5c.5-.1 1-.3 1.3-.7.3-.3.5-.8.5-1.5.1-.8-.2-1.4-.7-2-.5-.5-1.4-.9-2.5-1-1-.1-1.8.1-2.4.5-.6.4-.9 1-1 1.8-.1.6.1 1.2.3 1.6.2.5.6.9 1.3 1.2zM2395.5 845.7l.7-8.3-12.9-1.1.5-5.3 17.1 1.5-1.2 13.6-4.2-.4z"/></g>
	 	<!-- LINES -->
</svg>