<?xml version="1.0" encoding="utf-8"?>
<!-- Generator: Adobe Illustrator 25.4.1, SVG Export Plug-In . SVG Version: 6.00 Build 0)  -->
<svg version="1.1" id="Слой_1" xmlns="http://www.w3.org/2000/svg" xmlns:xlink="http://www.w3.org/1999/xlink" x="0px" y="0px"
	 viewBox="0 0 2257 1458" style="enable-background:new 0 0 2257 1458;" xml:space="preserve">
<style type="text/css">
	.st0{fill:#FFFFFF;}
	.st1{fill:#FFFFFF;}
    .st8{fill:none;stroke:#3CA0F0;stroke-width:10;stroke-miterlimit:10;}
    .st9{fill:#3CA0F0;}
</style>
<g transform="translate(0.000000,1458.000000) scale(0.100000,-0.100000)">
	<path class="st0" d="M18290,13350v-1100h-1227c-676,0-1373,3-1550,7l-323,6v649v648h-1845h-1845v-560v-560h-765h-765v810v810h-430
		h-430v-320v-320H5480H1850v320v320h-430H990v-1930v-1930h48h49l7,1853c4,1018,5,1864,1,1880l-7,27h331h331v-970v-970h2683
		c1476,0,3157,3,3735,7l1052,6v964v963h325h325v-810v-810h820h820v-185v-185h1840h1839l3,78l3,77l1597,3l1598,2l2,403l3,402l1663,3
		l1662,2l-2-192l-3-193l-1502-3l-1503-2v-550v-550h-995h-995V7245V3040h140h140v-145v-145h55h55v145v145h265h265v4137v4136l2085-7
		l2085-7v1576v1575h-1760h-1760V13350z M19445,13700v-655l-522-3l-523-2v653c0,360,3,657,7,660c3,4,239,6,522,5l516-3V13700z
		 M21098,14348c9-9,12-166,12-644c0-348-3-639-6-648c-6-14-83-16-770-16h-764v653c0,360,3,657,7,660c3,4,344,7,758,7
		C20906,14360,21089,14357,21098,14348z M21724,14344c8-20,8-1268,0-1288c-5-14-38-16-260-16h-254v653c0,360,3,657,7,660
		c3,4,118,7,254,7C21687,14360,21719,14358,21724,14344z M12849,13446c8-9,10-198,9-687l-3-674h-625h-625l-3,674c-1,489,1,678,9,687
		c9,12,119,14,619,14S12840,13458,12849,13446z M13728,12767l2-687l-382,2l-383,3l-3,675c-1,371,0,681,3,688c3,10,85,12,382,10
		l378-3L13728,12767z M15079,13446c8-9,10-198,9-687l-3-674h-625h-625l-3,674c-1,489,1,678,9,687c9,12,119,14,619,14
		S15070,13458,15079,13446z M6024,13314c14-14,16-81,16-588c0-442-3-576-12-589c-12-16-37-17-258-15l-245,3l-3,589
		c-1,426,1,593,9,602c9,11,60,14,245,14C5974,13330,6011,13328,6024,13314z M6639,13316c8-9,10-176,9-602l-3-589h-250h-250l-3,594
		c-2,469,0,596,10,603c7,4,117,8,244,8C6579,13330,6630,13327,6639,13316z M7248,13322c10-7,12-134,10-603l-3-594l-239-3
		c-167-2-243,1-252,9c-12,9-14,111-14,590c0,512,2,579,16,593c13,14,49,16,242,16C7133,13330,7241,13326,7248,13322z M7868,13322
		c10-7,12-134,10-603l-3-594h-250h-250l-3,594c-2,469,0,596,10,603c7,4,117,8,243,8C7752,13330,7861,13326,7868,13322z M8481,13320
		c18-10,19-28,19-593c0-440-3-586-12-595c-17-17-479-17-496,0c-9,9-12,155-12,595c0,544,1,583,18,592
		C8021,13333,8455,13333,8481,13320z M9098,13322c10-7,12-134,10-603l-3-594h-250h-250l-3,594c-2,469,0,596,10,603c7,4,117,8,243,8
		C8982,13330,9091,13326,9098,13322z M2328,12722l2-592l-237,2l-238,3l-3,580c-1,319,0,586,3,593c3,10,56,12,237,10l233-3
		L2328,12722z M2918,12722l2-592l-237,2l-238,3l-3,580c-1,319,0,586,3,593c3,10,56,12,237,10l233-3L2918,12722z M3565,12725v-590
		l-264-3c-205-2-266,1-273,10c-9,15-11,1138-2,1162c6,15,36,16,273,14l266-3V12725z M4208,12722l2-592l-267,2l-268,3l-3,580
		c-1,319,0,586,3,593c3,10,62,12,267,10l263-3L4208,12722z M5418,12722l2-592l-552,2l-553,3l-3,580c-1,319,0,586,3,593
		c3,10,119,12,552,10l548-3L5418,12722z M20974,12454c14-5,16-61,16-519v-513l-22-6c-41-10-718-7-739,4c-18,10-19,27-19,513
		c0,378,3,506,12,515s106,12,374,12C20795,12460,20965,12457,20974,12454z M20108,11927l2-517l-342,2l-343,3l-3,495
		c-1,272,0,505,3,518l5,22l338-2l337-3L20108,11927z M19305,11830v-375h-245h-245l-3,378l-2,377l247-2l248-3V11830z M21715,11750
		v-325l-312-3l-313-2v330v330l313-2l312-3V11750z M17544,11304c3-9,6-136,6-284c0-214-3-270-14-279c-9-8-113-11-362-9l-349,3l-3,280
		c-1,154,0,285,3,292c3,10,82,13,359,13C17497,11320,17539,11318,17544,11304z M17548,10361c2-193-1-278-9-287c-9-11-75-14-349-14
		c-186,0-345,3-354,6c-14,5-16,40-16,290v284l363-2l362-3L17548,10361z M17531,9970c18-10,19-24,19-290s-1-280-19-290
		c-21-11-648-14-688-4l-23,6v288c0,221,3,290,13,293C16858,9984,17511,9980,17531,9970z M17538,9288c9-9,12-77,12-245
		c0-219-1-233-19-243c-21-11-667-15-695-4c-14,5-16,37-16,249c0,185,3,245,13,248c6,3,165,6,353,6C17438,9300,17529,9297,17538,9288
		z M17539,8696c8-9,11-83,9-247l-3-234l-362-3l-363-2v244c0,186,3,246,13,249c6,3,166,6,353,6C17464,8710,17530,8707,17539,8696z
		 M17538,8108c9-9,12-76,12-240c0-214-1-228-19-238c-21-11-667-15-695-4c-14,5-16,36-16,243c0,131,3,241,7,244c3,4,162,7,353,7
		C17436,8120,17529,8117,17538,8108z M17538,7528c18-18,17-491-2-507c-9-8-113-11-362-9l-349,3l-3,254c-2,197,1,256,10,263
		C16854,7545,17524,7542,17538,7528z M17545,6665v-250l-349-3c-249-2-353,1-362,9c-11,9-14,60-14,249c0,130,3,240,7,243
		c4,4,167,6,362,5l356-3V6665z M17545,6298c3-13,4-129,3-258l-3-235h-360h-360l-3,245c-1,134,0,250,3,257c3,10,82,13,359,13h356
		L17545,6298z M17545,5455v-250h-360h-360l-3,239c-2,169,1,243,9,252c10,12,73,14,363,12l351-3V5455z M17539,5096c8-9,11-96,9-297
		l-3-284h-360h-360l-3,289c-2,225,1,291,10,298c7,4,167,8,354,8C17463,5110,17530,5107,17539,5096z M17524,4414c14-5,16-36,16-239
		c0-203-2-234-16-239c-9-3-165-6-348-6c-245,0-335,3-344,12s-12,74-12,233c0,159,3,224,12,233s99,12,344,12
		C17359,4420,17515,4417,17524,4414z M17545,3490v-345l-362-3l-363-2v350v350l363-2l362-3V3490z"/>
	<path class="st0" d="M18917,12143c-4-3-7-71-7-150v-144l148,3l147,3l3,139c2,105-1,141-10,148C19182,12151,18926,12153,18917,12143
		z"/>
	<path class="st0" d="M18910,11655v-145h150h150v145v145h-150h-150V11655z"/>
	<path class="st0" d="M21233,11943c-10-4-13-48-13-175c0-169,0-171-20-153c-19,17-50,15-50-3c0-13,82-92,95-92c18,0,98,87,91,99
		c-10,16-27,14-48-6c-17-16-18-10-18,149C21270,11929,21265,11954,21233,11943z"/>
	<path class="st0" d="M21517,11902c-39-40-46-51-34-60c10-9,18-8,33,3c10,8,22,15,26,15s6-72,6-161c-1-156,5-190,31-175
		c7,5,11,64,11,172c0,90,3,164,7,164c3,0,14-7,24-16c19-17,39-12,39,10c0,11-82,96-93,96C21566,11950,21543,11928,21517,11902z"/>
	<path class="st0" d="M1246,13163c-2-10-3-81-2-158c2-165,2-169-28-150c-14,9-26,11-36,5c-12-8-7-18,30-55c24-25,49-45,55-45
		s31,20,55,45c37,37,42,47,30,55c-10,6-22,4-37-6c-27-17-25-33-24,156c0,147-3,170-24,170C1257,13180,1249,13172,1246,13163z"/>
	<path class="st0" d="M1551,13154c-41-34-56-63-42-77c8-8,18-4,36,13l25,23v-177c0-164,1-177,18-174c15,3,17,21,20,177l2,174l25-23
		c30-28,54-16,36,18c-12,22-68,72-81,72C1585,13180,1568,13168,1551,13154z"/>
	<path class="st0" d="M9370,13011c0-94-2-171-5-171s-16,7-28,15c-15,9-27,11-37,5c-12-8-7-18,30-55c24-25,49-45,55-45s31,20,55,45
		c33,34,41,48,33,56c-9,9-18,8-37-5l-26-16l-2,167c-3,151-5,168-20,171C9371,13181,9370,13168,9370,13011z"/>
	<path class="st0" d="M9671,13154c-41-34-56-63-42-77c8-8,18-4,36,13l25,23l2-174c3-156,5-174,21-177s17,10,17,174v177l25-23
		c30-28,54-16,36,18c-12,22-68,72-81,72C9705,13180,9688,13168,9671,13154z"/>
	<path class="st0" d="M17288,12001c-21-22-38-45-38-53c0-17,71-88,87-88c22,0,23,18,2,44l-20,26l173,2c146,3,173,5,173,18
		s-27,15-173,18l-173,2l20,26c21,27,20,44-2,44C17330,12039,17308,12022,17288,12001z"/>
	<path class="st0" d="M17560,11698c0-6,9-21,19-32l20-21h-169c-93,0-172-3-175-7c-4-4-5-14-2-22c5-12,35-14,171-13c91,1,166-1,166-4
		c0-4-7-12-15-19c-17-14-20-36-5-45c10-6,100,71,100,86c0,5-16,27-36,49C17599,11708,17560,11723,17560,11698z"/>
	<path class="st0" d="M1760,10875v-676l560,7l560,7v-91v-92h2530h2530v250v250h535h535v-755v-755h1300h1300v1150v1150h1735h1735
		V7230V3140l-1102,2l-1103,3l-3,524l-2,524l-3047-6c-1675-4-3667-7-4425-7H4020v-635v-635h4425h4425v65v65h1745h1745l-2,4198
		l-3,4197h-3825H8705l-3-92l-3-93h-374h-375v150v150H4855H1760V10875z M3505,10790v-655h-250h-250l-3,645c-1,355,0,651,3,658
		c3,10,59,12,252,10l248-3V10790z M4124,11434c9-24,7-1277-2-1292c-7-9-64-12-253-10l-244,3l-3,645c-1,355,0,651,3,658
		c3,9,62,12,249,12C4087,11450,4119,11448,4124,11434z M4744,11428c3-13,6-302,6-644c0-480-3-624-12-637c-12-16-37-17-258-15l-245,3
		l-3,645c-1,355,0,651,3,658c3,9,63,12,254,12h249L4744,11428z M5355,10790v-655h-250h-250l-3,645c-1,355,0,651,3,658
		c3,10,59,12,252,10l248-3V10790z M5965,10790v-655h-245h-245l-3,645c-1,355,0,651,3,658c3,10,58,12,247,10l243-3V10790z
		 M6588,10796c2-513,0-651-10-658c-15-9-459-11-482-2c-14,6-16,72-16,653c0,356,3,651,7,655c4,3,117,5,252,4l246-3L6588,10796z
		 M7204,11434c8-20,8-1268,0-1288c-5-14-37-16-254-16s-249,2-254,16c-8,20-8,1268,0,1288c5,14,37,16,254,16S7199,11448,7204,11434z
		 M7815,10790v-655h-250h-250l-3,645c-1,355,0,651,3,658c3,10,59,12,252,10l248-3V10790z M2898,11428c19-19,17-1091-2-1107
		c-9-8-157-10-532-9l-519,3l-3,550c-1,303,0,556,3,563C1851,11445,2880,11446,2898,11428z M11498,11318c9-9,12-264,12-1088
		c0-591-4-1081-8-1088c-7-10-253-12-1198-10l-1189,3l-3,1085c-1,597,0,1091,3,1098C9121,11335,11480,11336,11498,11318z
		 M16254,11304c3-9,6-230,6-493c0-358-3-480-12-489s-139-12-524-12c-282,0-519,3-528,6c-14,5-16,59-16,498c0,271,3,496,7,499
		c3,4,244,7,534,7C16192,11320,16249,11318,16254,11304z M16244,10184c14-14,16-79,16-563c0-451-2-551-14-560c-9-8-159-10-537-9
		l-524,3l-3,559c-1,404,1,563,9,572c9,12,104,14,525,14C16169,10200,16230,10198,16244,10184z M16258,8417c1-339-1-514-8-527
		c-10-19-25-20-528-20c-390,0-521,3-530,12s-12,139-12,523c0,282,3,515,7,518c3,4,245,6,537,5l531-3L16258,8417z M16238,7754l22-6
		v-604v-604l-537,2l-538,3l-3,595c-2,550-1,596,15,608c13,9,133,12,517,12C15990,7760,16225,7757,16238,7754z M16260,5921
		c0-446-2-500-16-505c-28-11-1024-7-1045,4c-18,10-19,26-19,499c0,268,3,491,7,494c3,4,246,7,540,7h533V5921z M16258,4821
		c1-341-1-478-9-487c-9-12-103-14-521-14c-332,0-516,4-529,10c-18,10-19,26-19,484c0,260,3,476,7,479c3,4,245,6,537,5l531-3
		L16258,4821z M16248,3673l-3-528l-519-3c-375-1-523,1-532,9c-12,9-14,103-14,524c0,281,3,515,7,518c3,4,244,7,535,7h528L16248,3673
		z M4708,4102c10-7,12-123,10-548l-3-539h-290h-290l-3,535c-1,294,0,541,3,548c3,9,69,12,282,12C4570,4110,4701,4106,4708,4102z
		 M5328,4102c10-7,12-123,10-548l-3-539h-255h-255l-3,534c-1,386,1,538,9,547c9,11,60,14,248,14C5209,4110,5321,4106,5328,4102z
		 M7098,4088c14-14,18-1044,4-1066c-7-10-180-12-833-10l-824,3l-3,534c-2,421,0,536,10,543c7,4,378,8,824,8
		C6893,4100,7089,4097,7098,4088z M8975,3555v-540h-880h-880l-3,534c-2,421,0,536,10,543c7,4,405,7,883,5l870-2V3555z M9545,3555
		v-540h-225h-225l-3,530c-1,292,0,536,3,543c3,10,55,12,227,10l223-3V3555z M10105,3555v-540l-214-3c-149-2-218,1-227,9
		c-19,16-21,1048-2,1067c9,9,69,12,228,10l215-3V3555z M11480,4080c19-19,20-33,20-529c0-450-2-511-16-525s-84-16-620-16
		c-398,0-612,4-625,10c-18,10-19,27-19,530c0,458,2,520,16,534c14,14,84,16,620,16C11447,4100,11460,4100,11480,4080z M12768,4088
		c14-14,18-1044,4-1066c-7-10-131-12-588-10l-579,3l-3,530c-1,292,0,536,3,543C11611,4105,12750,4106,12768,4088z"/>
	<path class="st0" d="M2177,11258c6-7,20-42,32-78c33-99,37-102,60-46c12,26,21,53,21,59c0,20,16-6,34-56c10-27,22-45,26-40
		c4,4,18,40,30,78c13,39,27,76,33,83c7,9,3,12-18,12s-25-3-17-13c12-14-4-87-18-87c-4,0-12,19-19,41c-10,34-10,43,1,50c8,6-3,9-31,9
		c-38,0-42-2-31-15c10-13,11-24,1-57c-14-44-22-42-40,11c-8,25-8,37,0,47c9,11,4,14-31,14C2177,11270,2170,11267,2177,11258z"/>
	<path class="st0" d="M2360,10750v-270h25h25v270v270h-25h-25V10750z"/>
	<path class="st0" d="M2130,10905c-7-8-23-49-35-90c-20-65-22-77-9-82c19-7,19-8,42,67c29,92,27,52-3-49c-14-47-25-89-25-93
		s11-8,25-8c23,0,24-2,27-82c3-70,6-83,21-86s17,6,17,82c0,51,4,86,10,86s10-35,10-86c0-76,2-85,18-82c14,3,17,16,20,86
		c3,80,4,82,27,82c14,0,25,4,25,8c0,5-13,52-29,105c-16,54-26,97-22,97c3,0,15-29,25-65c11-39,24-65,32-65c18,0,18,24-2,91
		c-26,90-35,99-103,99C2162,10920,2138,10915,2130,10905z"/>
	<path class="st0" d="M2475,10896c-23-35-17-179,8-184c15-3,17,6,19,70c1,40,5-10,8-112c5-182,5-185,28-188c22-3,22-2,24,115l2,118
		l5-115c6-110,7-115,29-118l22-3l2,188c1,120,4,163,7,118c5-56,10-70,24-73c15-3,17,6,17,86c0,114-7,122-108,122
		C2498,10920,2489,10918,2475,10896z"/>
	<path class="st0" d="M15507,4048c6-7,20-42,32-78c33-99,37-102,60-46c12,26,21,53,21,59c0,20,16-6,34-56c10-27,22-45,26-40
		c4,4,18,40,30,78c13,39,27,76,33,83c7,9,3,12-18,12s-25-3-17-13c12-14-4-87-18-87c-4,0-12,19-19,41c-10,34-10,43,1,50c8,6-3,9-31,9
		c-38,0-42-2-31-15c10-13,11-24,1-57c-14-44-22-42-40,11c-8,25-8,37,0,47c9,11,4,14-31,14C15507,4060,15500,4057,15507,4048z"/>
	<path class="st0" d="M15690,3540v-270h25h25v270v270h-25h-25V3540z"/>
	<path class="st0" d="M15482,3710c-13-6-29-24-36-42c-21-51-40-137-33-144c13-14,34,17,47,71c7,30,16,55,21,55c4,0-6-44-22-97
		c-16-54-29-99-29-100c0-2,11-3,25-3c24,0,24-2,27-87c3-74,6-88,21-91s17,6,17,82c0,51,4,86,10,86s10-35,10-86c0-76,2-85,18-82
		c14,3,17,17,20,91c3,85,3,87,27,87c14,0,25,4,25,8c0,5-11,46-25,92c-14,47-24,88-22,94c2,5,11-19,22-53c19-64,30-80,46-64
		c5,5-2,42-16,90c-23,73-28,82-57,92C15541,3722,15513,3722,15482,3710z"/>
	<path class="st0" d="M15832,3710c-29-12-42-48-42-120c0-67,7-90,26-90c9,0,14,20,17,73c1,39,4-7,5-103s6-181,11-189s16-11,25-8
		c13,5,16,26,18,119l2,113l5-112c3-61,9-115,13-118c4-4,14-5,23-2c13,5,15,35,17,189c1,101,3,161,5,133c5-72,11-95,28-95
		c21,0,22,167,1,195C15971,3716,15870,3726,15832,3710z"/>
	<path class="st0" d="M1917,2993c-4-3-7-24-7-45v-38h970h970v45v45h-963C2357,3000,1920,2997,1917,2993z"/>
	<path class="st0" d="M17232,2828c-7-7-12-27-12-45v-33h1076h1075l-3,43l-3,42l-1060,3C17488,2840,17241,2837,17232,2828z"/>
	<path class="st0" d="M15186,2418c-3-13-6-112-6-220v-198h-1155h-1155v137v136l-722-6c-397-4-2095-7-3775-7H5320v-865V530h-325h-325
		v865v865h-325h-325v-55v-55l273-2l272-3l3-862l2-863h430h430v215v215h5415h5415V635V420h425h425v695v695h-50h-50l-2-642l-3-643
		l-327-3l-328-2v953v954l-187,6c-104,4-364,7-579,7h-392L15186,2418z M16258,1646c2-537,0-681-10-688c-22-13-942-10-956,4
		c-17,17-17,1339,0,1356c9,9,126,12,488,10l475-3L16258,1646z M6005,1565V955h-280h-280l-3,600c-1,330,0,606,3,613
		c3,10,65,12,282,10l278-3V1565z M6568,2168c19-19,17-1191-2-1207c-9-8-79-11-232-9l-219,3l-3,600c-1,330,0,606,3,613
		C6121,2185,6550,2186,6568,2168z M8365,1565V955h-840h-840l-3,600c-1,330,0,606,3,613c3,10,177,12,842,10l838-3V1565z M9035,1565
		V955h-280h-280l-3,600c-1,330,0,606,3,613c3,10,65,12,282,10l278-3V1565z M10795,1565V955l-805-3c-443-1-815,0-827,3l-23,5v604
		c0,474,3,605,13,609c6,3,379,5,827,4l815-2V1565z M12748,2168c17-17,17-1189,0-1206s-1819-17-1836,0s-17,1189,0,1206
		S12731,2185,12748,2168z M13375,1400V955h-255h-255l-3,448l-2,447l257-2l258-3V1400z M14638,1403l-3-448l-564-3c-408-1-568,1-577,9
		c-11,9-14,90-14,434c0,233,3,430,6,439c6,14,66,16,580,16h574L14638,1403z M15175,1400V955h-210h-210l-3,448l-2,447l212-2l213-3
		V1400z"/>
	<path class="st0" d="M1910,2215c0-38,3-45,23-50c12-3,447-4,967-3l945,3l3,48l3,47h-970h-971V2215z"/>
	<path class="st0" d="M17220,1776c0-71-82-66,1068-66c570,0,1047,3,1060,6c18,5,22,13,22,50v44h-1075h-1075V1776z"/>
	<path class="st0" d="M16500,1321c0-94-4-171-9-171s-14,7-21,15c-16,20-40,19-40-1c0-15,74-94,89-94s93,89,87,99c-10,16-32,13-47-6
		c-12-14-15,8-19,153c-4,150-7,169-22,172C16501,1491,16500,1478,16500,1321z"/>
	<path class="st0" d="M16801,1464c-42-35-57-64-40-75c9-5,22,0,36,13l23,21l2-174c3-147,5-174,18-174s15,27,18,173
		c1,94,6,172,10,172s15-9,25-20c18-21,37-19,37,4c0,15-72,86-87,86C16837,1490,16818,1478,16801,1464z"/>
	<path class="st0" d="M4817,1463c-3-10-4-82-3-161c2-150-2-173-24-147c-15,18-36,20-46,4c-7-12,73-99,91-99c6,0,31,20,55,45
		c33,34,41,48,33,56c-9,9-18,8-37-5c-25-15-26-15-27,1c0,10-1,85-2,168c-2,131-4,150-19,153C4829,1480,4820,1473,4817,1463z"/>
	<path class="st0" d="M5121,1454c-41-34-56-63-42-77c8-8,18-4,36,13l25,23l2-174c3-147,5-174,18-174s15,27,18,174l2,174l25-23
		c22-21,45-21,45,1c0,15-71,89-85,89C5157,1480,5138,1468,5121,1454z"/>
</g>
<g>
	<path class="st0" d="M452.5,1132l-1.8,0l-2.2-2.3c-5.2-5.5-8-7.9-11.3-7.9c-2.2,0-4.2,1.1-4.2,4.3c0,1.9,1,3.6,1.8,4.5l-2,0.9
		c-1.3-1.5-2.2-3.6-2.2-6.1c0-4.6,3.1-6.6,6.2-6.6c4,0,7.2,2.8,11.6,7.3l1.6,1.7h0.1l0-9.6l2.4,0L452.5,1132z"/>
	<path class="st0" d="M433.6,1108.8L433.6,1108.8l2,3.8l-2.2,0.6l-2.5-4.7l0-2.5l21.5-0.1l0,2.8L433.6,1108.8z"/>
	<path class="st0" d="M433.5,1091.9L433.5,1091.9l2,3.8l-2.2,0.6l-2.5-4.7l0-2.5l21.5-0.1l0,2.8L433.5,1091.9z"/>
	<path class="st0" d="M433.2,1068.5l0,8.2l5.5,0.8c-0.1-0.5-0.1-1-0.1-1.7c0-1.7,0.3-3.3,1.1-4.6c0.9-1.7,2.8-3.1,5.5-3.1
		c4.2,0,7.3,3.3,7.4,8c0,2.3-0.6,4.3-1.3,5.4l-2.2-0.7c0.5-0.9,1.2-2.6,1.2-4.6c0-2.7-1.8-5.1-4.7-5.1c-2.8,0-4.7,1.9-4.7,6.2
		c0,1.2,0.1,2.2,0.2,3l-10.3-1.3l0-10.3L433.2,1068.5z"/>
</g>
</svg>
