<?xml version="1.0" encoding="utf-8"?>
<!-- Generator: Adobe Illustrator 25.4.1, SVG Export Plug-In . SVG Version: 6.00 Build 0)  -->
<svg version="1.1" id="Слой_1" xmlns="http://www.w3.org/2000/svg" xmlns:xlink="http://www.w3.org/1999/xlink" x="0px" y="0px"
	 viewBox="0 0 2029 637" style="enable-background:new 0 0 2029 637;" xml:space="preserve">
<style type="text/css">
	<!-- STYLES -->
</style>
<g transform="translate(0.000000,637.000000) scale(0.100000,-0.100000)">
	<path class="st0" d="M20133,3914.9c-6,30.9-15,91.6-22,133.9c-17,112.2-72,327.4-119,466.5c-120,356.3-317,683.7-565,939.1
		c-111,114.3-295,266.7-390,324.4c-22,12.4-56,32.9-75,44.3c-192,116.4-477,219.3-695,253.3c-44,7.2-107,16.5-141,22.7
		c-33,5.1-130,9.3-215,9.3c-374,0-779-99.9-1079-267.7c-57-31.9-65-40.2-73-77.2c-5-23.7-6-257.4-3-537.5c4-338.8,3-498.4-4-502.5
		c-6-3.1-92-8.2-193-9.3c-100-2.1-200-8.2-222-14.4c-78-22.7-170-45.3-202-50.5l-33-5.1l-2,595.2l-3,596.2l-2607,3.1l-2607,2.1
		l-10,39.1c-6,20.6-11,45.3-11,54.6c0,25.7-41,122.5-77,180.2c-41,66.9-132,152.4-203,189.5c-78,40.2-219,73.1-280,64.9
		c-69-9.3-171-39.1-221-65.9c-63-31.9-172-135.9-210-199.8c-30-49.4-69-145.2-69-168.9c0-9.3-5-34-11-54.6l-10-39.1H4977
		c-2642,0-4810-3.1-4819-6.2c-13-5.1-15-47.4-10-352.2c2-191.5,6-425.3,9-522.1c3-95.8,5-790.8,5-1544.6V2046l137-103
		c75-56.6,217-164.8,317-239.9s201-152.4,226-170.9c25-18.5,92-70,149-113.3l104-78.3l41,23.7c90,53.5,116,69,181,109.1
		c37,23.7,70,42.2,73,42.2s13,6.2,21,14.4c9,7.2,36,25.7,61,39.1c25,14.4,62,36,83,48.4c47,26.8,59,26.8,102-1
		c45-29.9,48-42.2,26-83.4c-81-149.3-89-355.3-17-465.4c54-82.4,138-146.2,228-172c24-6.2,95-13.4,158-15.4
		c159-6.2,246,14.4,405,95.8c115,58.7,196,125.6,293,241c42,50.5,82,92.7,88,92.7c12,0,77-96.8,370-545.7l151-231.7l6422-3.1
		c5132-2.1,6422,0,6426,10.3c6,21.6,15,583.8,15,990.6v380l38-7.2c20-3.1,78-12.4,127-20.6c157-26.8,350-17.5,525,25.7
		c113,27.8,103,31.9,139-64.9c18-46.3,41-108.1,51-137c10-27.8,30-83.4,45-123.6c15-39.1,44-120.5,65-180.2s52-145.2,68-190.5
		c35-95.8,88-242,106-293.5c19-54.6,154-427.3,187-517.9c16-43.2,43-117.4,60-164.8c17-46.3,39-107.1,50-134.9
		c10-27.8,19-55.6,19-63.8c0-7.2,7-19.6,15-27.8c12-13.4,23-12.4,82,4.1c551,153.4,1133,585.9,1551,1151.2
		c61,84.4,252,367.6,252,375.8c0,2.1,31,57.7,68,125.6c37,66.9,80,148.3,94,179.2c63,135.9,116,256.4,135,308.9
		c12,30.9,33,89.6,48,128.7c71,187.4,160,550.9,185,751.7c7,51.5,16,119.4,21,151.4C20174,3318.7,20163,3733.7,20133,3914.9z
		 M17529,5159.8c1,443.8,4,809.4,7,811.4c7,8.2,134,24.7,251,34c138,10.3,362,3.1,480-16.5c82-13.4,136-25.7,250-57.7
		c127-36,363-149.3,486-234.8c148-103,307-250.2,428-396.4c69-83.4,271-364.5,271-377.9c0-3.1,29-58.7,65-122.5
		c36-64.9,65-120.5,65-123.6c0-7.2-85-43.2-292-121.5c-76-28.8-200-76.2-275-105c-76-28.8-174-65.9-218-83.4
		c-44-16.5-102-39.1-130-49.4c-27-10.3-86-33-130-49.4c-44-17.5-141-54.6-215-82.4c-74-28.8-198-76.2-275-106.1
		c-147-55.6-260-98.9-360-134.9c-33-12.4-65-25.7-72-30.9c-13-10.3-12-10.3-82,112.2c-48,86.5-144,215.2-210,281.1l-46,46.3
		L17529,5159.8z M16840,5733.4c11,15.4,119,80.3,187,112.2c127,57.7,310,108.1,385,104l25-1l3-753.8c2-855.7,11-782.6-86-715.7
		c-136,93.7-288,163.7-427,195.6c-38,8.2-76,20.6-82,25.7c-10,7.2-13,122.5-13,515.9C16832,5494.5,16836,5727.2,16840,5733.4z
		 M15414,5760.2c7,4.1,138,8.2,291,8.2c264,0,278-1,297-20.6c19-19.6,20-34,20-542.7c-1-421.2-3-526.2-14-541.6
		c-12-16.5-36-17.5-307-15.4l-294,3.1l-3,549.9C15402,5634.5,15404,5753,15414,5760.2z M14720,5757.1c10,6.2,124,11.3,294,11.3
		c238,0,279-2.1,292-16.5c14-14.4,16-78.3,16-548.8c0-400.6-3-535.5-12-544.7c-17-17.5-579-17.5-596,0c-9,9.3-12,145.2-12,550.9
		C14702,5710.7,14703,5747.8,14720,5757.1z M14020,5757.1c23,14.4,557,15.4,583,1c18-10.3,19-27.8,19-548.8
		c0-405.7-3-541.6-12-550.9c-17-17.5-579-17.5-596,0c-9,9.3-12,145.2-12,550.9C14002,5710.7,14003,5747.8,14020,5757.1z
		 M13318,5751.9c13,14.4,54,16.5,290,16.5c171,0,283-4.1,295-10.3c18-10.3,19-27.8,19-548.8c0-405.7-3-541.6-12-550.9
		c-17-17.5-579-17.5-596,0c-9,9.3-12,144.2-12,544.7C13302,5673.7,13304,5737.5,13318,5751.9z M12640,5757.1
		c18,11.3,520,15.4,560,5.1l22-6.2l-2-553l-3-551.9l-284-3.1c-201-2.1-288,1-297,9.3c-12,9.3-14,107.1-14,550.9
		C12622,5710.7,12623,5747.8,12640,5757.1z M11940,5757.1c23,14.4,557,15.4,583,1c18-10.3,19-27.8,19-548.8
		c0-405.7-3-541.6-12-550.9c-17-17.5-579-17.5-596,0c-9,9.3-12,145.2-12,550.9C11922,5710.7,11923,5747.8,11940,5757.1z
		 M11368,5751.9c13,14.4,48,16.5,228,16.5c154,0,217-3.1,229-12.4c16-12.4,17-55.6,15-559.1l-3-545.7l-229-3.1
		c-160-2.1-233,1-242,9.3c-12,9.3-14,105-14,545.7C11352,5673.7,11354,5737.5,11368,5751.9z M10882,5206.2c0,401.6,3,530.3,12,539.6
		c9,9.3,60,12.4,188,10.3l175-3.1l3-540.6c2-499.4,1-541.6-15-553c-27-20.6-312-18.5-341,3.1l-22,15.4V5206.2z M9400,5743.7
		c4,6.2,14,14.4,22,17.5c26,10.3,307,7.2,334-3.1l26-10.3l-2-547.8l-3-548.8l-184-3.1c-141-2.1-186,1-193,10.3
		C9390,4674.9,9390,5728.2,9400,5743.7z M8138,5751.9c14,14.4,80,16.5,575,16.5c367,0,567-4.1,580-10.3c18-10.3,19-27.8,19-557.1
		v-544.7l-26-10.3c-17-7.2-230-9.3-586-8.2c-484,3.1-560,5.1-568,18.5c-6,9.3-10,230.7-10,547.8
		C8122,5673.7,8124,5737.5,8138,5751.9z M7398,5751.9c13,14.4,56,16.5,317,16.5c173,0,308-4.1,317-10.3c13-8.2,15-81.3,15-555
		c0-299.6-4-548.8-8-554c-5-4.1-150-8.2-323-8.2c-269,0-316,2.1-324,15.4c-6,9.3-10,230.7-10,547.8
		C7382,5673.7,7384,5737.5,7398,5751.9z M6715,5761.2c23,10.3,562,7.2,577-3.1c13-8.2,15-81.3,15-555c0-299.6-4-548.8-8-554
		c-13-13.4-553-16.5-577-3.1c-20,11.3-20,19.6-20,561.2C6702,5636.6,6705,5757.1,6715,5761.2z M5648,5751.9
		c14,14.4,71,16.5,475,16.5c298,0,467-4.1,480-10.3c18-10.3,19-27.8,19-548.8c0-320.2-4-543.7-10-553c-8-13.4-73-15.4-485-15.4
		s-477,2.1-485,15.4c-6,9.3-10,230.7-10,547.8C5632,5673.7,5634,5737.5,5648,5751.9z M4558,5751.9c14,14.4,72,16.5,490,16.5
		c461,0,475-1,494-20.6c19-19.6,20-34,20-543.7c0-435.6-2-526.2-14-543.7c-14-18.5-31-19.6-501-19.6c-421,0-487,2.1-495,15.4
		c-6,9.3-10,230.7-10,547.8C4542,5673.7,4544,5737.5,4558,5751.9z M3335,5761.2c18,8.2,412,8.2,431,1c14-5.1,16-63.8,16-548.8
		c0-408.8-3-545.7-12-555c-15-15.4-400-17.5-429-2.1c-18,10.3-19,27.8-19,556C3322,5637.6,3325,5757.1,3335,5761.2z M1277,5727.2
		c8,15.4,20,30.9,27,34c18,7.2,1868,8.2,1894,1c42-11.3,44-33,44-564.3c0-496.3,0-507.6-20-529.3l-21-22.7H1302l-20,34
		c-19,31.9-20,52.5-20,525.2C1262,5619.1,1264,5702.5,1277,5727.2z M241,5750.9c12,15.4,57,17.5,462,17.5c433,0,449-1,459-19.6
		c14-27.8,14-1055.5,0-1083.3c-10-18.5-26-19.6-465-19.6H243l-11,39.1C214,4745.9,223,5729.3,241,5750.9z M3340,1382.9l-3-521
		l-23-3.1c-13-2.1-30,2.1-39,10.3c-21,17.5-363,546.8-389,600.3c-16,35-19,68-22,220.4c-4,201.8-1,224.5,31,237.9
		c37,15.4,411,8.2,431-9.3C3341,1906,3342,1858.6,3340,1382.9z M4442,629.1c-10-18.5-27-19.6-504-19.6c-441,0-495,2.1-500,16.5
		c-3,9.3-6,301.7-6,651.8c0,480.9,3,638.4,12,647.7c17,17.5,979,17.5,996,0C4456,1909,4457,660,4442,629.1z M5440,1267.5l-3-652.8
		h-890l-3,652.8c-2,515.9,0,654.9,10,662.1c7,4.1,204,8.2,438,8.2c234,0,431-4.1,438-8.2C5440,1922.4,5442,1783.4,5440,1267.5z
		 M6522,636.3l-10-26.8h-479c-465,0-481,1-491,19.6c-6,13.4-10,233.7-10,644.6c0,410.9,4,631.2,10,644.6c10,18.5,26,19.6,483,19.6
		c280,0,478-4.1,487-10.3c13-8.2,15-92.7,18-636.4C6531,891.7,6529,653.8,6522,636.3z M7628,628.1c-12-17.5-48-18.5-504-18.5
		c-475,0-492,1-502,19.6c-6,13.4-10,233.7-10,644.6c0,410.9,4,631.2,10,644.6c10,18.5,26,19.6,500,19.6c431,0,490-2.1,504-16.5
		c14-14.4,16-86.5,16-645.6C7641,768.1,7639,642.5,7628,628.1z M8626,626c-5-14.4-54-16.5-443-16.5c-327,0-440,3.1-449,12.4
		c-17,17.5-17,1286.1,0,1303.6c17,17.5,869,17.5,886,0c9-9.3,12-166.8,12-647.7C8632,927.7,8629,635.3,8626,626z M9704,621.9
		c-7-10.3-112-12.4-493-10.3l-484,3.1l-3,652.8c-2,515.9,0,654.9,10,662.1c22,13.4,952,10.3,966-4.1c9-9.3,12-167.8,12-650.8
		C9712,922.6,9708,629.1,9704,621.9z M10560,1267.5l-3-652.8h-750l-3,652.8c-2,515.9,0,654.9,10,662.1c7,4.1,173,8.2,368,8.2
		c195,0,361-4.1,368-8.2C10560,1922.4,10562,1783.4,10560,1267.5z M11666,626c-5-14.4-59-16.5-504-16.5s-499,2.1-504,16.5
		c-3,9.3-6,301.7-6,651.8c0,480.9,3,638.4,12,647.7c17,17.5,979,17.5,996,0c9-9.3,12-166.8,12-647.7
		C11672,927.7,11669,635.3,11666,626z M12690,627c-12-16.5-49-17.5-468-15.4l-455,3.1l-3,652.8c-2,515.9,0,654.9,10,662.1
		c7,4.1,214,8.2,460,8.2c432,0,448-1,458-19.6C12708,1886.4,12706,649.7,12690,627z M13508,628.1c-12-17.5-41-18.5-359-18.5
		c-332,0-347,1-357,19.6c-6,13.4-10,234.8-10,648.7c0,557.1,2,629.2,16,643.6c13,14.4,60,16.5,354,16.5c294,0,341-2.1,354-16.5
		c14-14.4,16-86.5,16-645.6C13521,768.1,13519,642.5,13508,628.1z M14542,629.1c-10-18.5-26-19.6-463-19.6c-339,0-456,3.1-465,12.4
		c-17,17.5-17,1286.1,0,1303.6c17,17.5,909,17.5,926,0C14556,1909,14557,660,14542,629.1z M15466,626c-5-14.4-51-16.5-409-16.5
		c-223,0-406,4.1-409,9.3c-3,5.1-6,299.6-6,655.9c0,513.8,2,647.7,12,654.9c22,13.4,792,10.3,806-4.1c9-9.3,12-166.8,12-647.7
		C15472,927.7,15469,635.3,15466,626z M16564,1968.8c-73,0-154,5.1-180,11.3c-101,22.7-139,33-180,46.3c-23,8.2-47,14.4-52,14.4
		c-6,0-10-262.6-10-715.7V609.5h-580l-2,698.1l-3,697.1l-3120,6.2c-1716,3.1-4589,8.2-6385,10.3l-3265,4.1l-10-692l-39-48.4
		c-49-61.8-149-160.6-203-200.8c-92-68-243-129.7-362-146.2c-211-30.9-385,44.3-462,197.7c-31,62.8-38,191.5-14,267.7
		c46,146.2,164,296.6,315,399.5c136,93.7,231,133.9,340,144.2c65,6.2,65,6.2,68,40.2c3,27.8-1,36-17,40.2c-21,5.1-21,11.3-21,270.8
		c0,232.7,2,266.7,16,271.8c9,3.1,157,6.2,330,6.2h315l-3,44.3l-3,43.2l-337-1c-186-1-349-5.1-363-8.2l-25-6.2v-319.2
		c0-297.6-1-319.2-17-319.2c-60-1-243-93.7-357-182.3c-46-35-107-92.7-136-126.7c-29-34-57-61.8-63-61.8c-7,0-34,18.5-62,41.2
		c-27,22.7-55,41.2-62,41.2c-6,0-105-53.5-220-119.4c-114-65.9-228-130.8-253-143.1l-46-23.7l-100,73.1c-55,41.2-129,96.8-164,123.6
		c-36,26.8-134,100.9-217,164.8c-323,244-357,269.8-370,283.2c-11,11.3-13,157.5-11,803.2l3,789.8l1860,10.3l3,38.1l3,39.1l-928,2.1
		l-928,3.1l-3,214.2l-2,213.2h2050v-82.4c0-45.3-1-83.4-2-84.4c-2-2.1-367-5.1-813-8.2l-810-5.1l-3-33l-3-34l808-2.1l808-3.1
		l3-212.1l2-212.1l-487-6.2c-269-4.1-671-7.2-895-7.2H492v-85.5l898,4.1l897,4.1l3-72.1c1-39.1,4-82.4,7-95.8l5-22.7l368,2.1
		l367,3.1l3,34l3,32.9h-330c-223,0-332,3.1-336,11.3c-4,6.2-8,226.5-9,491.2c0,264.6-5,487.1-9,494.3c-6,9.3-231,12.4-1068,12.4H232
		V4439c0,101.9,3,123.6,16,128.7c9,3.1,825,6.2,1815,6.2h1799v1194.5h300c165,0,301-1,302-2.1c2-2.1,5-271.8,8-600.3l5-597.2h5380
		l5,664.2c6,724.9,4,703.3,66,816.6c34,62.8,134,157.5,201,188.4c91,43.2,198,55.6,302,35c124-23.7,259-127.7,315-241
		c55-113.3,55-121.5,56-817.6v-640.5l2763,2.1c2327,3.1,2767,5.1,2792,17.5c22,10.3,81,14.4,220,15.4c167,1,202-2.1,285-23.7
		c385-96.8,692-340.8,863-686.8c114-228.6,141-345,141-596.2c0-199.8-11-270.8-67-442.8c-24-75.2-52-138-90-205.9
		c-17-27.8-38-66.9-49-86.5c-35-62.8-158-204.9-241-277C17172,2073.8,16894,1969.8,16564,1968.8z M19424,1412.7
		c-204-298.6-471-601.4-707-802.1c-95-80.3-325-248.2-341-248.2c-4,0-15-6.2-23-14.4c-24-21.6-255-143.1-336-176.1
		c-94-38.1-206-76.2-226-77.2c-11,0-25,24.7-43,75.2c-56,150.3-88,239.9-106,290.4c-10,28.8-29,81.3-43,118.4s-41,113.3-62,169.9
		c-64,180.2-72,203.9-103,288.3c-26,71.1-86,236.8-152,422.2c-10,28.8-32,88.6-48,133.9c-78,212.1-132,362.5-132,369.7
		c0,3.1,30,21.6,68,39.1c289,141.1,515,371.7,662,676.5c28,57.7,55,104,60,104c6,0,411-205.9,900-458.2
		c660-339.8,890-462.3,890-475.7C19682,1823.6,19536,1576.4,19424,1412.7z M20052,3075.7c-18-146.2-71-409.8-100-499.4
		c-4-14.4-18-60.8-30-103c-34-121.5-130-399.5-168-488.1c-12-25.7-27-47.4-34-47.4c-8,0-164,77.2-348,170.9
		c-184,93.7-443,225.5-575,292.4c-441,223.4-870,443.8-879,453.1c-8,8.2-5,26.8,31,185.3c18,83.4,21,390.3,4,478.8
		c-20,105-42,193.6-57,230.7c-8,18.5-14,42.2-14,52.5c0,19.6-1,18.5,170,82.4c63,23.7,139,51.5,168,62.8c28,10.3,77,28.8,107,40.2
		c30,11.3,79,29.9,108,40.2c28,11.3,142,53.5,252,93.7s224,82.4,253,93.7c28,10.3,77,28.8,107,40.2c30,11.3,80,29.9,110,41.2
		c30,11.3,80,29.9,110,41.2c30,11.3,79,29.9,108,40.2c45,17.5,416,154.5,457,168.9c25,9.3,34,2.1,52-35
		c56-121.5,142-454.1,167-647.7C20093,3542.2,20093,3416.5,20052,3075.7z"/>
	<path class="st0" d="M10802,3281.6v-962.8h35h35v101.9c0,83.4,3,103,16,108.1c9,3.1,123,6.2,255,6.2h239l-2,605.5l-3,604.4
		l-250,5.1l-250,5.1l-3,245.1l-2,244h-35h-35V3281.6z M11308,3660.6c19-25.7,20-1010.1,1-1035.9c-11-16.5-33-17.5-217-15.4l-205,3.1
		l-3,519c-1,374.8,1,523.1,9,532.4c9,11.3,54,14.4,207,14.4C11274,3678.1,11296,3676,11308,3660.6z"/>
	<path class="st0" d="M7447,4146.6c-5-2.1-125-9.3-265-15.4c-569-25.7-1024-60.8-1512-119.4l-58-7.2l-2-222.4l-3-222.4h-335h-335
		l-3,173c-3,197.7,5,186.4-103,151.4c-311-101.9-480-352.2-415-611.6c41-159.6,177-284.2,348-318.2c46-9.3,308-12.4,988-12.4
		c884,0,1078,4.1,1600,36c266,16.5,652,51.5,903,82.4c265,31.9,297,36,457,61.8c158,24.7,270,45.3,455,82.4
		c288,57.7,421,107.1,544,199.8c69,52.5,107,96.8,140,165.8c84,169.9-4,359.4-212,457.2c-132,62.8-252,81.3-692,109.1
		C8844,4143.5,7460,4152.8,7447,4146.6z M8336,4041.6c8-55.6,7-871.1-2-884.5c-11-16.5-192-38.1-732-86.5
		c-346-29.9-802-52.5-818-39.1c-9,8.2-12,116.4-10,501.5l3,490.1l55,7.2c164,21.6,739,45.3,1186,47.4l311,2.1L8336,4041.6z
		 M8825,4060.1c4-4.1,6-196.7,5-429.4l-3-421.2l-45-6.2c-25-3.1-85-12.4-135-19.6c-170-23.7-215-27.8-223-16.5
		c-4,6.2-6,214.2-4,463.4l3,451l197-7.2C8728,4070.4,8820,4064.2,8825,4060.1z M9162,4053.9c187-11.3,370-51.5,460-100.9
		c106-58.7,180-156.5,180-238.9v-36h-445h-445v188.4c0,104,3,192.6,8,196.7c4,5.1,39,5.1,77,2.1C9036,4062.2,9110,4057,9162,4053.9z
		 M6692,4001.4c16-42.2,13-971-2-977.2c-7-3.1-105-9.3-218-14.4c-181-7.2-206-7.2-217,7.2c-10,12.4-13,125.6-13,488.1
		c0,447.9,1,471.6,19,480.9c10,6.2,96,15.4,192,21.6c95,6.2,175,13.4,178,15.4c2,3.1,15,5.1,28,5.1
		C6675,4028.2,6686,4020,6692,4001.4z M6166,3970.5c9-24.7,7-944.2-2-959.7c-7-9.3-61-12.4-238-10.3l-229,3.1l-3,457.2
		c-1,328.5,1,461.3,9,470.6c6,8.2,30,14.4,53,14.4c42,0,203,15.4,311,30.9C6157,3988,6159,3988,6166,3970.5z M9772,3578.2
		c0-10.3-28-46.3-63-80.3c-65-63.8-160-119.4-272-159.6c-116-41.2-408-106.1-485-107.1l-35-1l-3,169.9c-1,92.7,0,175.1,2,182.3
		c4,10.3,93,13.4,431,13.4C9743,3595.7,9772,3594.7,9772,3578.2z M5580,3459.8c17-17.5,17-410.9,0-428.4c-9-9.3-91-12.4-309-12.4
		c-164,0-304,3.1-313,6.2c-14,5.1-16,35-16,220.4c0,161.7,3,216.2,13,219.3c6,3.1,147,6.2,313,6.2
		C5489,3472.1,5571,3469.1,5580,3459.8z"/>
	<path class="st0" d="M10973.3,3497.7v-139h130h130v139v139h-130h-130V3497.7z"/>
	<path class="st0" d="M10973.3,3143.3v-139h130h130v139v139h-130h-130V3143.3z"/>
	<path class="st0" d="M10973.3,2802.8v-139h130h130v139v139h-130h-130V2802.8z"/>
	<path class="st0" d="M4987.8,3245.2v-139h130h130v139v139h-130h-130V3245.2z"/>
	<path class="st0" d="M5283.9,3245.2v-139h130h130v139v139h-130h-130V3245.2z"/>
</g>
<g transform="translate(0.000000,1280.000000) scale(0.100000,-0.100000)">
	<path class="st0" d="M8580.4,10235.9c-18.6-2.9-30.4-20.6-25.2-37.7c2.8-9.3,10.9-17.2,20.5-20.1c8.3-2.5,16.1-1.9,23.7,1.7
		c6.3,3,11,7.4,14.1,13.4c2.3,4.4,3.1,7.3,3.3,12.3c0.1,3.3,0.1,4.3-0.5,6.6c-2.6,12-12,21-24.5,23.5
		C8588.8,10236.3,8583.5,10236.4,8580.4,10235.9z"/>
	<path class="st0" d="M8583.4,10170.9c-0.3-0.1-1.3-0.2-2.1-0.4c-5.4-1-10.7-3.8-14.9-7.7c-5.6-5.2-8.6-11.7-9-19.2
		c-0.1-2.4,0.1-7.1,1.8-35.3c0.2-2.5,1-16.9,2-32.1c1.3-22,1.8-28.1,2.2-30.1c2-8.9,8.3-16.3,17.3-20.4c2.2-1,5.9-2.1,8.6-2.6
		c1.2-0.2,17.6-0.3,54.7-0.4l53-0.1l3.7-6c28.2-46.4,38.5-63.2,39.2-64.1c2.6-2.9,6.5-5.3,10.6-6.2c2.9-0.7,7.3-0.5,10.1,0.5
		c9.3,3.1,14.3,12.9,11.1,22c-0.6,1.8-6.2,11-27.8,46.4c-14.8,24.3-27.4,44.8-28,45.6c-2.3,3.2-6.3,5.9-10.5,7.1
		c-1.6,0.5-4.6,0.5-42.3,0.6l-40.6,0.1l-0.2,4.6c-0.1,2.5-0.3,7.6-0.4,11.3l-0.2,6.7h29.2c25.2,0,29.5,0.1,30.9,0.4
		c7.4,1.8,12.2,8.4,11.1,15.2c-0.8,4.9-4.1,8.7-9.3,10.7c-1.5,0.6-1.5,0.6-32.5,0.7l-31.1,0.1l-0.2,2.8c-1,12.9-2,24.1-2.2,25.6
		c-0.6,3.8-2.6,8.4-5.1,11.9c-2.8,3.9-8.4,8.2-12.9,10c-4.2,1.7-6.4,2.1-11.2,2.2C8586,10171,8583.7,10171,8583.4,10170.9z"/>
	<path class="st0" d="M8539.9,10101.7c-14.7-9.5-26.8-21.4-35.9-35.7c-15.8-24.7-20.6-55-13.3-83.5c7.1-27.7,24.8-51.6,50.1-67.4
		c28.7-18,64.5-23.1,97.6-14c28.3,7.7,53.1,25.9,68.4,50.1c3,4.8,6.7,11.8,6.5,12.3c-0.3,0.8-16.2,26.9-16.4,26.9
		c-0.1,0-0.3-0.7-0.5-1.6c-0.5-2.5-2.3-8.2-3.8-11.8c-10-24.5-30.8-43.5-56.9-52c-18.2-5.9-38.3-6.2-57.2-0.9
		c-20,5.7-38.6,18.8-50.5,35.5c-8.1,11.5-12.9,23.7-15.1,37.9c-0.7,4.7-0.7,18.1,0,22.7c1,6.6,2.3,11.8,4.3,17.1
		c4.9,13.2,12.3,24.4,23.1,34.5l4.7,4.4l-0.8,13.2c-0.4,7.3-0.8,13.5-0.8,13.7c0,0.2-0.1,0.5-0.2,0.5
		C8543,10103.6,8541.6,10102.8,8539.9,10101.7z"/>
</g>
<polygon class="st0" points="751.4,261.8 751.4,290.8 751.4,319.8 754.4,319.8 757.4,319.8 757.4,290.8 757.4,261.8 754.4,261.8 "/>
<path class="st0" d="M741.2,273.5c-2.6-2.2-10.5-2.3-13.6-0.2c-2.2,1.6-7.7,16.9-6.6,18.7c1.4,2.3,3.4,0.3,4.9-5
	c2.2-7.7,2.5-8.6,3-8c0.2,0.2-0.9,5-2.5,10.6c-1.7,5.6-3,10.4-3,10.6c0,0.3,1.2,0.6,2.8,0.8c2.7,0.3,2.7,0.3,3.2,9.8
	c0.3,5.2,0.8,9.4,1.3,9.2c0.4-0.1,1.2-0.2,1.7-0.2c0.6,0,1-3.7,1-9s0.4-9,1-9c0.6,0,1,3.6,1,8.8c0,9.3,0.3,10.4,2.6,9.5
	c1.1-0.4,1.4-2.8,1.4-9.9v-9.4h3.1c2.5,0,3-0.3,2.5-1.6c-1.7-4.5-5.7-19.6-5.3-20c0.3-0.3,1.4,2.7,2.6,6.5c1.4,4.6,2.7,7.1,3.6,7.1
	c0.8,0,1.5-0.9,1.5-1.9C747.4,287,743.2,275.2,741.2,273.5z"/>
<path class="st0" d="M782.9,274.3c-2.1-2.2-3.3-2.5-9-2.5s-6.9,0.3-9.1,2.5c-2.3,2.3-2.5,3.1-2.2,11.2c0.3,7.4,0.6,8.8,2.1,9.1
	s1.7-0.6,1.7-7.2c0-4.4,0.4-7.6,1-7.6c0.6,0,1,7.3,1,20v20h2.5h2.5l0.2-12.3l0.2-12.2l0.6,12c0.5,12,0.5,12,3,12h2.5l0.5-20
	c0.3-11,0.7-16.5,0.8-12.3c0.2,7.1,0.4,7.8,2.2,7.8c1.9,0,2-0.7,2-9S785.2,276.5,782.9,274.3z"/>
<ellipse transform="matrix(0.3827 -0.9239 0.9239 0.3827 208.0376 840.5939)" class="st0" cx="733" cy="264.6" rx="5.4" ry="5.4"/>
<ellipse transform="matrix(0.3827 -0.9239 0.9239 0.3827 232.4843 877.1796)" class="st0" cx="772.6" cy="264.6" rx="5.4" ry="5.4"/>
<g>
	<path class="st0" d="M733.7,238.1h5l1.8,9.6l2.7-9.6h5l2.7,9.6l1.8-9.6h5l-3.8,17.2h-5.2l-3-10.8l-3,10.8h-5.2L733.7,238.1z"/>
	<path class="st0" d="M770.5,248.2l4.7,1.4c-0.3,1.3-0.8,2.4-1.5,3.3s-1.5,1.5-2.5,2s-2.3,0.7-3.8,0.7c-1.9,0-3.4-0.3-4.6-0.8
		s-2.2-1.5-3.1-2.9c-0.9-1.4-1.3-3.1-1.3-5.2c0-2.8,0.8-5,2.3-6.6c1.5-1.5,3.7-2.3,6.4-2.3c2.2,0,3.9,0.4,5.1,1.3s2.2,2.2,2.8,4
		l-4.7,1c-0.2-0.5-0.3-0.9-0.5-1.1c-0.3-0.4-0.7-0.7-1.1-0.9c-0.4-0.2-0.9-0.3-1.4-0.3c-1.2,0-2.1,0.5-2.8,1.5
		c-0.5,0.7-0.7,1.8-0.7,3.4c0,1.9,0.3,3.2,0.9,3.9c0.6,0.7,1.4,1.1,2.4,1.1s1.8-0.3,2.3-0.9S770.2,249.3,770.5,248.2z"/>
</g>
<g transform="translate(0.000000,1280.000000) scale(0.100000,-0.100000)">
	<path class="st0" d="M394.9,10595.9c-18.6-2.9-30.4-20.6-25.2-37.7c2.8-9.3,10.9-17.2,20.5-20.1c8.3-2.5,16.1-1.9,23.7,1.7
		c6.3,3,11,7.4,14.1,13.4c2.3,4.4,3.1,7.3,3.3,12.3c0.1,3.3,0.1,4.3-0.5,6.6c-2.6,12-12,21-24.5,23.5
		C403.2,10596.3,397.9,10596.4,394.9,10595.9z"/>
	<path class="st0" d="M397.9,10530.9c-0.3-0.1-1.3-0.2-2.1-0.4c-5.4-1-10.7-3.8-14.9-7.7c-5.6-5.2-8.6-11.7-9-19.2
		c-0.1-2.4,0.1-7.1,1.8-35.3c0.2-2.5,1-16.9,2-32.1c1.3-22,1.8-28.1,2.2-30.1c2-8.9,8.3-16.3,17.3-20.4c2.2-1,5.9-2.1,8.6-2.6
		c1.2-0.2,17.6-0.3,54.7-0.4l53-0.1l3.7-6c28.2-46.4,38.5-63.2,39.3-64.1c2.6-2.9,6.5-5.3,10.6-6.2c2.9-0.7,7.3-0.5,10.1,0.5
		c9.3,3.1,14.3,12.9,11.1,22c-0.6,1.8-6.2,11-27.8,46.4c-14.8,24.3-27.4,44.8-28,45.6c-2.3,3.2-6.3,5.9-10.5,7.1
		c-1.6,0.5-4.6,0.5-42.3,0.6l-40.6,0.1l-0.2,4.6c-0.1,2.5-0.3,7.6-0.4,11.3l-0.2,6.7h29.2c25.2,0,29.5,0.1,30.9,0.4
		c7.4,1.8,12.2,8.4,11.1,15.2c-0.8,4.9-4.1,8.7-9.3,10.7c-1.5,0.6-1.5,0.6-32.5,0.7l-31.1,0.1l-0.2,2.8c-1,12.9-2,24.1-2.2,25.6
		c-0.6,3.8-2.6,8.4-5.1,11.9c-2.8,3.9-8.4,8.2-12.9,10c-4.2,1.7-6.4,2.1-11.2,2.2C400.5,10531,398.2,10531,397.9,10530.9z"/>
	<path class="st0" d="M354.4,10461.7c-14.7-9.5-26.8-21.4-35.9-35.7c-15.8-24.7-20.6-55-13.3-83.5c7.1-27.7,24.8-51.6,50.1-67.4
		c28.7-18,64.5-23.1,97.6-14c28.3,7.7,53.1,25.9,68.4,50.1c3,4.8,6.7,11.8,6.5,12.3c-0.3,0.8-16.2,26.9-16.4,26.9
		c-0.1,0-0.3-0.7-0.5-1.6c-0.5-2.5-2.3-8.2-3.8-11.8c-10-24.5-30.8-43.5-56.9-52c-18.2-5.9-38.3-6.2-57.2-0.9
		c-20,5.7-38.6,18.8-50.5,35.5c-8.1,11.5-12.9,23.7-15.1,37.9c-0.7,4.7-0.7,18.1,0,22.7c1,6.6,2.3,11.8,4.3,17.1
		c4.9,13.2,12.3,24.4,23.1,34.5l4.7,4.4l-0.8,13.2c-0.4,7.3-0.8,13.5-0.8,13.7c0,0.2-0.1,0.5-0.2,0.5
		C357.4,10463.6,356,10462.8,354.4,10461.7z"/>
</g>
<path class="st0" d="M200.9,497.9c0,3.8,0.6,6.9,1.3,7.2c2,0.8,13.4,0.2,13.7-0.8c0.6-1.7-1.7-3.6-4.2-3.3c-1.4,0.2-2.4,0-2.4-0.4
	c0-0.3,4.7-5.2,10.4-10.9c14.7-15,16.4-17.4,12.6-17.9c-1.3-0.2-16.4,14.5-24.9,24l-1.9,2.2l-0.2-3.1c-0.3-3-2.2-5.1-3.6-4.1
	C201.2,491.1,200.9,494.2,200.9,497.9z"/>
<path class="st0" d="M250,492.6c0.1-3.8-0.5-6.9-1.2-7.2c-2-0.9-13.4-0.4-13.7,0.6c-0.6,1.7,1.7,3.6,4.2,3.4
	c1.4-0.2,2.4,0.1,2.4,0.4c0,0.3-4.8,5.2-10.5,10.8c-14.9,14.8-16.6,17.2-12.8,17.8c1.3,0.2,16.5-14.3,25.2-23.8l1.9-2.2l0.2,3.1
	c0.3,3,2.1,5.2,3.5,4.1C249.5,499.4,249.9,496.2,250,492.6z"/>
<path class="st0" d="M70,522.4c-2.8-2.6-5.4-4.2-6.2-3.9c-2,0.9-9.2,9.7-8.7,10.7c0.9,1.6,3.8,1.1,5.3-0.8c0.8-1.1,1.7-1.8,1.9-1.5
	c0.2,0.2,0.7,7,1.1,15.1c1.1,21,1.8,23.9,4.7,21.4c1-0.8,0.4-21.9-0.9-34.6l-0.3-2.8l2.4,1.9c2.4,1.8,5.3,1.9,5.4,0.1
	C74.7,527.2,72.7,524.9,70,522.4z"/>
<path class="st0" d="M400.5,121.5c2.6,2.7,5.2,4.5,5.9,4.2c2-0.8,9.8-9.1,9.3-10.1c-0.8-1.6-3.7-1.4-5.3,0.5c-0.9,1.1-1.8,1.7-2,1.4
	c-0.2-0.2-0.2-7-0.1-15.1c0.2-21-0.3-23.9-3.4-21.7c-1,0.8-1.7,21.8-1.2,34.6l0.2,2.9l-2.3-2.1c-2.3-2-5.1-2.2-5.4-0.4
	C396,116.3,398,118.9,400.5,121.5z"/>
<path class="st0" d="M432.1,83.5c-2.6-2.8-5.1-4.6-5.9-4.3c-2.1,0.8-9.9,9-9.4,10c0.7,1.6,3.7,1.4,5.3-0.4c0.9-1.1,1.8-1.6,2-1.4
	c0.2,0.2,0.2,7,0,15.1c-0.4,21,0.1,23.9,3.2,21.7c1-0.7,1.9-21.8,1.6-34.6l-0.1-2.9l2.3,2.1c2.3,2,5.1,2.2,5.4,0.5
	C436.5,88.7,434.6,86.2,432.1,83.5z"/>
<path class="st0" d="M1018.9,102.4c2.6,2.7,5.2,4.5,5.9,4.2c2-0.8,9.8-9.1,9.3-10.1c-0.8-1.6-3.7-1.4-5.3,0.5
	c-0.9,1.1-1.8,1.7-2,1.4c-0.2-0.2-0.2-7-0.1-15.1c0.2-21-0.3-23.9-3.4-21.7c-1,0.8-1.7,21.8-1.2,34.6l0.2,2.9l-2.3-2.1
	c-2.3-2-5.1-2.2-5.4-0.4C1014.4,97.3,1016.4,99.8,1018.9,102.4z"/>
<path class="st0" d="M1050.5,64.5c-2.6-2.8-5.1-4.6-5.9-4.3c-2.1,0.8-9.9,9-9.4,10c0.7,1.6,3.7,1.4,5.3-0.4c0.9-1.1,1.8-1.6,2-1.4
	c0.2,0.2,0.2,7,0,15.1c-0.4,21,0.1,23.9,3.2,21.7c1-0.7,1.9-21.8,1.6-34.6l-0.1-2.9l2.3,2.1c2.3,2,5.1,2.2,5.4,0.5
	C1054.9,69.7,1053,67.1,1050.5,64.5z"/>
<path class="st0" d="M1571.4,528.6c2.6,2.7,5.2,4.5,5.9,4.2c2-0.8,9.8-9.1,9.3-10.1c-0.8-1.6-3.7-1.4-5.3,0.5
	c-0.9,1.1-1.8,1.7-2,1.4c-0.2-0.2-0.2-7-0.1-15.1c0.2-21-0.3-23.9-3.4-21.7c-1,0.8-1.7,21.8-1.2,34.6l0.2,2.9l-2.3-2.1
	c-2.3-2-5.1-2.2-5.4-0.4C1567,523.5,1568.9,526,1571.4,528.6z"/>
<path class="st0" d="M1603.1,490.7c-2.6-2.8-5.1-4.6-5.9-4.3c-2.1,0.8-9.9,9-9.4,10c0.7,1.6,3.7,1.4,5.3-0.4c0.9-1.1,1.8-1.6,2-1.4
	c0.2,0.2,0.2,7,0,15.1c-0.4,21,0.1,23.9,3.2,21.7c1-0.7,1.9-21.8,1.6-34.6l-0.1-2.9l2.3,2.1c2.3,2,5.1,2.2,5.4,0.5
	C1607.5,495.9,1605.6,493.3,1603.1,490.7z"/>
<path class="st0" d="M1524,331.3c2.7-2.6,4.5-5.2,4.2-6c-0.8-2-9.2-9.7-10.2-9.3c-1.6,0.8-1.4,3.7,0.5,5.3c1.1,0.9,1.7,1.8,1.4,2
	c-0.2,0.2-7,0.3-15.1,0.2c-21-0.1-23.9,0.4-21.6,3.5c0.8,1,21.8,1.6,34.6,1l2.9-0.2l-2.1,2.3c-2,2.3-2.2,5.1-0.4,5.4
	C1518.9,335.8,1521.4,333.8,1524,331.3z"/>
<path class="st0" d="M1485.9,299.9c-2.7,2.6-4.6,5.2-4.3,5.9c0.8,2,9.1,9.8,10.1,9.4c1.6-0.8,1.4-3.7-0.5-5.3
	c-1.1-0.9-1.6-1.8-1.4-2c0.2-0.2,7-0.2,15.1-0.1c21,0.3,23.9-0.2,21.7-3.3c-0.7-1-21.8-1.8-34.6-1.4l-2.9,0.2l2.1-2.3
	c2-2.3,2.2-5.1,0.4-5.4C1491.1,295.4,1488.5,297.3,1485.9,299.9z"/>
<g class="st1">
	<path class="st0" d="M64,124.8l-10.7,0c0.1-1.1,0.5-2.1,1.1-3c0.6-0.9,1.8-2,3.5-3.3c1-0.8,1.7-1.4,2-1.8c0.3-0.4,0.4-0.8,0.4-1.2
		c0-0.4-0.1-0.7-0.4-1s-0.7-0.4-1.1-0.4c-0.5,0-0.8,0.1-1.1,0.4c-0.3,0.3-0.5,0.8-0.6,1.5l-3.6-0.3c0.1-1,0.4-1.8,0.8-2.4
		c0.4-0.6,0.9-1,1.6-1.3c0.7-0.3,1.6-0.5,2.8-0.5c1.3,0,2.2,0.1,2.9,0.4c0.7,0.3,1.3,0.7,1.7,1.3c0.4,0.6,0.6,1.3,0.6,2
		c0,0.8-0.2,1.5-0.7,2.3c-0.5,0.7-1.3,1.5-2.5,2.4c-0.7,0.5-1.2,0.9-1.4,1.1c-0.2,0.2-0.5,0.5-0.9,0.8l5.6,0L64,124.8z"/>
	<path class="st0" d="M68.9,115.6l-3.4-0.6c0.3-1.1,0.8-1.9,1.6-2.5c0.8-0.6,1.9-0.9,3.4-0.9c1.7,0,2.9,0.3,3.7,0.9
		c0.8,0.6,1.1,1.4,1.1,2.4c0,0.6-0.1,1.1-0.5,1.5s-0.8,0.8-1.4,1.2c0.5,0.1,0.9,0.3,1.1,0.4c0.4,0.3,0.8,0.6,1,1
		c0.2,0.4,0.4,0.9,0.4,1.5c0,0.8-0.2,1.5-0.6,2.2c-0.4,0.7-1,1.2-1.7,1.6c-0.7,0.4-1.7,0.6-2.9,0.6c-1.2,0-2.1-0.1-2.8-0.4
		c-0.7-0.3-1.2-0.7-1.7-1.2c-0.4-0.5-0.8-1.2-1-2l3.6-0.5c0.1,0.7,0.4,1.2,0.7,1.5c0.3,0.3,0.7,0.4,1.1,0.4c0.5,0,0.9-0.2,1.2-0.5
		s0.5-0.8,0.5-1.4c0-0.6-0.2-1.1-0.5-1.4c-0.3-0.3-0.7-0.5-1.3-0.5c-0.3,0-0.7,0.1-1.2,0.2l0.2-2.6c0.2,0,0.4,0,0.5,0
		c0.5,0,0.9-0.2,1.2-0.5s0.5-0.7,0.5-1.1c0-0.4-0.1-0.7-0.4-0.9s-0.6-0.3-1-0.3c-0.4,0-0.8,0.1-1,0.4C69.2,114.5,69,115,68.9,115.6z
		"/>
	<path class="st0" d="M81,115.6l-3.4-0.6c0.3-1.1,0.8-1.9,1.6-2.5c0.8-0.6,1.9-0.9,3.4-0.9c1.7,0,2.9,0.3,3.7,0.9
		c0.8,0.6,1.1,1.4,1.1,2.4c0,0.6-0.1,1.1-0.5,1.5s-0.8,0.8-1.4,1.2c0.5,0.1,0.9,0.3,1.1,0.4c0.4,0.3,0.8,0.6,1,1
		c0.2,0.4,0.4,0.9,0.4,1.5c0,0.8-0.2,1.5-0.6,2.2c-0.4,0.7-1,1.2-1.7,1.6c-0.7,0.4-1.7,0.6-2.9,0.6c-1.2,0-2.1-0.1-2.8-0.4
		s-1.2-0.7-1.7-1.2c-0.4-0.5-0.8-1.2-1-2l3.6-0.5c0.1,0.7,0.4,1.2,0.7,1.5c0.3,0.3,0.7,0.4,1.1,0.4c0.5,0,0.9-0.2,1.2-0.5
		s0.5-0.8,0.5-1.4c0-0.6-0.2-1.1-0.5-1.4c-0.3-0.3-0.7-0.5-1.3-0.5c-0.3,0-0.7,0.1-1.2,0.2l0.2-2.6c0.2,0,0.4,0,0.5,0
		c0.5,0,0.9-0.2,1.2-0.5c0.3-0.3,0.5-0.7,0.5-1.1c0-0.4-0.1-0.7-0.4-0.9s-0.6-0.3-1-0.3c-0.4,0-0.8,0.1-1,0.4
		C81.2,114.5,81,114.9,81,115.6z"/>
</g>
<g class="st1">
	<path class="st0" d="M222,124.8l-10.7,0c0.1-1.1,0.5-2.1,1.1-3c0.6-0.9,1.8-2,3.5-3.3c1-0.8,1.7-1.4,2-1.8c0.3-0.4,0.4-0.8,0.4-1.2
		c0-0.4-0.1-0.7-0.4-1s-0.7-0.4-1.1-0.4c-0.5,0-0.8,0.1-1.1,0.4c-0.3,0.3-0.5,0.8-0.6,1.5l-3.6-0.3c0.1-1,0.4-1.8,0.8-2.4
		c0.4-0.6,0.9-1,1.6-1.3c0.7-0.3,1.6-0.5,2.8-0.5c1.3,0,2.2,0.1,2.9,0.4c0.7,0.3,1.3,0.7,1.7,1.3c0.4,0.6,0.6,1.3,0.6,2
		c0,0.8-0.2,1.5-0.7,2.3c-0.5,0.7-1.3,1.5-2.5,2.4c-0.7,0.5-1.2,0.9-1.4,1.1c-0.2,0.2-0.5,0.5-0.9,0.8l5.6,0L222,124.8z"/>
	<path class="st0" d="M227,115.6l-3.4-0.6c0.3-1.1,0.8-1.9,1.6-2.5c0.8-0.6,1.9-0.9,3.4-0.9c1.7,0,2.9,0.3,3.7,0.9
		c0.8,0.6,1.1,1.4,1.1,2.4c0,0.6-0.1,1.1-0.5,1.5s-0.8,0.8-1.4,1.2c0.5,0.1,0.9,0.3,1.1,0.4c0.4,0.3,0.8,0.6,1,1
		c0.2,0.4,0.4,0.9,0.4,1.5c0,0.8-0.2,1.5-0.6,2.2c-0.4,0.7-1,1.2-1.7,1.6c-0.7,0.4-1.7,0.6-2.9,0.6c-1.2,0-2.1-0.1-2.8-0.4
		c-0.7-0.3-1.2-0.7-1.7-1.2c-0.4-0.5-0.8-1.2-1-2l3.6-0.5c0.1,0.7,0.4,1.2,0.7,1.5c0.3,0.3,0.7,0.4,1.1,0.4c0.5,0,0.9-0.2,1.2-0.5
		s0.5-0.8,0.5-1.4c0-0.6-0.2-1.1-0.5-1.4c-0.3-0.3-0.7-0.5-1.3-0.5c-0.3,0-0.7,0.1-1.2,0.2l0.2-2.6c0.2,0,0.4,0,0.5,0
		c0.5,0,0.9-0.2,1.2-0.5s0.5-0.7,0.5-1.1c0-0.4-0.1-0.7-0.4-0.9s-0.6-0.3-1-0.3c-0.4,0-0.8,0.1-1,0.4
		C227.2,114.5,227.1,115,227,115.6z"/>
	<path class="st0" d="M246,124.7l-10.7,0c0.1-1.1,0.5-2.1,1.1-3c0.6-0.9,1.8-2,3.5-3.3c1-0.8,1.7-1.4,2-1.8c0.3-0.4,0.4-0.8,0.4-1.2
		c0-0.4-0.1-0.7-0.4-1c-0.3-0.3-0.7-0.4-1.1-0.4c-0.5,0-0.8,0.1-1.1,0.4c-0.3,0.3-0.5,0.8-0.6,1.5l-3.6-0.3c0.1-1,0.4-1.8,0.8-2.4
		c0.4-0.6,0.9-1,1.6-1.3c0.7-0.3,1.6-0.5,2.8-0.5c1.3,0,2.2,0.1,2.9,0.4c0.7,0.3,1.3,0.7,1.7,1.3c0.4,0.6,0.6,1.3,0.6,2
		c0,0.8-0.2,1.5-0.7,2.3c-0.5,0.7-1.3,1.5-2.5,2.4c-0.7,0.5-1.2,0.9-1.4,1.1c-0.2,0.2-0.5,0.5-0.9,0.8l5.6,0L246,124.7z"/>
</g>
<g class="st1">
	<path class="st0" d="M498.8,125l-10.7,0c0.1-1.1,0.5-2.1,1.1-3c0.6-0.9,1.8-2,3.5-3.3c1-0.8,1.7-1.4,2-1.8c0.3-0.4,0.4-0.8,0.4-1.2
		c0-0.4-0.1-0.7-0.4-1s-0.7-0.4-1.1-0.4c-0.5,0-0.8,0.1-1.1,0.4c-0.3,0.3-0.5,0.8-0.6,1.5l-3.6-0.3c0.1-1,0.4-1.8,0.8-2.4
		c0.4-0.6,0.9-1,1.6-1.3c0.7-0.3,1.6-0.5,2.8-0.5c1.3,0,2.2,0.1,2.9,0.4c0.7,0.3,1.3,0.7,1.7,1.3c0.4,0.6,0.6,1.3,0.6,2
		c0,0.8-0.2,1.5-0.7,2.3c-0.5,0.7-1.3,1.5-2.5,2.4c-0.7,0.5-1.2,0.9-1.4,1.1c-0.2,0.2-0.5,0.5-0.9,0.8l5.6,0L498.8,125z"/>
	<path class="st0" d="M503.7,115.8l-3.4-0.6c0.3-1.1,0.8-1.9,1.6-2.5c0.8-0.6,1.9-0.9,3.4-0.9c1.7,0,2.9,0.3,3.7,0.9
		c0.8,0.6,1.1,1.4,1.1,2.4c0,0.6-0.1,1.1-0.5,1.5s-0.8,0.8-1.4,1.2c0.5,0.1,0.9,0.3,1.1,0.4c0.4,0.3,0.8,0.6,1,1
		c0.2,0.4,0.4,0.9,0.4,1.5c0,0.8-0.2,1.5-0.6,2.2c-0.4,0.7-1,1.2-1.7,1.6c-0.7,0.4-1.7,0.6-2.9,0.6c-1.2,0-2.1-0.1-2.8-0.4
		c-0.7-0.3-1.2-0.7-1.7-1.2c-0.4-0.5-0.8-1.2-1-2l3.6-0.5c0.1,0.7,0.4,1.2,0.7,1.5c0.3,0.3,0.7,0.4,1.1,0.4c0.5,0,0.9-0.2,1.2-0.5
		s0.5-0.8,0.5-1.4c0-0.6-0.2-1.1-0.5-1.4c-0.3-0.3-0.7-0.5-1.3-0.5c-0.3,0-0.7,0.1-1.2,0.2l0.2-2.6c0.2,0,0.4,0,0.5,0
		c0.5,0,0.9-0.2,1.2-0.5s0.5-0.7,0.5-1.1c0-0.4-0.1-0.7-0.4-0.9s-0.6-0.3-1-0.3c-0.4,0-0.8,0.1-1,0.4
		C504,114.7,503.8,115.2,503.7,115.8z"/>
	<path class="st0" d="M512.3,118.4c0-2.4,0.4-4.2,1.3-5.1s2.2-1.5,4-1.5c0.9,0,1.6,0.1,2.1,0.3c0.6,0.2,1,0.5,1.4,0.8
		c0.4,0.3,0.6,0.7,0.8,1.1c0.2,0.4,0.4,0.8,0.5,1.3c0.2,1,0.4,2,0.4,3c0,2.3-0.4,4-1.2,5.1c-0.8,1.1-2.1,1.6-4.1,1.6
		c-1.1,0-2-0.2-2.6-0.5c-0.7-0.3-1.2-0.8-1.6-1.5c-0.3-0.5-0.6-1.1-0.7-1.9C512.4,120.3,512.3,119.4,512.3,118.4z M515.8,118.4
		c0,1.6,0.2,2.8,0.4,3.4c0.3,0.6,0.7,0.9,1.3,0.9c0.4,0,0.7-0.1,0.9-0.4c0.3-0.3,0.5-0.7,0.6-1.2c0.1-0.6,0.2-1.4,0.2-2.6
		c0-1.7-0.2-2.9-0.4-3.4c-0.3-0.6-0.7-0.9-1.3-0.9c-0.6,0-1,0.3-1.3,0.9C515.9,115.7,515.8,116.8,515.8,118.4z"/>
</g>
<g class="st1">
	<path class="st0" d="M608.1,124.8l-10.7,0c0.1-1.1,0.5-2.1,1.1-3c0.6-0.9,1.8-2,3.5-3.3c1-0.8,1.7-1.4,2-1.8
		c0.3-0.4,0.4-0.8,0.4-1.2c0-0.4-0.1-0.7-0.4-1s-0.7-0.4-1.1-0.4c-0.5,0-0.8,0.1-1.1,0.4c-0.3,0.3-0.5,0.8-0.6,1.5l-3.6-0.3
		c0.1-1,0.4-1.8,0.8-2.4c0.4-0.6,0.9-1,1.6-1.3c0.7-0.3,1.6-0.5,2.8-0.5c1.3,0,2.2,0.1,2.9,0.4c0.7,0.3,1.3,0.7,1.7,1.3
		c0.4,0.6,0.6,1.3,0.6,2c0,0.8-0.2,1.5-0.7,2.3c-0.5,0.7-1.3,1.5-2.5,2.4c-0.7,0.5-1.2,0.9-1.4,1.1c-0.2,0.2-0.5,0.5-0.9,0.8l5.6,0
		L608.1,124.8z"/>
	<path class="st0" d="M620.1,124.7l-10.7,0c0.1-1.1,0.5-2.1,1.1-3c0.6-0.9,1.8-2,3.5-3.3c1-0.8,1.7-1.4,2-1.8
		c0.3-0.4,0.4-0.8,0.4-1.2c0-0.4-0.1-0.7-0.4-1s-0.7-0.4-1.1-0.4c-0.5,0-0.8,0.1-1.1,0.4c-0.3,0.3-0.5,0.8-0.6,1.5l-3.6-0.3
		c0.1-1,0.4-1.8,0.8-2.4c0.4-0.6,0.9-1,1.6-1.3c0.7-0.3,1.6-0.5,2.8-0.5c1.3,0,2.2,0.1,2.9,0.4c0.7,0.3,1.3,0.7,1.7,1.3
		c0.4,0.6,0.6,1.3,0.6,2c0,0.8-0.2,1.5-0.7,2.3c-0.5,0.7-1.3,1.5-2.5,2.4c-0.7,0.5-1.2,0.9-1.4,1.1c-0.2,0.2-0.5,0.5-0.9,0.8l5.6,0
		L620.1,124.7z"/>
	<path class="st0" d="M621.8,121.8l3.6-0.5c0.1,0.5,0.3,0.8,0.5,1.1c0.2,0.2,0.5,0.3,0.8,0.3c0.6,0,1-0.3,1.3-0.9
		c0.2-0.4,0.4-1.3,0.5-2.7c-0.4,0.4-0.9,0.8-1.3,1s-1,0.3-1.6,0.3c-1.2,0-2.1-0.4-2.9-1.2c-0.8-0.8-1.2-1.9-1.2-3.1
		c0-0.9,0.2-1.6,0.6-2.3c0.4-0.7,1-1.2,1.7-1.6c0.7-0.4,1.6-0.5,2.7-0.6c1.3,0,2.3,0.2,3.1,0.7c0.8,0.4,1.4,1.1,1.9,2.1
		c0.5,1,0.7,2.2,0.7,3.8c0,2.3-0.5,4-1.4,5.1c-1,1.1-2.3,1.6-4.1,1.6c-1,0-1.8-0.1-2.4-0.3c-0.6-0.2-1.1-0.6-1.5-1
		C622.3,123.1,622,122.5,621.8,121.8z M628.3,116.1c0-0.7-0.2-1.2-0.5-1.6c-0.4-0.4-0.8-0.6-1.3-0.6c-0.5,0-0.9,0.2-1.2,0.5
		s-0.5,0.9-0.5,1.6c0,0.7,0.2,1.3,0.5,1.7s0.7,0.6,1.2,0.6c0.5,0,0.9-0.2,1.3-0.6S628.3,116.8,628.3,116.1z"/>
</g>
<g class="st1">
	<path class="st0" d="M693.6,125l-10.7,0c0.1-1.1,0.5-2.1,1.1-3c0.6-0.9,1.8-2,3.5-3.3c1-0.8,1.7-1.4,2-1.8c0.3-0.4,0.4-0.8,0.4-1.2
		c0-0.4-0.1-0.7-0.4-1s-0.7-0.4-1.1-0.4c-0.5,0-0.8,0.1-1.1,0.4c-0.3,0.3-0.5,0.8-0.6,1.5l-3.6-0.3c0.1-1,0.4-1.8,0.8-2.4
		c0.4-0.6,0.9-1,1.6-1.3c0.7-0.3,1.6-0.5,2.8-0.5c1.3,0,2.2,0.1,2.9,0.4c0.7,0.3,1.3,0.7,1.7,1.3c0.4,0.6,0.6,1.3,0.6,2
		c0,0.8-0.2,1.5-0.7,2.3c-0.5,0.7-1.3,1.5-2.5,2.4c-0.7,0.5-1.2,0.9-1.4,1.1c-0.2,0.2-0.5,0.5-0.9,0.8l5.6,0L693.6,125z"/>
	<path class="st0" d="M705.6,124.9l-10.7,0c0.1-1.1,0.5-2.1,1.1-3c0.6-0.9,1.8-2,3.5-3.3c1-0.8,1.7-1.4,2-1.8
		c0.3-0.4,0.4-0.8,0.4-1.2c0-0.4-0.1-0.7-0.4-1s-0.7-0.4-1.1-0.4c-0.5,0-0.8,0.1-1.1,0.4c-0.3,0.3-0.5,0.8-0.6,1.5l-3.6-0.3
		c0.1-1,0.4-1.8,0.8-2.4c0.4-0.6,0.9-1,1.6-1.3c0.7-0.3,1.6-0.5,2.8-0.5c1.3,0,2.2,0.1,2.9,0.4c0.7,0.3,1.3,0.7,1.7,1.3
		c0.4,0.6,0.6,1.3,0.6,2c0,0.8-0.2,1.5-0.7,2.3c-0.5,0.7-1.3,1.5-2.5,2.4c-0.7,0.5-1.2,0.9-1.4,1.1c-0.2,0.2-0.5,0.5-0.9,0.8l5.6,0
		L705.6,124.9z"/>
	<path class="st0" d="M709.2,118c-0.6-0.3-1-0.6-1.2-1c-0.4-0.5-0.5-1.1-0.5-1.7c0-1.1,0.5-2,1.5-2.7c0.8-0.5,1.8-0.8,3.1-0.8
		c1.7,0,3,0.3,3.8,1c0.8,0.7,1.2,1.5,1.2,2.5c0,0.6-0.2,1.1-0.5,1.6c-0.2,0.4-0.6,0.7-1.2,1.1c0.7,0.3,1.2,0.8,1.6,1.3
		c0.3,0.5,0.5,1.2,0.5,1.8c0,0.6-0.1,1.2-0.4,1.8c-0.3,0.6-0.7,1-1.1,1.3c-0.4,0.3-1,0.5-1.6,0.7c-0.6,0.1-1.3,0.2-2.1,0.2
		c-1.4,0-2.4-0.2-3.1-0.5c-0.7-0.3-1.3-0.8-1.6-1.4c-0.4-0.6-0.6-1.3-0.6-2.1c0-0.8,0.2-1.4,0.5-1.9
		C708,118.7,708.5,118.3,709.2,118z M710.7,121c0,0.6,0.2,1,0.5,1.4c0.3,0.4,0.7,0.5,1.2,0.5c0.4,0,0.8-0.2,1.1-0.6
		c0.3-0.4,0.5-0.8,0.5-1.4c0-0.6-0.2-1-0.5-1.4c-0.3-0.4-0.7-0.5-1.2-0.5c-0.4,0-0.8,0.2-1.2,0.5C710.8,119.9,710.7,120.4,710.7,121
		z M710.8,115.4c0,0.4,0.1,0.8,0.4,1.1c0.3,0.3,0.7,0.4,1.1,0.4c0.4,0,0.7-0.1,1-0.4s0.4-0.6,0.4-1c0-0.4-0.1-0.8-0.4-1.1
		c-0.3-0.3-0.6-0.4-1.1-0.4c-0.4,0-0.8,0.1-1.1,0.4C711,114.7,710.8,115,710.8,115.4z"/>
</g>
<g class="st1">
	<path class="st0" d="M764,125l-10.7,0c0.1-1.1,0.5-2.1,1.1-3c0.6-0.9,1.8-2,3.5-3.3c1-0.8,1.7-1.4,2-1.8c0.3-0.4,0.4-0.8,0.4-1.2
		c0-0.4-0.1-0.7-0.4-1s-0.7-0.4-1.1-0.4c-0.5,0-0.8,0.1-1.1,0.4c-0.3,0.3-0.5,0.8-0.6,1.5l-3.6-0.3c0.1-1,0.4-1.8,0.8-2.4
		c0.4-0.6,0.9-1,1.6-1.3c0.7-0.3,1.6-0.5,2.8-0.5c1.3,0,2.2,0.1,2.9,0.4c0.7,0.3,1.3,0.7,1.7,1.3c0.4,0.6,0.6,1.3,0.6,2
		c0,0.8-0.2,1.5-0.7,2.3c-0.5,0.7-1.3,1.5-2.5,2.4c-0.7,0.5-1.2,0.9-1.4,1.1c-0.2,0.2-0.5,0.5-0.9,0.8l5.6,0L764,125z"/>
	<path class="st0" d="M776,124.9l-10.7,0c0.1-1.1,0.5-2.1,1.1-3c0.6-0.9,1.8-2,3.5-3.3c1-0.8,1.7-1.4,2-1.8c0.3-0.4,0.4-0.8,0.4-1.2
		c0-0.4-0.1-0.7-0.4-1s-0.7-0.4-1.1-0.4c-0.5,0-0.8,0.1-1.1,0.4c-0.3,0.3-0.5,0.8-0.6,1.5l-3.6-0.3c0.1-1,0.4-1.8,0.8-2.4
		c0.4-0.6,0.9-1,1.6-1.3c0.7-0.3,1.6-0.5,2.8-0.5c1.3,0,2.2,0.1,2.9,0.4c0.7,0.3,1.3,0.7,1.7,1.3c0.4,0.6,0.6,1.3,0.6,2
		c0,0.8-0.2,1.5-0.7,2.3c-0.5,0.7-1.3,1.5-2.5,2.4c-0.7,0.5-1.2,0.9-1.4,1.1c-0.2,0.2-0.5,0.5-0.9,0.8l5.6,0L776,124.9z"/>
	<path class="st0" d="M777.5,112l10.5,0l0,2.4c-0.9,0.8-1.7,1.7-2.3,2.7c-0.7,1.2-1.3,2.5-1.7,3.9c-0.3,1.1-0.6,2.4-0.7,3.9l-3.6,0
		c0.3-2.1,0.7-3.9,1.3-5.3c0.6-1.4,1.5-3,2.8-4.6l-6.4,0L777.5,112z"/>
</g>
<g class="st1">
	<path class="st0" d="M866.6,125l-10.7,0c0.1-1.1,0.5-2.1,1.1-3c0.6-0.9,1.8-2,3.5-3.3c1-0.8,1.7-1.4,2-1.8c0.3-0.4,0.4-0.8,0.4-1.2
		c0-0.4-0.1-0.7-0.4-1s-0.7-0.4-1.1-0.4c-0.5,0-0.8,0.1-1.1,0.4c-0.3,0.3-0.5,0.8-0.6,1.5l-3.6-0.3c0.1-1,0.4-1.8,0.8-2.4
		c0.4-0.6,0.9-1,1.6-1.3c0.7-0.3,1.6-0.5,2.8-0.5c1.3,0,2.2,0.1,2.9,0.4c0.7,0.3,1.3,0.7,1.7,1.3c0.4,0.6,0.6,1.3,0.6,2
		c0,0.8-0.2,1.5-0.7,2.3c-0.5,0.7-1.3,1.5-2.5,2.4c-0.7,0.5-1.2,0.9-1.4,1.1s-0.5,0.5-0.9,0.8l5.6,0L866.6,125z"/>
	<path class="st0" d="M878.6,124.9l-10.7,0c0.1-1.1,0.5-2.1,1.1-3c0.6-0.9,1.8-2,3.5-3.3c1-0.8,1.7-1.4,2-1.8
		c0.3-0.4,0.4-0.8,0.4-1.2c0-0.4-0.1-0.7-0.4-1s-0.7-0.4-1.1-0.4c-0.5,0-0.8,0.1-1.1,0.4c-0.3,0.3-0.5,0.8-0.6,1.5l-3.6-0.3
		c0.1-1,0.4-1.8,0.8-2.4c0.4-0.6,0.9-1,1.6-1.3c0.7-0.3,1.6-0.5,2.8-0.5c1.3,0,2.2,0.1,2.9,0.4c0.7,0.3,1.3,0.7,1.7,1.3
		c0.4,0.6,0.6,1.3,0.6,2c0,0.8-0.2,1.5-0.7,2.3s-1.3,1.5-2.5,2.4c-0.7,0.5-1.2,0.9-1.4,1.1s-0.5,0.5-0.9,0.8l5.6,0L878.6,124.9z"/>
	<path class="st0" d="M890.5,114.9l-3.6,0.5c-0.1-0.5-0.3-0.8-0.5-1.1s-0.5-0.3-0.8-0.3c-0.6,0-1,0.3-1.3,0.9
		c-0.2,0.4-0.4,1.3-0.5,2.7c0.4-0.4,0.9-0.8,1.3-1s1-0.3,1.6-0.3c1.1,0,2.1,0.4,2.9,1.2s1.2,1.9,1.2,3.1c0,0.8-0.2,1.6-0.6,2.3
		c-0.4,0.7-1,1.2-1.7,1.6c-0.7,0.4-1.6,0.5-2.7,0.6c-1.3,0-2.3-0.2-3.1-0.6c-0.8-0.4-1.4-1.1-1.9-2.1c-0.5-1-0.7-2.2-0.7-3.8
		c0-2.3,0.5-4,1.4-5.1c1-1.1,2.3-1.6,4.1-1.6c1,0,1.8,0.1,2.4,0.3c0.6,0.2,1.1,0.6,1.5,1C890,113.6,890.3,114.2,890.5,114.9z
		 M883.9,120.7c0,0.7,0.2,1.2,0.5,1.6c0.4,0.4,0.8,0.6,1.3,0.6c0.5,0,0.9-0.2,1.2-0.5c0.3-0.4,0.5-0.9,0.5-1.6
		c0-0.7-0.2-1.3-0.5-1.7c-0.3-0.4-0.7-0.6-1.2-0.6c-0.5,0-0.9,0.2-1.2,0.6C884.1,119.4,883.9,120,883.9,120.7z"/>
</g>
<g class="st1">
	<path class="st0" d="M1216.1,125l-10.7,0c0.1-1.1,0.5-2.1,1.1-3c0.6-0.9,1.8-2,3.5-3.3c1-0.8,1.7-1.4,2-1.8
		c0.3-0.4,0.4-0.8,0.4-1.2c0-0.4-0.1-0.7-0.4-1s-0.7-0.4-1.1-0.4c-0.5,0-0.8,0.1-1.1,0.4c-0.3,0.3-0.5,0.8-0.6,1.5l-3.6-0.3
		c0.1-1,0.4-1.8,0.8-2.4c0.4-0.6,0.9-1,1.6-1.3c0.7-0.3,1.6-0.5,2.8-0.5c1.3,0,2.2,0.1,2.9,0.4c0.7,0.3,1.3,0.7,1.7,1.3
		c0.4,0.6,0.6,1.3,0.6,2c0,0.8-0.2,1.5-0.7,2.3c-0.5,0.7-1.3,1.5-2.5,2.4c-0.7,0.5-1.2,0.9-1.4,1.1s-0.5,0.5-0.9,0.8l5.6,0
		L1216.1,125z"/>
	<path class="st0" d="M1228.1,124.9l-10.7,0c0.1-1.1,0.5-2.1,1.1-3c0.6-0.9,1.8-2,3.5-3.3c1-0.8,1.7-1.4,2-1.8
		c0.3-0.4,0.4-0.8,0.4-1.2c0-0.4-0.1-0.7-0.4-1s-0.7-0.4-1.1-0.4c-0.5,0-0.8,0.1-1.1,0.4c-0.3,0.3-0.5,0.8-0.6,1.5l-3.6-0.3
		c0.1-1,0.4-1.8,0.8-2.4c0.4-0.6,0.9-1,1.6-1.3c0.7-0.3,1.6-0.5,2.8-0.5c1.3,0,2.2,0.1,2.9,0.4c0.7,0.3,1.3,0.7,1.7,1.3
		c0.4,0.6,0.6,1.3,0.6,2c0,0.8-0.2,1.5-0.7,2.3s-1.3,1.5-2.5,2.4c-0.7,0.5-1.2,0.9-1.4,1.1s-0.5,0.5-0.9,0.8l5.6,0L1228.1,124.9z"/>
	<path class="st0" d="M1240.1,124.9l-10.7,0c0.1-1.1,0.5-2.1,1.1-3c0.6-0.9,1.8-2,3.5-3.3c1-0.8,1.7-1.4,2-1.8
		c0.3-0.4,0.4-0.8,0.4-1.2c0-0.4-0.1-0.7-0.4-1c-0.3-0.3-0.7-0.4-1.1-0.4c-0.5,0-0.8,0.1-1.1,0.4c-0.3,0.3-0.5,0.8-0.6,1.5l-3.6-0.3
		c0.1-1,0.4-1.8,0.8-2.4c0.4-0.6,0.9-1,1.6-1.3c0.7-0.3,1.6-0.5,2.8-0.5c1.3,0,2.2,0.1,2.9,0.4c0.7,0.3,1.3,0.7,1.7,1.3
		c0.4,0.6,0.6,1.3,0.6,2c0,0.8-0.2,1.5-0.7,2.3s-1.3,1.5-2.5,2.4c-0.7,0.5-1.2,0.9-1.4,1.1s-0.5,0.5-0.9,0.8l5.6,0L1240.1,124.9z"/>
</g>
<g class="st1">
	<path class="st0" d="M1284.6,125l-10.7,0c0.1-1.1,0.5-2.1,1.1-3c0.6-0.9,1.8-2,3.5-3.3c1-0.8,1.7-1.4,2-1.8s0.4-0.8,0.4-1.2
		c0-0.4-0.1-0.7-0.4-1s-0.7-0.4-1.1-0.4c-0.5,0-0.8,0.1-1.1,0.4s-0.5,0.8-0.6,1.5l-3.6-0.3c0.1-1,0.4-1.8,0.8-2.4
		c0.4-0.6,0.9-1,1.6-1.3c0.7-0.3,1.6-0.5,2.8-0.5c1.3,0,2.2,0.1,2.9,0.4s1.3,0.7,1.7,1.3c0.4,0.6,0.6,1.3,0.6,2
		c0,0.8-0.2,1.5-0.7,2.3c-0.5,0.7-1.3,1.5-2.5,2.4c-0.7,0.5-1.2,0.9-1.4,1.1c-0.2,0.2-0.5,0.5-0.9,0.8l5.6,0L1284.6,125z"/>
	<path class="st0" d="M1296.6,124.9l-10.7,0c0.1-1.1,0.5-2.1,1.1-3c0.6-0.9,1.8-2,3.5-3.3c1-0.8,1.7-1.4,2-1.8s0.4-0.8,0.4-1.2
		c0-0.4-0.1-0.7-0.4-1s-0.7-0.4-1.1-0.4c-0.5,0-0.8,0.1-1.1,0.4s-0.5,0.8-0.6,1.5l-3.6-0.3c0.1-1,0.4-1.8,0.8-2.4
		c0.4-0.6,0.9-1,1.6-1.3c0.7-0.3,1.6-0.5,2.8-0.5c1.3,0,2.2,0.1,2.9,0.4s1.3,0.7,1.7,1.3c0.4,0.6,0.6,1.3,0.6,2
		c0,0.8-0.2,1.5-0.7,2.3c-0.5,0.7-1.3,1.5-2.5,2.4c-0.7,0.5-1.2,0.9-1.4,1.1c-0.2,0.2-0.5,0.5-0.9,0.8l5.6,0L1296.6,124.9z"/>
	<path class="st0" d="M1306.2,111.8l0.1,13.1l-3.6,0l0-8.6c-0.6,0.4-1.1,0.8-1.7,1.1s-1.2,0.5-2.1,0.8l0-2.9
		c1.2-0.4,2.2-0.9,2.8-1.4s1.2-1.2,1.6-2L1306.2,111.8z"/>
</g>
<g class="st1">
	<path class="st0" d="M1354.4,124.8l-10.7,0c0.1-1.1,0.5-2.1,1.1-3c0.6-0.9,1.8-2,3.5-3.3c1-0.8,1.7-1.4,2-1.8
		c0.3-0.4,0.4-0.8,0.4-1.2c0-0.4-0.1-0.7-0.4-1s-0.7-0.4-1.1-0.4c-0.5,0-0.8,0.1-1.1,0.4c-0.3,0.3-0.5,0.8-0.6,1.5l-3.6-0.3
		c0.1-1,0.4-1.8,0.8-2.4c0.4-0.6,0.9-1,1.6-1.3c0.7-0.3,1.6-0.5,2.8-0.5c1.3,0,2.2,0.1,2.9,0.4c0.7,0.3,1.3,0.7,1.7,1.3
		c0.4,0.6,0.6,1.3,0.6,2c0,0.8-0.2,1.5-0.7,2.3c-0.5,0.7-1.3,1.5-2.5,2.4c-0.7,0.5-1.2,0.9-1.4,1.1s-0.5,0.5-0.9,0.8l5.6,0
		L1354.4,124.8z"/>
	<path class="st0" d="M1366.4,124.7l-10.7,0c0.1-1.1,0.5-2.1,1.1-3c0.6-0.9,1.8-2,3.5-3.3c1-0.8,1.7-1.4,2-1.8
		c0.3-0.4,0.4-0.8,0.4-1.2c0-0.4-0.1-0.7-0.4-1s-0.7-0.4-1.1-0.4c-0.5,0-0.8,0.1-1.1,0.4c-0.3,0.3-0.5,0.8-0.6,1.5l-3.6-0.3
		c0.1-1,0.4-1.8,0.8-2.4c0.4-0.6,0.9-1,1.6-1.3c0.7-0.3,1.6-0.5,2.8-0.5c1.3,0,2.2,0.1,2.9,0.4c0.7,0.3,1.3,0.7,1.7,1.3
		c0.4,0.6,0.6,1.3,0.6,2c0,0.8-0.2,1.5-0.7,2.3s-1.3,1.5-2.5,2.4c-0.7,0.5-1.2,0.9-1.4,1.1s-0.5,0.5-0.9,0.8l5.6,0L1366.4,124.7z"/>
	<path class="st0" d="M1367.9,118.2c0-2.4,0.4-4.2,1.3-5.1s2.2-1.5,4-1.5c0.9,0,1.6,0.1,2.1,0.3c0.6,0.2,1,0.5,1.4,0.8
		c0.4,0.3,0.6,0.7,0.8,1.1c0.2,0.4,0.4,0.8,0.5,1.3c0.2,1,0.4,2,0.4,3c0,2.3-0.4,4-1.2,5.1c-0.8,1.1-2.1,1.6-4.1,1.6
		c-1.1,0-2-0.2-2.6-0.5c-0.7-0.3-1.2-0.8-1.6-1.5c-0.3-0.5-0.6-1.1-0.7-1.9C1368,120.1,1367.9,119.2,1367.9,118.2z M1371.4,118.2
		c0,1.6,0.2,2.8,0.4,3.4c0.3,0.6,0.7,0.9,1.3,0.9c0.4,0,0.7-0.1,0.9-0.4c0.3-0.3,0.5-0.7,0.6-1.2c0.1-0.6,0.2-1.4,0.2-2.6
		c0-1.7-0.2-2.9-0.4-3.4c-0.3-0.6-0.7-0.9-1.3-0.9c-0.6,0-1,0.3-1.3,0.9C1371.6,115.5,1371.4,116.6,1371.4,118.2z"/>
</g>
<g class="st1">
	<path class="st0" d="M1424.1,124.8l-10.7,0c0.1-1.1,0.5-2.1,1.1-3c0.6-0.9,1.8-2,3.5-3.3c1-0.8,1.7-1.4,2-1.8
		c0.3-0.4,0.4-0.8,0.4-1.2c0-0.4-0.1-0.7-0.4-1s-0.7-0.4-1.1-0.4c-0.5,0-0.8,0.1-1.1,0.4c-0.3,0.3-0.5,0.8-0.6,1.5l-3.6-0.3
		c0.1-1,0.4-1.8,0.8-2.4c0.4-0.6,0.9-1,1.6-1.3c0.7-0.3,1.6-0.5,2.8-0.5c1.3,0,2.2,0.1,2.9,0.4s1.3,0.7,1.7,1.3
		c0.4,0.6,0.6,1.3,0.6,2c0,0.8-0.2,1.5-0.7,2.3c-0.5,0.7-1.3,1.5-2.5,2.4c-0.7,0.5-1.2,0.9-1.4,1.1c-0.2,0.2-0.5,0.5-0.9,0.8l5.6,0
		L1424.1,124.8z"/>
	<path class="st0" d="M1433.7,111.6l0.1,13.1l-3.6,0l0-8.6c-0.6,0.4-1.1,0.8-1.7,1.1c-0.5,0.3-1.2,0.5-2.1,0.8l0-2.9
		c1.2-0.4,2.2-0.9,2.8-1.4c0.7-0.6,1.2-1.2,1.6-2L1433.7,111.6z"/>
	<path class="st0" d="M1437.8,121.8l3.6-0.5c0.1,0.5,0.3,0.8,0.5,1.1c0.2,0.2,0.5,0.3,0.8,0.3c0.6,0,1-0.3,1.3-0.9
		c0.2-0.4,0.4-1.3,0.5-2.7c-0.4,0.4-0.9,0.8-1.3,1c-0.4,0.2-1,0.3-1.6,0.3c-1.2,0-2.1-0.4-2.9-1.2s-1.2-1.9-1.2-3.1
		c0-0.9,0.2-1.6,0.6-2.3c0.4-0.7,1-1.2,1.7-1.6c0.7-0.4,1.6-0.5,2.7-0.6c1.3,0,2.3,0.2,3.1,0.7c0.8,0.4,1.4,1.1,1.9,2.1
		c0.5,1,0.7,2.2,0.7,3.8c0,2.3-0.5,4-1.4,5.1c-1,1.1-2.3,1.6-4.1,1.6c-1,0-1.8-0.1-2.4-0.3c-0.6-0.2-1.1-0.6-1.5-1
		S1438,122.5,1437.8,121.8z M1444.4,116.1c0-0.7-0.2-1.2-0.5-1.6c-0.4-0.4-0.8-0.6-1.3-0.6c-0.5,0-0.9,0.2-1.2,0.5
		c-0.3,0.4-0.5,0.9-0.5,1.6c0,0.7,0.2,1.3,0.5,1.7s0.7,0.6,1.2,0.6c0.5,0,0.9-0.2,1.3-0.6C1444.2,117.3,1444.4,116.8,1444.4,116.1z"
		/>
</g>
<g class="st1">
	<path class="st0" d="M1493.7,124.8l-10.7,0c0.1-1.1,0.5-2.1,1.1-3c0.6-0.9,1.8-2,3.5-3.3c1-0.8,1.7-1.4,2-1.8
		c0.3-0.4,0.4-0.8,0.4-1.2c0-0.4-0.1-0.7-0.4-1s-0.7-0.4-1.1-0.4c-0.5,0-0.8,0.1-1.1,0.4c-0.3,0.3-0.5,0.8-0.6,1.5l-3.6-0.3
		c0.1-1,0.4-1.8,0.8-2.4c0.4-0.6,0.9-1,1.6-1.3c0.7-0.3,1.6-0.5,2.8-0.5c1.3,0,2.2,0.1,2.9,0.4c0.7,0.3,1.3,0.7,1.7,1.3
		c0.4,0.6,0.6,1.3,0.6,2c0,0.8-0.2,1.5-0.7,2.3c-0.5,0.7-1.3,1.5-2.5,2.4c-0.7,0.5-1.2,0.9-1.4,1.1s-0.5,0.5-0.9,0.8l5.6,0
		L1493.7,124.8z"/>
	<path class="st0" d="M1503.3,111.6l0.1,13.1l-3.6,0l0-8.6c-0.6,0.4-1.2,0.8-1.7,1.1c-0.5,0.3-1.2,0.5-2.1,0.8l0-2.9
		c1.2-0.4,2.2-0.9,2.8-1.4c0.7-0.6,1.2-1.2,1.6-2L1503.3,111.6z"/>
	<path class="st0" d="M1509.4,117.8c-0.6-0.3-1-0.6-1.2-1c-0.4-0.5-0.5-1.1-0.5-1.7c0-1.1,0.5-2,1.5-2.7c0.8-0.5,1.8-0.8,3.1-0.8
		c1.7,0,3,0.3,3.8,1c0.8,0.7,1.2,1.5,1.2,2.5c0,0.6-0.2,1.1-0.5,1.6c-0.2,0.4-0.6,0.7-1.2,1.1c0.7,0.3,1.2,0.8,1.6,1.3
		c0.3,0.5,0.5,1.2,0.5,1.8c0,0.6-0.1,1.2-0.4,1.8c-0.3,0.6-0.7,1-1.1,1.3s-1,0.5-1.6,0.7c-0.6,0.1-1.3,0.2-2.1,0.2
		c-1.4,0-2.4-0.2-3.1-0.5c-0.7-0.3-1.3-0.8-1.6-1.4c-0.4-0.6-0.6-1.3-0.6-2.1c0-0.8,0.2-1.4,0.5-1.9
		C1508.1,118.5,1508.6,118.1,1509.4,117.8z M1510.8,120.8c0,0.6,0.2,1,0.5,1.4c0.3,0.4,0.7,0.5,1.2,0.5c0.4,0,0.8-0.2,1.1-0.6
		c0.3-0.4,0.5-0.8,0.5-1.4c0-0.6-0.2-1-0.5-1.4c-0.3-0.4-0.7-0.5-1.2-0.5c-0.4,0-0.8,0.2-1.2,0.5
		C1511,119.7,1510.8,120.2,1510.8,120.8z M1511,115.3c0,0.4,0.1,0.8,0.4,1.1c0.3,0.3,0.7,0.4,1.1,0.4c0.4,0,0.7-0.1,1-0.4
		s0.4-0.6,0.4-1c0-0.4-0.1-0.8-0.4-1.1c-0.3-0.3-0.6-0.4-1.1-0.4c-0.4,0-0.8,0.1-1.1,0.4C1511.1,114.5,1511,114.8,1511,115.3z"/>
</g>
<g class="st1">
	<path class="st0" d="M1565,124.8l-10.7,0c0.1-1.1,0.5-2.1,1.1-3c0.6-0.9,1.8-2,3.5-3.3c1-0.8,1.7-1.4,2-1.8s0.4-0.8,0.4-1.2
		c0-0.4-0.1-0.7-0.4-1s-0.7-0.4-1.1-0.4c-0.5,0-0.8,0.1-1.1,0.4s-0.5,0.8-0.6,1.5l-3.6-0.3c0.1-1,0.4-1.8,0.8-2.4
		c0.4-0.6,0.9-1,1.6-1.3c0.7-0.3,1.6-0.5,2.8-0.5c1.3,0,2.2,0.1,2.9,0.4s1.3,0.7,1.7,1.3c0.4,0.6,0.6,1.3,0.6,2
		c0,0.8-0.2,1.5-0.7,2.3c-0.5,0.7-1.3,1.5-2.5,2.4c-0.7,0.5-1.2,0.9-1.4,1.1c-0.2,0.2-0.5,0.5-0.9,0.8l5.6,0L1565,124.8z"/>
	<path class="st0" d="M1574.6,111.6l0.1,13.1l-3.6,0l0-8.6c-0.6,0.4-1.1,0.8-1.7,1.1s-1.2,0.5-2.1,0.8l0-2.9
		c1.2-0.4,2.2-0.9,2.8-1.4c0.7-0.6,1.2-1.2,1.6-2L1574.6,111.6z"/>
	<path class="st0" d="M1578.6,111.8l10.5,0l0,2.4c-0.9,0.8-1.7,1.7-2.3,2.7c-0.7,1.2-1.3,2.5-1.7,3.9c-0.3,1.1-0.6,2.4-0.7,3.9
		l-3.6,0c0.3-2.1,0.7-3.9,1.3-5.3c0.6-1.4,1.5-3,2.8-4.6l-6.4,0L1578.6,111.8z"/>
</g>
<g class="st1">
	<path class="st0" d="M1817.7,146.5l-10.7,0c0.1-1.1,0.5-2.1,1.1-3c0.6-0.9,1.8-2,3.5-3.3c1-0.8,1.7-1.4,2-1.8s0.4-0.8,0.4-1.2
		c0-0.4-0.1-0.7-0.4-1s-0.7-0.4-1.1-0.4c-0.5,0-0.8,0.1-1.1,0.4s-0.5,0.8-0.6,1.5l-3.6-0.3c0.1-1,0.4-1.8,0.8-2.4
		c0.4-0.6,0.9-1,1.6-1.3c0.7-0.3,1.6-0.5,2.8-0.5c1.3,0,2.2,0.1,2.9,0.4s1.3,0.7,1.7,1.3c0.4,0.6,0.6,1.3,0.6,2
		c0,0.8-0.2,1.5-0.7,2.3c-0.5,0.7-1.3,1.5-2.5,2.4c-0.7,0.5-1.2,0.9-1.4,1.1c-0.2,0.2-0.5,0.5-0.9,0.8l5.6,0L1817.7,146.5z"/>
	<path class="st0" d="M1827.2,133.4l0.1,13.1l-3.6,0l0-8.6c-0.6,0.4-1.1,0.8-1.7,1.1s-1.2,0.5-2.1,0.8l0-2.9
		c1.2-0.4,2.2-0.9,2.8-1.4c0.7-0.6,1.2-1.2,1.6-2L1827.2,133.4z"/>
	<path class="st0" d="M1841.5,136.4l-3.6,0.5c-0.1-0.5-0.3-0.8-0.5-1.1c-0.2-0.2-0.5-0.3-0.8-0.3c-0.6,0-1,0.3-1.4,0.9
		c-0.2,0.4-0.4,1.3-0.5,2.7c0.4-0.4,0.9-0.8,1.3-1s1-0.3,1.6-0.3c1.1,0,2.1,0.4,2.9,1.2c0.8,0.8,1.2,1.9,1.2,3.1
		c0,0.8-0.2,1.6-0.6,2.3c-0.4,0.7-1,1.2-1.7,1.6c-0.7,0.4-1.6,0.5-2.7,0.6c-1.3,0-2.3-0.2-3.1-0.6s-1.4-1.1-1.9-2.1
		c-0.5-1-0.7-2.2-0.7-3.8c0-2.3,0.5-4,1.4-5.1c1-1.1,2.3-1.6,4.1-1.6c1,0,1.8,0.1,2.4,0.3c0.6,0.2,1.1,0.6,1.5,1
		C1841,135.2,1841.3,135.7,1841.5,136.4z M1834.9,142.2c0,0.7,0.2,1.2,0.5,1.6c0.4,0.4,0.8,0.6,1.3,0.6c0.5,0,0.9-0.2,1.2-0.5
		c0.3-0.4,0.5-0.9,0.5-1.6c0-0.7-0.2-1.3-0.5-1.7c-0.3-0.4-0.7-0.6-1.2-0.6c-0.5,0-0.9,0.2-1.2,0.6
		C1835.1,141,1834.9,141.5,1834.9,142.2z"/>
</g>
<g class="st1">
	<path class="st0" d="M1888.6,312.6l-10.7,0c0.1-1.1,0.5-2.1,1.1-3c0.6-0.9,1.8-2,3.5-3.3c1-0.8,1.7-1.4,2-1.8s0.4-0.8,0.4-1.2
		c0-0.4-0.1-0.7-0.4-1s-0.7-0.4-1.1-0.4c-0.5,0-0.8,0.1-1.1,0.4s-0.5,0.8-0.6,1.5l-3.6-0.3c0.1-1,0.4-1.8,0.8-2.4
		c0.4-0.6,0.9-1,1.6-1.3c0.7-0.3,1.6-0.5,2.8-0.5c1.3,0,2.2,0.1,2.9,0.4s1.3,0.7,1.7,1.3c0.4,0.6,0.6,1.3,0.6,2
		c0,0.8-0.2,1.5-0.7,2.3c-0.5,0.7-1.3,1.5-2.5,2.4c-0.7,0.5-1.2,0.9-1.4,1.1c-0.2,0.2-0.5,0.5-0.9,0.8l5.6,0L1888.6,312.6z"/>
	<path class="st0" d="M1898.2,299.4l0.1,13.1l-3.6,0l0-8.6c-0.6,0.4-1.1,0.8-1.7,1.1s-1.2,0.5-2.1,0.8l0-2.9
		c1.2-0.4,2.2-0.9,2.8-1.4c0.7-0.6,1.2-1.2,1.6-2L1898.2,299.4z"/>
	<path class="st0" d="M1903.5,299.6l8.5,0l0,2.9l-5.8,0l-0.3,1.9c0.4-0.2,0.8-0.3,1.2-0.4c0.4-0.1,0.8-0.1,1.2-0.1
		c1.3,0,2.3,0.4,3.1,1.2c0.8,0.8,1.2,1.8,1.2,2.9c0,0.8-0.2,1.6-0.6,2.4s-1,1.4-1.8,1.8c-0.8,0.4-1.7,0.6-2.9,0.6
		c-0.8,0-1.6-0.1-2.2-0.2c-0.6-0.2-1.1-0.4-1.5-0.7c-0.4-0.3-0.8-0.7-1-1.1c-0.3-0.4-0.5-0.9-0.7-1.5l3.6-0.4c0.1,0.6,0.3,1,0.6,1.3
		c0.3,0.3,0.7,0.4,1.2,0.4c0.5,0,0.9-0.2,1.2-0.6c0.3-0.4,0.5-0.9,0.5-1.7c0-0.8-0.2-1.3-0.5-1.7c-0.3-0.4-0.8-0.5-1.3-0.5
		c-0.3,0-0.7,0.1-1,0.3c-0.2,0.1-0.5,0.3-0.8,0.7l-3.1-0.4L1903.5,299.6z"/>
</g>
<g class="st1">
	<path class="st0" d="M1819.9,493.1l-10.7,0c0.1-1.1,0.5-2.1,1.1-3c0.6-0.9,1.8-2,3.5-3.3c1-0.8,1.7-1.4,2-1.8
		c0.3-0.4,0.4-0.8,0.4-1.2c0-0.4-0.1-0.7-0.4-1s-0.7-0.4-1.1-0.4c-0.5,0-0.8,0.1-1.1,0.4c-0.3,0.3-0.5,0.8-0.6,1.5l-3.6-0.3
		c0.1-1,0.4-1.8,0.8-2.4c0.4-0.6,0.9-1,1.6-1.3c0.7-0.3,1.6-0.5,2.8-0.5c1.3,0,2.2,0.1,2.9,0.4c0.7,0.3,1.3,0.7,1.7,1.3
		c0.4,0.6,0.6,1.3,0.6,2c0,0.8-0.2,1.5-0.7,2.3c-0.5,0.7-1.3,1.5-2.5,2.4c-0.7,0.5-1.2,0.9-1.4,1.1s-0.5,0.5-0.9,0.8l5.6,0
		L1819.9,493.1z"/>
	<path class="st0" d="M1829.5,480l0.1,13.1l-3.6,0l0-8.6c-0.6,0.4-1.2,0.8-1.7,1.1c-0.5,0.3-1.2,0.5-2.1,0.8l0-2.9
		c1.2-0.4,2.2-0.9,2.8-1.4c0.7-0.6,1.2-1.2,1.6-2L1829.5,480z"/>
	<path class="st0" d="M1839.6,490.6l-6.5,0l0-2.9l6.5-7.8l3.1,0l0,7.9l1.6,0l0,2.8l-1.6,0l0,2.4l-3.1,0L1839.6,490.6z M1839.5,487.8
		l0-4.1l-3.4,4.1L1839.5,487.8z"/>
</g>
<g class="st1">
	<path class="st0" d="M386.6,516l-10.7,0c0.1-1.1,0.5-2.1,1.1-3c0.6-0.9,1.8-2,3.5-3.3c1-0.8,1.7-1.4,2-1.8c0.3-0.4,0.4-0.8,0.4-1.2
		c0-0.4-0.1-0.7-0.4-1s-0.7-0.4-1.1-0.4c-0.5,0-0.8,0.1-1.1,0.4c-0.3,0.3-0.5,0.8-0.6,1.5l-3.6-0.3c0.1-1,0.4-1.8,0.8-2.4
		c0.4-0.6,0.9-1,1.6-1.3c0.7-0.3,1.6-0.5,2.8-0.5c1.3,0,2.2,0.1,2.9,0.4c0.7,0.3,1.3,0.7,1.7,1.3c0.4,0.6,0.6,1.3,0.6,2
		c0,0.8-0.2,1.5-0.7,2.3c-0.5,0.7-1.3,1.5-2.5,2.4c-0.7,0.5-1.2,0.9-1.4,1.1c-0.2,0.2-0.5,0.5-0.9,0.8l5.6,0L386.6,516z"/>
	<path class="st0" d="M388.1,509.5c0-2.4,0.4-4.2,1.3-5.1c0.9-1,2.2-1.5,4-1.5c0.9,0,1.6,0.1,2.1,0.3c0.6,0.2,1,0.5,1.4,0.8
		c0.4,0.3,0.6,0.7,0.8,1.1c0.2,0.4,0.4,0.8,0.5,1.3c0.2,1,0.4,2,0.4,3c0,2.3-0.4,4.1-1.2,5.1s-2.1,1.6-4.1,1.6c-1.1,0-2-0.2-2.6-0.5
		c-0.7-0.3-1.2-0.8-1.6-1.5c-0.3-0.5-0.6-1.1-0.7-1.9C388.2,511.4,388.1,510.5,388.1,509.5z M391.7,509.5c0,1.6,0.2,2.8,0.4,3.4
		c0.3,0.6,0.7,0.9,1.3,0.9c0.4,0,0.7-0.1,0.9-0.4c0.3-0.3,0.5-0.7,0.6-1.2c0.1-0.6,0.2-1.4,0.2-2.6c0-1.7-0.2-2.9-0.4-3.4
		c-0.3-0.6-0.7-0.9-1.3-0.9c-0.6,0-1,0.3-1.3,0.9C391.8,506.8,391.7,507.9,391.7,509.5z"/>
	<path class="st0" d="M410.6,515.9l-10.7,0c0.1-1.1,0.5-2.1,1.1-3c0.6-0.9,1.8-2,3.5-3.3c1-0.8,1.7-1.4,2-1.8
		c0.3-0.4,0.4-0.8,0.4-1.2c0-0.4-0.1-0.7-0.4-1c-0.3-0.3-0.7-0.4-1.1-0.4c-0.5,0-0.8,0.1-1.1,0.4c-0.3,0.3-0.5,0.8-0.6,1.5l-3.6-0.3
		c0.1-1,0.4-1.8,0.8-2.4c0.4-0.6,0.9-1,1.6-1.3c0.7-0.3,1.6-0.5,2.8-0.5c1.3,0,2.2,0.1,2.9,0.4c0.7,0.3,1.3,0.7,1.7,1.3
		c0.4,0.6,0.6,1.3,0.6,2c0,0.8-0.2,1.5-0.7,2.3c-0.5,0.7-1.3,1.5-2.5,2.4c-0.7,0.5-1.2,0.9-1.4,1.1c-0.2,0.2-0.5,0.5-0.9,0.8l5.6,0
		L410.6,515.9z"/>
</g>
<g class="st1">
	<path class="st0" d="M492.1,516l-10.7,0c0.1-1.1,0.5-2.1,1.1-3c0.6-0.9,1.8-2,3.5-3.3c1-0.8,1.7-1.4,2-1.8c0.3-0.4,0.4-0.8,0.4-1.2
		c0-0.4-0.1-0.7-0.4-1s-0.7-0.4-1.1-0.4c-0.5,0-0.8,0.1-1.1,0.4c-0.3,0.3-0.5,0.8-0.6,1.5l-3.6-0.3c0.1-1,0.4-1.8,0.8-2.4
		c0.4-0.6,0.9-1,1.6-1.3c0.7-0.3,1.6-0.5,2.8-0.5c1.3,0,2.2,0.1,2.9,0.4c0.7,0.3,1.3,0.7,1.7,1.3c0.4,0.6,0.6,1.3,0.6,2
		c0,0.8-0.2,1.5-0.7,2.3c-0.5,0.7-1.3,1.5-2.5,2.4c-0.7,0.5-1.2,0.9-1.4,1.1c-0.2,0.2-0.5,0.5-0.9,0.8l5.6,0L492.1,516z"/>
	<path class="st0" d="M493.6,509.5c0-2.4,0.4-4.2,1.3-5.1c0.9-1,2.2-1.5,4-1.5c0.9,0,1.6,0.1,2.1,0.3c0.6,0.2,1,0.5,1.4,0.8
		c0.4,0.3,0.6,0.7,0.8,1.1c0.2,0.4,0.4,0.8,0.5,1.3c0.2,1,0.4,2,0.4,3c0,2.3-0.4,4.1-1.2,5.1s-2.1,1.6-4.1,1.6c-1.1,0-2-0.2-2.6-0.5
		c-0.7-0.3-1.2-0.8-1.6-1.5c-0.3-0.5-0.6-1.1-0.7-1.9C493.7,511.4,493.6,510.5,493.6,509.5z M497.2,509.5c0,1.6,0.2,2.8,0.4,3.4
		c0.3,0.6,0.7,0.9,1.3,0.9c0.4,0,0.7-0.1,0.9-0.4c0.3-0.3,0.5-0.7,0.6-1.2c0.1-0.6,0.2-1.4,0.2-2.6c0-1.7-0.2-2.9-0.4-3.4
		c-0.3-0.6-0.7-0.9-1.3-0.9c-0.6,0-1,0.3-1.3,0.9C497.3,506.8,497.2,507.9,497.2,509.5z"/>
	<path class="st0" d="M509.1,506.8l-3.4-0.6c0.3-1.1,0.8-1.9,1.6-2.5c0.8-0.6,1.9-0.9,3.4-0.9c1.7,0,2.9,0.3,3.7,0.9
		c0.8,0.6,1.1,1.4,1.1,2.4c0,0.6-0.1,1.1-0.5,1.5s-0.8,0.8-1.4,1.2c0.5,0.1,0.9,0.3,1.1,0.4c0.4,0.3,0.8,0.6,1,1
		c0.2,0.4,0.4,0.9,0.4,1.5c0,0.8-0.2,1.5-0.6,2.2c-0.4,0.7-1,1.2-1.7,1.6c-0.7,0.4-1.7,0.6-2.9,0.6c-1.2,0-2.1-0.1-2.8-0.4
		s-1.2-0.7-1.7-1.2c-0.4-0.5-0.8-1.2-1-2l3.6-0.5c0.1,0.7,0.4,1.2,0.7,1.5c0.3,0.3,0.7,0.4,1.1,0.4c0.5,0,0.9-0.2,1.2-0.5
		s0.5-0.8,0.5-1.4c0-0.6-0.2-1.1-0.5-1.4c-0.3-0.3-0.7-0.5-1.3-0.5c-0.3,0-0.7,0.1-1.2,0.2l0.2-2.6c0.2,0,0.4,0,0.5,0
		c0.5,0,0.9-0.2,1.2-0.5c0.3-0.3,0.5-0.7,0.5-1.1c0-0.4-0.1-0.7-0.4-0.9s-0.6-0.3-1-0.3c-0.4,0-0.8,0.1-1,0.4
		C509.4,505.7,509.2,506.1,509.1,506.8z"/>
</g>
<g class="st1">
	<path class="st0" d="M596,516l-10.7,0c0.1-1.1,0.5-2.1,1.1-3c0.6-0.9,1.8-2,3.5-3.3c1-0.8,1.7-1.4,2-1.8c0.3-0.4,0.4-0.8,0.4-1.2
		c0-0.4-0.1-0.7-0.4-1s-0.7-0.4-1.1-0.4c-0.5,0-0.8,0.1-1.1,0.4c-0.3,0.3-0.5,0.8-0.6,1.5l-3.6-0.3c0.1-1,0.4-1.8,0.8-2.4
		c0.4-0.6,0.9-1,1.6-1.3c0.7-0.3,1.6-0.5,2.8-0.5c1.3,0,2.2,0.1,2.9,0.4c0.7,0.3,1.3,0.7,1.7,1.3c0.4,0.6,0.6,1.3,0.6,2
		c0,0.8-0.2,1.5-0.7,2.3c-0.5,0.7-1.3,1.5-2.5,2.4c-0.7,0.5-1.2,0.9-1.4,1.1c-0.2,0.2-0.5,0.5-0.9,0.8l5.6,0L596,516z"/>
	<path class="st0" d="M597.5,509.5c0-2.4,0.4-4.2,1.3-5.1c0.9-1,2.2-1.5,4-1.5c0.9,0,1.6,0.1,2.1,0.3c0.6,0.2,1,0.5,1.4,0.8
		c0.4,0.3,0.6,0.7,0.8,1.1c0.2,0.4,0.4,0.8,0.5,1.3c0.2,1,0.4,2,0.4,3c0,2.3-0.4,4.1-1.2,5.1s-2.1,1.6-4.1,1.6c-1.1,0-2-0.2-2.6-0.5
		c-0.7-0.3-1.2-0.8-1.6-1.5c-0.3-0.5-0.6-1.1-0.7-1.9C597.6,511.4,597.5,510.5,597.5,509.5z M601,509.5c0,1.6,0.2,2.8,0.4,3.4
		c0.3,0.6,0.7,0.9,1.3,0.9c0.4,0,0.7-0.1,0.9-0.4c0.3-0.3,0.5-0.7,0.6-1.2c0.1-0.6,0.2-1.4,0.2-2.6c0-1.7-0.2-2.9-0.4-3.4
		c-0.3-0.6-0.7-0.9-1.3-0.9c-0.6,0-1,0.3-1.3,0.9C601.2,506.8,601,507.9,601,509.5z"/>
	<path class="st0" d="M615.7,513.5l-6.5,0l0-2.9l6.5-7.8l3.1,0l0,7.9l1.6,0l0,2.8l-1.6,0l0,2.4l-3.1,0L615.7,513.5z M615.7,510.7
		l0-4.1l-3.4,4.1L615.7,510.7z"/>
</g>
<g class="st1">
	<path class="st0" d="M707.3,516l-10.7,0c0.1-1.1,0.5-2.1,1.1-3c0.6-0.9,1.8-2,3.5-3.3c1-0.8,1.7-1.4,2-1.8c0.3-0.4,0.4-0.8,0.4-1.2
		c0-0.4-0.1-0.7-0.4-1s-0.7-0.4-1.1-0.4c-0.5,0-0.8,0.1-1.1,0.4c-0.3,0.3-0.5,0.8-0.6,1.5l-3.6-0.3c0.1-1,0.4-1.8,0.8-2.4
		c0.4-0.6,0.9-1,1.6-1.3c0.7-0.3,1.6-0.5,2.8-0.5c1.3,0,2.2,0.1,2.9,0.4c0.7,0.3,1.3,0.7,1.7,1.3c0.4,0.6,0.6,1.3,0.6,2
		c0,0.8-0.2,1.5-0.7,2.3c-0.5,0.7-1.3,1.5-2.5,2.4c-0.7,0.5-1.2,0.9-1.4,1.1c-0.2,0.2-0.5,0.5-0.9,0.8l5.6,0L707.3,516z"/>
	<path class="st0" d="M708.8,509.5c0-2.4,0.4-4.2,1.3-5.1c0.9-1,2.2-1.5,4-1.5c0.9,0,1.6,0.1,2.1,0.3c0.6,0.2,1,0.5,1.4,0.8
		c0.4,0.3,0.6,0.7,0.8,1.1c0.2,0.4,0.4,0.8,0.5,1.3c0.2,1,0.4,2,0.4,3c0,2.3-0.4,4.1-1.2,5.1s-2.1,1.6-4.1,1.6c-1.1,0-2-0.2-2.6-0.5
		c-0.7-0.3-1.2-0.8-1.6-1.5c-0.3-0.5-0.6-1.1-0.7-1.9C708.9,511.4,708.8,510.5,708.8,509.5z M712.3,509.5c0,1.6,0.2,2.8,0.4,3.4
		c0.3,0.6,0.7,0.9,1.3,0.9c0.4,0,0.7-0.1,0.9-0.4c0.3-0.3,0.5-0.7,0.6-1.2c0.1-0.6,0.2-1.4,0.2-2.6c0-1.7-0.2-2.9-0.4-3.4
		c-0.3-0.6-0.7-0.9-1.3-0.9c-0.6,0-1,0.3-1.3,0.9C712.5,506.8,712.3,507.9,712.3,509.5z"/>
	<path class="st0" d="M722.2,503.1l8.5,0l0,2.9l-5.8,0l-0.3,1.9c0.4-0.2,0.8-0.3,1.2-0.4c0.4-0.1,0.8-0.1,1.2-0.1
		c1.3,0,2.3,0.4,3.1,1.2c0.8,0.8,1.2,1.8,1.2,2.9c0,0.8-0.2,1.6-0.6,2.4s-1,1.4-1.8,1.8s-1.7,0.6-2.9,0.6c-0.8,0-1.6-0.1-2.2-0.2
		c-0.6-0.2-1.1-0.4-1.5-0.7c-0.4-0.3-0.8-0.7-1-1.1c-0.3-0.4-0.5-0.9-0.7-1.5l3.6-0.4c0.1,0.6,0.3,1,0.6,1.3
		c0.3,0.3,0.7,0.4,1.2,0.4c0.5,0,0.9-0.2,1.2-0.6c0.3-0.4,0.5-0.9,0.5-1.7c0-0.8-0.2-1.3-0.5-1.7s-0.8-0.5-1.3-0.5
		c-0.3,0-0.7,0.1-1,0.3c-0.2,0.1-0.5,0.3-0.8,0.7l-3.1-0.4L722.2,503.1z"/>
</g>
<g class="st1">
	<path class="st0" d="M809.8,516l-10.7,0c0.1-1.1,0.5-2.1,1.1-3c0.6-0.9,1.8-2,3.5-3.3c1-0.8,1.7-1.4,2-1.8c0.3-0.4,0.4-0.8,0.4-1.2
		c0-0.4-0.1-0.7-0.4-1s-0.7-0.4-1.1-0.4c-0.5,0-0.8,0.1-1.1,0.4c-0.3,0.3-0.5,0.8-0.6,1.5l-3.6-0.3c0.1-1,0.4-1.8,0.8-2.4
		c0.4-0.6,0.9-1,1.6-1.3c0.7-0.3,1.6-0.5,2.8-0.5c1.3,0,2.2,0.1,2.9,0.4c0.7,0.3,1.3,0.7,1.7,1.3c0.4,0.6,0.6,1.3,0.6,2
		c0,0.8-0.2,1.5-0.7,2.3c-0.5,0.7-1.3,1.5-2.5,2.4c-0.7,0.5-1.2,0.9-1.4,1.1c-0.2,0.2-0.5,0.5-0.9,0.8l5.6,0L809.8,516z"/>
	<path class="st0" d="M811.3,509.5c0-2.4,0.4-4.2,1.3-5.1c0.9-1,2.2-1.5,4-1.5c0.9,0,1.6,0.1,2.1,0.3c0.6,0.2,1,0.5,1.4,0.8
		c0.4,0.3,0.6,0.7,0.8,1.1c0.2,0.4,0.4,0.8,0.5,1.3c0.2,1,0.4,2,0.4,3c0,2.3-0.4,4.1-1.2,5.1s-2.1,1.6-4.1,1.6c-1.1,0-2-0.2-2.6-0.5
		c-0.7-0.3-1.2-0.8-1.6-1.5c-0.3-0.5-0.6-1.1-0.7-1.9C811.4,511.4,811.3,510.5,811.3,509.5z M814.8,509.5c0,1.6,0.2,2.8,0.4,3.4
		c0.3,0.6,0.7,0.9,1.3,0.9c0.4,0,0.7-0.1,0.9-0.4c0.3-0.3,0.5-0.7,0.6-1.2c0.1-0.6,0.2-1.4,0.2-2.6c0-1.7-0.2-2.9-0.4-3.4
		c-0.3-0.6-0.7-0.9-1.3-0.9c-0.6,0-1,0.3-1.3,0.9C815,506.8,814.8,507.9,814.8,509.5z"/>
	<path class="st0" d="M833.6,505.9l-3.6,0.5c-0.1-0.5-0.3-0.8-0.5-1.1c-0.2-0.2-0.5-0.3-0.8-0.3c-0.6,0-1,0.3-1.4,0.9
		c-0.2,0.4-0.4,1.3-0.5,2.7c0.4-0.4,0.9-0.8,1.3-1s1-0.3,1.6-0.3c1.1,0,2.1,0.4,2.9,1.2c0.8,0.8,1.2,1.9,1.2,3.1
		c0,0.8-0.2,1.6-0.6,2.3c-0.4,0.7-1,1.2-1.7,1.6c-0.7,0.4-1.6,0.5-2.7,0.6c-1.3,0-2.3-0.2-3.1-0.6c-0.8-0.4-1.4-1.1-1.9-2.1
		c-0.5-1-0.7-2.2-0.7-3.8c0-2.3,0.5-4,1.4-5.1c1-1.1,2.3-1.6,4.1-1.6c1,0,1.8,0.1,2.4,0.3c0.6,0.2,1.1,0.6,1.5,1
		C833.1,504.7,833.4,505.2,833.6,505.9z M827.1,511.7c0,0.7,0.2,1.2,0.5,1.6c0.4,0.4,0.8,0.6,1.3,0.6c0.5,0,0.9-0.2,1.2-0.5
		s0.5-0.9,0.5-1.6c0-0.7-0.2-1.3-0.5-1.7s-0.7-0.6-1.2-0.6c-0.5,0-0.9,0.2-1.2,0.6S827.1,511,827.1,511.7z"/>
</g>
<g class="st1">
	<path class="st0" d="M916.1,516l-10.7,0c0.1-1.1,0.5-2.1,1.1-3c0.6-0.9,1.8-2,3.5-3.3c1-0.8,1.7-1.4,2-1.8c0.3-0.4,0.4-0.8,0.4-1.2
		c0-0.4-0.1-0.7-0.4-1s-0.7-0.4-1.1-0.4c-0.5,0-0.8,0.1-1.1,0.4c-0.3,0.3-0.5,0.8-0.6,1.5l-3.6-0.3c0.1-1,0.4-1.8,0.8-2.4
		c0.4-0.6,0.9-1,1.6-1.3c0.7-0.3,1.6-0.5,2.8-0.5c1.3,0,2.2,0.1,2.9,0.4c0.7,0.3,1.3,0.7,1.7,1.3c0.4,0.6,0.6,1.3,0.6,2
		c0,0.8-0.2,1.5-0.7,2.3c-0.5,0.7-1.3,1.5-2.5,2.4c-0.7,0.5-1.2,0.9-1.4,1.1c-0.2,0.2-0.5,0.5-0.9,0.8l5.6,0L916.1,516z"/>
	<path class="st0" d="M917.6,509.5c0-2.4,0.4-4.2,1.3-5.1c0.9-1,2.2-1.5,4-1.5c0.9,0,1.6,0.1,2.1,0.3c0.6,0.2,1,0.5,1.4,0.8
		c0.4,0.3,0.6,0.7,0.8,1.1c0.2,0.4,0.4,0.8,0.5,1.3c0.2,1,0.4,2,0.4,3c0,2.3-0.4,4.1-1.2,5.1s-2.1,1.6-4.1,1.6c-1.1,0-2-0.2-2.6-0.5
		c-0.7-0.3-1.2-0.8-1.6-1.5c-0.3-0.5-0.6-1.1-0.7-1.9C917.7,511.4,917.6,510.5,917.6,509.5z M921.2,509.5c0,1.6,0.2,2.8,0.4,3.4
		c0.3,0.6,0.7,0.9,1.3,0.9c0.4,0,0.7-0.1,0.9-0.4c0.3-0.3,0.5-0.7,0.6-1.2c0.1-0.6,0.2-1.4,0.2-2.6c0-1.7-0.2-2.9-0.4-3.4
		c-0.3-0.6-0.7-0.9-1.3-0.9c-0.6,0-1,0.3-1.3,0.9C921.3,506.8,921.2,507.9,921.2,509.5z"/>
	<path class="st0" d="M929.7,503.1l10.5,0l0,2.4c-0.9,0.8-1.7,1.7-2.3,2.7c-0.7,1.2-1.3,2.5-1.7,3.9c-0.3,1.1-0.6,2.4-0.7,3.9
		l-3.6,0c0.3-2.1,0.7-3.9,1.3-5.3c0.6-1.4,1.5-3,2.8-4.6l-6.4,0L929.7,503.1z"/>
</g>
<g class="st1">
	<path class="st0" d="M1011.9,516l-10.7,0c0.1-1.1,0.5-2.1,1.1-3c0.6-0.9,1.8-2,3.5-3.3c1-0.8,1.7-1.4,2-1.8
		c0.3-0.4,0.4-0.8,0.4-1.2c0-0.4-0.1-0.7-0.4-1s-0.7-0.4-1.1-0.4c-0.5,0-0.8,0.1-1.1,0.4c-0.3,0.3-0.5,0.8-0.6,1.5l-3.6-0.3
		c0.1-1,0.4-1.8,0.8-2.4c0.4-0.6,0.9-1,1.6-1.3c0.7-0.3,1.6-0.5,2.8-0.5c1.3,0,2.2,0.1,2.9,0.4c0.7,0.3,1.3,0.7,1.7,1.3
		c0.4,0.6,0.6,1.3,0.6,2c0,0.8-0.2,1.5-0.7,2.3c-0.5,0.7-1.3,1.5-2.5,2.4c-0.7,0.5-1.2,0.9-1.4,1.1s-0.5,0.5-0.9,0.8l5.6,0
		L1011.9,516z"/>
	<path class="st0" d="M1013.4,509.5c0-2.4,0.4-4.2,1.3-5.1c0.9-1,2.2-1.5,4-1.5c0.9,0,1.6,0.1,2.1,0.3c0.6,0.2,1,0.5,1.4,0.8
		c0.4,0.3,0.6,0.7,0.8,1.1c0.2,0.4,0.4,0.8,0.5,1.3c0.2,1,0.4,2,0.4,3c0,2.3-0.4,4.1-1.2,5.1c-0.8,1.1-2.1,1.6-4.1,1.6
		c-1.1,0-2-0.2-2.6-0.5c-0.7-0.3-1.2-0.8-1.6-1.5c-0.3-0.5-0.6-1.1-0.7-1.9C1013.5,511.4,1013.4,510.5,1013.4,509.5z M1016.9,509.5
		c0,1.6,0.2,2.8,0.4,3.4c0.3,0.6,0.7,0.9,1.3,0.9c0.4,0,0.7-0.1,0.9-0.4c0.3-0.3,0.5-0.7,0.6-1.2c0.1-0.6,0.2-1.4,0.2-2.6
		c0-1.7-0.2-2.9-0.4-3.4c-0.3-0.6-0.7-0.9-1.3-0.9c-0.6,0-1,0.3-1.3,0.9C1017,506.8,1016.9,507.9,1016.9,509.5z"/>
	<path class="st0" d="M1027.5,509c-0.6-0.3-1-0.6-1.2-1c-0.4-0.5-0.5-1.1-0.5-1.7c0-1.1,0.5-2,1.5-2.7c0.8-0.5,1.8-0.8,3.1-0.8
		c1.7,0,3,0.3,3.8,1c0.8,0.7,1.2,1.5,1.2,2.5c0,0.6-0.2,1.1-0.5,1.6c-0.2,0.4-0.6,0.7-1.2,1.1c0.7,0.3,1.2,0.8,1.6,1.3
		c0.3,0.5,0.5,1.2,0.5,1.8c0,0.6-0.1,1.2-0.4,1.8c-0.3,0.6-0.7,1-1.1,1.3s-1,0.5-1.6,0.7c-0.6,0.1-1.3,0.2-2.1,0.2
		c-1.4,0-2.4-0.2-3.1-0.5c-0.7-0.3-1.3-0.8-1.6-1.4c-0.4-0.6-0.6-1.3-0.6-2.1c0-0.8,0.2-1.4,0.5-1.9
		C1026.3,509.7,1026.8,509.3,1027.5,509z M1029,512c0,0.6,0.2,1,0.5,1.4c0.3,0.4,0.7,0.5,1.2,0.5c0.4,0,0.8-0.2,1.1-0.6
		c0.3-0.4,0.5-0.8,0.5-1.4c0-0.6-0.2-1-0.5-1.4c-0.3-0.4-0.7-0.5-1.2-0.5c-0.4,0-0.8,0.2-1.2,0.5C1029.1,510.9,1029,511.4,1029,512z
		 M1029.1,506.5c0,0.4,0.1,0.8,0.4,1.1c0.3,0.3,0.7,0.4,1.1,0.4c0.4,0,0.7-0.1,1-0.4s0.4-0.6,0.4-1c0-0.4-0.1-0.8-0.4-1.1
		c-0.3-0.3-0.6-0.4-1.1-0.4c-0.4,0-0.8,0.1-1.1,0.4C1029.3,505.7,1029.1,506,1029.1,506.5z"/>
</g>
<g class="st1">
	<path class="st0" d="M1112.2,516l-10.7,0c0.1-1.1,0.5-2.1,1.1-3c0.6-0.9,1.8-2,3.5-3.3c1-0.8,1.7-1.4,2-1.8s0.4-0.8,0.4-1.2
		c0-0.4-0.1-0.7-0.4-1s-0.7-0.4-1.1-0.4c-0.5,0-0.8,0.1-1.1,0.4s-0.5,0.8-0.6,1.5l-3.6-0.3c0.1-1,0.4-1.8,0.8-2.4
		c0.4-0.6,0.9-1,1.6-1.3c0.7-0.3,1.6-0.5,2.8-0.5c1.3,0,2.2,0.1,2.9,0.4s1.3,0.7,1.7,1.3c0.4,0.6,0.6,1.3,0.6,2
		c0,0.8-0.2,1.5-0.7,2.3c-0.5,0.7-1.3,1.5-2.5,2.4c-0.7,0.5-1.2,0.9-1.4,1.1c-0.2,0.2-0.5,0.5-0.9,0.8l5.6,0L1112.2,516z"/>
	<path class="st0" d="M1113.7,509.5c0-2.4,0.4-4.2,1.3-5.1c0.9-1,2.2-1.5,4-1.5c0.9,0,1.6,0.1,2.1,0.3c0.6,0.2,1,0.5,1.4,0.8
		c0.4,0.3,0.6,0.7,0.8,1.1c0.2,0.4,0.4,0.8,0.5,1.3c0.2,1,0.4,2,0.4,3c0,2.3-0.4,4.1-1.2,5.1c-0.8,1.1-2.1,1.6-4.1,1.6
		c-1.1,0-2-0.2-2.6-0.5c-0.7-0.3-1.2-0.8-1.6-1.5c-0.3-0.5-0.6-1.1-0.7-1.9S1113.7,510.5,1113.7,509.5z M1117.3,509.5
		c0,1.6,0.2,2.8,0.4,3.4c0.3,0.6,0.7,0.9,1.3,0.9c0.4,0,0.7-0.1,0.9-0.4c0.3-0.3,0.5-0.7,0.6-1.2c0.1-0.6,0.2-1.4,0.2-2.6
		c0-1.7-0.2-2.9-0.4-3.4c-0.3-0.6-0.7-0.9-1.3-0.9c-0.6,0-1,0.3-1.3,0.9C1117.4,506.8,1117.3,507.9,1117.3,509.5z"/>
	<path class="st0" d="M1125.9,513.1l3.6-0.5c0.1,0.5,0.3,0.8,0.5,1.1c0.2,0.2,0.5,0.3,0.8,0.3c0.6,0,1-0.3,1.3-0.9
		c0.2-0.4,0.4-1.3,0.5-2.7c-0.4,0.4-0.9,0.8-1.3,1s-1,0.3-1.6,0.3c-1.2,0-2.1-0.4-2.9-1.2s-1.2-1.9-1.2-3.1c0-0.9,0.2-1.6,0.6-2.3
		c0.4-0.7,1-1.2,1.7-1.6c0.7-0.4,1.6-0.5,2.7-0.6c1.3,0,2.3,0.2,3.1,0.7c0.8,0.4,1.4,1.1,1.9,2.1c0.5,1,0.7,2.2,0.7,3.8
		c0,2.3-0.5,4-1.4,5.1c-1,1.1-2.3,1.6-4.1,1.6c-1,0-1.8-0.1-2.4-0.3c-0.6-0.2-1.1-0.6-1.5-1S1126.1,513.7,1125.9,513.1z
		 M1132.5,507.3c0-0.7-0.2-1.2-0.5-1.6c-0.4-0.4-0.8-0.6-1.3-0.6c-0.5,0-0.9,0.2-1.2,0.5c-0.3,0.4-0.5,0.9-0.5,1.6
		c0,0.7,0.2,1.3,0.5,1.7c0.3,0.4,0.7,0.6,1.2,0.6c0.5,0,0.9-0.2,1.3-0.6C1132.3,508.5,1132.5,508,1132.5,507.3z"/>
</g>
<g class="st1">
	<path class="st0" d="M1219.4,516l-10.7,0c0.1-1.1,0.5-2.1,1.1-3c0.6-0.9,1.8-2,3.5-3.3c1-0.8,1.7-1.4,2-1.8
		c0.3-0.4,0.4-0.8,0.4-1.2c0-0.4-0.1-0.7-0.4-1s-0.7-0.4-1.1-0.4c-0.5,0-0.8,0.1-1.1,0.4c-0.3,0.3-0.5,0.8-0.6,1.5l-3.6-0.3
		c0.1-1,0.4-1.8,0.8-2.4c0.4-0.6,0.9-1,1.6-1.3c0.7-0.3,1.6-0.5,2.8-0.5c1.3,0,2.2,0.1,2.9,0.4s1.3,0.7,1.7,1.3
		c0.4,0.6,0.6,1.3,0.6,2c0,0.8-0.2,1.5-0.7,2.3c-0.5,0.7-1.3,1.5-2.5,2.4c-0.7,0.5-1.2,0.9-1.4,1.1s-0.5,0.5-0.9,0.8l5.6,0
		L1219.4,516z"/>
	<path class="st0" d="M1229,502.9l0.1,13.1l-3.6,0l0-8.6c-0.6,0.4-1.2,0.8-1.7,1.1c-0.5,0.3-1.2,0.5-2.1,0.8l0-2.9
		c1.2-0.4,2.2-0.9,2.8-1.4c0.7-0.6,1.2-1.2,1.6-2L1229,502.9z"/>
	<path class="st0" d="M1232.9,509.4c0-2.4,0.4-4.2,1.3-5.1s2.2-1.5,4-1.5c0.9,0,1.6,0.1,2.1,0.3c0.6,0.2,1,0.5,1.4,0.8
		c0.4,0.3,0.6,0.7,0.8,1.1c0.2,0.4,0.4,0.8,0.5,1.3c0.2,1,0.4,2,0.4,3c0,2.3-0.4,4-1.2,5.1c-0.8,1.1-2.1,1.6-4.1,1.6
		c-1.1,0-2-0.2-2.6-0.5c-0.7-0.3-1.2-0.8-1.7-1.5c-0.3-0.5-0.6-1.1-0.7-1.9C1233,511.4,1232.9,510.4,1232.9,509.4z M1236.5,509.4
		c0,1.6,0.2,2.8,0.4,3.4c0.3,0.6,0.7,0.9,1.3,0.9c0.4,0,0.7-0.1,0.9-0.4c0.3-0.3,0.5-0.7,0.6-1.2c0.1-0.6,0.2-1.4,0.2-2.6
		c0-1.7-0.2-2.9-0.4-3.4c-0.3-0.6-0.7-0.9-1.3-0.9c-0.6,0-1,0.3-1.3,0.9C1236.6,506.7,1236.5,507.8,1236.5,509.4z"/>
</g>
<g class="st1">
	<path class="st0" d="M1308.4,516l-10.7,0c0.1-1.1,0.5-2.1,1.1-3c0.6-0.9,1.8-2,3.5-3.3c1-0.8,1.7-1.4,2-1.8
		c0.3-0.4,0.4-0.8,0.4-1.2c0-0.4-0.1-0.7-0.4-1s-0.7-0.4-1.1-0.4c-0.5,0-0.8,0.1-1.1,0.4c-0.3,0.3-0.5,0.8-0.6,1.5l-3.6-0.3
		c0.1-1,0.4-1.8,0.8-2.4c0.4-0.6,0.9-1,1.6-1.3c0.7-0.3,1.6-0.5,2.8-0.5c1.3,0,2.2,0.1,2.9,0.4c0.7,0.3,1.3,0.7,1.7,1.3
		c0.4,0.6,0.6,1.3,0.6,2c0,0.8-0.2,1.5-0.7,2.3c-0.5,0.7-1.3,1.5-2.5,2.4c-0.7,0.5-1.2,0.9-1.4,1.1s-0.5,0.5-0.9,0.8l5.6,0
		L1308.4,516z"/>
	<path class="st0" d="M1318,502.8l0.1,13.1l-3.6,0l0-8.6c-0.6,0.4-1.2,0.8-1.7,1.1c-0.5,0.3-1.2,0.5-2.1,0.8l0-2.9
		c1.2-0.4,2.2-0.9,2.8-1.4c0.7-0.6,1.2-1.2,1.6-2L1318,502.8z"/>
	<path class="st0" d="M1330,502.8l0.1,13.1l-3.6,0l0-8.6c-0.6,0.4-1.2,0.8-1.7,1.1c-0.5,0.3-1.2,0.5-2.1,0.8l0-2.9
		c1.2-0.4,2.2-0.9,2.8-1.4c0.7-0.6,1.2-1.2,1.6-2L1330,502.8z"/>
</g>
<g class="st1">
	<path class="st0" d="M1401.7,516l-10.7,0c0.1-1.1,0.5-2.1,1.1-3c0.6-0.9,1.8-2,3.5-3.3c1-0.8,1.7-1.4,2-1.8s0.4-0.8,0.4-1.2
		c0-0.4-0.1-0.7-0.4-1s-0.7-0.4-1.1-0.4c-0.5,0-0.8,0.1-1.1,0.4s-0.5,0.8-0.6,1.5l-3.6-0.3c0.1-1,0.4-1.8,0.8-2.4
		c0.4-0.6,0.9-1,1.6-1.3c0.7-0.3,1.6-0.5,2.8-0.5c1.3,0,2.2,0.1,2.9,0.4s1.3,0.7,1.7,1.3c0.4,0.6,0.6,1.3,0.6,2
		c0,0.8-0.2,1.5-0.7,2.3c-0.5,0.7-1.3,1.5-2.5,2.4c-0.7,0.5-1.2,0.9-1.4,1.1c-0.2,0.2-0.5,0.5-0.9,0.8l5.6,0L1401.7,516z"/>
	<path class="st0" d="M1411.3,502.8l0.1,13.1l-3.6,0l0-8.6c-0.6,0.4-1.1,0.8-1.7,1.1s-1.2,0.5-2.1,0.8l0-2.9
		c1.2-0.4,2.2-0.9,2.8-1.4c0.7-0.6,1.2-1.2,1.6-2L1411.3,502.8z"/>
	<path class="st0" d="M1425.7,515.9l-10.7,0c0.1-1.1,0.5-2.1,1.1-3c0.6-0.9,1.8-2,3.5-3.3c1-0.8,1.7-1.4,2-1.8
		c0.3-0.4,0.4-0.8,0.4-1.2c0-0.4-0.1-0.7-0.4-1c-0.3-0.3-0.7-0.4-1.1-0.4c-0.5,0-0.8,0.1-1.1,0.4c-0.3,0.3-0.5,0.8-0.6,1.5l-3.6-0.3
		c0.1-1,0.4-1.8,0.8-2.4c0.4-0.6,0.9-1,1.6-1.3c0.7-0.3,1.6-0.5,2.8-0.5c1.3,0,2.2,0.1,2.9,0.4s1.3,0.7,1.7,1.3
		c0.4,0.6,0.6,1.3,0.6,2c0,0.8-0.2,1.5-0.7,2.3c-0.5,0.7-1.3,1.5-2.5,2.4c-0.7,0.5-1.2,0.9-1.4,1.1c-0.2,0.2-0.5,0.5-0.9,0.8l5.6,0
		L1425.7,515.9z"/>
</g>
<g class="st1">
	<path class="st0" d="M1500.2,516l-10.7,0c0.1-1.1,0.5-2.1,1.1-3c0.6-0.9,1.8-2,3.5-3.3c1-0.8,1.7-1.4,2-1.8
		c0.3-0.4,0.4-0.8,0.4-1.2c0-0.4-0.1-0.7-0.4-1s-0.7-0.4-1.1-0.4c-0.5,0-0.8,0.1-1.1,0.4c-0.3,0.3-0.5,0.8-0.6,1.5l-3.6-0.3
		c0.1-1,0.4-1.8,0.8-2.4c0.4-0.6,0.9-1,1.6-1.3c0.7-0.3,1.6-0.5,2.8-0.5c1.3,0,2.2,0.1,2.9,0.4c0.7,0.3,1.3,0.7,1.7,1.3
		c0.4,0.6,0.6,1.3,0.6,2c0,0.8-0.2,1.5-0.7,2.3c-0.5,0.7-1.3,1.5-2.5,2.4c-0.7,0.5-1.2,0.9-1.4,1.1s-0.5,0.5-0.9,0.8l5.6,0
		L1500.2,516z"/>
	<path class="st0" d="M1509.8,502.8l0.1,13.1l-3.6,0l0-8.6c-0.6,0.4-1.2,0.8-1.7,1.1c-0.5,0.3-1.2,0.5-2.1,0.8l0-2.9
		c1.2-0.4,2.2-0.9,2.8-1.4c0.7-0.6,1.2-1.2,1.6-2L1509.8,502.8z"/>
	<path class="st0" d="M1517.2,506.8l-3.4-0.6c0.3-1.1,0.8-1.9,1.6-2.5c0.8-0.6,1.9-0.9,3.4-0.9c1.7,0,2.9,0.3,3.7,0.9
		s1.1,1.4,1.1,2.4c0,0.6-0.1,1.1-0.5,1.5s-0.8,0.8-1.4,1.2c0.5,0.1,0.9,0.3,1.1,0.4c0.4,0.3,0.8,0.6,1,1c0.2,0.4,0.4,0.9,0.4,1.5
		c0,0.8-0.2,1.5-0.6,2.2c-0.4,0.7-1,1.2-1.7,1.6c-0.7,0.4-1.7,0.6-2.9,0.6c-1.2,0-2.1-0.1-2.8-0.4s-1.2-0.7-1.7-1.2
		c-0.4-0.5-0.8-1.2-1-2l3.6-0.5c0.1,0.7,0.4,1.2,0.7,1.5c0.3,0.3,0.7,0.4,1.1,0.4c0.5,0,0.9-0.2,1.2-0.5c0.3-0.4,0.5-0.8,0.5-1.4
		c0-0.6-0.2-1.1-0.5-1.4c-0.3-0.3-0.7-0.5-1.3-0.5c-0.3,0-0.7,0.1-1.2,0.2l0.2-2.6c0.2,0,0.4,0,0.5,0c0.5,0,0.9-0.2,1.2-0.5
		c0.3-0.3,0.5-0.7,0.5-1.1c0-0.4-0.1-0.7-0.4-0.9s-0.6-0.3-1-0.3c-0.4,0-0.8,0.1-1,0.4C1517.4,505.7,1517.2,506.1,1517.2,506.8z"/>
</g>
<g class="st1">
	<path class="st0" d="M361.2,121.6l0,10.7c-1.1-0.1-2.1-0.5-3-1.1c-0.9-0.6-2-1.8-3.3-3.5c-0.8-1-1.4-1.7-1.8-2s-0.8-0.4-1.2-0.4
		c-0.4,0-0.7,0.1-1,0.4c-0.3,0.3-0.4,0.7-0.4,1.1c0,0.5,0.1,0.8,0.4,1.1c0.3,0.3,0.8,0.5,1.5,0.6l-0.3,3.6c-1-0.1-1.8-0.4-2.4-0.8
		c-0.6-0.4-1-0.9-1.3-1.6c-0.3-0.7-0.5-1.6-0.5-2.8c0-1.3,0.1-2.2,0.4-2.9c0.3-0.7,0.7-1.3,1.3-1.7c0.6-0.4,1.3-0.6,2-0.6
		c0.8,0,1.5,0.2,2.3,0.7s1.5,1.3,2.4,2.5c0.5,0.7,0.9,1.2,1.1,1.4c0.2,0.2,0.5,0.5,0.8,0.9l0-5.6L361.2,121.6z"/>
	<path class="st0" d="M352.1,116.7l-0.6,3.4c-1.1-0.3-1.9-0.8-2.5-1.6c-0.6-0.8-0.9-1.9-0.9-3.4c0-1.7,0.3-2.9,0.9-3.7
		s1.4-1.1,2.4-1.1c0.6,0,1.1,0.1,1.5,0.5c0.5,0.3,0.8,0.8,1.2,1.4c0.1-0.5,0.3-0.9,0.4-1.1c0.3-0.4,0.6-0.8,1-1
		c0.4-0.2,0.9-0.4,1.5-0.4c0.8,0,1.5,0.2,2.2,0.6c0.7,0.4,1.2,1,1.6,1.7c0.4,0.7,0.6,1.7,0.6,2.9c0,1.2-0.1,2.1-0.4,2.8
		s-0.7,1.2-1.2,1.7c-0.5,0.4-1.2,0.8-2,1l-0.5-3.6c0.7-0.1,1.2-0.4,1.5-0.7c0.3-0.3,0.4-0.7,0.4-1.1c0-0.5-0.2-0.9-0.5-1.2
		c-0.4-0.3-0.8-0.5-1.4-0.5c-0.6,0-1.1,0.2-1.4,0.5c-0.3,0.3-0.5,0.7-0.5,1.3c0,0.3,0.1,0.7,0.2,1.2l-2.6-0.2c0-0.2,0-0.4,0-0.5
		c0-0.5-0.2-0.9-0.5-1.2c-0.3-0.3-0.7-0.5-1.1-0.5c-0.4,0-0.7,0.1-0.9,0.4s-0.3,0.6-0.3,1c0,0.4,0.1,0.8,0.4,1
		C351,116.4,351.4,116.6,352.1,116.7z"/>
	<path class="st0" d="M348,100l13.1-0.1l0,3.6l-8.6,0c0.4,0.6,0.8,1.1,1.1,1.7c0.3,0.5,0.5,1.2,0.8,2.1l-2.9,0
		c-0.4-1.2-0.9-2.2-1.4-2.8c-0.6-0.7-1.2-1.2-2-1.6L348,100z"/>
</g>
<g class="st1">
	<path class="st0" d="M965.4,124.1l0,10.7c-1.1-0.1-2.1-0.5-3-1.1c-0.9-0.6-2-1.8-3.3-3.5c-0.8-1-1.4-1.7-1.8-2s-0.8-0.4-1.2-0.4
		c-0.4,0-0.7,0.1-1,0.4c-0.3,0.3-0.4,0.7-0.4,1.1c0,0.5,0.1,0.8,0.4,1.1c0.3,0.3,0.8,0.5,1.5,0.6l-0.3,3.6c-1-0.1-1.8-0.4-2.4-0.8
		c-0.6-0.4-1-0.9-1.3-1.6c-0.3-0.7-0.5-1.6-0.5-2.8c0-1.3,0.1-2.2,0.4-2.9c0.3-0.7,0.7-1.3,1.3-1.7c0.6-0.4,1.3-0.6,2-0.6
		c0.8,0,1.5,0.2,2.3,0.7s1.5,1.3,2.4,2.5c0.5,0.7,0.9,1.2,1.1,1.4c0.2,0.2,0.5,0.5,0.8,0.9l0-5.6L965.4,124.1z"/>
	<path class="st0" d="M965.3,112.1l0,10.7c-1.1-0.1-2.1-0.5-3-1.1c-0.9-0.6-2-1.8-3.3-3.5c-0.8-1-1.4-1.7-1.8-2
		c-0.4-0.3-0.8-0.4-1.2-0.4c-0.4,0-0.7,0.1-1,0.4c-0.3,0.3-0.4,0.7-0.4,1.1c0,0.5,0.1,0.8,0.4,1.1c0.3,0.3,0.8,0.5,1.5,0.6l-0.3,3.6
		c-1-0.1-1.8-0.4-2.4-0.8c-0.6-0.4-1-0.9-1.3-1.6c-0.3-0.7-0.5-1.6-0.5-2.8c0-1.3,0.1-2.2,0.4-2.9c0.3-0.7,0.7-1.3,1.3-1.7
		c0.6-0.4,1.3-0.6,2-0.6c0.8,0,1.5,0.2,2.3,0.7s1.5,1.3,2.4,2.5c0.5,0.7,0.9,1.2,1.1,1.4c0.2,0.2,0.5,0.5,0.8,0.9l0-5.6L965.3,112.1
		z"/>
	<path class="st0" d="M952.4,109.2l0-8.5l2.9,0l0,5.8l1.9,0.3c-0.2-0.4-0.3-0.8-0.4-1.2c-0.1-0.4-0.1-0.8-0.1-1.2
		c0-1.3,0.4-2.3,1.2-3.1c0.8-0.8,1.8-1.2,2.9-1.2c0.8,0,1.6,0.2,2.4,0.6c0.8,0.4,1.4,1,1.8,1.8c0.4,0.8,0.6,1.7,0.6,2.9
		c0,0.8-0.1,1.6-0.2,2.2c-0.2,0.6-0.4,1.1-0.7,1.5c-0.3,0.4-0.7,0.8-1.1,1c-0.4,0.3-0.9,0.5-1.5,0.7l-0.4-3.6c0.6-0.1,1-0.3,1.3-0.6
		s0.4-0.7,0.4-1.2c0-0.5-0.2-0.9-0.6-1.2c-0.4-0.3-0.9-0.5-1.7-0.5c-0.8,0-1.3,0.2-1.7,0.5c-0.4,0.3-0.5,0.8-0.5,1.3
		c0,0.3,0.1,0.7,0.3,1c0.1,0.2,0.3,0.5,0.7,0.8l-0.4,3.1L952.4,109.2z"/>
</g>
<g class="st1">
	<path class="st0" d="M1113.4,124.1l0,10.7c-1.1-0.1-2.1-0.5-3-1.1c-0.9-0.6-2-1.8-3.3-3.5c-0.8-1-1.4-1.7-1.8-2s-0.8-0.4-1.2-0.4
		c-0.4,0-0.7,0.1-1,0.4c-0.3,0.3-0.4,0.7-0.4,1.1c0,0.5,0.1,0.8,0.4,1.1c0.3,0.3,0.8,0.5,1.5,0.6l-0.3,3.6c-1-0.1-1.8-0.4-2.4-0.8
		c-0.6-0.4-1-0.9-1.3-1.6c-0.3-0.7-0.5-1.6-0.5-2.8c0-1.3,0.1-2.2,0.4-2.9c0.3-0.7,0.7-1.3,1.3-1.7c0.6-0.4,1.3-0.6,2-0.6
		c0.8,0,1.5,0.2,2.3,0.7s1.5,1.3,2.4,2.5c0.5,0.7,0.9,1.2,1.1,1.4c0.2,0.2,0.5,0.5,0.8,0.9l0-5.6L1113.4,124.1z"/>
	<path class="st0" d="M1113.3,112.1l0,10.7c-1.1-0.1-2.1-0.5-3-1.1c-0.9-0.6-2-1.8-3.3-3.5c-0.8-1-1.4-1.7-1.8-2
		c-0.4-0.3-0.8-0.4-1.2-0.4c-0.4,0-0.7,0.1-1,0.4c-0.3,0.3-0.4,0.7-0.4,1.1c0,0.5,0.1,0.8,0.4,1.1c0.3,0.3,0.8,0.5,1.5,0.6l-0.3,3.6
		c-1-0.1-1.8-0.4-2.4-0.8c-0.6-0.4-1-0.9-1.3-1.6c-0.3-0.7-0.5-1.6-0.5-2.8c0-1.3,0.1-2.2,0.4-2.9c0.3-0.7,0.7-1.3,1.3-1.7
		c0.6-0.4,1.3-0.6,2-0.6c0.8,0,1.5,0.2,2.3,0.7s1.5,1.3,2.4,2.5c0.5,0.7,0.9,1.2,1.1,1.4c0.2,0.2,0.5,0.5,0.8,0.9l0-5.6
		L1113.3,112.1z"/>
	<path class="st0" d="M1110.9,104.5l0,6.5l-2.9,0l-7.8-6.5l0-3.1l7.9,0l0-1.6l2.8,0l0,1.6l2.4,0l0,3.1L1110.9,104.5z M1108.1,104.5
		l-4.1,0l4.1,3.4L1108.1,104.5z"/>
</g>
<g class="st1">
	<path class="st0" d="M1165.9,124.1l0,10.7c-1.1-0.1-2.1-0.5-3-1.1c-0.9-0.6-2-1.8-3.3-3.5c-0.8-1-1.4-1.7-1.8-2s-0.8-0.4-1.2-0.4
		c-0.4,0-0.7,0.1-1,0.4c-0.3,0.3-0.4,0.7-0.4,1.1c0,0.5,0.1,0.8,0.4,1.1c0.3,0.3,0.8,0.5,1.5,0.6l-0.3,3.6c-1-0.1-1.8-0.4-2.4-0.8
		c-0.6-0.4-1-0.9-1.3-1.6c-0.3-0.7-0.5-1.6-0.5-2.8c0-1.3,0.1-2.2,0.4-2.9c0.3-0.7,0.7-1.3,1.3-1.7c0.6-0.4,1.3-0.6,2-0.6
		c0.8,0,1.5,0.2,2.3,0.7s1.5,1.3,2.4,2.5c0.5,0.7,0.9,1.2,1.1,1.4c0.2,0.2,0.5,0.5,0.8,0.9l0-5.6L1165.9,124.1z"/>
	<path class="st0" d="M1165.8,112.1l0,10.7c-1.1-0.1-2.1-0.5-3-1.1c-0.9-0.6-2-1.8-3.3-3.5c-0.8-1-1.4-1.7-1.8-2
		c-0.4-0.3-0.8-0.4-1.2-0.4c-0.4,0-0.7,0.1-1,0.4c-0.3,0.3-0.4,0.7-0.4,1.1c0,0.5,0.1,0.8,0.4,1.1c0.3,0.3,0.8,0.5,1.5,0.6l-0.3,3.6
		c-1-0.1-1.8-0.4-2.4-0.8c-0.6-0.4-1-0.9-1.3-1.6c-0.3-0.7-0.5-1.6-0.5-2.8c0-1.3,0.1-2.2,0.4-2.9c0.3-0.7,0.7-1.3,1.3-1.7
		c0.6-0.4,1.3-0.6,2-0.6c0.8,0,1.5,0.2,2.3,0.7s1.5,1.3,2.4,2.5c0.5,0.7,0.9,1.2,1.1,1.4c0.2,0.2,0.5,0.5,0.8,0.9l0-5.6
		L1165.8,112.1z"/>
	<path class="st0" d="M1156.6,107.2l-0.6,3.4c-1.1-0.3-1.9-0.8-2.5-1.6c-0.6-0.8-0.9-1.9-0.9-3.4c0-1.7,0.3-2.9,0.9-3.7
		s1.4-1.1,2.4-1.1c0.6,0,1.1,0.1,1.5,0.5c0.5,0.3,0.8,0.8,1.2,1.4c0.1-0.5,0.3-0.9,0.4-1.1c0.3-0.4,0.6-0.8,1-1
		c0.4-0.2,0.9-0.4,1.5-0.4c0.8,0,1.5,0.2,2.2,0.6c0.7,0.4,1.2,1,1.6,1.7c0.4,0.7,0.6,1.7,0.6,2.9c0,1.2-0.1,2.1-0.4,2.8
		s-0.7,1.2-1.2,1.7c-0.5,0.4-1.2,0.8-2,1l-0.5-3.6c0.7-0.1,1.2-0.4,1.5-0.7c0.3-0.3,0.4-0.7,0.4-1.1c0-0.5-0.2-0.9-0.5-1.2
		c-0.4-0.3-0.8-0.5-1.4-0.5c-0.6,0-1.1,0.2-1.4,0.5c-0.3,0.3-0.5,0.7-0.5,1.3c0,0.3,0.1,0.7,0.2,1.2l-2.6-0.2c0-0.2,0-0.4,0-0.5
		c0-0.5-0.2-0.9-0.5-1.2c-0.3-0.3-0.7-0.5-1.1-0.5c-0.4,0-0.7,0.1-0.9,0.4s-0.3,0.6-0.3,1c0,0.4,0.1,0.8,0.4,1
		C1155.5,106.9,1156,107.1,1156.6,107.2z"/>
</g>
<g class="st1">
	<path class="st0" d="M1719.8,129.9l0,10.7c-1.1-0.1-2.1-0.5-3-1.1c-0.9-0.6-2-1.8-3.3-3.5c-0.8-1-1.4-1.7-1.8-2s-0.8-0.4-1.2-0.4
		c-0.4,0-0.7,0.1-1,0.4c-0.3,0.3-0.4,0.7-0.4,1.1c0,0.5,0.1,0.8,0.4,1.1c0.3,0.3,0.8,0.5,1.5,0.6l-0.3,3.6c-1-0.1-1.8-0.4-2.4-0.8
		c-0.6-0.4-1-0.9-1.3-1.6c-0.3-0.7-0.5-1.6-0.5-2.8c0-1.3,0.1-2.2,0.4-2.9c0.3-0.7,0.7-1.3,1.3-1.7c0.6-0.4,1.3-0.6,2-0.6
		c0.8,0,1.5,0.2,2.3,0.7s1.5,1.3,2.4,2.5c0.5,0.7,0.9,1.2,1.1,1.4c0.2,0.2,0.5,0.5,0.8,0.9l0-5.6L1719.8,129.9z"/>
	<path class="st0" d="M1706.6,120.3l13.1-0.1l0,3.6l-8.6,0c0.4,0.6,0.8,1.1,1.1,1.7c0.3,0.5,0.5,1.2,0.8,2.1l-2.9,0
		c-0.4-1.2-0.9-2.2-1.4-2.8c-0.6-0.7-1.2-1.2-2-1.6L1706.6,120.3z"/>
	<path class="st0" d="M1709.7,106l0.5,3.6c-0.5,0.1-0.8,0.3-1.1,0.5c-0.2,0.2-0.3,0.5-0.3,0.8c0,0.6,0.3,1,0.9,1.4
		c0.4,0.2,1.3,0.4,2.7,0.5c-0.4-0.4-0.8-0.9-1-1.3c-0.2-0.5-0.3-1-0.3-1.6c0-1.1,0.4-2.1,1.2-2.9c0.8-0.8,1.9-1.2,3.1-1.2
		c0.8,0,1.6,0.2,2.3,0.6s1.2,1,1.6,1.7c0.4,0.7,0.5,1.6,0.6,2.7c0,1.3-0.2,2.3-0.6,3.1s-1.1,1.4-2.1,1.9c-1,0.5-2.2,0.7-3.8,0.7
		c-2.3,0-4-0.5-5.1-1.4c-1.1-1-1.6-2.3-1.6-4.1c0-1,0.1-1.8,0.3-2.4c0.2-0.6,0.6-1.1,1-1.5C1708.4,106.5,1709,106.2,1709.7,106z
		 M1715.5,112.6c0.7,0,1.2-0.2,1.6-0.5c0.4-0.4,0.6-0.8,0.6-1.3c0-0.5-0.2-0.9-0.5-1.2s-0.9-0.5-1.6-0.5c-0.7,0-1.3,0.2-1.7,0.5
		c-0.4,0.3-0.6,0.7-0.6,1.2c0,0.5,0.2,0.9,0.6,1.3C1714.2,112.4,1714.8,112.6,1715.5,112.6z"/>
	<path class="st0" d="M1713.3,100.7l-0.3,3.4c-0.6-0.1-1.1-0.3-1.4-0.6c-0.3-0.2-0.6-0.6-0.9-1c-0.2-0.3-0.3-0.8-0.4-1.4
		s-0.2-1.2-0.2-1.9c0-1.1,0.1-1.9,0.2-2.6c0.1-0.7,0.4-1.2,0.7-1.6c0.3-0.3,0.6-0.5,1.1-0.7c0.5-0.2,0.9-0.3,1.4-0.3l4.1,0
		c0.4,0,0.8,0,1-0.1s0.6-0.2,1-0.4l0,3.4c-0.2,0.1-0.4,0.2-0.5,0.3s-0.3,0.1-0.6,0.1c0.5,0.5,0.8,0.9,1,1.4c0.3,0.6,0.4,1.4,0.4,2.2
		c0,1.1-0.2,2-0.8,2.5c-0.5,0.6-1.1,0.9-1.9,0.9c-0.7,0-1.3-0.2-1.8-0.6c-0.5-0.4-0.8-1.2-1-2.3c-0.3-1.3-0.5-2.2-0.6-2.6
		c-0.1-0.4-0.3-0.8-0.4-1.3c-0.4,0-0.7,0.1-0.9,0.3c-0.2,0.2-0.3,0.5-0.3,1c0,0.6,0.1,1,0.3,1.3
		C1712.7,100.4,1712.9,100.6,1713.3,100.7z M1715.2,97.6c0.2,0.5,0.3,1,0.5,1.5c0.2,0.7,0.4,1.2,0.6,1.4c0.2,0.2,0.4,0.3,0.7,0.3
		c0.3,0,0.5-0.1,0.7-0.3c0.2-0.2,0.3-0.5,0.3-0.9c0-0.4-0.1-0.8-0.3-1.1c-0.2-0.3-0.4-0.6-0.7-0.7c-0.3-0.1-0.6-0.2-1.1-0.2
		L1715.2,97.6z"/>
</g>
<g class="st1">
	<path class="st0" d="M303.3,480.7l-10.7,0c0.1-1.1,0.5-2.1,1.1-3c0.6-0.9,1.8-2,3.5-3.3c1-0.8,1.7-1.4,2-1.8
		c0.3-0.4,0.4-0.8,0.4-1.2c0-0.4-0.1-0.7-0.4-1s-0.7-0.4-1.1-0.4c-0.5,0-0.8,0.1-1.1,0.4c-0.3,0.3-0.5,0.8-0.6,1.5l-3.6-0.3
		c0.1-1,0.4-1.8,0.8-2.4c0.4-0.6,0.9-1,1.6-1.3c0.7-0.3,1.6-0.5,2.8-0.5c1.3,0,2.2,0.1,2.9,0.4c0.7,0.3,1.3,0.7,1.7,1.3
		c0.4,0.6,0.6,1.3,0.6,2c0,0.8-0.2,1.5-0.7,2.3c-0.5,0.7-1.3,1.5-2.5,2.4c-0.7,0.5-1.2,0.9-1.4,1.1c-0.2,0.2-0.5,0.5-0.9,0.8l5.6,0
		L303.3,480.7z"/>
	<path class="st0" d="M304.8,474.2c0-2.4,0.4-4.2,1.3-5.1c0.9-1,2.2-1.5,4-1.5c0.9,0,1.6,0.1,2.1,0.3c0.6,0.2,1,0.5,1.4,0.8
		c0.4,0.3,0.6,0.7,0.8,1.1c0.2,0.4,0.4,0.8,0.5,1.3c0.2,1,0.4,2,0.4,3c0,2.3-0.4,4.1-1.2,5.1s-2.1,1.6-4.1,1.6c-1.1,0-2-0.2-2.6-0.5
		c-0.7-0.3-1.2-0.8-1.6-1.5c-0.3-0.5-0.6-1.1-0.7-1.9C304.9,476.1,304.8,475.2,304.8,474.2z M308.4,474.2c0,1.6,0.2,2.8,0.4,3.4
		c0.3,0.6,0.7,0.9,1.3,0.9c0.4,0,0.7-0.1,0.9-0.4c0.3-0.3,0.5-0.7,0.6-1.2c0.1-0.6,0.2-1.4,0.2-2.6c0-1.7-0.2-2.9-0.4-3.4
		c-0.3-0.6-0.7-0.9-1.3-0.9c-0.6,0-1,0.3-1.3,0.9C308.5,471.5,308.4,472.6,308.4,474.2z"/>
	<path class="st0" d="M324.9,467.5l0.1,13.1l-3.6,0l0-8.6c-0.6,0.4-1.1,0.8-1.7,1.1c-0.5,0.3-1.2,0.5-2.1,0.8l0-2.9
		c1.2-0.4,2.2-0.9,2.8-1.4c0.7-0.6,1.2-1.2,1.6-2L324.9,467.5z"/>
</g>
<path class="st0" d="M248.8,327.1c-2.6,2.7-4.4,5.3-4.1,6.1c0.9,2,9.4,9.5,10.4,9c1.6-0.8,1.3-3.8-0.7-5.3c-1.1-0.8-1.7-1.7-1.5-2
	c0.2-0.2,7-0.5,15.1-0.6c21-0.5,23.9-1,21.5-4c-0.8-1-21.8-1-34.6-0.2l-2.9,0.3l2-2.4c1.9-2.4,2-5.2,0.3-5.4
	C253.8,322.5,251.3,324.5,248.8,327.1z"/>
<path class="st0" d="M287.7,357.6c2.7-2.7,4.4-5.3,4.1-6c-0.8-2-9.3-9.6-10.3-9.1c-1.6,0.8-1.3,3.8,0.6,5.3c1.1,0.9,1.7,1.7,1.5,2
	c-0.2,0.2-7,0.4-15.1,0.4c-21,0.3-23.9,0.8-21.6,3.8c0.8,1,21.8,1.2,34.6,0.5l2.9-0.2l-2,2.4c-1.9,2.4-2.1,5.2-0.3,5.4
	C282.6,362.1,285.1,360.2,287.7,357.6z"/>
<g class="st1">
	<path class="st0" d="M5.8,588.7l9.9-0.1c1.7,0,2.9,0.4,3.8,1.2c0.9,0.8,1.3,1.8,1.4,3c0,1-0.3,1.9-0.9,2.6c-0.4,0.5-1,0.9-1.8,1.2
		c1.2,0.3,2.1,0.8,2.7,1.5c0.6,0.7,0.9,1.6,0.9,2.7c0,0.9-0.2,1.7-0.6,2.4c-0.4,0.7-1,1.3-1.7,1.7c-0.4,0.3-1.1,0.5-2,0.6
		c-1.2,0.2-2,0.3-2.4,0.3L6,605.9L5.8,588.7z M11.3,595.4l2.3,0c0.8,0,1.4-0.2,1.7-0.4s0.5-0.7,0.5-1.2c0-0.5-0.2-0.9-0.5-1.2
		c-0.3-0.3-0.9-0.4-1.7-0.4l-2.3,0L11.3,595.4z M11.3,602.2l2.7,0c0.9,0,1.6-0.2,1.9-0.5c0.4-0.3,0.6-0.8,0.6-1.3
		c0-0.5-0.2-0.9-0.6-1.2c-0.4-0.3-1-0.5-2-0.4l-2.7,0L11.3,602.2z"/>
	<path class="st0" d="M23.2,593.3l5.7-0.1l2,3.5l2.3-3.5l5.3,0l-4.2,6l4.6,6.5l-5.6,0.1l-2.3-4l-2.7,4l-5.2,0l4.5-6.6L23.2,593.3z"
		/>
	<path class="st0" d="M39.7,599.4c0-1.9,0.6-3.5,1.9-4.7c1.3-1.2,3-1.9,5.2-1.9c2.5,0,4.4,0.7,5.7,2.1c1,1.2,1.6,2.6,1.6,4.3
		c0,1.9-0.6,3.5-1.9,4.7c-1.3,1.2-3,1.9-5.3,1.9c-2,0-3.6-0.5-4.9-1.5C40.5,603.1,39.7,601.4,39.7,599.4z M44.5,599.3
		c0,1.1,0.2,1.9,0.7,2.5c0.5,0.5,1,0.8,1.7,0.8c0.7,0,1.2-0.3,1.7-0.8c0.4-0.5,0.6-1.4,0.6-2.5c0-1.1-0.2-1.9-0.7-2.4
		c-0.5-0.5-1-0.8-1.7-0.8c-0.7,0-1.3,0.3-1.7,0.8C44.7,597.4,44.5,598.3,44.5,599.3z"/>
	<path class="st0" d="M70.5,608.9l-3.3,0l0-3.6l-8.8,0.1l0,3.6l-3.3,0l-0.1-7l1.2,0c0.9-1.6,1.3-3.6,1.3-6.2l0-2.8l11.6-0.1l0.1,9
		l1.3,0L70.5,608.9z M64.4,601.9l0-5.5l-2.3,0l0,0.1c0,1.7-0.3,3.5-1.1,5.4L64.4,601.9z"/>
	<path class="st0" d="M89.5,600.3l4.5,0.5c-0.2,0.9-0.6,1.8-1.2,2.5s-1.3,1.2-2.2,1.6s-2,0.6-3.4,0.6c-1.3,0-2.4-0.1-3.3-0.3
		c-0.9-0.2-1.6-0.6-2.3-1.2c-0.6-0.5-1.1-1.2-1.5-1.9c-0.4-0.7-0.6-1.7-0.6-2.9c0-1.3,0.2-2.3,0.6-3.2c0.3-0.6,0.7-1.2,1.3-1.7
		c0.5-0.5,1.1-0.9,1.7-1.1c0.9-0.4,2.1-0.6,3.6-0.6c2,0,3.6,0.3,4.7,1c1.1,0.7,1.8,1.8,2.3,3.2l-4.5,0.6c-0.1-0.5-0.4-0.9-0.8-1.2
		c-0.4-0.3-0.9-0.4-1.5-0.4c-0.8,0-1.4,0.3-1.9,0.9c-0.5,0.6-0.7,1.4-0.7,2.6c0,1,0.3,1.8,0.7,2.3c0.5,0.5,1.1,0.8,1.9,0.8
		c0.6,0,1.1-0.2,1.6-0.5C89,601.4,89.3,600.9,89.5,600.3z"/>
	<path class="st0" d="M102.8,592.6l5,0l2.6,8.3l2.3-8.3l4.7,0l-4.8,13.3c-0.5,1.5-1.1,2.6-1.7,3.1c-0.8,0.8-2.1,1.1-3.8,1.2
		c-0.7,0-1.8-0.1-3.2-0.3l-0.4-3.3c0.7,0.2,1.5,0.3,2.3,0.3c0.6,0,1-0.1,1.4-0.4c0.3-0.3,0.6-0.7,0.9-1.4L102.8,592.6z"/>
	<path class="st0" d="M133.2,604.7l-4.8,0l-0.1-9l-3.6,0l0,5.2c0,1.4-0.3,2.4-0.8,3.1c-0.6,0.7-1.4,1-2.6,1c-1.3,0-2.5-0.1-3.6-0.3
		l0-3.5c0.6,0.2,1,0.2,1.3,0.2c0.6,0,1-0.5,0.9-1.4l-0.1-7.7l13.2-0.1L133.2,604.7z"/>
	<path class="st0" d="M150,604.6l-4.5,0l-0.1-6.1l-4.6,6.2l-4.5,0l-0.1-12.4l4.5,0l0.1,6.2l4.7-6.2l4.5,0L150,604.6z"/>
	<path class="st0" d="M168,608l-3.3,0l0-3.6l-11.7,0.1l-0.1-12.4l4.8,0l0.1,9l3.6,0l-0.1-9l4.8,0l0.1,9l1.8,0L168,608z"/>
	<path class="st0" d="M174.5,596.4l2.2,0c3.7,0,5.5,1.3,5.6,4c0,2.7-1.8,4-5.3,4l-7.1,0.1l-0.1-12.4l4.8,0L174.5,596.4z
		 M174.5,601.4l1.6,0c0.4,0,0.7-0.1,1-0.3c0.2-0.2,0.4-0.4,0.4-0.8c0-0.8-0.5-1.1-1.3-1.1l-1.6,0L174.5,601.4z M183.5,591.9l4.8,0
		l0.1,12.4l-4.8,0L183.5,591.9z"/>
	<path class="st0" d="M215.5,604l-5.3,0l-0.1-13l-4.1,0l0,5.3c0,2.2-0.1,3.8-0.3,4.8c-0.2,1-0.8,1.8-1.6,2.3
		c-0.8,0.5-2.2,0.7-4.1,0.8c-0.6,0-1.2-0.1-2-0.2l0-3.5l0.8,0c0.7,0,1.2-0.2,1.5-0.5c0.3-0.3,0.4-0.9,0.4-1.7l-0.1-11.4l14.8-0.1
		L215.5,604z"/>
	<path class="st0" d="M218.1,597.8c0-1.9,0.6-3.5,1.9-4.7c1.3-1.2,3-1.9,5.2-1.9c2.5,0,4.4,0.7,5.7,2.1c1,1.2,1.6,2.6,1.6,4.3
		c0,1.9-0.6,3.5-1.9,4.7c-1.3,1.2-3,1.9-5.3,1.9c-2,0-3.6-0.5-4.9-1.5C218.9,601.5,218.1,599.8,218.1,597.8z M222.9,597.7
		c0,1.1,0.2,1.9,0.7,2.5c0.5,0.5,1,0.8,1.7,0.8c0.7,0,1.2-0.3,1.7-0.8c0.4-0.5,0.6-1.4,0.6-2.5c0-1.1-0.2-1.9-0.7-2.4
		c-0.5-0.5-1-0.8-1.7-0.8c-0.7,0-1.3,0.3-1.7,0.8C223.1,595.8,222.8,596.6,222.9,597.7z"/>
	<path class="st0" d="M238.8,591.7c0.6-0.4,1.3-0.7,2.3-0.7c2.3,0,4.1,0.6,5.4,1.8c1.2,1.2,1.9,2.8,1.9,4.6c0,1.8-0.6,3.4-1.8,4.7
		c-1.2,1.3-3,1.9-5.3,2c-2.3,0-4.1-0.6-5.3-1.9c-1.2-1.3-1.8-3.4-1.8-6.3c0-2.7,0.5-4.9,1.5-6.5c1-1.7,2.5-2.5,4.4-2.6l1.4-0.1
		c1.3-0.1,2-0.2,2.1-0.5l3.8,0c0,2.3-1.2,3.5-3.8,3.6c-1.7,0.1-2.9,0.3-3.5,0.5C239.4,590.6,239,591,238.8,591.7z M241.2,600.8
		c0.8,0,1.4-0.3,1.8-0.9c0.4-0.6,0.6-1.4,0.6-2.4c0-1-0.2-1.8-0.7-2.4s-1-0.8-1.7-0.8c-0.8,0-1.4,0.3-1.8,0.9s-0.6,1.4-0.6,2.4
		c0,1,0.2,1.8,0.6,2.4C239.9,600.5,240.5,600.8,241.2,600.8z"/>
	<path class="st0" d="M255,595.2l-4.6-0.4c0.2-0.8,0.4-1.4,0.7-1.9c0.3-0.5,0.8-0.9,1.4-1.2c0.4-0.2,1-0.4,1.8-0.6
		c0.8-0.1,1.6-0.2,2.5-0.2c1.4,0,2.6,0.1,3.4,0.2c0.9,0.2,1.6,0.5,2.2,1c0.4,0.3,0.7,0.8,1,1.5c0.2,0.6,0.4,1.3,0.4,1.8l0,5.5
		c0,0.6,0,1,0.1,1.4s0.2,0.8,0.5,1.3l-4.5,0c-0.2-0.3-0.3-0.6-0.4-0.7c-0.1-0.2-0.1-0.4-0.2-0.8c-0.6,0.6-1.2,1-1.9,1.3
		c-0.8,0.4-1.8,0.5-2.9,0.5c-1.5,0-2.6-0.3-3.4-1c-0.8-0.7-1.2-1.5-1.2-2.5c0-0.9,0.3-1.7,0.8-2.3c0.5-0.6,1.6-1.1,3.1-1.4
		c1.8-0.4,2.9-0.6,3.5-0.8s1.1-0.3,1.7-0.6c0-0.6-0.1-1-0.4-1.2c-0.2-0.2-0.7-0.3-1.3-0.3c-0.8,0-1.4,0.1-1.8,0.4
		C255.4,594.3,255.2,594.7,255,595.2z M259.2,597.7c-0.7,0.2-1.3,0.5-2,0.6c-1,0.3-1.6,0.5-1.8,0.8c-0.3,0.3-0.4,0.6-0.4,0.9
		c0,0.4,0.1,0.7,0.4,0.9c0.3,0.2,0.6,0.4,1.2,0.3c0.5,0,1-0.1,1.5-0.4c0.5-0.3,0.8-0.6,1-1s0.3-0.9,0.3-1.5L259.2,597.7z"/>
	<path class="st0" d="M279.8,603.4l-4.8,0l0-4.6c-1.2,0.7-2.5,1.1-3.9,1.1c-3,0-4.5-1.6-4.5-4.7l0-4.2l4.8,0l0,3.4
		c0,0.6,0.1,1,0.4,1.3c0.3,0.3,0.6,0.5,1.1,0.5c0.9,0,1.6-0.4,2.1-1.1l0-4.1l4.8,0L279.8,603.4z"/>
	<path class="st0" d="M296.4,598.2l-9.6,0.1c0.1,0.8,0.3,1.3,0.6,1.7c0.5,0.5,1.1,0.8,1.8,0.8c0.5,0,0.9-0.1,1.3-0.4
		c0.3-0.2,0.5-0.4,0.8-0.8l4.7,0.4c-0.7,1.3-1.6,2.2-2.6,2.7c-1,0.6-2.5,0.8-4.4,0.9c-1.6,0-2.9-0.2-3.9-0.7
		c-0.9-0.5-1.7-1.2-2.4-2.2c-0.6-1-1-2.2-1-3.6c0-1.9,0.6-3.5,1.8-4.7s3-1.8,5.1-1.9c1.8,0,3.2,0.2,4.2,0.8c1,0.5,1.8,1.3,2.4,2.3
		s0.8,2.3,0.8,4L296.4,598.2z M291.5,596c-0.1-0.9-0.4-1.6-0.8-2c-0.4-0.4-0.9-0.6-1.6-0.6c-0.8,0-1.4,0.3-1.8,0.9
		c-0.3,0.4-0.5,0.9-0.5,1.7L291.5,596z"/>
	<path class="st0" d="M308,596.6c0.9,0.1,1.7,0.4,2.3,0.9c0.6,0.5,0.8,1.2,0.9,2.1c0,1.2-0.4,2.1-1.1,2.7s-2.2,0.9-4.2,0.9l-7.1,0.1
		l-0.1-12.4l7.7-0.1c1.4,0,2.5,0.2,3.2,0.8c0.7,0.5,1.1,1.3,1.1,2.2c0,0.7-0.2,1.3-0.7,1.8C309.3,596,308.7,596.3,308,596.6
		L308,596.6z M303.3,595.5l1.2,0c0.8,0,1.2-0.4,1.2-1.1c0-0.6-0.4-0.9-1.3-0.9l-1.1,0L303.3,595.5z M303.4,600.3l1.6,0
		c0.4,0,0.7-0.1,0.9-0.3c0.2-0.2,0.4-0.4,0.4-0.8c0-0.8-0.4-1.1-1.3-1.1l-1.6,0L303.4,600.3z"/>
	<path class="st0" d="M322.6,598.2l4.5,0.5c-0.2,0.9-0.6,1.8-1.2,2.5c-0.6,0.7-1.3,1.2-2.2,1.6s-2,0.6-3.4,0.6
		c-1.3,0-2.4-0.1-3.3-0.3c-0.9-0.2-1.6-0.6-2.3-1.2c-0.6-0.5-1.1-1.2-1.5-1.9c-0.4-0.7-0.6-1.7-0.6-2.9c0-1.3,0.2-2.3,0.6-3.2
		c0.3-0.6,0.7-1.2,1.3-1.7c0.5-0.5,1.1-0.9,1.7-1.1c0.9-0.4,2.1-0.6,3.6-0.6c2,0,3.6,0.3,4.7,1c1.1,0.7,1.8,1.8,2.3,3.2l-4.5,0.6
		c-0.1-0.5-0.4-0.9-0.8-1.2s-0.9-0.4-1.5-0.4c-0.8,0-1.4,0.3-1.9,0.9c-0.5,0.6-0.7,1.4-0.7,2.6c0,1,0.3,1.8,0.7,2.3
		c0.5,0.5,1.1,0.8,1.9,0.8c0.6,0,1.1-0.2,1.6-0.5S322.4,598.8,322.6,598.2z"/>
	<path class="st0" d="M343.3,602.9l-5.4,0l-1.8-3.4c-0.3-0.5-0.6-0.9-0.9-1c-0.3-0.1-0.6-0.2-1-0.2l0,4.7l-4.8,0l-0.1-12.4l4.8,0
		l0,4.5c0.4,0,0.7-0.2,0.9-0.4s0.5-0.7,0.8-1.4c0.3-0.7,0.7-1.3,0.9-1.6c0.3-0.3,0.6-0.6,1.1-0.8c0.4-0.2,1-0.3,1.6-0.3
		s1.6-0.1,2.9-0.1l0,3.4l-0.2,0c-0.6,0-1.1,0-1.5,0.1s-0.6,0.2-0.8,0.3c-0.2,0.2-0.4,0.5-0.7,1c-0.3,0.5-0.5,0.9-0.7,1.1
		c-0.2,0.2-0.4,0.3-0.8,0.4c0.7,0.1,1.2,0.2,1.5,0.4s0.9,0.9,1.6,2.1L343.3,602.9z"/>
	<path class="st0" d="M344.2,596.7c0-1.9,0.6-3.5,1.9-4.7c1.3-1.2,3-1.9,5.2-1.9c2.5,0,4.4,0.7,5.7,2.1c1,1.2,1.6,2.6,1.6,4.3
		c0,1.9-0.6,3.5-1.9,4.7c-1.3,1.2-3,1.9-5.3,1.9c-2,0-3.6-0.5-4.9-1.5C345,600.3,344.2,598.7,344.2,596.7z M349,596.6
		c0,1.1,0.2,1.9,0.7,2.5c0.5,0.5,1,0.8,1.7,0.8c0.7,0,1.2-0.3,1.7-0.8c0.4-0.5,0.6-1.4,0.6-2.5c0-1.1-0.2-1.9-0.7-2.4
		c-0.5-0.5-1-0.8-1.7-0.8c-0.7,0-1.3,0.3-1.7,0.8C349.2,594.7,348.9,595.5,349,596.6z"/>
	<path class="st0" d="M371,593.6l-5.3,0l0.1,9l-4.8,0l-0.1-12.4l10.1-0.1L371,593.6z"/>
	<path class="st0" d="M372.4,596.4c0-1.9,0.6-3.5,1.9-4.7c1.3-1.2,3-1.9,5.2-1.9c2.5,0,4.4,0.7,5.7,2.1c1,1.2,1.6,2.6,1.6,4.3
		c0,1.9-0.6,3.5-1.9,4.7c-1.3,1.2-3,1.9-5.3,1.9c-2,0-3.6-0.5-4.9-1.5C373.2,600.1,372.4,598.4,372.4,596.4z M377.1,596.4
		c0,1.1,0.2,1.9,0.7,2.5s1,0.8,1.7,0.8c0.7,0,1.2-0.3,1.7-0.8c0.4-0.5,0.6-1.4,0.6-2.5c0-1.1-0.2-1.9-0.7-2.4
		c-0.5-0.5-1-0.8-1.7-0.8c-0.7,0-1.3,0.3-1.7,0.8C377.4,594.4,377.1,595.3,377.1,596.4z"/>
</g>
	<!-- LINES -->
</svg>
