<svg xmlns="http://www.w3.org/2000/svg" viewBox="0 0 2029 637" style="enable-background:new 0 0 2029 637" xml:space="preserve">
  <!-- STYLES -->
	<path class="st0" d="M2013.3 245.51c-.6-3.09-1.5-9.16-2.2-13.39-1.7-11.22-7.2-32.74-11.9-46.65-12-35.63-31.7-68.37-56.5-93.91-11.1-11.43-29.5-26.67-39-32.44-2.2-1.24-5.6-3.29-7.5-4.43-19.2-11.64-47.7-21.93-69.5-25.33-4.4-.72-10.7-1.65-14.1-2.27-3.3-.51-13-.93-21.5-.93-37.4 0-77.9 9.99-107.9 26.77-5.7 3.19-6.5 4.02-7.3 7.72-.5 2.37-.6 25.74-.3 53.75.4 33.88.3 49.84-.4 50.25-.6.31-9.2.82-19.3.93-10 .21-20 .82-22.2 1.44-7.8 2.27-17 4.53-20.2 5.05l-3.3.51-.2-59.52-.3-59.62-260.7-.31-260.7-.21-1-3.91c-.6-2.06-1.1-4.53-1.1-5.46 0-2.57-4.1-12.25-7.7-18.02-4.1-6.69-13.2-15.24-20.3-18.95-7.8-4.02-21.9-7.31-28-6.49-6.9.93-17.1 3.91-22.1 6.59-6.3 3.19-17.2 13.59-21 19.98-3 4.94-6.9 14.52-6.9 16.89 0 .93-.5 3.4-1.1 5.46l-1 3.91H497.7c-264.2 0-481 .31-481.9.62-1.3.51-1.5 4.74-1 35.22.2 19.15.6 42.53.9 52.21.3 9.58.5 79.08.5 154.46V432.4l13.7 10.3c7.5 5.66 21.7 16.48 31.7 23.99s20.1 15.24 22.6 17.09c2.5 1.85 9.2 7 14.9 11.33l10.4 7.83 4.1-2.37c9-5.35 11.6-6.9 18.1-10.91 3.7-2.37 7-4.22 7.3-4.22s1.3-.62 2.1-1.44c.9-.72 3.6-2.57 6.1-3.91 2.5-1.44 6.2-3.6 8.3-4.84 4.7-2.68 5.9-2.68 10.2.1 4.5 2.99 4.8 4.22 2.6 8.34-8.1 14.93-8.9 35.53-1.7 46.54 5.4 8.24 13.8 14.62 22.8 17.2 2.4.62 9.5 1.34 15.8 1.54 15.9.62 24.6-1.44 40.5-9.58 11.5-5.87 19.6-12.56 29.3-24.1 4.2-5.05 8.2-9.27 8.8-9.27 1.2 0 7.7 9.68 37 54.57l15.1 23.17 642.2.31c513.2.21 642.2 0 642.6-1.03.6-2.16 1.5-58.38 1.5-99.06v-38l3.8.72c2 .31 7.8 1.24 12.7 2.06 15.7 2.68 35 1.75 52.5-2.57 11.3-2.78 10.3-3.19 13.9 6.49 1.8 4.63 4.1 10.81 5.1 13.7 1 2.78 3 8.34 4.5 12.36 1.5 3.91 4.4 12.05 6.5 18.02s5.2 14.52 6.8 19.05c3.5 9.58 8.8 24.2 10.6 29.35 1.9 5.46 15.4 42.73 18.7 51.79 1.6 4.32 4.3 11.74 6 16.48 1.7 4.63 3.9 10.71 5 13.49 1 2.78 1.9 5.56 1.9 6.38 0 .72.7 1.96 1.5 2.78 1.2 1.34 2.3 1.24 8.2-.41 55.1-15.34 113.3-58.59 155.1-115.12 6.1-8.44 25.2-36.76 25.2-37.58 0-.21 3.1-5.77 6.8-12.56 3.7-6.69 8-14.83 9.4-17.92 6.3-13.59 11.6-25.64 13.5-30.89 1.2-3.09 3.3-8.96 4.8-12.87 7.1-18.74 16-55.09 18.5-75.17.7-5.15 1.6-11.94 2.1-15.14 2.1-13.29 1-54.79-2-72.91zm-260.4-124.49c.1-44.38.4-80.94.7-81.14.7-.82 13.4-2.47 25.1-3.4 13.8-1.03 36.2-.31 48 1.65 8.2 1.34 13.6 2.57 25 5.77 12.7 3.6 36.3 14.93 48.6 23.48 14.8 10.3 30.7 25.02 42.8 39.64 6.9 8.34 27.1 36.45 27.1 37.79 0 .31 2.9 5.87 6.5 12.25 3.6 6.49 6.5 12.05 6.5 12.36 0 .72-8.5 4.32-29.2 12.15-7.6 2.88-20 7.62-27.5 10.5-7.6 2.88-17.4 6.59-21.8 8.34-4.4 1.65-10.2 3.91-13 4.94-2.7 1.03-8.6 3.3-13 4.94-4.4 1.75-14.1 5.46-21.5 8.24-7.4 2.88-19.8 7.62-27.5 10.61-14.7 5.56-26 9.89-36 13.49-3.3 1.24-6.5 2.57-7.2 3.09-1.3 1.03-1.2 1.03-8.2-11.22-4.8-8.65-14.4-21.52-21-28.11l-4.6-4.63.2-80.74zM1684 63.66c1.1-1.54 11.9-8.03 18.7-11.22 12.7-5.77 31-10.81 38.5-10.4l2.5.1.3 75.38c.2 85.57 1.1 78.26-8.6 71.57-13.6-9.37-28.8-16.37-42.7-19.56-3.8-.82-7.6-2.06-8.2-2.57-1-.72-1.3-12.25-1.3-51.59 0-27.82.4-51.09.8-51.71zm-142.6-2.68c.7-.41 13.8-.82 29.1-.82 26.4 0 27.8.1 29.7 2.06 1.9 1.96 2 3.4 2 54.27-.1 42.12-.3 52.62-1.4 54.16-1.2 1.65-3.6 1.75-30.7 1.54l-29.4-.31-.3-54.99c-.2-43.34 0-55.19 1-55.91zm-69.4.31c1-.62 12.4-1.13 29.4-1.13 23.8 0 27.9.21 29.2 1.65 1.4 1.44 1.6 7.83 1.6 54.88 0 40.06-.3 53.55-1.2 54.47-1.7 1.75-57.9 1.75-59.6 0-.9-.93-1.2-14.52-1.2-55.09 0-50.14.1-53.85 1.8-54.78zm-70 0c2.3-1.44 55.7-1.54 58.3-.1 1.8 1.03 1.9 2.78 1.9 54.88 0 40.57-.3 54.16-1.2 55.09-1.7 1.75-57.9 1.75-59.6 0-.9-.93-1.2-14.52-1.2-55.09 0-50.14.1-53.85 1.8-54.78zm-70.2.52c1.3-1.44 5.4-1.65 29-1.65 17.1 0 28.3.41 29.5 1.03 1.8 1.03 1.9 2.78 1.9 54.88 0 40.57-.3 54.16-1.2 55.09-1.7 1.75-57.9 1.75-59.6 0-.9-.93-1.2-14.42-1.2-54.47 0-47.06.2-53.44 1.6-54.88zm-67.8-.52c1.8-1.13 52-1.54 56-.51l2.2.62-.2 55.3-.3 55.19-28.4.31c-20.1.21-28.8-.1-29.7-.93-1.2-.93-1.4-10.71-1.4-55.09 0-50.25.1-53.96 1.8-54.89zm-70 0c2.3-1.44 55.7-1.54 58.3-.1 1.8 1.03 1.9 2.78 1.9 54.88 0 40.57-.3 54.16-1.2 55.09-1.7 1.75-57.9 1.75-59.6 0-.9-.93-1.2-14.52-1.2-55.09 0-50.14.1-53.85 1.8-54.78zm-57.2.52c1.3-1.44 4.8-1.65 22.8-1.65 15.4 0 21.7.31 22.9 1.24 1.6 1.24 1.7 5.56 1.5 55.91l-.3 54.57-22.9.31c-16 .21-23.3-.1-24.2-.93-1.2-.93-1.4-10.5-1.4-54.57 0-47.06.2-53.44 1.6-54.88zm-48.6 54.57c0-40.16.3-53.03 1.2-53.96.9-.93 6-1.24 18.8-1.03l17.5.31.3 54.06c.2 49.94.1 54.16-1.5 55.3-2.7 2.06-31.2 1.85-34.1-.31l-2.2-1.54v-52.83zM940 62.63c.4-.62 1.4-1.44 2.2-1.75 2.6-1.03 30.7-.72 33.4.31l2.6 1.03L978 117l-.3 54.88-18.4.31c-14.1.21-18.6-.1-19.3-1.03-1-1.65-1-106.98 0-108.53zm-126.2-.82c1.4-1.44 8-1.65 57.5-1.65 36.7 0 56.7.41 58 1.03 1.8 1.03 1.9 2.78 1.9 55.71v54.47l-2.6 1.03c-1.7.72-23 .93-58.6.82-48.4-.31-56-.51-56.8-1.85-.6-.93-1-23.07-1-54.78 0-46.96.2-53.34 1.6-54.78zm-74 0c1.3-1.44 5.6-1.65 31.7-1.65 17.3 0 30.8.41 31.7 1.03 1.3.82 1.5 8.13 1.5 55.5 0 29.96-.4 54.88-.8 55.4-.5.41-15 .82-32.3.82-26.9 0-31.6-.21-32.4-1.54-.6-.93-1-23.07-1-54.78 0-46.96.2-53.34 1.6-54.78zm-68.3-.93c2.3-1.03 56.2-.72 57.7.31 1.3.82 1.5 8.13 1.5 55.5 0 29.96-.4 54.88-.8 55.4-1.3 1.34-55.3 1.65-57.7.31-2-1.13-2-1.96-2-56.12 0-42.94.3-54.99 1.3-55.4zm-106.7.93c1.4-1.44 7.1-1.65 47.5-1.65 29.8 0 46.7.41 48 1.03 1.8 1.03 1.9 2.78 1.9 54.88 0 32.02-.4 54.37-1 55.3-.8 1.34-7.3 1.54-48.5 1.54s-47.7-.21-48.5-1.54c-.6-.93-1-23.07-1-54.78 0-46.96.2-53.34 1.6-54.78zm-109 0c1.4-1.44 7.2-1.65 49-1.65 46.1 0 47.5.1 49.4 2.06 1.9 1.96 2 3.4 2 54.37 0 43.56-.2 52.62-1.4 54.37-1.4 1.85-3.1 1.96-50.1 1.96-42.1 0-48.7-.21-49.5-1.54-.6-.93-1-23.07-1-54.78 0-46.97.2-53.35 1.6-54.79zm-122.3-.93c1.8-.82 41.2-.82 43.1-.1 1.4.51 1.6 6.38 1.6 54.88 0 40.88-.3 54.57-1.2 55.5-1.5 1.54-40 1.75-42.9.21-1.8-1.03-1.9-2.78-1.9-55.6 0-42.53.3-54.48 1.3-54.89zm-205.8 3.4c.8-1.54 2-3.09 2.7-3.4 1.8-.72 186.8-.82 189.4-.1 4.2 1.13 4.4 3.3 4.4 56.43 0 49.63 0 50.76-2 52.93l-2.1 2.27H130.2l-2-3.4c-1.9-3.19-2-5.25-2-52.52 0-41.4.2-49.74 1.5-52.21zM24.1 61.91c1.2-1.54 5.7-1.75 46.2-1.75 43.3 0 44.9.1 45.9 1.96 1.4 2.78 1.4 105.55 0 108.33-1 1.85-2.6 1.96-46.5 1.96H24.3l-1.1-3.91c-1.8-6.09-.9-104.43.9-106.59zM334 498.71l-.3 52.1-2.3.31c-1.3.21-3-.21-3.9-1.03-2.1-1.75-36.3-54.68-38.9-60.03-1.6-3.5-1.9-6.8-2.2-22.04-.4-20.18-.1-22.45 3.1-23.79 3.7-1.54 41.1-.82 43.1.93 1.5 1.24 1.6 5.98 1.4 53.55zm110.2 75.38c-1 1.85-2.7 1.96-50.4 1.96-44.1 0-49.5-.21-50-1.65-.3-.93-.6-30.17-.6-65.18 0-48.09.3-63.84 1.2-64.77 1.7-1.75 97.9-1.75 99.6 0 1.6 1.65 1.7 126.55.2 129.64zm99.8-63.84-.3 65.28h-89l-.3-65.28c-.2-51.59 0-65.49 1-66.21.7-.41 20.4-.82 43.8-.82s43.1.41 43.8.82c1 .72 1.2 14.62 1 66.21zm108.2 63.12-1 2.68h-47.9c-46.5 0-48.1-.1-49.1-1.96-.6-1.34-1-23.37-1-64.46 0-41.09.4-63.12 1-64.46 1-1.85 2.6-1.96 48.3-1.96 28 0 47.8.41 48.7 1.03 1.3.82 1.5 9.27 1.8 63.64.1 39.95-.1 63.74-.8 65.49zm110.6.82c-1.2 1.75-4.8 1.85-50.4 1.85-47.5 0-49.2-.1-50.2-1.96-.6-1.34-1-23.37-1-64.46 0-41.09.4-63.12 1-64.46 1-1.85 2.6-1.96 50-1.96 43.1 0 49 .21 50.4 1.65 1.4 1.44 1.6 8.65 1.6 64.56-.1 50.78-.3 63.34-1.4 64.78zm99.8.21c-.5 1.44-5.4 1.65-44.3 1.65-32.7 0-44-.31-44.9-1.24-1.7-1.75-1.7-128.61 0-130.36s86.9-1.75 88.6 0c.9.93 1.2 16.68 1.2 64.77 0 35.01-.3 64.25-.6 65.18zm107.8.41c-.7 1.03-11.2 1.24-49.3 1.03l-48.4-.31-.3-65.28c-.2-51.59 0-65.49 1-66.21 2.2-1.34 95.2-1.03 96.6.41.9.93 1.2 16.78 1.2 65.08 0 35.21-.4 64.56-.8 65.28zm85.6-64.56-.3 65.28h-75l-.3-65.28c-.2-51.59 0-65.49 1-66.21.7-.41 17.3-.82 36.8-.82 19.5 0 36.1.41 36.8.82 1 .72 1.2 14.62 1 66.21zm110.6 64.15c-.5 1.44-5.9 1.65-50.4 1.65s-49.9-.21-50.4-1.65c-.3-.93-.6-30.17-.6-65.18 0-48.09.3-63.84 1.2-64.77 1.7-1.75 97.9-1.75 99.6 0 .9.93 1.2 16.68 1.2 64.77 0 35.01-.3 64.25-.6 65.18zm102.4-.1c-1.2 1.65-4.9 1.75-46.8 1.54l-45.5-.31-.3-65.28c-.2-51.59 0-65.49 1-66.21.7-.41 21.4-.82 46-.82 43.2 0 44.8.1 45.8 1.96 1.6 3.18 1.4 126.85-.2 129.12zm81.8-.11c-1.2 1.75-4.1 1.85-35.9 1.85-33.2 0-34.7-.1-35.7-1.96-.6-1.34-1-23.48-1-64.87 0-55.71.2-62.92 1.6-64.36 1.3-1.44 6-1.65 35.4-1.65s34.1.21 35.4 1.65c1.4 1.44 1.6 8.65 1.6 64.56-.1 50.78-.3 63.34-1.4 64.78zm103.4-.1c-1 1.85-2.6 1.96-46.3 1.96-33.9 0-45.6-.31-46.5-1.24-1.7-1.75-1.7-128.61 0-130.36s90.9-1.75 92.6 0c1.6 1.65 1.7 126.55.2 129.64zm92.4.31c-.5 1.44-5.1 1.65-40.9 1.65-22.3 0-40.6-.41-40.9-.93-.3-.51-.6-29.96-.6-65.59 0-51.38.2-64.77 1.2-65.49 2.2-1.34 79.2-1.03 80.6.41.9.93 1.2 16.68 1.2 64.77 0 35.01-.3 64.25-.6 65.18zm109.8-134.28c-7.3 0-15.4-.51-18-1.13-10.1-2.27-13.9-3.3-18-4.63-2.3-.82-4.7-1.44-5.2-1.44-.6 0-1 26.26-1 71.57v71.56h-58l-.2-69.81-.3-69.71-312-.62c-171.6-.31-458.9-.82-638.5-1.03l-326.5-.41-1 69.2-3.9 4.84c-4.9 6.18-14.9 16.06-20.3 20.08-9.2 6.8-24.3 12.97-36.2 14.62-21.1 3.09-38.5-4.43-46.2-19.77-3.1-6.28-3.8-19.15-1.4-26.77 4.6-14.62 16.4-29.66 31.5-39.95 13.6-9.37 23.1-13.39 34-14.42 6.5-.62 6.5-.62 6.8-4.02.3-2.78-.1-3.6-1.7-4.02-2.1-.51-2.1-1.13-2.1-27.08 0-23.27.2-26.67 1.6-27.18.9-.31 15.7-.62 33-.62h31.5l-.3-4.43-.3-4.32-33.7.1c-18.6.1-34.9.51-36.3.82l-2.5.62v31.92c0 29.76-.1 31.92-1.7 31.92-6 .1-24.3 9.37-35.7 18.23-4.6 3.5-10.7 9.27-13.6 12.67-2.9 3.4-5.7 6.18-6.3 6.18-.7 0-3.4-1.85-6.2-4.12-2.7-2.27-5.5-4.12-6.2-4.12-.6 0-10.5 5.35-22 11.94-11.4 6.59-22.8 13.08-25.3 14.31l-4.6 2.37-10-7.31c-5.5-4.12-12.9-9.68-16.4-12.36-3.6-2.68-13.4-10.09-21.7-16.48-32.3-24.4-35.7-26.98-37-28.32-1.1-1.13-1.3-15.75-1.1-80.32l.3-78.98 186-1.03.3-3.81.3-3.91-92.8-.21-92.8-.31-.3-21.42-.2-21.32h205v8.24c0 4.53-.1 8.34-.2 8.44-.2.21-36.7.51-81.3.82l-81 .51-.3 3.3-.3 3.4 80.8.21 80.8.31.3 21.21.2 21.21-48.7.62c-26.9.41-67.1.72-89.5.72H49.2v8.55l89.8-.41 89.7-.41.3 7.21c.1 3.91.4 8.24.7 9.58l.5 2.27 36.8-.21 36.7-.31.3-3.4.3-3.29h-33c-22.3 0-33.2-.31-33.6-1.13-.4-.62-.8-22.65-.9-49.12 0-26.46-.5-48.71-.9-49.43-.6-.93-23.1-1.24-106.8-1.24H23.2V193.1c0-10.19.3-12.36 1.6-12.87.9-.31 82.5-.62 181.5-.62h179.9V60.16h30c16.5 0 30.1.1 30.2.21.2.21.5 27.18.8 60.03l.5 59.72h538l.5-66.42c.6-72.49.4-70.33 6.6-81.66 3.4-6.28 13.4-15.75 20.1-18.84 9.1-4.32 19.8-5.56 30.2-3.5 12.4 2.37 25.9 12.77 31.5 24.1 5.5 11.33 5.5 12.15 5.6 81.76v64.05l276.3-.21c232.7-.31 276.7-.51 279.2-1.75 2.2-1.03 8.1-1.44 22-1.54 16.7-.1 20.2.21 28.5 2.37 38.5 9.68 69.2 34.08 86.3 68.68 11.4 22.86 14.1 34.5 14.1 59.62 0 19.98-1.1 27.08-6.7 44.28-2.4 7.52-5.2 13.8-9 20.59-1.7 2.78-3.8 6.69-4.9 8.65-3.5 6.28-15.8 20.49-24.1 27.7-24.7 21.62-52.5 32.02-85.5 32.12zm286 55.61c-20.4 29.86-47.1 60.14-70.7 80.21-9.5 8.03-32.5 24.82-34.1 24.82-.4 0-1.5.62-2.3 1.44-2.4 2.16-25.5 14.31-33.6 17.61-9.4 3.81-20.6 7.62-22.6 7.72-1.1 0-2.5-2.47-4.3-7.52-5.6-15.03-8.8-23.99-10.6-29.04-1-2.88-2.9-8.13-4.3-11.84s-4.1-11.33-6.2-16.99c-6.4-18.02-7.2-20.39-10.3-28.83-2.6-7.11-8.6-23.68-15.2-42.22-1-2.88-3.2-8.86-4.8-13.39-7.8-21.21-13.2-36.25-13.2-36.97 0-.31 3-2.16 6.8-3.91 28.9-14.11 51.5-37.17 66.2-67.65 2.8-5.77 5.5-10.4 6-10.4.6 0 41.1 20.59 90 45.82 66 33.98 89 46.23 89 47.57 0 2.48-14.6 27.2-25.8 43.57zm62.8-166.3c-1.8 14.62-7.1 40.98-10 49.94-.4 1.44-1.8 6.08-3 10.3-3.4 12.15-13 39.95-16.8 48.81-1.2 2.57-2.7 4.74-3.4 4.74-.8 0-16.4-7.72-34.8-17.09-18.4-9.37-44.3-22.55-57.5-29.24-44.1-22.34-87-44.38-87.9-45.31-.8-.82-.5-2.68 3.1-18.53 1.8-8.34 2.1-39.03.4-47.88-2-10.5-4.2-19.36-5.7-23.07-.8-1.85-1.4-4.22-1.4-5.25 0-1.96-.1-1.85 17-8.24 6.3-2.37 13.9-5.15 16.8-6.28 2.8-1.03 7.7-2.88 10.7-4.02 3-1.13 7.9-2.99 10.8-4.02 2.8-1.13 14.2-5.35 25.2-9.37s22.4-8.24 25.3-9.37c2.8-1.03 7.7-2.88 10.7-4.02 3-1.13 8-2.99 11-4.12s8-2.99 11-4.12 7.9-2.99 10.8-4.02c4.5-1.75 41.6-15.45 45.7-16.89 2.5-.93 3.4-.21 5.2 3.5 5.6 12.15 14.2 45.41 16.7 64.77 4.2 32.13 4.2 44.7.1 78.78z"/><path class="st0" d="M1080.2 308.84v96.28h7v-10.19c0-8.34.3-10.3 1.6-10.81.9-.31 12.3-.62 25.5-.62h23.9l-.2-60.55-.3-60.44-25-.51-25-.51-.3-24.51-.2-24.4h-7v96.26zm50.6-37.9c1.9 2.57 2 101.01.1 103.59-1.1 1.65-3.3 1.75-21.7 1.54l-20.5-.31-.3-51.9c-.1-37.48.1-52.31.9-53.24.9-1.13 5.4-1.44 20.7-1.44 17.4.01 19.6.22 20.8 1.76zM744.7 222.34c-.5.21-12.5.93-26.5 1.54-56.9 2.57-102.4 6.08-151.2 11.94l-5.8.72-.2 22.24-.3 22.24h-67l-.3-17.3c-.3-19.77.5-18.64-10.3-15.14-31.1 10.19-48 35.22-41.5 61.16 4.1 15.96 17.7 28.42 34.8 31.82 4.6.93 30.8 1.24 98.8 1.24 88.4 0 107.8-.41 160-3.6 26.6-1.65 65.2-5.15 90.3-8.24 26.5-3.19 29.7-3.6 45.7-6.18 15.8-2.47 27-4.53 45.5-8.24 28.8-5.77 42.1-10.71 54.4-19.98 6.9-5.25 10.7-9.68 14-16.58 8.4-16.99-.4-35.94-21.2-45.72-13.2-6.28-25.2-8.13-69.2-10.91-10.3-.7-148.7-1.63-150-1.01zm88.9 10.5c.8 5.56.7 87.11-.2 88.45-1.1 1.65-19.2 3.81-73.2 8.65-34.6 2.99-80.2 5.25-81.8 3.91-.9-.82-1.2-11.64-1-50.15l.3-49.01 5.5-.72c16.4-2.16 73.9-4.53 118.6-4.74l31.1-.21.7 3.82zm48.9-1.85c.4.41.6 19.67.5 42.94l-.3 42.12-4.5.62c-2.5.31-8.5 1.24-13.5 1.96-17 2.37-21.5 2.78-22.3 1.65-.4-.62-.6-21.42-.4-46.34l.3-45.1 19.7.72c10.8.4 20 1.02 20.5 1.43zm33.7.62c18.7 1.13 37 5.15 46 10.09 10.6 5.87 18 15.65 18 23.89v3.6h-89v-18.84c0-10.4.3-19.26.8-19.67.4-.51 3.9-.51 7.7-.21 3.9.31 11.3.83 16.5 1.14zm-247 5.25c1.6 4.22 1.3 97.1-.2 97.72-.7.31-10.5.93-21.8 1.44-18.1.72-20.6.72-21.7-.72-1-1.24-1.3-12.56-1.3-48.81 0-44.79.1-47.16 1.9-48.09 1-.62 9.6-1.54 19.2-2.16 9.5-.62 17.5-1.34 17.8-1.54.2-.31 1.5-.51 2.8-.51 1.6-.01 2.7.81 3.3 2.67zm-52.6 3.09c.9 2.47.7 94.42-.2 95.97-.7.93-6.1 1.24-23.8 1.03l-22.9-.31-.3-45.72c-.1-32.85.1-46.13.9-47.06.6-.82 3-1.44 5.3-1.44 4.2 0 20.3-1.54 31.1-3.09 9-1.13 9.2-1.13 9.9.62zm360.6 39.23c0 1.03-2.8 4.63-6.3 8.03-6.5 6.38-16 11.94-27.2 15.96-11.6 4.12-40.8 10.61-48.5 10.71l-3.5.1-.3-16.99c-.1-9.27 0-17.51.2-18.23.4-1.03 9.3-1.34 43.1-1.34 39.6.01 42.5.11 42.5 1.76zM558 291.02c1.7 1.75 1.7 41.09 0 42.84-.9.93-9.1 1.24-30.9 1.24-16.4 0-30.4-.31-31.3-.62-1.4-.51-1.6-3.5-1.6-22.04 0-16.17.3-21.62 1.3-21.93.6-.31 14.7-.62 31.3-.62 22.1-.1 30.3.2 31.2 1.13z"/><path class="st0" d="M1097.33 287.23v13.9h26v-27.8h-26v13.9zM1097.33 322.67v13.9h26v-27.8h-26v13.9zM1097.33 356.72v13.9h26v-27.8h-26v13.9zM498.78 312.48v13.9h26v-27.8h-26v13.9zM528.39 312.48v13.9h26v-27.8h-26v13.9zM858.04 256.41c-1.86.29-3.04 2.06-2.52 3.77.28.93 1.09 1.72 2.05 2.01.83.25 1.61.19 2.37-.17.63-.3 1.1-.74 1.41-1.34.23-.44.31-.73.33-1.23.01-.33.01-.43-.05-.66-.26-1.2-1.2-2.1-2.45-2.35-.3-.07-.83-.08-1.14-.03zM858.34 262.91c-.03.01-.13.02-.21.04-.54.1-1.07.38-1.49.77-.56.52-.86 1.17-.9 1.92-.01.24.01.71.18 3.53.02.25.1 1.69.2 3.21.13 2.2.18 2.81.22 3.01.2.89.83 1.63 1.73 2.04.22.1.59.21.86.26.12.02 1.76.03 5.47.04l5.3.01.37.6c2.82 4.64 3.85 6.32 3.92 6.41.26.29.65.53 1.06.62.29.07.73.05 1.01-.05.93-.31 1.43-1.29 1.11-2.2-.06-.18-.62-1.1-2.78-4.64-1.48-2.43-2.74-4.48-2.8-4.56-.23-.32-.63-.59-1.05-.71-.16-.05-.46-.05-4.23-.06l-4.06-.01-.02-.46c-.01-.25-.03-.76-.04-1.13l-.02-.67h2.92c2.52 0 2.95-.01 3.09-.04.74-.18 1.22-.84 1.11-1.52-.08-.49-.41-.87-.93-1.07-.15-.06-.15-.06-3.25-.07l-3.11-.01-.02-.28c-.1-1.29-.2-2.41-.22-2.56-.06-.38-.26-.84-.51-1.19-.28-.39-.84-.82-1.29-1-.42-.17-.64-.21-1.12-.22-.24-.02-.47-.02-.5-.01z"/><path class="st0" d="M853.99 269.83c-1.47.95-2.68 2.14-3.59 3.57-1.58 2.47-2.06 5.5-1.33 8.35.71 2.77 2.48 5.16 5.01 6.74 2.87 1.8 6.45 2.31 9.76 1.4 2.83-.77 5.31-2.59 6.84-5.01.3-.48.67-1.18.65-1.23-.03-.08-1.62-2.69-1.64-2.69-.01 0-.03.07-.05.16-.05.25-.23.82-.38 1.18-1 2.45-3.08 4.35-5.69 5.2-1.82.59-3.83.62-5.72.09-2-.57-3.86-1.88-5.05-3.55-.81-1.15-1.29-2.37-1.51-3.79-.07-.47-.07-1.81 0-2.27.1-.66.23-1.18.43-1.71.49-1.32 1.23-2.44 2.31-3.45l.47-.44-.08-1.32c-.04-.73-.08-1.35-.08-1.37 0-.02-.01-.05-.02-.05-.02 0-.16.08-.33.19zM751.4 261.8v58h6v-58h-3zM741.2 273.5c-2.6-2.2-10.5-2.3-13.6-.2-2.2 1.6-7.7 16.9-6.6 18.7 1.4 2.3 3.4.3 4.9-5 2.2-7.7 2.5-8.6 3-8 .2.2-.9 5-2.5 10.6-1.7 5.6-3 10.4-3 10.6 0 .3 1.2.6 2.8.8 2.7.3 2.7.3 3.2 9.8.3 5.2.8 9.4 1.3 9.2.4-.1 1.2-.2 1.7-.2.6 0 1-3.7 1-9s.4-9 1-9 1 3.6 1 8.8c0 9.3.3 10.4 2.6 9.5 1.1-.4 1.4-2.8 1.4-9.9v-9.4h3.1c2.5 0 3-.3 2.5-1.6-1.7-4.5-5.7-19.6-5.3-20 .3-.3 1.4 2.7 2.6 6.5 1.4 4.6 2.7 7.1 3.6 7.1.8 0 1.5-.9 1.5-1.9 0-3.9-4.2-15.7-6.2-17.4zM782.9 274.3c-2.1-2.2-3.3-2.5-9-2.5s-6.9.3-9.1 2.5c-2.3 2.3-2.5 3.1-2.2 11.2.3 7.4.6 8.8 2.1 9.1s1.7-.6 1.7-7.2c0-4.4.4-7.6 1-7.6s1 7.3 1 20v20h5l.2-12.3.2-12.2.6 12c.5 12 .5 12 3 12h2.5l.5-20c.3-11 .7-16.5.8-12.3.2 7.1.4 7.8 2.2 7.8 1.9 0 2-.7 2-9s-.2-9.3-2.5-11.5z"/><circle transform="rotate(-67.5 733.024 264.614)" class="st0" cx="733" cy="264.6" r="5.4"/><circle transform="rotate(-67.5 772.624 264.613)" class="st0" cx="772.6" cy="264.6" r="5.4"/><path class="st0" d="M733.7 238.1h5l1.8 9.6 2.7-9.6h5l2.7 9.6 1.8-9.6h5l-3.8 17.2h-5.2l-3-10.8-3 10.8h-5.2l-3.8-17.2zM770.5 248.2l4.7 1.4c-.3 1.3-.8 2.4-1.5 3.3s-1.5 1.5-2.5 2-2.3.7-3.8.7c-1.9 0-3.4-.3-4.6-.8s-2.2-1.5-3.1-2.9c-.9-1.4-1.3-3.1-1.3-5.2 0-2.8.8-5 2.3-6.6 1.5-1.5 3.7-2.3 6.4-2.3 2.2 0 3.9.4 5.1 1.3s2.2 2.2 2.8 4l-4.7 1c-.2-.5-.3-.9-.5-1.1-.3-.4-.7-.7-1.1-.9-.4-.2-.9-.3-1.4-.3-1.2 0-2.1.5-2.8 1.5-.5.7-.7 1.8-.7 3.4 0 1.9.3 3.2.9 3.9.6.7 1.4 1.1 2.4 1.1s1.8-.3 2.3-.9.8-1.5 1.1-2.6zM39.49 220.41c-1.86.29-3.04 2.06-2.52 3.77.28.93 1.09 1.72 2.05 2.01.83.25 1.61.19 2.37-.17.63-.3 1.1-.74 1.41-1.34.23-.44.31-.73.33-1.23.01-.33.01-.43-.05-.66-.26-1.2-1.2-2.1-2.45-2.35-.31-.07-.84-.08-1.14-.03zM39.79 226.91c-.03.01-.13.02-.21.04-.54.1-1.07.38-1.49.77-.56.52-.86 1.17-.9 1.92-.01.24.01.71.18 3.53.02.25.1 1.69.2 3.21.13 2.2.18 2.81.22 3.01.2.89.83 1.63 1.73 2.04.22.1.59.21.86.26.12.02 1.76.03 5.47.04l5.3.01.37.6c2.82 4.64 3.85 6.32 3.93 6.41.26.29.65.53 1.06.62.29.07.73.05 1.01-.05.93-.31 1.43-1.29 1.11-2.2-.06-.18-.62-1.1-2.78-4.64-1.48-2.43-2.74-4.48-2.8-4.56-.23-.32-.63-.59-1.05-.71-.16-.05-.46-.05-4.23-.06l-4.06-.01-.02-.46c-.01-.25-.03-.76-.04-1.13l-.02-.67h2.92c2.52 0 2.95-.01 3.09-.04.74-.18 1.22-.84 1.11-1.52-.08-.49-.41-.87-.93-1.07-.15-.06-.15-.06-3.25-.07l-3.11-.01-.02-.28c-.1-1.29-.2-2.41-.22-2.56-.06-.38-.26-.84-.51-1.19-.28-.39-.84-.82-1.29-1-.42-.17-.64-.21-1.12-.22-.25-.02-.48-.02-.51-.01z"/><path class="st0" d="M35.44 233.83c-1.47.95-2.68 2.14-3.59 3.57-1.58 2.47-2.06 5.5-1.33 8.35.71 2.77 2.48 5.16 5.01 6.74 2.87 1.8 6.45 2.31 9.76 1.4 2.83-.77 5.31-2.59 6.84-5.01.3-.48.67-1.18.65-1.23-.03-.08-1.62-2.69-1.64-2.69-.01 0-.03.07-.05.16-.05.25-.23.82-.38 1.18-1 2.45-3.08 4.35-5.69 5.2-1.82.59-3.83.62-5.72.09-2-.57-3.86-1.88-5.05-3.55-.81-1.15-1.29-2.37-1.51-3.79-.07-.47-.07-1.81 0-2.27.1-.66.23-1.18.43-1.71.49-1.32 1.23-2.44 2.31-3.45l.47-.44-.08-1.32c-.04-.73-.08-1.35-.08-1.37 0-.02-.01-.05-.02-.05-.03 0-.17.08-.33.19zM200.9 497.9c0 3.8.6 6.9 1.3 7.2 2 .8 13.4.2 13.7-.8.6-1.7-1.7-3.6-4.2-3.3-1.4.2-2.4 0-2.4-.4 0-.3 4.7-5.2 10.4-10.9 14.7-15 16.4-17.4 12.6-17.9-1.3-.2-16.4 14.5-24.9 24l-1.9 2.2-.2-3.1c-.3-3-2.2-5.1-3.6-4.1-.5.3-.8 3.4-.8 7.1zM250 492.6c.1-3.8-.5-6.9-1.2-7.2-2-.9-13.4-.4-13.7.6-.6 1.7 1.7 3.6 4.2 3.4 1.4-.2 2.4.1 2.4.4 0 .3-4.8 5.2-10.5 10.8-14.9 14.8-16.6 17.2-12.8 17.8 1.3.2 16.5-14.3 25.2-23.8l1.9-2.2.2 3.1c.3 3 2.1 5.2 3.5 4.1.3-.2.7-3.4.8-7zM70 522.4c-2.8-2.6-5.4-4.2-6.2-3.9-2 .9-9.2 9.7-8.7 10.7.9 1.6 3.8 1.1 5.3-.8.8-1.1 1.7-1.8 1.9-1.5.2.2.7 7 1.1 15.1 1.1 21 1.8 23.9 4.7 21.4 1-.8.4-21.9-.9-34.6l-.3-2.8 2.4 1.9c2.4 1.8 5.3 1.9 5.4.1 0-.8-2-3.1-4.7-5.6zM400.5 121.5c2.6 2.7 5.2 4.5 5.9 4.2 2-.8 9.8-9.1 9.3-10.1-.8-1.6-3.7-1.4-5.3.5-.9 1.1-1.8 1.7-2 1.4-.2-.2-.2-7-.1-15.1.2-21-.3-23.9-3.4-21.7-1 .8-1.7 21.8-1.2 34.6l.2 2.9-2.3-2.1c-2.3-2-5.1-2.2-5.4-.4-.2.6 1.8 3.2 4.3 5.8zM432.1 83.5c-2.6-2.8-5.1-4.6-5.9-4.3-2.1.8-9.9 9-9.4 10 .7 1.6 3.7 1.4 5.3-.4.9-1.1 1.8-1.6 2-1.4.2.2.2 7 0 15.1-.4 21 .1 23.9 3.2 21.7 1-.7 1.9-21.8 1.6-34.6l-.1-2.9 2.3 2.1c2.3 2 5.1 2.2 5.4.5 0-.6-1.9-3.1-4.4-5.8zM1018.9 102.4c2.6 2.7 5.2 4.5 5.9 4.2 2-.8 9.8-9.1 9.3-10.1-.8-1.6-3.7-1.4-5.3.5-.9 1.1-1.8 1.7-2 1.4-.2-.2-.2-7-.1-15.1.2-21-.3-23.9-3.4-21.7-1 .8-1.7 21.8-1.2 34.6l.2 2.9-2.3-2.1c-2.3-2-5.1-2.2-5.4-.4-.2.7 1.8 3.2 4.3 5.8zM1050.5 64.5c-2.6-2.8-5.1-4.6-5.9-4.3-2.1.8-9.9 9-9.4 10 .7 1.6 3.7 1.4 5.3-.4.9-1.1 1.8-1.6 2-1.4.2.2.2 7 0 15.1-.4 21 .1 23.9 3.2 21.7 1-.7 1.9-21.8 1.6-34.6l-.1-2.9 2.3 2.1c2.3 2 5.1 2.2 5.4.5 0-.6-1.9-3.2-4.4-5.8zM1571.4 528.6c2.6 2.7 5.2 4.5 5.9 4.2 2-.8 9.8-9.1 9.3-10.1-.8-1.6-3.7-1.4-5.3.5-.9 1.1-1.8 1.7-2 1.4-.2-.2-.2-7-.1-15.1.2-21-.3-23.9-3.4-21.7-1 .8-1.7 21.8-1.2 34.6l.2 2.9-2.3-2.1c-2.3-2-5.1-2.2-5.4-.4-.1.7 1.8 3.2 4.3 5.8zM1603.1 490.7c-2.6-2.8-5.1-4.6-5.9-4.3-2.1.8-9.9 9-9.4 10 .7 1.6 3.7 1.4 5.3-.4.9-1.1 1.8-1.6 2-1.4.2.2.2 7 0 15.1-.4 21 .1 23.9 3.2 21.7 1-.7 1.9-21.8 1.6-34.6l-.1-2.9 2.3 2.1c2.3 2 5.1 2.2 5.4.5 0-.6-1.9-3.2-4.4-5.8zM1524 331.3c2.7-2.6 4.5-5.2 4.2-6-.8-2-9.2-9.7-10.2-9.3-1.6.8-1.4 3.7.5 5.3 1.1.9 1.7 1.8 1.4 2-.2.2-7 .3-15.1.2-21-.1-23.9.4-21.6 3.5.8 1 21.8 1.6 34.6 1l2.9-.2-2.1 2.3c-2 2.3-2.2 5.1-.4 5.4.7.3 3.2-1.7 5.8-4.2zM1485.9 299.9c-2.7 2.6-4.6 5.2-4.3 5.9.8 2 9.1 9.8 10.1 9.4 1.6-.8 1.4-3.7-.5-5.3-1.1-.9-1.6-1.8-1.4-2 .2-.2 7-.2 15.1-.1 21 .3 23.9-.2 21.7-3.3-.7-1-21.8-1.8-34.6-1.4l-2.9.2 2.1-2.3c2-2.3 2.2-5.1.4-5.4-.5-.2-3.1 1.7-5.7 4.3z"/><g class="st1"><path class="st0" d="M64 124.8H53.3c.1-1.1.5-2.1 1.1-3 .6-.9 1.8-2 3.5-3.3 1-.8 1.7-1.4 2-1.8.3-.4.4-.8.4-1.2 0-.4-.1-.7-.4-1s-.7-.4-1.1-.4c-.5 0-.8.1-1.1.4-.3.3-.5.8-.6 1.5l-3.6-.3c.1-1 .4-1.8.8-2.4.4-.6.9-1 1.6-1.3.7-.3 1.6-.5 2.8-.5 1.3 0 2.2.1 2.9.4.7.3 1.3.7 1.7 1.3.4.6.6 1.3.6 2 0 .8-.2 1.5-.7 2.3-.5.7-1.3 1.5-2.5 2.4-.7.5-1.2.9-1.4 1.1-.2.2-.5.5-.9.8H64v3zM68.9 115.6l-3.4-.6c.3-1.1.8-1.9 1.6-2.5.8-.6 1.9-.9 3.4-.9 1.7 0 2.9.3 3.7.9.8.6 1.1 1.4 1.1 2.4 0 .6-.1 1.1-.5 1.5s-.8.8-1.4 1.2c.5.1.9.3 1.1.4.4.3.8.6 1 1 .2.4.4.9.4 1.5 0 .8-.2 1.5-.6 2.2-.4.7-1 1.2-1.7 1.6-.7.4-1.7.6-2.9.6s-2.1-.1-2.8-.4c-.7-.3-1.2-.7-1.7-1.2-.4-.5-.8-1.2-1-2l3.6-.5c.1.7.4 1.2.7 1.5.3.3.7.4 1.1.4.5 0 .9-.2 1.2-.5s.5-.8.5-1.4c0-.6-.2-1.1-.5-1.4-.3-.3-.7-.5-1.3-.5-.3 0-.7.1-1.2.2l.2-2.6h.5c.5 0 .9-.2 1.2-.5s.5-.7.5-1.1c0-.4-.1-.7-.4-.9s-.6-.3-1-.3-.8.1-1 .4c-.1.4-.3.9-.4 1.5zM81 115.6l-3.4-.6c.3-1.1.8-1.9 1.6-2.5.8-.6 1.9-.9 3.4-.9 1.7 0 2.9.3 3.7.9.8.6 1.1 1.4 1.1 2.4 0 .6-.1 1.1-.5 1.5s-.8.8-1.4 1.2c.5.1.9.3 1.1.4.4.3.8.6 1 1 .2.4.4.9.4 1.5 0 .8-.2 1.5-.6 2.2-.4.7-1 1.2-1.7 1.6-.7.4-1.7.6-2.9.6s-2.1-.1-2.8-.4-1.2-.7-1.7-1.2c-.4-.5-.8-1.2-1-2l3.6-.5c.1.7.4 1.2.7 1.5.3.3.7.4 1.1.4.5 0 .9-.2 1.2-.5s.5-.8.5-1.4c0-.6-.2-1.1-.5-1.4-.3-.3-.7-.5-1.3-.5-.3 0-.7.1-1.2.2l.2-2.6h.5c.5 0 .9-.2 1.2-.5.3-.3.5-.7.5-1.1 0-.4-.1-.7-.4-.9s-.6-.3-1-.3-.8.1-1 .4c-.2.4-.4.8-.4 1.5z"/></g><g class="st1"><path class="st0" d="M222 124.8h-10.7c.1-1.1.5-2.1 1.1-3 .6-.9 1.8-2 3.5-3.3 1-.8 1.7-1.4 2-1.8.3-.4.4-.8.4-1.2 0-.4-.1-.7-.4-1s-.7-.4-1.1-.4c-.5 0-.8.1-1.1.4-.3.3-.5.8-.6 1.5l-3.6-.3c.1-1 .4-1.8.8-2.4.4-.6.9-1 1.6-1.3.7-.3 1.6-.5 2.8-.5 1.3 0 2.2.1 2.9.4.7.3 1.3.7 1.7 1.3.4.6.6 1.3.6 2 0 .8-.2 1.5-.7 2.3-.5.7-1.3 1.5-2.5 2.4-.7.5-1.2.9-1.4 1.1-.2.2-.5.5-.9.8h5.6v3zM227 115.6l-3.4-.6c.3-1.1.8-1.9 1.6-2.5.8-.6 1.9-.9 3.4-.9 1.7 0 2.9.3 3.7.9.8.6 1.1 1.4 1.1 2.4 0 .6-.1 1.1-.5 1.5s-.8.8-1.4 1.2c.5.1.9.3 1.1.4.4.3.8.6 1 1 .2.4.4.9.4 1.5 0 .8-.2 1.5-.6 2.2-.4.7-1 1.2-1.7 1.6-.7.4-1.7.6-2.9.6s-2.1-.1-2.8-.4c-.7-.3-1.2-.7-1.7-1.2-.4-.5-.8-1.2-1-2l3.6-.5c.1.7.4 1.2.7 1.5.3.3.7.4 1.1.4.5 0 .9-.2 1.2-.5s.5-.8.5-1.4c0-.6-.2-1.1-.5-1.4-.3-.3-.7-.5-1.3-.5-.3 0-.7.1-1.2.2l.2-2.6h.5c.5 0 .9-.2 1.2-.5s.5-.7.5-1.1c0-.4-.1-.7-.4-.9s-.6-.3-1-.3-.8.1-1 .4c-.2.4-.3.9-.4 1.5zM246 124.7h-10.7c.1-1.1.5-2.1 1.1-3 .6-.9 1.8-2 3.5-3.3 1-.8 1.7-1.4 2-1.8.3-.4.4-.8.4-1.2 0-.4-.1-.7-.4-1-.3-.3-.7-.4-1.1-.4-.5 0-.8.1-1.1.4-.3.3-.5.8-.6 1.5l-3.6-.3c.1-1 .4-1.8.8-2.4.4-.6.9-1 1.6-1.3.7-.3 1.6-.5 2.8-.5 1.3 0 2.2.1 2.9.4.7.3 1.3.7 1.7 1.3.4.6.6 1.3.6 2 0 .8-.2 1.5-.7 2.3-.5.7-1.3 1.5-2.5 2.4-.7.5-1.2.9-1.4 1.1-.2.2-.5.5-.9.8h5.6v3z"/></g><g class="st1"><path class="st0" d="M498.8 125h-10.7c.1-1.1.5-2.1 1.1-3 .6-.9 1.8-2 3.5-3.3 1-.8 1.7-1.4 2-1.8.3-.4.4-.8.4-1.2 0-.4-.1-.7-.4-1s-.7-.4-1.1-.4c-.5 0-.8.1-1.1.4-.3.3-.5.8-.6 1.5l-3.6-.3c.1-1 .4-1.8.8-2.4.4-.6.9-1 1.6-1.3.7-.3 1.6-.5 2.8-.5 1.3 0 2.2.1 2.9.4.7.3 1.3.7 1.7 1.3.4.6.6 1.3.6 2 0 .8-.2 1.5-.7 2.3-.5.7-1.3 1.5-2.5 2.4-.7.5-1.2.9-1.4 1.1-.2.2-.5.5-.9.8h5.6v3zM503.7 115.8l-3.4-.6c.3-1.1.8-1.9 1.6-2.5.8-.6 1.9-.9 3.4-.9 1.7 0 2.9.3 3.7.9.8.6 1.1 1.4 1.1 2.4 0 .6-.1 1.1-.5 1.5s-.8.8-1.4 1.2c.5.1.9.3 1.1.4.4.3.8.6 1 1 .2.4.4.9.4 1.5 0 .8-.2 1.5-.6 2.2-.4.7-1 1.2-1.7 1.6-.7.4-1.7.6-2.9.6s-2.1-.1-2.8-.4c-.7-.3-1.2-.7-1.7-1.2-.4-.5-.8-1.2-1-2l3.6-.5c.1.7.4 1.2.7 1.5.3.3.7.4 1.1.4.5 0 .9-.2 1.2-.5s.5-.8.5-1.4c0-.6-.2-1.1-.5-1.4-.3-.3-.7-.5-1.3-.5-.3 0-.7.1-1.2.2l.2-2.6h.5c.5 0 .9-.2 1.2-.5s.5-.7.5-1.1c0-.4-.1-.7-.4-.9s-.6-.3-1-.3-.8.1-1 .4c-.1.4-.3.9-.4 1.5zM512.3 118.4c0-2.4.4-4.2 1.3-5.1s2.2-1.5 4-1.5c.9 0 1.6.1 2.1.3.6.2 1 .5 1.4.8.4.3.6.7.8 1.1.2.4.4.8.5 1.3.2 1 .4 2 .4 3 0 2.3-.4 4-1.2 5.1-.8 1.1-2.1 1.6-4.1 1.6-1.1 0-2-.2-2.6-.5-.7-.3-1.2-.8-1.6-1.5-.3-.5-.6-1.1-.7-1.9-.2-.8-.3-1.7-.3-2.7zm3.5 0c0 1.6.2 2.8.4 3.4.3.6.7.9 1.3.9.4 0 .7-.1.9-.4.3-.3.5-.7.6-1.2.1-.6.2-1.4.2-2.6 0-1.7-.2-2.9-.4-3.4-.3-.6-.7-.9-1.3-.9-.6 0-1 .3-1.3.9-.3.6-.4 1.7-.4 3.3z"/></g><g class="st1"><path class="st0" d="M608.1 124.8h-10.7c.1-1.1.5-2.1 1.1-3 .6-.9 1.8-2 3.5-3.3 1-.8 1.7-1.4 2-1.8.3-.4.4-.8.4-1.2 0-.4-.1-.7-.4-1s-.7-.4-1.1-.4c-.5 0-.8.1-1.1.4-.3.3-.5.8-.6 1.5l-3.6-.3c.1-1 .4-1.8.8-2.4.4-.6.9-1 1.6-1.3.7-.3 1.6-.5 2.8-.5 1.3 0 2.2.1 2.9.4.7.3 1.3.7 1.7 1.3.4.6.6 1.3.6 2 0 .8-.2 1.5-.7 2.3-.5.7-1.3 1.5-2.5 2.4-.7.5-1.2.9-1.4 1.1-.2.2-.5.5-.9.8h5.6v3zM620.1 124.7h-10.7c.1-1.1.5-2.1 1.1-3 .6-.9 1.8-2 3.5-3.3 1-.8 1.7-1.4 2-1.8.3-.4.4-.8.4-1.2 0-.4-.1-.7-.4-1s-.7-.4-1.1-.4c-.5 0-.8.1-1.1.4-.3.3-.5.8-.6 1.5l-3.6-.3c.1-1 .4-1.8.8-2.4.4-.6.9-1 1.6-1.3.7-.3 1.6-.5 2.8-.5 1.3 0 2.2.1 2.9.4.7.3 1.3.7 1.7 1.3.4.6.6 1.3.6 2 0 .8-.2 1.5-.7 2.3-.5.7-1.3 1.5-2.5 2.4-.7.5-1.2.9-1.4 1.1-.2.2-.5.5-.9.8h5.6v3zM621.8 121.8l3.6-.5c.1.5.3.8.5 1.1.2.2.5.3.8.3.6 0 1-.3 1.3-.9.2-.4.4-1.3.5-2.7-.4.4-.9.8-1.3 1s-1 .3-1.6.3c-1.2 0-2.1-.4-2.9-1.2-.8-.8-1.2-1.9-1.2-3.1 0-.9.2-1.6.6-2.3.4-.7 1-1.2 1.7-1.6.7-.4 1.6-.5 2.7-.6 1.3 0 2.3.2 3.1.7.8.4 1.4 1.1 1.9 2.1s.7 2.2.7 3.8c0 2.3-.5 4-1.4 5.1-1 1.1-2.3 1.6-4.1 1.6-1 0-1.8-.1-2.4-.3-.6-.2-1.1-.6-1.5-1-.5-.5-.8-1.1-1-1.8zm6.5-5.7c0-.7-.2-1.2-.5-1.6-.4-.4-.8-.6-1.3-.6s-.9.2-1.2.5-.5.9-.5 1.6c0 .7.2 1.3.5 1.7s.7.6 1.2.6.9-.2 1.3-.6.5-.9.5-1.6z"/></g><g class="st1"><path class="st0" d="M693.6 125h-10.7c.1-1.1.5-2.1 1.1-3 .6-.9 1.8-2 3.5-3.3 1-.8 1.7-1.4 2-1.8.3-.4.4-.8.4-1.2 0-.4-.1-.7-.4-1s-.7-.4-1.1-.4c-.5 0-.8.1-1.1.4-.3.3-.5.8-.6 1.5l-3.6-.3c.1-1 .4-1.8.8-2.4.4-.6.9-1 1.6-1.3.7-.3 1.6-.5 2.8-.5 1.3 0 2.2.1 2.9.4.7.3 1.3.7 1.7 1.3.4.6.6 1.3.6 2 0 .8-.2 1.5-.7 2.3-.5.7-1.3 1.5-2.5 2.4-.7.5-1.2.9-1.4 1.1-.2.2-.5.5-.9.8h5.6v3zM705.6 124.9h-10.7c.1-1.1.5-2.1 1.1-3 .6-.9 1.8-2 3.5-3.3 1-.8 1.7-1.4 2-1.8.3-.4.4-.8.4-1.2 0-.4-.1-.7-.4-1s-.7-.4-1.1-.4c-.5 0-.8.1-1.1.4-.3.3-.5.8-.6 1.5l-3.6-.3c.1-1 .4-1.8.8-2.4.4-.6.9-1 1.6-1.3.7-.3 1.6-.5 2.8-.5 1.3 0 2.2.1 2.9.4.7.3 1.3.7 1.7 1.3.4.6.6 1.3.6 2 0 .8-.2 1.5-.7 2.3-.5.7-1.3 1.5-2.5 2.4-.7.5-1.2.9-1.4 1.1-.2.2-.5.5-.9.8h5.6v3zM709.2 118c-.6-.3-1-.6-1.2-1-.4-.5-.5-1.1-.5-1.7 0-1.1.5-2 1.5-2.7.8-.5 1.8-.8 3.1-.8 1.7 0 3 .3 3.8 1 .8.7 1.2 1.5 1.2 2.5 0 .6-.2 1.1-.5 1.6-.2.4-.6.7-1.2 1.1.7.3 1.2.8 1.6 1.3.3.5.5 1.2.5 1.8 0 .6-.1 1.2-.4 1.8-.3.6-.7 1-1.1 1.3-.4.3-1 .5-1.6.7-.6.1-1.3.2-2.1.2-1.4 0-2.4-.2-3.1-.5-.7-.3-1.3-.8-1.6-1.4-.4-.6-.6-1.3-.6-2.1s.2-1.4.5-1.9c.5-.5 1-.9 1.7-1.2zm1.5 3c0 .6.2 1 .5 1.4.3.4.7.5 1.2.5.4 0 .8-.2 1.1-.6.3-.4.5-.8.5-1.4 0-.6-.2-1-.5-1.4-.3-.4-.7-.5-1.2-.5-.4 0-.8.2-1.2.5-.3.4-.4.9-.4 1.5zm.1-5.6c0 .4.1.8.4 1.1.3.3.7.4 1.1.4.4 0 .7-.1 1-.4s.4-.6.4-1-.1-.8-.4-1.1c-.3-.3-.6-.4-1.1-.4-.4 0-.8.1-1.1.4-.1.3-.3.6-.3 1z"/></g><g class="st1"><path class="st0" d="M764 125h-10.7c.1-1.1.5-2.1 1.1-3 .6-.9 1.8-2 3.5-3.3 1-.8 1.7-1.4 2-1.8.3-.4.4-.8.4-1.2 0-.4-.1-.7-.4-1s-.7-.4-1.1-.4c-.5 0-.8.1-1.1.4-.3.3-.5.8-.6 1.5l-3.6-.3c.1-1 .4-1.8.8-2.4.4-.6.9-1 1.6-1.3.7-.3 1.6-.5 2.8-.5 1.3 0 2.2.1 2.9.4.7.3 1.3.7 1.7 1.3.4.6.6 1.3.6 2 0 .8-.2 1.5-.7 2.3-.5.7-1.3 1.5-2.5 2.4-.7.5-1.2.9-1.4 1.1-.2.2-.5.5-.9.8h5.6v3zM776 124.9h-10.7c.1-1.1.5-2.1 1.1-3 .6-.9 1.8-2 3.5-3.3 1-.8 1.7-1.4 2-1.8.3-.4.4-.8.4-1.2 0-.4-.1-.7-.4-1s-.7-.4-1.1-.4c-.5 0-.8.1-1.1.4-.3.3-.5.8-.6 1.5l-3.6-.3c.1-1 .4-1.8.8-2.4.4-.6.9-1 1.6-1.3.7-.3 1.6-.5 2.8-.5 1.3 0 2.2.1 2.9.4.7.3 1.3.7 1.7 1.3.4.6.6 1.3.6 2 0 .8-.2 1.5-.7 2.3-.5.7-1.3 1.5-2.5 2.4-.7.5-1.2.9-1.4 1.1-.2.2-.5.5-.9.8h5.6v3zM777.5 112H788v2.4c-.9.8-1.7 1.7-2.3 2.7-.7 1.2-1.3 2.5-1.7 3.9-.3 1.1-.6 2.4-.7 3.9h-3.6c.3-2.1.7-3.9 1.3-5.3.6-1.4 1.5-3 2.8-4.6h-6.4l.1-3z"/></g><g class="st1"><path class="st0" d="M866.6 125h-10.7c.1-1.1.5-2.1 1.1-3 .6-.9 1.8-2 3.5-3.3 1-.8 1.7-1.4 2-1.8.3-.4.4-.8.4-1.2 0-.4-.1-.7-.4-1s-.7-.4-1.1-.4c-.5 0-.8.1-1.1.4-.3.3-.5.8-.6 1.5l-3.6-.3c.1-1 .4-1.8.8-2.4.4-.6.9-1 1.6-1.3.7-.3 1.6-.5 2.8-.5 1.3 0 2.2.1 2.9.4.7.3 1.3.7 1.7 1.3.4.6.6 1.3.6 2 0 .8-.2 1.5-.7 2.3-.5.7-1.3 1.5-2.5 2.4-.7.5-1.2.9-1.4 1.1s-.5.5-.9.8h5.6v3zM878.6 124.9h-10.7c.1-1.1.5-2.1 1.1-3 .6-.9 1.8-2 3.5-3.3 1-.8 1.7-1.4 2-1.8.3-.4.4-.8.4-1.2 0-.4-.1-.7-.4-1s-.7-.4-1.1-.4c-.5 0-.8.1-1.1.4-.3.3-.5.8-.6 1.5l-3.6-.3c.1-1 .4-1.8.8-2.4.4-.6.9-1 1.6-1.3.7-.3 1.6-.5 2.8-.5 1.3 0 2.2.1 2.9.4.7.3 1.3.7 1.7 1.3.4.6.6 1.3.6 2 0 .8-.2 1.5-.7 2.3s-1.3 1.5-2.5 2.4c-.7.5-1.2.9-1.4 1.1s-.5.5-.9.8h5.6v3zM890.5 114.9l-3.6.5c-.1-.5-.3-.8-.5-1.1s-.5-.3-.8-.3c-.6 0-1 .3-1.3.9-.2.4-.4 1.3-.5 2.7.4-.4.9-.8 1.3-1s1-.3 1.6-.3c1.1 0 2.1.4 2.9 1.2s1.2 1.9 1.2 3.1c0 .8-.2 1.6-.6 2.3-.4.7-1 1.2-1.7 1.6-.7.4-1.6.5-2.7.6-1.3 0-2.3-.2-3.1-.6-.8-.4-1.4-1.1-1.9-2.1s-.7-2.2-.7-3.8c0-2.3.5-4 1.4-5.1 1-1.1 2.3-1.6 4.1-1.6 1 0 1.8.1 2.4.3.6.2 1.1.6 1.5 1 .5.4.8 1 1 1.7zm-6.6 5.8c0 .7.2 1.2.5 1.6.4.4.8.6 1.3.6s.9-.2 1.2-.5c.3-.4.5-.9.5-1.6 0-.7-.2-1.3-.5-1.7-.3-.4-.7-.6-1.2-.6s-.9.2-1.2.6c-.4.3-.6.9-.6 1.6z"/></g><g class="st1"><path class="st0" d="M1216.1 125h-10.7c.1-1.1.5-2.1 1.1-3 .6-.9 1.8-2 3.5-3.3 1-.8 1.7-1.4 2-1.8.3-.4.4-.8.4-1.2 0-.4-.1-.7-.4-1s-.7-.4-1.1-.4c-.5 0-.8.1-1.1.4-.3.3-.5.8-.6 1.5l-3.6-.3c.1-1 .4-1.8.8-2.4.4-.6.9-1 1.6-1.3.7-.3 1.6-.5 2.8-.5 1.3 0 2.2.1 2.9.4.7.3 1.3.7 1.7 1.3.4.6.6 1.3.6 2 0 .8-.2 1.5-.7 2.3-.5.7-1.3 1.5-2.5 2.4-.7.5-1.2.9-1.4 1.1s-.5.5-.9.8h5.6v3zM1228.1 124.9h-10.7c.1-1.1.5-2.1 1.1-3 .6-.9 1.8-2 3.5-3.3 1-.8 1.7-1.4 2-1.8.3-.4.4-.8.4-1.2 0-.4-.1-.7-.4-1s-.7-.4-1.1-.4c-.5 0-.8.1-1.1.4-.3.3-.5.8-.6 1.5l-3.6-.3c.1-1 .4-1.8.8-2.4.4-.6.9-1 1.6-1.3.7-.3 1.6-.5 2.8-.5 1.3 0 2.2.1 2.9.4.7.3 1.3.7 1.7 1.3.4.6.6 1.3.6 2 0 .8-.2 1.5-.7 2.3s-1.3 1.5-2.5 2.4c-.7.5-1.2.9-1.4 1.1s-.5.5-.9.8h5.6v3zM1240.1 124.9h-10.7c.1-1.1.5-2.1 1.1-3 .6-.9 1.8-2 3.5-3.3 1-.8 1.7-1.4 2-1.8.3-.4.4-.8.4-1.2 0-.4-.1-.7-.4-1-.3-.3-.7-.4-1.1-.4-.5 0-.8.1-1.1.4-.3.3-.5.8-.6 1.5l-3.6-.3c.1-1 .4-1.8.8-2.4.4-.6.9-1 1.6-1.3.7-.3 1.6-.5 2.8-.5 1.3 0 2.2.1 2.9.4.7.3 1.3.7 1.7 1.3.4.6.6 1.3.6 2 0 .8-.2 1.5-.7 2.3s-1.3 1.5-2.5 2.4c-.7.5-1.2.9-1.4 1.1s-.5.5-.9.8h5.6v3z"/></g><g class="st1"><path class="st0" d="M1284.6 125h-10.7c.1-1.1.5-2.1 1.1-3 .6-.9 1.8-2 3.5-3.3 1-.8 1.7-1.4 2-1.8s.4-.8.4-1.2c0-.4-.1-.7-.4-1s-.7-.4-1.1-.4c-.5 0-.8.1-1.1.4s-.5.8-.6 1.5l-3.6-.3c.1-1 .4-1.8.8-2.4.4-.6.9-1 1.6-1.3.7-.3 1.6-.5 2.8-.5 1.3 0 2.2.1 2.9.4s1.3.7 1.7 1.3c.4.6.6 1.3.6 2 0 .8-.2 1.5-.7 2.3-.5.7-1.3 1.5-2.5 2.4-.7.5-1.2.9-1.4 1.1-.2.2-.5.5-.9.8h5.6v3zM1296.6 124.9h-10.7c.1-1.1.5-2.1 1.1-3 .6-.9 1.8-2 3.5-3.3 1-.8 1.7-1.4 2-1.8s.4-.8.4-1.2c0-.4-.1-.7-.4-1s-.7-.4-1.1-.4c-.5 0-.8.1-1.1.4s-.5.8-.6 1.5l-3.6-.3c.1-1 .4-1.8.8-2.4.4-.6.9-1 1.6-1.3.7-.3 1.6-.5 2.8-.5 1.3 0 2.2.1 2.9.4s1.3.7 1.7 1.3c.4.6.6 1.3.6 2 0 .8-.2 1.5-.7 2.3-.5.7-1.3 1.5-2.5 2.4-.7.5-1.2.9-1.4 1.1-.2.2-.5.5-.9.8h5.6v3zM1306.2 111.8l.1 13.1h-3.6v-8.6c-.6.4-1.1.8-1.7 1.1s-1.2.5-2.1.8v-2.9c1.2-.4 2.2-.9 2.8-1.4s1.2-1.2 1.6-2l2.9-.1z"/></g><g class="st1"><path class="st0" d="M1354.4 124.8h-10.7c.1-1.1.5-2.1 1.1-3 .6-.9 1.8-2 3.5-3.3 1-.8 1.7-1.4 2-1.8.3-.4.4-.8.4-1.2 0-.4-.1-.7-.4-1s-.7-.4-1.1-.4c-.5 0-.8.1-1.1.4-.3.3-.5.8-.6 1.5l-3.6-.3c.1-1 .4-1.8.8-2.4.4-.6.9-1 1.6-1.3.7-.3 1.6-.5 2.8-.5 1.3 0 2.2.1 2.9.4.7.3 1.3.7 1.7 1.3.4.6.6 1.3.6 2 0 .8-.2 1.5-.7 2.3-.5.7-1.3 1.5-2.5 2.4-.7.5-1.2.9-1.4 1.1s-.5.5-.9.8h5.6v3zM1366.4 124.7h-10.7c.1-1.1.5-2.1 1.1-3 .6-.9 1.8-2 3.5-3.3 1-.8 1.7-1.4 2-1.8.3-.4.4-.8.4-1.2 0-.4-.1-.7-.4-1s-.7-.4-1.1-.4c-.5 0-.8.1-1.1.4-.3.3-.5.8-.6 1.5l-3.6-.3c.1-1 .4-1.8.8-2.4.4-.6.9-1 1.6-1.3.7-.3 1.6-.5 2.8-.5 1.3 0 2.2.1 2.9.4.7.3 1.3.7 1.7 1.3.4.6.6 1.3.6 2 0 .8-.2 1.5-.7 2.3s-1.3 1.5-2.5 2.4c-.7.5-1.2.9-1.4 1.1s-.5.5-.9.8h5.6v3zM1367.9 118.2c0-2.4.4-4.2 1.3-5.1s2.2-1.5 4-1.5c.9 0 1.6.1 2.1.3.6.2 1 .5 1.4.8.4.3.6.7.8 1.1.2.4.4.8.5 1.3.2 1 .4 2 .4 3 0 2.3-.4 4-1.2 5.1-.8 1.1-2.1 1.6-4.1 1.6-1.1 0-2-.2-2.6-.5-.7-.3-1.2-.8-1.6-1.5-.3-.5-.6-1.1-.7-1.9-.2-.8-.3-1.7-.3-2.7zm3.5 0c0 1.6.2 2.8.4 3.4.3.6.7.9 1.3.9.4 0 .7-.1.9-.4.3-.3.5-.7.6-1.2.1-.6.2-1.4.2-2.6 0-1.7-.2-2.9-.4-3.4-.3-.6-.7-.9-1.3-.9-.6 0-1 .3-1.3.9-.2.6-.4 1.7-.4 3.3z"/></g><g class="st1"><path class="st0" d="M1424.1 124.8h-10.7c.1-1.1.5-2.1 1.1-3 .6-.9 1.8-2 3.5-3.3 1-.8 1.7-1.4 2-1.8.3-.4.4-.8.4-1.2 0-.4-.1-.7-.4-1s-.7-.4-1.1-.4c-.5 0-.8.1-1.1.4-.3.3-.5.8-.6 1.5l-3.6-.3c.1-1 .4-1.8.8-2.4.4-.6.9-1 1.6-1.3.7-.3 1.6-.5 2.8-.5 1.3 0 2.2.1 2.9.4s1.3.7 1.7 1.3c.4.6.6 1.3.6 2 0 .8-.2 1.5-.7 2.3-.5.7-1.3 1.5-2.5 2.4-.7.5-1.2.9-1.4 1.1-.2.2-.5.5-.9.8h5.6v3zM1433.7 111.6l.1 13.1h-3.6v-8.6c-.6.4-1.1.8-1.7 1.1-.5.3-1.2.5-2.1.8v-2.9c1.2-.4 2.2-.9 2.8-1.4.7-.6 1.2-1.2 1.6-2l2.9-.1zM1437.8 121.8l3.6-.5c.1.5.3.8.5 1.1.2.2.5.3.8.3.6 0 1-.3 1.3-.9.2-.4.4-1.3.5-2.7-.4.4-.9.8-1.3 1-.4.2-1 .3-1.6.3-1.2 0-2.1-.4-2.9-1.2s-1.2-1.9-1.2-3.1c0-.9.2-1.6.6-2.3.4-.7 1-1.2 1.7-1.6.7-.4 1.6-.5 2.7-.6 1.3 0 2.3.2 3.1.7.8.4 1.4 1.1 1.9 2.1s.7 2.2.7 3.8c0 2.3-.5 4-1.4 5.1-1 1.1-2.3 1.6-4.1 1.6-1 0-1.8-.1-2.4-.3-.6-.2-1.1-.6-1.5-1s-.8-1.1-1-1.8zm6.6-5.7c0-.7-.2-1.2-.5-1.6-.4-.4-.8-.6-1.3-.6s-.9.2-1.2.5c-.3.4-.5.9-.5 1.6 0 .7.2 1.3.5 1.7s.7.6 1.2.6.9-.2 1.3-.6c.3-.4.5-.9.5-1.6z"/></g><g class="st1"><path class="st0" d="M1493.7 124.8H1483c.1-1.1.5-2.1 1.1-3 .6-.9 1.8-2 3.5-3.3 1-.8 1.7-1.4 2-1.8.3-.4.4-.8.4-1.2 0-.4-.1-.7-.4-1s-.7-.4-1.1-.4c-.5 0-.8.1-1.1.4-.3.3-.5.8-.6 1.5l-3.6-.3c.1-1 .4-1.8.8-2.4.4-.6.9-1 1.6-1.3.7-.3 1.6-.5 2.8-.5 1.3 0 2.2.1 2.9.4.7.3 1.3.7 1.7 1.3.4.6.6 1.3.6 2 0 .8-.2 1.5-.7 2.3-.5.7-1.3 1.5-2.5 2.4-.7.5-1.2.9-1.4 1.1s-.5.5-.9.8h5.6v3zM1503.3 111.6l.1 13.1h-3.6v-8.6c-.6.4-1.2.8-1.7 1.1-.5.3-1.2.5-2.1.8v-2.9c1.2-.4 2.2-.9 2.8-1.4.7-.6 1.2-1.2 1.6-2l2.9-.1zM1509.4 117.8c-.6-.3-1-.6-1.2-1-.4-.5-.5-1.1-.5-1.7 0-1.1.5-2 1.5-2.7.8-.5 1.8-.8 3.1-.8 1.7 0 3 .3 3.8 1 .8.7 1.2 1.5 1.2 2.5 0 .6-.2 1.1-.5 1.6-.2.4-.6.7-1.2 1.1.7.3 1.2.8 1.6 1.3.3.5.5 1.2.5 1.8 0 .6-.1 1.2-.4 1.8-.3.6-.7 1-1.1 1.3s-1 .5-1.6.7c-.6.1-1.3.2-2.1.2-1.4 0-2.4-.2-3.1-.5-.7-.3-1.3-.8-1.6-1.4-.4-.6-.6-1.3-.6-2.1s.2-1.4.5-1.9c.4-.5.9-.9 1.7-1.2zm1.4 3c0 .6.2 1 .5 1.4.3.4.7.5 1.2.5.4 0 .8-.2 1.1-.6.3-.4.5-.8.5-1.4 0-.6-.2-1-.5-1.4-.3-.4-.7-.5-1.2-.5-.4 0-.8.2-1.2.5-.2.4-.4.9-.4 1.5zm.2-5.5c0 .4.1.8.4 1.1.3.3.7.4 1.1.4.4 0 .7-.1 1-.4s.4-.6.4-1-.1-.8-.4-1.1c-.3-.3-.6-.4-1.1-.4-.4 0-.8.1-1.1.4-.2.2-.3.5-.3 1z"/></g><g class="st1"><path class="st0" d="M1565 124.8h-10.7c.1-1.1.5-2.1 1.1-3 .6-.9 1.8-2 3.5-3.3 1-.8 1.7-1.4 2-1.8s.4-.8.4-1.2c0-.4-.1-.7-.4-1s-.7-.4-1.1-.4c-.5 0-.8.1-1.1.4s-.5.8-.6 1.5l-3.6-.3c.1-1 .4-1.8.8-2.4.4-.6.9-1 1.6-1.3.7-.3 1.6-.5 2.8-.5 1.3 0 2.2.1 2.9.4s1.3.7 1.7 1.3c.4.6.6 1.3.6 2 0 .8-.2 1.5-.7 2.3-.5.7-1.3 1.5-2.5 2.4-.7.5-1.2.9-1.4 1.1-.2.2-.5.5-.9.8h5.6v3zM1574.6 111.6l.1 13.1h-3.6v-8.6c-.6.4-1.1.8-1.7 1.1s-1.2.5-2.1.8v-2.9c1.2-.4 2.2-.9 2.8-1.4.7-.6 1.2-1.2 1.6-2l2.9-.1zM1578.6 111.8h10.5v2.4c-.9.8-1.7 1.7-2.3 2.7-.7 1.2-1.3 2.5-1.7 3.9-.3 1.1-.6 2.4-.7 3.9h-3.6c.3-2.1.7-3.9 1.3-5.3.6-1.4 1.5-3 2.8-4.6h-6.4l.1-3z"/></g><g class="st1"><path class="st0" d="M1817.7 146.5H1807c.1-1.1.5-2.1 1.1-3 .6-.9 1.8-2 3.5-3.3 1-.8 1.7-1.4 2-1.8s.4-.8.4-1.2c0-.4-.1-.7-.4-1s-.7-.4-1.1-.4c-.5 0-.8.1-1.1.4s-.5.8-.6 1.5l-3.6-.3c.1-1 .4-1.8.8-2.4.4-.6.9-1 1.6-1.3.7-.3 1.6-.5 2.8-.5 1.3 0 2.2.1 2.9.4s1.3.7 1.7 1.3c.4.6.6 1.3.6 2 0 .8-.2 1.5-.7 2.3-.5.7-1.3 1.5-2.5 2.4-.7.5-1.2.9-1.4 1.1-.2.2-.5.5-.9.8h5.6v3zM1827.2 133.4l.1 13.1h-3.6v-8.6c-.6.4-1.1.8-1.7 1.1s-1.2.5-2.1.8v-2.9c1.2-.4 2.2-.9 2.8-1.4.7-.6 1.2-1.2 1.6-2l2.9-.1zM1841.5 136.4l-3.6.5c-.1-.5-.3-.8-.5-1.1-.2-.2-.5-.3-.8-.3-.6 0-1 .3-1.4.9-.2.4-.4 1.3-.5 2.7.4-.4.9-.8 1.3-1s1-.3 1.6-.3c1.1 0 2.1.4 2.9 1.2.8.8 1.2 1.9 1.2 3.1 0 .8-.2 1.6-.6 2.3-.4.7-1 1.2-1.7 1.6-.7.4-1.6.5-2.7.6-1.3 0-2.3-.2-3.1-.6s-1.4-1.1-1.9-2.1-.7-2.2-.7-3.8c0-2.3.5-4 1.4-5.1 1-1.1 2.3-1.6 4.1-1.6 1 0 1.8.1 2.4.3.6.2 1.1.6 1.5 1 .6.5.9 1 1.1 1.7zm-6.6 5.8c0 .7.2 1.2.5 1.6.4.4.8.6 1.3.6s.9-.2 1.2-.5c.3-.4.5-.9.5-1.6 0-.7-.2-1.3-.5-1.7-.3-.4-.7-.6-1.2-.6s-.9.2-1.2.6c-.4.4-.6.9-.6 1.6z"/></g><g class="st1"><path class="st0" d="M1888.6 312.6h-10.7c.1-1.1.5-2.1 1.1-3 .6-.9 1.8-2 3.5-3.3 1-.8 1.7-1.4 2-1.8s.4-.8.4-1.2c0-.4-.1-.7-.4-1s-.7-.4-1.1-.4c-.5 0-.8.1-1.1.4s-.5.8-.6 1.5l-3.6-.3c.1-1 .4-1.8.8-2.4.4-.6.9-1 1.6-1.3.7-.3 1.6-.5 2.8-.5 1.3 0 2.2.1 2.9.4s1.3.7 1.7 1.3c.4.6.6 1.3.6 2 0 .8-.2 1.5-.7 2.3-.5.7-1.3 1.5-2.5 2.4-.7.5-1.2.9-1.4 1.1-.2.2-.5.5-.9.8h5.6v3zM1898.2 299.4l.1 13.1h-3.6v-8.6c-.6.4-1.1.8-1.7 1.1s-1.2.5-2.1.8v-2.9c1.2-.4 2.2-.9 2.8-1.4.7-.6 1.2-1.2 1.6-2l2.9-.1zM1903.5 299.6h8.5v2.9h-5.8l-.3 1.9c.4-.2.8-.3 1.2-.4.4-.1.8-.1 1.2-.1 1.3 0 2.3.4 3.1 1.2.8.8 1.2 1.8 1.2 2.9 0 .8-.2 1.6-.6 2.4s-1 1.4-1.8 1.8c-.8.4-1.7.6-2.9.6-.8 0-1.6-.1-2.2-.2-.6-.2-1.1-.4-1.5-.7-.4-.3-.8-.7-1-1.1-.3-.4-.5-.9-.7-1.5l3.6-.4c.1.6.3 1 .6 1.3.3.3.7.4 1.2.4s.9-.2 1.2-.6c.3-.4.5-.9.5-1.7 0-.8-.2-1.3-.5-1.7-.3-.4-.8-.5-1.3-.5-.3 0-.7.1-1 .3-.2.1-.5.3-.8.7l-3.1-.4 1.2-7.1z"/></g><g class="st1"><path class="st0" d="M1819.9 493.1h-10.7c.1-1.1.5-2.1 1.1-3 .6-.9 1.8-2 3.5-3.3 1-.8 1.7-1.4 2-1.8.3-.4.4-.8.4-1.2 0-.4-.1-.7-.4-1s-.7-.4-1.1-.4c-.5 0-.8.1-1.1.4-.3.3-.5.8-.6 1.5l-3.6-.3c.1-1 .4-1.8.8-2.4.4-.6.9-1 1.6-1.3.7-.3 1.6-.5 2.8-.5 1.3 0 2.2.1 2.9.4.7.3 1.3.7 1.7 1.3.4.6.6 1.3.6 2 0 .8-.2 1.5-.7 2.3-.5.7-1.3 1.5-2.5 2.4-.7.5-1.2.9-1.4 1.1s-.5.5-.9.8h5.6v3zM1829.5 480l.1 13.1h-3.6v-8.6c-.6.4-1.2.8-1.7 1.1-.5.3-1.2.5-2.1.8v-2.9c1.2-.4 2.2-.9 2.8-1.4.7-.6 1.2-1.2 1.6-2l2.9-.1zM1839.6 490.6h-6.5v-2.9l6.5-7.8h3.1v7.9h1.6v2.8h-1.6v2.4h-3.1v-2.4zm-.1-2.8v-4.1l-3.4 4.1h3.4z"/></g><g class="st1"><path class="st0" d="M386.6 516h-10.7c.1-1.1.5-2.1 1.1-3 .6-.9 1.8-2 3.5-3.3 1-.8 1.7-1.4 2-1.8.3-.4.4-.8.4-1.2 0-.4-.1-.7-.4-1s-.7-.4-1.1-.4c-.5 0-.8.1-1.1.4-.3.3-.5.8-.6 1.5l-3.6-.3c.1-1 .4-1.8.8-2.4.4-.6.9-1 1.6-1.3.7-.3 1.6-.5 2.8-.5 1.3 0 2.2.1 2.9.4.7.3 1.3.7 1.7 1.3.4.6.6 1.3.6 2 0 .8-.2 1.5-.7 2.3-.5.7-1.3 1.5-2.5 2.4-.7.5-1.2.9-1.4 1.1-.2.2-.5.5-.9.8h5.6v3zM388.1 509.5c0-2.4.4-4.2 1.3-5.1.9-1 2.2-1.5 4-1.5.9 0 1.6.1 2.1.3.6.2 1 .5 1.4.8.4.3.6.7.8 1.1.2.4.4.8.5 1.3.2 1 .4 2 .4 3 0 2.3-.4 4.1-1.2 5.1s-2.1 1.6-4.1 1.6c-1.1 0-2-.2-2.6-.5-.7-.3-1.2-.8-1.6-1.5-.3-.5-.6-1.1-.7-1.9-.2-.8-.3-1.7-.3-2.7zm3.6 0c0 1.6.2 2.8.4 3.4.3.6.7.9 1.3.9.4 0 .7-.1.9-.4.3-.3.5-.7.6-1.2.1-.6.2-1.4.2-2.6 0-1.7-.2-2.9-.4-3.4-.3-.6-.7-.9-1.3-.9-.6 0-1 .3-1.3.9-.3.6-.4 1.7-.4 3.3zM410.6 515.9h-10.7c.1-1.1.5-2.1 1.1-3 .6-.9 1.8-2 3.5-3.3 1-.8 1.7-1.4 2-1.8.3-.4.4-.8.4-1.2 0-.4-.1-.7-.4-1-.3-.3-.7-.4-1.1-.4-.5 0-.8.1-1.1.4-.3.3-.5.8-.6 1.5l-3.6-.3c.1-1 .4-1.8.8-2.4.4-.6.9-1 1.6-1.3.7-.3 1.6-.5 2.8-.5 1.3 0 2.2.1 2.9.4.7.3 1.3.7 1.7 1.3.4.6.6 1.3.6 2 0 .8-.2 1.5-.7 2.3-.5.7-1.3 1.5-2.5 2.4-.7.5-1.2.9-1.4 1.1-.2.2-.5.5-.9.8h5.6v3z"/></g><g class="st1"><path class="st0" d="M492.1 516h-10.7c.1-1.1.5-2.1 1.1-3 .6-.9 1.8-2 3.5-3.3 1-.8 1.7-1.4 2-1.8.3-.4.4-.8.4-1.2 0-.4-.1-.7-.4-1s-.7-.4-1.1-.4c-.5 0-.8.1-1.1.4-.3.3-.5.8-.6 1.5l-3.6-.3c.1-1 .4-1.8.8-2.4.4-.6.9-1 1.6-1.3.7-.3 1.6-.5 2.8-.5 1.3 0 2.2.1 2.9.4.7.3 1.3.7 1.7 1.3.4.6.6 1.3.6 2 0 .8-.2 1.5-.7 2.3-.5.7-1.3 1.5-2.5 2.4-.7.5-1.2.9-1.4 1.1-.2.2-.5.5-.9.8h5.6v3zM493.6 509.5c0-2.4.4-4.2 1.3-5.1.9-1 2.2-1.5 4-1.5.9 0 1.6.1 2.1.3.6.2 1 .5 1.4.8.4.3.6.7.8 1.1.2.4.4.8.5 1.3.2 1 .4 2 .4 3 0 2.3-.4 4.1-1.2 5.1s-2.1 1.6-4.1 1.6c-1.1 0-2-.2-2.6-.5-.7-.3-1.2-.8-1.6-1.5-.3-.5-.6-1.1-.7-1.9-.2-.8-.3-1.7-.3-2.7zm3.6 0c0 1.6.2 2.8.4 3.4.3.6.7.9 1.3.9.4 0 .7-.1.9-.4.3-.3.5-.7.6-1.2.1-.6.2-1.4.2-2.6 0-1.7-.2-2.9-.4-3.4-.3-.6-.7-.9-1.3-.9-.6 0-1 .3-1.3.9-.3.6-.4 1.7-.4 3.3zM509.1 506.8l-3.4-.6c.3-1.1.8-1.9 1.6-2.5.8-.6 1.9-.9 3.4-.9 1.7 0 2.9.3 3.7.9.8.6 1.1 1.4 1.1 2.4 0 .6-.1 1.1-.5 1.5s-.8.8-1.4 1.2c.5.1.9.3 1.1.4.4.3.8.6 1 1 .2.4.4.9.4 1.5 0 .8-.2 1.5-.6 2.2-.4.7-1 1.2-1.7 1.6-.7.4-1.7.6-2.9.6s-2.1-.1-2.8-.4-1.2-.7-1.7-1.2c-.4-.5-.8-1.2-1-2l3.6-.5c.1.7.4 1.2.7 1.5.3.3.7.4 1.1.4.5 0 .9-.2 1.2-.5s.5-.8.5-1.4c0-.6-.2-1.1-.5-1.4-.3-.3-.7-.5-1.3-.5-.3 0-.7.1-1.2.2l.2-2.6h.5c.5 0 .9-.2 1.2-.5.3-.3.5-.7.5-1.1 0-.4-.1-.7-.4-.9s-.6-.3-1-.3-.8.1-1 .4c-.1.4-.3.8-.4 1.5z"/></g><g class="st1"><path class="st0" d="M596 516h-10.7c.1-1.1.5-2.1 1.1-3 .6-.9 1.8-2 3.5-3.3 1-.8 1.7-1.4 2-1.8.3-.4.4-.8.4-1.2 0-.4-.1-.7-.4-1s-.7-.4-1.1-.4c-.5 0-.8.1-1.1.4-.3.3-.5.8-.6 1.5l-3.6-.3c.1-1 .4-1.8.8-2.4.4-.6.9-1 1.6-1.3.7-.3 1.6-.5 2.8-.5 1.3 0 2.2.1 2.9.4.7.3 1.3.7 1.7 1.3.4.6.6 1.3.6 2 0 .8-.2 1.5-.7 2.3-.5.7-1.3 1.5-2.5 2.4-.7.5-1.2.9-1.4 1.1-.2.2-.5.5-.9.8h5.6v3zM597.5 509.5c0-2.4.4-4.2 1.3-5.1.9-1 2.2-1.5 4-1.5.9 0 1.6.1 2.1.3.6.2 1 .5 1.4.8.4.3.6.7.8 1.1.2.4.4.8.5 1.3.2 1 .4 2 .4 3 0 2.3-.4 4.1-1.2 5.1s-2.1 1.6-4.1 1.6c-1.1 0-2-.2-2.6-.5-.7-.3-1.2-.8-1.6-1.5-.3-.5-.6-1.1-.7-1.9-.2-.8-.3-1.7-.3-2.7zm3.5 0c0 1.6.2 2.8.4 3.4.3.6.7.9 1.3.9.4 0 .7-.1.9-.4.3-.3.5-.7.6-1.2.1-.6.2-1.4.2-2.6 0-1.7-.2-2.9-.4-3.4-.3-.6-.7-.9-1.3-.9-.6 0-1 .3-1.3.9-.2.6-.4 1.7-.4 3.3zM615.7 513.5h-6.5v-2.9l6.5-7.8h3.1v7.9h1.6v2.8h-1.6v2.4h-3.1v-2.4zm0-2.8v-4.1l-3.4 4.1h3.4z"/></g><g class="st1"><path class="st0" d="M707.3 516h-10.7c.1-1.1.5-2.1 1.1-3 .6-.9 1.8-2 3.5-3.3 1-.8 1.7-1.4 2-1.8.3-.4.4-.8.4-1.2 0-.4-.1-.7-.4-1s-.7-.4-1.1-.4c-.5 0-.8.1-1.1.4-.3.3-.5.8-.6 1.5l-3.6-.3c.1-1 .4-1.8.8-2.4.4-.6.9-1 1.6-1.3.7-.3 1.6-.5 2.8-.5 1.3 0 2.2.1 2.9.4.7.3 1.3.7 1.7 1.3.4.6.6 1.3.6 2 0 .8-.2 1.5-.7 2.3-.5.7-1.3 1.5-2.5 2.4-.7.5-1.2.9-1.4 1.1-.2.2-.5.5-.9.8h5.6v3zM708.8 509.5c0-2.4.4-4.2 1.3-5.1.9-1 2.2-1.5 4-1.5.9 0 1.6.1 2.1.3.6.2 1 .5 1.4.8.4.3.6.7.8 1.1.2.4.4.8.5 1.3.2 1 .4 2 .4 3 0 2.3-.4 4.1-1.2 5.1s-2.1 1.6-4.1 1.6c-1.1 0-2-.2-2.6-.5-.7-.3-1.2-.8-1.6-1.5-.3-.5-.6-1.1-.7-1.9-.2-.8-.3-1.7-.3-2.7zm3.5 0c0 1.6.2 2.8.4 3.4.3.6.7.9 1.3.9.4 0 .7-.1.9-.4.3-.3.5-.7.6-1.2.1-.6.2-1.4.2-2.6 0-1.7-.2-2.9-.4-3.4-.3-.6-.7-.9-1.3-.9-.6 0-1 .3-1.3.9-.2.6-.4 1.7-.4 3.3zM722.2 503.1h8.5v2.9h-5.8l-.3 1.9c.4-.2.8-.3 1.2-.4.4-.1.8-.1 1.2-.1 1.3 0 2.3.4 3.1 1.2.8.8 1.2 1.8 1.2 2.9 0 .8-.2 1.6-.6 2.4s-1 1.4-1.8 1.8-1.7.6-2.9.6c-.8 0-1.6-.1-2.2-.2-.6-.2-1.1-.4-1.5-.7-.4-.3-.8-.7-1-1.1-.3-.4-.5-.9-.7-1.5l3.6-.4c.1.6.3 1 .6 1.3.3.3.7.4 1.2.4s.9-.2 1.2-.6c.3-.4.5-.9.5-1.7 0-.8-.2-1.3-.5-1.7s-.8-.5-1.3-.5c-.3 0-.7.1-1 .3-.2.1-.5.3-.8.7l-3.1-.4 1.2-7.1z"/></g><g class="st1"><path class="st0" d="M809.8 516h-10.7c.1-1.1.5-2.1 1.1-3 .6-.9 1.8-2 3.5-3.3 1-.8 1.7-1.4 2-1.8.3-.4.4-.8.4-1.2 0-.4-.1-.7-.4-1s-.7-.4-1.1-.4c-.5 0-.8.1-1.1.4-.3.3-.5.8-.6 1.5l-3.6-.3c.1-1 .4-1.8.8-2.4.4-.6.9-1 1.6-1.3.7-.3 1.6-.5 2.8-.5 1.3 0 2.2.1 2.9.4.7.3 1.3.7 1.7 1.3.4.6.6 1.3.6 2 0 .8-.2 1.5-.7 2.3-.5.7-1.3 1.5-2.5 2.4-.7.5-1.2.9-1.4 1.1-.2.2-.5.5-.9.8h5.6v3zM811.3 509.5c0-2.4.4-4.2 1.3-5.1.9-1 2.2-1.5 4-1.5.9 0 1.6.1 2.1.3.6.2 1 .5 1.4.8.4.3.6.7.8 1.1.2.4.4.8.5 1.3.2 1 .4 2 .4 3 0 2.3-.4 4.1-1.2 5.1s-2.1 1.6-4.1 1.6c-1.1 0-2-.2-2.6-.5-.7-.3-1.2-.8-1.6-1.5-.3-.5-.6-1.1-.7-1.9-.2-.8-.3-1.7-.3-2.7zm3.5 0c0 1.6.2 2.8.4 3.4.3.6.7.9 1.3.9.4 0 .7-.1.9-.4.3-.3.5-.7.6-1.2.1-.6.2-1.4.2-2.6 0-1.7-.2-2.9-.4-3.4-.3-.6-.7-.9-1.3-.9-.6 0-1 .3-1.3.9-.2.6-.4 1.7-.4 3.3zM833.6 505.9l-3.6.5c-.1-.5-.3-.8-.5-1.1-.2-.2-.5-.3-.8-.3-.6 0-1 .3-1.4.9-.2.4-.4 1.3-.5 2.7.4-.4.9-.8 1.3-1s1-.3 1.6-.3c1.1 0 2.1.4 2.9 1.2.8.8 1.2 1.9 1.2 3.1 0 .8-.2 1.6-.6 2.3-.4.7-1 1.2-1.7 1.6-.7.4-1.6.5-2.7.6-1.3 0-2.3-.2-3.1-.6-.8-.4-1.4-1.1-1.9-2.1s-.7-2.2-.7-3.8c0-2.3.5-4 1.4-5.1 1-1.1 2.3-1.6 4.1-1.6 1 0 1.8.1 2.4.3.6.2 1.1.6 1.5 1 .6.5.9 1 1.1 1.7zm-6.5 5.8c0 .7.2 1.2.5 1.6.4.4.8.6 1.3.6s.9-.2 1.2-.5.5-.9.5-1.6c0-.7-.2-1.3-.5-1.7s-.7-.6-1.2-.6-.9.2-1.2.6-.6.9-.6 1.6z"/></g><g class="st1"><path class="st0" d="M916.1 516h-10.7c.1-1.1.5-2.1 1.1-3 .6-.9 1.8-2 3.5-3.3 1-.8 1.7-1.4 2-1.8.3-.4.4-.8.4-1.2 0-.4-.1-.7-.4-1s-.7-.4-1.1-.4c-.5 0-.8.1-1.1.4-.3.3-.5.8-.6 1.5l-3.6-.3c.1-1 .4-1.8.8-2.4.4-.6.9-1 1.6-1.3.7-.3 1.6-.5 2.8-.5 1.3 0 2.2.1 2.9.4.7.3 1.3.7 1.7 1.3.4.6.6 1.3.6 2 0 .8-.2 1.5-.7 2.3-.5.7-1.3 1.5-2.5 2.4-.7.5-1.2.9-1.4 1.1-.2.2-.5.5-.9.8h5.6v3zM917.6 509.5c0-2.4.4-4.2 1.3-5.1.9-1 2.2-1.5 4-1.5.9 0 1.6.1 2.1.3.6.2 1 .5 1.4.8.4.3.6.7.8 1.1.2.4.4.8.5 1.3.2 1 .4 2 .4 3 0 2.3-.4 4.1-1.2 5.1s-2.1 1.6-4.1 1.6c-1.1 0-2-.2-2.6-.5-.7-.3-1.2-.8-1.6-1.5-.3-.5-.6-1.1-.7-1.9-.2-.8-.3-1.7-.3-2.7zm3.6 0c0 1.6.2 2.8.4 3.4.3.6.7.9 1.3.9.4 0 .7-.1.9-.4.3-.3.5-.7.6-1.2.1-.6.2-1.4.2-2.6 0-1.7-.2-2.9-.4-3.4-.3-.6-.7-.9-1.3-.9-.6 0-1 .3-1.3.9-.3.6-.4 1.7-.4 3.3zM929.7 503.1h10.5v2.4c-.9.8-1.7 1.7-2.3 2.7-.7 1.2-1.3 2.5-1.7 3.9-.3 1.1-.6 2.4-.7 3.9h-3.6c.3-2.1.7-3.9 1.3-5.3.6-1.4 1.5-3 2.8-4.6h-6.4l.1-3z"/></g><g class="st1"><path class="st0" d="M1011.9 516h-10.7c.1-1.1.5-2.1 1.1-3 .6-.9 1.8-2 3.5-3.3 1-.8 1.7-1.4 2-1.8.3-.4.4-.8.4-1.2 0-.4-.1-.7-.4-1s-.7-.4-1.1-.4c-.5 0-.8.1-1.1.4-.3.3-.5.8-.6 1.5l-3.6-.3c.1-1 .4-1.8.8-2.4.4-.6.9-1 1.6-1.3.7-.3 1.6-.5 2.8-.5 1.3 0 2.2.1 2.9.4.7.3 1.3.7 1.7 1.3.4.6.6 1.3.6 2 0 .8-.2 1.5-.7 2.3-.5.7-1.3 1.5-2.5 2.4-.7.5-1.2.9-1.4 1.1s-.5.5-.9.8h5.6v3zM1013.4 509.5c0-2.4.4-4.2 1.3-5.1.9-1 2.2-1.5 4-1.5.9 0 1.6.1 2.1.3.6.2 1 .5 1.4.8.4.3.6.7.8 1.1.2.4.4.8.5 1.3.2 1 .4 2 .4 3 0 2.3-.4 4.1-1.2 5.1-.8 1.1-2.1 1.6-4.1 1.6-1.1 0-2-.2-2.6-.5-.7-.3-1.2-.8-1.6-1.5-.3-.5-.6-1.1-.7-1.9-.2-.8-.3-1.7-.3-2.7zm3.5 0c0 1.6.2 2.8.4 3.4.3.6.7.9 1.3.9.4 0 .7-.1.9-.4.3-.3.5-.7.6-1.2.1-.6.2-1.4.2-2.6 0-1.7-.2-2.9-.4-3.4-.3-.6-.7-.9-1.3-.9-.6 0-1 .3-1.3.9-.3.6-.4 1.7-.4 3.3zM1027.5 509c-.6-.3-1-.6-1.2-1-.4-.5-.5-1.1-.5-1.7 0-1.1.5-2 1.5-2.7.8-.5 1.8-.8 3.1-.8 1.7 0 3 .3 3.8 1 .8.7 1.2 1.5 1.2 2.5 0 .6-.2 1.1-.5 1.6-.2.4-.6.7-1.2 1.1.7.3 1.2.8 1.6 1.3.3.5.5 1.2.5 1.8 0 .6-.1 1.2-.4 1.8-.3.6-.7 1-1.1 1.3s-1 .5-1.6.7c-.6.1-1.3.2-2.1.2-1.4 0-2.4-.2-3.1-.5-.7-.3-1.3-.8-1.6-1.4-.4-.6-.6-1.3-.6-2.1s.2-1.4.5-1.9c.5-.5 1-.9 1.7-1.2zm1.5 3c0 .6.2 1 .5 1.4.3.4.7.5 1.2.5.4 0 .8-.2 1.1-.6.3-.4.5-.8.5-1.4 0-.6-.2-1-.5-1.4-.3-.4-.7-.5-1.2-.5-.4 0-.8.2-1.2.5-.3.4-.4.9-.4 1.5zm.1-5.5c0 .4.1.8.4 1.1.3.3.7.4 1.1.4.4 0 .7-.1 1-.4s.4-.6.4-1-.1-.8-.4-1.1c-.3-.3-.6-.4-1.1-.4-.4 0-.8.1-1.1.4-.1.2-.3.5-.3 1z"/></g><g class="st1"><path class="st0" d="M1112.2 516h-10.7c.1-1.1.5-2.1 1.1-3 .6-.9 1.8-2 3.5-3.3 1-.8 1.7-1.4 2-1.8s.4-.8.4-1.2c0-.4-.1-.7-.4-1s-.7-.4-1.1-.4c-.5 0-.8.1-1.1.4s-.5.8-.6 1.5l-3.6-.3c.1-1 .4-1.8.8-2.4.4-.6.9-1 1.6-1.3.7-.3 1.6-.5 2.8-.5 1.3 0 2.2.1 2.9.4s1.3.7 1.7 1.3c.4.6.6 1.3.6 2 0 .8-.2 1.5-.7 2.3-.5.7-1.3 1.5-2.5 2.4-.7.5-1.2.9-1.4 1.1-.2.2-.5.5-.9.8h5.6v3zM1113.7 509.5c0-2.4.4-4.2 1.3-5.1.9-1 2.2-1.5 4-1.5.9 0 1.6.1 2.1.3.6.2 1 .5 1.4.8.4.3.6.7.8 1.1.2.4.4.8.5 1.3.2 1 .4 2 .4 3 0 2.3-.4 4.1-1.2 5.1-.8 1.1-2.1 1.6-4.1 1.6-1.1 0-2-.2-2.6-.5-.7-.3-1.2-.8-1.6-1.5-.3-.5-.6-1.1-.7-1.9s-.3-1.7-.3-2.7zm3.6 0c0 1.6.2 2.8.4 3.4.3.6.7.9 1.3.9.4 0 .7-.1.9-.4.3-.3.5-.7.6-1.2.1-.6.2-1.4.2-2.6 0-1.7-.2-2.9-.4-3.4-.3-.6-.7-.9-1.3-.9-.6 0-1 .3-1.3.9-.3.6-.4 1.7-.4 3.3zM1125.9 513.1l3.6-.5c.1.5.3.8.5 1.1.2.2.5.3.8.3.6 0 1-.3 1.3-.9.2-.4.4-1.3.5-2.7-.4.4-.9.8-1.3 1s-1 .3-1.6.3c-1.2 0-2.1-.4-2.9-1.2s-1.2-1.9-1.2-3.1c0-.9.2-1.6.6-2.3.4-.7 1-1.2 1.7-1.6.7-.4 1.6-.5 2.7-.6 1.3 0 2.3.2 3.1.7.8.4 1.4 1.1 1.9 2.1s.7 2.2.7 3.8c0 2.3-.5 4-1.4 5.1-1 1.1-2.3 1.6-4.1 1.6-1 0-1.8-.1-2.4-.3-.6-.2-1.1-.6-1.5-1s-.8-1.2-1-1.8zm6.6-5.8c0-.7-.2-1.2-.5-1.6-.4-.4-.8-.6-1.3-.6s-.9.2-1.2.5c-.3.4-.5.9-.5 1.6 0 .7.2 1.3.5 1.7.3.4.7.6 1.2.6s.9-.2 1.3-.6c.3-.4.5-.9.5-1.6z"/></g><g class="st1"><path class="st0" d="M1219.4 516h-10.7c.1-1.1.5-2.1 1.1-3 .6-.9 1.8-2 3.5-3.3 1-.8 1.7-1.4 2-1.8.3-.4.4-.8.4-1.2 0-.4-.1-.7-.4-1s-.7-.4-1.1-.4c-.5 0-.8.1-1.1.4-.3.3-.5.8-.6 1.5l-3.6-.3c.1-1 .4-1.8.8-2.4.4-.6.9-1 1.6-1.3.7-.3 1.6-.5 2.8-.5 1.3 0 2.2.1 2.9.4s1.3.7 1.7 1.3c.4.6.6 1.3.6 2 0 .8-.2 1.5-.7 2.3-.5.7-1.3 1.5-2.5 2.4-.7.5-1.2.9-1.4 1.1s-.5.5-.9.8h5.6v3zM1229 502.9l.1 13.1h-3.6v-8.6c-.6.4-1.2.8-1.7 1.1-.5.3-1.2.5-2.1.8v-2.9c1.2-.4 2.2-.9 2.8-1.4.7-.6 1.2-1.2 1.6-2l2.9-.1zM1232.9 509.4c0-2.4.4-4.2 1.3-5.1s2.2-1.5 4-1.5c.9 0 1.6.1 2.1.3.6.2 1 .5 1.4.8.4.3.6.7.8 1.1.2.4.4.8.5 1.3.2 1 .4 2 .4 3 0 2.3-.4 4-1.2 5.1-.8 1.1-2.1 1.6-4.1 1.6-1.1 0-2-.2-2.6-.5-.7-.3-1.2-.8-1.7-1.5-.3-.5-.6-1.1-.7-1.9-.1-.7-.2-1.7-.2-2.7zm3.6 0c0 1.6.2 2.8.4 3.4.3.6.7.9 1.3.9.4 0 .7-.1.9-.4.3-.3.5-.7.6-1.2.1-.6.2-1.4.2-2.6 0-1.7-.2-2.9-.4-3.4-.3-.6-.7-.9-1.3-.9-.6 0-1 .3-1.3.9-.3.6-.4 1.7-.4 3.3z"/></g><g class="st1"><path class="st0" d="M1308.4 516h-10.7c.1-1.1.5-2.1 1.1-3 .6-.9 1.8-2 3.5-3.3 1-.8 1.7-1.4 2-1.8.3-.4.4-.8.4-1.2 0-.4-.1-.7-.4-1s-.7-.4-1.1-.4c-.5 0-.8.1-1.1.4-.3.3-.5.8-.6 1.5l-3.6-.3c.1-1 .4-1.8.8-2.4.4-.6.9-1 1.6-1.3.7-.3 1.6-.5 2.8-.5 1.3 0 2.2.1 2.9.4.7.3 1.3.7 1.7 1.3.4.6.6 1.3.6 2 0 .8-.2 1.5-.7 2.3-.5.7-1.3 1.5-2.5 2.4-.7.5-1.2.9-1.4 1.1s-.5.5-.9.8h5.6v3zM1318 502.8l.1 13.1h-3.6v-8.6c-.6.4-1.2.8-1.7 1.1-.5.3-1.2.5-2.1.8v-2.9c1.2-.4 2.2-.9 2.8-1.4.7-.6 1.2-1.2 1.6-2l2.9-.1zM1330 502.8l.1 13.1h-3.6v-8.6c-.6.4-1.2.8-1.7 1.1-.5.3-1.2.5-2.1.8v-2.9c1.2-.4 2.2-.9 2.8-1.4.7-.6 1.2-1.2 1.6-2l2.9-.1z"/></g><g class="st1"><path class="st0" d="M1401.7 516H1391c.1-1.1.5-2.1 1.1-3 .6-.9 1.8-2 3.5-3.3 1-.8 1.7-1.4 2-1.8s.4-.8.4-1.2c0-.4-.1-.7-.4-1s-.7-.4-1.1-.4c-.5 0-.8.1-1.1.4s-.5.8-.6 1.5l-3.6-.3c.1-1 .4-1.8.8-2.4.4-.6.9-1 1.6-1.3.7-.3 1.6-.5 2.8-.5 1.3 0 2.2.1 2.9.4s1.3.7 1.7 1.3c.4.6.6 1.3.6 2 0 .8-.2 1.5-.7 2.3-.5.7-1.3 1.5-2.5 2.4-.7.5-1.2.9-1.4 1.1-.2.2-.5.5-.9.8h5.6v3zM1411.3 502.8l.1 13.1h-3.6v-8.6c-.6.4-1.1.8-1.7 1.1s-1.2.5-2.1.8v-2.9c1.2-.4 2.2-.9 2.8-1.4.7-.6 1.2-1.2 1.6-2l2.9-.1zM1425.7 515.9H1415c.1-1.1.5-2.1 1.1-3 .6-.9 1.8-2 3.5-3.3 1-.8 1.7-1.4 2-1.8.3-.4.4-.8.4-1.2 0-.4-.1-.7-.4-1-.3-.3-.7-.4-1.1-.4-.5 0-.8.1-1.1.4-.3.3-.5.8-.6 1.5l-3.6-.3c.1-1 .4-1.8.8-2.4.4-.6.9-1 1.6-1.3.7-.3 1.6-.5 2.8-.5 1.3 0 2.2.1 2.9.4s1.3.7 1.7 1.3c.4.6.6 1.3.6 2 0 .8-.2 1.5-.7 2.3-.5.7-1.3 1.5-2.5 2.4-.7.5-1.2.9-1.4 1.1-.2.2-.5.5-.9.8h5.6v3z"/></g><g class="st1"><path class="st0" d="M1500.2 516h-10.7c.1-1.1.5-2.1 1.1-3 .6-.9 1.8-2 3.5-3.3 1-.8 1.7-1.4 2-1.8.3-.4.4-.8.4-1.2 0-.4-.1-.7-.4-1s-.7-.4-1.1-.4c-.5 0-.8.1-1.1.4-.3.3-.5.8-.6 1.5l-3.6-.3c.1-1 .4-1.8.8-2.4.4-.6.9-1 1.6-1.3.7-.3 1.6-.5 2.8-.5 1.3 0 2.2.1 2.9.4.7.3 1.3.7 1.7 1.3.4.6.6 1.3.6 2 0 .8-.2 1.5-.7 2.3-.5.7-1.3 1.5-2.5 2.4-.7.5-1.2.9-1.4 1.1s-.5.5-.9.8h5.6v3zM1509.8 502.8l.1 13.1h-3.6v-8.6c-.6.4-1.2.8-1.7 1.1-.5.3-1.2.5-2.1.8v-2.9c1.2-.4 2.2-.9 2.8-1.4.7-.6 1.2-1.2 1.6-2l2.9-.1zM1517.2 506.8l-3.4-.6c.3-1.1.8-1.9 1.6-2.5.8-.6 1.9-.9 3.4-.9 1.7 0 2.9.3 3.7.9s1.1 1.4 1.1 2.4c0 .6-.1 1.1-.5 1.5s-.8.8-1.4 1.2c.5.1.9.3 1.1.4.4.3.8.6 1 1 .2.4.4.9.4 1.5 0 .8-.2 1.5-.6 2.2-.4.7-1 1.2-1.7 1.6-.7.4-1.7.6-2.9.6s-2.1-.1-2.8-.4-1.2-.7-1.7-1.2c-.4-.5-.8-1.2-1-2l3.6-.5c.1.7.4 1.2.7 1.5.3.3.7.4 1.1.4.5 0 .9-.2 1.2-.5.3-.4.5-.8.5-1.4 0-.6-.2-1.1-.5-1.4-.3-.3-.7-.5-1.3-.5-.3 0-.7.1-1.2.2l.2-2.6h.5c.5 0 .9-.2 1.2-.5.3-.3.5-.7.5-1.1 0-.4-.1-.7-.4-.9s-.6-.3-1-.3-.8.1-1 .4c-.2.4-.4.8-.4 1.5z"/></g><g class="st1"><path class="st0" d="M361.2 121.6v10.7c-1.1-.1-2.1-.5-3-1.1-.9-.6-2-1.8-3.3-3.5-.8-1-1.4-1.7-1.8-2s-.8-.4-1.2-.4c-.4 0-.7.1-1 .4-.3.3-.4.7-.4 1.1 0 .5.1.8.4 1.1.3.3.8.5 1.5.6l-.3 3.6c-1-.1-1.8-.4-2.4-.8-.6-.4-1-.9-1.3-1.6-.3-.7-.5-1.6-.5-2.8 0-1.3.1-2.2.4-2.9.3-.7.7-1.3 1.3-1.7.6-.4 1.3-.6 2-.6.8 0 1.5.2 2.3.7s1.5 1.3 2.4 2.5c.5.7.9 1.2 1.1 1.4.2.2.5.5.8.9v-5.6h3zM352.1 116.7l-.6 3.4c-1.1-.3-1.9-.8-2.5-1.6-.6-.8-.9-1.9-.9-3.4 0-1.7.3-2.9.9-3.7s1.4-1.1 2.4-1.1c.6 0 1.1.1 1.5.5.5.3.8.8 1.2 1.4.1-.5.3-.9.4-1.1.3-.4.6-.8 1-1 .4-.2.9-.4 1.5-.4.8 0 1.5.2 2.2.6.7.4 1.2 1 1.6 1.7.4.7.6 1.7.6 2.9s-.1 2.1-.4 2.8-.7 1.2-1.2 1.7c-.5.4-1.2.8-2 1l-.5-3.6c.7-.1 1.2-.4 1.5-.7.3-.3.4-.7.4-1.1 0-.5-.2-.9-.5-1.2-.4-.3-.8-.5-1.4-.5-.6 0-1.1.2-1.4.5-.3.3-.5.7-.5 1.3 0 .3.1.7.2 1.2l-2.6-.2v-.5c0-.5-.2-.9-.5-1.2-.3-.3-.7-.5-1.1-.5-.4 0-.7.1-.9.4s-.3.6-.3 1 .1.8.4 1c.4.1.8.3 1.5.4zM348 100l13.1-.1v3.6h-8.6c.4.6.8 1.1 1.1 1.7.3.5.5 1.2.8 2.1h-2.9c-.4-1.2-.9-2.2-1.4-2.8-.6-.7-1.2-1.2-2-1.6l-.1-2.9z"/></g><g class="st1"><path class="st0" d="M965.4 124.1v10.7c-1.1-.1-2.1-.5-3-1.1-.9-.6-2-1.8-3.3-3.5-.8-1-1.4-1.7-1.8-2s-.8-.4-1.2-.4c-.4 0-.7.1-1 .4-.3.3-.4.7-.4 1.1 0 .5.1.8.4 1.1.3.3.8.5 1.5.6l-.3 3.6c-1-.1-1.8-.4-2.4-.8-.6-.4-1-.9-1.3-1.6-.3-.7-.5-1.6-.5-2.8 0-1.3.1-2.2.4-2.9.3-.7.7-1.3 1.3-1.7.6-.4 1.3-.6 2-.6.8 0 1.5.2 2.3.7s1.5 1.3 2.4 2.5c.5.7.9 1.2 1.1 1.4.2.2.5.5.8.9v-5.6h3zM965.3 112.1v10.7c-1.1-.1-2.1-.5-3-1.1-.9-.6-2-1.8-3.3-3.5-.8-1-1.4-1.7-1.8-2-.4-.3-.8-.4-1.2-.4-.4 0-.7.1-1 .4-.3.3-.4.7-.4 1.1 0 .5.1.8.4 1.1.3.3.8.5 1.5.6l-.3 3.6c-1-.1-1.8-.4-2.4-.8-.6-.4-1-.9-1.3-1.6-.3-.7-.5-1.6-.5-2.8 0-1.3.1-2.2.4-2.9.3-.7.7-1.3 1.3-1.7.6-.4 1.3-.6 2-.6.8 0 1.5.2 2.3.7s1.5 1.3 2.4 2.5c.5.7.9 1.2 1.1 1.4.2.2.5.5.8.9v-5.6h3zM952.4 109.2v-8.5h2.9v5.8l1.9.3c-.2-.4-.3-.8-.4-1.2-.1-.4-.1-.8-.1-1.2 0-1.3.4-2.3 1.2-3.1.8-.8 1.8-1.2 2.9-1.2.8 0 1.6.2 2.4.6.8.4 1.4 1 1.8 1.8.4.8.6 1.7.6 2.9 0 .8-.1 1.6-.2 2.2-.2.6-.4 1.1-.7 1.5-.3.4-.7.8-1.1 1-.4.3-.9.5-1.5.7l-.4-3.6c.6-.1 1-.3 1.3-.6s.4-.7.4-1.2-.2-.9-.6-1.2c-.4-.3-.9-.5-1.7-.5-.8 0-1.3.2-1.7.5-.4.3-.5.8-.5 1.3 0 .3.1.7.3 1 .1.2.3.5.7.8l-.4 3.1-7.1-1.2z"/></g><g class="st1"><path class="st0" d="M1113.4 124.1v10.7c-1.1-.1-2.1-.5-3-1.1-.9-.6-2-1.8-3.3-3.5-.8-1-1.4-1.7-1.8-2s-.8-.4-1.2-.4c-.4 0-.7.1-1 .4-.3.3-.4.7-.4 1.1 0 .5.1.8.4 1.1.3.3.8.5 1.5.6l-.3 3.6c-1-.1-1.8-.4-2.4-.8-.6-.4-1-.9-1.3-1.6-.3-.7-.5-1.6-.5-2.8 0-1.3.1-2.2.4-2.9.3-.7.7-1.3 1.3-1.7.6-.4 1.3-.6 2-.6.8 0 1.5.2 2.3.7s1.5 1.3 2.4 2.5c.5.7.9 1.2 1.1 1.4.2.2.5.5.8.9v-5.6h3zM1113.3 112.1v10.7c-1.1-.1-2.1-.5-3-1.1-.9-.6-2-1.8-3.3-3.5-.8-1-1.4-1.7-1.8-2-.4-.3-.8-.4-1.2-.4-.4 0-.7.1-1 .4-.3.3-.4.7-.4 1.1 0 .5.1.8.4 1.1.3.3.8.5 1.5.6l-.3 3.6c-1-.1-1.8-.4-2.4-.8-.6-.4-1-.9-1.3-1.6-.3-.7-.5-1.6-.5-2.8 0-1.3.1-2.2.4-2.9.3-.7.7-1.3 1.3-1.7.6-.4 1.3-.6 2-.6.8 0 1.5.2 2.3.7s1.5 1.3 2.4 2.5c.5.7.9 1.2 1.1 1.4.2.2.5.5.8.9v-5.6h3zM1110.9 104.5v6.5h-2.9l-7.8-6.5v-3.1h7.9v-1.6h2.8v1.6h2.4v3.1h-2.4zm-2.8 0h-4.1l4.1 3.4v-3.4z"/></g><g class="st1"><path class="st0" d="M1165.9 124.1v10.7c-1.1-.1-2.1-.5-3-1.1-.9-.6-2-1.8-3.3-3.5-.8-1-1.4-1.7-1.8-2s-.8-.4-1.2-.4c-.4 0-.7.1-1 .4-.3.3-.4.7-.4 1.1 0 .5.1.8.4 1.1.3.3.8.5 1.5.6l-.3 3.6c-1-.1-1.8-.4-2.4-.8-.6-.4-1-.9-1.3-1.6-.3-.7-.5-1.6-.5-2.8 0-1.3.1-2.2.4-2.9.3-.7.7-1.3 1.3-1.7.6-.4 1.3-.6 2-.6.8 0 1.5.2 2.3.7s1.5 1.3 2.4 2.5c.5.7.9 1.2 1.1 1.4.2.2.5.5.8.9v-5.6h3zM1165.8 112.1v10.7c-1.1-.1-2.1-.5-3-1.1-.9-.6-2-1.8-3.3-3.5-.8-1-1.4-1.7-1.8-2-.4-.3-.8-.4-1.2-.4-.4 0-.7.1-1 .4-.3.3-.4.7-.4 1.1 0 .5.1.8.4 1.1.3.3.8.5 1.5.6l-.3 3.6c-1-.1-1.8-.4-2.4-.8-.6-.4-1-.9-1.3-1.6-.3-.7-.5-1.6-.5-2.8 0-1.3.1-2.2.4-2.9.3-.7.7-1.3 1.3-1.7.6-.4 1.3-.6 2-.6.8 0 1.5.2 2.3.7s1.5 1.3 2.4 2.5c.5.7.9 1.2 1.1 1.4.2.2.5.5.8.9v-5.6h3zM1156.6 107.2l-.6 3.4c-1.1-.3-1.9-.8-2.5-1.6-.6-.8-.9-1.9-.9-3.4 0-1.7.3-2.9.9-3.7s1.4-1.1 2.4-1.1c.6 0 1.1.1 1.5.5.5.3.8.8 1.2 1.4.1-.5.3-.9.4-1.1.3-.4.6-.8 1-1 .4-.2.9-.4 1.5-.4.8 0 1.5.2 2.2.6.7.4 1.2 1 1.6 1.7.4.7.6 1.7.6 2.9s-.1 2.1-.4 2.8-.7 1.2-1.2 1.7c-.5.4-1.2.8-2 1l-.5-3.6c.7-.1 1.2-.4 1.5-.7.3-.3.4-.7.4-1.1 0-.5-.2-.9-.5-1.2-.4-.3-.8-.5-1.4-.5-.6 0-1.1.2-1.4.5-.3.3-.5.7-.5 1.3 0 .3.1.7.2 1.2l-2.6-.2v-.5c0-.5-.2-.9-.5-1.2-.3-.3-.7-.5-1.1-.5-.4 0-.7.1-.9.4s-.3.6-.3 1 .1.8.4 1c.4.1.9.3 1.5.4z"/></g><g class="st1"><path class="st0" d="M1719.8 129.9v10.7c-1.1-.1-2.1-.5-3-1.1-.9-.6-2-1.8-3.3-3.5-.8-1-1.4-1.7-1.8-2s-.8-.4-1.2-.4c-.4 0-.7.1-1 .4-.3.3-.4.7-.4 1.1 0 .5.1.8.4 1.1.3.3.8.5 1.5.6l-.3 3.6c-1-.1-1.8-.4-2.4-.8-.6-.4-1-.9-1.3-1.6-.3-.7-.5-1.6-.5-2.8 0-1.3.1-2.2.4-2.9.3-.7.7-1.3 1.3-1.7.6-.4 1.3-.6 2-.6.8 0 1.5.2 2.3.7s1.5 1.3 2.4 2.5c.5.7.9 1.2 1.1 1.4.2.2.5.5.8.9v-5.6h3zM1706.6 120.3l13.1-.1v3.6h-8.6c.4.6.8 1.1 1.1 1.7.3.5.5 1.2.8 2.1h-2.9c-.4-1.2-.9-2.2-1.4-2.8-.6-.7-1.2-1.2-2-1.6l-.1-2.9zM1709.7 106l.5 3.6c-.5.1-.8.3-1.1.5-.2.2-.3.5-.3.8 0 .6.3 1 .9 1.4.4.2 1.3.4 2.7.5-.4-.4-.8-.9-1-1.3-.2-.5-.3-1-.3-1.6 0-1.1.4-2.1 1.2-2.9.8-.8 1.9-1.2 3.1-1.2.8 0 1.6.2 2.3.6s1.2 1 1.6 1.7c.4.7.5 1.6.6 2.7 0 1.3-.2 2.3-.6 3.1s-1.1 1.4-2.1 1.9-2.2.7-3.8.7c-2.3 0-4-.5-5.1-1.4-1.1-1-1.6-2.3-1.6-4.1 0-1 .1-1.8.3-2.4.2-.6.6-1.1 1-1.5.4-.6 1-.9 1.7-1.1zm5.8 6.6c.7 0 1.2-.2 1.6-.5.4-.4.6-.8.6-1.3s-.2-.9-.5-1.2-.9-.5-1.6-.5c-.7 0-1.3.2-1.7.5-.4.3-.6.7-.6 1.2s.2.9.6 1.3c.3.3.9.5 1.6.5zM1713.3 100.7l-.3 3.4c-.6-.1-1.1-.3-1.4-.6-.3-.2-.6-.6-.9-1-.2-.3-.3-.8-.4-1.4s-.2-1.2-.2-1.9c0-1.1.1-1.9.2-2.6.1-.7.4-1.2.7-1.6.3-.3.6-.5 1.1-.7.5-.2.9-.3 1.4-.3h4.1c.4 0 .8 0 1-.1s.6-.2 1-.4v3.4c-.2.1-.4.2-.5.3s-.3.1-.6.1c.5.5.8.9 1 1.4.3.6.4 1.4.4 2.2 0 1.1-.2 2-.8 2.5-.5.6-1.1.9-1.9.9-.7 0-1.3-.2-1.8-.6-.5-.4-.8-1.2-1-2.3-.3-1.3-.5-2.2-.6-2.6-.1-.4-.3-.8-.4-1.3-.4 0-.7.1-.9.3-.2.2-.3.5-.3 1 0 .6.1 1 .3 1.3.2.3.4.5.8.6zm1.9-3.1c.2.5.3 1 .5 1.5.2.7.4 1.2.6 1.4.2.2.4.3.7.3.3 0 .5-.1.7-.3.2-.2.3-.5.3-.9s-.1-.8-.3-1.1c-.2-.3-.4-.6-.7-.7-.3-.1-.6-.2-1.1-.2h-.7z"/></g><g class="st1"><path class="st0" d="M303.3 480.7h-10.7c.1-1.1.5-2.1 1.1-3 .6-.9 1.8-2 3.5-3.3 1-.8 1.7-1.4 2-1.8.3-.4.4-.8.4-1.2 0-.4-.1-.7-.4-1s-.7-.4-1.1-.4c-.5 0-.8.1-1.1.4-.3.3-.5.8-.6 1.5l-3.6-.3c.1-1 .4-1.8.8-2.4.4-.6.9-1 1.6-1.3.7-.3 1.6-.5 2.8-.5 1.3 0 2.2.1 2.9.4.7.3 1.3.7 1.7 1.3.4.6.6 1.3.6 2 0 .8-.2 1.5-.7 2.3-.5.7-1.3 1.5-2.5 2.4-.7.5-1.2.9-1.4 1.1-.2.2-.5.5-.9.8h5.6v3zM304.8 474.2c0-2.4.4-4.2 1.3-5.1.9-1 2.2-1.5 4-1.5.9 0 1.6.1 2.1.3.6.2 1 .5 1.4.8.4.3.6.7.8 1.1.2.4.4.8.5 1.3.2 1 .4 2 .4 3 0 2.3-.4 4.1-1.2 5.1s-2.1 1.6-4.1 1.6c-1.1 0-2-.2-2.6-.5-.7-.3-1.2-.8-1.6-1.5-.3-.5-.6-1.1-.7-1.9-.2-.8-.3-1.7-.3-2.7zm3.6 0c0 1.6.2 2.8.4 3.4.3.6.7.9 1.3.9.4 0 .7-.1.9-.4.3-.3.5-.7.6-1.2.1-.6.2-1.4.2-2.6 0-1.7-.2-2.9-.4-3.4-.3-.6-.7-.9-1.3-.9-.6 0-1 .3-1.3.9-.3.6-.4 1.7-.4 3.3zM324.9 467.5l.1 13.1h-3.6V472c-.6.4-1.1.8-1.7 1.1-.5.3-1.2.5-2.1.8V471c1.2-.4 2.2-.9 2.8-1.4.7-.6 1.2-1.2 1.6-2l2.9-.1z"/></g><path class="st0" d="M248.8 327.1c-2.6 2.7-4.4 5.3-4.1 6.1.9 2 9.4 9.5 10.4 9 1.6-.8 1.3-3.8-.7-5.3-1.1-.8-1.7-1.7-1.5-2 .2-.2 7-.5 15.1-.6 21-.5 23.9-1 21.5-4-.8-1-21.8-1-34.6-.2l-2.9.3 2-2.4c1.9-2.4 2-5.2.3-5.4-.5-.1-3 1.9-5.5 4.5zM287.7 357.6c2.7-2.7 4.4-5.3 4.1-6-.8-2-9.3-9.6-10.3-9.1-1.6.8-1.3 3.8.6 5.3 1.1.9 1.7 1.7 1.5 2-.2.2-7 .4-15.1.4-21 .3-23.9.8-21.6 3.8.8 1 21.8 1.2 34.6.5l2.9-.2-2 2.4c-1.9 2.4-2.1 5.2-.3 5.4.5 0 3-1.9 5.6-4.5z"/><g class="st1"><path class="st0" d="m5.8 588.7 9.9-.1c1.7 0 2.9.4 3.8 1.2.9.8 1.3 1.8 1.4 3 0 1-.3 1.9-.9 2.6-.4.5-1 .9-1.8 1.2 1.2.3 2.1.8 2.7 1.5.6.7.9 1.6.9 2.7 0 .9-.2 1.7-.6 2.4-.4.7-1 1.3-1.7 1.7-.4.3-1.1.5-2 .6-1.2.2-2 .3-2.4.3l-9.1.1-.2-17.2zm5.5 6.7h2.3c.8 0 1.4-.2 1.7-.4s.5-.7.5-1.2-.2-.9-.5-1.2c-.3-.3-.9-.4-1.7-.4h-2.3v3.2zm0 6.8H14c.9 0 1.6-.2 1.9-.5.4-.3.6-.8.6-1.3s-.2-.9-.6-1.2c-.4-.3-1-.5-2-.4h-2.7l.1 3.4zM23.2 593.3l5.7-.1 2 3.5 2.3-3.5h5.3l-4.2 6 4.6 6.5-5.6.1-2.3-4-2.7 4h-5.2l4.5-6.6-4.4-5.9zM39.7 599.4c0-1.9.6-3.5 1.9-4.7 1.3-1.2 3-1.9 5.2-1.9 2.5 0 4.4.7 5.7 2.1 1 1.2 1.6 2.6 1.6 4.3 0 1.9-.6 3.5-1.9 4.7-1.3 1.2-3 1.9-5.3 1.9-2 0-3.6-.5-4.9-1.5-1.5-1.2-2.3-2.9-2.3-4.9zm4.8-.1c0 1.1.2 1.9.7 2.5.5.5 1 .8 1.7.8s1.2-.3 1.7-.8c.4-.5.6-1.4.6-2.5s-.2-1.9-.7-2.4c-.5-.5-1-.8-1.7-.8s-1.3.3-1.7.8c-.4.5-.6 1.4-.6 2.4zM70.5 608.9h-3.3v-3.6l-8.8.1v3.6h-3.3l-.1-7h1.2c.9-1.6 1.3-3.6 1.3-6.2V593l11.6-.1.1 9h1.3v7zm-6.1-7v-5.5h-2.3v.1c0 1.7-.3 3.5-1.1 5.4h3.4zM89.5 600.3l4.5.5c-.2.9-.6 1.8-1.2 2.5s-1.3 1.2-2.2 1.6-2 .6-3.4.6c-1.3 0-2.4-.1-3.3-.3-.9-.2-1.6-.6-2.3-1.2-.6-.5-1.1-1.2-1.5-1.9-.4-.7-.6-1.7-.6-2.9 0-1.3.2-2.3.6-3.2.3-.6.7-1.2 1.3-1.7.5-.5 1.1-.9 1.7-1.1.9-.4 2.1-.6 3.6-.6 2 0 3.6.3 4.7 1s1.8 1.8 2.3 3.2l-4.5.6c-.1-.5-.4-.9-.8-1.2-.4-.3-.9-.4-1.5-.4-.8 0-1.4.3-1.9.9-.5.6-.7 1.4-.7 2.6 0 1 .3 1.8.7 2.3.5.5 1.1.8 1.9.8.6 0 1.1-.2 1.6-.5.5-.5.8-1 1-1.6zM102.8 592.6h5l2.6 8.3 2.3-8.3h4.7l-4.8 13.3c-.5 1.5-1.1 2.6-1.7 3.1-.8.8-2.1 1.1-3.8 1.2-.7 0-1.8-.1-3.2-.3l-.4-3.3c.7.2 1.5.3 2.3.3.6 0 1-.1 1.4-.4.3-.3.6-.7.9-1.4l-5.3-12.5zM133.2 604.7h-4.8l-.1-9h-3.6v5.2c0 1.4-.3 2.4-.8 3.1-.6.7-1.4 1-2.6 1-1.3 0-2.5-.1-3.6-.3v-3.5c.6.2 1 .2 1.3.2.6 0 1-.5.9-1.4l-.1-7.7 13.2-.1.2 12.5zM150 604.6h-4.5l-.1-6.1-4.6 6.2h-4.5l-.1-12.4h4.5l.1 6.2 4.7-6.2h4.5v12.3zM168 608h-3.3v-3.6l-11.7.1-.1-12.4h4.8l.1 9h3.6l-.1-9h4.8l.1 9h1.8v6.9zM174.5 596.4h2.2c3.7 0 5.5 1.3 5.6 4 0 2.7-1.8 4-5.3 4l-7.1.1-.1-12.4h4.8l-.1 4.3zm0 5h1.6c.4 0 .7-.1 1-.3.2-.2.4-.4.4-.8 0-.8-.5-1.1-1.3-1.1h-1.6l-.1 2.2zm9-9.5h4.8l.1 12.4h-4.8l-.1-12.4zM215.5 604h-5.3l-.1-13H206v5.3c0 2.2-.1 3.8-.3 4.8-.2 1-.8 1.8-1.6 2.3-.8.5-2.2.7-4.1.8-.6 0-1.2-.1-2-.2v-3.5h.8c.7 0 1.2-.2 1.5-.5.3-.3.4-.9.4-1.7l-.1-11.4 14.8-.1.1 17.2zM218.1 597.8c0-1.9.6-3.5 1.9-4.7 1.3-1.2 3-1.9 5.2-1.9 2.5 0 4.4.7 5.7 2.1 1 1.2 1.6 2.6 1.6 4.3 0 1.9-.6 3.5-1.9 4.7-1.3 1.2-3 1.9-5.3 1.9-2 0-3.6-.5-4.9-1.5-1.5-1.2-2.3-2.9-2.3-4.9zm4.8-.1c0 1.1.2 1.9.7 2.5.5.5 1 .8 1.7.8s1.2-.3 1.7-.8c.4-.5.6-1.4.6-2.5s-.2-1.9-.7-2.4c-.5-.5-1-.8-1.7-.8s-1.3.3-1.7.8c-.4.5-.7 1.3-.6 2.4zM238.8 591.7c.6-.4 1.3-.7 2.3-.7 2.3 0 4.1.6 5.4 1.8 1.2 1.2 1.9 2.8 1.9 4.6 0 1.8-.6 3.4-1.8 4.7-1.2 1.3-3 1.9-5.3 2-2.3 0-4.1-.6-5.3-1.9-1.2-1.3-1.8-3.4-1.8-6.3 0-2.7.5-4.9 1.5-6.5 1-1.7 2.5-2.5 4.4-2.6l1.4-.1c1.3-.1 2-.2 2.1-.5h3.8c0 2.3-1.2 3.5-3.8 3.6-1.7.1-2.9.3-3.5.5-.7.3-1.1.7-1.3 1.4zm2.4 9.1c.8 0 1.4-.3 1.8-.9.4-.6.6-1.4.6-2.4s-.2-1.8-.7-2.4-1-.8-1.7-.8c-.8 0-1.4.3-1.8.9s-.6 1.4-.6 2.4.2 1.8.6 2.4c.5.5 1.1.8 1.8.8zM255 595.2l-4.6-.4c.2-.8.4-1.4.7-1.9.3-.5.8-.9 1.4-1.2.4-.2 1-.4 1.8-.6.8-.1 1.6-.2 2.5-.2 1.4 0 2.6.1 3.4.2.9.2 1.6.5 2.2 1 .4.3.7.8 1 1.5.2.6.4 1.3.4 1.8v5.5c0 .6 0 1 .1 1.4s.2.8.5 1.3h-4.5c-.2-.3-.3-.6-.4-.7-.1-.2-.1-.4-.2-.8-.6.6-1.2 1-1.9 1.3-.8.4-1.8.5-2.9.5-1.5 0-2.6-.3-3.4-1-.8-.7-1.2-1.5-1.2-2.5 0-.9.3-1.7.8-2.3.5-.6 1.6-1.1 3.1-1.4 1.8-.4 2.9-.6 3.5-.8s1.1-.3 1.7-.6c0-.6-.1-1-.4-1.2-.2-.2-.7-.3-1.3-.3-.8 0-1.4.1-1.8.4-.1.1-.3.5-.5 1zm4.2 2.5c-.7.2-1.3.5-2 .6-1 .3-1.6.5-1.8.8-.3.3-.4.6-.4.9 0 .4.1.7.4.9.3.2.6.4 1.2.3.5 0 1-.1 1.5-.4.5-.3.8-.6 1-1s.3-.9.3-1.5l-.2-.6zM279.8 603.4H275v-4.6c-1.2.7-2.5 1.1-3.9 1.1-3 0-4.5-1.6-4.5-4.7V591h4.8v3.4c0 .6.1 1 .4 1.3.3.3.6.5 1.1.5.9 0 1.6-.4 2.1-1.1V591h4.8v12.4zM296.4 598.2l-9.6.1c.1.8.3 1.3.6 1.7.5.5 1.1.8 1.8.8.5 0 .9-.1 1.3-.4.3-.2.5-.4.8-.8l4.7.4c-.7 1.3-1.6 2.2-2.6 2.7-1 .6-2.5.8-4.4.9-1.6 0-2.9-.2-3.9-.7-.9-.5-1.7-1.2-2.4-2.2-.6-1-1-2.2-1-3.6 0-1.9.6-3.5 1.8-4.7s3-1.8 5.1-1.9c1.8 0 3.2.2 4.2.8 1 .5 1.8 1.3 2.4 2.3s.8 2.3.8 4l.4.6zm-4.9-2.2c-.1-.9-.4-1.6-.8-2-.4-.4-.9-.6-1.6-.6-.8 0-1.4.3-1.8.9-.3.4-.5.9-.5 1.7h4.7zM308 596.6c.9.1 1.7.4 2.3.9.6.5.8 1.2.9 2.1 0 1.2-.4 2.1-1.1 2.7s-2.2.9-4.2.9l-7.1.1-.1-12.4 7.7-.1c1.4 0 2.5.2 3.2.8.7.5 1.1 1.3 1.1 2.2 0 .7-.2 1.3-.7 1.8-.7.4-1.3.7-2 1zm-4.7-1.1h1.2c.8 0 1.2-.4 1.2-1.1 0-.6-.4-.9-1.3-.9h-1.1v2zm.1 4.8h1.6c.4 0 .7-.1.9-.3.2-.2.4-.4.4-.8 0-.8-.4-1.1-1.3-1.1h-1.6v2.2zM322.6 598.2l4.5.5c-.2.9-.6 1.8-1.2 2.5s-1.3 1.2-2.2 1.6-2 .6-3.4.6c-1.3 0-2.4-.1-3.3-.3-.9-.2-1.6-.6-2.3-1.2-.6-.5-1.1-1.2-1.5-1.9-.4-.7-.6-1.7-.6-2.9 0-1.3.2-2.3.6-3.2.3-.6.7-1.2 1.3-1.7.5-.5 1.1-.9 1.7-1.1.9-.4 2.1-.6 3.6-.6 2 0 3.6.3 4.7 1s1.8 1.8 2.3 3.2l-4.5.6c-.1-.5-.4-.9-.8-1.2s-.9-.4-1.5-.4c-.8 0-1.4.3-1.9.9-.5.6-.7 1.4-.7 2.6 0 1 .3 1.8.7 2.3.5.5 1.1.8 1.9.8.6 0 1.1-.2 1.6-.5s.8-1 1-1.6zM343.3 602.9h-5.4l-1.8-3.4c-.3-.5-.6-.9-.9-1-.3-.1-.6-.2-1-.2v4.7h-4.8l-.1-12.4h4.8v4.5c.4 0 .7-.2.9-.4s.5-.7.8-1.4c.3-.7.7-1.3.9-1.6.3-.3.6-.6 1.1-.8.4-.2 1-.3 1.6-.3s1.6-.1 2.9-.1v3.4h-.2c-.6 0-1.1 0-1.5.1s-.6.2-.8.3c-.2.2-.4.5-.7 1-.3.5-.5.9-.7 1.1-.2.2-.4.3-.8.4.7.1 1.2.2 1.5.4s.9.9 1.6 2.1l2.6 3.6zM344.2 596.7c0-1.9.6-3.5 1.9-4.7 1.3-1.2 3-1.9 5.2-1.9 2.5 0 4.4.7 5.7 2.1 1 1.2 1.6 2.6 1.6 4.3 0 1.9-.6 3.5-1.9 4.7-1.3 1.2-3 1.9-5.3 1.9-2 0-3.6-.5-4.9-1.5-1.5-1.3-2.3-2.9-2.3-4.9zm4.8-.1c0 1.1.2 1.9.7 2.5.5.5 1 .8 1.7.8s1.2-.3 1.7-.8c.4-.5.6-1.4.6-2.5s-.2-1.9-.7-2.4c-.5-.5-1-.8-1.7-.8s-1.3.3-1.7.8c-.4.5-.7 1.3-.6 2.4zM371 593.6h-5.3l.1 9H361l-.1-12.4 10.1-.1v3.5zM372.4 596.4c0-1.9.6-3.5 1.9-4.7 1.3-1.2 3-1.9 5.2-1.9 2.5 0 4.4.7 5.7 2.1 1 1.2 1.6 2.6 1.6 4.3 0 1.9-.6 3.5-1.9 4.7-1.3 1.2-3 1.9-5.3 1.9-2 0-3.6-.5-4.9-1.5-1.5-1.2-2.3-2.9-2.3-4.9zm4.7 0c0 1.1.2 1.9.7 2.5s1 .8 1.7.8 1.2-.3 1.7-.8c.4-.5.6-1.4.6-2.5s-.2-1.9-.7-2.4c-.5-.5-1-.8-1.7-.8s-1.3.3-1.7.8c-.3.4-.6 1.3-.6 2.4z"/></g>
  <!-- LINES -->
</svg>