<?xml version="1.0" encoding="utf-8"?>
<!-- Generator: Adobe Illustrator 25.4.1, SVG Export Plug-In . SVG Version: 6.00 Build 0)  -->
<svg version="1.1" id="Слой_1" xmlns="http://www.w3.org/2000/svg" xmlns:xlink="http://www.w3.org/1999/xlink" x="0px" y="0px"
	 viewBox="0 0 2374 1067" style="enable-background:new 0 0 2374 1067;" xml:space="preserve">
<style type="text/css">
	.st0{fill:#FF353A;}
</style>
<g transform="translate(0.000000,1067.000000) scale(0.100000,-0.100000)">
	<path class="st0" d="M21547,10082.9c-1,1-240,34-532,73c-291,39-541,74-555,76l-25,6l-144-1063c-80-585-146-1065-148-1068
		c-2-2-114,11-249,29c-134,19-247,31-250,29c-7-7-129-877-123-882c2-2,114-20,247-39c134-20,246-38,249-40c3-3-11-124-31-269
		s-84-612-142-1038c-57-426-107-790-111-808c-5-30-42-64-286-268l-281-234h-2856v100h-910v-607l-112-6c-62-4-740-7-1505-7h-1393
		v-140h1660v-340h100v340h2060v-465l2197,3c1208,1,2199,4,2201,7c2,2,42,266,87,587c364,2563,436,3081,429,3087c-5,5-337,54-739,111
		c-401,57-734,106-739,111c-9,7,81,669,92,680c4,4,339-41,744-99c406-58,741-102,745-99C21233,7856.9,21552,10078.9,21547,10082.9z
		 M16180,4046.9c-10-19-23-20-339-20c-266,0-331,3-340,14c-8,9-11,87-9,262l3,248l25,13c36,18,604,18,640,0l25-13l3-242
		C16189,4152.9,16187,4058.9,16180,4046.9z M17295,3581.9l-487-3l-488-2v444c0,346,3,445,13,449c6,3,226,5,487,4l475-2V3581.9z
		 M17726,3587.9c-9-8-63-11-172-9l-159,3l-3,435c-1,239,0,441,3,448c7,18,318,17,333-1c8-9,11-149,12-439
		C17740,3671.9,17738,3597.9,17726,3587.9z M18188,4006.9l-3-425h-360l-3,435c-1,239,0,441,3,448c3,9,49,12,179,12
		c174,0,176,0,181-22C18188,4441.9,18189,4240.9,18188,4006.9z M19138,4020.9l-3-439h-860v890l385,5c438,6,459,5,471-7
		C19136,4464.9,19139,4275.9,19138,4020.9z M20588,4172.9l-83-629l-635,8c-349,4-636,8-637,9c0,0-3,207-4,459c-3,323-1,460,7,465
		c14,9,440,362,518,429c40,35,68,51,81,49c11-2,203-33,427-68c327-50,408-66,408-78C20671,4808.9,20634,4518.9,20588,4172.9z
		 M20843,5843.9c-2-12-28-209-58-437c-68-507-60-470-92-470c-22,0-705,90-805,106c-34,5-38,9-38,37c0,28,103,809,116,885
		c5,27,11,32,33,32c15,0,209-25,431-55c224-30,406-59,410-65C20844,5870.9,20845,5855.9,20843,5843.9z M20240,7166.9
		c36-5,218-30,404-55c186-25,343-48,347-51c5-3,9-19,9-35c0-66-133-1005-143-1016c-9-9-106,1-417,43c-223,30-416,57-429,60
		c-22,5-23,8-17,57c48,380,129,967,136,985C20141,7179.9,20148,7180.9,20240,7166.9z M21134,7994.9c-4-13-15-18-37-18
		c-65,1-820,109-830,119c-12,12-11,19,52,486c48,355,46,345,70,345c11,0,203-25,427-55c225-31,413-60,418-65
		C21242,8798.9,21149,8050.9,21134,7994.9z M21334,9465.9c-38-281-73-518-79-526c-9-12-75-5-425,42c-228,31-421,58-427,60
		c-7,2-13,17-13,32c0,60,133,1009,143,1021c7,10,23,12,51,8c23-4,156-22,296-41s310-42,376-51c67-9,128-20,135-24
		C21401,9979.9,21389,9872.9,21334,9465.9z"/>
	<path class="st0" d="M19778,4541.9c20-52,38-95,41-95c4,0,17,27,30,61c13,33,25,58,27,56s12-28,23-58c10-30,21-54,26-54
		c4,0,22,42,40,93l32,92h-26c-18,0-22-3-13-9c11-7,11-16,1-50c-7-22-15-41-19-41s-12,19-19,41c-10,34-10,43,1,50c8,6-5,9-35,9
		c-44,0-47-1-33-16c9-8,16-17,16-18c0-8-31-76-34-76c-2,0-11,21-20,47c-13,37-13,48-4,55c8,4-4,8-28,8h-41L19778,4541.9z"/>
	<path class="st0" d="M19940,4076.9v-290h30h30v290v290h-30h-30V4076.9z"/>
	<path class="st0" d="M19702,4251.9c-22-16-77-169-66-187c14-22,33-2,49,55c10,34,22,66,27,72c11,13,11,11-22-100
		c-16-55-30-103-30-107s12-8,28-10c27-3,27-3,32-98c3-52,8-94,13-92c4,1,12,2,17,2c6,0,10,39,10,96c0,61,4,93,10,89c6-3,10-46,10-94
		c0-92,3-103,26-94c11,4,14,28,14,99v94h31c25,0,30,3,25,16c-18,46-57,196-53,200c3,3,13-21,22-53s18-64,20-70c7-20,35-15,35,6
		c0,39-42,157-62,174C19812,4271.9,19733,4272.9,19702,4251.9z"/>
	<path class="st0" d="M20074,4241.9c-23-23-25-31-22-112c3-74,6-88,21-91s17,6,17,72c0,44,4,76,10,76s10-73,10-200v-200h25h25l2,128
		l2,127l6-125l5-125h25h25l5,200c3,110,7,165,8,123c2-71,4-78,22-78c19,0,20,7,20,90s-2,93-25,115c-21,22-33,25-90,25
		S20096,4263.9,20074,4241.9z"/>
	<path class="st0" d="M15552,4304.9l3-133l128-3l127-3v136v135h-130h-131L15552,4304.9z"/>
	<path class="st0" d="M15860,4301.9v-135h130h130v135v135h-130h-130V4301.9z"/>
	<path class="st0" d="M10021,4061.9l-1591-8l-2,309l-3,309l-32-1c-18,0-222-1-453-2l-420-2v-100h-423c-233,0-876-3-1428-6l-1004-7
		l-275,228c-151,125-279,230-283,235c-6,6-307,2106-307,2146c0,7,93,24,240,45c133,18,246,36,252,40c8,5-7,134-52,446
		c-35,241-64,439-66,441c-1,2-113-13-249-33s-249-35-251-33c-1,2-69,472-149,1043c-80,572-148,1050-150,1063c-6,25-5,25-125,7
		c-47-7-285-41-530-75s-446-63-448-65c-3-3,318-2228,323-2233c2-2,342,46,757,106c414,61,754,109,755,109c4-5,100-683,97-686
		c-2-2-183-30-402-62c-218-32-558-82-754-111l-357-52l5-25c2-14,121-836,264-1826c143-990,261-1807,263-1815c2-13,210-15,1817-12
		c998,1,1989,5,2203,9l387,6v467h1940v-330h100v330l968,2l967,3l3,74l3,73L10021,4061.9z M2558,8894.9c-9,9-148,969-148,1024
		c0,20,6,29,23,33c36,9,779,113,814,114c27,1,32-3,37-26c3-16,33-224,66-463c33-239,64-462,69-495s5-64,0-69
		C3406,8998.9,2569,8883.9,2558,8894.9z M3546,8053.9c-20-8-796-117-830-117c-14,0-27,4-30,8c-10,17-116,816-109,823
		c4,4,143,27,308,50c165,22,338,47,385,54c103,15,167,18,174,7c4-7,26-162,113-778C3561,8067.9,3559,8058.9,3546,8053.9z
		 M2819,7019.9c9,9,812,126,845,124c10-1,23-9,27-17c14-26,149-1034,140-1043c-5-5-199-36-432-68c-341-48-425-57-435-47
		C2949,5985.9,2808,7008.9,2819,7019.9z M3105,4901.9l-62,440c-34,242-62,455-63,472c0,26,5,34,23,38c35,9,779,113,814,114
		c17,0,34-3,37-8c4-5,35-216,70-468c50-354,62-461,53-470c-13-13-794-126-841-121L3105,4901.9z M4590,3559.9l-442-6
		c-673-10-838-9-843,6c-5,14-154,1126-162,1207l-5,55l413,57c228,31,426,55,440,55c19-2,112-73,313-240l286-237V3559.9z
		 M5096,3557.9c-9-8-72-11-202-9l-189,3l-3,435c-1,239,0,441,3,448c3,9,52,12,198,12h194l6-232C5115,3813.9,5112,3570.9,5096,3557.9
		z M5548,3554.9c-22-13-332-10-346,4c-9,9-12,121-12,443c0,238,3,435,7,439c4,3,86,5,182,4l176-3l3-439
		C5560,3657.9,5558,3561.9,5548,3554.9z M5988,3552.9c-30-8-302-8-322,0c-14,5-16,55-16,450v444l178-2l177-3l3-441l2-442
		L5988,3552.9z M6442,3569.9c-6-9-227-19-324-14c-17,1-18,29-18,446v444l73,4c147,7,242,6,253-1
		C6439,4440.9,6454,3589.9,6442,3569.9z M6938,3995.9l-3-434h-400l-3,439c-2,345,0,441,10,448c7,4,95,8,194,8c141,0,184-3,193-14
		C6937,4433.9,6939,4307.9,6938,3995.9z M7518,3995.9l-3-434h-480l-5,430c-3,237-2,438,2,448c8,15,29,17,237,17c181,0,231-3,240-14
		C7517,4433.9,7519,4307.9,7518,3995.9z M8328,4272.9c-2-176-6-238-16-248s-85-13-338-13c-311,0-326,1-340,19c-22,31-21,488,2,510
		c13,14,58,16,339,16h325l15-24C8329,4511.9,8331,4473.9,8328,4272.9z"/>
	<path class="st0" d="M3678,4541.9c20-52,38-95,41-95c4,0,17,27,30,61c13,33,25,58,27,56s12-28,23-58c10-30,21-54,26-54
		c4,0,22,42,40,93c29,84,30,92,14,92c-12,0-16-5-13-14c6-17-21-103-28-90c-3,5-11,26-18,48c-10,32-10,40,1,47c9,6-3,9-34,9
		c-44,0-47-1-33-16c9-8,16-17,16-18c0-8-31-76-34-76c-2,0-11,21-20,47c-13,37-13,48-4,55c8,4-4,8-28,8h-41L3678,4541.9z"/>
	<path class="st0" d="M3840,4076.9v-290h30h30v290v290h-30h-30V4076.9z"/>
	<path class="st0" d="M3602,4251.9c-22-16-77-169-66-187c14-23,34-3,49,50c22,77,25,86,30,80c2-2-9-50-25-106c-17-56-30-104-30-106
		c0-3,12-6,28-8c27-3,27-3,32-98c3-52,8-94,13-92c4,1,12,2,17,2c6,0,10,37,10,90s4,90,10,90s10-36,10-88c0-93,3-104,26-95
		c11,4,14,28,14,99v94h31c25,0,30,3,25,16c-17,45-57,196-53,200c3,3,14-27,26-65c14-46,27-71,36-71c8,0,15,9,15,19
		c0,39-42,157-62,174C3712,4271.9,3633,4272.9,3602,4251.9z"/>
	<path class="st0" d="M3974,4241.9c-23-23-25-31-22-112c3-74,6-88,21-91s17,6,17,72c0,44,4,76,10,76s10-73,10-200v-200h25h25l2,123
		l2,122l6-120c5-120,5-120,30-120h25l5,200c3,110,7,165,8,123c2-71,4-78,22-78c19,0,20,7,20,90s-2,93-25,115c-21,22-33,25-90,25
		S3996,4263.9,3974,4241.9z"/>
	<path class="st0" d="M7697,4419.9c-4-3-7-64-7-135v-128h129c108,0,130,3,135,16c3,9,6,62,6,119s-3,110-6,119c-5,13-26,16-128,16
		C7758,4426.9,7700,4423.9,7697,4419.9z"/>
	<path class="st0" d="M8007,4420.9c-4-4-7-65-7-136v-128h130h131l-3,133l-3,132l-121,3C8068,4425.9,8011,4423.9,8007,4420.9z"/>
	<path class="st0" d="M22048,3764.9c-164,27-299,50-302,53c-2,2,59,461,135,1019s213,1564,304,2235s217,1591,279,2045
		s110,826,107,827s-125,18-271,38c-146,19-282,38-302,41c-35,5-37,4-43-28c-3-18-63-445-135-948c-71-503-168-1187-215-1520
		s-182-1280-299-2105l-213-1500l76-12c42-6,168-24,280-39l203-27l-6-48c-6-46-6-48,21-53c103-21,797-125,804-120c5,3,9,20,9,39v33
		l-67,11C22375,3711.9,22211,3738.9,22048,3764.9z M21989,9478.9c30,211,58,391,63,402c8,14,17,17,46,13c21-3,108-16,194-28
		s162-26,169-30c10-6,0-96-43-399c-31-216-60-396-66-402c-10-10-380,39-404,53C21938,9093.9,21946,9174.9,21989,9478.9z
		 M21926,8961.9c13,13,8,13,238-20c87-13,163-28,168-33c12-12-100-802-117-820c-10-11-46-8-203,14c-105,15-196,30-202,34
		C21796,8145.9,21908,8943.9,21926,8961.9z M21794,8048.9c6,4,25,5,41,3c17-3,104-16,194-30c90-13,168-28,173-33c8-8-96-764-107-783
		c-4-5-18-9-33-9c-55,0-367,52-378,63C21670,7274.9,21776,8037.9,21794,8048.9z M21599,6752.9c29,203,55,372,57,376
		c8,13,51,10,230-18c93-14,174-31,181-37c9-9,0-95-41-379c-29-202-56-371-59-375c-8-8-389,46-408,58
		C21549,6383.9,21558,6467.9,21599,6752.9z M21473,5851.9c31,218,59,400,62,406c9,13,23,12,217-16c95-14,179-27,186-30
		c6-2,12-19,12-37c-1-63-107-769-117-779c-11-11-380,37-404,52C21419,5453.9,21429,5545.9,21473,5851.9z M21656.2,4080.4
		c-0.9-2.9-2.2-5.6-3.5-8.3c-2.5-14.2-5.7-33.6-7.6-52.2c-4-29-12-57-19-62c-16-13-385,36-403,53c-7,7-9,28-6,60l4.4,35
		c-0.5,2.8-0.8,5.6-0.8,8.3c0.4,15.3,5,31.4,9.8,47.7c-2.4,35.7-4.9,71.1,6.7,106.4c3.1,9.5,7.8,17,13.6,22.6l3.3,22
		c3,25,8,50,12,55c8,13,35,11,224-16c95-14,177-28,182-31c9.9-6.1,5.8-90.6-3.4-140.3C21672.1,4147.9,21667.4,4115,21656.2,4080.4z
		 M21491,4456.9c-106,16-198,33-203,38c-12,12,98,810,115,830c6,8,21,10,41,7c17-3,104-17,194-29c90-13,169-29,175-35
		c15-15-96-809-115-827C21688,4431.9,21642,4434.9,21491,4456.9z"/>
	<path class="st0" d="M2706,4128.9c-19,133-121,837-226,1563s-192,1329-195,1341c-5,21-5,21-271-18c-146-22-268-37-271-34
		c-4,3-27,158-53,343l-46,338l30,7c17,4,133,21,258,39s232,35,238,39c11,7,1,83-245,1781c-36,245-65,449-65,453c0,8,24,11-323-39
		c-165-24-300-45-302-47c-1-2,26-205,61-453c35-247,214-1525,399-2840c185-1314,349-2484,365-2599c17-115,30-214,30-220
		c0-7-140-35-361-71c-198-33-365-62-370-66c-5-3-6-20-2-40l8-35l826,140l-6,90l275,39c151,22,276,41,278,42
		C2740,3883.9,2726,3994.9,2706,4128.9z M1357,9796.9c8,8,330,57,385,59c21,1,29-5,33-21c20-94,142-1025,134-1032c-5-6-95-22-201-37
		c-150-22-196-25-205-16C1488,8764.9,1345,9785.9,1357,9796.9z M1591,8043.9c-18,131-42,311-55,400c-12,90-20,167-16,173
		c6,10,302,57,372,59c20,1,39-3,42-7c11-19,118-814,110-822c-5-5-98-21-207-36c-146-20-201-24-206-16
		C1627,7800.9,1609,7913.9,1591,8043.9z M1864,6199.9c-7,6-106,678-102,683c5,4,363,61,395,63c13,1,24-6,27-16c10-37,99-663,94-668
		C2271,6254.9,1869,6194.9,1864,6199.9z M1961,5500.9c-13,17-94,587-84,597c7,7,343,65,395,68c9,1,19-3,22-8c9-14,88-560,84-584
		c-3-20-17-23-206-52C2031,5499.9,1967,5493.9,1961,5500.9z M2078,4724.9c-13,13-103,661-92,671c10,11,307,58,371,60
		c40,1,42-1,48-31c15-90,85-595,85-619c0-32,21-26-234-65C2163,4727.9,2083,4719.9,2078,4724.9z M2600,3982.9c-7-7-353-63-401-66
		c-13,0-18,31-65,361c-30,218-43,334-36,341c5,5,95,22,198,38c104,15,192,28,196,29c4,1,10-4,14-11
		C2520,4652.9,2609,3991.9,2600,3982.9z"/>
	<path class="st0" d="M20775,7806.9c-4-6,1-23,10-37l17-26l-61,7c-34,4-114,16-179,26c-115,19-141,17-130-12c4-9,59-21,159-37
		c85-13,164-25,177-28l23-5l-20-22c-25-26-27-46-6-46c18,0,115,68,115,81c0,5-16,31-36,59C20809,7815.9,20788,7827.9,20775,7806.9z"
		/>
	<path class="st0" d="M3041,7744.9c-23-30-37-58-33-65c11-19,105-83,114-77c15,10,8,39-13,52c-12,7-19,15-17,18c2,2,69,13,149,24
		c208,30,236,39,209,66c-9,9-218-16-344-40l-28-6l17,26c16,26,14,54-4,54C3085,7796.9,3063,7773.9,3041,7744.9z"/>
	<path class="st0" d="M20416,7471.9c-25-20-46-39-46-43c0-16,73-112,86-112c22,0,26,20,9,46c-9,14-15,27-13,29s66-7,143-20
		c218-35,213-35,225-21c18,22-9,33-125,51c-60,9-141,21-179,27l-69,11l26,19c15,11,27,26,27,34
		C20500,7516.9,20465,7507.9,20416,7471.9z"/>
	<path class="st0" d="M3384,7474.9c-4-6,4-21,21-34l28-22l-54-10c-30-6-109-18-176-28c-133-19-149-24-140-48c5-13,15-15,44-11
		c21,3,104,16,186,28c81,13,147,20,147,16s-7-12-15-19c-19-16-19-50,0-50c16,0,85,86,85,106c0,15-87,84-106,84
		C3397,7486.9,3388,7481.9,3384,7474.9z"/>
	<path class="st0" d="M11873,4080.9c-9-4-13-33-13-94c0-71,3-89,16-94c23-9,237-7,252,2c9,6,12,33,10,98l-3,89l-125,2
		C11941,4084.9,11879,4082.9,11873,4080.9z"/>
	<path class="st0" d="M8450,3601.9v-135h120h120v135v135h-120h-120V3601.9z"/>
	<path class="st0" d="M9037,3729.9c-4-3-7-64-7-135v-128h120h120v135v135h-113C9094,3736.9,9040,3733.9,9037,3729.9z"/>
	<path class="st0" d="M14900,3601.9v-135h120h120v135v135h-120h-120V3601.9z"/>
	<path class="st0" d="M22379,3191.9c-20,4-785,125-794,125c-1,0-8-35-14-77c-6-43-14-99-17-125l-7-48h-5337v-1510h-700v1510h-2040
		v-120h970l2-422c2-233,3-424,2-425c0-1-148-4-330-5c-181-1-400-4-486-6l-158-3v-79h-1070v-132l1503,3l1502,3l3-217l2-217h900v460
		l1483,1c815,1,1979,5,2587,8l1105,6l87,644c48,354,90,646,93,649c2,3,164-21,360-53c195-32,358-56,361-53c3,3,7,22,11,41
		C22402,3181.9,22400,3186.9,22379,3191.9z M15398,2480.9l-3-459h-840l-3,455c-2,375,0,457,11,465c17,13,807,19,825,7
		C15397,2942.9,15400,2841.9,15398,2480.9z M17288,2024.9c-7-4-224-7-483-5l-470,2l-3,455c-1,250,0,461,3,468c3,9,109,12,479,12
		c261,0,477-4,480-9s6-212,6-461C17301,2127.9,17298,2031.9,17288,2024.9z M17728,2028.9c-17-17-309-17-326,0c-9,9-12,126-12,463
		c0,249,3,455,7,458c3,4,79,7,169,7c138,0,163-2,168-16c3-9,6-215,6-458C17740,2152.9,17737,2037.9,17728,2028.9z M18178,2028.9
		c-13-13-315-17-334-4c-16,11-29,899-13,918c9,11,47,14,179,14c144,0,169-2,174-16c3-9,6-215,6-458
		C18190,2152.9,18187,2037.9,18178,2028.9z M19123,2028.9c-13-9-113-12-419-12c-353,0-405,2-418,16c-14,14-16,69-16,454
		c0,241,3,446,6,454c6,15,50,16,433,14l426-3l3-455C19140,2077.9,19139,2040.9,19123,2028.9z M19588,2028.9c-8-8-59-12-164-12
		c-125,0-155,3-168,16c-14,14-16,69-16,459s2,445,16,459c13,13,42,16,164,16s151-3,164-16c14-14,16-69,16-463
		C19600,2153.9,19597,2037.9,19588,2028.9z M20031,2026.9c-21-11-308-14-335-4c-14,5-16,56-16,469c0,361,3,464,13,468
		c6,3,83,6,169,6c130,1,159-2,172-15c14-14,16-70,16-464C20050,2052.9,20049,2036.9,20031,2026.9z M20484,2022.9c-20-8-318-8-338,0
		c-14,5-16,56-16,469c0,361,3,464,13,468c18,8,322,8,341,1c14-5,16-56,16-469C20500,2078.9,20498,2027.9,20484,2022.9z
		 M21375,2036.9c-4-6-141-10-396-10h-389v463c0,255,3,467,7,470c9,10,891,9,897-1C21500,2948.9,21384,2051.9,21375,2036.9z"/>
	<path class="st0" d="M10985,2004.9l-625-4v87l-980-6v855h163c89,0,307,3,485,7l322,6v107H8330v-1520l-347,2l-348,3l-3,752l-2,752
		l-1158-4c-636-3-1837-7-2668-10l-1512-4l-5,32c-4,18-11,69-18,115c-9,65-15,82-28,81c-9-1-191-31-406-68c-352-61-390-69-393-87
		c-6-45-1-45,372,17c197,33,360,58,361,57c1-2,41-282,89-623c47-341,89-633,92-649l6-29l2584,7l2584,7v-88c0-48,3-152,7-230l6-143
		h897v437l1172,6c644,4,1357,7,1585,7h413v132L10985,2004.9z M3247,2004.9c-7-17-36-18-392-18c-211,0-386,4-389,8
		c-2,4-32,212-66,462c-49,362-58,455-48,462c7,4,211,7,453,5l440-2l5-450C3253,2224.9,3252,2013.9,3247,2004.9z M3708,2450.9l-3-459
		l-174-3c-133-2-176,1-183,10c-4,7-8,216-8,465c0,352,3,452,13,456c20,9,331,7,345-1C3708,2911.9,3710,2811.9,3708,2450.9z
		 M4144,1992.9c-20-8-308-8-328,0c-14,5-16,56-16,463c0,252,3,461,7,464c12,13,328,8,341-5c9-9,12-126,12-464
		C4160,2047.9,4158,1997.9,4144,1992.9z M4578,1994.9c-17-10-299-10-315,0c-10,6-13,114-13,460c-1,249,2,457,5,463c4,6,69,8,168,7
		l162-3l3-459C4590,2101.9,4588,2001.9,4578,1994.9z M5088,1992.9c-45-12-363-7-376,6c-9,9-12,126-12,463c0,249,3,455,7,459
		c4,3,95,5,202,4l196-3l3-461l2-462L5088,1992.9z M5568,2441.9l-3-440l-160-5c-88-3-170-3-182-1l-23,3v928h180c178,0,180,0,185-22
		C5568,2891.9,5569,2683.9,5568,2441.9z M6016,2018.9c-7-22-11-22-181-22c-173,0-175,0-180,23c-3,12-4,220-3,462l3,440l145,5
		c120,5,199,3,206-4C6012,2917.9,6021,2035.9,6016,2018.9z M6531,1998.9c-223-1-408,1-413,6c-4,4-11,209-14,456c-7,430-6,449,11,462
		c15,11,95,14,404,14c212,0,391-4,398-8c8-5,12-132,15-467l3-460L6531,1998.9z M7508,2019.9c-7-23-8-23-237-23c-199,0-230,2-235,16
		c-3,9-6,217-6,464c0,349,3,449,13,453c6,3,113,5,237,4l225-2l5-445C7513,2241.9,7512,2031.9,7508,2019.9z M9282,2014.9
		c-5-5-189-12-410-15c-319-5-404-4-417,7s-15,69-15,465c0,248,3,455,7,458c4,4,194,6,422,5l416-3l3-454
		C9289,2227.9,9286,2018.9,9282,2014.9z"/>
	<path class="st0" d="M9635,2741.9c-25-25-45-50-45-55c0-13,88-100,101-100c21,0,21,32-1,55l-23,25l189,2c160,3,189,5,189,18
		s-29,15-189,18l-189,2l23,25c22,23,22,55,1,55C9685,2786.9,9660,2766.9,9635,2741.9z"/>
	<path class="st0" d="M13773,2742.9c-24-24-43-49-43-56c0-17,81-100,97-100c23,0,25,22,4,51l-21,29l187,2c159,3,188,5,188,18
		s-29,15-188,18l-187,2l21,29c21,29,19,51-4,51C13820,2785.9,13796,2766.9,13773,2742.9z"/>
	<path class="st0" d="M7797,2570.9c-4-4-7-91-7-192v-185l-23,21c-27,26-45,28-54,6c-3-10,11-30,41-60c25-24,50-44,54-44
		c16,0,104,99,98,109c-11,17-31,13-52-10c-19-21-19-19-24,167C7825,2558.9,7819,2592.9,7797,2570.9z"/>
	<path class="st0" d="M8107,2531.9c-26-24-47-49-47-55c0-22,32-22,55,0l25,23l2-189c3-160,5-189,18-189s15,29,18,188
		c1,103,6,187,11,187s15-10,23-22c15-22,48-20,48,3c0,13-85,99-98,99C8157,2576.9,8133,2556.9,8107,2531.9z"/>
	<path class="st0" d="M15677,2570.9c-4-4-7-90-7-191v-184l-29,22c-28,21-51,19-51-3c0-13,86-98,98-98c16,0,104,99,98,109
		c-11,17-31,13-52-10c-19-21-19-19-24,167C15705,2558.9,15699,2592.9,15677,2570.9z"/>
	<path class="st0" d="M15985,2531.9c-25-24-45-49-45-55c0-22,32-22,55,0l25,23l2-189c3-160,5-189,18-189s15,29,18,188
		c1,103,6,187,11,187s15-10,23-22c15-22,48-20,48,3c0,15-86,99-100,99C16034,2576.9,16009,2556.9,15985,2531.9z"/>
	<path class="st0" d="M10645,2434.9c-3-13-5-55-3-93l3-70h140h140v90v90l-137,3C10652,2457.9,10650,2456.9,10645,2434.9z"/>
	<path class="st0" d="M12895,2434.9c-3-13-5-55-3-93l3-70h140h140v90v90l-137,3C12902,2457.9,12900,2456.9,12895,2434.9z"/>
	<path class="st0" d="M14074,2421.9c-4-10,3-26,16-41l23-24h-187c-162,0-187-2-193-16c-3-9-1-19,5-23s93-7,192-6c99,0,180-3,180-7
		s-9-12-20-18c-22-12-26-35-10-45c15-9,54,18,86,60l27,36l-39,40C14103,2430.9,14082,2442.9,14074,2421.9z"/>
	<path class="st0" d="M9930,2414.9c0-6,10-22,22-35l21-23h-187c-159,0-188-2-193-15c-3-9-2-19,1-23c4-3,90-6,192-7
		c101,0,184-3,184-6c0-4-10-13-22-21c-14-9-19-20-15-31c9-24,21-21,62,14c62,55,63,65,14,115C9968,2424.9,9930,2439.9,9930,2414.9z"
		/>
</g>
</svg>
